<svg xmlns="http://www.w3.org/2000/svg" width="101.419" height="101.419" viewBox="0 0 101.419 101.419">
  <g id="gateway" transform="translate(0 0)">
    <path id="Path_50" data-name="Path 50" d="M0,320H59.452v6.994H0Zm0,0" transform="translate(0 -250.056)" fill="#fff"/>
    <path id="Path_51" data-name="Path 51" d="M277.246,52.983a5.253,5.253,0,0,0,5.246-5.246V32H272V47.737A5.253,5.253,0,0,0,277.246,52.983Zm0,0" transform="translate(-212.548 -25.006)" fill="#fff"/>
    <path id="Path_52" data-name="Path 52" d="M0,387.235a1.751,1.751,0,0,0,1.749,1.749H57.7a1.751,1.751,0,0,0,1.749-1.749V368H0Zm47.212-12.24h6.994v3.5H47.212Zm-10.492,0h6.994v3.5H36.721Zm-10.492,0h6.994v3.5H26.229Zm0,6.994H54.207v3.5H26.229ZM8.743,371.5a6.749,6.749,0,0,1,1.218.124c.125.023.247.048.37.075a7,7,0,0,1,.909.283c.2.075.381.165.568.257.145.07.292.133.432.215a6.906,6.906,0,0,1,3.5-.955,6.994,6.994,0,0,1,0,13.989,6.905,6.905,0,0,1-3.5-.955c-.138.082-.287.143-.43.215-.189.092-.376.184-.574.259a6.893,6.893,0,0,1-.905.282c-.123.027-.245.052-.37.075a6.746,6.746,0,0,1-1.218.124,6.994,6.994,0,0,1,0-13.989Zm0,0" transform="translate(0 -287.564)" fill="#fff"/>
    <path id="Path_53" data-name="Path 53" d="M27.5,406.994a3.4,3.4,0,0,0,.738-.082c.056-.013.108-.037.163-.051a3.555,3.555,0,0,0,1.425-.78l.2-.177a3.465,3.465,0,0,0,0-4.816l-.2-.177a3.6,3.6,0,0,0-1.425-.779c-.056-.016-.107-.038-.163-.051A3.429,3.429,0,0,0,27.5,400a3.5,3.5,0,0,0,0,6.994Zm0,0" transform="translate(-18.754 -312.57)" fill="#fff"/>
    <path id="Path_54" data-name="Path 54" d="M68.78,406.994a3.5,3.5,0,0,0,0-6.994,3.286,3.286,0,0,0-.9.133,6.732,6.732,0,0,1,0,6.728,3.287,3.287,0,0,0,.9.133Zm0,0" transform="translate(-53.042 -312.57)" fill="#fff"/>
    <path id="Path_55" data-name="Path 55" d="M133.464,52.983h1.145a5.456,5.456,0,0,0,5.3-4.138l.382-1.532L143.352,32h-8.97L128.47,45.3a5.465,5.465,0,0,0,4.994,7.683Zm0,0" transform="translate(-100.022 -25.006)" fill="#fff"/>
    <path id="Path_56" data-name="Path 56" d="M199.869,47.737a5.253,5.253,0,0,0,5.246,5.246h1.533a5.239,5.239,0,0,0,5.089-3.973l.372-1.49V32h-9.065l-3.212,15.737Zm0,0" transform="translate(-156.154 -25.006)" fill="#fff"/>
    <path id="Path_57" data-name="Path 57" d="M219.452,1.749A1.751,1.751,0,0,0,217.7,0H161.749A1.751,1.751,0,0,0,160,1.749V3.5h59.452Zm0,0" transform="translate(-125.028)" fill="#fff"/>
    <path id="Path_58" data-name="Path 58" d="M57.7,288H1.749A1.751,1.751,0,0,0,0,289.749V291.5H59.452v-1.749A1.751,1.751,0,0,0,57.7,288Zm0,0" transform="translate(0 -225.05)" fill="#fff"/>
    <path id="Path_59" data-name="Path 59" d="M207.335,130.7a8.923,8.923,0,0,1-7.241-3.719,8.724,8.724,0,0,1-7.133,3.719h-1.533a8.712,8.712,0,0,1-7.1-3.679,8.689,8.689,0,0,1-14.2,0,8.712,8.712,0,0,1-7.1,3.679h-1.533a8.724,8.724,0,0,1-7.133-3.719,8.923,8.923,0,0,1-7.241,3.719h-1.145a8.909,8.909,0,0,1-1.967-.232v28.21h20.983V141.2h24.48v27.978h20.983v-38.7a8.885,8.885,0,0,1-1.967.232Zm-45.849,19.235H147.5V135.949h13.989Zm45.464-1.749H192.961V134.2H206.95Zm0,0" transform="translate(-112.525 -99.229)" fill="#fff"/>
    <path id="Path_60" data-name="Path 60" d="M408.668,45.3,402.757,32h-8.963l3.436,16.846a5.458,5.458,0,0,0,5.3,4.138h1.145a5.465,5.465,0,0,0,4.994-7.683Zm0,0" transform="translate(-307.72 -25.006)" fill="#fff"/>
    <path id="Path_61" data-name="Path 61" d="M384,176h6.994v6.994H384Zm0,0" transform="translate(-300.067 -137.531)" fill="#fff"/>
    <path id="Path_62" data-name="Path 62" d="M336,47.521l.372,1.488a5.238,5.238,0,0,0,5.089,3.974h1.533a5.247,5.247,0,0,0,5.236-5.137L345.058,32H336Zm0,0" transform="translate(-262.559 -25.006)" fill="#fff"/>
    <path id="Path_63" data-name="Path 63" d="M256,221.989h1.749a5.253,5.253,0,0,1,5.246,5.246v5.246h10.492V208H256Zm0,0" transform="translate(-200.045 -162.536)" fill="#fff"/>
    <path id="Path_64" data-name="Path 64" d="M176,184h6.994v6.994H176Zm0,0" transform="translate(-137.531 -143.782)" fill="#fff"/>
  </g>
</svg>
