<svg xmlns="http://www.w3.org/2000/svg" xmlns:xlink="http://www.w3.org/1999/xlink" width="42" height="42" viewBox="0 0 42 42">
  <defs>
    <filter id="Ellipse_2735" x="0" y="0" width="42" height="42" filterUnits="userSpaceOnUse">
      <feOffset dy="1" input="SourceAlpha"/>
      <feGaussianBlur stdDeviation="1.5" result="blur"/>
      <feFlood flood-opacity="0.161"/>
      <feComposite operator="in" in2="blur"/>
      <feComposite in="SourceGraphic"/>
    </filter>
    <linearGradient id="linear-gradient" x1="1" y1="-0.112" x2="0.165" y2="1" gradientUnits="objectBoundingBox">
      <stop offset="0" stop-color="#38f9d7"/>
      <stop offset="1" stop-color="#43e97b"/>
    </linearGradient>
  </defs>
  <g id="Group_1277" data-name="Group 1277" transform="translate(-2428.5 -133.5)">
    <g transform="matrix(1, 0, 0, 1, 2428.5, 133.5)" filter="url(#Ellipse_2735)">
      <circle id="Ellipse_2735-2" data-name="Ellipse 2735" cx="16.5" cy="16.5" r="16.5" transform="translate(4.5 3.5)" fill="#fff"/>
    </g>
    <g id="point-of-sale-terminal-pos" transform="translate(2337.723 144)">
      <path id="Path_964" data-name="Path 964" d="M116.9,1.7h-1.18V.59a.59.59,0,0,0-.59-.59h-5.7a.59.59,0,0,0-.59.59V1.7h-1.18a1.376,1.376,0,0,0-1.377,1.377V17a1.376,1.376,0,0,0,1.377,1.377H116.9A1.376,1.376,0,0,0,118.274,17V3.073A1.377,1.377,0,0,0,116.9,1.7Zm-3.048,1.377V1.18h.688v3.2h-.688Zm-3.835,0V1.18h2.163v3.2h-2.163v-1.3Zm.361,13.693a.59.59,0,0,1-.59.59h-.951a.59.59,0,0,1-.59-.59V15.75a.59.59,0,0,1,.59-.59h.951a.59.59,0,0,1,.59.59v1.016Zm0-2.967a.59.59,0,0,1-.59.59h-.951a.59.59,0,0,1-.59-.59V12.784a.59.59,0,0,1,.59-.59h.951a.59.59,0,0,1,.59.59V13.8Zm0-2.966a.59.59,0,0,1-.59.59h-.951a.59.59,0,0,1-.59-.59V9.817a.59.59,0,0,1,.59-.59h.951a.59.59,0,0,1,.59.59v1.016Zm2.967,5.933a.59.59,0,0,1-.59.59H111.8a.59.59,0,0,1-.59-.59V15.75a.59.59,0,0,1,.59-.59h.951a.59.59,0,0,1,.59.59Zm0-2.967a.59.59,0,0,1-.59.59H111.8a.59.59,0,0,1-.59-.59V12.784a.59.59,0,0,1,.59-.59h.951a.59.59,0,0,1,.59.59Zm0-2.966a.59.59,0,0,1-.59.59H111.8a.59.59,0,0,1-.59-.59V9.817a.59.59,0,0,1,.59-.59h.951a.59.59,0,0,1,.59.59Zm2.966,5.933a.59.59,0,0,1-.59.59h-.951a.59.59,0,0,1-.59-.59V15.75a.59.59,0,0,1,.59-.59h.951a.59.59,0,0,1,.59.59Zm0-2.967a.59.59,0,0,1-.59.59h-.951a.59.59,0,0,1-.59-.59V12.784a.59.59,0,0,1,.59-.59h.951a.59.59,0,0,1,.59.59Zm0-2.966a.59.59,0,0,1-.59.59h-.951a.59.59,0,0,1-.59-.59V9.817a.59.59,0,0,1,.59-.59h.951a.59.59,0,0,1,.59.59Zm0-3.445A1.008,1.008,0,0,1,115.3,8.4h-6.048a1.008,1.008,0,0,1-1.008-1.008V6.347a1.008,1.008,0,0,1,1.008-1.008H115.3a1.008,1.008,0,0,1,1.008,1.008V7.388Z" fill="url(#linear-gradient)"/>
    </g>
  </g>
</svg>
