<svg xmlns="http://www.w3.org/2000/svg" xmlns:xlink="http://www.w3.org/1999/xlink" width="42" height="42" viewBox="0 0 42 42">
  <defs>
    <filter id="Ellipse_2735" x="0" y="0" width="42" height="42" filterUnits="userSpaceOnUse">
      <feOffset dy="1" input="SourceAlpha"/>
      <feGaussianBlur stdDeviation="1.5" result="blur"/>
      <feFlood flood-opacity="0.161"/>
      <feComposite operator="in" in2="blur"/>
      <feComposite in="SourceGraphic"/>
    </filter>
    <linearGradient id="linear-gradient" x1="0.5" x2="0.5" y2="1" gradientUnits="objectBoundingBox">
      <stop offset="0" stop-color="#f905f5"/>
      <stop offset="1" stop-color="#17c9f2"/>
    </linearGradient>
  </defs>
  <g id="Group_1276" data-name="Group 1276" transform="translate(-2327.5 -88.5)">
    <g transform="matrix(1, 0, 0, 1, 2327.5, 88.5)" filter="url(#Ellipse_2735)">
      <circle id="Ellipse_2735-2" data-name="Ellipse 2735" cx="16.5" cy="16.5" r="16.5" transform="translate(4.5 3.5)" fill="#fff"/>
    </g>
    <g id="telephone" transform="translate(2338.994 99)">
      <g id="Group_1264" data-name="Group 1264" transform="translate(0.006)">
        <path id="Path_956" data-name="Path 956" d="M14.547,56.954a1.34,1.34,0,0,0-2.026,0c-.474.47-.947.939-1.413,1.417a.279.279,0,0,1-.39.072c-.306-.167-.633-.3-.927-.486a14.693,14.693,0,0,1-3.542-3.224A8.392,8.392,0,0,1,4.979,52.7a.291.291,0,0,1,.072-.374c.474-.458.935-.927,1.4-1.4a1.345,1.345,0,0,0,0-2.074c-.37-.374-.74-.74-1.11-1.114s-.76-.768-1.146-1.146a1.349,1.349,0,0,0-2.026,0c-.478.47-.935.951-1.421,1.413A2.306,2.306,0,0,0,.02,49.567,6.593,6.593,0,0,0,.529,52.4,17.244,17.244,0,0,0,3.59,57.5a18.941,18.941,0,0,0,6.273,4.908,9.072,9.072,0,0,0,3.475,1.011,2.546,2.546,0,0,0,2.185-.832c.406-.454.864-.868,1.294-1.3a1.354,1.354,0,0,0,.008-2.062Q15.689,58.086,14.547,56.954Z" transform="translate(-0.006 -44.301)" fill="url(#linear-gradient)"/>
        <path id="Path_957" data-name="Path 957" d="M242.168,101.66l1.469-.251A6.592,6.592,0,0,0,238.061,96l-.207,1.477a5.095,5.095,0,0,1,4.314,4.183Z" transform="translate(-228.387 -92.179)" fill="url(#linear-gradient)"/>
        <path id="Path_958" data-name="Path 958" d="M249.17,3.1A10.829,10.829,0,0,0,242.961,0l-.207,1.477a9.449,9.449,0,0,1,8,7.749l1.469-.251A10.909,10.909,0,0,0,249.17,3.1Z" transform="translate(-233.092)" fill="url(#linear-gradient)"/>
      </g>
    </g>
  </g>
</svg>
