<svg xmlns="http://www.w3.org/2000/svg" xmlns:xlink="http://www.w3.org/1999/xlink" width="333.667" height="373.92" viewBox="0 0 333.667 373.92">
  <defs>
    <clipPath id="clip-path">
      <rect id="Rectangle_2954" data-name="Rectangle 2954" width="333.667" height="373.92" rx="30" transform="translate(11305 2119)" fill="#01fef0"/>
    </clipPath>
    <filter id="Path_8" x="-112.867" y="-140.434" width="602.591" height="525.689" filterUnits="userSpaceOnUse">
      <feOffset dx="2" dy="2" input="SourceAlpha"/>
      <feGaussianBlur stdDeviation="4" result="blur"/>
      <feFlood flood-opacity="0.502"/>
      <feComposite operator="in" in2="blur"/>
      <feComposite in="SourceGraphic"/>
    </filter>
    <clipPath id="clip-path-2">
      <path id="Clip_76" data-name="Clip 76" d="M.065,3.084S-.849,18.9,4.178,18.789h0c5.027-.114,6.455-2.285,6.455-2.285h0a4.054,4.054,0,0,1-4.17-3.94h0s2.571,2.284,4.17-.857h0c1.6-3.141-.971-6.568-.971-6.568h0S4.35,3.941,2.579,0h0S1.779,2.684.065,3.084Z" transform="translate(0)" fill="none"/>
    </clipPath>
    <clipPath id="clip-path-3">
      <path id="Clip_100" data-name="Clip 100" d="M8.573,2.895C6.288,4.817,5.222,7.9,2.556,12.317h0C-.11,16.734-1.329,23.13,2.1,25.262h0c3.428,2.132,4.494,2.97,6.4,7.538h0a16.194,16.194,0,0,1,.895,3.271h0c3.356.729,11.114,1.436,16.7-5.62h0c-1.605-4.718-1.953-8.976-2.819-15.849h0C22.055,4.932,17.79.363,17.79.363h0A10.607,10.607,0,0,0,15.131,0h0c-2.855,0-4.776,1.4-6.558,2.895Z" transform="translate(0 0)" fill="none"/>
    </clipPath>
    <clipPath id="clip-path-4">
      <path id="Clip_221" data-name="Clip 221" d="M13.729,13.958c-.243,1.4-.428,2.7-.563,3.939h0A71.038,71.038,0,0,0,11.005,1.383h0A27.539,27.539,0,0,0,9.633,13.457h0a48.049,48.049,0,0,0,1.184,6.3h0A80.1,80.1,0,0,0,5.4,7.559h0A6.589,6.589,0,0,0,3.843,5.49h0a17.1,17.1,0,0,0-.125,6.256h0a30.745,30.745,0,0,0,4.2,11.035h0A21.656,21.656,0,0,0,0,18.085H0c1.977,5.35,8.365,9.1,13.555,10.992h0l-.014.021h0l.022-.018h0l.092.035h0l.106-.2h0c5.037-4.164,11.105-8.557,12.974-14.789h0c-5.2,3.711-9.014,8.982-12.676,14.227h0c1.833-3.466,2.506-3.918,4.649-7.741h0a34.015,34.015,0,0,0,4.2-13.5h0c-3.933,4.984-6.532,10.958-8.521,17.054h0C16.076,16.027,19.534,8.327,18.7,0h0a45.136,45.136,0,0,0-4.968,13.958" fill="none"/>
    </clipPath>
    <clipPath id="clip-path-14">
      <path id="Clip_259" data-name="Clip 259" d="M25.251,1.074C21.137,4.9,13.139,15.123,10.74,17.379h0c-2.4,2.256-4.227-3.055-4.227-3.055h0L0,20.434s.552.7,2.8,3.426h0c3.313,4.283,5.37,4.626,8,3.655h0c2.628-.971,16.91-14.734,20.452-18.846h0c2.845-3.3-.1-8.67-3.5-8.67h0a3.638,3.638,0,0,0-2.5,1.074Z" transform="translate(0 0)" fill="none"/>
    </clipPath>
    <clipPath id="clip-path-15">
      <path id="Clip_264" data-name="Clip 264" d="M7.37,2.029c-.7,1.09-1.524,6.82-2.412,13.931h0C3.381,28.6,1.609,45.59,0,48.61H0a6.33,6.33,0,0,0,8.4,1.561h0c.36-.195,9.883-32.856,8.894-38.338h0s14.566.063,22.232-1.06h0L15.195.258A14.468,14.468,0,0,0,12.483,0h0C10.671,0,8.432.375,7.37,2.029Z" fill="none"/>
    </clipPath>
    <clipPath id="clip-path-16">
      <path id="Clip_269" data-name="Clip 269" d="M56.651,5.619a61.269,61.269,0,0,1,.629,11.045h0L42.352,12.553C27.421,8.442,25.593,14.228,25.06,15.065h0C24.527,15.9,0,51.615,0,51.615H0c.608,5.862,6.7,5.711,6.7,5.711h0s3.5-5.026,12.8-13.783h0c1.287-1.213,2.483-2.463,3.587-3.716h0C23.975,32.717,24.8,26.987,25.5,25.9h0c1.942-3.026,7.825-1.771,7.825-1.771h0L57.652,34.641l.248.107s17.014,6.283,22.156-3.655h0c5.14-9.936.114-17.017-4-24.9h0A43.875,43.875,0,0,1,73.352,0h0c-5.587,7.055-13.344,6.348-16.7,5.619Z" fill="none"/>
    </clipPath>
  </defs>
  <g id="Group_2025" data-name="Group 2025" transform="translate(-11305 -2119)">
    <g id="Mask_Group_2" data-name="Mask Group 2" clip-path="url(#clip-path)">
      <rect id="Rectangle_2955" data-name="Rectangle 2955" width="333.667" height="373.92" rx="30" transform="translate(11305 2119)" fill="#01fef0"/>
      <path id="Path_8-2" data-name="Path 8" d="M0,33.658,195.424,283.89,281.7,154.379,233.807,34.69,70.576,0Z" transform="matrix(0.309, 0.951, -0.951, 0.309, 11627.253, 2230.298)" fill="#fd0"/>
      <g transform="matrix(1, 0, 0, 1, 11305, 2119)" filter="url(#Path_8)">
        <path id="Path_8-3" data-name="Path 8" d="M0,46.569,345.738,392.79,498.37,213.6,413.644,48,124.86,0Z" transform="translate(-102.87 -9.87) rotate(-14)" fill="#676fe9"/>
      </g>
    </g>
    <text id="Open_a_free_account_in_minutes" data-name="Open a free account 
in minutes" transform="translate(11355 2172)" fill="#fcfcfc" font-size="22" font-family="Poppins-Medium, Poppins" font-weight="500"><tspan x="0" y="0">Open a free account </tspan><tspan x="0" y="33">in minutes</tspan></text>
    <g id="Group_2023" data-name="Group 2023" transform="translate(1769.404 -52.456)">
      <rect id="Rectangle_2953" data-name="Rectangle 2953" width="95" height="137" transform="translate(9691.596 2336.456)" fill="#efefef"/>
      <g id="Artwork" transform="translate(9565.399 2316.944)">
        <g id="Group_47" data-name="Group 47" transform="translate(10.035 60.092)">
          <path id="Fill_12" data-name="Fill 12" d="M5.018,28.977S4.732,20.239,3.3,18.183.276,16.356.048,13.728.333,8.36,3.3,8.3A6.576,6.576,0,0,0,2.1,3.277C.276.422,1.19-1.577,3.761,1.678A19.242,19.242,0,0,1,7.67,11.387c.319,2.8,3.346,14.334,3.346,14.334Z" transform="translate(67.782 0)" fill="#ea756c"/>
          <path id="Fill_14" data-name="Fill 14" d="M9.942,5.908A22.9,22.9,0,0,1,9.831,0H0L1.371,1.773A16.454,16.454,0,0,1,2.538,5.643c1.018-.566,3.548-1.484,7.4.265" transform="translate(87.654 2.192)" fill="#ea756c"/>
          <path id="Fill_16" data-name="Fill 16" d="M.024.752A14.452,14.452,0,0,1,0,6.246s8.169-.8,8.226-.971c.033-.1-.476-1.87-.8-4.258C3.573-.732,1.043.186.024.752" transform="translate(90.167 7.083)" fill="#ffaca6"/>
          <path id="Fill_18" data-name="Fill 18" d="M76.856,11.715c0,6.47-17.2,11.715-38.428,11.715S0,18.185,0,11.715,17.2,0,38.428,0,76.856,5.245,76.856,11.715" transform="translate(0 114.491)" fill="#e2eefa"/>
          <path id="Fill_20" data-name="Fill 20" d="M41.989,6.4c0,3.535-9.4,6.4-20.995,6.4S0,9.936,0,6.4,9.4,0,20.995,0,41.989,2.866,41.989,6.4" transform="translate(80.605 114.029)" fill="#e2eefa"/>
          <path id="Fill_22" data-name="Fill 22" d="M160.584,11.163c0,6.165-35.948,11.163-80.292,11.163S0,17.328,0,11.163,35.948,0,80.292,0s80.292,5,80.292,11.163" transform="translate(112.523 99.961)" fill="#e2eefa"/>
          <path id="Fill_33" data-name="Fill 33" d="M61.481,10.278c0,.085,0,.167-.011.251a.708.708,0,0,1-.006.071c-.005.069-.013.135-.024.2,0,.008,0,.013,0,.021-.013.082-.029.167-.048.246v.008c-.018.077-.039.156-.063.235s-.048.156-.077.232A7.1,7.1,0,0,1,58.5,14.7c-4.943,3.466-15.518,5.864-27.764,5.864-.246,0-.489,0-.733,0-.489,0-.973-.011-1.454-.024-2.409-.055-4.744-.2-6.966-.436-.238-.027-.476-.05-.711-.077-.473-.055-.941-.111-1.4-.172l-.687-.1c-.363-.053-.722-.106-1.077-.161-1.251-.2-2.454-.42-3.6-.666-1.021-.222-2-.463-2.93-.719-.143-.04-.283-.082-.421-.121a26.25,26.25,0,0,1-7.743-3.413A7.241,7.241,0,0,1,.146,11.28c-.021-.066-.04-.135-.056-.2v-.008C.071,10.99.055,10.9.042,10.823a.054.054,0,0,1,0-.021c-.011-.066-.018-.132-.024-.2a.7.7,0,0,1-.005-.071C0,10.445,0,10.363,0,10.278,0,4.6,13.762,0,30.739,0S61.481,4.6,61.481,10.278" transform="translate(209.295 77.113)" fill="#ea9d03"/>
          <path id="Fill_34" data-name="Fill 34" d="M61.394,7.148c-1.169,5.319-14.449,9.514-30.657,9.514C13.826,16.663.1,12.1,0,6.448c0-.023.074-4.665.074-4.684C.074,1.334.053.638.1,0,1.037,2.77,4.969,5.149,10.71,6.806c.137.039.278.081.421.12q1.4.385,2.93.72,1.73.376,3.6.667c1.251.2,2.547.368,3.879.5,2.221.231,4.556.381,6.966.436.481.013.965.019,1.454.023.243,0,.487,0,.733,0,15.7,0,28.645-3.935,30.512-9.017a3.7,3.7,0,0,1,.23,1.266c0,.257.011,5.364-.045,5.618" transform="translate(209.336 97.232)" fill="#ffc050"/>
          <path id="Fill_35" data-name="Fill 35" d="M61.394,7.148c-.005.019-.008.037-.013.055-1.248,5.292-14.492,9.461-30.644,9.461C14.389,16.665,1.021,12.4.058,7.011A3.091,3.091,0,0,1,0,6.451c0-.024.074-4.666.074-4.685C.074,1.335.053.64.1,0A7.244,7.244,0,0,0,2.967,3.394,26.256,26.256,0,0,0,10.71,6.807c.137.04.277.082.42.122q1.4.385,2.93.719c1.153.251,2.356.476,3.6.666q.532.083,1.077.161l.687.1q.694.091,1.4.172l.711.076c2.222.233,4.556.381,6.966.436.481.013.965.019,1.454.024.243,0,.487,0,.733,0,12.247,0,22.822-2.4,27.764-5.864A7.1,7.1,0,0,0,61.209.265a3.7,3.7,0,0,1,.23,1.266c0,.256.011,5.364-.045,5.618" transform="translate(209.337 88.393)" fill="#ffc050"/>
          <path id="Fill_36" data-name="Fill 36" d="M61.481.825c0,.085,0,.167-.011.251a.708.708,0,0,1-.006.071c-.005.069-.013.135-.024.2,0,.008,0,.013,0,.021-.013.082-.029.167-.048.246v.008c-.018.077-.039.156-.063.232s-.048.159-.077.235c-1.867,5.081-14.817,9.017-30.512,9.017-.246,0-.489,0-.733,0-.489-.005-.973-.011-1.454-.024-2.409-.056-4.744-.2-6.966-.436-.272-.029-.545-.058-.814-.09-.2-.021-.4-.045-.592-.071q-.706-.083-1.4-.182c-.363-.053-.722-.106-1.077-.161-1.251-.2-2.454-.42-3.6-.666-1.021-.222-2-.463-2.93-.719-.143-.039-.283-.082-.421-.121C5.011,6.977,1.079,4.6.146,1.827c-.021-.066-.04-.135-.056-.2V1.615C.071,1.536.055,1.451.042,1.37a.054.054,0,0,1,0-.021c-.011-.066-.018-.132-.024-.2a.7.7,0,0,1-.005-.071C0,.991,0,.909,0,.825A3.363,3.363,0,0,1,.1,0c.963,5.385,14.331,9.654,30.679,9.654,16.152,0,29.4-4.169,30.644-9.461a3.385,3.385,0,0,1,.058.632" transform="translate(209.295 95.404)" fill="#ea9d03"/>
          <path id="Fill_37" data-name="Fill 37" d="M61.481,10.278c0,.085,0,.167-.011.251a.708.708,0,0,1-.006.071c-.005.069-.013.135-.024.2,0,.008,0,.013,0,.021-.013.082-.029.167-.048.246v.008c-.018.077-.039.156-.063.235s-.048.156-.077.233A7.1,7.1,0,0,1,58.5,14.7c-4.943,3.466-15.518,5.864-27.764,5.864-.246,0-.489,0-.733,0-.489-.005-.973-.011-1.454-.024-2.409-.055-4.744-.2-6.966-.436-.238-.027-.476-.05-.711-.077-.473-.055-.941-.111-1.4-.172l-.687-.1c-.363-.053-.722-.106-1.077-.161-1.251-.2-2.454-.42-3.6-.666-1.021-.222-2-.463-2.93-.719-.143-.04-.283-.082-.421-.121a26.25,26.25,0,0,1-7.743-3.413A7.241,7.241,0,0,1,.146,11.28c-.021-.066-.04-.135-.056-.2v-.008C.071,10.99.055,10.9.042,10.823a.053.053,0,0,1,0-.021c-.011-.066-.018-.132-.024-.2a.7.7,0,0,1-.005-.071C0,10.445,0,10.363,0,10.278,0,4.6,13.762,0,30.739,0S61.481,4.6,61.481,10.278" transform="translate(209.295 59.842)" fill="#ea9d03"/>
          <path id="Fill_38" data-name="Fill 38" d="M0,7.073C0,3.167,9.47,0,21.15,0S42.3,3.167,42.3,7.073a2.333,2.333,0,0,1-.027.361v0c-.568,3.736-9.808,6.709-21.124,6.709S.608,11.179.029,7.446A2.524,2.524,0,0,1,0,7.073" transform="translate(218.862 54.531)" fill="#ea9d03"/>
          <path id="Fill_39" data-name="Fill 39" d="M30.737,16.661C13.825,16.661.1,12.095,0,6.446c0-.022.073-4.662.073-4.683C.073,1.334.054.638.1,0,1.91,5.37,15,9.278,30.7,9.278S59.342,5.345,61.209.263a3.686,3.686,0,0,1,.23,1.266c0,.258.011,5.364-.045,5.617-1.169,5.321-14.449,9.515-30.657,9.515" transform="translate(209.315 62.607)" fill="#ffc050"/>
          <path id="Fill_40" data-name="Fill 40" d="M21.15,14.147C9.843,14.147.608,11.179.029,7.445A2.521,2.521,0,0,1,0,7.073C0,3.167,9.47,0,21.15,0S42.3,3.167,42.3,7.073a2.333,2.333,0,0,1-.027.361v0c-.568,3.736-9.808,6.709-21.124,6.709" transform="translate(218.862 54.532)" fill="#ea9d03"/>
          <path id="Fill_41" data-name="Fill 41" d="M21.15,14.147C9.843,14.147.608,11.179.029,7.445A2.521,2.521,0,0,1,0,7.073C0,3.167,9.47,0,21.15,0S42.3,3.167,42.3,7.073a2.333,2.333,0,0,1-.027.361v0c-.568,3.736-9.808,6.709-21.124,6.709" transform="translate(218.862 54.532)" fill="#ea9d03"/>
          <path id="Fill_42" data-name="Fill 42" d="M30.739,20.561a86.753,86.753,0,0,1-11.126-.694A59.9,59.9,0,0,1,10.3,17.959C4.714,16.295,1.138,14.017.23,11.546c-.029-.08-.055-.162-.077-.235S.11,11.159.09,11.076v0c-.02-.089-.035-.171-.048-.25a.043.043,0,0,1,0-.018c-.011-.071-.019-.137-.024-.2v-.011a.556.556,0,0,1,0-.062C0,10.453,0,10.371,0,10.28c0-1.388.813-2.734,2.416-4A21.97,21.97,0,0,1,9,3.011a55.675,55.675,0,0,1,9.771-2.2A85.819,85.819,0,0,1,30.739,0,85.828,85.828,0,0,1,42.705.808a55.687,55.687,0,0,1,9.772,2.2,21.974,21.974,0,0,1,6.588,3.268c1.6,1.267,2.416,2.614,2.416,4,0,.094,0,.175-.011.248a.651.651,0,0,1,0,.07v0c-.005.066-.013.132-.024.2a.046.046,0,0,1,0,.009.046.046,0,0,0,0,.009c-.014.086-.029.168-.048.25v0c-.02.082-.041.161-.064.235v0c-.023.076-.047.154-.075.23-.908,2.471-4.484,4.749-10.071,6.413a59.912,59.912,0,0,1-9.315,1.908A86.762,86.762,0,0,1,30.739,20.561Zm0-17.354A49.045,49.045,0,0,0,15.784,5.279a15.119,15.119,0,0,0-4.533,2.248A3.636,3.636,0,0,0,9.589,10.28a2.507,2.507,0,0,0,.029.372,4.225,4.225,0,0,0,1.954,2.622A16.683,16.683,0,0,0,16.155,15.4a49.937,49.937,0,0,0,14.584,1.951A49.916,49.916,0,0,0,45.332,15.4a16.655,16.655,0,0,0,4.583-2.131,4.212,4.212,0,0,0,1.949-2.625v0a2.326,2.326,0,0,0,.026-.361,3.636,3.636,0,0,0-1.662-2.753,15.12,15.12,0,0,0-4.533-2.248A49.046,49.046,0,0,0,30.739,3.207Z" transform="translate(209.273 51.324)" fill="#ffe473"/>
          <path id="Fill_43" data-name="Fill 43" d="M21.121,11.869C9.814,11.869.579,8.9,0,5.168.341,3.473,9.8,0,21.123,0S41.578,2.993,42.245,5.157v0c-.568,3.736-9.808,6.709-21.124,6.709" transform="translate(218.89 56.809)" fill="#fcc13d"/>
          <path id="Fill_44" data-name="Fill 44" d="M61.394,7.148c-1.169,5.319-14.449,9.515-30.657,9.515C13.826,16.663.1,12.1,0,6.448c0-.023.074-4.665.074-4.684C.074,1.334.053.638.1,0,1.037,2.77,4.969,5.149,10.71,6.806c.137.039.278.081.421.12q1.4.386,2.93.72,1.73.376,3.6.667c1.251.2,2.547.368,3.879.5,2.221.231,4.556.381,6.966.436.481.013.965.019,1.454.023.243,0,.487,0,.733,0,15.7,0,28.645-3.935,30.512-9.017a3.7,3.7,0,0,1,.23,1.266c0,.257.011,5.364-.045,5.618" transform="translate(209.336 79.96)" fill="#ffc050"/>
          <path id="Fill_45" data-name="Fill 45" d="M61.394,7.148c-.005.019-.008.037-.013.055-1.248,5.292-14.492,9.462-30.644,9.462C14.389,16.665,1.021,12.4.058,7.011A3.093,3.093,0,0,1,0,6.451c0-.024.074-4.666.074-4.685C.074,1.335.053.64.1,0A7.244,7.244,0,0,0,2.967,3.394,26.256,26.256,0,0,0,10.71,6.807c.137.04.277.082.42.122q1.4.385,2.93.719c1.153.251,2.356.476,3.6.666q.532.083,1.077.161l.687.1q.694.091,1.4.172c.235.027.473.05.711.077,2.222.233,4.556.381,6.966.436.481.013.965.019,1.454.024.243,0,.487,0,.733,0,12.247,0,22.822-2.4,27.764-5.864A7.1,7.1,0,0,0,61.209.265a3.7,3.7,0,0,1,.23,1.266c0,.256.011,5.364-.045,5.618" transform="translate(209.337 71.122)" fill="#ffc050"/>
          <path id="Fill_46" data-name="Fill 46" d="M61.481.825c0,.085,0,.167-.011.251a.708.708,0,0,1-.006.071c-.005.069-.013.135-.024.2,0,.008,0,.013,0,.021-.013.082-.029.167-.048.246v.008c-.018.077-.039.156-.063.232s-.048.159-.077.235c-1.867,5.081-14.817,9.017-30.512,9.017-.246,0-.489,0-.733,0-.489-.006-.973-.011-1.454-.024-2.409-.056-4.744-.2-6.966-.436-.272-.029-.545-.058-.814-.09-.2-.021-.4-.045-.592-.071q-.706-.083-1.4-.182c-.363-.053-.722-.106-1.077-.161-1.251-.2-2.454-.42-3.6-.666-1.021-.222-2-.463-2.93-.719-.143-.039-.283-.082-.421-.121C5.011,6.977,1.079,4.6.146,1.827c-.021-.066-.04-.135-.056-.2V1.615C.071,1.536.055,1.451.042,1.37a.054.054,0,0,1,0-.021c-.011-.066-.018-.132-.024-.2a.7.7,0,0,1-.005-.071C0,.991,0,.909,0,.825A3.363,3.363,0,0,1,.1,0c.963,5.385,14.331,9.654,30.679,9.654,16.152,0,29.4-4.169,30.644-9.461a3.385,3.385,0,0,1,.058.632" transform="translate(209.295 78.132)" fill="#ea9d03"/>
        </g>
        <path id="Fill_48" data-name="Fill 48" d="M0,134.634H92.674V0H0Z" transform="translate(127.12 20.862)" fill="none"/>
        <g id="Group_74" data-name="Group 74" transform="translate(0 0)">
          <path id="Fill_50" data-name="Fill 50" d="M0,10.916a5.8,5.8,0,0,0,5.647,5.952H87.028a5.391,5.391,0,0,0,3.086-.968,6.022,6.022,0,0,0,2.56-4.984V0H0Z" transform="translate(127.12 155.496)" fill="#7bbdff"/>
          <path id="Fill_52" data-name="Fill 52" d="M92.673,5.952A6.036,6.036,0,0,0,90.125.977,5.4,5.4,0,0,0,87.026,0H5.645A5.8,5.8,0,0,0,0,5.952V8.694H92.673Z" transform="translate(127.12 12.168)" fill="#fff"/>
          <path id="Fill_54" data-name="Fill 54" d="M5.884,5.883S7.37-.057,14.739,0,28.85,5.2,29.649,11.765s-1.657,12.278-4.113,14.163-4.856,2.684-10.683,1.313l-9.471-.785S2.4,27.127,0,22.33c0,0,3.485,1.142,3.542-1.485s-1.714-3.369-2.114-7.709,1.6-7.31,4.456-7.253" transform="translate(86.892 36.128)" fill="#191e56"/>
          <path id="Fill_56" data-name="Fill 56" d="M48.064,6.278c0,3.467-10.759,6.278-24.032,6.278S0,9.745,0,6.278,10.759,0,24.032,0,48.064,2.811,48.064,6.278" transform="translate(24.87 180.021)" fill="#153077"/>
          <path id="Fill_58" data-name="Fill 58" d="M4.346,6.574V0H0V2.541c1,.341,2.682,1.307,4.346,4.033" transform="translate(46.465 112.538)" fill="#191e56"/>
          <path id="Fill_60" data-name="Fill 60" d="M0,0V72.324H4.346V4.033C2.682,1.307,1,.341,0,0" transform="translate(46.465 115.079)" fill="#054aa9"/>
          <path id="Fill_62" data-name="Fill 62" d="M48.9,0C22.194,0,.488,3.307.009,7.415H0V9.9c0,4.172,21.894,7.553,48.9,7.553S97.8,14.069,97.8,9.9V7.553C97.8,3.382,75.909,0,48.9,0" transform="translate(0 97.005)" fill="#7bbdff"/>
          <path id="Fill_64" data-name="Fill 64" d="M97.8,7.553c0,4.172-21.894,7.553-48.9,7.553S0,11.725,0,7.553,21.894,0,48.9,0,97.8,3.382,97.8,7.553" transform="translate(0 97.005)" fill="#daebff"/>
          <path id="Fill_66" data-name="Fill 66" d="M96.151,176.983H5.646a5.467,5.467,0,0,1-3.993-1.743A6.08,6.08,0,0,1,0,171.031V5.952A6.079,6.079,0,0,1,1.653,1.744,5.467,5.467,0,0,1,5.646,0h90.5a5.469,5.469,0,0,1,3.994,1.744A6.078,6.078,0,0,1,101.8,5.952V171.031a6.078,6.078,0,0,1-1.654,4.209A5.47,5.47,0,0,1,96.151,176.983ZM10.207,12.168A5.811,5.811,0,0,0,4.561,18.12V166.413a5.811,5.811,0,0,0,5.646,5.952H91.589a5.391,5.391,0,0,0,3.086-.97,6.018,6.018,0,0,0,2.56-4.982V18.12a6.024,6.024,0,0,0-2.548-4.974,5.4,5.4,0,0,0-3.1-.978ZM88.934,2.775a3.291,3.291,0,0,0-3.2,3.371,3.2,3.2,0,1,0,6.4,0A3.292,3.292,0,0,0,88.934,2.775ZM14.164,4.582a1.669,1.669,0,0,0-1.219.532,1.857,1.857,0,0,0-.5,1.285,1.775,1.775,0,0,0,1.724,1.818H74.271a1.67,1.67,0,0,0,1.219-.532,1.857,1.857,0,0,0,.5-1.285,1.775,1.775,0,0,0-1.724-1.818Z" transform="translate(122.558 0)" fill="#0542bf"/>
          <path id="Fill_68" data-name="Fill 68" d="M67.024,1.818a1.818,1.818,0,0,1-1.818,1.818H1.818A1.818,1.818,0,1,1,1.818,0H65.206a1.819,1.819,0,0,1,1.818,1.818" transform="translate(134.13 4.582)" fill="#006dfe"/>
          <path id="Fill_70" data-name="Fill 70" d="M6.4,3.371A3.288,3.288,0,0,1,3.2,6.742,3.289,3.289,0,0,1,0,3.371,3.288,3.288,0,0,1,3.2,0,3.286,3.286,0,0,1,6.4,3.371" transform="translate(208.295 2.775)" fill="#006dfe"/>
          <path id="Fill_72" data-name="Fill 72" d="M.065,3.084S-.849,18.9,4.178,18.789,10.634,16.5,10.634,16.5a4.054,4.054,0,0,1-4.17-3.941s2.571,2.284,4.17-.857S9.662,5.14,9.662,5.14,4.35,3.941,2.579,0c0,0-.8,2.684-2.514,3.084" transform="translate(91.111 46.865)" fill="#ffaca6"/>
        </g>
        <g id="Group_77" data-name="Group 77" transform="translate(91.111 46.865)">
          <path id="Clip_76-2" data-name="Clip 76" d="M.065,3.084S-.849,18.9,4.178,18.789h0c5.027-.114,6.455-2.285,6.455-2.285h0a4.054,4.054,0,0,1-4.17-3.94h0s2.571,2.284,4.17-.857h0c1.6-3.141-.971-6.568-.971-6.568h0S4.35,3.941,2.579,0h0S1.779,2.684.065,3.084Z" transform="translate(0 0)" fill="none"/>
          <g id="Group_77-2" data-name="Group 77" transform="translate(0 0)" clip-path="url(#clip-path-2)">
            <path id="Fill_75" data-name="Fill 75" d="M2.133,6.434s2.522.481,3.732-1.485c0,0,3.028,3.274,6.465,3.236,0,0,1.171,6.358-2.513,5.749,0,0,1.229,5.258,4.58,4.361L16.643,6.891,4.494,0,0,2.817Z" transform="translate(-3.239 -1.103)" fill="#ea756c"/>
          </g>
        </g>
        <g id="Group_98" data-name="Group 98" transform="translate(32.209 54.611)">
          <path id="Fill_78" data-name="Fill 78" d="M0,.364S1.2,3.848,0,5.447c0,0,3.028.742,3.713-2.17S2-.607,0,.364" transform="translate(71.478 0)" fill="#ea756c"/>
          <path id="Fill_80" data-name="Fill 80" d="M15.67,26.315c0-.171-8-10.965-8-12.107S10.928,7.583,8.7,2.615,2.473.9,1.559,3.043s-3.142,4.769.286,12.707a125.923,125.923,0,0,0,8.283,15.534Z" transform="translate(32.614 10.199)" fill="#ffaca6"/>
          <path id="Fill_82" data-name="Fill 82" d="M.331,4.642,7.227.121A.733.733,0,0,1,8.362.734v2.14a.733.733,0,0,1-.178.478L3.3,9.012a.733.733,0,0,1-1.179-.095L.109,5.639a.733.733,0,0,1,.222-1" transform="translate(49.177 29.884)" fill="#cc6a00"/>
          <path id="Fill_84" data-name="Fill 84" d="M29.456,3.848c0,2.125-6.594,3.847-14.728,3.847S0,5.973,0,3.848,6.594,0,14.728,0,29.456,1.723,29.456,3.848" transform="translate(64.697 121.705)" fill="#153077"/>
          <path id="Fill_86" data-name="Fill 86" d="M4.346,6.574V0H0V2.541c1,.341,2.682,1.307,4.346,4.033" transform="translate(77.253 98.345)" fill="#054796"/>
          <path id="Fill_88" data-name="Fill 88" d="M47.323,5.25C47.323,2.35,36.729,0,23.661,0S0,2.35,0,5.25V16.863c0,2.9,10.594,5.25,23.661,5.25s23.661-2.35,23.661-5.25a1.2,1.2,0,0,0-.035-.284Z" transform="translate(56.246 77.035)" fill="#7bbdff"/>
          <path id="Fill_90" data-name="Fill 90" d="M47.323,5.25c0,2.9-10.594,5.25-23.661,5.25S0,8.149,0,5.25,10.594,0,23.661,0,47.323,2.35,47.323,5.25" transform="translate(56.246 77.035)" fill="#daebff"/>
          <path id="Fill_92" data-name="Fill 92" d="M0,0V23.526H4.346V4.033C2.682,1.307,1,.341,0,0" transform="translate(77.253 100.886)" fill="#054aa9"/>
          <path id="Fill_94" data-name="Fill 94" d="M18.52,4,13.207,0S10.465,6.225,2.01,6.111C1.291,6.1.625,6.071,0,6.026a7.87,7.87,0,0,0,5.1,4.539c4.465,1.385,8.7.606,10.921,2.338.143-.613.219-1.024.219-1.024A36.741,36.741,0,0,1,18.52,4" transform="translate(0 98.991)" fill="#ea756c"/>
          <path id="Fill_96" data-name="Fill 96" d="M26.094,30.452c-1.605-4.718-1.953-8.976-2.819-15.85C22.055,4.931,17.79.363,17.79.363,13.372-.78,10.858.972,8.573,2.895S5.222,7.9,2.556,12.317-1.329,23.13,2.1,25.262s4.494,2.97,6.4,7.538a16.18,16.18,0,0,1,.894,3.271c3.356.729,11.114,1.435,16.7-5.62" transform="translate(59.42 15.916)" fill="#ffab00"/>
        </g>
        <g id="Group_101" data-name="Group 101" transform="translate(91.629 70.526)">
          <path id="Clip_100-2" data-name="Clip 100" d="M8.573,2.895C6.288,4.817,5.222,7.9,2.556,12.317h0C-.11,16.734-1.329,23.13,2.1,25.262h0c3.428,2.132,4.494,2.97,6.4,7.538h0a16.194,16.194,0,0,1,.895,3.271h0c3.356.729,11.114,1.436,16.7-5.62h0c-1.605-4.718-1.953-8.976-2.819-15.849h0C22.055,4.932,17.79.363,17.79.363h0A10.607,10.607,0,0,0,15.131,0h0c-2.855,0-4.776,1.4-6.558,2.895Z" transform="translate(0 0)" fill="none"/>
          <g id="Group_101-2" data-name="Group 101" transform="translate(0 0)" clip-path="url(#clip-path-3)">
            <path id="Fill_99" data-name="Fill 99" d="M11.6,0l2.8,2.188s2,2.78-.168,5.121S4.113,20.7,4.113,20.7L0,17.932,7.769,7.824Z" transform="translate(0.261 7.102)" fill="#ef9300"/>
          </g>
        </g>
        <g id="Group_219" data-name="Group 219" transform="translate(14.761 11.299)">
          <path id="Fill_102" data-name="Fill 102" d="M9.576,1.774C2.856,1.3,1.363-.943.161.451c-1.314,1.522,5.77,9.746,8.855,11s8.626-1.713,8.4,1.028S13.7,17.9,13.7,17.9l.914,1.608s7.941-4.512,9.2-6.168a14.543,14.543,0,0,0,1.781-4.686C23.37,6.919,19.136,7.7,14.671,6.313a7.869,7.869,0,0,1-5.1-4.539" transform="translate(7.872 146.555)" fill="#de4d30"/>
          <path id="Fill_104" data-name="Fill 104" d="M16.4,1.9,10.08,0S3.907,8.152,0,12.852a7.7,7.7,0,0,0,5.2.169C9.551,11.9,11.68,7.314,16.853,6.829A12.974,12.974,0,0,1,16.4,1.9" transform="translate(38.647 161.625)" fill="#ffaca6"/>
          <path id="Fill_106" data-name="Fill 106" d="M4.771,6.023A33.865,33.865,0,0,1,2.092,9.009c-2.323,2.056-4.532,5.635,4.075,5.33S16.222,5.811,16.755,7.258s0,6.244,0,6.244h2.057A36.216,36.216,0,0,1,21.1,6.953a11.623,11.623,0,0,0,.609-6.7S21.673.163,21.624,0c-5.173.485-7.3,5.073-11.648,6.192a7.7,7.7,0,0,1-5.2-.169" transform="translate(33.876 168.454)" fill="#de4d30"/>
          <path id="Fill_121" data-name="Fill 121" d="M11.394.946c0,.523-2.55.946-5.7.946S0,1.469,0,.946,2.55,0,5.7,0s5.7.424,5.7.946" transform="translate(38.669 95.099)" fill="#9cc6f7"/>
          <path id="Fill_122" data-name="Fill 122" d="M6.5,19.817h0a8.986,8.986,0,0,1-2.493-.359,2.358,2.358,0,0,1-.988-.531,1.99,1.99,0,0,1-.542-.9,2.883,2.883,0,0,1-.08-.336,13.374,13.374,0,0,1-.42-2.332c-.052-.434-.105-.883-.183-1.321-.073-.416-.127-.842-.179-1.255-.024-.192-.049-.39-.076-.585Q1.3,10.455,1.066,8.718l-.012-.086L.677,5.867C.62,5.458.564,5.043.509,4.642.424,4.014.337,3.365.243,2.728L.2,2.412c-.06-.4-.117-.754-.173-1.081C-.055.874.055.765.449.648a20.756,20.756,0,0,1,5.4-.629C6.325.006,6.753,0,7.156,0a21.864,21.864,0,0,1,5.325.553.831.831,0,0,1,.507.266.783.783,0,0,1,.071.609c-.086.509-.164,1.016-.223,1.4l-.121.813c-.118.8-.232,1.618-.342,2.407-.077.554-.158,1.127-.238,1.691l-.018,0-.011,0L10.6,17.846a1.863,1.863,0,0,1-.47,1.013,2.125,2.125,0,0,1-.979.562A9.336,9.336,0,0,1,6.5,19.817ZM1.478,2.883a.719.719,0,0,0-.1.007c-.472.065-.432.36-.38.734l.006.044c.117.868.217,1.753.314,2.609v0c.037.331.076.673.115,1.01.274,1.476.438,2.993.6,4.461v.007q.038.352.077.7l.156,1.134c.162,1.181.33,2.4.5,3.606a2.925,2.925,0,0,0,.074.333c.013.049.026.1.038.15a7.152,7.152,0,0,0,2.7.425c.3,0,.6-.008.89-.015s.587-.015.888-.015c.113,0,.218,0,.321,0l.246,0a5.267,5.267,0,0,0,2.29-.426q.4-2.96.79-5.922c.062-.528.123-1.066.181-1.586h0c.179-1.6.364-3.252.64-4.863.016-.166.028-.336.039-.5A7.194,7.194,0,0,1,12,3.647a.684.684,0,0,0-.031-.538.744.744,0,0,0-.523-.24,20.84,20.84,0,0,0-2.688-.235h0l-.5-.022c-.539-.026-1.11-.039-1.7-.039-1.088,0-2.285.044-3.768.137-.218.014-.334.051-.4.128s-.083.21-.053.458c.243,2.027.47,4.09.69,6.086v0l0,.023q.094.857.189,1.714c.02.181.036.365.052.543v0q.01.119.021.238a12.947,12.947,0,0,0,.1,1.417,3.489,3.489,0,0,0-.225-.839q-.13-.84-.26-1.681V10.8C2.548,8.41,2.167,5.945,1.77,3.524a.94.94,0,0,1,0-.174.541.541,0,0,0-.075-.393A.283.283,0,0,0,1.478,2.883Z" transform="translate(37.824 76.685)" fill="#fff"/>
          <path id="Fill_123" data-name="Fill 123" d="M.25,0C.3.426.324.813.382,1.068.346.813.311.426.25,0" transform="translate(41.196 91.744)" fill="#ebf9ff"/>
          <path id="Fill_124" data-name="Fill 124" d="M.368,1.02A6.934,6.934,0,0,0,.244.27C.238.18.23.09.222,0,.23.106.237.212.244.318c.052.236.092.474.125.7" transform="translate(41.078 90.724)" fill="#ebf9ff"/>
          <path id="Fill_125" data-name="Fill 125" d="M.359,0C.386.239.412.477.433.716.417.476.4.236.359,0" transform="translate(40.868 90.008)" fill="#ebf9ff"/>
          <path id="Fill_126" data-name="Fill 126" d="M10.474.3A25.484,25.484,0,0,0,7.288.038a49.508,49.508,0,0,0-5.463.1C1.4.164,1.319.276,1.373.724c.312,2.605.593,5.215.883,7.824.029.261.049.523.073.784a12.82,12.82,0,0,0,.1,1.417c.037.236.058.475.074.716.008.09.015.18.021.27a6.944,6.944,0,0,1,.125.75c.061.426.1.813.131,1.068-.058-.255-.081-.642-.131-1.068-.033-.227-.072-.465-.125-.7-.007-.106-.014-.212-.021-.318-.021-.239-.048-.477-.074-.716a3.531,3.531,0,0,0-.225-.84C1.743,6.922,1.288,3.933.8.95.765.74.937.244.41.316-.081.383-.017.7.036,1.093.2,2.3.325,3.507.465,4.714c.317,1.71.483,3.443.674,5.172q.326,2.37.655,4.739c.023.163.074.322.112.482,1.564.628,3.194.365,4.8.4a5.646,5.646,0,0,0,2.536-.423l.79-5.922c.254-2.153.455-4.314.821-6.451a12.741,12.741,0,0,1,.176-1.637c.135-.583-.118-.7-.554-.778" transform="translate(38.795 79.259)" fill="#7bbdff"/>
          <path id="Fill_127" data-name="Fill 127" d="M41.2.1c.669.047,1.341-.032,2.011.064a4.049,4.049,0,0,1,3.363,3.6c.021.308.02.618.02.927q0,4.172,0,8.345c-.158.156-.361.108-.547.108q-4.769.005-9.539,0c-1.134,0-1.423.288-1.423,1.418q0,2.08,0,4.16a1.958,1.958,0,0,0,.038.509.948.948,0,0,0,.744.751,3.483,3.483,0,0,0,.763.064q4.706,0,9.411,0c.186,0,.389-.048.547.107,0,3.019.031,6.039-.006,9.057a4.008,4.008,0,0,1-3.944,3.854c-.491.009-.982,0-1.473,0H4.189A4.065,4.065,0,0,1,.057,29.612a4.346,4.346,0,0,1-.043-.733C.013,20.686.033,12.492,0,4.3A4.128,4.128,0,0,1,4.115.107C4.157.108,4.2.1,4.242.1a1.3,1.3,0,0,1,.71-.083C5.2,0,5.44.007,5.684.013,6.495-.01,7.305,0,8.116,0q3.921,0,7.843,0c.128,0,.256,0,.384.009,1.3-.013,2.608-.016,3.911,0,1.6-.018,3.2-.012,4.8,0C26.4,0,27.748,0,29.095.012,29.777-.009,30.46,0,31.143,0q4.1,0,8.2,0a3.225,3.225,0,0,1,.416.01c.245-.007.489-.01.734,0A1.31,1.31,0,0,1,41.2.1" transform="translate(134.672 26.334)" fill="#ffab00"/>
          <path id="Fill_128" data-name="Fill 128" d="M.715,12.289H0Q0,6.355,0,.42C0,0,.005,0,.41,0H36.544c.407,0,.408,0,.408.42q.005,5.935.01,11.87h-.711c-.144-.163-.1-.363-.1-.551q0-3.553,0-7.106c0-.085,0-.171,0-.256-.007-.392-.028-.419-.418-.421-.811,0-1.622,0-2.433,0-9.115,0-18.229.012-27.344-.012-1.514,0-3.029-.05-4.544-.052-.589,0-.591,0-.591.579q0,3.633,0,7.266a.769.769,0,0,1-.1.553" transform="translate(138.914 14.142)" fill="#00e698"/>
          <path id="Fill_129" data-name="Fill 129" d="M11.606,7.121q-5.122,0-10.243-.011a1.213,1.213,0,0,1-1.2-.556A1.224,1.224,0,0,1,0,5.947C0,4.358,0,2.769,0,1.179A1.077,1.077,0,0,1,1.208.009h9.955c.149,0,.3-.005.448-.008s.319.012.479.02a.975.975,0,0,1,.962.962q.015,2.543,0,5.086a.97.97,0,0,1-.977,1.011,1.276,1.276,0,0,0-.473.043" transform="translate(169.658 39.365)" fill="#de4d30"/>
          <path id="Fill_130" data-name="Fill 130" d="M34.237,7.838c-.875,0-1.75.011-2.624.011q-4.033,0-8.066-.008c-.153-.178-.112-.406-.141-.61a6.248,6.248,0,0,0-5.216-5.3,6.136,6.136,0,0,0-5.2,1.5,6.037,6.037,0,0,0-2.064,3.857,1.069,1.069,0,0,1-.133.551q-2.876.005-5.752.01c-1.651,0-3.3-.006-4.953-.01A.5.5,0,0,1,0,7.475C0,6.366,0,5.257,0,4.147c0-.416.068-.474.486-.572A3.891,3.891,0,0,0,3.566.54C3.59.447,3.608.353,3.63.26A.3.3,0,0,1,3.973,0c.181.01.363,0,.544,0H29.8c.128,0,.256,0,.384,0,.475.005.517.04.62.5A3.841,3.841,0,0,0,33.86,3.6c.42.1.467.15.469.584q.006,1.632,0,3.264a.521.521,0,0,1-.092.394" transform="translate(140.229 18.592)" fill="#00e698"/>
          <path id="Fill_131" data-name="Fill 131" d="M34.836,8.494c0-1.258,0-2.517.006-3.775,0-.219-.052-.3-.279-.351a3.9,3.9,0,0,1-3.27-3.314C31.247.8,31.145.746,30.9.746q-8.081.007-16.16,0Q9.684.741,4.628.733c-.206,0-.3.043-.328.256A4,4,0,0,1,.92,4.352c-.228.027-.227.164-.226.335,0,1.269,0,2.538,0,3.807H0c0-2.71.009-5.42,0-8.129C0,.092.06,0,.353,0Q17.737.039,35.121.062c.467,0,.421-.068.421.432q0,4-.006,8h-.7" transform="translate(139.629 17.937)" fill="#00b77b"/>
          <path id="Fill_132" data-name="Fill 132" d="M0,6.08a6.384,6.384,0,0,1,12.639-.948,4.485,4.485,0,0,1,.112.949H8.717a9.444,9.444,0,0,0-2.2-.664,1.96,1.96,0,0,1-.574-.189.456.456,0,0,1-.252-.477.425.425,0,0,1,.377-.381,1.235,1.235,0,0,1,1.286.353.425.425,0,0,0,.557.147c.3-.121.61-.19.916-.283.217-.066.24-.174.128-.351A2.193,2.193,0,0,0,7.768,3.223.443.443,0,0,1,7.4,2.715c.012-.223,0-.447,0-.671,0-.178-.063-.283-.259-.282a10.025,10.025,0,0,1-1.5-.062c-.212-.031-.317.062-.31.287.008.266,0,.532,0,.8a.47.47,0,0,1-.3.477A1.991,1.991,0,0,0,3.911,5.8a.381.381,0,0,1,.024.28L0,6.08" transform="translate(151.024 20.352)" fill="#00b77b"/>
          <path id="Fill_133" data-name="Fill 133" d="M.242,4.46a2.073,2.073,0,0,1,1.1-2.914.278.278,0,0,0,.2-.308C1.538.918,1.556.6,1.54.278,1.53.072,1.589-.008,1.806,0,2.4.024,3,.034,3.6.038c.165,0,.229.054.221.222-.013.3,0,.6-.016.9-.009.183.026.283.23.34A2.234,2.234,0,0,1,5.412,2.7c.085.16.115.251-.118.309-.423.106-.839.243-1.252.384a.234.234,0,0,1-.332-.113,1.165,1.165,0,0,0-1.328-.459.355.355,0,0,0-.325.345.372.372,0,0,0,.3.4c.6.158,1.2.3,1.794.46a1.55,1.55,0,0,1,.872.431H.242" transform="translate(154.717 21.973)" fill="#00e698"/>
          <path id="Fill_134" data-name="Fill 134" d="M.485.451c-.106,0-.212,0-.318,0C.017.455,0,.359,0,.241S0,0,.171,0C.33,0,.489,0,.648,0S.965-.03.963.228.8.452.644.451H.485" transform="translate(168.188 27.912)" fill="#de4d30"/>
          <path id="Fill_135" data-name="Fill 135" d="M.493.453C.4.453.3.447.207.454.027.467,0,.365,0,.217S.039-.005.2,0s.318,0,.477,0,.29-.007.29.222S.853.467.684.454c-.063,0-.127,0-.191,0" transform="translate(141.543 27.911)" fill="#de4d30"/>
          <path id="Fill_136" data-name="Fill 136" d="M.54,0C.692.053,1-.139.975.276.962.473.832.481.712.45.481.392.165.636.024.292-.042.129.025-.025.261,0A2.552,2.552,0,0,0,.54,0" transform="translate(154.852 27.909)" fill="#de4d30"/>
          <path id="Fill_137" data-name="Fill 137" d="M.216,0C.366,0,.446.046.473.192A1.091,1.091,0,0,0,.594.55C.727.771.6.843.424.921c-.228.1-.217-.1-.262-.2C.1.574.069.417.022.266-.037.076.019-.021.216,0" transform="translate(136.208 55.634)" fill="#de4d30"/>
          <path id="Fill_138" data-name="Fill 138" d="M.362.021C.606,0,.692.114.6.368.55.486.543.62.489.734c-.045.1-.045.3-.243.192C.111.852-.09.8.044.551A1.522,1.522,0,0,0,.172.126C.194.02.229-.032.362.021" transform="translate(179.147 55.536)" fill="#de4d30"/>
          <path id="Fill_139" data-name="Fill 139" d="M.469,0c.1,0,.192,0,.287,0,.129-.006.2.041.2.182s-.02.262-.2.267c-.159,0-.319,0-.479,0C.1.459,0,.406,0,.2S.134,0,.278,0C.342,0,.406,0,.469,0" transform="translate(150.896 57.484)" fill="#de4d30"/>
          <path id="Fill_140" data-name="Fill 140" d="M.507,0c.14.054.464-.152.429.263C.934.3.942.344.924.359.7.557.425.422.175.444-.019.461.037.263.006.159S.063.009.159.005.37,0,.507,0" transform="translate(139.328 27.911)" fill="#de4d30"/>
          <path id="Fill_141" data-name="Fill 141" d="M.485.455c-.106,0-.211,0-.317,0C.02.459,0,.366,0,.247S0,.006.17.007A4.228,4.228,0,0,0,.676,0C.9-.023.912.132.93.277.956.484.794.446.675.455c-.063,0-.127,0-.19,0" transform="translate(159.794 57.479)" fill="#de4d30"/>
          <path id="Fill_142" data-name="Fill 142" d="M.4,0A2.959,2.959,0,0,1,.735.077C.842.11,1,.106.932.315.877.488.809.566.623.507A1.252,1.252,0,0,0,.283.446C.124.442-.011.447,0,.22S.14-.012.4,0" transform="translate(177.088 27.921)" fill="#de4d30"/>
          <path id="Fill_143" data-name="Fill 143" d="M.52,0C.652.059.94-.138.93.234.926.375.865.452.72.453c-.169,0-.338,0-.507,0C.1.45-.025.442,0,.29.026.174-.011-.011.211,0,.306.009.4,0,.52,0" transform="translate(170.902 57.482)" fill="#de4d30"/>
          <path id="Fill_144" data-name="Fill 144" d="M.683.615A2.5,2.5,0,0,1,.057.394C-.023.364-.01.291.044.24.127.163.1-.041.29.007A5.564,5.564,0,0,1,.867.18c.168.063.049.2.054.306C.928.626.813.617.683.615" transform="translate(137.548 57.26)" fill="#de4d30"/>
          <path id="Fill_145" data-name="Fill 145" d="M.483.455C.264.439-.045.558.005.137c0-.031-.009-.087,0-.09A2.43,2.43,0,0,1,.724.008C.8,0,.867.007.9.1c.1.248-.023.358-.422.358" transform="translate(162.021 57.48)" fill="#de4d30"/>
          <path id="Fill_146" data-name="Fill 146" d="M.437.453C.373.453.309.448.245.454.069.471,0,.4,0,.219S.071-.008.231,0C.358.009.487,0,.614,0,.77,0,.908-.013.909.221S.8.466.629.454c-.064,0-.128,0-.192,0" transform="translate(143.782 27.912)" fill="#de4d30"/>
          <path id="Fill_147" data-name="Fill 147" d="M.42.452C.267.411-.028.581,0,.189.012.055.06,0,.195,0S.472,0,.61,0s.3-.024.3.214S.769.46.6.452c-.053,0-.106,0-.18,0" transform="translate(146.021 27.913)" fill="#de4d30"/>
          <path id="Fill_148" data-name="Fill 148" d="M.433.453C.359.453.284.448.21.454.03.469,0,.367,0,.217S.04-.007.2,0C.337.008.476,0,.614,0,.772,0,.907-.009.907.222S.794.466.625.454C.562.45.5.454.433.453" transform="translate(148.206 27.911)" fill="#de4d30"/>
          <path id="Fill_149" data-name="Fill 149" d="M.432.452c-.085,0-.171,0-.256,0C.03.458,0,.374,0,.249S-.015,0,.166,0c.149,0,.3,0,.448,0s.292-.01.293.222S.791.465.623.453C.56.449.5.453.432.453Z" transform="translate(150.445 27.912)" fill="#de4d30"/>
          <path id="Fill_150" data-name="Fill 150" d="M.471,0C.627.049.943-.135.9.279.893.4.849.455.729.454c-.17,0-.341-.008-.511,0S0,.383,0,.226.058-.012.225,0C.3.008.374,0,.471,0" transform="translate(152.68 27.911)" fill="#de4d30"/>
          <path id="Fill_151" data-name="Fill 151" d="M.423.454C.275.407-.024.59,0,.2.01.065.052,0,.19,0S.467.008.6,0c.175-.007.31,0,.3.244S.751.452.6.454H.423" transform="translate(157.105 27.911)" fill="#de4d30"/>
          <path id="Fill_152" data-name="Fill 152" d="M.427.452C.287.4-.017.6,0,.2.008.047.07-.005.215,0s.32.01.48,0c.179-.01.212.085.211.237S.866.464.707.453c-.085-.006-.17,0-.281,0" transform="translate(159.342 27.912)" fill="#de4d30"/>
          <path id="Fill_153" data-name="Fill 153" d="M.43.453c-.085,0-.17,0-.256,0C.028.458,0,.372,0,.248S-.013,0,.167,0c.149,0,.3,0,.447,0S.905-.007.905.223.79.466.622.454c-.064,0-.128,0-.192,0" transform="translate(161.583 27.911)" fill="#de4d30"/>
          <path id="Fill_154" data-name="Fill 154" d="M.411.444C.243.427-.051.549.008.151.017.086.023.011.1.009a6.635,6.635,0,0,1,.7,0C.939.021.9.155.9.244S.9.441.761.443c-.106,0-.213,0-.35,0" transform="translate(163.76 27.918)" fill="#de4d30"/>
          <path id="Fill_155" data-name="Fill 155" d="M.407.448c-.169-.014-.458.1-.4-.3C.02.069.044,0,.138,0,.351,0,.564,0,.776.006.939.014.9.15.9.25s-.011.2-.145.2c-.107,0-.213,0-.351,0" transform="translate(165.998 27.914)" fill="#de4d30"/>
          <path id="Fill_156" data-name="Fill 156" d="M.437.449C.281.4-.033.589,0,.175.013.057.055,0,.176,0c.17,0,.341.007.511,0S.908.066.908.228.85.465.684.45C.609.444.535.449.437.449" transform="translate(170.423 27.913)" fill="#de4d30"/>
          <path id="Fill_157" data-name="Fill 157" d="M.437.448C.284.4-.033.593,0,.178.013.061.054,0,.175,0,.344,0,.514.01.683,0S.9.066.9.226.851.465.682.449C.609.443.534.448.437.448" transform="translate(172.665 27.914)" fill="#de4d30"/>
          <path id="Fill_158" data-name="Fill 158" d="M.436.449C.284.4-.033.594,0,.179.013.063.051,0,.173,0c.169,0,.339.007.508,0S.9.065.9.226.852.466.682.45C.608.444.533.449.436.449" transform="translate(174.903 27.913)" fill="#de4d30"/>
          <path id="Fill_159" data-name="Fill 159" d="M.736.671C.756.821.671.853.591.883.484.924.377.928.313.81A3.685,3.685,0,0,0,.039.345C-.09.172.135.155.2.069S.345-.022.417.091a2.364,2.364,0,0,1,.319.58" transform="translate(178.902 28.927)" fill="#de4d30"/>
          <path id="Fill_160" data-name="Fill 160" d="M.452.491C.406.637.586.933.2.9.068.9,0,.861,0,.722c0-.168.008-.338,0-.506S.071,0,.227,0s.24.046.226.216C.446.3.452.385.452.491" transform="translate(136.164 31.237)" fill="#de4d30"/>
          <path id="Fill_161" data-name="Fill 161" d="M.447.461C.413.624.581.947.153.891.069.88.005.856,0,.763,0,.551,0,.338.006.127.014-.035.151.007.249,0s.2.007.2.143c0,.1,0,.191,0,.317" transform="translate(136.166 33.483)" fill="#de4d30"/>
          <path id="Fill_162" data-name="Fill 162" d="M0,.4C.019.237-.094-.05.3.007.383.019.446.043.448.136c0,.212.009.425,0,.636C.438.935.3.893.2.9S.006.891.005.756C0,.649,0,.544,0,.4" transform="translate(136.164 35.659)" fill="#de4d30"/>
          <path id="Fill_163" data-name="Fill 163" d="M.452.481C.4.625.6.928.2.9.071.895,0,.86,0,.719S.007.443,0,.3C0,.134-.008-.005.241,0S.453.151.452.3V.481" transform="translate(136.163 37.895)" fill="#de4d30"/>
          <path id="Fill_164" data-name="Fill 164" d="M0,.412C.021.24-.1-.05.3.007.381.02.447.041.448.135c0,.212.008.425,0,.637C.439.934.3.893.2.9s-.2,0-.2-.141C0,.651,0,.545,0,.412" transform="translate(136.164 42.315)" fill="#de4d30"/>
          <path id="Fill_165" data-name="Fill 165" d="M.443.484C.419.647.564.96.145.9.079.887.009.877.007.8,0,.567-.006.335.009.1.018-.032.148.006.236,0s.2-.01.207.129c0,.105,0,.211,0,.353" transform="translate(136.169 44.558)" fill="#de4d30"/>
          <path id="Fill_166" data-name="Fill 166" d="M.447.492c-.014.171.1.459-.294.4C.07.881,0,.86,0,.766,0,.553,0,.34.006.129.013-.033.149.006.249,0s.2.007.2.143c0,.106,0,.213,0,.348" transform="translate(136.166 51.219)" fill="#de4d30"/>
          <path id="Fill_167" data-name="Fill 167" d="M.447.491c-.015.169.1.46-.293.4C.071.883.005.862,0,.767,0,.555,0,.341.005.13.012-.034.148.006.247,0s.2,0,.2.142c0,.106,0,.213,0,.348" transform="translate(136.166 53.456)" fill="#de4d30"/>
          <path id="Fill_168" data-name="Fill 168" d="M.468,0C.62.054.938-.142.9.274.9.39.857.453.734.452.564.45.394.446.224.455S0,.394,0,.231.05-.012.22,0C.294.009.369,0,.468,0" transform="translate(139.811 57.482)" fill="#de4d30"/>
          <path id="Fill_169" data-name="Fill 169" d="M.423,0c.1,0,.191,0,.286,0,.152-.009.208.062.2.209S.877.445.724.449c-.18,0-.36,0-.54,0C-.045.45.034.27.007.149-.034-.042.108.01.2,0,.275,0,.349,0,.423,0" transform="translate(142.04 57.484)" fill="#de4d30"/>
          <path id="Fill_170" data-name="Fill 170" d="M.436.452C.282.406-.034.593,0,.178.014.06.059,0,.178,0,.349,0,.519.01.69,0S.909.07.909.23.851.467.685.453C.611.447.536.452.436.452" transform="translate(146.47 57.483)" fill="#de4d30"/>
          <path id="Fill_171" data-name="Fill 171" d="M.443.494C.421.654.558.956.154.9.09.888.012.886.009.805a6.859,6.859,0,0,1,0-.7C.019-.032.151.007.24,0s.2,0,.2.14c0,.106,0,.213,0,.353" transform="translate(136.17 46.794)" fill="#de4d30"/>
          <path id="Fill_172" data-name="Fill 172" d="M.493.005C.664.02.954-.1.9.3.885.382.862.447.768.448.556.451.343.457.13.447-.03.44.005.305,0,.2s.011-.2.145-.2c.106,0,.213,0,.348,0" transform="translate(153.137 57.483)" fill="#de4d30"/>
          <path id="Fill_173" data-name="Fill 173" d="M.437.452C.282.405-.033.593,0,.178.013.061.055,0,.175,0c.17,0,.341.007.51,0s.22.069.22.228S.852.469.684.453C.61.447.535.452.437.452" transform="translate(155.37 57.483)" fill="#de4d30"/>
          <path id="Fill_174" data-name="Fill 174" d="M.427.451C.287.4-.016.6,0,.2.007.047.071,0,.215,0,.374.007.534.009.694,0,.871-.009.907.083.9.236S.866.463.707.452c-.085-.006-.17,0-.28,0" transform="translate(168.692 57.484)" fill="#de4d30"/>
          <path id="Fill_175" data-name="Fill 175" d="M.5.005C.662.023.958-.1.9.3.892.363.882.437.8.439a6.721,6.721,0,0,1-.7,0C-.032.428.007.294,0,.2s.008-.2.143-.2c.107,0,.213,0,.353,0" transform="translate(175.354 57.483)" fill="#de4d30"/>
          <path id="Fill_176" data-name="Fill 176" d="M.467,0C.619.054.935-.142.9.274.894.416.829.456.7.454.543.45.383.446.224.455S0,.393,0,.23.049-.012.219,0C.293.009.368,0,.467,0" transform="translate(148.712 57.482)" fill="#de4d30"/>
          <path id="Fill_177" data-name="Fill 177" d="M.486,0C.636.046.929-.128.9.26.895.389.852.456.717.453s-.3-.005-.443,0C.094.461,0,.4,0,.2,0-.012.135,0,.276,0,.339,0,.4,0,.486,0" transform="translate(157.555 57.483)" fill="#de4d30"/>
          <path id="Fill_178" data-name="Fill 178" d="M.473,0C.609.067.922-.151.9.25.9.378.836.45.706.452s-.278,0-.416,0C.129.461,0,.459,0,.23S.125-.006.288,0c.053,0,.107,0,.185,0" transform="translate(164.27 57.481)" fill="#de4d30"/>
          <path id="Fill_179" data-name="Fill 179" d="M.409.47A1.073,1.073,0,0,1,.134.45.2.2,0,0,1,.024.157C.152-.12.414.062.613.025c.106-.019.266-.067.3.137.06.39-.217.3-.5.307" transform="translate(166.445 57.467)" fill="#de4d30"/>
          <path id="Fill_180" data-name="Fill 180" d="M.489,0C.644.039.932-.119.9.265.893.4.845.456.712.453S.417.447.27.453C.086.461,0,.39,0,.2,0-.021.143,0,.28,0H.489" transform="translate(144.234 57.483)" fill="#de4d30"/>
          <path id="Fill_181" data-name="Fill 181" d="M.417,0c.2.062.521-.125.48.285C.895.306.9.334.891.348.7.6.427.425.194.458.024.482-.009.34,0,.2.027-.15.311.111.417,0" transform="translate(173.117 57.47)" fill="#de4d30"/>
          <path id="Fill_182" data-name="Fill 182" d="M.014.371C-.008.3-.01.23.057.227a2.138,2.138,0,0,0,.6-.212C.843-.053.816.133.883.2.972.3.928.385.821.429a4.175,4.175,0,0,1-.6.218C-.038.709.073.458.014.371" transform="translate(177.561 57.212)" fill="#de4d30"/>
          <path id="Fill_183" data-name="Fill 183" d="M.451.49C.376.606.606.881.258.9.109.913.007.864,0,.7,0,.569,0,.442,0,.315,0,.139.016,0,.249,0s.2.164.2.306c0,.053,0,.106,0,.184" transform="translate(179.329 46.666)" fill="#de4d30"/>
          <path id="Fill_184" data-name="Fill 184" d="M.705.245C.533.436.523.715.351.9.276.985.174.885.085.865S-.007.753.009.684A1.768,1.768,0,0,1,.315.064C.358,0,.406-.026.47.029S.663.121.705.245" transform="translate(136.288 29.025)" fill="#de4d30"/>
          <path id="Fill_185" data-name="Fill 185" d="M.446.491C.386.6.572.825.313.89.184.922.07.9.042.72A3.6,3.6,0,0,1,0,.249C0,.075.07,0,.246,0s.209.1.2.243c0,.074,0,.148,0,.249" transform="translate(179.332 37.776)" fill="#de4d30"/>
          <path id="Fill_186" data-name="Fill 186" d="M.455.49C.422.624.519.792.382.88A.237.237,0,0,1,.062.837,1.071,1.071,0,0,1,.083.063a.242.242,0,0,1,.3-.02c.142.116.035.3.073.447" transform="translate(179.329 35.58)" fill="#de4d30"/>
          <path id="Fill_187" data-name="Fill 187" d="M.886.2C.9.36.867.453.686.452A.884.884,0,0,0,.347.519C.133.61.07.5.016.322-.053.1.121.133.228.1A3.9,3.9,0,0,1,.66.007C.813-.019.917.025.886.2" transform="translate(137.842 27.916)" fill="#de4d30"/>
          <path id="Fill_188" data-name="Fill 188" d="M.45.444C.435.552.5.692.412.8s-.2.048-.3.042S0,.757,0,.678C0,.552,0,.425,0,.3,0,.15-.026.005.211,0s.25.129.239.3c0,.042,0,.085,0,.143" transform="translate(136.165 49.029)" fill="#de4d30"/>
          <path id="Fill_189" data-name="Fill 189" d="M.451.422C.413.584.58.891.172.85.054.838,0,.792,0,.674S0,.42,0,.294C0,.14-.015,0,.217,0,.466,0,.459.139.451.306c0,.032,0,.064,0,.115" transform="translate(136.164 40.132)" fill="#de4d30"/>
          <path id="Fill_190" data-name="Fill 190" d="M.477.422c-.1.165.134.46-.244.46C.07.881-.053.778.023.657.154.445-.169.031.275,0c.336-.023.08.3.2.421" transform="translate(179.328 53.345)" fill="#de4d30"/>
          <path id="Fill_191" data-name="Fill 191" d="M.412.5C.369.636.544.936.153.9.066.888,0,.84,0,.766A5.33,5.33,0,0,1,.041.081C.055-.025.174,0,.254,0a.134.134,0,0,1,.158.15c0,.105,0,.211,0,.344" transform="translate(179.365 33.354)" fill="#de4d30"/>
          <path id="Fill_192" data-name="Fill 192" d="M.44.5C.369.612.595.887.244.905.023.917.033.76.052.626c.03-.21-.217-.5.156-.613.146-.043.248.024.233.2C.435.3.44.385.44.5" transform="translate(179.336 31.11)" fill="#de4d30"/>
          <path id="Fill_193" data-name="Fill 193" d="M.395.454c0,.084,0,.169,0,.253C.4.835.352.9.213.9S0,.857,0,.7.007.408,0,.26.015-.007.217,0,.393.138.395.264C.4.327.4.39.395.454" transform="translate(179.383 48.904)" fill="#de4d30"/>
          <path id="Fill_194" data-name="Fill 194" d="M.454.406c0,.115,0,.2,0,.285C.453.8.386.831.288.839.124.851.014.773.071.622c.078-.2-.3-.552.16-.616C.6-.047.39.285.454.406" transform="translate(179.322 51.152)" fill="#de4d30"/>
          <path id="Fill_195" data-name="Fill 195" d="M17.757.007Q26.448.007,35.139,0c.321,0,.425.073.41.4-.028.639-.017,1.28,0,1.919,0,.228-.044.315-.3.312q-1.536-.025-3.073,0a.44.44,0,0,1-.447-.275A3.827,3.827,0,0,1,31.265.94c-.02-.2-.094-.246-.277-.243-.565.009-1.131,0-1.7,0Q17,.7,4.707.694c-.287,0-.4.049-.427.367a3.4,3.4,0,0,1-.452,1.322.373.373,0,0,1-.375.228q-1.584-.019-3.169,0c-.226,0-.29-.07-.284-.292C.015,1.738.006,1.162.006.586S.005.007.6.007H17.757" transform="translate(139.617 14.735)" fill="#00b77b"/>
          <path id="Fill_196" data-name="Fill 196" d="M0,.305a5.314,5.314,0,0,1,3,0Z" transform="translate(155.898 17.039)" fill="#00b77b"/>
          <path id="Fill_197" data-name="Fill 197" d="M0,1.652A1.639,1.639,0,0,1,1.633,0,1.619,1.619,0,0,1,3.261,1.713a2.028,2.028,0,0,1-1.99.626A1.824,1.824,0,0,1,0,1.652" transform="translate(171.645 41.244)" fill="#ffab00"/>
          <path id="Fill_198" data-name="Fill 198" d="M0,0A2.553,2.553,0,0,0,2.484.513c.293-.1.5-.34.777-.451A1.618,1.618,0,0,1,1.636,1.643,1.634,1.634,0,0,1,0,0" transform="translate(171.645 42.897)" fill="#ffab00"/>
          <path id="Fill_199" data-name="Fill 199" d="M73.369,12.619H2.8A2.8,2.8,0,0,1,0,9.821V2.8A2.8,2.8,0,0,1,2.8,0H73.369a2.8,2.8,0,0,1,2.8,2.8V9.821a2.8,2.8,0,0,1-2.8,2.8" transform="translate(120.794 66.046)" fill="#feffff"/>
          <path id="Fill_200" data-name="Fill 200" d="M73.369,12.619H2.8A2.8,2.8,0,0,1,0,9.821V2.8A2.8,2.8,0,0,1,2.8,0H73.369a2.8,2.8,0,0,1,2.8,2.8V9.821a2.8,2.8,0,0,1-2.8,2.8" transform="translate(120.794 85.309)" fill="#feffff"/>
          <path id="Fill_201" data-name="Fill 201" d="M73.369,12.619H2.8A2.8,2.8,0,0,1,0,9.821V2.8A2.8,2.8,0,0,1,2.8,0H73.369a2.8,2.8,0,0,1,2.8,2.8V9.821a2.8,2.8,0,0,1-2.8,2.8" transform="translate(120.794 104.572)" fill="#feffff"/>
          <path id="Fill_202" data-name="Fill 202" d="M73.369,12.619H2.8A2.8,2.8,0,0,1,0,9.821V2.8A2.8,2.8,0,0,1,2.8,0H73.369a2.8,2.8,0,0,1,2.8,2.8V9.821a2.8,2.8,0,0,1-2.8,2.8" transform="translate(120.794 123.835)" fill="#feffff"/>
          <path id="Fill_203" data-name="Fill 203" d="M46.811,23.4A23.405,23.405,0,1,1,23.406,0,23.4,23.4,0,0,1,46.811,23.4" transform="translate(0 0)" fill="#7bbdff"/>
          <path id="Fill_204" data-name="Fill 204" d="M42.9,21.443A21.451,21.451,0,1,1,21.451,0,21.447,21.447,0,0,1,42.9,21.443" transform="translate(1.955 1.954)" fill="#daebff"/>
          <path id="Fill_205" data-name="Fill 205" d="M12.311,11.925a.67.67,0,0,1-.452-.175L.22,1.168a.671.671,0,1,1,.9-.993l11.2,10.18L20.933,2.83a.671.671,0,1,1,.883,1.01l-9.064,7.919a.67.67,0,0,1-.442.166" transform="translate(11.094 12.144)" fill="#054aa9"/>
          <path id="Fill_206" data-name="Fill 206" d="M0,3.688H1.406V0H0Z" transform="translate(22.673 39.806)" fill="#054aa9"/>
          <path id="Fill_207" data-name="Fill 207" d="M0,3.688H1.406V0H0Z" transform="translate(22.673 3.301)" fill="#054aa9"/>
          <path id="Fill_208" data-name="Fill 208" d="M0,1.405H3.69V0H0Z" transform="translate(3.273 22.695)" fill="#054aa9"/>
          <path id="Fill_209" data-name="Fill 209" d="M0,1.405H3.69V0H0Z" transform="translate(39.79 22.695)" fill="#054aa9"/>
          <path id="Stroke_210" data-name="Stroke 210" d="M0,0,5.681,17.081" transform="translate(23.405 23.822)" fill="none" stroke="#de4d30" stroke-linecap="round" stroke-linejoin="round" stroke-miterlimit="10" stroke-width="2"/>
          <path id="Fill_211" data-name="Fill 211" d="M4.95,2.474A2.475,2.475,0,1,1,2.475,0,2.475,2.475,0,0,1,4.95,2.474" transform="translate(20.931 20.923)" fill="#7bbdff"/>
          <path id="Fill_212" data-name="Fill 212" d="M2.915,1.457A1.458,1.458,0,1,1,1.457,0,1.457,1.457,0,0,1,2.915,1.457" transform="translate(21.948 21.94)" fill="#ffab00"/>
          <path id="Fill_213" data-name="Fill 213" d="M0,14.97C3.822,9.484,7.753,3.887,13.194,0,11.3,6.322,5.078,10.752,0,14.97" transform="translate(22.811 67.639)" fill="#09ca8b"/>
          <path id="Fill_214" data-name="Fill 214" d="M0,21.361C2.151,13.821,4.975,6.156,9.832,0A32.923,32.923,0,0,1,5.748,13.295C3.457,17.383,2.786,17.87.578,22" transform="translate(22.347 60.622)" fill="#09ca8b"/>
          <path id="Fill_215" data-name="Fill 215" d="M8.506,22.563A30.962,30.962,0,0,1,.226,6.256,17.092,17.092,0,0,1,.351,0,6.59,6.59,0,0,1,1.909,2.069a91.031,91.031,0,0,1,8.254,21.556" transform="translate(12.762 59.001)" fill="#09ca8b"/>
          <path id="Fill_216" data-name="Fill 216" d="M3.565,26.958C2.4,21.9.727,17.233.159,12.074A27.539,27.539,0,0,1,1.532,0C3.918,8.878,3.894,18.209,3.618,27.4" transform="translate(18.744 54.894)" fill="#09ca8b"/>
          <path id="Fill_217" data-name="Fill 217" d="M13.655,11.03C8.447,9.152,1.99,5.384,0,0,7.121,2.573,9.116,5.969,13.655,11.03" transform="translate(9.27 71.596)" fill="#09ca8b"/>
          <path id="Fill_218" data-name="Fill 218" d="M.206,28.472A54.352,54.352,0,0,1,.858,13.958,45.145,45.145,0,0,1,5.826,0c.983,9.768-3.954,18.672-5,28.433" transform="translate(22.141 53.511)" fill="#09ca8b"/>
        </g>
        <g id="Group_250" data-name="Group 250" transform="translate(24.032 64.81)">
          <g id="Group_222" data-name="Group 222" transform="translate(0 0)">
            <path id="Clip_221-2" data-name="Clip 221" d="M13.729,13.958c-.243,1.4-.428,2.7-.563,3.939h0A71.038,71.038,0,0,0,11.005,1.383h0A27.539,27.539,0,0,0,9.633,13.457h0a48.049,48.049,0,0,0,1.184,6.3h0A80.1,80.1,0,0,0,5.4,7.559h0A6.589,6.589,0,0,0,3.843,5.49h0a17.1,17.1,0,0,0-.125,6.256h0a30.745,30.745,0,0,0,4.2,11.035h0A21.656,21.656,0,0,0,0,18.085H0c1.977,5.35,8.365,9.1,13.555,10.992h0l-.014.021h0l.022-.018h0l.092.035h0l.106-.2h0c5.037-4.164,11.105-8.557,12.974-14.789h0c-5.2,3.711-9.014,8.982-12.676,14.227h0c1.833-3.466,2.506-3.918,4.649-7.741h0a34.015,34.015,0,0,0,4.2-13.5h0c-3.933,4.984-6.532,10.958-8.521,17.054h0C16.076,16.027,19.534,8.327,18.7,0h0a45.136,45.136,0,0,0-4.968,13.958" fill="none"/>
            <g id="Group_222-2" data-name="Group 222" clip-path="url(#clip-path-4)">
              <path id="Fill_220" data-name="Fill 220" d="M.317,2.907A25.006,25.006,0,0,1,6.926.913a26.863,26.863,0,0,1,6.867.434c.273.037.316-.358.086-.452C9.75-.807,3.716.013.082,2.556c-.21.147.025.436.235.351" transform="translate(4.89 24.282)" fill="#00b77b"/>
            </g>
          </g>
          <g id="Group_225" data-name="Group 225" transform="translate(0 0)">
            <path id="Clip_224-2" data-name="Clip 224" d="M13.729,13.958c-.243,1.4-.428,2.7-.563,3.939h0A71.038,71.038,0,0,0,11.005,1.383h0A27.539,27.539,0,0,0,9.633,13.457h0a48.049,48.049,0,0,0,1.184,6.3h0A80.1,80.1,0,0,0,5.4,7.559h0A6.589,6.589,0,0,0,3.843,5.49h0a17.1,17.1,0,0,0-.125,6.256h0a30.745,30.745,0,0,0,4.2,11.035h0A21.656,21.656,0,0,0,0,18.085H0c1.977,5.35,8.365,9.1,13.555,10.992h0l-.014.021h0l.022-.018h0l.092.035h0l.106-.2h0c5.037-4.164,11.105-8.557,12.974-14.789h0c-5.2,3.711-9.014,8.982-12.676,14.227h0c1.833-3.466,2.506-3.918,4.649-7.741h0a34.015,34.015,0,0,0,4.2-13.5h0c-3.933,4.984-6.532,10.958-8.521,17.054h0C16.076,16.027,19.534,8.327,18.7,0h0a45.136,45.136,0,0,0-4.968,13.958" fill="none"/>
            <g id="Group_225-2" data-name="Group 225" clip-path="url(#clip-path-4)">
              <path id="Fill_223" data-name="Fill 223" d="M.129,1.978a24.314,24.314,0,0,1,16.056-.357.1.1,0,0,0,.063-.186,21.127,21.127,0,0,0-16.2.384c-.106.046-.026.2.079.159" transform="translate(5.564 23.516)" fill="#00b77b"/>
            </g>
          </g>
          <g id="Group_228" data-name="Group 228" transform="translate(0 0)">
            <path id="Clip_227-2" data-name="Clip 227" d="M13.729,13.958c-.243,1.4-.428,2.7-.563,3.939h0A71.038,71.038,0,0,0,11.005,1.383h0A27.539,27.539,0,0,0,9.633,13.457h0a48.049,48.049,0,0,0,1.184,6.3h0A80.1,80.1,0,0,0,5.4,7.559h0A6.589,6.589,0,0,0,3.843,5.49h0a17.1,17.1,0,0,0-.125,6.256h0a30.745,30.745,0,0,0,4.2,11.035h0A21.656,21.656,0,0,0,0,18.085H0c1.977,5.35,8.365,9.1,13.555,10.992h0l-.014.021h0l.022-.018h0l.092.035h0l.106-.2h0c5.037-4.164,11.105-8.557,12.974-14.789h0c-5.2,3.711-9.014,8.982-12.676,14.227h0c1.833-3.466,2.506-3.918,4.649-7.741h0a34.015,34.015,0,0,0,4.2-13.5h0c-3.933,4.984-6.532,10.958-8.521,17.054h0C16.076,16.027,19.534,8.327,18.7,0h0a45.136,45.136,0,0,0-4.968,13.958" fill="none"/>
            <g id="Group_228-2" data-name="Group 228" clip-path="url(#clip-path-4)">
              <path id="Fill_226" data-name="Fill 226" d="M.129,3.26A32.423,32.423,0,0,1,11.474.588a27.646,27.646,0,0,1,5.3.351c1.984.327,3.828,1.018,5.764,1.513.2.05.369-.229.168-.341C19.41.279,14.968-.13,11.263.033A24.388,24.388,0,0,0,.048,3.1a.091.091,0,0,0,.081.163" transform="translate(1.739 20.743)" fill="#00b77b"/>
            </g>
          </g>
          <g id="Group_231" data-name="Group 231" transform="translate(0 0)">
            <path id="Clip_230-2" data-name="Clip 230" d="M13.729,13.958c-.243,1.4-.428,2.7-.563,3.939h0A71.038,71.038,0,0,0,11.005,1.383h0A27.539,27.539,0,0,0,9.633,13.457h0a48.049,48.049,0,0,0,1.184,6.3h0A80.1,80.1,0,0,0,5.4,7.559h0A6.589,6.589,0,0,0,3.843,5.49h0a17.1,17.1,0,0,0-.125,6.256h0a30.745,30.745,0,0,0,4.2,11.035h0A21.656,21.656,0,0,0,0,18.085H0c1.977,5.35,8.365,9.1,13.555,10.992h0l-.014.021h0l.022-.018h0l.092.035h0l.106-.2h0c5.037-4.164,11.105-8.557,12.974-14.789h0c-5.2,3.711-9.014,8.982-12.676,14.227h0c1.833-3.466,2.506-3.918,4.649-7.741h0a34.015,34.015,0,0,0,4.2-13.5h0c-3.933,4.984-6.532,10.958-8.521,17.054h0C16.076,16.027,19.534,8.327,18.7,0h0a45.136,45.136,0,0,0-4.968,13.958" fill="none"/>
            <g id="Group_231-2" data-name="Group 231" clip-path="url(#clip-path-4)">
              <path id="Fill_229" data-name="Fill 229" d="M.152,2.017A21.857,21.857,0,0,1,13.783,1.009c.094.02.145-.113.049-.145A19.207,19.207,0,0,0,.058,1.829c-.124.055-.03.242.094.189" transform="translate(5.934 25.677)" fill="#00b77b"/>
            </g>
          </g>
          <g id="Group_234" data-name="Group 234" transform="translate(0 0)">
            <path id="Clip_233-2" data-name="Clip 233" d="M13.729,13.958c-.243,1.4-.428,2.7-.563,3.939h0A71.038,71.038,0,0,0,11.005,1.383h0A27.539,27.539,0,0,0,9.633,13.457h0a48.049,48.049,0,0,0,1.184,6.3h0A80.1,80.1,0,0,0,5.4,7.559h0A6.589,6.589,0,0,0,3.843,5.49h0a17.1,17.1,0,0,0-.125,6.256h0a30.745,30.745,0,0,0,4.2,11.035h0A21.656,21.656,0,0,0,0,18.085H0c1.977,5.35,8.365,9.1,13.555,10.992h0l-.014.021h0l.022-.018h0l.092.035h0l.106-.2h0c5.037-4.164,11.105-8.557,12.974-14.789h0c-5.2,3.711-9.014,8.982-12.676,14.227h0c1.833-3.466,2.506-3.918,4.649-7.741h0a34.015,34.015,0,0,0,4.2-13.5h0c-3.933,4.984-6.532,10.958-8.521,17.054h0C16.076,16.027,19.534,8.327,18.7,0h0a45.136,45.136,0,0,0-4.968,13.958" fill="none"/>
            <g id="Group_234-2" data-name="Group 234" clip-path="url(#clip-path-4)">
              <path id="Fill_232" data-name="Fill 232" d="M.135,1.1A20.271,20.271,0,0,1,9.41.836c.122.02.153-.172.04-.21A15.307,15.307,0,0,0,.087.87c-.142.045-.1.273.048.23" transform="translate(9.214 27.185)" fill="#00b77b"/>
            </g>
          </g>
          <g id="Group_237" data-name="Group 237" transform="translate(0 0)">
            <path id="Clip_236-2" data-name="Clip 236" d="M13.729,13.958c-.243,1.4-.428,2.7-.563,3.939h0A71.038,71.038,0,0,0,11.005,1.383h0A27.539,27.539,0,0,0,9.633,13.457h0a48.049,48.049,0,0,0,1.184,6.3h0A80.1,80.1,0,0,0,5.4,7.559h0A6.589,6.589,0,0,0,3.843,5.49h0a17.1,17.1,0,0,0-.125,6.256h0a30.745,30.745,0,0,0,4.2,11.035h0A21.656,21.656,0,0,0,0,18.085H0c1.977,5.35,8.365,9.1,13.555,10.992h0l-.014.021h0l.022-.018h0l.092.035h0l.106-.2h0c5.037-4.164,11.105-8.557,12.974-14.789h0c-5.2,3.711-9.014,8.982-12.676,14.227h0c1.833-3.466,2.506-3.918,4.649-7.741h0a34.015,34.015,0,0,0,4.2-13.5h0c-3.933,4.984-6.532,10.958-8.521,17.054h0C16.076,16.027,19.534,8.327,18.7,0h0a45.136,45.136,0,0,0-4.968,13.958" fill="none"/>
            <g id="Group_237-2" data-name="Group 237" clip-path="url(#clip-path-4)">
              <path id="Fill_235" data-name="Fill 235" d="M.091,2.16C8.416-.99,18.242-.012,26.578,2.479a.1.1,0,0,0,.063-.186C22.3.289,17.043.04,12.338,0A30.447,30.447,0,0,0,.035,2.048c-.075.032-.018.139.055.111" transform="translate(2.37 20.284)" fill="#00b77b"/>
            </g>
          </g>
          <g id="Group_240" data-name="Group 240" transform="translate(0 0)">
            <path id="Clip_239-2" data-name="Clip 239" d="M13.729,13.958c-.243,1.4-.428,2.7-.563,3.939h0A71.038,71.038,0,0,0,11.005,1.383h0A27.539,27.539,0,0,0,9.633,13.457h0a48.049,48.049,0,0,0,1.184,6.3h0A80.1,80.1,0,0,0,5.4,7.559h0A6.589,6.589,0,0,0,3.843,5.49h0a17.1,17.1,0,0,0-.125,6.256h0a30.745,30.745,0,0,0,4.2,11.035h0A21.656,21.656,0,0,0,0,18.085H0c1.977,5.35,8.365,9.1,13.555,10.992h0l-.014.021h0l.022-.018h0l.092.035h0l.106-.2h0c5.037-4.164,11.105-8.557,12.974-14.789h0c-5.2,3.711-9.014,8.982-12.676,14.227h0c1.833-3.466,2.506-3.918,4.649-7.741h0a34.015,34.015,0,0,0,4.2-13.5h0c-3.933,4.984-6.532,10.958-8.521,17.054h0C16.076,16.027,19.534,8.327,18.7,0h0a45.136,45.136,0,0,0-4.968,13.958" fill="none"/>
            <g id="Group_240-2" data-name="Group 240" clip-path="url(#clip-path-4)">
              <path id="Fill_238" data-name="Fill 238" d="M.1,1.72C3.913.131,8.5-.01,12.573.315a36.3,36.3,0,0,1,11.75,3c.11.049.169-.129.059-.177A36.423,36.423,0,0,0,12.042.1c-3.907-.25-8.376-.1-12,1.5-.079.035-.019.153.06.12" transform="translate(2.458 15.675)" fill="#00b77b"/>
            </g>
          </g>
          <g id="Group_243" data-name="Group 243" transform="translate(0 0)">
            <path id="Clip_242-2" data-name="Clip 242" d="M13.729,13.958c-.243,1.4-.428,2.7-.563,3.939h0A71.038,71.038,0,0,0,11.005,1.383h0A27.539,27.539,0,0,0,9.633,13.457h0a48.049,48.049,0,0,0,1.184,6.3h0A80.1,80.1,0,0,0,5.4,7.559h0A6.589,6.589,0,0,0,3.843,5.49h0a17.1,17.1,0,0,0-.125,6.256h0a30.745,30.745,0,0,0,4.2,11.035h0A21.656,21.656,0,0,0,0,18.085H0c1.977,5.35,8.365,9.1,13.555,10.992h0l-.014.021h0l.022-.018h0l.092.035h0l.106-.2h0c5.037-4.164,11.105-8.557,12.974-14.789h0c-5.2,3.711-9.014,8.982-12.676,14.227h0c1.833-3.466,2.506-3.918,4.649-7.741h0a34.015,34.015,0,0,0,4.2-13.5h0c-3.933,4.984-6.532,10.958-8.521,17.054h0C16.076,16.027,19.534,8.327,18.7,0h0a45.136,45.136,0,0,0-4.968,13.958" fill="none"/>
            <g id="Group_243-2" data-name="Group 243" clip-path="url(#clip-path-4)">
              <path id="Fill_241" data-name="Fill 241" d="M.061,1.417A41.992,41.992,0,0,1,27.537,4.312c.161.073.3-.2.139-.281A39.734,39.734,0,0,0,.04,1.314c-.065.017-.045.119.022.1" transform="translate(2.607 14.444)" fill="#00b77b"/>
            </g>
          </g>
          <g id="Group_246" data-name="Group 246" transform="translate(0 0)">
            <path id="Clip_245-2" data-name="Clip 245" d="M13.729,13.958c-.243,1.4-.428,2.7-.563,3.939h0A71.038,71.038,0,0,0,11.005,1.383h0A27.539,27.539,0,0,0,9.633,13.457h0a48.049,48.049,0,0,0,1.184,6.3h0A80.1,80.1,0,0,0,5.4,7.559h0A6.589,6.589,0,0,0,3.843,5.49h0a17.1,17.1,0,0,0-.125,6.256h0a30.745,30.745,0,0,0,4.2,11.035h0A21.656,21.656,0,0,0,0,18.085H0c1.977,5.35,8.365,9.1,13.555,10.992h0l-.014.021h0l.022-.018h0l.092.035h0l.106-.2h0c5.037-4.164,11.105-8.557,12.974-14.789h0c-5.2,3.711-9.014,8.982-12.676,14.227h0c1.833-3.466,2.506-3.918,4.649-7.741h0a34.015,34.015,0,0,0,4.2-13.5h0c-3.933,4.984-6.532,10.958-8.521,17.054h0C16.076,16.027,19.534,8.327,18.7,0h0a45.136,45.136,0,0,0-4.968,13.958" fill="none"/>
            <g id="Group_246-2" data-name="Group 246" clip-path="url(#clip-path-4)">
              <path id="Fill_244" data-name="Fill 244" d="M.406.443A.031.031,0,0,0,.426.385.031.031,0,0,0,.406.443" transform="translate(6.772 10.392)" fill="#00b77b"/>
            </g>
          </g>
          <g id="Group_249" data-name="Group 249" transform="translate(0 0)">
            <path id="Clip_248-2" data-name="Clip 248" d="M13.729,13.958c-.243,1.4-.428,2.7-.563,3.939h0A71.038,71.038,0,0,0,11.005,1.383h0A27.539,27.539,0,0,0,9.633,13.457h0a48.049,48.049,0,0,0,1.184,6.3h0A80.1,80.1,0,0,0,5.4,7.559h0A6.589,6.589,0,0,0,3.843,5.49h0a17.1,17.1,0,0,0-.125,6.256h0a30.745,30.745,0,0,0,4.2,11.035h0A21.656,21.656,0,0,0,0,18.085H0c1.977,5.35,8.365,9.1,13.555,10.992h0l-.014.021h0l.022-.018h0l.092.035h0l.106-.2h0c5.037-4.164,11.105-8.557,12.974-14.789h0c-5.2,3.711-9.014,8.982-12.676,14.227h0c1.833-3.466,2.506-3.918,4.649-7.741h0a34.015,34.015,0,0,0,4.2-13.5h0c-3.933,4.984-6.532,10.958-8.521,17.054h0C16.076,16.027,19.534,8.327,18.7,0h0a45.136,45.136,0,0,0-4.968,13.958" fill="none"/>
            <g id="Group_249-2" data-name="Group 249" clip-path="url(#clip-path-4)">
              <path id="Fill_247" data-name="Fill 247" d="M.044,4.063C7.912-.056,18.373-1.683,26.069,3.582c.1.067.231-.074.141-.16C22.837.182,17.341-.228,12.927.088A30.351,30.351,0,0,0,.016,4.007c-.034.02-.008.075.028.056" transform="translate(0.607 8.183)" fill="#00b77b"/>
            </g>
          </g>
        </g>
        <g id="Group_257" data-name="Group 257" transform="translate(27.06 75.545)">
          <path id="Fill_251" data-name="Fill 251" d="M17.31.744c0,.411-3.875.744-8.655.744S0,1.155,0,.744,3.875,0,8.655,0,17.31.333,17.31.744" transform="translate(0 26.244)" fill="#9cc6f7"/>
          <path id="Fill_253" data-name="Fill 253" d="M0,12.645H15.125V0H0Z" transform="translate(1.509 14.276)" fill="#d1e0f5"/>
          <path id="Fill_255" data-name="Fill 255" d="M0,12.645H2.972V0H0Z" transform="translate(13.662 14.276)" fill="#9cc6f7"/>
          <path id="Fill_256" data-name="Fill 256" d="M0,20.434l6.513-6.111s1.828,5.311,4.227,3.055S21.137,4.9,25.251,1.074s9.54,3.484,6,7.6S13.425,26.545,10.8,27.516s-4.685.628-8-3.655C.552,21.139,0,20.434,0,20.434" transform="translate(46.978 0)" fill="#fe8e00"/>
        </g>
        <g id="Group_260" data-name="Group 260" transform="translate(74.038 75.545)">
          <path id="Clip_259-2" data-name="Clip 259" d="M25.251,1.074C21.137,4.9,13.139,15.123,10.74,17.379h0c-2.4,2.256-4.227-3.055-4.227-3.055h0L0,20.434s.552.7,2.8,3.426h0c3.313,4.283,5.37,4.626,8,3.655h0c2.628-.971,16.91-14.734,20.452-18.846h0c2.845-3.3-.1-8.67-3.5-8.67h0a3.638,3.638,0,0,0-2.5,1.074Z" transform="translate(0 0)" fill="none"/>
          <g id="Group_260-2" data-name="Group 260" transform="translate(0 0)" clip-path="url(#clip-path-14)">
            <path id="Fill_258" data-name="Fill 258" d="M2.036,15.837s3.542,7.218,7.312,6.712S33.774,0,33.774,0l2,6.4L23.345,19.9,7.835,27.662l-4.57-1.531L0,19.527Z" transform="translate(-1.379 2.883)" fill="#ef7d00"/>
          </g>
        </g>
        <path id="Fill_261" data-name="Fill 261" d="M17.291,11.833C18.28,17.315,8.757,49.977,8.4,50.171A6.33,6.33,0,0,1,0,48.61C1.609,45.59,3.381,28.6,4.958,15.96,5.846,8.849,6.672,3.119,7.37,2.029,9.312-1,15.195.258,15.195.258L39.523,10.773c-7.666,1.123-22.232,1.06-22.232,1.06" transform="translate(62.498 124.846)" fill="#0542bf"/>
        <g id="Group_265" data-name="Group 265" transform="translate(62.498 124.846)">
          <path id="Clip_264-2" data-name="Clip 264" d="M7.37,2.029c-.7,1.09-1.524,6.82-2.412,13.931h0C3.381,28.6,1.609,45.59,0,48.61H0a6.33,6.33,0,0,0,8.4,1.561h0c.36-.195,9.883-32.856,8.894-38.338h0s14.566.063,22.232-1.06h0L15.195.258A14.468,14.468,0,0,0,12.483,0h0C10.671,0,8.432.375,7.37,2.029Z" transform="translate(0 0)" fill="none"/>
          <g id="Group_265-2" data-name="Group 265" transform="translate(0 0)" clip-path="url(#clip-path-15)">
            <path id="Fill_263" data-name="Fill 263" d="M.076,14.7s15.31,2.665,10.816,25.28L21.1,18.579s15.234-1.6,15.615-1.675,1.523-5.178,1.523-5.178L9.141,0,0,4.723Z" transform="translate(3.628 -3.967)" fill="#003ba3"/>
          </g>
        </g>
        <path id="Fill_266" data-name="Fill 266" d="M80.056,31.093C74.914,41.031,57.9,34.748,57.9,34.748l-.248-.107L33.323,24.126S27.441,22.871,25.5,25.9c-.7,1.089-1.524,6.82-2.412,13.931-1.1,1.253-2.3,2.5-3.587,3.715C10.207,52.3,6.7,57.326,6.7,57.326S.609,57.478,0,51.615c0,0,24.527-35.712,25.06-36.551s2.361-6.623,17.291-2.512L57.28,16.664a61.272,61.272,0,0,0-.629-11.045c3.356.729,11.114,1.436,16.7-5.619a43.868,43.868,0,0,0,2.7,6.193c4.115,7.882,9.14,14.964,4,24.9" transform="translate(44.37 100.978)" fill="#006dfe"/>
        <g id="Group_270" data-name="Group 270" transform="translate(44.37 100.978)">
          <path id="Clip_269-2" data-name="Clip 269" d="M56.651,5.619a61.269,61.269,0,0,1,.629,11.045h0L42.352,12.553C27.421,8.442,25.593,14.228,25.06,15.065h0C24.527,15.9,0,51.615,0,51.615H0c.608,5.862,6.7,5.711,6.7,5.711h0s3.5-5.026,12.8-13.783h0c1.287-1.213,2.483-2.463,3.587-3.716h0C23.975,32.717,24.8,26.987,25.5,25.9h0c1.942-3.026,7.825-1.771,7.825-1.771h0L57.652,34.641l.248.107s17.014,6.283,22.156-3.655h0c5.14-9.936.114-17.017-4-24.9h0A43.875,43.875,0,0,1,73.352,0h0c-5.587,7.055-13.344,6.348-16.7,5.619Z" transform="translate(0 0)" fill="none"/>
          <g id="Group_270-2" data-name="Group 270" transform="translate(0 0)" clip-path="url(#clip-path-16)">
            <path id="Fill_268" data-name="Fill 268" d="M0,52.214S17.033,31.57,21.6,22.4s40.8,7.367,49.655,1.726S73.808,0,73.808,0L85.016,15.606,76.094,37.688,32.115,33.962l-18.167,12.9-7.828,7.1Z" transform="translate(2.095 5.113)" fill="#0047f9"/>
          </g>
        </g>
      </g>
    </g>
  </g>
</svg>
