<svg xmlns="http://www.w3.org/2000/svg" xmlns:xlink="http://www.w3.org/1999/xlink" viewBox="0 0 623.63 604.656">
  <defs>
    <style>
      .cls-1, .cls-2 {
        opacity: 0.64;
      }

      .cls-1 {
        fill: url(#linear-gradient);
      }

      .cls-2 {
        fill: url(#linear-gradient-2);
      }

      .cls-3 {
        fill: url(#linear-gradient-3);
      }

      .cls-4 {
        fill: #fff;
      }

      .cls-5 {
        fill: #00a1e0;
      }

      .cls-6 {
        fill: #9b5c8f;
      }

      .cls-7 {
        fill: #95bf46;
      }

      .cls-8 {
        fill: #5e8e3e;
      }

      .cls-9 {
        fill: #70cadb;
      }

      .cls-10 {
        fill: #e01765;
      }

      .cls-11 {
        fill: #e8a723;
      }

      .cls-12 {
        fill: #3eb890;
      }

      .cls-13 {
        fill: #cc2027;
      }

      .cls-14 {
        fill: #361238;
      }

      .cls-15 {
        fill: #65863a;
      }

      .cls-16 {
        fill: #1a937d;
      }

      .cls-17 {
        clip-path: url(#clip-path);
      }

      .cls-18 {
        fill: #00749a;
      }

      .cls-19 {
        fill: #464342;
      }

      .cls-20 {
        fill: #ff8200;
      }

      .cls-21 {
        fill: #43b02a;
      }

      .cls-22 {
        fill: url(#linear-gradient-4);
      }

      .cls-23 {
        fill: #f905f5;
      }

      .cls-23, .cls-24 {
        opacity: 0.58;
      }

      .cls-24 {
        fill: #17c9f2;
      }

      .cls-25, .cls-28 {
        fill: none;
      }

      .cls-25 {
        stroke: rgba(17,44,223,0.21);
        stroke-width: 30px;
      }

      .cls-26 {
        opacity: 0.71;
        fill: url(#linear-gradient-5);
      }

      .cls-27 {
        stroke: none;
      }

      .cls-29 {
        filter: url(#top_saleforce);
      }

      .cls-30 {
        filter: url(#bottom_worpress);
      }

      .cls-31 {
        filter: url(#carrot_circle);
      }

      .cls-32 {
        filter: url(#wordpress_circle);
      }

      .cls-33 {
        filter: url(#slack_circle);
      }

      .cls-34 {
        filter: url(#shopify_circle);
      }

      .cls-35 {
        filter: url(#woo_circle);
      }

      .cls-36 {
        filter: url(#saleforce_circle);
      }

      .cls-37 {
        filter: url(#slack_below_circle);
      }

      .cls-38 {
        filter: url(#carrat_below_circle);
      }

      .cls-39 {
        filter: url(#woo_below_cirlce);
      }
 <!--      #slack_below_circle{

        -moz-animation:spin 4s linear infinite;
        -webkit-animation:spin 4s linear infinite;
        animation:spin 10s linear infinite;
      }

@-moz-keyframes spin { 100% { -moz-transform: rotate(360deg); } }
@-webkit-keyframes spin { 100% { -webkit-transform: rotate(360deg); } }
@keyframes spin { 100% { -webkit-transform: rotate(360deg); transform:rotate(360deg); } } -->
    </style>
    <linearGradient id="linear-gradient" x1="0.5" x2="0.5" y2="1" gradientUnits="objectBoundingBox">
      <stop offset="0" stop-color="#17c9f2"/>
      <stop offset="1" stop-color="#0c6579"/>
    </linearGradient>
    <filter id="woo_below_cirlce" x="350.32" y="216.874" width="112.8" height="112.8" filterUnits="userSpaceOnUse">
      <feOffset dy="3" input="SourceAlpha"/>
      <feGaussianBlur stdDeviation="3" result="blur"/>
      <feFlood flood-opacity="0.161"/>
      <feComposite operator="in" in2="blur"/>
      <feComposite in="SourceGraphic"/>
    </filter>
    <linearGradient id="linear-gradient-2" x1="0.941" y1="0.271" x2="0.057" y2="0.771" gradientUnits="objectBoundingBox">
      <stop offset="0" stop-color="#ff6f00"/>
      <stop offset="1" stop-color="#ffb829"/>
    </linearGradient>
    <filter id="carrat_below_circle" x="0" y="153.465" width="157.375" height="157.375" filterUnits="userSpaceOnUse">
      <feOffset dy="3" input="SourceAlpha"/>
      <feGaussianBlur stdDeviation="3" result="blur-2"/>
      <feFlood flood-opacity="0.161"/>
      <feComposite operator="in" in2="blur-2"/>
      <feComposite in="SourceGraphic"/>
    </filter>
    <linearGradient id="linear-gradient-3" x1="0.942" y1="1.249" x2="0.257" y2="-0.055" gradientUnits="objectBoundingBox">
      <stop offset="0" stop-color="#e01765"/>
      <stop offset="1" stop-color="#8ed6ff" stop-opacity="0.451"/>
    </linearGradient>
    <filter id="slack_below_circle" x="76.594" y="381.361" width="192.532" height="192.532" filterUnits="userSpaceOnUse">
      <feOffset dy="3" input="SourceAlpha"/>
      <feGaussianBlur stdDeviation="3" result="blur-3"/>
      <feFlood flood-opacity="0.161"/>
      <feComposite operator="in" in2="blur-3"/>
      <feComposite in="SourceGraphic"/>
    </filter>
    <filter id="saleforce_circle" x="170.766" y="91.371" width="119.018" height="119.018" filterUnits="userSpaceOnUse">

      <feOffset dy="3" input="SourceAlpha"/>
      <feGaussianBlur stdDeviation="3" result="blur-4"/>
      <feFlood flood-opacity="0.161"/>
      <feComposite operator="in" in2="blur-4"/>
      <feComposite in="SourceGraphic"/>
    </filter>
    <filter id="woo_circle" x="307.629" y="181.716" width="138.383" height="138.383" filterUnits="userSpaceOnUse">
      <feOffset dy="3" input="SourceAlpha"/>
      <feGaussianBlur stdDeviation="3" result="blur-5"/>
      <feFlood flood-opacity="0.161"/>
      <feComposite operator="in" in2="blur-5"/>
      <feComposite in="SourceGraphic"/>
    </filter>
    <filter id="shopify_circle" x="171.08" y="249.52" width="123.159" height="123.159" filterUnits="userSpaceOnUse">
      <feOffset dy="3" input="SourceAlpha"/>
      <feGaussianBlur stdDeviation="3" result="blur-6"/>
      <feFlood flood-opacity="0.161"/>
      <feComposite operator="in" in2="blur-6"/>
      <feComposite in="SourceGraphic"/>
    </filter>
    <filter id="slack_circle" x="64.3" y="370.64" width="143.349" height="143.349" filterUnits="userSpaceOnUse">
      <feOffset dy="3" input="SourceAlpha"/>
      <feGaussianBlur stdDeviation="3" result="blur-7"/>
      <feFlood flood-opacity="0.161"/>
      <feComposite operator="in" in2="blur-7"/>
      <feComposite in="SourceGraphic"/>
    </filter>
    <filter id="wordpress_circle" x="254.265" y="380.733" width="139.736" height="139.736" filterUnits="userSpaceOnUse">
      <feOffset dy="3" input="SourceAlpha"/>
      <feGaussianBlur stdDeviation="3" result="blur-8"/>
      <feFlood flood-opacity="0.161"/>
      <feComposite operator="in" in2="blur-8"/>
      <feComposite in="SourceGraphic"/>
    </filter>
    <clipPath id="clip-path">
      <path id="Path_692" data-name="Path 692" d="M0,0H66V66H0Z"/>
    </clipPath>
    <filter id="carrot_circle" x="34.756" y="180.461" width="131.006" height="131.007" filterUnits="userSpaceOnUse">
      <feOffset dy="3" input="SourceAlpha"/>
      <feGaussianBlur stdDeviation="3" result="blur-9"/>
      <feFlood flood-opacity="0.161"/>
      <feComposite operator="in" in2="blur-9"/>
      <feComposite in="SourceGraphic"/>

    </filter>
    <linearGradient id="linear-gradient-4" x1="1.276" y1="-0.167" x2="0" y2="1" gradientUnits="objectBoundingBox">
      <stop offset="0" stop-color="#f905f5"/>
      <stop offset="1" stop-color="#17c9f2"/>
    </linearGradient>
    <filter id="bottom_worpress" x="292.562" y="543.337" width="61.319" height="61.319" filterUnits="userSpaceOnUse">
      <feOffset dy="3" input="SourceAlpha"/>
      <feGaussianBlur stdDeviation="3" result="blur-10"/>
      <feFlood flood-opacity="0.161"/>
      <feComposite operator="in" in2="blur-10"/>
      <feComposite in="SourceGraphic"/>
    </filter>
    <filter id="top_saleforce" x="139.375" y="31.041" width="61.319" height="61.319" filterUnits="userSpaceOnUse">

      <feOffset dy="3" input="SourceAlpha"/>
      <feGaussianBlur stdDeviation="3" result="blur-11"/>
      <feFlood flood-opacity="0.161"/>
      <feComposite operator="in" in2="blur-11"/>
      <feComposite in="SourceGraphic"/>
    </filter>
    <linearGradient id="linear-gradient-5" x1="1.058" y1="0.161" x2="-0.29" y2="0.771" gradientUnits="objectBoundingBox">
      <stop offset="0" stop-color="#55e5fc"/>
      <stop offset="1" stop-color="#ad08d5"/>
    </linearGradient>
  </defs>
  <g id="anmation" transform="translate(-854.37 -854)">
    <g class="cls-39" transform="matrix(1, 0, 0, 1, 854.37, 854)">
      <ellipse id="woo_below_cirlce-2" data-name="woo below cirlce" class="cls-1" cx="47.4" cy="47.4" rx="47.4" ry="47.4" transform="translate(359.32 222.87)"/>
    </g>
    <g class="cls-38" transform="matrix(1, 0, 0, 1, 854.37, 854)">
      <ellipse id="carrat_below_circle-2" data-name="carrat below circle" class="cls-2" cx="69.687" cy="69.687" rx="69.687" ry="69.687" transform="translate(9 159.46)"/>
    </g>
    <g class="cls-37" transform="matrix(1, 0, 0, 1, 854.37, 854)">
      <ellipse id="slack_below_circle-2" data-name="slack below circle" class="cls-3" cx="87.266" cy="87.266" rx="87.266" ry="87.266" transform="translate(85.59 387.36)"/>
    </g>
    <g id="saleforce_with_cirle" data-name="saleforce with cirle" transform="translate(1034.136 951.371)">
      <g class="cls-36" transform="matrix(1, 0, 0, 1, -179.77, -97.37)">
        <path id="saleforce_circle-2" data-name="saleforce circle" class="cls-4" d="M50.509,0A50.509,50.509,0,1,1,0,50.509,50.509,50.509,0,0,1,50.509,0Z" transform="translate(179.77 97.37)"/>
      </g>
      <g id="salesforce-2" transform="translate(12.584 23.843)">
        <path id="saleforce_start_Path_670" data-name="saleforce start Path 670" class="cls-5" d="M32.044,6.287A13.283,13.283,0,0,1,41.656,2.16,13.421,13.421,0,0,1,53.351,9.092a16.161,16.161,0,0,1,6.609-1.4,16.485,16.485,0,0,1,0,32.969,16.218,16.218,0,0,1-3.219-.321,11.946,11.946,0,0,1-15.653,4.916,13.629,13.629,0,0,1-25.336-.617,12.5,12.5,0,0,1-2.6.271A12.81,12.81,0,0,1,6.827,21.049,14.721,14.721,0,0,1,32.044,6.287" transform="translate(-0.5 -0.5)"/>
        <path id="Path_671" data-name="Path 671" class="cls-4" d="M144.987,287.754c-.047.124.017.15.032.172a4.414,4.414,0,0,0,.433.261,4.616,4.616,0,0,0,2.267.53c1.555,0,2.52-.827,2.52-2.158v-.026c0-1.231-1.089-1.678-2.112-2l-.133-.043c-.771-.251-1.436-.466-1.436-.974v-.027c0-.434.389-.754.991-.754a4.483,4.483,0,0,1,1.976.505s.15.1.205-.049c.03-.078.289-.775.316-.851a.145.145,0,0,0-.076-.175,4.41,4.41,0,0,0-2.228-.6h-.155a2.172,2.172,0,0,0-2.417,2.092v.026c0,1.3,1.1,1.72,2.123,2.014l.165.051c.748.23,1.393.428,1.393.955v.026c0,.482-.419.84-1.095.84a3.676,3.676,0,0,1-2-.577c-.109-.064-.173-.11-.257-.161a.123.123,0,0,0-.2.07Zm22.763,0c-.048.124.017.15.032.172a4.422,4.422,0,0,0,.433.261,4.616,4.616,0,0,0,2.267.53c1.555,0,2.52-.827,2.52-2.158v-.026c0-1.231-1.09-1.678-2.112-2l-.133-.043c-.771-.251-1.436-.466-1.436-.974v-.027c0-.434.389-.754.991-.754a4.484,4.484,0,0,1,1.976.505s.15.1.205-.049c.03-.078.289-.775.316-.851a.145.145,0,0,0-.076-.175,4.41,4.41,0,0,0-2.228-.6h-.156a2.172,2.172,0,0,0-2.417,2.092v.026c0,1.3,1.1,1.72,2.123,2.014l.165.051c.748.23,1.394.428,1.394.955v.026c0,.482-.42.84-1.1.84a3.676,3.676,0,0,1-2-.577c-.109-.064-.174-.108-.256-.161a.133.133,0,0,0-.205.07Zm15.54-2.608a3.2,3.2,0,0,1-.417,1.764,1.4,1.4,0,0,1-1.263.617,1.378,1.378,0,0,1-1.258-.617,3.985,3.985,0,0,1,0-3.522,1.384,1.384,0,0,1,1.258-.61,1.4,1.4,0,0,1,1.264.61,3.176,3.176,0,0,1,.416,1.758m1.3-1.4a3.125,3.125,0,0,0-.591-1.127,2.855,2.855,0,0,0-1-.758,3.614,3.614,0,0,0-2.783,0,2.871,2.871,0,0,0-1,.758,3.176,3.176,0,0,0-.591,1.127,5.215,5.215,0,0,0,0,2.79,3.142,3.142,0,0,0,.592,1.127,2.785,2.785,0,0,0,1,.751,3.693,3.693,0,0,0,2.783,0,2.787,2.787,0,0,0,1-.751,3.126,3.126,0,0,0,.591-1.127,5.186,5.186,0,0,0,0-2.79m10.658,3.575a.123.123,0,0,0-.165-.079,2.978,2.978,0,0,1-.6.173,4.7,4.7,0,0,1-.712.051,1.977,1.977,0,0,1-1.485-.556,2.478,2.478,0,0,1-.557-1.774,2.75,2.75,0,0,1,.5-1.709,1.7,1.7,0,0,1,1.44-.634,4.313,4.313,0,0,1,1.371.2s.1.044.151-.09c.113-.315.2-.541.319-.888a.117.117,0,0,0-.08-.152,5.065,5.065,0,0,0-.866-.218,6.5,6.5,0,0,0-.974-.066,3.528,3.528,0,0,0-1.447.279,2.994,2.994,0,0,0-1.045.757,3.22,3.22,0,0,0-.632,1.127,4.489,4.489,0,0,0-.212,1.4,3.736,3.736,0,0,0,.864,2.584,3.284,3.284,0,0,0,2.562.964,5.281,5.281,0,0,0,1.838-.328.118.118,0,0,0,.053-.154Zm2.271-2.9a2.552,2.552,0,0,1,.355-1.037,1.4,1.4,0,0,1,1.256-.637,1.363,1.363,0,0,1,1.231.637,2.171,2.171,0,0,1,.292,1.037h-3.134Zm4.37-.919a2.729,2.729,0,0,0-.563-1.028,2.582,2.582,0,0,0-.834-.636,3.213,3.213,0,0,0-1.259-.255,3.429,3.429,0,0,0-1.45.282,2.886,2.886,0,0,0-1.012.772,3.165,3.165,0,0,0-.6,1.14,4.934,4.934,0,0,0-.193,1.4,4.7,4.7,0,0,0,.2,1.4,2.821,2.821,0,0,0,1.742,1.849,4.423,4.423,0,0,0,1.595.258,4.59,4.59,0,0,0,2.213-.439c.049-.027.1-.074.037-.21l-.287-.8a.126.126,0,0,0-.165-.076,4.242,4.242,0,0,1-1.8.324,1.8,1.8,0,0,1-2.015-1.978l4.394,0a.13.13,0,0,0,.128-.114,4.711,4.711,0,0,0-.131-1.893m-39.557.919a2.568,2.568,0,0,1,.355-1.037,1.4,1.4,0,0,1,1.256-.637,1.366,1.366,0,0,1,1.232.637,2.184,2.184,0,0,1,.29,1.037Zm4.369-.919a2.728,2.728,0,0,0-.561-1.028,2.583,2.583,0,0,0-.834-.636,3.212,3.212,0,0,0-1.259-.255,3.432,3.432,0,0,0-1.45.282,2.886,2.886,0,0,0-1.012.772,3.165,3.165,0,0,0-.595,1.14,4.971,4.971,0,0,0-.193,1.4,4.7,4.7,0,0,0,.2,1.4,2.821,2.821,0,0,0,1.742,1.849,4.422,4.422,0,0,0,1.595.258,4.59,4.59,0,0,0,2.213-.439c.049-.027.1-.074.037-.21l-.286-.8a.127.127,0,0,0-.166-.076,4.24,4.24,0,0,1-1.8.324,1.8,1.8,0,0,1-2.014-1.978l4.394,0a.13.13,0,0,0,.127-.114,4.706,4.706,0,0,0-.132-1.893m-13.866,3.8a.89.89,0,0,1-.254-.26,1.062,1.062,0,0,1-.131-.571.961.961,0,0,1,.392-.851,1.969,1.969,0,0,1,1.274-.317,9.01,9.01,0,0,1,1.192.1v2h0a8.928,8.928,0,0,1-1.187.158,1.975,1.975,0,0,1-1.288-.257m1.748-3.087c-.178-.013-.409-.021-.686-.021a4.165,4.165,0,0,0-1.082.139,2.823,2.823,0,0,0-.918.425,2.05,2.05,0,0,0-.871,1.737,2.3,2.3,0,0,0,.2,1,1.81,1.81,0,0,0,.573.687,2.4,2.4,0,0,0,.9.388,5.249,5.249,0,0,0,1.163.119,7.924,7.924,0,0,0,1.335-.111c.431-.073.96-.18,1.107-.214q.154-.037.308-.079a.138.138,0,0,0,.1-.144l0-4.018a2.459,2.459,0,0,0-.7-1.939,2.989,2.989,0,0,0-2.018-.608,7.234,7.234,0,0,0-1.177.109,4.244,4.244,0,0,0-1.355.495.137.137,0,0,0-.039.175l.311.836a.111.111,0,0,0,.144.071.564.564,0,0,0,.072-.036,4.46,4.46,0,0,1,1.914-.446,1.768,1.768,0,0,1,1.086.284c.24.184.362.461.362,1.046v.186c-.378-.054-.725-.085-.725-.085m35.437-2.264a.118.118,0,0,0-.066-.158,3.812,3.812,0,0,0-.736-.126,2.189,2.189,0,0,0-1.133.182,2,2,0,0,0-.743.547v-.534a.128.128,0,0,0-.126-.134h-1.126a.128.128,0,0,0-.126.134v6.553a.135.135,0,0,0,.134.134h1.154a.134.134,0,0,0,.133-.134v-3.274a3.835,3.835,0,0,1,.146-1.153,1.66,1.66,0,0,1,.384-.647,1.348,1.348,0,0,1,.543-.326,2.115,2.115,0,0,1,.59-.083,2.468,2.468,0,0,1,.483.059c.084.01.132-.042.16-.119.076-.2.289-.8.331-.922" transform="translate(-134.008 -260.24)"/>
        <path id="saleforce_end_Path_672" data-name="saleforce end Path 672" class="cls-4" d="M339.568,244.788a3.77,3.77,0,0,0-.434-.1,3.445,3.445,0,0,0-.6-.045,2.516,2.516,0,0,0-1.86.667,3.631,3.631,0,0,0-.883,1.993l-.054.3h-1a.148.148,0,0,0-.147.127l-.163.915c-.012.086.026.141.142.141h.971l-.985,5.5a6.809,6.809,0,0,1-.264,1.083,2.213,2.213,0,0,1-.307.625.817.817,0,0,1-.4.31,1.635,1.635,0,0,1-.517.075,1.945,1.945,0,0,1-.352-.039,1.041,1.041,0,0,1-.238-.077.122.122,0,0,0-.159.07c-.036.094-.295.805-.326.893a.133.133,0,0,0,.068.176,3.6,3.6,0,0,0,.4.118,2.664,2.664,0,0,0,.644.06,3.222,3.222,0,0,0,1.079-.167,2.037,2.037,0,0,0,.812-.566,2.9,2.9,0,0,0,.57-.984,8.346,8.346,0,0,0,.387-1.475l.99-5.6h1.447a.148.148,0,0,0,.147-.128l.164-.913c.011-.087-.026-.141-.144-.141h-1.4a6.1,6.1,0,0,1,.232-.991,1.3,1.3,0,0,1,.308-.469.923.923,0,0,1,.368-.229,1.527,1.527,0,0,1,.472-.067,1.846,1.846,0,0,1,.361.036c.136.029.189.044.225.055.144.043.163,0,.191-.068l.336-.922a.118.118,0,0,0-.081-.154m-19.628,9.5a.127.127,0,0,1-.126.133h-1.165a.127.127,0,0,1-.125-.133v-9.377a.127.127,0,0,1,.125-.133h1.165a.127.127,0,0,1,.126.133Z" transform="translate(-294.392 -226.114)"/>
      </g>
    </g>
    <g id="woo_with_circle" data-name="woo with circle" transform="translate(1170.999 1041.716)">
      <animateTransform 
         attributeName="transform"
         attributeType= "XML"
         type="translate"
        values="1170.999, 1041.716;1155.999, 1056.716;1170.999, 1041.716;"
         dur = "10s"
         repeatCount="indefinite"
      />
      <g class="cls-35" transform="matrix(1, 0, 0, 1, -316.63, -187.72)">
        <path id="woo_circle-2" data-name="woo circle" class="cls-4" d="M60.192,0A60.192,60.192,0,1,1,0,60.192,60.192,60.192,0,0,1,60.192,0Z" transform="translate(316.63 187.72)"/>
      </g>
      <g id="woocommerce" transform="translate(22.808 38.151)">
        <path id="woo_start_Path_685" data-name="woo start Path 685" class="cls-6" d="M6.9,0H67.451a6.93,6.93,0,0,1,6.934,6.934V30.045a6.93,6.93,0,0,1-6.934,6.934H45.738l2.98,7.3-13.107-7.3H6.934A6.93,6.93,0,0,1,0,30.045V6.934A6.9,6.9,0,0,1,6.9,0Z" transform="translate(0)"/>
        <path id="woo_end_Path_686" data-name="woo end Path 686" class="cls-4" d="M13.307,16.335a2.433,2.433,0,0,1,1.9-.937,2.209,2.209,0,0,1,2.631,2.177q1.406,9.48,3.054,16.056l6.622-12.609a2.871,2.871,0,0,1,2.268-1.814c1.33-.091,2.147.756,2.479,2.54a56.507,56.507,0,0,0,2.873,10.341q1.179-11.52,3.991-16.63a2.323,2.323,0,0,1,2-1.331,2.628,2.628,0,0,1,1.9.6,2.368,2.368,0,0,1,.937,1.724,2.626,2.626,0,0,1-.3,1.451c-1.179,2.177-2.147,5.836-2.933,10.916a56.336,56.336,0,0,0-.847,11.521,3.589,3.589,0,0,1-.363,2,1.949,1.949,0,0,1-1.6,1.088,3.04,3.04,0,0,1-2.389-1.119Q31.314,38,28.85,29.428,25.9,35.233,24.5,38.136c-1.784,3.417-3.3,5.171-4.566,5.262-.816.06-1.512-.635-2.116-2.086Q15.5,35.37,12.824,18.361a2.574,2.574,0,0,1,.483-2.026Zm64.98,4.747a6.964,6.964,0,0,0-4.838-3.508,7.943,7.943,0,0,0-1.633-.181c-2.9,0-5.261,1.512-7.106,4.536a16.02,16.02,0,0,0-2.358,8.527A11.708,11.708,0,0,0,63.8,36.443a6.963,6.963,0,0,0,4.838,3.507,7.921,7.921,0,0,0,1.633.182c2.933,0,5.291-1.512,7.106-4.536a16.2,16.2,0,0,0,2.359-8.557A11.158,11.158,0,0,0,78.288,21.082Zm-3.81,8.376a8,8,0,0,1-2.3,4.475,2.906,2.906,0,0,1-2.449.968c-.726-.151-1.331-.786-1.784-1.965a7.667,7.667,0,0,1-.544-2.752,10.52,10.52,0,0,1,.212-2.207,9.781,9.781,0,0,1,1.6-3.6c1-1.482,2.056-2.086,3.145-1.875.726.151,1.331.786,1.784,1.965a7.673,7.673,0,0,1,.544,2.752,10.613,10.613,0,0,1-.212,2.237ZM59.359,21.082a7.027,7.027,0,0,0-4.838-3.508,7.94,7.94,0,0,0-1.633-.181c-2.9,0-5.261,1.512-7.106,4.536a16.022,16.022,0,0,0-2.358,8.527,11.708,11.708,0,0,0,1.451,5.987,6.963,6.963,0,0,0,4.838,3.507,7.924,7.924,0,0,0,1.633.182c2.933,0,5.291-1.512,7.106-4.536a16.2,16.2,0,0,0,2.358-8.557,11.441,11.441,0,0,0-1.451-5.957Zm-3.84,8.376a8,8,0,0,1-2.3,4.475,2.907,2.907,0,0,1-2.449.968c-.726-.151-1.33-.786-1.784-1.965a7.679,7.679,0,0,1-.544-2.752,10.52,10.52,0,0,1,.212-2.207,9.777,9.777,0,0,1,1.6-3.6c1-1.482,2.056-2.086,3.144-1.875.726.151,1.331.786,1.784,1.965a7.667,7.667,0,0,1,.544,2.752,8.921,8.921,0,0,1-.212,2.237Z" transform="translate(-9.072 -10.015)"/>
      </g>
    </g>
    <g id="shopify_with_circle" data-name="shopify with circle" transform="translate(1034.45 1109.52)">
      <animateTransform 
         attributeName="transform"
         attributeType= "XML"
         type="translate"
        values="1034.45, 1109.52;1034.45,1096.52; 1034.45, 1124.52; 1050.45, 1109.52; 1034.45, 1109.52;"
         dur = "10s"
         repeatCount="indefinite"
      />
      <g class="cls-34" transform="matrix(1, 0, 0, 1, -180.08, -255.52)">
        <path id="shopify_circle-2" data-name="shopify circle" class="cls-4" d="M52.579,0A52.579,52.579,0,1,1,0,52.579,52.579,52.579,0,0,1,52.579,0Z" transform="translate(180.08 255.52)"/>
      </g>
      <g id="shopify" transform="translate(29.364 26.427)">
        <path id="shopify_start_Path_673" data-name="shopify start Path 673" class="cls-7" d="M40.508,11.01a.508.508,0,0,0-.459-.426c-.191-.016-4.23-.315-4.23-.315s-2.8-2.785-3.113-3.093a1.277,1.277,0,0,0-1.143-.146l-1.57.485c-.937-2.7-2.591-5.174-5.5-5.174-.08,0-.163,0-.246.008A3.535,3.535,0,0,0,21.511.779C14.734.779,11.5,9.251,10.481,13.556L5.738,15.027c-1.47.461-1.516.507-1.709,1.892C3.884,17.968.038,47.71.038,47.71l29.968,5.615,16.238-3.513s-5.7-38.538-5.736-38.8ZM28.337,8.027,25.8,8.812c0-.179,0-.355,0-.547A12.438,12.438,0,0,0,25.2,4.17C26.7,4.358,27.695,6.064,28.337,8.027Zm-5-3.524a12.57,12.57,0,0,1,.688,4.565c0,.1,0,.2,0,.294l-5.237,1.622C19.8,7.091,21.685,5.212,23.338,4.5ZM21.325,2.6a1.53,1.53,0,0,1,.869.293c-2.172,1.022-4.5,3.6-5.483,8.736l-4.14,1.282C13.723,8.988,16.457,2.6,21.324,2.6Z" transform="translate(-0.038 -0.779)"/>
        <path id="Path_674" data-name="Path 674" class="cls-8" d="M175.765,38.649c-.191-.016-4.23-.315-4.23-.315s-2.8-2.785-3.113-3.093a.769.769,0,0,0-.433-.2L165.724,81.39l16.236-3.512s-5.7-38.538-5.736-38.8a.508.508,0,0,0-.459-.426" transform="translate(-135.755 -28.844)"/>
        <path id="shopify_end_Path_675" data-name="shopify end Path 675" class="cls-4" d="M56.589,101.032l-2,5.956a9.21,9.21,0,0,0-3.9-.936c-3.152,0-3.311,1.978-3.311,2.477,0,2.72,7.091,3.762,7.091,10.134,0,5.013-3.179,8.241-7.466,8.241a10.387,10.387,0,0,1-7.775-3.2L40.6,119.15s2.7,2.322,4.986,2.322a2.011,2.011,0,0,0,2.1-2.032c0-3.548-5.817-3.706-5.817-9.537,0-4.907,3.522-9.656,10.632-9.656a8.747,8.747,0,0,1,4.093.785" transform="translate(-32.134 -82.255)"/>
      </g>
    </g>
    <g id="slack_with_circle" data-name="slack with circle" transform="translate(927.67 1230.64)">
       <animateTransform 
         attributeName="transform"
         attributeType= "XML"
         type="translate"
        values="927.67,1230.64;945.67,1215.64;927.67,1230.64;"
         dur = "10s"
         repeatCount="indefinite"
      />
      <g class="cls-33" transform="matrix(1, 0, 0, 1, -73.3, -376.64)">
        <path id="slack_circle-2" data-name="slack circle" class="cls-4" d="M62.674,0A62.674,62.674,0,1,1,0,62.674,62.674,62.674,0,0,1,62.674,0Z" transform="translate(73.3 376.64)"/>
      </g>
      <g id="slack" transform="translate(26.202 26.918)">
        <path id="slack_start_Path_677" data-name="slack start Path 677" class="cls-9" d="M7.649,75.4a6.008,6.008,0,0,1-5.855-4.117q-.047-.143-.088-.288A6.3,6.3,0,0,1,5.78,63.3L57.221,46.068a6.972,6.972,0,0,1,1.879-.274A6.164,6.164,0,0,1,65.11,50l.077.249c.962,3.364-1.429,6.366-4.293,7.328L9.738,75.04a6.657,6.657,0,0,1-2.089.356Z" transform="translate(-1.464 -37.158)"/>
        <path id="Path_678" data-name="Path 678" class="cls-10" d="M25,126.413a6,6,0,0,1-5.874-4.059q-.048-.142-.089-.286A6.339,6.339,0,0,1,23.1,114.3L74.547,96.912a6.625,6.625,0,0,1,2.042-.342,6.216,6.216,0,0,1,6,4.167l.079.262a6.509,6.509,0,0,1-.785,5.231,8.626,8.626,0,0,1-3.059,2.155L27.182,126.041a7.085,7.085,0,0,1-2.185.374Z" transform="translate(-10.238 -62.877)"/>
        <path id="Path_679" data-name="Path 679" class="cls-11" d="M93.979,91.94a6.316,6.316,0,0,1-6.048-4.3l-17.168-51-.086-.286A6.324,6.324,0,0,1,82.752,32.6L99.919,83.6l.05.164a6.319,6.319,0,0,1-5.99,8.18Z" transform="translate(-36.397 -28.294)"/>
        <path id="Path_680" data-name="Path 680" class="cls-12" d="M42.267,109.351a6.318,6.318,0,0,1-6.05-4.308L19.053,54.049a6.315,6.315,0,0,1,3.973-8.009,6.4,6.4,0,0,1,1.967-.33,6.315,6.315,0,0,1,6.049,4.3l17.164,51a6.322,6.322,0,0,1-5.941,8.34h0Z" transform="translate(-10.205 -37.115)"/>
        <path id="Path_681" data-name="Path 681" class="cls-13" d="M96.966,117.866l11.971-4.093-3.913-11.621L93.039,106.2Z" transform="translate(-47.848 -65.704)"/>
        <path id="Path_682" data-name="Path 682" class="cls-14" d="M45.3,135.43l11.97-4.092-3.943-11.71L41.35,123.678Z" transform="translate(-21.667 -74.556)"/>
        <path id="salck_Path_683" data-name="salck Path 683" class="cls-15" d="M79.735,66.715l11.972-4.088L87.839,51.142,75.845,55.16Z" transform="translate(-39.139 -39.867)"/>
        <path id="slack_end_Path_684" data-name="slack end Path 684" class="cls-16" d="M28.047,84.195l11.972-4.087L36.1,68.475,24.11,72.493Z" transform="translate(-12.935 -48.646)"/>
      </g>
       
    </g>
    <g id="wordpress_with_circle" data-name="wordpress with circle" transform="translate(1117.635 1240.733)">
      <g class="cls-32" transform="matrix(1, 0, 0, 1, -263.27, -386.73)">
        <path id="wordpress_circle-2" data-name="wordpress circle" class="cls-4" d="M60.868,0A60.868,60.868,0,1,1,0,60.868,60.868,60.868,0,0,1,60.868,0Z" transform="translate(263.27 386.73)"/>
      </g>
      <g id="wordpress-blue" class="cls-17" transform="translate(28.012 28.012)">
        <path id="Path_687" data-name="Path 687" class="cls-18" d="M227.514,42.749H216.063v1.215c3.582,0,4.158.768,4.158,5.309v8.189c0,4.542-.575,5.374-4.158,5.374-2.749-.384-4.606-1.855-7.165-4.671l-2.942-3.2c3.965-.7,6.077-3.2,6.077-6.014,0-3.518-3.006-6.2-8.636-6.2H192.138v1.215c3.582,0,4.158.768,4.158,5.309v8.189c0,4.542-.575,5.374-4.158,5.374v1.215h12.73V62.836c-3.581,0-4.158-.832-4.158-5.374v-2.3H201.8l7.1,8.891h18.616c9.148,0,13.115-4.861,13.115-10.683s-3.967-10.619-13.115-10.619Zm-26.8,10.426V44.668h2.622c2.878,0,4.158,1.983,4.158,4.286a3.9,3.9,0,0,1-4.158,4.222Zm27,8.893h-.448c-2.3,0-2.622-.575-2.622-3.518V44.668h3.071c6.653,0,7.867,4.861,7.867,8.636C235.574,57.206,234.359,62.068,227.706,62.068Zm-71.2-6.525,4.414-13.052c1.28-3.774.7-4.861-3.39-4.861v-1.28h12.026v1.28c-4.029,0-4.989.959-6.588,5.629l-7.293,21.879h-.831l-6.526-20.023-6.652,20.023h-.832l-7.1-21.878c-1.535-4.67-2.559-5.629-6.269-5.629v-1.28h14.2v1.28c-3.775,0-4.8.9-3.455,4.861L142.5,55.544l6.461-19.192h1.216l6.333,19.192Zm21.749,9.339c-7.036,0-12.794-5.181-12.794-11.515,0-6.269,5.758-11.451,12.794-11.451s12.794,5.182,12.794,11.451C191.051,59.7,185.294,64.882,178.257,64.882Zm0-20.982c-5.885,0-7.933,5.308-7.933,9.467,0,4.223,2.048,9.468,7.933,9.468,5.95,0,8-5.245,8-9.468C186.254,49.209,184.207,43.9,178.257,43.9Z" transform="translate(-58.799 -16.769)"/>
        <path id="Path_688" data-name="Path 688" class="cls-19" d="M354.319,62.771V64.05H339.67V62.771c4.286,0,5.054-1.088,5.054-7.486V45.051c0-6.4-.768-7.421-5.054-7.421V36.35h13.242c6.588,0,10.236,3.391,10.236,7.933,0,4.414-3.648,7.868-10.236,7.868h-3.647v3.134C349.265,61.684,350.032,62.771,354.319,62.771Zm-1.408-24.118h-3.647V49.785h3.647c3.582,0,5.245-2.495,5.245-5.5C358.158,41.213,356.495,38.653,352.912,38.653Zm54.183,19.384-.32,1.151c-.575,2.111-1.28,2.879-5.822,2.879h-.9c-3.326,0-3.9-.768-3.9-5.309V53.816c4.99,0,5.374.447,5.374,3.774h1.216V48.057h-1.216c0,3.326-.384,3.774-5.374,3.774V44.667h3.518c4.543,0,5.246.768,5.822,2.879l.321,1.215h1.022l-.447-6.013H387.583v1.215c3.582,0,4.158.768,4.158,5.309v8.189c0,4.155-.489,5.2-3.313,5.351-2.684-.41-4.527-1.874-7.049-4.648l-2.943-3.2c3.966-.7,6.078-3.2,6.078-6.014,0-3.518-3.006-6.2-8.636-6.2H364.619v1.215c3.582,0,4.158.768,4.158,5.309v8.189c0,4.542-.575,5.374-4.158,5.374v1.215h12.73V62.836c-3.581,0-4.158-.832-4.158-5.374v-2.3h1.088l7.1,8.891h26.292l.384-6.012h-.961Zm-33.9-4.863V44.667h2.622c2.879,0,4.159,1.983,4.159,4.286a3.9,3.9,0,0,1-4.159,4.222Zm46.89,11.707a9.457,9.457,0,0,1-5.758-2.175,4.591,4.591,0,0,0-1.023,2.175h-1.216V56.054h1.279c.512,4.222,3.454,6.717,7.229,6.717,2.047,0,3.71-1.152,3.71-3.07,0-1.663-1.471-2.943-4.094-4.158l-3.647-1.727c-2.559-1.216-4.478-3.328-4.478-6.142,0-3.071,2.879-5.693,6.845-5.693a8.011,8.011,0,0,1,4.99,1.663,3.613,3.613,0,0,0,.832-1.728h1.215v7.549h-1.344c-.448-3.007-2.111-5.5-5.5-5.5-1.791,0-3.455,1.023-3.455,2.623,0,1.663,1.343,2.558,4.414,3.965L423.6,52.28c3.071,1.471,4.286,3.839,4.286,5.758C427.885,62.067,424.367,64.882,420.081,64.882Zm19.7,0a9.455,9.455,0,0,1-5.758-2.175A4.591,4.591,0,0,0,433,64.882h-1.216V56.054h1.279c.512,4.222,3.454,6.717,7.229,6.717,2.047,0,3.71-1.152,3.71-3.07,0-1.663-1.471-2.943-4.095-4.158l-3.647-1.727c-2.559-1.216-4.478-3.328-4.478-6.142,0-3.071,2.879-5.693,6.845-5.693a8.013,8.013,0,0,1,4.99,1.663,3.609,3.609,0,0,0,.831-1.728h1.216v7.549h-1.343c-.448-3.007-2.111-5.5-5.5-5.5-1.791,0-3.455,1.023-3.455,2.623,0,1.663,1.343,2.558,4.415,3.965L443.3,52.28c3.071,1.471,4.285,3.839,4.285,5.758C447.587,62.067,444.069,64.882,439.784,64.882Z" transform="translate(-156.691 -16.768)"/>
        <g id="Group_1223" data-name="Group 1223">
          <path id="Path_689" data-name="Path 689" class="cls-18" d="M8.708,37.018A28.316,28.316,0,0,0,24.664,62.5l-13.5-37A28.2,28.2,0,0,0,8.708,37.018Zm47.423-1.429A14.906,14.906,0,0,0,53.8,27.781c-1.435-2.332-2.78-4.307-2.78-6.639a4.9,4.9,0,0,1,4.753-5.025c.126,0,.245.016.367.023a28.305,28.305,0,0,0-42.773,5.329c.664.02,1.291.033,1.822.033,2.961,0,7.545-.359,7.545-.359a1.17,1.17,0,0,1,.182,2.332s-1.534.18-3.241.27L29.982,54.41l6.2-18.581L31.767,23.744c-1.525-.089-2.969-.27-2.969-.27a1.17,1.17,0,0,1,.179-2.332s4.675.359,7.457.359c2.961,0,7.545-.359,7.545-.359a1.17,1.17,0,0,1,.182,2.332s-1.537.18-3.24.27L51.151,54.177l2.823-9.436c1.224-3.916,2.156-6.728,2.156-9.152Z" transform="translate(-4.017 -4.017)"/>
          <path id="Path_690" data-name="Path 690" class="cls-18" d="M54.91,52.105,46.416,76.787a28.318,28.318,0,0,0,17.4-.451,2.4,2.4,0,0,1-.2-.39ZM79.255,36.046a21.727,21.727,0,0,1,.191,2.911A26.706,26.706,0,0,1,77.293,49.1l-8.648,25a28.315,28.315,0,0,0,10.61-38.054Z" transform="translate(-21.412 -16.628)"/>
          <path id="Path_691" data-name="Path 691" class="cls-18" d="M33,0A33,33,0,1,0,66,33,33.039,33.039,0,0,0,33,0Zm0,64.49A31.488,31.488,0,1,1,64.489,33,31.525,31.525,0,0,1,33,64.49Z"/>
        </g>
      </g>
        <animateTransform 
         attributeName="transform"
         attributeType= "XML"
         type="translate"
        values="1117.635, 1240.733; 1135.635, 1225.733; 1117.635, 1240.733;"
         dur = "10s"
         repeatCount="indefinite"
      />
    </g>
    <g id="carrat_with_circle" data-name="carrat with circle" transform="translate(898.126 1040.461)">
      <g class="cls-31" transform="matrix(1, 0, 0, 1, -43.76, -186.46)">
        <path id="carrot_circle-2" data-name="carrot circle" class="cls-4" d="M56.5,0A56.5,56.5,0,1,1,0,56.5,56.5,56.5,0,0,1,56.5,0Z" transform="translate(43.76 186.46)"/>
      </g>
      <g id="carrat_folder" data-name="carrat folder" transform="translate(27.464 43.927) rotate(-25)">
        <g id="Logo" transform="translate(0 0)">
          <path id="Carrot_2_" class="cls-20" d="M28.316,4.167c2.8,2.81,5.084,7.411,3.775,10.146C28.591,21.623,2.472,34.447.254,32.227S10.866,3.881,18.18.379c2.734-1.309,7.336.978,10.148,3.775A.167.167,0,0,1,28.316,4.167Z" transform="translate(0 14.775)"/>
          <path id="Leaves_2_" class="cls-21" d="M17.513,15.855c-.453-1.682-1.613-3.382-3.344-3.583-3.174-.369-8.175,5.243-7.818,6.574s7.425,3.679,10.063,1.783c1.36-.978,1.552-3.091,1.106-4.773ZM7.691.311C10.047.95,12.431,2.574,12.712,5,13.23,9.449,5.363,16.463,3.5,15.962S-1.662,5.553,1,1.852C2.37-.056,5.332-.324,7.693.3c0,0,0,0,0,.009Z" transform="translate(24.642 0)"/>
        </g>
      </g>
         
      <animateTransform 
         attributeName="transform"
         attributeType= "XML"
         type="translate"
        values="898,1040.461;913.126, 1055.461;898,1040.461"
         dur = "10s"
         repeatCount="indefinite"
      />
       <!--   <animateTransform 
         attributeName="transform"
         attributeType= "XML"
         type="rotate"
         from="0 "
         to="360 "
         dur = "2s"
         repeatCount="indefinite"
         /> -->

    </g>
    <ellipse id="right_saleforce" data-name="right saleforce" class="cls-22" cx="15.695" cy="15.695" rx="15.695" ry="15.695" transform="translate(1233.781 970.773)"/>
    <g class="cls-30" transform="matrix(1, 0, 0, 1, 854.37, 854)">
      <ellipse id="bottom_worpress-2" data-name="bottom worpress" class="cls-23" cx="21.66" cy="21.66" rx="21.66" ry="21.66" transform="translate(301.56 549.34)"/>
    </g>
    <g class="cls-29" transform="matrix(1, 0, 0, 1, 854.37, 854)">
      <ellipse id="top_saleforce-2" data-name="top saleforce" class="cls-24" cx="21.66" cy="21.66" rx="21.66" ry="21.66" transform="translate(148.38 37.04)"/>
    </g>
    <g id="top_right_empty_circel" data-name="top right empty circel" class="cls-25" transform="translate(1291.539 854)">
      <ellipse class="cls-27" cx="93.23" cy="93.23" rx="93.23" ry="93.23"/>
      <ellipse class="cls-28" cx="93.23" cy="93.23" rx="78.23" ry="78.23"/>
    </g>
    <ellipse id="right_bottom_wordpres" data-name="right bottom wordpres" class="cls-26" cx="26.996" cy="26.996" rx="26.996" ry="26.996" transform="translate(1321.675 1370.691)"/>
  </g>
</svg>
