<svg xmlns="http://www.w3.org/2000/svg" xmlns:xlink="http://www.w3.org/1999/xlink" width="1366.001" height="811.55" viewBox="0 0 1366.001 811.55">
  <defs>
    <linearGradient id="linear-gradient" x1="-0.018" x2="1.099" y2="1.141" gradientUnits="objectBoundingBox">
      <stop offset="0" stop-color="#53f"/>
      <stop offset="0.669" stop-color="#05d5ff"/>
      <stop offset="1" stop-color="#a6ffcb"/>
    </linearGradient>
  </defs>
  <path id="Subtraction_62" data-name="Subtraction 62" d="M-6780.223-114.45a88.649,88.649,0,0,1-18.141-1.875,89.021,89.021,0,0,1-17.014-5.395,92.227,92.227,0,0,1-15.534-8.575,95.5,95.5,0,0,1-13.688-11.412,98.526,98.526,0,0,1-11.488-13.9,100.932,100.932,0,0,1-8.929-16.055,103.153,103.153,0,0,1-6.011-17.86,106.151,106.151,0,0,1-2.733-19.324l-1.239-25.3V-921.847c1.456-1.44,2.959-2.837,4.471-4.153H-5509v687.072a102.6,102.6,0,0,1-4.75,9.507,100.379,100.379,0,0,1-10.721,15.369,96.926,96.926,0,0,1-13.275,12.93,93.091,93.091,0,0,1-15.468,10.071,89.976,89.976,0,0,1-17.306,6.787,89.589,89.589,0,0,1-18.784,3.082l-1185.883,66.59C-6776.871-114.5-6778.564-114.45-6780.223-114.45Z" transform="translate(6875 926)" fill="url(#linear-gradient)"/>
</svg>
