<svg xmlns="http://www.w3.org/2000/svg" xmlns:xlink="http://www.w3.org/1999/xlink" width="267" height="371" viewBox="0 0 267 371">
  <defs>
    <filter id="Rectangle_2451" x="0" y="0" width="267" height="371" filterUnits="userSpaceOnUse">
      <feOffset dy="3" input="SourceAlpha"/>
      <feGaussianBlur stdDeviation="3" result="blur"/>
      <feFlood flood-opacity="0.161"/>
      <feComposite operator="in" in2="blur"/>
      <feComposite in="SourceGraphic"/>
    </filter>
    <filter id="Ellipse_2993" x="186.069" y="33.039" width="20" height="20" filterUnits="userSpaceOnUse">
      <feOffset dy="3" input="SourceAlpha"/>
      <feGaussianBlur stdDeviation="3" result="blur-2"/>
      <feFlood flood-opacity="0.161"/>
      <feComposite operator="in" in2="blur-2"/>
      <feComposite in="SourceGraphic"/>
    </filter>
    <filter id="Ellipse_3003" x="63.069" y="125.039" width="21" height="21" filterUnits="userSpaceOnUse">
      <feOffset dy="3" input="SourceAlpha"/>
      <feGaussianBlur stdDeviation="3" result="blur-3"/>
      <feFlood flood-opacity="0.161"/>
      <feComposite operator="in" in2="blur-3"/>
      <feComposite in="SourceGraphic"/>
    </filter>
    <filter id="Ellipse_2998" x="173.069" y="135.039" width="23" height="23" filterUnits="userSpaceOnUse">
      <feOffset dy="3" input="SourceAlpha"/>
      <feGaussianBlur stdDeviation="3" result="blur-4"/>
      <feFlood flood-opacity="0.161"/>
      <feComposite operator="in" in2="blur-4"/>
      <feComposite in="SourceGraphic"/>
    </filter>
    <linearGradient id="linear-gradient" x1="0.941" y1="0.271" x2="0.057" y2="0.771" gradientUnits="objectBoundingBox">
      <stop offset="0" stop-color="#ff6f00"/>
      <stop offset="1" stop-color="#ffb829"/>
    </linearGradient>
    <filter id="Ellipse_2987" x="197.831" y="103.28" width="23" height="23" filterUnits="userSpaceOnUse">
      <feOffset dy="3" input="SourceAlpha"/>
      <feGaussianBlur stdDeviation="3" result="blur-5"/>
      <feFlood flood-opacity="0.161"/>
      <feComposite operator="in" in2="blur-5"/>
      <feComposite in="SourceGraphic"/>
    </filter>
    <filter id="Ellipse_2999" x="78.831" y="42.28" width="21" height="21" filterUnits="userSpaceOnUse">
      <feOffset dy="3" input="SourceAlpha"/>
      <feGaussianBlur stdDeviation="3" result="blur-6"/>
      <feFlood flood-opacity="0.161"/>
      <feComposite operator="in" in2="blur-6"/>
      <feComposite in="SourceGraphic"/>
    </filter>
    <linearGradient id="linear-gradient-3" x1="1.276" y1="-0.167" x2="0" y2="1" gradientUnits="objectBoundingBox">
      <stop offset="0" stop-color="#f905f5"/>
      <stop offset="1" stop-color="#17c9f2"/>
    </linearGradient>
    <filter id="Ellipse_2986" x="20.532" y="37.785" width="22" height="22" filterUnits="userSpaceOnUse">
      <feOffset dy="3" input="SourceAlpha"/>
      <feGaussianBlur stdDeviation="3" result="blur-7"/>
      <feFlood flood-opacity="0.161"/>
      <feComposite operator="in" in2="blur-7"/>
      <feComposite in="SourceGraphic"/>
    </filter>
    <filter id="Ellipse_2988" x="58.069" y="85.039" width="20" height="20" filterUnits="userSpaceOnUse">
      <feOffset dy="3" input="SourceAlpha"/>
      <feGaussianBlur stdDeviation="3" result="blur-8"/>
      <feFlood flood-opacity="0.161"/>
      <feComposite operator="in" in2="blur-8"/>
      <feComposite in="SourceGraphic"/>
    </filter>
    <filter id="Ellipse_2996" x="38.069" y="64.039" width="23" height="23" filterUnits="userSpaceOnUse">
      <feOffset dy="3" input="SourceAlpha"/>
      <feGaussianBlur stdDeviation="3" result="blur-9"/>
      <feFlood flood-opacity="0.161"/>
      <feComposite operator="in" in2="blur-9"/>
      <feComposite in="SourceGraphic"/>
    </filter>
    <filter id="Ellipse_2997" x="215.069" y="140.039" width="21" height="21" filterUnits="userSpaceOnUse">
      <feOffset dy="3" input="SourceAlpha"/>
      <feGaussianBlur stdDeviation="3" result="blur-10"/>
      <feFlood flood-opacity="0.161"/>
      <feComposite operator="in" in2="blur-10"/>
      <feComposite in="SourceGraphic"/>
    </filter>
    <filter id="Ellipse_2994" x="217.069" y="62.039" width="22" height="22" filterUnits="userSpaceOnUse">
      <feOffset dy="3" input="SourceAlpha"/>
      <feGaussianBlur stdDeviation="3" result="blur-11"/>
      <feFlood flood-opacity="0.161"/>
      <feComposite operator="in" in2="blur-11"/>
      <feComposite in="SourceGraphic"/>
    </filter>
    <filter id="Ellipse_3001" x="152.069" y="38.039" width="22" height="22" filterUnits="userSpaceOnUse">
      <feOffset dy="3" input="SourceAlpha"/>
      <feGaussianBlur stdDeviation="3" result="blur-12"/>
      <feFlood flood-opacity="0.161"/>
      <feComposite operator="in" in2="blur-12"/>
      <feComposite in="SourceGraphic"/>
    </filter>
    <linearGradient id="linear-gradient-5" x1="1.122" y1="-0.085" x2="-0.271" y2="1.09" gradientUnits="objectBoundingBox">
      <stop offset="0" stop-color="#66a6ff"/>
      <stop offset="1" stop-color="#89f7fe"/>
    </linearGradient>
  </defs>
  <g id="Group_1892" data-name="Group 1892" transform="translate(-4820 -640)">
    <g transform="matrix(1, 0, 0, 1, 4820, 640)" filter="url(#Rectangle_2451)">
      <rect id="Rectangle_2451-2" data-name="Rectangle 2451" width="249" height="353" rx="30" transform="translate(9 6)" fill="#fff"/>
    </g>
    <g transform="matrix(1, 0, 0, 1, 4820, 640)" filter="url(#Ellipse_2993)">
      <circle id="Ellipse_2993-2" data-name="Ellipse 2993" cx="1" cy="1" r="1" transform="translate(195.07 39.04)" fill="#17c9f2" opacity="0.58"/>
    </g>
    <g transform="matrix(1, 0, 0, 1, 4820, 640)" filter="url(#Ellipse_3003)">
      <circle id="Ellipse_3003-2" data-name="Ellipse 3003" cx="1.5" cy="1.5" r="1.5" transform="translate(72.07 131.04)" fill="#17c9f2" opacity="0.58"/>
    </g>
    <g transform="matrix(1, 0, 0, 1, 4820, 640)" filter="url(#Ellipse_2998)">
      <circle id="Ellipse_2998-2" data-name="Ellipse 2998" cx="2.5" cy="2.5" r="2.5" transform="translate(182.07 141.04)" fill="#17c9f2" opacity="0.58"/>
    </g>
    <g transform="matrix(1, 0, 0, 1, 4820, 640)" filter="url(#Ellipse_2987)">
      <circle id="Ellipse_2987-2" data-name="Ellipse 2987" cx="2.5" cy="2.5" r="2.5" transform="translate(206.83 109.28)" opacity="0.64" fill="url(#linear-gradient)"/>
    </g>
    <g transform="matrix(1, 0, 0, 1, 4820, 640)" filter="url(#Ellipse_2999)">
      <circle id="Ellipse_2999-2" data-name="Ellipse 2999" cx="1.5" cy="1.5" r="1.5" transform="translate(87.83 48.28)" opacity="0.64" fill="url(#linear-gradient)"/>
    </g>
    <circle id="Ellipse_3002" data-name="Ellipse 3002" cx="1.5" cy="1.5" r="1.5" transform="translate(5015.686 721.425)" fill="url(#linear-gradient-3)"/>
    <circle id="Ellipse_2991" data-name="Ellipse 2991" cx="2.5" cy="2.5" r="2.5" transform="translate(4861.686 754.425)" fill="url(#linear-gradient-3)"/>
    <g transform="matrix(1, 0, 0, 1, 4820, 640)" filter="url(#Ellipse_2986)">
      <circle id="Ellipse_2986-2" data-name="Ellipse 2986" cx="2" cy="2" r="2" transform="translate(29.53 43.79)" fill="#17c9f2" opacity="0.58"/>
    </g>
    <g transform="matrix(1, 0, 0, 1, 4820, 640)" filter="url(#Ellipse_2988)">
      <circle id="Ellipse_2988-2" data-name="Ellipse 2988" cx="1" cy="1" r="1" transform="translate(67.07 91.04)" fill="#f905f5" opacity="0.58"/>
    </g>
    <g transform="matrix(1, 0, 0, 1, 4820, 640)" filter="url(#Ellipse_2996)">
      <circle id="Ellipse_2996-2" data-name="Ellipse 2996" cx="2.5" cy="2.5" r="2.5" transform="translate(47.07 70.04)" fill="#f90505" opacity="0.58"/>
    </g>
    <g transform="matrix(1, 0, 0, 1, 4820, 640)" filter="url(#Ellipse_2997)">
      <circle id="Ellipse_2997-2" data-name="Ellipse 2997" cx="1.5" cy="1.5" r="1.5" transform="translate(224.07 146.04)" fill="#f90505" opacity="0.58"/>
    </g>
    <g transform="matrix(1, 0, 0, 1, 4820, 640)" filter="url(#Ellipse_2994)">
      <circle id="Ellipse_2994-2" data-name="Ellipse 2994" cx="2" cy="2" r="2" transform="translate(226.07 68.04)" fill="#f905f5" opacity="0.58"/>
    </g>
    <g transform="matrix(1, 0, 0, 1, 4820, 640)" filter="url(#Ellipse_3001)">
      <circle id="Ellipse_3001-2" data-name="Ellipse 3001" cx="2" cy="2" r="2" transform="translate(161.07 44.04)" fill="#f905f5" opacity="0.58"/>
    </g>
    <circle id="Ellipse_2735" data-name="Ellipse 2735" cx="42.926" cy="42.926" r="42.926" transform="translate(4910 698.039)" fill="url(#linear-gradient-5)"/>
    <g id="Group_1880" data-name="Group 1880" transform="translate(4828 -136)">
      <text id="World_Payments_offer_you_ease_of_access_and_smarter_use_of_card_machines_for_secure_transactions_in_your_business." data-name="World Payments offer you ease of access and smarter use of card machines for secure transactions 
in your business." transform="translate(24 1011)" fill="#2e2e2e" font-size="12" font-family="Raleway-Regular, Raleway"><tspan x="10.18" y="11">World Payments offer you ease of </tspan><tspan x="17.362" y="27">access and smarter use of card </tspan><tspan x="12.352" y="43">machines for secure transactions </tspan><tspan x="58.102" y="59">in your business.</tspan></text>
    </g>
    <text id="Card_Machines" data-name="Card Machines" transform="translate(4878 832.464)" fill="#2e2e2e" font-size="20" font-family="Poppins-Medium, Poppins" font-weight="500"><tspan x="0" y="0">Card Machines</tspan></text>
    <g id="Group_1881" data-name="Group 1881" transform="translate(4820.512 -56)">
      <text id="Learn_More_--_" data-name="Learn More --&gt;" transform="translate(131.489 1026)" fill="#2e2e2e" font-size="12" font-family="Raleway-Medium, Raleway" font-weight="500"><tspan x="-41.772" y="0">Learn More --&gt;</tspan></text>
    </g>
    <g id="Group_1882" data-name="Group 1882" transform="translate(4856 387)">
      <line id="Line_14" data-name="Line 14" x2="33" transform="translate(36 466)" fill="none" stroke="#17c9f2" stroke-width="3"/>
      <line id="Line_41" data-name="Line 41" x2="33" transform="translate(81 466)" fill="none" stroke="#17c9f2" stroke-width="3"/>
      <line id="Line_42" data-name="Line 42" x2="33" transform="translate(126 466)" fill="none" stroke="#17c9f2" stroke-width="3"/>
    </g>
    <g id="credit-card-and-machine" transform="translate(4930 671.107)">
      <g id="Group_1273" data-name="Group 1273" transform="translate(0 53.673)">
        <g id="Group_1270" data-name="Group 1270" transform="translate(1.729 6.578)">
          <path id="Path_961" data-name="Path 961" d="M27.27,117.776a1.387,1.387,0,0,0-1.3.817l-9.094,29.433c-.139.45.215.817.79.817H34.716l9.6-31.067H27.27Zm-.49,27.7H23.438l3.033-9.814h3.341Z" transform="translate(-16.848 -117.775)" fill="#fff"/>
        </g>
        <g id="Group_1271" data-name="Group 1271">
          <path id="Path_962" data-name="Path 962" d="M0,53.673v9.534H7.622L8.68,59.783a3.315,3.315,0,0,1,3.1-1.955H39.623c1.376,0,2.225.877,1.893,1.955l-1.059,3.424h8.205V53.673Z" transform="translate(0 -53.673)" fill="#fff"/>
        </g>
        <g id="Group_1272" data-name="Group 1272" transform="translate(23.356 6.579)">
          <path id="Path_963" data-name="Path 963" d="M241.983,117.783h-4.8l-9.6,31.066h4.8a1.383,1.383,0,0,0,1.295-.817l9.1-29.434C242.912,118.149,242.558,117.783,241.983,117.783Z" transform="translate(-227.583 -117.783)" fill="#fff"/>
        </g>
      </g>
    </g>
  </g>
</svg>
