<svg xmlns="http://www.w3.org/2000/svg" width="301" height="105" viewBox="0 0 301 105">
  <g id="Group_1930" data-name="Group 1930" transform="translate(-10 -755)">
    <text id="PCI_Level_Environment" data-name="PCI Level Environment" transform="translate(197 776)" fill="#585858" font-size="20" font-family="Poppins-Regular, Poppins"><tspan x="-108.77" y="0">PCI Level Environment</tspan></text>
    <text id="Accept_process_and_transmit_cardholder_data_securely_with_our_robust_PCI_environment" data-name="Accept, process and transmit
cardholder data securely with 
our robust PCI environment" transform="translate(88 806)" fill="#707070" font-size="16" font-family="Raleway-Regular, Raleway"><tspan x="0" y="0">Accept, process and transmit</tspan><tspan x="0" y="25">cardholder data securely with </tspan><tspan x="0" y="50">our robust PCI environment</tspan></text>
    <g id="Group_1906" data-name="Group 1906" transform="translate(-755 -1650)">
      <path id="Path_804" data-name="Path 804" d="M34,0A34,34,0,1,1,0,34,34,34,0,0,1,34,0Z" transform="translate(765 2405)" fill="rgba(169,2,255,0.24)"/>
      <g id="surface1" transform="translate(784.737 2421.642)">
        <path id="Path_2025" data-name="Path 2025" d="M29.225,9.322V9.3c-.015-.33-.025-.679-.031-1.068A3.642,3.642,0,0,0,25.764,4.66,14.131,14.131,0,0,1,16.147.606L16.124.585a2.2,2.2,0,0,0-2.988,0l-.022.021A14.132,14.132,0,0,1,3.5,4.66,3.641,3.641,0,0,0,.067,8.228C.061,8.613.051,8.963.036,9.3l0,.062c-.077,4.028-.172,9.042,1.5,13.592a17.3,17.3,0,0,0,4.151,6.466,21.715,21.715,0,0,0,8.123,4.8,2.516,2.516,0,0,0,.333.091,2.459,2.459,0,0,0,.967,0,2.524,2.524,0,0,0,.334-.091,21.729,21.729,0,0,0,8.115-4.807,17.327,17.327,0,0,0,4.151-6.467C29.4,18.381,29.3,13.358,29.225,9.322Zm-3.4,12.926c-1.769,4.8-5.38,8.09-11.039,10.069a.506.506,0,0,1-.064.017.452.452,0,0,1-.177,0,.5.5,0,0,1-.063-.017C8.812,30.341,5.2,27.049,3.431,22.253,1.886,18.058,1.973,13.456,2.05,9.4V9.373c.016-.349.026-.714.032-1.116A1.619,1.619,0,0,1,3.608,6.673a17.689,17.689,0,0,0,6-1.321,15.708,15.708,0,0,0,4.893-3.287.186.186,0,0,1,.25,0,15.714,15.714,0,0,0,4.893,3.287,17.69,17.69,0,0,0,6,1.321,1.618,1.618,0,0,1,1.525,1.584c.006.4.017.769.032,1.116C27.287,13.438,27.372,18.044,25.822,22.247Zm0,0" transform="translate(0 0)" fill="#a902ff"/>
        <path id="Path_2026" data-name="Path 2026" d="M98.961,128.41a8.563,8.563,0,1,0,8.563,8.563A8.573,8.573,0,0,0,98.961,128.41Zm0,15.11a6.547,6.547,0,1,1,6.547-6.547A6.554,6.554,0,0,1,98.961,143.52Zm0,0" transform="translate(-84.332 -119.793)" fill="#a902ff"/>
        <path id="Path_2027" data-name="Path 2027" d="M160.45,212.287l-3.977,3.977-1.08-1.08a1.008,1.008,0,1,0-1.426,1.426l1.793,1.793a1.008,1.008,0,0,0,1.426,0l4.69-4.69a1.008,1.008,0,0,0-1.426-1.426Zm0,0" transform="translate(-143.36 -197.765)" fill="#a902ff"/>
      </g>
    </g>
  </g>
</svg>
