<svg xmlns="http://www.w3.org/2000/svg" width="299.71" height="101.16" viewBox="0 0 299.71 101.16">
  <g id="Group_1942" data-name="Group 1942" transform="translate(-34 -2848)">
    <path id="Path_2049" data-name="Path 2049" d="M-106.53-7.5v-4.54h2.52c1.78,0,2.58.84,2.58,2.28,0,1.4-.8,2.26-2.58,2.26Zm7.44-2.26c0-2.26-1.62-4.14-4.92-4.14h-4.8V0h2.28V-5.64h2.52C-100.39-5.64-99.09-7.78-99.09-9.76Zm1.42,2.78a6.941,6.941,0,0,0,7.1,7.1,6.609,6.609,0,0,0,6.46-4.16h-2.74a3.884,3.884,0,0,1-3.72,2.18c-2.76,0-4.76-1.98-4.76-5.12s2-5.1,4.76-5.1A3.884,3.884,0,0,1-86.85-9.9h2.74a6.626,6.626,0,0,0-6.46-4.18A6.953,6.953,0,0,0-97.67-6.98ZM-81.45,0h2.28V-13.9h-2.28Zm10.48-13.9V0h6.98V-1.84h-4.7V-13.9Zm13.52,4.62A2.862,2.862,0,0,1-54.37-6.5h-6.1A3,3,0,0,1-57.45-9.28Zm5.16,6h-2.46a2.668,2.668,0,0,1-2.6,1.54,3.031,3.031,0,0,1-3.14-2.92h8.42a7.033,7.033,0,0,0,.08-1.12,5.139,5.139,0,0,0-5.36-5.42c-3.26,0-5.5,2.22-5.5,5.68a5.346,5.346,0,0,0,5.5,5.7A5.035,5.035,0,0,0-52.29-3.28Zm1.24-7.74L-46.87,0h2.72l4.2-11.02h-2.42l-3.12,8.98-3.12-8.98Zm17.46,1.74A2.862,2.862,0,0,1-30.51-6.5h-6.1A3,3,0,0,1-33.59-9.28Zm5.16,6h-2.46a2.668,2.668,0,0,1-2.6,1.54,3.031,3.031,0,0,1-3.14-2.92h8.42a7.033,7.033,0,0,0,.08-1.12,5.139,5.139,0,0,0-5.36-5.42c-3.26,0-5.5,2.22-5.5,5.68a5.346,5.346,0,0,0,5.5,5.7A5.035,5.035,0,0,0-28.43-3.28ZM-25.89,0h2.28V-14.8h-2.28ZM-7.73-13.92h-7.68V0h7.68V-1.86h-5.4V-6.12h4.8V-7.98h-4.8v-4.08h5.4ZM2.89,0H5.15V-6.5c0-3.08-1.94-4.7-4.52-4.7A4.239,4.239,0,0,0-2.65-9.76v-1.26H-4.93V0h2.28V-6.16c0-2.02,1.1-3.06,2.78-3.06,1.66,0,2.76,1.04,2.76,3.06ZM6.75-11.02,10.93,0h2.72l4.2-11.02H15.43L12.31-2.04,9.19-11.02ZM19.57,0h2.28V-11.02H19.57Zm1.16-12.48a1.439,1.439,0,0,0,1.44-1.46,1.439,1.439,0,0,0-1.44-1.46,1.443,1.443,0,0,0-1.46,1.46A1.443,1.443,0,0,0,20.73-12.48Zm6.4,6.68c0-2.34,1.04-3.04,2.72-3.04h.58V-11.2a3.59,3.59,0,0,0-3.3,1.78v-1.6H24.85V0h2.28Zm15.9.28a5.435,5.435,0,0,0-5.62-5.68,5.435,5.435,0,0,0-5.62,5.68A5.373,5.373,0,0,0,37.31.18,5.52,5.52,0,0,0,43.03-5.52Zm-8.92,0c0-2.5,1.54-3.7,3.26-3.7,1.7,0,3.32,1.2,3.32,3.7A3.394,3.394,0,0,1,37.31-1.8C35.59-1.8,34.11-3.02,34.11-5.52ZM53.11,0h2.26V-6.5c0-3.08-1.94-4.7-4.52-4.7a4.239,4.239,0,0,0-3.28,1.44v-1.26H45.29V0h2.28V-6.16c0-2.02,1.1-3.06,2.78-3.06,1.66,0,2.76,1.04,2.76,3.06ZM73.89,0h2.26V-6.5a4.306,4.306,0,0,0-4.54-4.7,4.315,4.315,0,0,0-3.84,2.18,4.251,4.251,0,0,0-3.96-2.18,4.2,4.2,0,0,0-3.26,1.44v-1.26H58.27V0h2.28V-6.16c0-2.02,1.1-3.06,2.78-3.06,1.66,0,2.76,1.04,2.76,3.06V0h2.26V-6.16c0-2.02,1.1-3.06,2.78-3.06,1.66,0,2.76,1.04,2.76,3.06Zm9.8-9.28A2.862,2.862,0,0,1,86.77-6.5h-6.1A3,3,0,0,1,83.69-9.28Zm5.16,6H86.39a2.668,2.668,0,0,1-2.6,1.54,3.031,3.031,0,0,1-3.14-2.92h8.42a7.034,7.034,0,0,0,.08-1.12,5.139,5.139,0,0,0-5.36-5.42c-3.26,0-5.5,2.22-5.5,5.68a5.346,5.346,0,0,0,5.5,5.7A5.035,5.035,0,0,0,88.85-3.28ZM99.21,0h2.26V-6.5c0-3.08-1.94-4.7-4.52-4.7a4.239,4.239,0,0,0-3.28,1.44v-1.26H91.39V0h2.28V-6.16c0-2.02,1.1-3.06,2.78-3.06,1.66,0,2.76,1.04,2.76,3.06Zm5.52-3.06c0,2.24,1.22,3.06,3.18,3.06h1.8V-1.9h-1.4c-.96,0-1.28-.34-1.28-1.16v-6.1h2.68v-1.86h-2.68v-2.74h-2.3v2.74h-1.3v1.86h1.3Z" transform="translate(224 2869)" fill="#585858"/>
    <path id="Path_2050" data-name="Path 2050" d="M4.944-11.36h.944L10.608,0H9.424L7.952-3.552h-5.1L1.392,0H.192ZM7.7-4.432,5.408-10.048,3.088-4.432Zm3.52.24a4.562,4.562,0,0,1,.3-1.664,4.155,4.155,0,0,1,.856-1.368,4,4,0,0,1,1.32-.92,4.186,4.186,0,0,1,1.7-.336,3.889,3.889,0,0,1,2.064.536A3.443,3.443,0,0,1,18.784-6.5l-1.056.336a2.535,2.535,0,0,0-.984-1,2.779,2.779,0,0,0-1.4-.36,2.8,2.8,0,0,0-1.192.256,3.04,3.04,0,0,0-.96.7,3.2,3.2,0,0,0-.64,1.048,3.7,3.7,0,0,0-.232,1.328,3.667,3.667,0,0,0,.24,1.328,3.388,3.388,0,0,0,.656,1.08,3.123,3.123,0,0,0,.968.72A2.691,2.691,0,0,0,15.36-.8a2.87,2.87,0,0,0,.792-.112,3.059,3.059,0,0,0,.728-.312,2.618,2.618,0,0,0,.576-.456,1.483,1.483,0,0,0,.336-.544l1.072.32a2.727,2.727,0,0,1-.512.824,3.532,3.532,0,0,1-.792.656,3.886,3.886,0,0,1-1.008.432A4.289,4.289,0,0,1,15.408.16a4.063,4.063,0,0,1-1.68-.344A4.073,4.073,0,0,1,12.4-1.128a4.383,4.383,0,0,1-.872-1.384A4.5,4.5,0,0,1,11.216-4.192Zm8.7,0a4.562,4.562,0,0,1,.3-1.664,4.155,4.155,0,0,1,.856-1.368,4,4,0,0,1,1.32-.92,4.186,4.186,0,0,1,1.7-.336,3.889,3.889,0,0,1,2.064.536A3.443,3.443,0,0,1,27.488-6.5l-1.056.336a2.535,2.535,0,0,0-.984-1,2.779,2.779,0,0,0-1.4-.36,2.8,2.8,0,0,0-1.192.256,3.04,3.04,0,0,0-.96.7,3.2,3.2,0,0,0-.64,1.048,3.7,3.7,0,0,0-.232,1.328,3.667,3.667,0,0,0,.24,1.328,3.388,3.388,0,0,0,.656,1.08,3.123,3.123,0,0,0,.968.72A2.691,2.691,0,0,0,24.064-.8a2.87,2.87,0,0,0,.792-.112,3.059,3.059,0,0,0,.728-.312,2.618,2.618,0,0,0,.576-.456,1.483,1.483,0,0,0,.336-.544l1.072.32a2.727,2.727,0,0,1-.512.824,3.532,3.532,0,0,1-.792.656,3.886,3.886,0,0,1-1.008.432A4.289,4.289,0,0,1,24.112.16a4.063,4.063,0,0,1-1.68-.344A4.073,4.073,0,0,1,21.1-1.128a4.383,4.383,0,0,1-.872-1.384A4.5,4.5,0,0,1,19.92-4.192ZM32.8.16a4.008,4.008,0,0,1-1.672-.344,4.1,4.1,0,0,1-1.32-.944,4.383,4.383,0,0,1-.872-1.384,4.5,4.5,0,0,1-.312-1.68,4.4,4.4,0,0,1,.312-1.656,4.286,4.286,0,0,1,.864-1.36,4.1,4.1,0,0,1,1.32-.928,4.024,4.024,0,0,1,1.664-.344,4.008,4.008,0,0,1,1.672.344,3.975,3.975,0,0,1,1.3.936,4.365,4.365,0,0,1,.848,1.36,4.393,4.393,0,0,1,.3,1.632v.256a.644.644,0,0,1-.016.176H29.76a3.509,3.509,0,0,0,.312,1.24,3.408,3.408,0,0,0,.68.984A3.047,3.047,0,0,0,31.7-.9a2.849,2.849,0,0,0,1.144.232,2.955,2.955,0,0,0,.8-.112,3.234,3.234,0,0,0,.736-.3,2.737,2.737,0,0,0,.608-.472,2.027,2.027,0,0,0,.416-.616l.944.256a2.772,2.772,0,0,1-.544.84,3.8,3.8,0,0,1-.816.656,4,4,0,0,1-1.024.432A4.439,4.439,0,0,1,32.8.16Zm3.072-4.768a3.367,3.367,0,0,0-.312-1.224,3.332,3.332,0,0,0-.672-.952,2.972,2.972,0,0,0-.944-.624A2.937,2.937,0,0,0,32.8-7.632a3,3,0,0,0-1.152.224,2.949,2.949,0,0,0-.952.624,3.067,3.067,0,0,0-.656.96,3.634,3.634,0,0,0-.3,1.216ZM42.848.16a3.294,3.294,0,0,1-1.864-.536,4.263,4.263,0,0,1-1.3-1.352V3.408H38.592V-8.336h.976V-6.72A4.04,4.04,0,0,1,40.9-7.992a3.4,3.4,0,0,1,1.776-.488,3.492,3.492,0,0,1,1.584.36,4.072,4.072,0,0,1,1.248.96,4.456,4.456,0,0,1,.824,1.384,4.539,4.539,0,0,1,.3,1.616A5.041,5.041,0,0,1,46.352-2.5a4.246,4.246,0,0,1-.776,1.376,3.732,3.732,0,0,1-1.2.936A3.4,3.4,0,0,1,42.848.16Zm-.3-.96a2.606,2.606,0,0,0,1.224-.288,3.044,3.044,0,0,0,.944-.76,3.41,3.41,0,0,0,.6-1.072,3.759,3.759,0,0,0,.208-1.24,3.455,3.455,0,0,0-.24-1.28,3.533,3.533,0,0,0-.656-1.072,3.115,3.115,0,0,0-.984-.736,2.8,2.8,0,0,0-1.224-.272,2.521,2.521,0,0,0-.872.168A3.583,3.583,0,0,0,40.7-6.9a3.019,3.019,0,0,0-.672.656,1.767,1.767,0,0,0-.344.792V-2.9a3.826,3.826,0,0,0,.488.832,3.443,3.443,0,0,0,.672.664,3.219,3.219,0,0,0,.808.44A2.559,2.559,0,0,0,42.544-.8Zm9.808.4q-.1.048-.28.128t-.424.16A4.963,4.963,0,0,1,51.1.032a3.1,3.1,0,0,1-.64.064,2.326,2.326,0,0,1-.672-.1,1.567,1.567,0,0,1-.56-.3,1.457,1.457,0,0,1-.384-.5,1.627,1.627,0,0,1-.144-.7V-7.472H47.552v-.864H48.7v-2.816h1.088v2.816h1.92v.864h-1.92v5.664a.864.864,0,0,0,.328.68,1.124,1.124,0,0,0,.68.216,2.043,2.043,0,0,0,.816-.152,3.6,3.6,0,0,0,.448-.216Zm1.536,1.7L54.16-.048h-.368v-1.52h1.056v1.52l-.4,1.344ZM65.648.16a3.294,3.294,0,0,1-1.864-.536,4.263,4.263,0,0,1-1.3-1.352V3.408H61.392V-8.336h.976V-6.72A4.04,4.04,0,0,1,63.7-7.992a3.4,3.4,0,0,1,1.776-.488,3.492,3.492,0,0,1,1.584.36,4.072,4.072,0,0,1,1.248.96,4.456,4.456,0,0,1,.824,1.384,4.539,4.539,0,0,1,.3,1.616A5.041,5.041,0,0,1,69.152-2.5a4.246,4.246,0,0,1-.776,1.376,3.732,3.732,0,0,1-1.2.936A3.4,3.4,0,0,1,65.648.16Zm-.3-.96a2.606,2.606,0,0,0,1.224-.288,3.044,3.044,0,0,0,.944-.76,3.41,3.41,0,0,0,.6-1.072,3.759,3.759,0,0,0,.208-1.24,3.455,3.455,0,0,0-.24-1.28,3.533,3.533,0,0,0-.656-1.072,3.115,3.115,0,0,0-.984-.736,2.8,2.8,0,0,0-1.224-.272,2.521,2.521,0,0,0-.872.168A3.583,3.583,0,0,0,63.5-6.9a3.019,3.019,0,0,0-.672.656,1.767,1.767,0,0,0-.344.792V-2.9a3.825,3.825,0,0,0,.488.832,3.443,3.443,0,0,0,.672.664,3.219,3.219,0,0,0,.808.44A2.559,2.559,0,0,0,65.344-.8Zm10.08-6.576a3.422,3.422,0,0,0-1.92.608,3.066,3.066,0,0,0-1.152,1.584V0H71.264V-8.336h1.024v2a3.792,3.792,0,0,1,1.248-1.5,2.893,2.893,0,0,1,1.68-.544,1.1,1.1,0,0,1,.208.016ZM80.016.16a3.953,3.953,0,0,1-1.664-.344,4.09,4.09,0,0,1-1.3-.936A4.247,4.247,0,0,1,76.192-2.5a4.518,4.518,0,0,1-.3-1.648A4.458,4.458,0,0,1,76.2-5.808a4.36,4.36,0,0,1,.864-1.376,4.2,4.2,0,0,1,1.3-.944,3.839,3.839,0,0,1,1.648-.352,3.892,3.892,0,0,1,1.656.352,4.169,4.169,0,0,1,1.312.944,4.36,4.36,0,0,1,.864,1.376,4.458,4.458,0,0,1,.312,1.664,4.518,4.518,0,0,1-.3,1.648A4.247,4.247,0,0,1,83-1.12a4.065,4.065,0,0,1-1.312.936A4.008,4.008,0,0,1,80.016.16ZM76.992-4.128a3.479,3.479,0,0,0,.24,1.3,3.539,3.539,0,0,0,.648,1.056,2.929,2.929,0,0,0,.96.712A2.761,2.761,0,0,0,80.016-.8a2.691,2.691,0,0,0,1.176-.264,3.123,3.123,0,0,0,.968-.72,3.431,3.431,0,0,0,.656-1.064,3.541,3.541,0,0,0,.24-1.312,3.56,3.56,0,0,0-.24-1.3,3.408,3.408,0,0,0-.656-1.072,3.123,3.123,0,0,0-.968-.72,2.691,2.691,0,0,0-1.176-.264,2.64,2.64,0,0,0-1.168.264,3.1,3.1,0,0,0-.96.728,3.509,3.509,0,0,0-.656,1.08A3.6,3.6,0,0,0,76.992-4.128Zm8.416-.064a4.562,4.562,0,0,1,.3-1.664,4.155,4.155,0,0,1,.856-1.368,4,4,0,0,1,1.32-.92,4.186,4.186,0,0,1,1.7-.336,3.889,3.889,0,0,1,2.064.536A3.443,3.443,0,0,1,92.976-6.5L91.92-6.16a2.535,2.535,0,0,0-.984-1,2.779,2.779,0,0,0-1.4-.36,2.8,2.8,0,0,0-1.192.256,3.04,3.04,0,0,0-.96.7,3.2,3.2,0,0,0-.64,1.048,3.7,3.7,0,0,0-.232,1.328,3.667,3.667,0,0,0,.24,1.328,3.388,3.388,0,0,0,.656,1.08,3.123,3.123,0,0,0,.968.72A2.691,2.691,0,0,0,89.552-.8a2.87,2.87,0,0,0,.792-.112,3.06,3.06,0,0,0,.728-.312,2.618,2.618,0,0,0,.576-.456,1.482,1.482,0,0,0,.336-.544l1.072.32a2.727,2.727,0,0,1-.512.824,3.532,3.532,0,0,1-.792.656,3.886,3.886,0,0,1-1.008.432A4.289,4.289,0,0,1,89.6.16a4.063,4.063,0,0,1-1.68-.344,4.073,4.073,0,0,1-1.328-.944,4.384,4.384,0,0,1-.872-1.384A4.5,4.5,0,0,1,85.408-4.192ZM98.288.16a4.008,4.008,0,0,1-1.672-.344,4.1,4.1,0,0,1-1.32-.944,4.384,4.384,0,0,1-.872-1.384,4.5,4.5,0,0,1-.312-1.68,4.4,4.4,0,0,1,.312-1.656,4.286,4.286,0,0,1,.864-1.36,4.1,4.1,0,0,1,1.32-.928,4.024,4.024,0,0,1,1.664-.344,4.008,4.008,0,0,1,1.672.344,3.975,3.975,0,0,1,1.3.936,4.365,4.365,0,0,1,.848,1.36,4.393,4.393,0,0,1,.3,1.632v.256a.644.644,0,0,1-.016.176H95.248a3.509,3.509,0,0,0,.312,1.24,3.408,3.408,0,0,0,.68.984,3.047,3.047,0,0,0,.952.648,2.849,2.849,0,0,0,1.144.232,2.955,2.955,0,0,0,.8-.112,3.234,3.234,0,0,0,.736-.3,2.737,2.737,0,0,0,.608-.472,2.027,2.027,0,0,0,.416-.616l.944.256a2.772,2.772,0,0,1-.544.84,3.8,3.8,0,0,1-.816.656,4,4,0,0,1-1.024.432A4.439,4.439,0,0,1,98.288.16Zm3.072-4.768a3.367,3.367,0,0,0-.312-1.224,3.332,3.332,0,0,0-.672-.952,2.972,2.972,0,0,0-.944-.624,2.937,2.937,0,0,0-1.144-.224,3,3,0,0,0-1.152.224,2.949,2.949,0,0,0-.952.624,3.067,3.067,0,0,0-.656.96,3.634,3.634,0,0,0-.3,1.216ZM106.848.16a5.8,5.8,0,0,1-1.9-.32,4.576,4.576,0,0,1-1.6-.928l.5-.736a5.425,5.425,0,0,0,1.432.864,4.2,4.2,0,0,0,1.56.288,2.816,2.816,0,0,0,1.608-.408,1.32,1.32,0,0,0,.6-1.16,1,1,0,0,0-.16-.584,1.385,1.385,0,0,0-.472-.408,3.685,3.685,0,0,0-.784-.312q-.472-.136-1.1-.28-.72-.176-1.248-.352a3.817,3.817,0,0,1-.872-.4,1.443,1.443,0,0,1-.512-.552,1.8,1.8,0,0,1-.168-.824,2.371,2.371,0,0,1,.248-1.1,2.251,2.251,0,0,1,.672-.792,3.053,3.053,0,0,1,.992-.472,4.437,4.437,0,0,1,1.208-.16,4.679,4.679,0,0,1,1.744.312,3.447,3.447,0,0,1,1.264.824l-.528.64a2.927,2.927,0,0,0-1.128-.72,4.04,4.04,0,0,0-1.384-.24,3.436,3.436,0,0,0-.8.088,1.926,1.926,0,0,0-.648.28,1.38,1.38,0,0,0-.44.488,1.442,1.442,0,0,0-.16.7,1.146,1.146,0,0,0,.112.544.956.956,0,0,0,.368.36,3,3,0,0,0,.648.272q.392.12.952.248.8.192,1.408.384a4.422,4.422,0,0,1,1.016.448,1.765,1.765,0,0,1,.616.624,1.8,1.8,0,0,1,.208.9,2.173,2.173,0,0,1-.88,1.824A3.807,3.807,0,0,1,106.848.16Zm7.792,0a5.8,5.8,0,0,1-1.9-.32,4.576,4.576,0,0,1-1.6-.928l.5-.736a5.425,5.425,0,0,0,1.432.864,4.2,4.2,0,0,0,1.56.288,2.816,2.816,0,0,0,1.608-.408,1.32,1.32,0,0,0,.6-1.16,1,1,0,0,0-.16-.584,1.385,1.385,0,0,0-.472-.408,3.685,3.685,0,0,0-.784-.312q-.472-.136-1.1-.28-.72-.176-1.248-.352a3.817,3.817,0,0,1-.872-.4,1.443,1.443,0,0,1-.512-.552,1.8,1.8,0,0,1-.168-.824,2.371,2.371,0,0,1,.248-1.1,2.251,2.251,0,0,1,.672-.792,3.053,3.053,0,0,1,.992-.472,4.437,4.437,0,0,1,1.208-.16,4.679,4.679,0,0,1,1.744.312,3.447,3.447,0,0,1,1.264.824l-.528.64a2.927,2.927,0,0,0-1.128-.72,4.04,4.04,0,0,0-1.384-.24,3.436,3.436,0,0,0-.8.088,1.926,1.926,0,0,0-.648.28,1.38,1.38,0,0,0-.44.488,1.442,1.442,0,0,0-.16.7,1.146,1.146,0,0,0,.112.544.956.956,0,0,0,.368.36,3,3,0,0,0,.648.272q.392.12.952.248.8.192,1.408.384a4.422,4.422,0,0,1,1.016.448,1.765,1.765,0,0,1,.616.624,1.8,1.8,0,0,1,.208.9,2.173,2.173,0,0,1-.88,1.824A3.807,3.807,0,0,1,114.64.16Zm11.2,0a2.945,2.945,0,0,1-1.1-.2,2.766,2.766,0,0,1-.88-.552,2.5,2.5,0,0,1-.584-.824,2.491,2.491,0,0,1-.208-1.016,2.053,2.053,0,0,1,.256-1.008,2.44,2.44,0,0,1,.72-.8,3.525,3.525,0,0,1,1.1-.52,5.084,5.084,0,0,1,1.408-.184,7.69,7.69,0,0,1,1.3.112,5.617,5.617,0,0,1,1.168.32v-.752a2.42,2.42,0,0,0-.624-1.752,2.286,2.286,0,0,0-1.728-.648,3.672,3.672,0,0,0-1.312.256,6.327,6.327,0,0,0-1.36.736l-.384-.72a5.629,5.629,0,0,1,3.136-1.088,3.365,3.365,0,0,1,2.464.88,3.253,3.253,0,0,1,.9,2.432v3.76q0,.448.4.448V0a2.593,2.593,0,0,1-.416.048.937.937,0,0,1-.648-.208.783.783,0,0,1-.248-.576l-.032-.656A3.781,3.781,0,0,1,127.72-.24,4.455,4.455,0,0,1,125.84.16Zm.256-.832a3.762,3.762,0,0,0,1.56-.32,2.548,2.548,0,0,0,1.08-.848,1,1,0,0,0,.216-.312.8.8,0,0,0,.072-.312v-1.36a6.669,6.669,0,0,0-1.128-.32,6.315,6.315,0,0,0-1.192-.112,3.316,3.316,0,0,0-1.872.48,1.459,1.459,0,0,0-.72,1.264,1.726,1.726,0,0,0,.152.72,1.824,1.824,0,0,0,.416.584,1.948,1.948,0,0,0,.632.392A2.132,2.132,0,0,0,126.1-.672ZM139.472,0h-1.088V-4.656a4.062,4.062,0,0,0-.44-2.16,1.5,1.5,0,0,0-1.352-.672,2.772,2.772,0,0,0-.96.176,3.237,3.237,0,0,0-.888.5,3.8,3.8,0,0,0-.728.76,2.979,2.979,0,0,0-.464.952V0h-1.088V-8.336h.992v1.888A3.916,3.916,0,0,1,134.92-7.92a4.014,4.014,0,0,1,2.072-.56,2.454,2.454,0,0,1,1.168.256,1.993,1.993,0,0,1,.768.72,3.317,3.317,0,0,1,.416,1.136,7.976,7.976,0,0,1,.128,1.488Zm5.744.16a3.592,3.592,0,0,1-1.6-.36,4.071,4.071,0,0,1-1.264-.952,4.378,4.378,0,0,1-.824-1.368,4.518,4.518,0,0,1-.3-1.624,4.854,4.854,0,0,1,.288-1.672,4.467,4.467,0,0,1,.792-1.384,3.731,3.731,0,0,1,1.2-.936,3.4,3.4,0,0,1,1.528-.344,3.262,3.262,0,0,1,1.872.552,4.178,4.178,0,0,1,1.28,1.336V-11.68h1.088V-1.408q0,.448.384.448V0a2.065,2.065,0,0,1-.384.048,1,1,0,0,1-.672-.248.765.765,0,0,1-.288-.6v-.816a3.646,3.646,0,0,1-1.344,1.3A3.526,3.526,0,0,1,145.216.16Zm.24-.96a2.592,2.592,0,0,0,.856-.16,3.517,3.517,0,0,0,.856-.44,2.947,2.947,0,0,0,.68-.656,1.775,1.775,0,0,0,.344-.808V-5.44a2.86,2.86,0,0,0-.464-.808,3.734,3.734,0,0,0-.7-.664,3.271,3.271,0,0,0-.84-.448,2.606,2.606,0,0,0-.88-.16,2.558,2.558,0,0,0-1.216.288,3.076,3.076,0,0,0-.936.76,3.391,3.391,0,0,0-.6,1.08,3.83,3.83,0,0,0-.208,1.248,3.454,3.454,0,0,0,.24,1.28,3.431,3.431,0,0,0,.656,1.064,3.173,3.173,0,0,0,.984.728A2.8,2.8,0,0,0,145.456-.8Zm14.368.4q-.1.048-.28.128t-.424.16a4.963,4.963,0,0,1-.544.144,3.1,3.1,0,0,1-.64.064,2.326,2.326,0,0,1-.672-.1,1.567,1.567,0,0,1-.56-.3,1.457,1.457,0,0,1-.384-.5,1.627,1.627,0,0,1-.144-.7V-7.472h-1.152v-.864h1.152v-2.816h1.088v2.816h1.92v.864h-1.92v5.664a.864.864,0,0,0,.328.68,1.124,1.124,0,0,0,.68.216,2.043,2.043,0,0,0,.816-.152,3.6,3.6,0,0,0,.448-.216Zm5.52-6.976a3.422,3.422,0,0,0-1.92.608,3.066,3.066,0,0,0-1.152,1.584V0h-1.088V-8.336h1.024v2a3.792,3.792,0,0,1,1.248-1.5,2.892,2.892,0,0,1,1.68-.544,1.1,1.1,0,0,1,.208.016ZM168.784.16a2.945,2.945,0,0,1-1.1-.2,2.766,2.766,0,0,1-.88-.552,2.5,2.5,0,0,1-.584-.824,2.491,2.491,0,0,1-.208-1.016,2.053,2.053,0,0,1,.256-1.008,2.44,2.44,0,0,1,.72-.8,3.525,3.525,0,0,1,1.1-.52,5.084,5.084,0,0,1,1.408-.184,7.69,7.69,0,0,1,1.3.112,5.617,5.617,0,0,1,1.168.32v-.752a2.42,2.42,0,0,0-.624-1.752,2.286,2.286,0,0,0-1.728-.648,3.672,3.672,0,0,0-1.312.256,6.327,6.327,0,0,0-1.36.736l-.384-.72A5.629,5.629,0,0,1,169.7-8.48a3.365,3.365,0,0,1,2.464.88,3.253,3.253,0,0,1,.9,2.432v3.76q0,.448.4.448V0a2.594,2.594,0,0,1-.416.048.937.937,0,0,1-.648-.208.782.782,0,0,1-.248-.576l-.032-.656A3.781,3.781,0,0,1,170.664-.24,4.455,4.455,0,0,1,168.784.16Zm.256-.832a3.762,3.762,0,0,0,1.56-.32,2.548,2.548,0,0,0,1.08-.848,1,1,0,0,0,.216-.312.8.8,0,0,0,.072-.312v-1.36a6.669,6.669,0,0,0-1.128-.32,6.315,6.315,0,0,0-1.192-.112,3.316,3.316,0,0,0-1.872.48,1.459,1.459,0,0,0-.72,1.264,1.726,1.726,0,0,0,.152.72,1.824,1.824,0,0,0,.416.584,1.948,1.948,0,0,0,.632.392A2.132,2.132,0,0,0,169.04-.672ZM182.416,0h-1.088V-4.656a4.062,4.062,0,0,0-.44-2.16,1.5,1.5,0,0,0-1.352-.672,2.772,2.772,0,0,0-.96.176,3.237,3.237,0,0,0-.888.5,3.8,3.8,0,0,0-.728.76,2.979,2.979,0,0,0-.464.952V0h-1.088V-8.336h.992v1.888a3.916,3.916,0,0,1,1.464-1.472,4.014,4.014,0,0,1,2.072-.56,2.454,2.454,0,0,1,1.168.256,1.993,1.993,0,0,1,.768.72,3.317,3.317,0,0,1,.416,1.136,7.976,7.976,0,0,1,.128,1.488ZM187.5.16a5.8,5.8,0,0,1-1.9-.32,4.576,4.576,0,0,1-1.6-.928l.5-.736a5.424,5.424,0,0,0,1.432.864,4.2,4.2,0,0,0,1.56.288A2.816,2.816,0,0,0,189.1-1.08a1.32,1.32,0,0,0,.6-1.16,1,1,0,0,0-.16-.584,1.385,1.385,0,0,0-.472-.408,3.685,3.685,0,0,0-.784-.312q-.472-.136-1.1-.28-.72-.176-1.248-.352a3.816,3.816,0,0,1-.872-.4,1.443,1.443,0,0,1-.512-.552,1.8,1.8,0,0,1-.168-.824,2.371,2.371,0,0,1,.248-1.1,2.251,2.251,0,0,1,.672-.792,3.053,3.053,0,0,1,.992-.472,4.437,4.437,0,0,1,1.208-.16,4.679,4.679,0,0,1,1.744.312,3.447,3.447,0,0,1,1.264.824l-.528.64a2.927,2.927,0,0,0-1.128-.72,4.04,4.04,0,0,0-1.384-.24,3.436,3.436,0,0,0-.8.088,1.926,1.926,0,0,0-.648.28,1.379,1.379,0,0,0-.44.488,1.442,1.442,0,0,0-.16.7,1.146,1.146,0,0,0,.112.544.956.956,0,0,0,.368.36,3,3,0,0,0,.648.272q.392.12.952.248.8.192,1.408.384a4.423,4.423,0,0,1,1.016.448,1.765,1.765,0,0,1,.616.624,1.8,1.8,0,0,1,.208.9,2.173,2.173,0,0,1-.88,1.824A3.807,3.807,0,0,1,187.5.16ZM204.928,0H203.84V-4.656a3.9,3.9,0,0,0-.464-2.144A1.552,1.552,0,0,0,202-7.488a2.334,2.334,0,0,0-.9.176,2.779,2.779,0,0,0-.784.5,3.4,3.4,0,0,0-.632.76,3.661,3.661,0,0,0-.416.968V0h-1.088V-4.656a4,4,0,0,0-.448-2.16,1.539,1.539,0,0,0-1.376-.672,2.454,2.454,0,0,0-1.68.656A3.653,3.653,0,0,0,193.616-5.1V0h-1.088V-8.336h.992v1.888a3.941,3.941,0,0,1,1.344-1.5,3.328,3.328,0,0,1,1.84-.536,2.369,2.369,0,0,1,1.688.592,2.577,2.577,0,0,1,.776,1.552,3.562,3.562,0,0,1,3.216-2.144,2.541,2.541,0,0,1,1.192.256,2.017,2.017,0,0,1,.784.728,3.41,3.41,0,0,1,.432,1.136,7.4,7.4,0,0,1,.136,1.48Zm2.3,0V-8.336h1.088V0Zm0-10.08v-1.6h1.088v1.6ZM214.72-.4q-.1.048-.28.128t-.424.16a4.963,4.963,0,0,1-.544.144,3.1,3.1,0,0,1-.64.064,2.326,2.326,0,0,1-.672-.1,1.567,1.567,0,0,1-.56-.3,1.457,1.457,0,0,1-.384-.5,1.627,1.627,0,0,1-.144-.7V-7.472H209.92v-.864h1.152v-2.816h1.088v2.816h1.92v.864h-1.92v5.664a.864.864,0,0,0,.328.68,1.124,1.124,0,0,0,.68.216,2.043,2.043,0,0,0,.816-.152,3.6,3.6,0,0,0,.448-.216ZM.624,20.808a4.562,4.562,0,0,1,.3-1.664,4.155,4.155,0,0,1,.856-1.368,4,4,0,0,1,1.32-.92,4.186,4.186,0,0,1,1.7-.336,3.889,3.889,0,0,1,2.064.536A3.443,3.443,0,0,1,8.192,18.5l-1.056.336a2.535,2.535,0,0,0-.984-1,2.779,2.779,0,0,0-1.4-.36,2.8,2.8,0,0,0-1.192.256,3.04,3.04,0,0,0-.96.7,3.2,3.2,0,0,0-.64,1.048,3.854,3.854,0,0,0,.008,2.656,3.388,3.388,0,0,0,.656,1.08,3.123,3.123,0,0,0,.968.72,2.691,2.691,0,0,0,1.176.264,2.87,2.87,0,0,0,.792-.112,3.059,3.059,0,0,0,.728-.312,2.618,2.618,0,0,0,.576-.456,1.483,1.483,0,0,0,.336-.544l1.072.32a2.727,2.727,0,0,1-.512.824,3.532,3.532,0,0,1-.792.656,3.886,3.886,0,0,1-1.008.432,4.289,4.289,0,0,1-1.144.152,4.049,4.049,0,0,1-3.008-1.288,4.383,4.383,0,0,1-.872-1.384A4.5,4.5,0,0,1,.624,20.808ZM12.08,25.16a2.945,2.945,0,0,1-1.1-.2,2.766,2.766,0,0,1-.88-.552,2.486,2.486,0,0,1-.792-1.84,2.053,2.053,0,0,1,.256-1.008,2.44,2.44,0,0,1,.72-.8,3.525,3.525,0,0,1,1.1-.52,5.083,5.083,0,0,1,1.408-.184,7.69,7.69,0,0,1,1.3.112,5.617,5.617,0,0,1,1.168.32v-.752a2.42,2.42,0,0,0-.624-1.752,2.286,2.286,0,0,0-1.728-.648,3.672,3.672,0,0,0-1.312.256,6.327,6.327,0,0,0-1.36.736l-.384-.72a5.629,5.629,0,0,1,3.136-1.088,3.365,3.365,0,0,1,2.464.88,3.253,3.253,0,0,1,.9,2.432v3.76q0,.448.4.448V25a2.594,2.594,0,0,1-.416.048.937.937,0,0,1-.648-.208.783.783,0,0,1-.248-.576l-.032-.656A3.781,3.781,0,0,1,13.96,24.76,4.455,4.455,0,0,1,12.08,25.16Zm.256-.832a3.762,3.762,0,0,0,1.56-.32,2.548,2.548,0,0,0,1.08-.848,1,1,0,0,0,.216-.312.8.8,0,0,0,.072-.312v-1.36a6.669,6.669,0,0,0-1.128-.32,6.314,6.314,0,0,0-1.192-.112,3.316,3.316,0,0,0-1.872.48,1.459,1.459,0,0,0-.72,1.264,1.726,1.726,0,0,0,.152.72,1.824,1.824,0,0,0,.416.584,1.948,1.948,0,0,0,.632.392A2.132,2.132,0,0,0,12.336,24.328Zm10.528-6.7a3.422,3.422,0,0,0-1.92.608,3.066,3.066,0,0,0-1.152,1.584V25H18.7V16.664h1.024v2a3.792,3.792,0,0,1,1.248-1.5,2.893,2.893,0,0,1,1.68-.544,1.1,1.1,0,0,1,.208.016Zm4.464,7.536a3.592,3.592,0,0,1-1.6-.36,4.071,4.071,0,0,1-1.264-.952,4.378,4.378,0,0,1-.824-1.368,4.518,4.518,0,0,1-.3-1.624,4.854,4.854,0,0,1,.288-1.672,4.467,4.467,0,0,1,.792-1.384,3.732,3.732,0,0,1,1.2-.936,3.4,3.4,0,0,1,1.528-.344,3.262,3.262,0,0,1,1.872.552,4.178,4.178,0,0,1,1.28,1.336V13.32h1.088V23.592q0,.448.384.448V25a2.065,2.065,0,0,1-.384.048,1,1,0,0,1-.672-.248.765.765,0,0,1-.288-.6v-.816a3.646,3.646,0,0,1-1.344,1.3A3.526,3.526,0,0,1,27.328,25.16Zm.24-.96a2.592,2.592,0,0,0,.856-.16,3.517,3.517,0,0,0,.856-.44,2.948,2.948,0,0,0,.68-.656,1.774,1.774,0,0,0,.344-.808V19.56a2.86,2.86,0,0,0-.464-.808,3.734,3.734,0,0,0-.7-.664,3.271,3.271,0,0,0-.84-.448,2.606,2.606,0,0,0-.88-.16,2.558,2.558,0,0,0-1.216.288,3.075,3.075,0,0,0-.936.76,3.392,3.392,0,0,0-.6,1.08,3.83,3.83,0,0,0-.208,1.248,3.5,3.5,0,0,0,.9,2.344,3.173,3.173,0,0,0,.984.728A2.8,2.8,0,0,0,27.568,24.2Zm13.3.8H39.776V20.344a3.757,3.757,0,0,0-.488-2.128,1.631,1.631,0,0,0-1.432-.7,2.441,2.441,0,0,0-.92.184,3.406,3.406,0,0,0-.856.5,3.463,3.463,0,0,0-.7.752,3.183,3.183,0,0,0-.44.944V25H33.856V13.32h1.088v5.232a3.779,3.779,0,0,1,1.376-1.488,3.555,3.555,0,0,1,1.9-.544,2.562,2.562,0,0,1,1.216.264,2.251,2.251,0,0,1,.816.736,3.22,3.22,0,0,1,.464,1.136,6.916,6.916,0,0,1,.144,1.464Zm5.872.16a3.953,3.953,0,0,1-1.664-.344,4.09,4.09,0,0,1-1.3-.936,4.247,4.247,0,0,1-.856-1.376,4.518,4.518,0,0,1-.3-1.648,4.458,4.458,0,0,1,.312-1.664,4.36,4.36,0,0,1,.864-1.376,4.2,4.2,0,0,1,1.3-.944,3.839,3.839,0,0,1,1.648-.352,3.892,3.892,0,0,1,1.656.352,4.169,4.169,0,0,1,1.312.944,4.36,4.36,0,0,1,.864,1.376,4.458,4.458,0,0,1,.312,1.664,4.518,4.518,0,0,1-.3,1.648,4.247,4.247,0,0,1-.856,1.376,4.065,4.065,0,0,1-1.312.936A4.008,4.008,0,0,1,46.736,25.16Zm-3.024-4.288a3.479,3.479,0,0,0,.24,1.3,3.539,3.539,0,0,0,.648,1.056,2.929,2.929,0,0,0,.96.712,2.761,2.761,0,0,0,1.176.256,2.691,2.691,0,0,0,1.176-.264,3.123,3.123,0,0,0,.968-.72,3.431,3.431,0,0,0,.656-1.064,3.684,3.684,0,0,0,0-2.616,3.408,3.408,0,0,0-.656-1.072,3.123,3.123,0,0,0-.968-.72,2.691,2.691,0,0,0-1.176-.264,2.64,2.64,0,0,0-1.168.264,3.1,3.1,0,0,0-.96.728,3.509,3.509,0,0,0-.656,1.08A3.6,3.6,0,0,0,43.712,20.872Zm9.04-7.552H53.84v9.792a1,1,0,0,0,.256.728.956.956,0,0,0,.72.264,2.163,2.163,0,0,0,.416-.048,2.747,2.747,0,0,0,.448-.128l.192.88a3.591,3.591,0,0,1-.744.208,4.336,4.336,0,0,1-.76.08,1.617,1.617,0,0,1-1.184-.424,1.594,1.594,0,0,1-.432-1.192ZM60.48,25.16a3.592,3.592,0,0,1-1.6-.36,4.071,4.071,0,0,1-1.264-.952,4.378,4.378,0,0,1-.824-1.368,4.518,4.518,0,0,1-.3-1.624,4.854,4.854,0,0,1,.288-1.672,4.467,4.467,0,0,1,.792-1.384,3.732,3.732,0,0,1,1.2-.936A3.4,3.4,0,0,1,60.3,16.52a3.262,3.262,0,0,1,1.872.552,4.178,4.178,0,0,1,1.28,1.336V13.32h1.088V23.592q0,.448.384.448V25a2.065,2.065,0,0,1-.384.048,1,1,0,0,1-.672-.248.765.765,0,0,1-.288-.6v-.816a3.646,3.646,0,0,1-1.344,1.3A3.526,3.526,0,0,1,60.48,25.16Zm.24-.96a2.592,2.592,0,0,0,.856-.16,3.517,3.517,0,0,0,.856-.44,2.948,2.948,0,0,0,.68-.656,1.774,1.774,0,0,0,.344-.808V19.56a2.86,2.86,0,0,0-.464-.808,3.734,3.734,0,0,0-.7-.664,3.271,3.271,0,0,0-.84-.448,2.606,2.606,0,0,0-.88-.16,2.558,2.558,0,0,0-1.216.288,3.075,3.075,0,0,0-.936.76,3.392,3.392,0,0,0-.6,1.08,3.83,3.83,0,0,0-.208,1.248,3.5,3.5,0,0,0,.9,2.344,3.173,3.173,0,0,0,.984.728A2.8,2.8,0,0,0,60.72,24.2Zm9.888.96a4.008,4.008,0,0,1-1.672-.344,4.1,4.1,0,0,1-1.32-.944,4.384,4.384,0,0,1-.872-1.384,4.5,4.5,0,0,1-.312-1.68,4.4,4.4,0,0,1,.312-1.656,4.286,4.286,0,0,1,.864-1.36,4.1,4.1,0,0,1,1.32-.928,4.216,4.216,0,0,1,3.336,0,3.975,3.975,0,0,1,1.3.936,4.395,4.395,0,0,1,1.152,2.992v.256a.644.644,0,0,1-.016.176H67.568a3.509,3.509,0,0,0,.312,1.24,3.408,3.408,0,0,0,.68.984,3.047,3.047,0,0,0,.952.648,2.849,2.849,0,0,0,1.144.232,2.955,2.955,0,0,0,.8-.112,3.234,3.234,0,0,0,.736-.3,2.737,2.737,0,0,0,.608-.472,2.027,2.027,0,0,0,.416-.616l.944.256a2.772,2.772,0,0,1-.544.84,3.8,3.8,0,0,1-.816.656,4,4,0,0,1-1.024.432A4.439,4.439,0,0,1,70.608,25.16Zm3.072-4.768a3.367,3.367,0,0,0-.312-1.224,3.332,3.332,0,0,0-.672-.952,2.972,2.972,0,0,0-.944-.624,2.937,2.937,0,0,0-1.144-.224,3,3,0,0,0-1.152.224,2.949,2.949,0,0,0-.952.624,3.067,3.067,0,0,0-.656.96,3.634,3.634,0,0,0-.3,1.216Zm6.88-2.768a3.422,3.422,0,0,0-1.92.608,3.066,3.066,0,0,0-1.152,1.584V25H76.4V16.664h1.024v2a3.792,3.792,0,0,1,1.248-1.5,2.893,2.893,0,0,1,1.68-.544,1.1,1.1,0,0,1,.208.016Zm8.576,7.536a3.592,3.592,0,0,1-1.6-.36,4.071,4.071,0,0,1-1.264-.952,4.378,4.378,0,0,1-.824-1.368,4.518,4.518,0,0,1-.3-1.624,4.854,4.854,0,0,1,.288-1.672,4.467,4.467,0,0,1,.792-1.384,3.732,3.732,0,0,1,1.2-.936,3.4,3.4,0,0,1,1.528-.344,3.262,3.262,0,0,1,1.872.552,4.178,4.178,0,0,1,1.28,1.336V13.32H93.2V23.592q0,.448.384.448V25a2.065,2.065,0,0,1-.384.048,1,1,0,0,1-.672-.248.765.765,0,0,1-.288-.6v-.816a3.646,3.646,0,0,1-1.344,1.3A3.526,3.526,0,0,1,89.136,25.16Zm.24-.96a2.592,2.592,0,0,0,.856-.16,3.517,3.517,0,0,0,.856-.44,2.948,2.948,0,0,0,.68-.656,1.774,1.774,0,0,0,.344-.808V19.56a2.86,2.86,0,0,0-.464-.808,3.734,3.734,0,0,0-.7-.664,3.27,3.27,0,0,0-.84-.448,2.606,2.606,0,0,0-.88-.16,2.558,2.558,0,0,0-1.216.288,3.075,3.075,0,0,0-.936.76,3.392,3.392,0,0,0-.6,1.08,3.83,3.83,0,0,0-.208,1.248,3.5,3.5,0,0,0,.9,2.344,3.173,3.173,0,0,0,.984.728A2.8,2.8,0,0,0,89.376,24.2Zm8.384.96a2.945,2.945,0,0,1-1.1-.2,2.766,2.766,0,0,1-.88-.552,2.486,2.486,0,0,1-.792-1.84,2.053,2.053,0,0,1,.256-1.008,2.44,2.44,0,0,1,.72-.8,3.525,3.525,0,0,1,1.1-.52,5.083,5.083,0,0,1,1.408-.184,7.69,7.69,0,0,1,1.3.112,5.617,5.617,0,0,1,1.168.32v-.752a2.42,2.42,0,0,0-.624-1.752,2.286,2.286,0,0,0-1.728-.648,3.672,3.672,0,0,0-1.312.256,6.327,6.327,0,0,0-1.36.736l-.384-.72a5.629,5.629,0,0,1,3.136-1.088,3.365,3.365,0,0,1,2.464.88,3.253,3.253,0,0,1,.9,2.432v3.76q0,.448.4.448V25a2.594,2.594,0,0,1-.416.048.937.937,0,0,1-.648-.208.783.783,0,0,1-.248-.576l-.032-.656A3.781,3.781,0,0,1,99.64,24.76,4.455,4.455,0,0,1,97.76,25.16Zm.256-.832a3.762,3.762,0,0,0,1.56-.32,2.548,2.548,0,0,0,1.08-.848,1,1,0,0,0,.216-.312.8.8,0,0,0,.072-.312v-1.36a6.669,6.669,0,0,0-1.128-.32,6.314,6.314,0,0,0-1.192-.112,3.316,3.316,0,0,0-1.872.48,1.459,1.459,0,0,0-.72,1.264,1.726,1.726,0,0,0,.152.72,1.824,1.824,0,0,0,.416.584,1.948,1.948,0,0,0,.632.392A2.132,2.132,0,0,0,98.016,24.328Zm10.3.272q-.1.048-.28.128t-.424.16a4.963,4.963,0,0,1-.544.144,3.1,3.1,0,0,1-.64.064,2.326,2.326,0,0,1-.672-.1,1.567,1.567,0,0,1-.56-.3,1.457,1.457,0,0,1-.384-.5,1.627,1.627,0,0,1-.144-.7V17.528H103.52v-.864h1.152V13.848h1.088v2.816h1.92v.864h-1.92v5.664a.864.864,0,0,0,.328.68,1.124,1.124,0,0,0,.68.216,2.043,2.043,0,0,0,.816-.152,3.6,3.6,0,0,0,.448-.216Zm3.456.56a2.945,2.945,0,0,1-1.1-.2,2.766,2.766,0,0,1-.88-.552,2.486,2.486,0,0,1-.792-1.84,2.053,2.053,0,0,1,.256-1.008,2.44,2.44,0,0,1,.72-.8,3.525,3.525,0,0,1,1.1-.52,5.083,5.083,0,0,1,1.408-.184,7.69,7.69,0,0,1,1.3.112,5.617,5.617,0,0,1,1.168.32v-.752a2.42,2.42,0,0,0-.624-1.752,2.286,2.286,0,0,0-1.728-.648,3.672,3.672,0,0,0-1.312.256,6.327,6.327,0,0,0-1.36.736l-.384-.72a5.629,5.629,0,0,1,3.136-1.088,3.365,3.365,0,0,1,2.464.88,3.253,3.253,0,0,1,.9,2.432v3.76q0,.448.4.448V25a2.594,2.594,0,0,1-.416.048.937.937,0,0,1-.648-.208.783.783,0,0,1-.248-.576l-.032-.656a3.781,3.781,0,0,1-1.448,1.152A4.455,4.455,0,0,1,111.776,25.16Zm.256-.832a3.762,3.762,0,0,0,1.56-.32,2.548,2.548,0,0,0,1.08-.848,1,1,0,0,0,.216-.312.8.8,0,0,0,.072-.312v-1.36a6.669,6.669,0,0,0-1.128-.32,6.314,6.314,0,0,0-1.192-.112,3.316,3.316,0,0,0-1.872.48,1.459,1.459,0,0,0-.72,1.264,1.726,1.726,0,0,0,.152.72,1.824,1.824,0,0,0,.416.584,1.948,1.948,0,0,0,.632.392A2.132,2.132,0,0,0,112.032,24.328Zm13.216.832a5.8,5.8,0,0,1-1.9-.32,4.576,4.576,0,0,1-1.6-.928l.5-.736a5.425,5.425,0,0,0,1.432.864,4.2,4.2,0,0,0,1.56.288,2.816,2.816,0,0,0,1.608-.408,1.32,1.32,0,0,0,.6-1.16,1,1,0,0,0-.16-.584,1.385,1.385,0,0,0-.472-.408,3.685,3.685,0,0,0-.784-.312q-.472-.136-1.1-.28-.72-.176-1.248-.352a3.817,3.817,0,0,1-.872-.4,1.443,1.443,0,0,1-.512-.552,1.8,1.8,0,0,1-.168-.824,2.371,2.371,0,0,1,.248-1.1,2.251,2.251,0,0,1,.672-.792,3.053,3.053,0,0,1,.992-.472,4.437,4.437,0,0,1,1.208-.16,4.679,4.679,0,0,1,1.744.312,3.447,3.447,0,0,1,1.264.824l-.528.64a2.927,2.927,0,0,0-1.128-.72,4.04,4.04,0,0,0-1.384-.24,3.436,3.436,0,0,0-.8.088,1.926,1.926,0,0,0-.648.28,1.38,1.38,0,0,0-.44.488,1.442,1.442,0,0,0-.16.7,1.146,1.146,0,0,0,.112.544.956.956,0,0,0,.368.36,3,3,0,0,0,.648.272q.392.12.952.248.8.192,1.408.384a4.422,4.422,0,0,1,1.016.448,1.765,1.765,0,0,1,.616.624,1.8,1.8,0,0,1,.208.9,2.173,2.173,0,0,1-.88,1.824A3.807,3.807,0,0,1,125.248,25.16Zm8.624,0a4.008,4.008,0,0,1-1.672-.344,4.1,4.1,0,0,1-1.32-.944,4.383,4.383,0,0,1-.872-1.384,4.5,4.5,0,0,1-.312-1.68,4.4,4.4,0,0,1,.312-1.656,4.286,4.286,0,0,1,.864-1.36,4.1,4.1,0,0,1,1.32-.928,4.216,4.216,0,0,1,3.336,0,3.975,3.975,0,0,1,1.3.936,4.395,4.395,0,0,1,1.152,2.992v.256a.644.644,0,0,1-.016.176h-7.136a3.509,3.509,0,0,0,.312,1.24,3.408,3.408,0,0,0,.68.984,3.047,3.047,0,0,0,.952.648,2.849,2.849,0,0,0,1.144.232,2.955,2.955,0,0,0,.8-.112,3.234,3.234,0,0,0,.736-.3,2.737,2.737,0,0,0,.608-.472,2.027,2.027,0,0,0,.416-.616l.944.256a2.772,2.772,0,0,1-.544.84,3.8,3.8,0,0,1-.816.656,4,4,0,0,1-1.024.432A4.439,4.439,0,0,1,133.872,25.16Zm3.072-4.768a3.366,3.366,0,0,0-.312-1.224,3.332,3.332,0,0,0-.672-.952,2.972,2.972,0,0,0-.944-.624,2.937,2.937,0,0,0-1.144-.224,3,3,0,0,0-1.152.224,2.949,2.949,0,0,0-.952.624,3.067,3.067,0,0,0-.656.96,3.634,3.634,0,0,0-.3,1.216Zm2.144.416a4.562,4.562,0,0,1,.3-1.664,4.155,4.155,0,0,1,.856-1.368,4,4,0,0,1,1.32-.92,4.186,4.186,0,0,1,1.7-.336,3.889,3.889,0,0,1,2.064.536,3.443,3.443,0,0,1,1.328,1.448l-1.056.336a2.535,2.535,0,0,0-.984-1,2.9,2.9,0,0,0-2.592-.1,3.04,3.04,0,0,0-.96.7,3.2,3.2,0,0,0-.64,1.048,3.854,3.854,0,0,0,.008,2.656,3.388,3.388,0,0,0,.656,1.08,3.123,3.123,0,0,0,.968.72,2.691,2.691,0,0,0,1.176.264,2.87,2.87,0,0,0,.792-.112,3.059,3.059,0,0,0,.728-.312,2.619,2.619,0,0,0,.576-.456,1.482,1.482,0,0,0,.336-.544l1.072.32a2.727,2.727,0,0,1-.512.824,3.532,3.532,0,0,1-.792.656,3.886,3.886,0,0,1-1.008.432,4.289,4.289,0,0,1-1.144.152,4.049,4.049,0,0,1-3.008-1.288,4.383,4.383,0,0,1-.872-1.384A4.5,4.5,0,0,1,139.088,20.808Zm11.968,4.352a2.347,2.347,0,0,1-2.024-.9,4.536,4.536,0,0,1-.664-2.7v-4.9h1.088v4.7q0,2.832,1.936,2.832a2.877,2.877,0,0,0,.944-.16,2.966,2.966,0,0,0,.856-.464,3.758,3.758,0,0,0,.7-.72,3.628,3.628,0,0,0,.5-.944V16.664h1.088v6.928q0,.448.384.448V25a1.983,1.983,0,0,1-.312.032h-.168a.869.869,0,0,1-.624-.272.965.965,0,0,1-.24-.688v-.96a3.88,3.88,0,0,1-1.48,1.512A3.946,3.946,0,0,1,151.056,25.16Zm11.056-7.536a3.422,3.422,0,0,0-1.92.608,3.066,3.066,0,0,0-1.152,1.584V25h-1.088V16.664h1.024v2a3.792,3.792,0,0,1,1.248-1.5,2.893,2.893,0,0,1,1.68-.544,1.1,1.1,0,0,1,.208.016Zm4.64,7.536a4.008,4.008,0,0,1-1.672-.344,4.1,4.1,0,0,1-1.32-.944,4.383,4.383,0,0,1-.872-1.384,4.5,4.5,0,0,1-.312-1.68,4.4,4.4,0,0,1,.312-1.656,4.286,4.286,0,0,1,.864-1.36,4.1,4.1,0,0,1,1.32-.928,4.216,4.216,0,0,1,3.336,0,3.975,3.975,0,0,1,1.3.936,4.395,4.395,0,0,1,1.152,2.992v.256a.644.644,0,0,1-.016.176h-7.136a3.509,3.509,0,0,0,.312,1.24,3.408,3.408,0,0,0,.68.984,3.047,3.047,0,0,0,.952.648,2.849,2.849,0,0,0,1.144.232,2.955,2.955,0,0,0,.8-.112,3.234,3.234,0,0,0,.736-.3,2.737,2.737,0,0,0,.608-.472,2.027,2.027,0,0,0,.416-.616l.944.256a2.772,2.772,0,0,1-.544.84,3.8,3.8,0,0,1-.816.656,4,4,0,0,1-1.024.432A4.439,4.439,0,0,1,166.752,25.16Zm3.072-4.768a3.366,3.366,0,0,0-.312-1.224,3.332,3.332,0,0,0-.672-.952,2.972,2.972,0,0,0-.944-.624,2.937,2.937,0,0,0-1.144-.224,3,3,0,0,0-1.152.224,2.949,2.949,0,0,0-.952.624,3.067,3.067,0,0,0-.656.96,3.634,3.634,0,0,0-.3,1.216Zm2.768-7.072h1.088v9.792a1,1,0,0,0,.256.728.956.956,0,0,0,.72.264,2.163,2.163,0,0,0,.416-.048,2.747,2.747,0,0,0,.448-.128l.192.88a3.591,3.591,0,0,1-.744.208,4.336,4.336,0,0,1-.76.08,1.617,1.617,0,0,1-1.184-.424,1.594,1.594,0,0,1-.432-1.192ZM177.2,27.56q.128.016.248.024t.232.008a1.076,1.076,0,0,0,.456-.08.848.848,0,0,0,.328-.352,5.732,5.732,0,0,0,.36-.784q.2-.512.568-1.376l-3.632-8.336h1.12l3.088,7.328,2.864-7.328h1.04l-4.32,10.752a1.955,1.955,0,0,1-.584.808,1.671,1.671,0,0,1-1.112.344q-.16,0-.3-.008t-.352-.04Zm21.9-10.9h1.072L196.592,25h-.9L193.9,20.744,192.128,25h-.9l-3.584-8.336H188.7l3.04,7.216,1.584-3.808L191.9,16.68h.912L193.9,19.4l1.088-2.72h.928L194.5,20.072l1.584,3.808ZM201.616,25V16.664H202.7V25Zm0-10.08v-1.6H202.7v1.6ZM209.1,24.6q-.1.048-.28.128t-.424.16a4.963,4.963,0,0,1-.544.144,3.1,3.1,0,0,1-.64.064,2.326,2.326,0,0,1-.672-.1,1.567,1.567,0,0,1-.56-.3,1.457,1.457,0,0,1-.384-.5,1.627,1.627,0,0,1-.144-.7V17.528H204.3v-.864h1.152V13.848h1.088v2.816h1.92v.864h-1.92v5.664a.864.864,0,0,0,.328.68,1.124,1.124,0,0,0,.68.216,2.043,2.043,0,0,0,.816-.152,3.6,3.6,0,0,0,.448-.216Zm8.368.4h-1.088V20.344a3.757,3.757,0,0,0-.488-2.128,1.631,1.631,0,0,0-1.432-.7,2.441,2.441,0,0,0-.92.184,3.406,3.406,0,0,0-.856.5,3.464,3.464,0,0,0-.7.752,3.183,3.183,0,0,0-.44.944V25h-1.088V13.32h1.088v5.232a3.779,3.779,0,0,1,1.376-1.488,3.555,3.555,0,0,1,1.9-.544,2.562,2.562,0,0,1,1.216.264,2.251,2.251,0,0,1,.816.736,3.219,3.219,0,0,1,.464,1.136,6.916,6.916,0,0,1,.144,1.464ZM4.752,50.16a3.953,3.953,0,0,1-1.664-.344,4.09,4.09,0,0,1-1.3-.936A4.247,4.247,0,0,1,.928,47.5a4.518,4.518,0,0,1-.3-1.648,4.458,4.458,0,0,1,.312-1.664A4.36,4.36,0,0,1,1.8,42.816a4.2,4.2,0,0,1,1.3-.944,3.839,3.839,0,0,1,1.648-.352,3.892,3.892,0,0,1,1.656.352,4.169,4.169,0,0,1,1.312.944,4.36,4.36,0,0,1,.864,1.376A4.458,4.458,0,0,1,8.9,45.856a4.518,4.518,0,0,1-.3,1.648,4.247,4.247,0,0,1-.856,1.376,4.065,4.065,0,0,1-1.312.936A4.008,4.008,0,0,1,4.752,50.16ZM1.728,45.872a3.479,3.479,0,0,0,.24,1.3,3.539,3.539,0,0,0,.648,1.056,2.929,2.929,0,0,0,.96.712,2.761,2.761,0,0,0,1.176.256,2.691,2.691,0,0,0,1.176-.264,3.123,3.123,0,0,0,.968-.72,3.431,3.431,0,0,0,.656-1.064,3.684,3.684,0,0,0,0-2.616A3.408,3.408,0,0,0,6.9,43.464a3.123,3.123,0,0,0-.968-.72,2.691,2.691,0,0,0-1.176-.264,2.64,2.64,0,0,0-1.168.264,3.1,3.1,0,0,0-.96.728,3.509,3.509,0,0,0-.656,1.08A3.6,3.6,0,0,0,1.728,45.872Zm11.6,4.288a2.347,2.347,0,0,1-2.024-.9,4.536,4.536,0,0,1-.664-2.7v-4.9h1.088v4.7q0,2.832,1.936,2.832a2.877,2.877,0,0,0,.944-.16,2.966,2.966,0,0,0,.856-.464,3.758,3.758,0,0,0,.7-.72,3.628,3.628,0,0,0,.5-.944V41.664H17.76v6.928q0,.448.384.448V50a1.983,1.983,0,0,1-.312.032h-.168a.869.869,0,0,1-.624-.272.965.965,0,0,1-.24-.688v-.96a3.88,3.88,0,0,1-1.48,1.512A3.946,3.946,0,0,1,13.328,50.16Zm11.056-7.536a3.422,3.422,0,0,0-1.92.608,3.066,3.066,0,0,0-1.152,1.584V50H20.224V41.664h1.024v2a3.792,3.792,0,0,1,1.248-1.5,2.893,2.893,0,0,1,1.68-.544,1.1,1.1,0,0,1,.208.016Zm9.312,0a3.422,3.422,0,0,0-1.92.608,3.066,3.066,0,0,0-1.152,1.584V50H29.536V41.664H30.56v2a3.792,3.792,0,0,1,1.248-1.5,2.893,2.893,0,0,1,1.68-.544,1.1,1.1,0,0,1,.208.016Zm4.592,7.536a3.953,3.953,0,0,1-1.664-.344,4.09,4.09,0,0,1-1.3-.936,4.247,4.247,0,0,1-.856-1.376,4.518,4.518,0,0,1-.3-1.648,4.458,4.458,0,0,1,.312-1.664,4.36,4.36,0,0,1,.864-1.376,4.2,4.2,0,0,1,1.3-.944,3.839,3.839,0,0,1,1.648-.352,3.892,3.892,0,0,1,1.656.352,4.169,4.169,0,0,1,1.312.944,4.36,4.36,0,0,1,.864,1.376,4.458,4.458,0,0,1,.312,1.664,4.518,4.518,0,0,1-.3,1.648,4.247,4.247,0,0,1-.856,1.376,4.065,4.065,0,0,1-1.312.936A4.008,4.008,0,0,1,38.288,50.16Zm-3.024-4.288a3.479,3.479,0,0,0,.24,1.3,3.539,3.539,0,0,0,.648,1.056,2.929,2.929,0,0,0,.96.712,2.761,2.761,0,0,0,1.176.256,2.691,2.691,0,0,0,1.176-.264,3.123,3.123,0,0,0,.968-.72,3.431,3.431,0,0,0,.656-1.064,3.684,3.684,0,0,0,0-2.616,3.408,3.408,0,0,0-.656-1.072,3.123,3.123,0,0,0-.968-.72,2.691,2.691,0,0,0-1.176-.264,2.64,2.64,0,0,0-1.168.264,3.1,3.1,0,0,0-.96.728,3.509,3.509,0,0,0-.656,1.08A3.6,3.6,0,0,0,35.264,45.872ZM48.336,50.16a3.455,3.455,0,0,1-1.816-.5,3.656,3.656,0,0,1-1.288-1.28V50h-.976V38.32h1.088v5.088a4.766,4.766,0,0,1,1.344-1.368,3.223,3.223,0,0,1,1.824-.52,3.32,3.32,0,0,1,1.576.368,3.7,3.7,0,0,1,1.184.984,4.616,4.616,0,0,1,.752,1.392,4.91,4.91,0,0,1,.264,1.592,4.562,4.562,0,0,1-.3,1.664,4.376,4.376,0,0,1-.832,1.368,3.949,3.949,0,0,1-1.256.928A3.605,3.605,0,0,1,48.336,50.16Zm-.256-.96a2.8,2.8,0,0,0,1.256-.28,3.07,3.07,0,0,0,.976-.752,3.623,3.623,0,0,0,.64-1.072,3.41,3.41,0,0,0,.232-1.24,3.748,3.748,0,0,0-.216-1.264,3.517,3.517,0,0,0-.608-1.08,2.946,2.946,0,0,0-.944-.752,2.632,2.632,0,0,0-1.208-.28,2.538,2.538,0,0,0-.928.168,3.136,3.136,0,0,0-.8.456,3.683,3.683,0,0,0-.656.664,4.183,4.183,0,0,0-.48.792v2.592a1.774,1.774,0,0,0,.344.808,2.874,2.874,0,0,0,.672.648,3.531,3.531,0,0,0,.848.432A2.632,2.632,0,0,0,48.08,49.2Zm8.656.96a2.347,2.347,0,0,1-2.024-.9,4.536,4.536,0,0,1-.664-2.7v-4.9h1.088v4.7q0,2.832,1.936,2.832a2.877,2.877,0,0,0,.944-.16,2.966,2.966,0,0,0,.856-.464,3.758,3.758,0,0,0,.7-.72,3.628,3.628,0,0,0,.5-.944V41.664h1.088v6.928q0,.448.384.448V50a1.983,1.983,0,0,1-.312.032h-.168a.869.869,0,0,1-.624-.272.965.965,0,0,1-.24-.688v-.96a3.88,3.88,0,0,1-1.48,1.512A3.946,3.946,0,0,1,56.736,50.16Zm9.664,0a5.8,5.8,0,0,1-1.9-.32,4.576,4.576,0,0,1-1.6-.928l.5-.736a5.425,5.425,0,0,0,1.432.864,4.2,4.2,0,0,0,1.56.288,2.816,2.816,0,0,0,1.608-.408,1.32,1.32,0,0,0,.6-1.16,1,1,0,0,0-.16-.584,1.385,1.385,0,0,0-.472-.408,3.684,3.684,0,0,0-.784-.312q-.472-.136-1.1-.28-.72-.176-1.248-.352a3.817,3.817,0,0,1-.872-.4,1.443,1.443,0,0,1-.512-.552,1.8,1.8,0,0,1-.168-.824,2.371,2.371,0,0,1,.248-1.1,2.251,2.251,0,0,1,.672-.792,3.053,3.053,0,0,1,.992-.472,4.437,4.437,0,0,1,1.208-.16,4.679,4.679,0,0,1,1.744.312,3.447,3.447,0,0,1,1.264.824l-.528.64a2.927,2.927,0,0,0-1.128-.72,4.04,4.04,0,0,0-1.384-.24,3.436,3.436,0,0,0-.8.088,1.926,1.926,0,0,0-.648.28,1.38,1.38,0,0,0-.44.488,1.442,1.442,0,0,0-.16.7,1.146,1.146,0,0,0,.112.544.956.956,0,0,0,.368.36,3,3,0,0,0,.648.272q.392.12.952.248.8.192,1.408.384a4.422,4.422,0,0,1,1.016.448,1.765,1.765,0,0,1,.616.624,1.8,1.8,0,0,1,.208.9,2.173,2.173,0,0,1-.88,1.824A3.807,3.807,0,0,1,66.4,50.16Zm9.024-.56q-.1.048-.28.128t-.424.16a4.964,4.964,0,0,1-.544.144,3.1,3.1,0,0,1-.64.064,2.326,2.326,0,0,1-.672-.1,1.567,1.567,0,0,1-.56-.3,1.457,1.457,0,0,1-.384-.5,1.627,1.627,0,0,1-.144-.7V42.528H70.624v-.864h1.152V38.848h1.088v2.816h1.92v.864h-1.92v5.664a.864.864,0,0,0,.328.68,1.124,1.124,0,0,0,.68.216,2.043,2.043,0,0,0,.816-.152,3.6,3.6,0,0,0,.448-.216Zm5.664.4V38.64h4.7a2.949,2.949,0,0,1,1.352.312,3.563,3.563,0,0,1,1.064.816,3.872,3.872,0,0,1,.7,1.144,3.463,3.463,0,0,1,.256,1.3,3.862,3.862,0,0,1-.24,1.352,3.659,3.659,0,0,1-.672,1.144,3.379,3.379,0,0,1-1.032.8,2.913,2.913,0,0,1-1.336.3h-3.68V50Zm1.12-5.184H85.84a1.9,1.9,0,0,0,.9-.216,2.2,2.2,0,0,0,.7-.576,2.712,2.712,0,0,0,.448-.832,3.044,3.044,0,0,0,.16-.984,2.764,2.764,0,0,0-.68-1.824,2.265,2.265,0,0,0-.736-.552,2.057,2.057,0,0,0-.888-.2H82.208Zm8.08-.576a6.072,6.072,0,0,1,.36-2.04A5.655,5.655,0,0,1,91.7,40.384a5.378,5.378,0,0,1,1.7-1.3,5.047,5.047,0,0,1,2.288-.5,4.738,4.738,0,0,1,2.6.688,4.186,4.186,0,0,1,1.592,1.792l-.88.544a3.361,3.361,0,0,0-.664-.944,3.692,3.692,0,0,0-.84-.624,3.55,3.55,0,0,0-.928-.344,4.45,4.45,0,0,0-.944-.1A3.8,3.8,0,0,0,93.808,40a4.162,4.162,0,0,0-1.32,1.088A4.748,4.748,0,0,0,91.68,42.6a5.5,5.5,0,0,0-.272,1.7,5.051,5.051,0,0,0,.328,1.808,5.128,5.128,0,0,0,.9,1.528A4.309,4.309,0,0,0,93.976,48.7a3.69,3.69,0,0,0,1.688.392,4.241,4.241,0,0,0,.984-.12,3.792,3.792,0,0,0,.976-.384,4.108,4.108,0,0,0,.872-.656,3.393,3.393,0,0,0,.672-.952l.928.48a3.473,3.473,0,0,1-.768,1.128,5.049,5.049,0,0,1-1.1.824,5.5,5.5,0,0,1-1.288.512A5.318,5.318,0,0,1,95.6,50.1a4.544,4.544,0,0,1-2.144-.512,5.623,5.623,0,0,1-1.68-1.336,6.2,6.2,0,0,1-1.1-1.872A6.052,6.052,0,0,1,90.288,44.24ZM102.016,50V38.64h1.12V50Zm11.424.16a4.008,4.008,0,0,1-1.672-.344,4.1,4.1,0,0,1-1.32-.944,4.384,4.384,0,0,1-.872-1.384,4.5,4.5,0,0,1-.312-1.68,4.4,4.4,0,0,1,.312-1.656,4.286,4.286,0,0,1,.864-1.36,4.1,4.1,0,0,1,1.32-.928,4.216,4.216,0,0,1,3.336,0,3.975,3.975,0,0,1,1.3.936,4.395,4.395,0,0,1,1.152,2.992v.256a.644.644,0,0,1-.016.176H110.4a3.509,3.509,0,0,0,.312,1.24,3.408,3.408,0,0,0,.68.984,3.047,3.047,0,0,0,.952.648,2.849,2.849,0,0,0,1.144.232,2.955,2.955,0,0,0,.8-.112,3.234,3.234,0,0,0,.736-.3,2.737,2.737,0,0,0,.608-.472,2.027,2.027,0,0,0,.416-.616l.944.256a2.772,2.772,0,0,1-.544.84,3.8,3.8,0,0,1-.816.656,4,4,0,0,1-1.024.432A4.439,4.439,0,0,1,113.44,50.16Zm3.072-4.768a3.367,3.367,0,0,0-.312-1.224,3.332,3.332,0,0,0-.672-.952,2.972,2.972,0,0,0-.944-.624,2.937,2.937,0,0,0-1.144-.224,3,3,0,0,0-1.152.224,2.949,2.949,0,0,0-.952.624,3.067,3.067,0,0,0-.656.96,3.634,3.634,0,0,0-.3,1.216ZM126.24,50h-1.088V45.344a4.062,4.062,0,0,0-.44-2.16,1.5,1.5,0,0,0-1.352-.672,2.772,2.772,0,0,0-.96.176,3.236,3.236,0,0,0-.888.5,3.8,3.8,0,0,0-.728.76,2.979,2.979,0,0,0-.464.952V50h-1.088V41.664h.992v1.888a3.916,3.916,0,0,1,1.464-1.472,4.014,4.014,0,0,1,2.072-.56,2.454,2.454,0,0,1,1.168.256,1.993,1.993,0,0,1,.768.72,3.317,3.317,0,0,1,.416,1.136,7.975,7.975,0,0,1,.128,1.488Zm4.624,0-3.392-8.336h1.12l2.864,7.328,2.88-7.328h1.056L132,50Zm6.032,0V41.664h1.088V50Zm0-10.08v-1.6h1.088v1.6Zm7.648,2.7a3.422,3.422,0,0,0-1.92.608,3.066,3.066,0,0,0-1.152,1.584V50h-1.088V41.664h1.024v2a3.792,3.792,0,0,1,1.248-1.5,2.893,2.893,0,0,1,1.68-.544,1.1,1.1,0,0,1,.208.016Zm4.592,7.536a3.953,3.953,0,0,1-1.664-.344,4.09,4.09,0,0,1-1.3-.936,4.247,4.247,0,0,1-.856-1.376,4.518,4.518,0,0,1-.3-1.648,4.458,4.458,0,0,1,.312-1.664,4.36,4.36,0,0,1,.864-1.376,4.2,4.2,0,0,1,1.3-.944,3.839,3.839,0,0,1,1.648-.352,3.892,3.892,0,0,1,1.656.352,4.169,4.169,0,0,1,1.312.944,4.36,4.36,0,0,1,.864,1.376,4.459,4.459,0,0,1,.312,1.664,4.518,4.518,0,0,1-.3,1.648,4.247,4.247,0,0,1-.856,1.376,4.065,4.065,0,0,1-1.312.936A4.008,4.008,0,0,1,149.136,50.16Zm-3.024-4.288a3.479,3.479,0,0,0,.24,1.3A3.539,3.539,0,0,0,147,48.232a2.929,2.929,0,0,0,.96.712,2.761,2.761,0,0,0,1.176.256,2.691,2.691,0,0,0,1.176-.264,3.123,3.123,0,0,0,.968-.72,3.431,3.431,0,0,0,.656-1.064,3.684,3.684,0,0,0,0-2.616,3.409,3.409,0,0,0-.656-1.072,3.123,3.123,0,0,0-.968-.72,2.691,2.691,0,0,0-1.176-.264,2.64,2.64,0,0,0-1.168.264,3.1,3.1,0,0,0-.96.728,3.509,3.509,0,0,0-.656,1.08A3.6,3.6,0,0,0,146.112,45.872Zm16,4.128h-1.088V45.344a4.062,4.062,0,0,0-.44-2.16,1.5,1.5,0,0,0-1.352-.672,2.772,2.772,0,0,0-.96.176,3.237,3.237,0,0,0-.888.5,3.8,3.8,0,0,0-.728.76,2.979,2.979,0,0,0-.464.952V50H155.1V41.664h.992v1.888a3.916,3.916,0,0,1,1.464-1.472,4.014,4.014,0,0,1,2.072-.56,2.454,2.454,0,0,1,1.168.256,1.993,1.993,0,0,1,.768.72,3.317,3.317,0,0,1,.416,1.136,7.977,7.977,0,0,1,.128,1.488Zm14.72,0h-1.088V45.344a3.9,3.9,0,0,0-.464-2.144,1.552,1.552,0,0,0-1.376-.688,2.334,2.334,0,0,0-.9.176,2.779,2.779,0,0,0-.784.5,3.4,3.4,0,0,0-.632.76,3.661,3.661,0,0,0-.416.968V50H170.08V45.344a4,4,0,0,0-.448-2.16,1.539,1.539,0,0,0-1.376-.672,2.454,2.454,0,0,0-1.68.656A3.653,3.653,0,0,0,165.52,44.9V50h-1.088V41.664h.992v1.888a3.941,3.941,0,0,1,1.344-1.5,3.327,3.327,0,0,1,1.84-.536,2.369,2.369,0,0,1,1.688.592,2.577,2.577,0,0,1,.776,1.552,3.562,3.562,0,0,1,3.216-2.144,2.541,2.541,0,0,1,1.192.256,2.017,2.017,0,0,1,.784.728,3.41,3.41,0,0,1,.432,1.136,7.4,7.4,0,0,1,.136,1.48Zm5.9.16a4.008,4.008,0,0,1-1.672-.344,4.1,4.1,0,0,1-1.32-.944,4.383,4.383,0,0,1-.872-1.384,4.5,4.5,0,0,1-.312-1.68,4.4,4.4,0,0,1,.312-1.656,4.286,4.286,0,0,1,.864-1.36,4.1,4.1,0,0,1,1.32-.928,4.216,4.216,0,0,1,3.336,0,3.975,3.975,0,0,1,1.3.936,4.395,4.395,0,0,1,1.152,2.992v.256a.644.644,0,0,1-.016.176H179.7a3.509,3.509,0,0,0,.312,1.24,3.408,3.408,0,0,0,.68.984,3.047,3.047,0,0,0,.952.648,2.849,2.849,0,0,0,1.144.232,2.955,2.955,0,0,0,.8-.112,3.234,3.234,0,0,0,.736-.3,2.737,2.737,0,0,0,.608-.472,2.027,2.027,0,0,0,.416-.616l.944.256a2.772,2.772,0,0,1-.544.84,3.8,3.8,0,0,1-.816.656,4,4,0,0,1-1.024.432A4.439,4.439,0,0,1,182.736,50.16Zm3.072-4.768a3.366,3.366,0,0,0-.312-1.224,3.332,3.332,0,0,0-.672-.952,2.972,2.972,0,0,0-.944-.624,2.937,2.937,0,0,0-1.144-.224,3,3,0,0,0-1.152.224,2.949,2.949,0,0,0-.952.624,3.067,3.067,0,0,0-.656.96,3.634,3.634,0,0,0-.3,1.216ZM195.536,50h-1.088V45.344a4.062,4.062,0,0,0-.44-2.16,1.5,1.5,0,0,0-1.352-.672,2.772,2.772,0,0,0-.96.176,3.237,3.237,0,0,0-.888.5,3.8,3.8,0,0,0-.728.76,2.979,2.979,0,0,0-.464.952V50h-1.088V41.664h.992v1.888a3.916,3.916,0,0,1,1.464-1.472,4.014,4.014,0,0,1,2.072-.56,2.454,2.454,0,0,1,1.168.256,1.993,1.993,0,0,1,.768.72,3.317,3.317,0,0,1,.416,1.136,7.976,7.976,0,0,1,.128,1.488Zm6.24-.4q-.1.048-.28.128t-.424.16a4.964,4.964,0,0,1-.544.144,3.1,3.1,0,0,1-.64.064,2.326,2.326,0,0,1-.672-.1,1.567,1.567,0,0,1-.56-.3,1.457,1.457,0,0,1-.384-.5,1.627,1.627,0,0,1-.144-.7V42.528h-1.152v-.864h1.152V38.848h1.088v2.816h1.92v.864h-1.92v5.664a.864.864,0,0,0,.328.68,1.124,1.124,0,0,0,.68.216,2.043,2.043,0,0,0,.816-.152,3.6,3.6,0,0,0,.448-.216Z" transform="translate(114 2899)" fill="#707070"/>
    <g id="Group_1906" data-name="Group 1906" transform="translate(-731 443)">
      <path id="Path_804" data-name="Path 804" d="M34,0A34,34,0,1,1,0,34,34,34,0,0,1,34,0Z" transform="translate(765 2405)" fill="rgba(169,2,255,0.24)"/>
      <g id="surface1" transform="translate(784.737 2421.642)">
        <path id="Path_2025" data-name="Path 2025" d="M29.225,9.322V9.3c-.015-.33-.025-.679-.031-1.068A3.642,3.642,0,0,0,25.764,4.66,14.131,14.131,0,0,1,16.147.606L16.124.585a2.2,2.2,0,0,0-2.988,0l-.022.021A14.132,14.132,0,0,1,3.5,4.66,3.641,3.641,0,0,0,.067,8.228C.061,8.613.051,8.963.036,9.3l0,.062c-.077,4.028-.172,9.042,1.5,13.592a17.3,17.3,0,0,0,4.151,6.466,21.715,21.715,0,0,0,8.123,4.8,2.516,2.516,0,0,0,.333.091,2.459,2.459,0,0,0,.967,0,2.524,2.524,0,0,0,.334-.091,21.729,21.729,0,0,0,8.115-4.807,17.327,17.327,0,0,0,4.151-6.467C29.4,18.381,29.3,13.358,29.225,9.322Zm-3.4,12.926c-1.769,4.8-5.38,8.09-11.039,10.069a.506.506,0,0,1-.064.017.452.452,0,0,1-.177,0,.5.5,0,0,1-.063-.017C8.812,30.341,5.2,27.049,3.431,22.253,1.886,18.058,1.973,13.456,2.05,9.4V9.373c.016-.349.026-.714.032-1.116A1.619,1.619,0,0,1,3.608,6.673a17.689,17.689,0,0,0,6-1.321,15.708,15.708,0,0,0,4.893-3.287.186.186,0,0,1,.25,0,15.714,15.714,0,0,0,4.893,3.287,17.69,17.69,0,0,0,6,1.321,1.618,1.618,0,0,1,1.525,1.584c.006.4.017.769.032,1.116C27.287,13.438,27.372,18.044,25.822,22.247Zm0,0" transform="translate(0 0)" fill="#a902ff"/>
        <path id="Path_2026" data-name="Path 2026" d="M98.961,128.41a8.563,8.563,0,1,0,8.563,8.563A8.573,8.573,0,0,0,98.961,128.41Zm0,15.11a6.547,6.547,0,1,1,6.547-6.547A6.554,6.554,0,0,1,98.961,143.52Zm0,0" transform="translate(-84.332 -119.793)" fill="#a902ff"/>
        <path id="Path_2027" data-name="Path 2027" d="M160.45,212.287l-3.977,3.977-1.08-1.08a1.008,1.008,0,1,0-1.426,1.426l1.793,1.793a1.008,1.008,0,0,0,1.426,0l4.69-4.69a1.008,1.008,0,0,0-1.426-1.426Zm0,0" transform="translate(-143.36 -197.765)" fill="#a902ff"/>
      </g>
    </g>
  </g>
</svg>
