<svg xmlns="http://www.w3.org/2000/svg" width="282" height="105" viewBox="0 0 282 105">
  <g id="Group_1929" data-name="Group 1929" transform="translate(-10 -527)">
    <text id="Traffic_Management" data-name="Traffic Management" transform="translate(190 548)" fill="#585858" font-size="20" font-family="Poppins-Regular, Poppins"><tspan x="-101.71" y="0">Traffic Management</tspan></text>
    <text id="Intuitive_payment_funnel_increases_revenue_and_improves_user_experience_" data-name="Intuitive payment funnel 
increases revenue and 
improves user experience " transform="translate(88 578)" fill="#707070" font-size="16" font-family="Raleway-Regular, Raleway"><tspan x="0" y="0">Intuitive payment funnel </tspan><tspan x="0" y="25">increases revenue and </tspan><tspan x="0" y="50">improves user experience </tspan></text>
    <g id="Group_1905" data-name="Group 1905" transform="translate(-755 -1721)">
      <circle id="Ellipse_54" data-name="Ellipse 54" cx="34" cy="34" r="34" transform="translate(765 2248)" fill="rgba(48,218,195,0.24)"/>
      <g id="team" transform="translate(785 2268)">
        <g id="Group_1543" data-name="Group 1543" transform="translate(11.6)">
          <g id="Group_1542" data-name="Group 1542">
            <path id="Path_2016" data-name="Path 2016" d="M194.9,0a2.9,2.9,0,1,0,2.9,2.9A2.9,2.9,0,0,0,194.9,0Zm0,4.833A1.933,1.933,0,1,1,196.833,2.9,1.933,1.933,0,0,1,194.9,4.833Z" transform="translate(-192)" fill="#30dac3"/>
          </g>
        </g>
        <g id="Group_1545" data-name="Group 1545" transform="translate(10.15 6.283)">
          <g id="Group_1544" data-name="Group 1544">
            <path id="Path_2017" data-name="Path 2017" d="M174.283,104h-.114l-.1.051a3.853,3.853,0,0,1-3.435,0l-.1-.051h-.114A2.42,2.42,0,0,0,168,106.417v2.9a1.45,1.45,0,0,0,1.45,1.45h5.8a1.45,1.45,0,0,0,1.45-1.45v-2.9A2.42,2.42,0,0,0,174.283,104Zm1.45,5.317a.483.483,0,0,1-.483.483h-5.8a.483.483,0,0,1-.483-.483v-2.9a1.45,1.45,0,0,1,1.347-1.446,4.837,4.837,0,0,0,4.073,0,1.45,1.45,0,0,1,1.347,1.446Z" transform="translate(-168 -104)" fill="#30dac3"/>
          </g>
        </g>
        <g id="Group_1547" data-name="Group 1547" transform="translate(21.75 15.95)">
          <g id="Group_1546" data-name="Group 1546">
            <path id="Path_2018" data-name="Path 2018" d="M362.9,264a2.9,2.9,0,1,0,2.9,2.9A2.9,2.9,0,0,0,362.9,264Zm0,4.833a1.933,1.933,0,1,1,1.933-1.933A1.933,1.933,0,0,1,362.9,268.833Z" transform="translate(-360 -264)" fill="#30dac3"/>
          </g>
        </g>
        <g id="Group_1549" data-name="Group 1549" transform="translate(20.3 22.233)">
          <g id="Group_1548" data-name="Group 1548">
            <path id="Path_2019" data-name="Path 2019" d="M342.283,368h-.114l-.1.048a3.853,3.853,0,0,1-3.435,0l-.1-.048h-.114A2.42,2.42,0,0,0,336,370.417v2.9a1.45,1.45,0,0,0,1.45,1.45h5.8a1.45,1.45,0,0,0,1.45-1.45v-2.9A2.42,2.42,0,0,0,342.283,368Zm1.45,5.317a.483.483,0,0,1-.483.483h-5.8a.483.483,0,0,1-.483-.483v-2.9a1.45,1.45,0,0,1,1.347-1.446,4.837,4.837,0,0,0,4.073,0,1.45,1.45,0,0,1,1.347,1.446Z" transform="translate(-336 -368)" fill="#30dac3"/>
          </g>
        </g>
        <g id="Group_1551" data-name="Group 1551" transform="translate(1.45 15.95)">
          <g id="Group_1550" data-name="Group 1550">
            <path id="Path_2020" data-name="Path 2020" d="M26.9,264a2.9,2.9,0,1,0,2.9,2.9A2.9,2.9,0,0,0,26.9,264Zm0,4.833a1.933,1.933,0,1,1,1.933-1.933A1.933,1.933,0,0,1,26.9,268.833Z" transform="translate(-24 -264)" fill="#30dac3"/>
          </g>
        </g>
        <g id="Group_1553" data-name="Group 1553" transform="translate(0 22.233)">
          <g id="Group_1552" data-name="Group 1552">
            <path id="Path_2021" data-name="Path 2021" d="M6.283,368H6.169l-.1.048a3.853,3.853,0,0,1-3.435,0l-.1-.048H2.417A2.42,2.42,0,0,0,0,370.417v2.9a1.45,1.45,0,0,0,1.45,1.45h5.8a1.45,1.45,0,0,0,1.45-1.45v-2.9A2.42,2.42,0,0,0,6.283,368Zm1.45,5.317a.483.483,0,0,1-.483.483H1.45a.483.483,0,0,1-.483-.483v-2.9a1.45,1.45,0,0,1,1.347-1.446,4.837,4.837,0,0,0,4.073,0,1.45,1.45,0,0,1,1.347,1.446Z" transform="translate(0 -368)" fill="#30dac3"/>
          </g>
        </g>
        <g id="Group_1555" data-name="Group 1555" transform="translate(9.667 23.683)">
          <g id="Group_1554" data-name="Group 1554">
            <path id="Path_2022" data-name="Path 2022" d="M169.626,392.858v0a.483.483,0,0,0-.634-.255h0a10.721,10.721,0,0,1-6.894.475l.452-.133a.483.483,0,0,0-.272-.928l-1.933.567c-.007,0-.013.008-.019.011a.48.48,0,0,0-.125.069.422.422,0,0,0-.048.03.468.468,0,0,0-.118.164.484.484,0,0,0-.037.2,1.491,1.491,0,0,0,.048.193c0,.007,0,.014.005.021l.967,1.85a.484.484,0,0,0,.857-.448l-.393-.752a11.634,11.634,0,0,0,7.888-.429A.483.483,0,0,0,169.626,392.858Z" transform="translate(-159.998 -391.995)" fill="#30dac3"/>
          </g>
        </g>
        <g id="Group_1557" data-name="Group 1557" transform="translate(18.367 3.783)">
          <g id="Group_1556" data-name="Group 1556">
            <path id="Path_2023" data-name="Path 2023" d="M313.039,71.547a.483.483,0,0,0-.683,0l-.684.684a11.582,11.582,0,0,0-7-9.57.483.483,0,0,0-.379.889,10.617,10.617,0,0,1,6.393,8.542l-.545-.545a.483.483,0,0,0-.683.683l1.45,1.45a.483.483,0,0,0,.684,0h0l1.45-1.45A.483.483,0,0,0,313.039,71.547Z" transform="translate(-303.998 -62.622)" fill="#30dac3"/>
          </g>
        </g>
        <g id="Group_1559" data-name="Group 1559" transform="translate(2.9 2.908)">
          <g id="Group_1558" data-name="Group 1558">
            <path id="Path_2024" data-name="Path 2024" d="M55.719,49.412a.45.45,0,0,0-.013-.084s-.005-.007-.007-.012,0-.008,0-.012a.463.463,0,0,0-.045-.067.488.488,0,0,0-.055-.08.454.454,0,0,0-.094-.064.425.425,0,0,0-.054-.039l-1.933-.883a.483.483,0,0,0-.4.879l1,.458A11.582,11.582,0,0,0,48,59.726a.483.483,0,1,0,.967,0A10.617,10.617,0,0,1,54.2,50.57l-.349.73a.483.483,0,0,0,.226.644.476.476,0,0,0,.209.048.483.483,0,0,0,.435-.274l.967-2.017a.022.022,0,0,1,0-.015.465.465,0,0,0,.026-.1.5.5,0,0,0,.018-.08A.482.482,0,0,0,55.719,49.412Z" transform="translate(-48 -48.134)" fill="#30dac3"/>
          </g>
        </g>
      </g>
    </g>
  </g>
</svg>
