<svg xmlns="http://www.w3.org/2000/svg" xmlns:xlink="http://www.w3.org/1999/xlink" width="109.55" height="109.55" viewBox="0 0 109.55 109.55">
  <defs>
    <filter id="Ellipse_2741" x="0" y="0" width="109.55" height="109.55" filterUnits="userSpaceOnUse">
      <feOffset dy="6" input="SourceAlpha"/>
      <feGaussianBlur stdDeviation="4" result="blur"/>
      <feFlood flood-opacity="0.161"/>
      <feComposite operator="in" in2="blur"/>
      <feComposite in="SourceGraphic"/>
    </filter>
    <linearGradient id="linear-gradient" x1="0.87" y1="-1.311" x2="0.041" y2="3.775" gradientUnits="objectBoundingBox">
      <stop offset="0" stop-color="#f905f5"/>
      <stop offset="1" stop-color="#17c9f2"/>
    </linearGradient>
  </defs>
  <g id="Group_1442" data-name="Group 1442" transform="translate(-185 -1119.45)">
    <g transform="matrix(1, 0, 0, 1, 185, 1119.45)" filter="url(#Ellipse_2741)">
      <circle id="Ellipse_2741-2" data-name="Ellipse 2741" cx="42.775" cy="42.775" r="42.775" transform="translate(12 6)" fill="#fff"/>
    </g>
    <g id="credit-card-with-tick" transform="translate(213.417 1151.249)">
      <g id="Group_1412" data-name="Group 1412" transform="translate(0 0)">
        <path id="Path_1111" data-name="Path 1111" d="M48.551,88.224a4.5,4.5,0,0,0-4.5-4.5H4.5a4.5,4.5,0,0,0-4.5,4.5v3.937H48.551V88.224Z" transform="translate(0 -83.729)" fill="url(#linear-gradient)"/>
        <path id="Path_1112" data-name="Path 1112" d="M334.992,252.583a.279.279,0,0,0-.395,0l-4.3,4.3-1.719-1.719a.287.287,0,0,0-.395,0l-1.58,1.58a.28.28,0,0,0,0,.395l3.5,3.5a.279.279,0,0,0,.4,0l6.081-6.081a.28.28,0,0,0,0-.4Z" transform="translate(-290.051 -233.652)" fill="url(#linear-gradient)"/>
        <path id="Path_1113" data-name="Path 1113" d="M41.549,188.5a11.076,11.076,0,0,0-5.587,1.5H0v13.638a4.5,4.5,0,0,0,4.5,4.5H34.34A11.143,11.143,0,1,0,41.549,188.5ZM16.573,201.994a.577.577,0,0,1-.577.577H7.1a.577.577,0,0,1-.577-.577V200.24a.577.577,0,0,1,.577-.577H16a.577.577,0,0,1,.577.577v1.755Zm24.976,4.717a7.064,7.064,0,1,1,7.064-7.064A7.064,7.064,0,0,1,41.549,206.711Z" transform="translate(0 -176.801)" fill="url(#linear-gradient)"/>
      </g>
    </g>
  </g>
</svg>
