<svg xmlns="http://www.w3.org/2000/svg" xmlns:xlink="http://www.w3.org/1999/xlink" width="109.55" height="109.55" viewBox="0 0 109.55 109.55">
  <defs>
    <filter id="Ellipse_2745" x="0" y="0" width="109.55" height="109.55" filterUnits="userSpaceOnUse">
      <feOffset dy="6" input="SourceAlpha"/>
      <feGaussianBlur stdDeviation="4" result="blur"/>
      <feFlood flood-opacity="0.161"/>
      <feComposite operator="in" in2="blur"/>
      <feComposite in="SourceGraphic"/>
    </filter>
    <linearGradient id="linear-gradient" x1="1" y1="-2.509" x2="-0.085" y2="1.439" gradientUnits="objectBoundingBox">
      <stop offset="0" stop-color="#38f9d7"/>
      <stop offset="1" stop-color="#43e97b"/>
    </linearGradient>
  </defs>
  <g id="Group_1455" data-name="Group 1455" transform="translate(-6767 -1670)">
    <g transform="matrix(1, 0, 0, 1, 6767, 1670)" filter="url(#Ellipse_2745)">
      <circle id="Ellipse_2745-2" data-name="Ellipse 2745" cx="42.775" cy="42.775" r="42.775" transform="translate(12 6)" fill="#fff"/>
    </g>
    <g id="support" transform="translate(6799 1692)">
      <g id="Group_74" data-name="Group 74" transform="translate(0)">
        <g id="Group_73" data-name="Group 73" transform="translate(0)">
          <path id="Path_882" data-name="Path 882" d="M63.364,300.4H52.139A16.766,16.766,0,0,0,35.4,317.139H80.152A16.872,16.872,0,0,0,63.364,300.4Z" transform="translate(-35.4 -263.749)" fill="url(#linear-gradient)"/>
          <path id="Path_883" data-name="Path 883" d="M137.016,102.389a3.614,3.614,0,0,1,2.343.83h4.051a11.608,11.608,0,1,0-20.009-8,11.638,11.638,0,0,0,5.954,10.151,3.8,3.8,0,0,1,3.66-2.977Z" transform="translate(-112.663 -73.4)" fill="url(#linear-gradient)"/>
          <path id="Path_884" data-name="Path 884" d="M75.342,22.791A5.452,5.452,0,0,0,76.9,25.963a5.889,5.889,0,0,0,2.391,1.415,2.189,2.189,0,0,1-.049-.537V17.374a2.376,2.376,0,0,1,.049-.586A5.218,5.218,0,0,0,76.9,18.2l-.2.2v-.39a16.74,16.74,0,0,1,.244-2.733,11.682,11.682,0,0,1,.732-2.635,11.6,11.6,0,0,1,1.171-2.489,14.2,14.2,0,0,1,1.562-2.245.37.37,0,0,0,.1-.2,1.441,1.441,0,0,0,1.171-.39,15.2,15.2,0,0,1,21.473,0,1.387,1.387,0,0,0,1.171.39c.049.049.049.146.1.2a14.2,14.2,0,0,1,1.562,2.245,19.442,19.442,0,0,1,1.171,2.489,24.13,24.13,0,0,1,.732,2.684,16.736,16.736,0,0,1,.244,2.733v.39c-.049-.1-.146-.146-.2-.2a5.889,5.889,0,0,0-2.391-1.415,2.378,2.378,0,0,1,.049.586v9.419a1.831,1.831,0,0,1-.049.537,4.3,4.3,0,0,0,.732-.244v3.075a4.919,4.919,0,0,1-.1.927,1.372,1.372,0,0,1-.244.537,1.062,1.062,0,0,1-.39.244,2.473,2.473,0,0,1-.634.1H95.887a1.622,1.622,0,0,0-1.415-.83h-4a1.572,1.572,0,0,0-1.562,1.562,1.615,1.615,0,0,0,1.61,1.562h4a1.683,1.683,0,0,0,1.415-.83h9.419a2.853,2.853,0,0,0,.927-.2,2.6,2.6,0,0,0,.976-.634,3.222,3.222,0,0,0,.586-1.074,5.823,5.823,0,0,0,.2-1.415V26.109l.146-.146a5.452,5.452,0,0,0,1.562-3.172c.049-.049.1-.049.1-.1a.9.9,0,0,0,.244-.586V18.057a20.521,20.521,0,0,0-.244-3.026c-.293-1.025-.537-2-.878-2.977a14.514,14.514,0,0,0-1.318-2.782,14.379,14.379,0,0,0-1.757-2.489.487.487,0,0,0-.244-.2,1.486,1.486,0,0,0-.39-1.318A17.916,17.916,0,0,0,92.52,0,18.11,18.11,0,0,0,79.734,5.271a1.486,1.486,0,0,0-.39,1.318.857.857,0,0,0-.244.2,14.379,14.379,0,0,0-1.757,2.489,24.316,24.316,0,0,0-1.318,2.782,15.728,15.728,0,0,0-.781,2.977A15.507,15.507,0,0,0,75,18.057v4.051a.808.808,0,0,0,.244.586C75.293,22.742,75.342,22.742,75.342,22.791Z" transform="translate(-70.169 0)" fill="url(#linear-gradient)"/>
        </g>
      </g>
    </g>
  </g>
</svg>
