<svg xmlns="http://www.w3.org/2000/svg" xmlns:xlink="http://www.w3.org/1999/xlink" width="443.693" height="513.046" viewBox="0 0 443.693 513.046">
  <defs>
    <linearGradient id="linear-gradient" x1="-0.18" y1="-0.206" x2="1.161" y2="1.143" gradientUnits="objectBoundingBox">
      <stop offset="0" stop-color="#f905f5"/>
      <stop offset="1" stop-color="#17c9f2"/>
    </linearGradient>
    <linearGradient id="linear-gradient-2" x1="-0.223" y1="-0.118" x2="1.117" y2="1.136" xlink:href="#linear-gradient"/>
  </defs>
  <g id="Card_Machine" data-name="Card Machine" transform="translate(0 -64.606)">
    <g id="OBJECTS">
      <rect id="Rectangle_2518" data-name="Rectangle 2518" width="228.512" height="358.303" rx="18" transform="translate(57.177 219.349)" fill="#575756"/>
      <rect id="Rectangle_2519" data-name="Rectangle 2519" width="42.326" height="28.212" rx="3.6" transform="translate(96.674 402.721)" fill="#b1b1b1"/>
      <rect id="Rectangle_2520" data-name="Rectangle 2520" width="42.326" height="28.212" rx="3.6" transform="translate(96.674 442.218)" fill="#b1b1b1"/>
      <rect id="Rectangle_2521" data-name="Rectangle 2521" width="42.326" height="28.212" rx="3.6" transform="translate(96.674 481.715)" fill="#b1b1b1"/>
      <rect id="Rectangle_2522" data-name="Rectangle 2522" width="42.326" height="28.212" rx="3.6" transform="translate(96.674 521.212)" fill="#f15c4f"/>
      <rect id="Rectangle_2523" data-name="Rectangle 2523" width="42.311" height="28.212" rx="3.6" transform="translate(150.285 402.721)" fill="#b1b1b1"/>
      <rect id="Rectangle_2524" data-name="Rectangle 2524" width="42.311" height="28.212" rx="3.6" transform="translate(150.285 442.218)" fill="#b1b1b1"/>
      <rect id="Rectangle_2525" data-name="Rectangle 2525" width="42.311" height="28.212" rx="3.6" transform="translate(150.285 481.715)" fill="#b1b1b1"/>
      <rect id="Rectangle_2526" data-name="Rectangle 2526" width="42.311" height="28.212" rx="3.6" transform="translate(150.285 521.212)" fill="#fed667"/>
      <rect id="Rectangle_2527" data-name="Rectangle 2527" width="42.326" height="28.212" rx="3.6" transform="translate(203.881 402.721)" fill="#b1b1b1"/>
      <rect id="Rectangle_2528" data-name="Rectangle 2528" width="42.326" height="28.212" rx="3.6" transform="translate(203.881 442.218)" fill="#b1b1b1"/>
      <rect id="Rectangle_2529" data-name="Rectangle 2529" width="42.326" height="28.212" rx="3.6" transform="translate(203.881 481.715)" fill="#b1b1b1"/>
      <rect id="Rectangle_2530" data-name="Rectangle 2530" width="42.326" height="28.212" rx="3.6" transform="translate(203.881 521.212)" fill="#6bd863"/>
      <rect id="Rectangle_2531" data-name="Rectangle 2531" width="145.019" height="9.404" transform="translate(98.931 228.753)" fill="#3c3c3b"/>
      <rect id="Rectangle_2532" data-name="Rectangle 2532" width="172.102" height="126.963" rx="9" transform="translate(85.389 247.561)" fill="url(#linear-gradient)"/>
      <rect id="Rectangle_2533" data-name="Rectangle 2533" width="72.509" height="9.404" transform="translate(151.969 333.329) rotate(-45)" fill="#fff"/>
      <path id="Path_1041" data-name="Path 1041" d="M120.67,230.139,95.031,204.5l-6.651,6.666,18.989,18.974Z" transform="translate(44.601 103.202)" fill="#fff"/>
      <path id="Path_1042" data-name="Path 1042" d="M0,0V122.071c0,10.249,12.126,18.558,27.084,18.558H126.21V0Z" transform="translate(0 64.606)" fill="#f5f5f5"/>
      <path id="Path_1043" data-name="Path 1043" d="M153.273,169.515V70.78H63.084A27.084,27.084,0,0,0,36,97.864v71.652Z" transform="translate(18.168 35.719)" fill="#d9d9d9"/>
      <path id="Path_1044" data-name="Path 1044" d="M49.793,145.484H18A27.084,27.084,0,0,0,45.084,118.4h4.71Z" transform="translate(9.084 59.751)" fill="#d9d9d9"/>
      <path id="Path_1045" data-name="Path 1045" d="M72,70.78V197.743H198.21V97.864A27.084,27.084,0,0,0,171.127,70.78Z" transform="translate(36.335 35.719)" fill="#fff"/>
      <path id="Path_1046" data-name="Path 1046" d="M85.778,70.78H54A27.084,27.084,0,0,1,81.084,97.864h4.71Z" transform="translate(27.251 35.719)" fill="#fff"/>
      <rect id="Rectangle_2534" data-name="Rectangle 2534" width="97.998" height="4.695" transform="translate(122.434 139.406)" fill="#d9d9d9"/>
      <rect id="Rectangle_2535" data-name="Rectangle 2535" width="97.998" height="4.695" transform="translate(122.434 158.214)" fill="#d9d9d9"/>
      <rect id="Rectangle_2536" data-name="Rectangle 2536" width="97.998" height="4.695" transform="translate(122.434 177.023)" fill="#d9d9d9"/>
      <rect id="Rectangle_2537" data-name="Rectangle 2537" width="97.998" height="4.695" transform="translate(122.434 195.831)" fill="#d9d9d9"/>
      <rect id="Rectangle_2538" data-name="Rectangle 2538" width="197.486" height="124.134" rx="9" transform="translate(246.207 394.265)" fill="url(#linear-gradient-2)"/>
      <rect id="Rectangle_2539" data-name="Rectangle 2539" width="32.275" height="11.872" transform="translate(348.899 484.243)" fill="#b1b1b1"/>
      <rect id="Rectangle_2540" data-name="Rectangle 2540" width="32.275" height="11.872" transform="translate(389.089 484.243)" fill="#b1b1b1"/>
      <rect id="Rectangle_2541" data-name="Rectangle 2541" width="32.275" height="11.872" transform="translate(268.536 484.243)" fill="#b1b1b1"/>
      <rect id="Rectangle_2542" data-name="Rectangle 2542" width="32.275" height="11.872" transform="translate(308.71 484.243)" fill="#b1b1b1"/>
      <path id="Path_1047" data-name="Path 1047" d="M280.1,299h0a1.971,1.971,0,0,1,1.971-1.971h8.742v-8.125h-8.727a1.971,1.971,0,0,1-1.971-1.971h0a1.971,1.971,0,0,1,1.971-1.971h8.727v-3.37a4.755,4.755,0,0,0-4.755-4.755h-22.72a4.755,4.755,0,0,0-4.755,4.755v3.37h8.772a1.986,1.986,0,0,1,1.986,1.971h0a1.986,1.986,0,0,1-1.986,1.971H258.58v8.125h8.772A1.986,1.986,0,0,1,269.338,299h0a1.986,1.986,0,0,1-1.986,1.986H258.58v3.37a4.755,4.755,0,0,0,4.755,4.755H286.1a4.755,4.755,0,0,0,4.755-4.755v-3.37h-8.772A1.986,1.986,0,0,1,280.1,299Z" transform="translate(130.494 139.709)" fill="#fed667"/>
      <rect id="Rectangle_2543" data-name="Rectangle 2543" width="72.449" height="11.872" transform="translate(268.536 416.534)" fill="#fff"/>
    </g>
  </g>
</svg>
