<?xml version="1.0" encoding="utf-8"?>
<!-- Generator: Adobe Illustrator 21.0.0, SVG Export Plug-In . SVG Version: 6.00 Build 0)  -->
<svg version="1.1" id="Layer_1" xmlns="http://www.w3.org/2000/svg" xmlns:xlink="http://www.w3.org/1999/xlink" x="0px" y="0px"
	 viewBox="0 0 720 800" style="enable-background:new 0 0 720 800;" xml:space="preserve">
<style type="text/css">
	.st0{display:none;}
	.st1{display:inline;fill:none;}
	.st2{fill:url(#Ellipse_2757_2_);}
	.st3{opacity:0.58;fill:#F905F5;enable-background:new    ;}
	.st4{opacity:0.64;fill:url(#Ellipse_2751-2_2_);enable-background:new    ;}
	.st5{fill:#FFFFFF;}
	.st6{fill:#95BF46;}
	.st7{fill:#5E8E3E;}
	.st8{opacity:0.71;fill:url(#Subtraction_41_2_);enable-background:new    ;}
	.st9{clip-path:url(#SVGID_2_);}
	.st10{fill:#00749A;}
	.st11{fill:#464342;}
	.st12{fill:url(#Ellipse_2754-2_2_);}
	.st13{opacity:0.64;fill:url(#Ellipse_2753-2_2_);enable-background:new    ;}
	.st14{opacity:0.58;fill:#17C9F2;enable-background:new    ;}
	.st15{fill:#FF8200;}
	.st16{fill:#43B02A;}
	.st17{fill:#9B5C8F;}
	.st18{fill:#00A1E0;}
	.st19{fill:#70CADB;}
	.st20{fill:#E01765;}
	.st21{fill:#E8A723;}
	.st22{fill:#3EB890;}
	.st23{fill:#CC2027;}
	.st24{fill:#361238;}
	.st25{fill:#65863A;}
	.st26{fill:#1A937D;}
</style>
<g class="st0">
	
		<rect x="382.2" y="12.6" transform="matrix(0.1441 -0.9896 0.9896 0.1441 317.8045 413.6079)" class="st1" width="31.7" height="21"/>
	<path class="st1" d="M754.2,42.2c6.4,0,10.4-2.8,10.4-7.1c0-9.3-15.2-4.7-15.2-10.4c0-1.9,1.8-3.3,5.7-3.3c2.4,0,4.9,0.6,6.9,1.9
		l1.8-3.4c-2.7-1.5-5.7-2.2-8.7-2.2c-6.2,0-10,2.9-10,7.2c0,9.6,15.2,4.9,15.2,10.3c0,2-1.7,3.3-5.7,3.3c-3,0-5.9-0.9-8.4-2.5
		l-1.8,3.4C746.2,41,750.2,42.2,754.2,42.2z"/>
</g>
<g id="right_sale_force">
	
		<linearGradient id="Ellipse_2757_2_" gradientUnits="userSpaceOnUse" x1="11.9063" y1="798.4125" x2="10.6303" y2="797.2454" gradientTransform="matrix(50 0 0 -50 54 40004)">
		<stop  offset="0" style="stop-color:#F905F5"/>
		<stop  offset="1" style="stop-color:#17C9F2"/>
	</linearGradient>
	<circle id="Ellipse_2757_1_" class="st2" cx="611.6" cy="117.9" r="25"/>
</g>
<g id="above_right__saleforce">
	<g transform="matrix(1, 0, 0, 1, 0, 0)">
		<circle id="Ellipse_2759-2_1_" class="st3" cx="483.6" cy="64.5" r="34.5"/>
	</g>
</g>
<g id="below_carrort">
	<g transform="matrix(1, 0, 0, 1, 0, 0)">
		
			<linearGradient id="Ellipse_2751-2_2_" gradientUnits="userSpaceOnUse" x1="0.703" y1="799.3979" x2="-0.181" y2="798.8979" gradientTransform="matrix(222 0 0 -222 63 177610)">
			<stop  offset="0" style="stop-color:#FF6F00"/>
			<stop  offset="1" style="stop-color:#FFB829"/>
		</linearGradient>
		<circle id="Ellipse_2751-2_1_" class="st4" cx="123.1" cy="197.9" r="111"/>
	</g>
</g>
<g id="shopfiy">
	<g id="Group_1362_1_" transform="translate(9 6)">
		<g transform="matrix(1, 0, 0, 1, -9, -6)">
			<path id="Path_696-2_1_" class="st5" d="M395.4,292.7c46.3,0,83.8,37.5,83.8,83.8s-37.5,83.8-83.8,83.8s-83.8-37.5-83.8-83.8
				S349.2,292.7,395.4,292.7z"/>
		</g>
		<g id="shopify_1_" transform="translate(46.771 42.094)">
			<path id="Path_673_1_" class="st6" d="M367.1,303c-0.1-0.4-0.4-0.6-0.7-0.7c-0.3,0-6.7-0.5-6.7-0.5s-4.5-4.4-5-4.9
				c-0.5-0.4-1.2-0.4-1.8-0.2l-2.5,0.8c-1.5-4.3-4.1-8.2-8.8-8.2c-0.1,0-0.3,0-0.4,0c-1-1.5-2.6-2.4-4.4-2.5
				c-10.8,0-16,13.5-17.6,20.3c-4.2,1.3-7.2,2.2-7.6,2.3c-2.3,0.7-2.4,0.8-2.7,3c-0.2,1.7-6.4,49-6.4,49l47.7,8.9l25.9-5.6
				C376.3,364.8,367.2,303.4,367.1,303z M347.7,298.2l-4,1.2c0-0.3,0-0.6,0-0.9c0-2.2-0.3-4.4-1-6.5
				C345.1,292.4,346.7,295.1,347.7,298.2z M339.8,292.6c0.8,2.3,1.2,4.8,1.1,7.3c0,0.2,0,0.3,0,0.5l-8.4,2.6
				C334.1,296.7,337.1,293.7,339.8,292.6z M336.6,289.6c0.5,0,1,0.2,1.4,0.5c-3.5,1.6-7.2,5.7-8.7,13.9l-6.6,2
				C324.5,299.8,328.8,289.6,336.6,289.6L336.6,289.6z"/>
			<path id="Path_674_1_" class="st7" d="M366.4,302.3c-0.3,0-6.7-0.5-6.7-0.5s-4.5-4.4-5-4.9c-0.2-0.2-0.4-0.3-0.7-0.3l-3.6,73.8
				l25.9-5.6c0,0-9.1-61.4-9.1-61.8C367.1,302.6,366.8,302.3,366.4,302.3"/>
			<path id="Path_675_1_" class="st5" d="M341.6,316.6l-3.2,9.5c-1.9-0.9-4.1-1.5-6.2-1.5c-5,0-5.3,3.2-5.3,3.9
				c0,4.3,11.3,6,11.3,16.1c0,8-5.1,13.1-11.9,13.1c-4.7,0.1-9.2-1.7-12.4-5.1l2.2-7.2c0,0,4.3,3.7,7.9,3.7c1.8,0.1,3.3-1.3,3.3-3.1
				c0-0.1,0-0.1,0-0.2c0-5.7-9.3-5.9-9.3-15.2c0-7.8,5.6-15.4,16.9-15.4C339.5,315.3,341.6,316.6,341.6,316.6"/>
		</g>
	</g>
</g>
<g id="right_below_wordpres">
	
		<linearGradient id="Subtraction_41_2_" gradientUnits="userSpaceOnUse" x1="12.2424" y1="791.5817" x2="10.8944" y2="790.9717" gradientTransform="matrix(54.9861 0 0 -85.9982 54.0139 68802.5703)">
		<stop  offset="0" style="stop-color:#55E5FC"/>
		<stop  offset="1" style="stop-color:#AD08D5"/>
	</linearGradient>
	<path id="Subtraction_41_1_" class="st8" d="M707.9,786c-23.8,0-43-19.3-43-43c0-17.3,10.3-32.9,26.2-39.6
		c9.1-3.8,19.2-4.4,28.7-1.7v82.6C716,785.5,712,786,707.9,786z"/>
</g>
<g id="wordpres">
	<g id="Group_1364_1_" transform="translate(9 6)">
		<g transform="matrix(1, 0, 0, 1, -9, -6)">
			<path id="Path_697-2_1_" class="st5" d="M568,506.1c53.5,0,97,43.4,97,97s-43.4,97-97,97c-53.5,0-97-43.4-97-97c0,0,0,0,0,0
				C471,549.5,514.4,506.1,568,506.1z"/>
		</g>
		<g>
			<defs>
				<rect id="SVGID_1_" x="506.6" y="544.8" width="105.1" height="105.1"/>
			</defs>
			<clipPath id="SVGID_2_">
				<use xlink:href="#SVGID_1_"  style="overflow:visible;"/>
			</clipPath>
			<g id="wordpress-blue_1_" transform="translate(44.619 44.619)" class="st9">
				<path id="Path_687_1_" class="st10" d="M730.8,541.5h-18.2v1.9c5.7,0,6.6,1.2,6.6,8.5v13c0,7.2-0.9,8.6-6.6,8.6
					c-4.4-0.6-7.3-3-11.4-7.4l-4.7-5.1c6.3-1.1,9.7-5.1,9.7-9.6c0-5.6-4.8-9.9-13.8-9.9h-17.9v1.9c5.7,0,6.6,1.2,6.6,8.5v13
					c0,7.2-0.9,8.6-6.6,8.6v1.9h20.3v-1.9c-5.7,0-6.6-1.3-6.6-8.6v-3.7h1.7l11.3,14.2h29.7c14.6,0,20.9-7.7,20.9-17
					S745.3,541.5,730.8,541.5L730.8,541.5z M688.1,558.1v-13.5h4.2c4.6,0,6.6,3.2,6.6,6.8c0,3.6-2,6.7-6.6,6.7L688.1,558.1z
					 M731.1,572.3h-0.7c-3.7,0-4.2-0.9-4.2-5.6v-22.1h4.9c10.6,0,12.5,7.7,12.5,13.8C743.6,564.5,741.7,572.3,731.1,572.3z
					 M617.7,561.9l7-20.8c2-6,1.1-7.7-5.4-7.7v-2h19.2v2c-6.4,0-7.9,1.5-10.5,9l-11.6,34.8H615l-10.4-31.9L594,577.2h-1.3
					l-11.3-34.8c-2.4-7.4-4.1-9-10-9v-2H594v2c-6,0-7.6,1.4-5.5,7.7l6.8,20.8l10.3-30.6h1.9L617.7,561.9L617.7,561.9z M652.3,576.8
					c-11.2,0-20.4-8.3-20.4-18.3c0-10,9.2-18.2,20.4-18.2c11.2,0,20.4,8.3,20.4,18.2C672.7,568.5,663.5,576.8,652.3,576.8z
					 M652.3,543.4c-9.4,0-12.6,8.5-12.6,15.1c0,6.7,3.3,15.1,12.6,15.1c9.5,0,12.7-8.4,12.7-15.1C665,551.8,661.8,543.4,652.3,543.4
					z"/>
				<path id="Path_688_1_" class="st11" d="M776.8,573.4v2h-23.3v-2c6.8,0,8-1.7,8-11.9v-16.3c0-10.2-1.2-11.8-8-11.8v-2h21.1
					c10.5,0,16.3,5.4,16.3,12.6c0,7-5.8,12.5-16.3,12.5h-5.8v5C768.8,571.7,770,573.4,776.8,573.4L776.8,573.4z M774.6,535h-5.8
					v17.7h5.8c5.7,0,8.4-4,8.4-8.8C782.9,539.1,780.3,535,774.6,535L774.6,535z M860.9,565.9l-0.5,1.8c-0.9,3.4-2,4.6-9.3,4.6h-1.4
					c-5.3,0-6.2-1.2-6.2-8.5v-4.7c7.9,0,8.6,0.7,8.6,6h1.9V550H852c0,5.3-0.6,6-8.6,6v-11.4h5.6c7.2,0,8.4,1.2,9.3,4.6l0.5,1.9h1.6
					l-0.7-9.6h-30v1.9c5.7,0,6.6,1.2,6.6,8.5v13c0,6.6-0.8,8.3-5.3,8.5c-4.3-0.7-7.2-3-11.2-7.4l-4.7-5.1c6.3-1.1,9.7-5.1,9.7-9.6
					c0-5.6-4.8-9.9-13.8-9.9h-17.9v1.9c5.7,0,6.6,1.2,6.6,8.5v13c0,7.2-0.9,8.6-6.6,8.6v1.9h20.3v-1.9c-5.7,0-6.6-1.3-6.6-8.6v-3.7
					h1.7l11.3,14.2h41.9l0.6-9.6L860.9,565.9L860.9,565.9z M806.9,558.1v-13.5h4.2c4.6,0,6.6,3.2,6.6,6.8c0,3.6-2,6.7-6.6,6.7
					L806.9,558.1z M881.6,576.8c-3.4-0.1-6.6-1.3-9.2-3.5c-0.8,1-1.4,2.2-1.6,3.5h-1.9v-14.1h2c0.8,6.7,5.5,10.7,11.5,10.7
					c3.3,0,5.9-1.8,5.9-4.9c0-2.6-2.3-4.7-6.5-6.6l-5.8-2.8c-4.1-1.9-7.1-5.3-7.1-9.8c0-4.9,4.6-9.1,10.9-9.1c2.9,0,5.7,0.9,7.9,2.6
					c0.7-0.8,1.1-1.7,1.3-2.8h1.9v12h-2.1c-0.7-4.8-3.4-8.8-8.8-8.8c-2.9,0-5.5,1.6-5.5,4.2c0,2.6,2.1,4.1,7,6.3l5.6,2.8
					c4.9,2.3,6.8,6.1,6.8,9.2C894,572.3,888.4,576.8,881.6,576.8L881.6,576.8z M912.9,576.8c-3.4-0.1-6.6-1.3-9.2-3.5
					c-0.8,1-1.4,2.2-1.6,3.5h-1.9v-14.1h2c0.8,6.7,5.5,10.7,11.5,10.7c3.3,0,5.9-1.8,5.9-4.9c0-2.6-2.3-4.7-6.5-6.6l-5.8-2.8
					c-4.1-1.9-7.1-5.3-7.1-9.8c0-4.9,4.6-9.1,10.9-9.1c2.9,0,5.7,0.9,7.9,2.6c0.7-0.8,1.1-1.7,1.3-2.8h1.9v12h-2.1
					c-0.7-4.8-3.4-8.8-8.8-8.8c-2.9,0-5.5,1.6-5.5,4.2c0,2.6,2.1,4.1,7,6.3l5.6,2.8c4.9,2.3,6.8,6.1,6.8,9.2
					C925.4,572.3,919.8,576.8,912.9,576.8L912.9,576.8z"/>
				<g id="Group_1223_1_">
					<path id="Path_689_1_" class="st10" d="M469.5,552.7c0,17.3,9.9,33,25.4,40.6l-21.5-58.9C470.8,540.1,469.5,546.4,469.5,552.7z
						 M545,550.4c-0.1-4.4-1.3-8.7-3.7-12.4c-2.3-3.7-4.4-6.9-4.4-10.6c-0.1-4.3,3.3-7.9,7.6-8c0.2,0,0.4,0,0.6,0
						c-18.4-16.8-46.9-15.6-63.7,2.8c-1.6,1.8-3.1,3.7-4.4,5.7c1.1,0,2.1,0.1,2.9,0.1c4.7,0,12-0.6,12-0.6c1-0.1,1.9,0.7,2,1.7
						c0.1,1-0.7,1.9-1.7,2c0,0-2.4,0.3-5.2,0.4l16.4,48.8l9.9-29.6l-7-19.2c-2.4-0.1-4.7-0.4-4.7-0.4c-2.4-0.1-2.1-3.9,0.3-3.7
						c0,0,7.4,0.6,11.9,0.6c4.7,0,12-0.6,12-0.6c1-0.1,1.9,0.7,2,1.7c0.1,1-0.7,1.9-1.7,2l0,0c0,0-2.4,0.3-5.2,0.4l16.3,48.5l4.5-15
						C543.6,558.8,545,554.3,545,550.4L545,550.4z"/>
					<path id="Path_690_1_" class="st10" d="M515.4,556.6L501.8,596c9.1,2.7,18.8,2.4,27.7-0.7c-0.1-0.2-0.2-0.4-0.3-0.6
						L515.4,556.6z M554.2,531.1c0.2,1.5,0.3,3.1,0.3,4.6c-0.1,5.6-1.2,11-3.4,16.2l-13.8,39.8C558.4,579.4,565.9,552.5,554.2,531.1
						L554.2,531.1z"/>
					<path id="Path_691_1_" class="st10" d="M514.6,500.1c-29,0-52.6,23.5-52.6,52.6c0,29,23.5,52.6,52.6,52.6
						c29,0,52.6-23.5,52.6-52.6C567.1,523.7,543.6,500.2,514.6,500.1z M514.6,602.9c-27.7,0-50.2-22.5-50.2-50.2
						s22.5-50.2,50.2-50.2c27.7,0,50.2,22.5,50.2,50.2C564.7,580.4,542.3,602.8,514.6,602.9z"/>
				</g>
			</g>
		</g>
	</g>
</g>
<g id="below_slac">
	<g transform="matrix(1, 0, 0, 1, 0, 0)">
		
			<linearGradient id="Ellipse_2754-2_2_" gradientUnits="userSpaceOnUse" x1="0.9836" y1="797.0514" x2="0.2986" y2="798.3553" gradientTransform="matrix(278 0 0 -278 63 222410)">
			<stop  offset="0" style="stop-color:#E01765"/>
			<stop  offset="1" style="stop-color:#8ED6FF;stop-opacity:0.451"/>
		</linearGradient>
		<circle id="Ellipse_2754-2_1_" class="st12" cx="224.2" cy="615.9" r="139"/>
	</g>
</g>
<g id="below_waoo">
	<g transform="matrix(1, 0, 0, 1, 0, 0)">
		
			<linearGradient id="Ellipse_2753-2_2_" gradientUnits="userSpaceOnUse" x1="3.6973" y1="798.3574" x2="3.6973" y2="797.3574" gradientTransform="matrix(151 0 0 -151 63 120810)">
			<stop  offset="0" style="stop-color:#17C9F2"/>
			<stop  offset="1" style="stop-color:#0C6579"/>
		</linearGradient>
		<circle id="Ellipse_2753-2_1_" class="st13" cx="621.3" cy="333.5" r="75.5"/>
	</g>
</g>
<g id="above_left_saleforce">
	<g transform="matrix(1, 0, 0, 1, 0, 0)">
		<circle id="Ellipse_2752-2_1_" class="st14" cx="330" cy="64.5" r="34.5"/>
	</g>
</g>
<g id="carrot">
	<g id="Group_1365_1_" transform="translate(9 6)">
		<g transform="matrix(1, 0, 0, 1, -9, -6)">
			<path id="Path_694-2_1_" class="st5" d="M155,137.5c49.7,0,90,40.3,90,90s-40.3,90-90,90s-90-40.3-90-90S105.3,137.5,155,137.5z"
				/>
		</g>
		<g id="instacart-1_1_" transform="translate(43.745 69.969) rotate(-25)">
			<g id="Logo_3_">
				<path id="Carrot_1_" class="st15" d="M40.3,173c4.5,4.5,8.1,11.8,6,16.2c-5.6,11.6-47.2,32.1-50.7,28.5
					c-3.5-3.5,16.9-45.2,28.6-50.7C28.5,164.9,35.9,168.6,40.3,173C40.3,173,40.3,173,40.3,173z"/>
				<path id="Leaves_1_" class="st16" d="M62.4,168.1c-0.7-2.7-2.6-5.4-5.3-5.7c-5.1-0.6-13,8.4-12.5,10.5c0.6,2.1,11.8,5.9,16,2.8
					C62.8,174.2,63.1,170.8,62.4,168.1L62.4,168.1z M46.7,143.4c3.8,1,7.5,3.6,8,7.5c0.8,7.1-11.7,18.3-14.7,17.5
					c-3-0.8-8.2-16.6-4-22.5C38.2,142.8,43,142.4,46.7,143.4C46.7,143.4,46.7,143.4,46.7,143.4L46.7,143.4z"/>
			</g>
		</g>
	</g>
</g>
<g id="woo">
	<g id="Group_1361_1_" transform="translate(9 6)">
		<g transform="matrix(1, 0, 0, 1, -9, -6)">
			<path id="Path_695-2_1_" class="st5" d="M579.4,195.6c53,0,95.9,42.9,95.9,95.9s-42.9,95.9-95.9,95.9c-53,0-95.9-42.9-95.9-95.9
				S526.5,195.6,579.4,195.6z"/>
		</g>
		<g id="woocommerce_1_" transform="translate(36.329 60.768)">
			<path id="Path_685_1_" class="st17" d="M485.6,189.6H582c6.1,0,11,4.9,11,11c0,0,0,0,0,0v36.8c0,6.1-4.9,11-11,11c0,0,0,0,0,0
				h-34.6l4.7,11.6l-20.9-11.6h-45.7c-6.1,0-11-4.9-11-11c0,0,0,0,0,0v-36.8C474.5,194.6,479.4,189.7,485.6,189.6
				C485.5,189.6,485.5,189.6,485.6,189.6z"/>
			<path id="Path_686_1_" class="st5" d="M481.3,199.7c0.7-0.9,1.8-1.5,3-1.5c2.5-0.2,3.9,1,4.2,3.5c1.5,10.1,3.1,18.6,4.9,25.6
				l10.6-20.1c1-1.8,2.2-2.8,3.6-2.9c2.1-0.1,3.4,1.2,3.9,4c1,5.6,2.5,11.1,4.6,16.5c1.3-12.2,3.4-21.1,6.4-26.5
				c0.6-1.2,1.8-2.1,3.2-2.1c1.1-0.1,2.2,0.3,3,1c0.9,0.7,1.4,1.7,1.5,2.7c0.1,0.8-0.1,1.6-0.5,2.3c-1.9,3.5-3.4,9.3-4.7,17.4
				c-1.2,7.9-1.6,14-1.3,18.4c0.1,1.1-0.1,2.2-0.6,3.2c-0.5,1-1.5,1.6-2.6,1.7c-1.5,0-2.9-0.6-3.8-1.8c-4.5-4.6-8-11.4-10.6-20.5
				c-3.1,6.2-5.4,10.8-6.9,13.9c-2.8,5.4-5.2,8.2-7.3,8.4c-1.3,0.1-2.4-1-3.4-3.3c-2.5-6.3-5.1-18.5-7.9-36.6
				C480.3,201.8,480.6,200.6,481.3,199.7L481.3,199.7z M584.8,207.3c-1.6-2.9-4.4-5-7.7-5.6c-0.9-0.2-1.7-0.3-2.6-0.3
				c-4.6,0-8.4,2.4-11.3,7.2c-2.5,4.1-3.8,8.8-3.8,13.6c-0.1,3.3,0.7,6.6,2.3,9.5c1.6,2.9,4.4,5,7.7,5.6c0.9,0.2,1.7,0.3,2.6,0.3
				c4.7,0,8.4-2.4,11.3-7.2c2.5-4.1,3.8-8.8,3.8-13.6C587.2,213.4,586.4,210.1,584.8,207.3L584.8,207.3z M578.7,220.6
				c-0.4,2.7-1.7,5.2-3.7,7.1c-1.4,1.3-2.7,1.8-3.9,1.5c-1.2-0.2-2.1-1.3-2.8-3.1c-0.6-1.4-0.8-2.9-0.9-4.4c0-1.2,0.1-2.4,0.3-3.5
				c0.5-2.1,1.3-4,2.6-5.7c1.6-2.4,3.3-3.3,5-3c1.2,0.2,2.1,1.3,2.8,3.1c0.6,1.4,0.8,2.9,0.9,4.4C579.1,218.2,579,219.4,578.7,220.6
				L578.7,220.6z M554.7,207.3c-1.6-2.9-4.4-5-7.7-5.6c-0.9-0.2-1.7-0.3-2.6-0.3c-4.6,0-8.4,2.4-11.3,7.2c-2.5,4.1-3.8,8.8-3.8,13.6
				c-0.1,3.3,0.7,6.6,2.3,9.5c1.6,2.9,4.4,5,7.7,5.6c0.9,0.2,1.7,0.3,2.6,0.3c4.7,0,8.4-2.4,11.3-7.2c2.5-4.1,3.8-8.8,3.8-13.6
				C557.1,213.4,556.3,210.2,554.7,207.3L554.7,207.3z M548.5,220.6c-0.4,2.7-1.7,5.2-3.7,7.1c-1.4,1.3-2.7,1.8-3.9,1.5
				c-1.2-0.2-2.1-1.3-2.8-3.1c-0.6-1.4-0.8-2.9-0.9-4.4c0-1.2,0.1-2.4,0.3-3.5c0.5-2.1,1.3-4,2.6-5.7c1.6-2.4,3.3-3.3,5-3
				c1.2,0.2,2.1,1.3,2.8,3.1c0.6,1.4,0.9,2.9,0.9,4.4C548.9,218.2,548.8,219.4,548.5,220.6L548.5,220.6z"/>
		</g>
	</g>
</g>
<g id="saleforce">
	<g id="Group_1360_1_" transform="translate(9 6)">
		<g transform="matrix(1, 0, 0, 1, -9, -6)">
			<path id="Path_693-2_1_" class="st5" d="M410.7,85.8c44.4,0,80.5,36,80.5,80.5s-36,80.5-80.5,80.5s-80.5-36-80.5-80.5
				c0,0,0,0,0,0C330.2,121.8,366.3,85.8,410.7,85.8z"/>
		</g>
		<g id="salesforce-2_1_" transform="translate(20.043 37.978)">
			<path id="Path_670_1_" class="st18" d="M371.5,89c4-4.2,9.5-6.6,15.3-6.6c7.8,0,14.9,4.3,18.6,11c3.3-1.5,6.9-2.2,10.5-2.2
				c14.5,0.1,26.2,12,26,26.5c-0.1,14.3-11.7,25.9-26,26c-1.7,0-3.4-0.2-5.1-0.5c-4.9,8.8-15.9,12.2-24.9,7.8
				c-4.7,11-17.4,16.2-28.5,11.5c-5.5-2.3-9.8-6.9-11.9-12.5c-1.4,0.3-2.8,0.4-4.1,0.4c-11.3-0.1-20.3-9.4-20.2-20.6
				c0.1-7.2,3.9-13.7,10.1-17.4c-5.1-11.9,0.4-25.7,12.2-30.8C353.4,77.5,365,80.5,371.5,89"/>
			<path id="Path_671_1_" class="st5" d="M338.7,123.6c-0.1,0.2,0,0.2,0.1,0.3c0.2,0.2,0.5,0.3,0.7,0.4c1.1,0.6,2.4,0.9,3.6,0.8
				c2.5,0,4-1.3,4-3.4v0c0-2-1.7-2.7-3.4-3.2l-0.2-0.1c-1.2-0.4-2.3-0.7-2.3-1.6v0c0-0.7,0.6-1.2,1.6-1.2c1.1,0,2.2,0.3,3.1,0.8
				c0,0,0.2,0.2,0.3-0.1c0-0.1,0.5-1.2,0.5-1.4c0-0.1,0-0.2-0.1-0.3c-1.1-0.6-2.3-1-3.5-1h-0.2c-2.3,0-3.8,1.4-3.8,3.3v0
				c0,2.1,1.7,2.7,3.4,3.2l0.3,0.1c1.2,0.4,2.2,0.7,2.2,1.5v0c0,0.8-0.7,1.3-1.7,1.3c-1.1,0-2.2-0.3-3.2-0.9
				c-0.2-0.1-0.3-0.2-0.4-0.3c-0.1-0.1-0.2-0.1-0.3,0c0,0,0,0.1,0,0.1L338.7,123.6z M375,123.6c-0.1,0.2,0,0.2,0.1,0.3
				c0.2,0.2,0.5,0.3,0.7,0.4c1.1,0.6,2.4,0.9,3.6,0.8c2.5,0,4-1.3,4-3.4v0c0-2-1.7-2.7-3.4-3.2l-0.2-0.1c-1.2-0.4-2.3-0.7-2.3-1.6v0
				c0-0.7,0.6-1.2,1.6-1.2c1.1,0,2.2,0.3,3.1,0.8c0,0,0.2,0.2,0.3-0.1c0-0.1,0.5-1.2,0.5-1.4c0-0.1,0-0.2-0.1-0.3
				c-1.1-0.6-2.3-1-3.5-1h-0.2c-2.3,0-3.8,1.4-3.8,3.3v0c0,2.1,1.7,2.7,3.4,3.2l0.3,0.1c1.2,0.4,2.2,0.7,2.2,1.5v0
				c0,0.8-0.7,1.3-1.7,1.3c-1.1,0-2.2-0.3-3.2-0.9c-0.2-0.1-0.3-0.2-0.4-0.3c-0.1-0.1-0.2,0-0.3,0c0,0,0,0,0,0.1L375,123.6
				L375,123.6z M399.7,119.5c0.1,1-0.2,2-0.7,2.8c-0.4,0.7-1.2,1-2,1c-0.8,0.1-1.6-0.3-2-1c-0.9-1.8-0.9-3.8,0-5.6
				c0.4-0.7,1.2-1,2-1c0.8-0.1,1.6,0.3,2,1C399.6,117.5,399.8,118.5,399.7,119.5 M401.8,117.3c-0.2-0.7-0.5-1.3-0.9-1.8
				c-0.4-0.5-1-0.9-1.6-1.2c-1.4-0.6-3-0.6-4.4,0c-0.6,0.3-1.2,0.7-1.6,1.2c-0.4,0.5-0.8,1.1-0.9,1.8c-0.4,1.5-0.4,3,0,4.4
				c0.2,0.7,0.5,1.3,0.9,1.8c0.4,0.5,1,0.9,1.6,1.2c1.4,0.6,3,0.6,4.4,0c0.6-0.3,1.2-0.7,1.6-1.2c0.4-0.5,0.8-1.1,0.9-1.8
				C402.2,120.3,402.2,118.7,401.8,117.3 M418.8,123c0-0.1-0.1-0.2-0.3-0.1c0,0,0,0,0,0c-0.3,0.1-0.6,0.2-1,0.3
				c-0.4,0.1-0.8,0.1-1.1,0.1c-0.9,0-1.7-0.3-2.4-0.9c-0.7-0.8-1-1.8-0.9-2.8c0-1,0.2-1.9,0.8-2.7c0.6-0.7,1.4-1.1,2.3-1
				c0.7,0,1.5,0.1,2.2,0.3c0,0,0.2,0.1,0.2-0.1c0.2-0.5,0.3-0.9,0.5-1.4c0-0.1,0-0.2-0.1-0.2c0,0,0,0,0,0c-0.4-0.2-0.9-0.3-1.4-0.3
				c-0.5-0.1-1-0.1-1.6-0.1c-0.8,0-1.6,0.1-2.3,0.4c-0.6,0.3-1.2,0.7-1.7,1.2c-0.5,0.5-0.8,1.1-1,1.8c-0.2,0.7-0.3,1.5-0.3,2.2
				c-0.1,1.5,0.4,3,1.4,4.1c1.1,1.1,2.6,1.6,4.1,1.5c1,0,2-0.2,2.9-0.5c0.1,0,0.1-0.2,0.1-0.2L418.8,123z M422.4,118.3
				c0.1-0.6,0.3-1.1,0.6-1.7c0.4-0.7,1.2-1.1,2-1c0.8,0,1.5,0.3,2,1c0.3,0.5,0.5,1.1,0.5,1.7H422.4z M429.4,116.9
				c-0.2-0.6-0.5-1.2-0.9-1.6c-0.4-0.4-0.8-0.8-1.3-1c-0.6-0.3-1.3-0.4-2-0.4c-0.8,0-1.6,0.1-2.3,0.4c-0.6,0.3-1.2,0.7-1.6,1.2
				c-0.4,0.5-0.8,1.2-0.9,1.8c-0.2,0.7-0.3,1.5-0.3,2.2c0,0.8,0.1,1.5,0.3,2.2c0.4,1.4,1.4,2.5,2.8,2.9c0.8,0.3,1.7,0.4,2.5,0.4
				c1.2,0.1,2.4-0.2,3.5-0.7c0.1,0,0.2-0.1,0.1-0.3l-0.5-1.3c0-0.1-0.2-0.2-0.3-0.1c0,0,0,0,0,0c-0.9,0.4-1.9,0.6-2.9,0.5
				c-1.6,0.2-3-0.9-3.2-2.5c0-0.2,0-0.4,0-0.7l7,0c0.1,0,0.2-0.1,0.2-0.2C429.7,118.9,429.6,117.9,429.4,116.9 M366.4,118.3
				c0.1-0.6,0.3-1.1,0.6-1.7c0.4-0.7,1.2-1.1,2-1c0.8,0,1.5,0.3,2,1c0.3,0.5,0.4,1.1,0.5,1.7H366.4z M373.3,116.9
				c-0.2-0.6-0.5-1.2-0.9-1.6c-0.4-0.4-0.8-0.8-1.3-1c-0.6-0.3-1.3-0.4-2-0.4c-0.8,0-1.6,0.1-2.3,0.4c-0.6,0.3-1.2,0.7-1.6,1.2
				c-0.4,0.5-0.8,1.2-0.9,1.8c-0.2,0.7-0.3,1.5-0.3,2.2c0,0.8,0.1,1.5,0.3,2.2c0.4,1.4,1.4,2.5,2.8,2.9c0.8,0.3,1.7,0.4,2.5,0.4
				c1.2,0.1,2.4-0.2,3.5-0.7c0.1,0,0.2-0.1,0.1-0.3l-0.5-1.3c0-0.1-0.1-0.2-0.3-0.1c0,0,0,0,0,0c-0.9,0.4-1.9,0.6-2.9,0.5
				c-1.6,0.2-3-0.9-3.2-2.5c0-0.2,0-0.4,0-0.7l7,0c0.1,0,0.2-0.1,0.2-0.2C373.7,118.9,373.6,117.9,373.3,116.9 M351.2,122.9
				c-0.2-0.1-0.3-0.3-0.4-0.4c-0.2-0.3-0.2-0.6-0.2-0.9c0-0.5,0.2-1,0.6-1.4c0.6-0.4,1.3-0.6,2-0.5c0.6,0,1.3,0.1,1.9,0.2v3.2l0,0
				c-0.6,0.1-1.3,0.2-1.9,0.3C352.6,123.4,351.9,123.3,351.2,122.9 M354,118c-0.3,0-0.7,0-1.1,0c-0.6,0-1.2,0.1-1.7,0.2
				c-0.5,0.1-1,0.4-1.5,0.7c-0.9,0.6-1.4,1.7-1.4,2.8c0,0.6,0.1,1.1,0.3,1.6c0.2,0.4,0.5,0.8,0.9,1.1c0.4,0.3,0.9,0.5,1.4,0.6
				c0.6,0.1,1.2,0.2,1.9,0.2c0.7,0,1.4-0.1,2.1-0.2c0.7-0.1,1.5-0.3,1.8-0.3c0.2,0,0.3-0.1,0.5-0.1c0.1,0,0.2-0.1,0.2-0.2v-6.4
				c0.1-1.1-0.3-2.3-1.1-3.1c-0.9-0.7-2.1-1-3.2-1c-0.6,0-1.3,0.1-1.9,0.2c-0.8,0.1-1.5,0.4-2.2,0.8c-0.1,0.1-0.1,0.2-0.1,0.3
				l0.5,1.3c0,0.1,0.1,0.1,0.2,0.1c0,0,0,0,0,0c0,0,0.1,0,0.1-0.1c1-0.5,2-0.7,3-0.7c0.6,0,1.2,0.1,1.7,0.5c0.4,0.3,0.6,0.7,0.6,1.7
				v0.3C354.6,118.1,354,118,354,118 M410.5,114.4c0-0.1,0-0.2-0.1-0.2c0,0,0,0,0,0c-0.4-0.1-0.8-0.2-1.2-0.2
				c-0.6-0.1-1.2,0-1.8,0.3c-0.5,0.2-0.9,0.5-1.2,0.9v-0.9c0-0.1-0.1-0.2-0.2-0.2c0,0,0,0,0,0h-1.8c-0.1,0-0.2,0.1-0.2,0.2
				c0,0,0,0,0,0v10.4c0,0.1,0.1,0.2,0.2,0.2h1.8c0.1,0,0.2-0.1,0.2-0.2v-5.2c0-0.6,0.1-1.2,0.2-1.8c0.1-0.4,0.3-0.7,0.6-1
				c0.2-0.2,0.5-0.4,0.9-0.5c0.3-0.1,0.6-0.1,0.9-0.1c0.3,0,0.5,0,0.8,0.1c0.1,0,0.2-0.1,0.3-0.2
				C410.1,115.6,410.4,114.6,410.5,114.4"/>
			<path id="Path_672_1_" class="st5" d="M393.2,109.6c-0.2-0.1-0.5-0.1-0.7-0.2c-0.3-0.1-0.6-0.1-1-0.1c-1.1-0.1-2.2,0.3-3,1.1
				c-0.8,0.9-1.3,2-1.4,3.2l-0.1,0.5h-1.6c-0.1,0-0.2,0.1-0.2,0.2l-0.3,1.5c0,0.1,0,0.2,0.2,0.2h1.5l-1.6,8.8
				c-0.1,0.6-0.2,1.2-0.4,1.7c-0.1,0.4-0.3,0.7-0.5,1c-0.2,0.2-0.4,0.4-0.6,0.5c-0.3,0.1-0.5,0.1-0.8,0.1c-0.2,0-0.4,0-0.6-0.1
				c-0.1,0-0.3-0.1-0.4-0.1c-0.1,0-0.2,0-0.3,0.1c0,0,0,0,0,0c-0.1,0.1-0.5,1.3-0.5,1.4c0,0.1,0,0.2,0.1,0.3c0,0,0,0,0,0
				c0.2,0.1,0.4,0.1,0.6,0.2c0.3,0.1,0.7,0.1,1,0.1c0.6,0,1.2-0.1,1.7-0.3c0.5-0.2,0.9-0.5,1.3-0.9c0.4-0.5,0.7-1,0.9-1.6
				c0.3-0.8,0.5-1.5,0.6-2.3l1.6-8.9h2.3c0.1,0,0.2-0.1,0.2-0.2l0.3-1.5c0-0.1,0-0.2-0.2-0.2h-2.2c0.1-0.5,0.2-1.1,0.4-1.6
				c0.1-0.3,0.3-0.5,0.5-0.7c0.2-0.2,0.4-0.3,0.6-0.4c0.2-0.1,0.5-0.1,0.8-0.1c0.2,0,0.4,0,0.6,0.1c0.2,0,0.3,0.1,0.4,0.1
				c0.2,0.1,0.3,0,0.3-0.1l0.5-1.5C393.4,109.7,393.3,109.6,393.2,109.6C393.2,109.6,393.2,109.6,393.2,109.6 M361.9,124.7
				c0,0.1-0.1,0.2-0.2,0.2c0,0,0,0,0,0h-1.9c-0.1,0-0.2-0.1-0.2-0.2c0,0,0,0,0,0v-14.9c0-0.1,0.1-0.2,0.2-0.2c0,0,0,0,0,0h1.9
				c0.1,0,0.2,0.1,0.2,0.2c0,0,0,0,0,0V124.7z"/>
		</g>
	</g>
</g>
<g>
	<g id="Group_1363_1_" transform="translate(9 6)">
		<g transform="matrix(1, 0, 0, 1, -9, -6)">
			<path id="Path_698-2_1_" class="st5" d="M169.7,420.5c55.1,0,99.8,44.7,99.8,99.8s-44.7,99.8-99.8,99.8s-99.8-44.7-99.8-99.8
				c0,0,0,0,0,0C69.9,465.2,114.6,420.5,169.7,420.5z"/>
		</g>
		<g id="slack_1_" transform="translate(41.735 42.875)">
			<path id="Path_677_1_" class="st19" d="M70.7,475.4c-4.2,0.1-8-2.6-9.3-6.6c0-0.2-0.1-0.3-0.1-0.5c-1.5-5.2,1.4-10.6,6.5-12.2
				l81.9-27.5c1-0.3,2-0.4,3-0.4c4.3-0.1,8.2,2.6,9.6,6.7l0.1,0.4c1.5,5.4-2.3,10.1-6.8,11.7c0,0-0.8,0.3-81.5,27.8
				C73,475.2,71.9,475.4,70.7,475.4L70.7,475.4z"/>
			<path id="Path_678_1_" class="st20" d="M84.4,515.7c-4.2,0.1-8-2.5-9.4-6.5c-0.1-0.2-0.1-0.3-0.1-0.5c-1.5-5.2,1.4-10.6,6.5-12.4
				l81.9-27.7c1-0.4,2.1-0.5,3.3-0.5c4.3-0.1,8.1,2.6,9.6,6.6l0.1,0.4c0.8,2.8,0.3,5.9-1.2,8.3c-1.2,1.8-4.9,3.4-4.9,3.4l-82.3,28.1
				C86.8,515.5,85.6,515.7,84.4,515.7L84.4,515.7z"/>
			<path id="Path_679_1_" class="st21" d="M152.6,515.9c-4.4,0-8.2-2.7-9.6-6.9l-27.3-81.2l-0.1-0.5c-1.5-5.4,1.6-10.9,6.9-12.4
				c5.2-1.5,10.6,1.4,12.3,6.5l27.3,81.2l0.1,0.3c1.6,5.3-1.3,10.9-6.7,12.6C154.6,515.7,153.6,515.9,152.6,515.9L152.6,515.9z"/>
			<path id="Path_680_1_" class="st22" d="M112,529.5c-4.4,0-8.3-2.7-9.6-6.9L75,441.5c-1.8-5.3,1-11,6.3-12.8c0,0,0,0,0,0
				c1-0.3,2.1-0.5,3.1-0.5c4.4,0,8.2,2.7,9.6,6.9l27.3,81.2c1.8,5.3-1.1,11-6.3,12.8C114.1,529.4,113,529.5,112,529.5L112,529.5
				L112,529.5z"/>
			<path id="Path_681_1_" class="st23" d="M139.1,497.6l19.1-6.5l-6.2-18.5l-19.1,6.4L139.1,497.6z"/>
			<path id="Path_682_1_" class="st24" d="M98.5,511.4l19.1-6.5l-6.3-18.7l-19.1,6.5L98.5,511.4z"/>
			<path id="Path_683_1_" class="st25" d="M125.6,457.2l19.1-6.5l-6.2-18.3l-19.1,6.4L125.6,457.2z"/>
			<path id="Path_684_1_" class="st26" d="M85,471.1l19.1-6.5l-6.2-18.5l-19.1,6.4L85,471.1z"/>
		</g>
	</g>
</g>
</svg>
