<svg xmlns="http://www.w3.org/2000/svg" xmlns:xlink="http://www.w3.org/1999/xlink" viewBox="0 0 1924 998.685">
  <defs>
    <style>
      .cls-1 {
        fill: url(#linear-gradient);
      }
    </style>
    <linearGradient id="linear-gradient" x1="1" y1="0.022" x2="-0.321" y2="1.202" gradientUnits="objectBoundingBox">
      <stop offset="0" stop-color="#f905f5"/>
      <stop offset="1" stop-color="#17c9f2"/>
    </linearGradient>
  </defs>
  <path id="Union_49" data-name="Union 49" class="cls-1" d="M911.261-58.62a137.543,137.543,0,0,1-23.815-6.641,134.978,134.978,0,0,1-21.739-10.553,131.364,131.364,0,0,1-19.16-14.043,126.352,126.352,0,0,1-16.079-17.111,120.961,120.961,0,0,1-12.5-19.755,116.843,116.843,0,0,1-8.412-21.979,116.032,116.032,0,0,1-3.826-23.779L804-203.621V-1055H2723.982v718.626l3.839,69a115.517,115.517,0,0,1-1.292,24.813,115.534,115.534,0,0,1-6.362,23.366,119.453,119.453,0,0,1-10.935,21.4,124.7,124.7,0,0,1-15.007,18.915,129.588,129.588,0,0,1-18.578,15.912A133.457,133.457,0,0,1,2654-150.579a136.762,136.762,0,0,1-24.222,8.352,141.126,141.126,0,0,1-26.292,3.793L943.7-56.488c-2.351.115-4.722.174-7.047.174A140.559,140.559,0,0,1,911.261-58.62Z" transform="translate(-804 1055)"/>
</svg>
