<svg xmlns="http://www.w3.org/2000/svg" xmlns:xlink="http://www.w3.org/1999/xlink" viewBox="0 0 198 198">
  <defs>
    <style>
      .cls-1 {
        fill: #fff;
      }

      .cls-2 {
        fill: #ff8200;
      }

      .cls-3 {
        fill: #43b02a;
      }

      .cls-4 {
        filter: url(#Path_694);
      }
    </style>
    <filter id="Path_694" x="0" y="0" width="198" height="198" filterUnits="userSpaceOnUse">
      <feOffset dy="3" input="SourceAlpha"/>
      <feGaussianBlur stdDeviation="3" result="blur"/>
      <feFlood flood-opacity="0.161"/>
      <feComposite operator="in" in2="blur"/>
      <feComposite in="SourceGraphic"/>
    </filter>
  </defs>
  <g id="Group_1365" data-name="Group 1365" transform="translate(9 6)">
    <g class="cls-4" transform="matrix(1, 0, 0, 1, -9, -6)">
      <path id="Path_694-2" data-name="Path 694" class="cls-1" d="M90,0A90,90,0,1,1,0,90,90,90,0,0,1,90,0Z" transform="translate(9 6)"/>
    </g>
    <g id="instacart-1" transform="translate(43.745 69.969) rotate(-25)">
      <g id="Logo">
        <path id="Carrot_2_" class="cls-2" d="M45.1,6.637c4.455,4.476,8.1,11.805,6.013,16.16C45.541,34.442,3.938,54.868.4,51.332S17.308,6.182,28.957.6c4.355-2.085,11.684,1.558,16.164,6.013A.266.266,0,0,1,45.1,6.637Z" transform="translate(0 23.535)"/>
        <path id="Leaves_2_" class="cls-3" d="M27.894,25.255c-.722-2.679-2.569-5.387-5.326-5.707-5.056-.587-13.022,8.35-12.453,10.471s11.827,5.86,16.028,2.839c2.167-1.558,2.473-4.924,1.761-7.6ZM12.25.5c3.754,1.018,7.55,3.6,8,7.468.826,7.087-11.705,18.259-14.68,17.462S-2.647,8.845,1.591,2.95C3.775-.088,8.493-.515,12.254.481c0,0,0,.007,0,.014Z" transform="translate(39.25)"/>
      </g>
    </g>
  </g>
</svg>
