<svg id="google-analytics" xmlns="http://www.w3.org/2000/svg" viewBox="0 0 44.402 55.438">
  <defs>
    <style>
      .cls-1 {
        fill: #f05620;
      }

      .cls-2 {
        fill: #f6981c;
      }

      .cls-3 {
        fill: #fff;
      }
    </style>
  </defs>
  <path id="Path_707" data-name="Path 707" class="cls-1" d="M422.413,326.781a1.056,1.056,0,0,1-.234.13,1.762,1.762,0,0,1-.7.13,1.594,1.594,0,0,1-.965-.287,1.863,1.863,0,0,1-.731-1.54,1.642,1.642,0,0,1,1.67-1.67,1.572,1.572,0,0,1,.757.209,1.042,1.042,0,0,1,.5.73l-1.7.678-.548.052a1.626,1.626,0,0,0,1.487,1.461,1.864,1.864,0,0,0,.887-.261Zm-.7-2.139c.13-.052.209-.1.209-.209a.737.737,0,0,0-.73-.626.906.906,0,0,0-.835,1.017c0,.13.026.261.026.391Zm-2.139,2.322.261-.157a1.72,1.72,0,0,0-.365-.026c-.235-.026-.287-.078-.287-.339v-1.67a21.9,21.9,0,0,1,.078-2.478c.026-.261.1-.287.339-.417h-1.044l-.548.261h.574c0,.339-.026.809-.052,1.174-.026.757-.026,1.565-.026,2.113V326.6c0,.157-.026.157-.209.391h1.278v-.026Zm-2.374-3.026a1.227,1.227,0,0,1,.522.991,1.214,1.214,0,0,1-.6,1.017.529.529,0,0,0-.209.365.429.429,0,0,0,.182.313l.261.209a1.268,1.268,0,0,1,.6,1.018c0,.678-.652,1.383-1.9,1.383-1.044,0-1.565-.5-1.565-1.043a1.065,1.065,0,0,1,.548-.887,3.053,3.053,0,0,1,1.383-.339.727.727,0,0,1-.209-.5.467.467,0,0,1,.078-.287c-.078,0-.157.026-.235.026a1.153,1.153,0,0,1-1.2-1.148,1.275,1.275,0,0,1,.47-.965,2,2,0,0,1,1.3-.391h1.487l-.47.261H417.2v-.026Zm-.522,3.209h-.157a3.783,3.783,0,0,0-.757.1.819.819,0,0,0-.626.757c0,.522.5.887,1.278.887.7,0,1.07-.339,1.07-.783,0-.365-.234-.574-.808-.965Zm.235-1.383a.75.75,0,0,0,.182-.522c0-.522-.313-1.331-.913-1.331a.691.691,0,0,0-.5.235.8.8,0,0,0-.157.548c0,.5.287,1.278.913,1.278A.7.7,0,0,0,416.908,325.764Zm-4.2,1.278a1.713,1.713,0,0,1-1.774-1.722,1.817,1.817,0,0,1,1.878-1.774,1.686,1.686,0,0,1,1.722,1.722A1.769,1.769,0,0,1,412.708,327.042Zm.913-.574a1.261,1.261,0,0,0,.209-.809c0-.626-.313-1.852-1.2-1.852a1.169,1.169,0,0,0-.652.235,1.1,1.1,0,0,0-.339.887c0,.731.365,1.9,1.226,1.9a.964.964,0,0,0,.757-.365Zm-4.774.574a1.713,1.713,0,0,1-1.774-1.722,1.817,1.817,0,0,1,1.878-1.774,1.686,1.686,0,0,1,1.722,1.722A1.753,1.753,0,0,1,408.847,327.042Zm.913-.574a1.26,1.26,0,0,0,.209-.809c0-.626-.313-1.852-1.2-1.852a1.166,1.166,0,0,0-.652.235,1.1,1.1,0,0,0-.339.887c0,.731.365,1.9,1.226,1.9A.964.964,0,0,0,409.76,326.468Zm-3.157.313v-.835a1.483,1.483,0,0,1,.026-.339c.026-.052.026-.078.078-.1l.182-.182h-1.435l-.548.287,1.017-.052v1.1a2.018,2.018,0,0,1-.861.182,2.393,2.393,0,0,1-2.4-2.478,1.873,1.873,0,0,1,1.878-2.009A1.917,1.917,0,0,1,406,323l-.183.261.235-.052.574-.548a2.521,2.521,0,0,0-.887-.418,4.392,4.392,0,0,0-1.044-.13,2.57,2.57,0,0,0-2.739,2.531,2.407,2.407,0,0,0,2.583,2.452,8.533,8.533,0,0,0,1.122-.1l.94-.209Zm17.662.026,1.278-3.313h.47l1.357,3.313h-.5l-.391-1.017H425.1l-.365,1.017Zm.965-1.383h1.122l-.339-.913q-.122-.337-.235-.678a5.62,5.62,0,0,1-.183.626l-.365.966Zm2.452,1.383v-2.4h.365v.339a.884.884,0,0,1,.757-.391.869.869,0,0,1,.391.078.546.546,0,0,1,.261.209.867.867,0,0,1,.13.313,1.5,1.5,0,0,1,.026.391v1.487H429.2v-1.461a1.2,1.2,0,0,0-.052-.365.407.407,0,0,0-.157-.209.527.527,0,0,0-.287-.078.659.659,0,0,0-.444.157.781.781,0,0,0-.182.626v1.3h-.392Zm4.148-.313a1.318,1.318,0,0,1-.444.261,1.214,1.214,0,0,1-.444.078.828.828,0,0,1-.6-.182.668.668,0,0,1-.209-.5.556.556,0,0,1,.078-.313.618.618,0,0,1,.209-.235.966.966,0,0,1,.287-.13,1.219,1.219,0,0,1,.365-.052,5.575,5.575,0,0,0,.731-.13v-.1c0-.157-.026-.287-.1-.339a.633.633,0,0,0-.47-.13.542.542,0,0,0-.626.47l-.391-.052a.884.884,0,0,1,.183-.417.741.741,0,0,1,.365-.235,1.728,1.728,0,0,1,.548-.078,1.311,1.311,0,0,1,.5.078.607.607,0,0,1,.287.182.737.737,0,0,1,.13.287,1.294,1.294,0,0,1,.026.365v.548a4.492,4.492,0,0,0,.026.731.938.938,0,0,0,.1.287h-.417a1.72,1.72,0,0,1-.13-.392Zm-.026-.913a4.45,4.45,0,0,1-.678.157,2.768,2.768,0,0,0-.365.078.269.269,0,0,0-.157.13.485.485,0,0,0-.052.183.322.322,0,0,0,.13.261.51.51,0,0,0,.365.1.764.764,0,0,0,.417-.1.557.557,0,0,0,.261-.287.914.914,0,0,0,.078-.417v-.1Zm1.043,1.226v-3.313h.418v3.313Zm1.018.913-.052-.391a.729.729,0,0,0,.235.026.489.489,0,0,0,.209-.052.315.315,0,0,0,.13-.13,1.358,1.358,0,0,0,.13-.313c0-.026.026-.052.026-.1l-.913-2.4h.444l.5,1.383c.052.183.13.365.183.548l.157-.548.522-1.409h.417l-.913,2.452q-.157.391-.234.548a.71.71,0,0,1-.261.287.74.74,0,0,1-.339.1.2.2,0,0,1-.235,0Zm3.235-1.278.052.365a1.271,1.271,0,0,1-.313.026.591.591,0,0,1-.339-.078.62.62,0,0,1-.183-.182,1.631,1.631,0,0,1-.052-.47V324.72h-.287v-.313h.287v-.6l.417-.234v.835h.417v.313h-.417v1.409a.577.577,0,0,0,.026.235c.026.026.026.052.078.078a.2.2,0,0,0,.13.026c.026-.026.1-.026.183-.026Zm.391-2.5v-.47h.417v.47Zm0,2.87v-2.4h.417v2.4Zm2.609-.887.391.052a1.058,1.058,0,0,1-.339.652.974.974,0,0,1-.678.235.985.985,0,0,1-.783-.313,1.25,1.25,0,0,1-.313-.913,1.754,1.754,0,0,1,.13-.678.924.924,0,0,1,.391-.444,1.117,1.117,0,0,1,.574-.157,1.082,1.082,0,0,1,.652.209.946.946,0,0,1,.313.574l-.391.052a.57.57,0,0,0-.209-.365.549.549,0,0,0-.339-.13.669.669,0,0,0-.5.209,1.451,1.451,0,0,0,0,1.409.585.585,0,0,0,.5.209.53.53,0,0,0,.391-.157A.71.71,0,0,0,440.1,325.92Zm.574.157.391-.052a.547.547,0,0,0,.183.365.746.746,0,0,0,.444.13.616.616,0,0,0,.417-.1.363.363,0,0,0,.13-.261.232.232,0,0,0-.13-.209,1.955,1.955,0,0,0-.417-.13,2.845,2.845,0,0,1-.626-.209.575.575,0,0,1-.261-.235.694.694,0,0,1-.078-.313.526.526,0,0,1,.078-.287.6.6,0,0,1,.209-.235,1.207,1.207,0,0,1,.261-.13,1.551,1.551,0,0,1,.365-.052,1.416,1.416,0,0,1,.5.078.732.732,0,0,1,.313.209.759.759,0,0,1,.13.365l-.391.052a.458.458,0,0,0-.522-.391.541.541,0,0,0-.391.1.266.266,0,0,0-.13.208.2.2,0,0,0,.052.13.238.238,0,0,0,.157.1,2.43,2.43,0,0,0,.365.1,4.472,4.472,0,0,1,.6.182.716.716,0,0,1,.261.209.74.74,0,0,1,.1.339.779.779,0,0,1-.13.391.742.742,0,0,1-.339.287,1.056,1.056,0,0,1-.5.1,1.081,1.081,0,0,1-.7-.183.857.857,0,0,1-.34-.573Z" transform="translate(-400.082 -273.796)"/>
  <path id="Path_708" data-name="Path 708" class="cls-2" d="M438.309,152.286A3.925,3.925,0,0,1,434.4,156.2H397.9a3.925,3.925,0,0,1-3.913-3.914V115.762a3.925,3.925,0,0,1,3.913-3.913h36.5a3.925,3.925,0,0,1,3.913,3.913Z" transform="translate(-393.933 -111.849)"/>
  <path id="Path_709" data-name="Path 709" class="cls-3" d="M438.134,144.147l-3.992-2.687a4.8,4.8,0,0,0,.13-1.07,4.722,4.722,0,1,0-8.557,2.739l-8.661,13.227a5.223,5.223,0,0,0-1.1-.13,4.726,4.726,0,0,0-3.052,1.122l-5.792-3.339a5.126,5.126,0,0,0,.052-.652,4.722,4.722,0,1,0-9.079,1.827l-4.331,4.018v4.278l6.418-5.974a4.669,4.669,0,0,0,5.453-.7l5.661,3.261a5.1,5.1,0,0,0-.078.887,4.722,4.722,0,0,0,9.444,0,4.555,4.555,0,0,0-.991-2.869L428.3,144.9a4.835,4.835,0,0,0,1.253.183,4.683,4.683,0,0,0,2.9-.991l5.687,3.835Z" transform="translate(-393.758 -130.215)"/>
  <path id="Path_710" data-name="Path 710" class="cls-1" d="M432.71,172.477a4.685,4.685,0,0,1-2.9.991,3.931,3.931,0,0,1-1.253-.183l-8.583,13.148a4.612,4.612,0,0,1,.991,2.87,4.722,4.722,0,0,1-9.444,0,4.858,4.858,0,0,1,.078-.887l-5.635-3.261a4.67,4.67,0,0,1-5.453.7l-6.418,5.974v7.174a3.925,3.925,0,0,0,3.913,3.913h36.5a3.925,3.925,0,0,0,3.913-3.913V176.286l-5.714-3.809Z" transform="translate(-394.021 -158.598)"/>
</svg>
