<svg id="Group_1236" data-name="Group 1236" xmlns="http://www.w3.org/2000/svg" xmlns:xlink="http://www.w3.org/1999/xlink" viewBox="0 0 58.335 58.336">
  <defs>
    <style>
      .cls-1 {
        clip-path: url(#clip-path);
      }

      .cls-2 {
        fill: #00749a;
      }

      .cls-3 {
        fill: #464342;
      }
    </style>
    <clipPath id="clip-path">
      <path id="Path_692" data-name="Path 692" d="M0,0H58.335V58.336H0Z"/>
    </clipPath>
  </defs>
  <g id="wordpress-blue" class="cls-1">
    <path id="Path_687" data-name="Path 687" class="cls-2" d="M215.892,42.005H205.771v1.074c3.166,0,3.675.678,3.675,4.693V55.01c0,4.014-.508,4.75-3.675,4.75-2.43-.339-4.071-1.64-6.332-4.128l-2.6-2.827c3.5-.623,5.371-2.827,5.371-5.315,0-3.109-2.657-5.484-7.633-5.484h-9.951v1.074c3.166,0,3.675.678,3.675,4.693V55.01c0,4.014-.508,4.75-3.675,4.75v1.074h11.251V59.76c-3.165,0-3.675-.736-3.675-4.75V52.975h.961l6.276,7.858h16.453c8.085,0,11.591-4.3,11.591-9.442s-3.506-9.386-11.592-9.386ZM192.2,51.221V43.7h2.318A3.468,3.468,0,0,1,198.2,47.49a3.451,3.451,0,0,1-3.675,3.731Zm23.86,7.86h-.4c-2.035,0-2.318-.508-2.318-3.109V43.7h2.714c5.88,0,6.953,4.3,6.953,7.633C223.016,54.783,221.942,59.081,216.062,59.081Zm-62.929-5.767,3.9-11.535c1.131-3.336.623-4.3-3-4.3V36.351h10.629v1.131c-3.561,0-4.41.847-5.823,4.975L152.4,61.794h-.735L145.9,44.1l-5.88,17.7h-.736l-6.276-19.337c-1.357-4.128-2.262-4.975-5.541-4.975V36.351h12.552v1.131c-3.337,0-4.241.791-3.053,4.3l3.788,11.535,5.71-16.963h1.075l5.6,16.962Zm19.223,8.254c-6.219,0-11.308-4.579-11.308-10.178,0-5.541,5.089-10.121,11.308-10.121s11.308,4.58,11.308,10.121C183.664,56.989,178.576,61.568,172.357,61.568Zm0-18.544c-5.2,0-7.011,4.692-7.011,8.367,0,3.732,1.81,8.368,7.011,8.368,5.259,0,7.068-4.636,7.068-8.368,0-3.676-1.809-8.367-7.068-8.367Z" transform="translate(-66.776 -19.043)"/>
    <path id="Path_688" data-name="Path 688" class="cls-3" d="M352.618,59.7v1.131H339.67V59.7c3.789,0,4.467-.961,4.467-6.616V44.04c0-5.655-.678-6.559-4.467-6.559V36.35h11.7c5.823,0,9.047,3,9.047,7.012,0,3.9-3.224,6.954-9.047,6.954H348.15v2.77c0,5.655.678,6.616,4.467,6.616Zm-1.244-21.316H348.15v9.839h3.223c3.166,0,4.636-2.2,4.636-4.862C356.01,40.648,354.54,38.385,351.374,38.385Zm47.889,17.133-.283,1.017c-.508,1.866-1.131,2.544-5.145,2.544h-.792c-2.94,0-3.449-.678-3.449-4.692v-2.6c4.41,0,4.75.4,4.75,3.336h1.075V46.7h-1.075c0,2.94-.34,3.336-4.75,3.336V43.7H392.7c4.015,0,4.636.678,5.145,2.544l.284,1.074h.9l-.4-5.314H382.017v1.074c3.166,0,3.675.678,3.675,4.693v7.238c0,3.672-.432,4.6-2.928,4.73-2.372-.363-4-1.656-6.23-4.108l-2.6-2.827c3.506-.623,5.372-2.827,5.372-5.315,0-3.109-2.657-5.484-7.633-5.484h-9.951v1.074c3.166,0,3.675.678,3.675,4.693v7.238c0,4.014-.509,4.75-3.675,4.75v1.074h11.252V59.759c-3.165,0-3.675-.736-3.675-4.75V52.975h.962l6.276,7.858h23.238l.339-5.314h-.849ZM369.3,51.22V43.7h2.318a3.468,3.468,0,0,1,3.676,3.788,3.451,3.451,0,0,1-3.676,3.731ZM410.74,61.567a8.359,8.359,0,0,1-5.089-1.923,4.058,4.058,0,0,0-.9,1.923h-1.075v-7.8H404.8c.453,3.732,3.053,5.937,6.389,5.937,1.809,0,3.28-1.018,3.28-2.713,0-1.47-1.3-2.6-3.619-3.675l-3.223-1.526c-2.262-1.075-3.958-2.941-3.958-5.428,0-2.714,2.544-5.032,6.05-5.032a7.081,7.081,0,0,1,4.41,1.47,3.194,3.194,0,0,0,.735-1.527h1.074v6.672h-1.187c-.4-2.658-1.866-4.863-4.862-4.863-1.583,0-3.053.9-3.053,2.319,0,1.47,1.187,2.261,3.9,3.5l3.109,1.526c2.714,1.3,3.788,3.393,3.788,5.089,0,3.561-3.11,6.049-6.9,6.049Zm17.414,0a8.356,8.356,0,0,1-5.089-1.923,4.058,4.058,0,0,0-.9,1.923h-1.075v-7.8h1.131c.452,3.732,3.052,5.937,6.389,5.937,1.809,0,3.28-1.018,3.28-2.713,0-1.47-1.3-2.6-3.619-3.675l-3.223-1.526c-2.262-1.075-3.958-2.941-3.958-5.428,0-2.714,2.544-5.032,6.05-5.032a7.082,7.082,0,0,1,4.41,1.47,3.189,3.189,0,0,0,.734-1.527h1.075v6.672h-1.187c-.4-2.658-1.866-4.863-4.862-4.863-1.583,0-3.054.9-3.054,2.319,0,1.47,1.187,2.261,3.9,3.5l3.109,1.526c2.714,1.3,3.788,3.393,3.788,5.089,0,3.561-3.11,6.049-6.9,6.049Z" transform="translate(-177.946 -19.043)"/>
    <g id="Group_1223" data-name="Group 1223">
      <path id="Path_689" data-name="Path 689" class="cls-2" d="M8.708,33.729a25.027,25.027,0,0,0,14.1,22.52l-11.936-32.7A24.927,24.927,0,0,0,8.708,33.729Zm41.914-1.263a13.174,13.174,0,0,0-2.064-6.9C47.29,23.5,46.1,21.759,46.1,19.7a4.333,4.333,0,0,1,4.2-4.441c.111,0,.216.014.325.02a25.017,25.017,0,0,0-37.8,4.71c.587.018,1.141.03,1.61.03,2.617,0,6.669-.318,6.669-.318a1.034,1.034,0,0,1,.161,2.061s-1.356.159-2.864.239l9.112,27.1,5.476-16.423L29.088,22c-1.347-.079-2.624-.239-2.624-.239a1.034,1.034,0,0,1,.158-2.061s4.132.318,6.591.318c2.617,0,6.669-.318,6.669-.318a1.034,1.034,0,0,1,.16,2.061s-1.358.16-2.864.239l9.043,26.9,2.5-8.34C49.8,37.094,50.622,34.609,50.622,32.466Z" transform="translate(-4.562 -4.562)"/>
      <path id="Path_690" data-name="Path 690" class="cls-2" d="M53.923,50.24,46.416,72.055a25.029,25.029,0,0,0,15.378-.4,2.12,2.12,0,0,1-.178-.345ZM75.44,36.046a19.2,19.2,0,0,1,.169,2.573,23.6,23.6,0,0,1-1.9,8.963l-7.643,22.1A25.026,25.026,0,0,0,75.44,36.046Z" transform="translate(-24.316 -18.884)"/>
      <path id="Path_691" data-name="Path 691" class="cls-2" d="M29.168,0a29.168,29.168,0,1,0,29.17,29.167A29.2,29.2,0,0,0,29.168,0Zm0,57A27.831,27.831,0,1,1,57,29.167,27.863,27.863,0,0,1,29.168,57Z"/>
    </g>
  </g>
</svg>
