<svg xmlns="http://www.w3.org/2000/svg" viewBox="0 0 720 800" width="720" height="800" preserveAspectRatio="xMidYMid meet" style="width: 100%; height: 100%;"><defs><clipPath id="animationMask_RbnKLgH1JU"><rect width="720" height="800" x="0" y="0"></rect></clipPath><clipPath id="cp_4s8vg4S8"><path d="M0,0 L720,0 L720,800 L0,800z"></path></clipPath><clipPath id="WoxAyIY5BC"><path fill="#ffffff" clip-rule="nonzero" d=" M32.831,0.25 C14.837000000000003,0.25 0.25,14.838999999999999 0.25,32.836 C0.25,50.833 14.837000000000003,65.422 32.831,65.422 C50.825,65.422 65.413,50.833 65.413,32.836 C65.413,14.838999999999999 50.825,0.25 32.831,0.25" fill-opacity="1"></path></clipPath></defs><g clip-path="url(#animationMask_RbnKLgH1JU)"><g clip-path="url(#cp_4s8vg4S8)" transform="matrix(1,0,0,1,0,-6)" opacity="1"><g transform="matrix(1.17,0,0,1.17,314.7474,622.3591)" opacity="1" style="user-select: none;"><g opacity="1" transform="matrix(1,0,0,1,31.717,31.722)"><path fill="rgb(255,255,255)" fill-opacity="1" d="M0 0 M0.001,-31.472 C17.380000000000003,-31.472 31.467,-17.381 31.467,0 C31.467,17.382 17.380000000000003,31.472 0.001,31.472 C-17.378,31.472 -31.467,17.382 -31.467,0 C-31.467,-17.381 -17.378,-31.472 0.001,-31.472z"></path></g><g opacity="1" transform="matrix(1,0,0,1,31.717,34.529)"><path fill="rgb(0,128,102)" fill-opacity="1" d="M0 0 M-2.218,-0.551 C-2.218,-0.551 -2.218,-1.487 -2.218,-1.487 C-2.218,-1.487 -5.816,-1.487 -5.816,-1.487 C-7.585,-1.487 -8.411,-0.8799999999999999 -8.411,0.058 C-8.411,0.917 -7.614,1.677 -5.579,1.677 C-3.073,1.677 -2.218,1.448 -2.218,-0.551zM0 0 M-9.914,-6.823 C-9.914,-6.823 -11.183,-5.543 -11.183,-5.543 C-12.364,-6.252 -13.573,-6.733 -15.195,-6.733 C-17.112000000000002,-6.733 -17.761,-6.075 -17.761,-5.189 C-17.761,-4.632 -17.289,-4.0760000000000005 -15.785,-3.974 C-15.785,-3.974 -13.308,-3.823 -13.308,-3.823 C-11.779,-3.735 -10.705,-3.297 -10.007,-2.629 C-9.190999999999999,-3.325 -7.978000000000001,-3.768 -6.376,-3.768 C-6.376,-3.768 -2.218,-3.768 -2.218,-3.768 C-2.218,-3.768 -2.218,-5.074 -2.218,-5.074 C-2.218,-6.29 -3.132,-6.72 -5.285,-6.72 C-6.848,-6.72 -7.867999999999999,-6.2589999999999995 -8.655,-5.534 C-8.655,-5.534 -9.914,-6.823 -9.914,-6.823zM0 0 M12.46,-3.57 C12.46,-3.57 19.413,-3.57 19.413,-3.57 C19.413,-5.795 17.758,-6.899 15.924,-6.899 C14.091,-6.899 12.46,-5.8149999999999995 12.46,-3.57zM0 0 M2.052,-2.59 C2.079,-0.492 2.1129999999999995,-0.16099999999999998 2.659,0.427 C3.0839999999999996,0.886 4.006,1.424 5.251,1.424 C6.466,1.424 7.255000000000001,0.886 7.682,0.427 C8.228,-0.16099999999999998 8.29,-0.5189999999999997 8.29,-2.59 C8.29,-4.686 8.228,-5.0440000000000005 7.682,-5.631 C7.255000000000001,-6.091 6.466,-6.628 5.251,-6.628 C4.006,-6.628 3.0839999999999996,-6.091 2.659,-5.631 C2.1129999999999995,-5.0440000000000005 2.023,-4.702 2.052,-2.59zM0 0 M0.159,-7.21 C0.255,-7.334 0.363,-7.458 0.481,-7.591 C1.159,-8.325 2.4879999999999995,-9.16 4.433,-9.16 C5.967,-9.16 7.1770000000000005,-8.654 8.297,-7.642 C8.297,-7.642 8.297,-9.008 8.297,-9.008 C8.297,-9.008 11.304,-9.008 11.304,-9.008 C11.304,-9.008 11.304,-7.603 11.304,-7.603 C12.497,-8.722999999999999 14.100000000000001,-9.16 15.601,-9.16 C18.89,-9.16 21.723,-6.906 21.741,-3.118 C21.745,-2.4699999999999998 21.668,-1.313 21.668,-1.313 C21.668,-1.313 12.456,-1.309 12.456,-1.309 C12.456,0.784 13.884,1.574 15.942,1.574 C17.087,1.574 18.541999999999998,1.0510000000000002 19.424,0.27 C19.424,0.27 21.442,1.736 21.442,1.736 C19.971,3.198 17.998,3.995 16,3.995 C14.356,3.995 12.589,3.6100000000000003 11.304,2.438 C11.304,2.438 11.304,3.519 11.304,3.519 C11.304,7.392 8.237,9.163 4.818,9.163 C2.8999999999999995,9.163 0.953,8.302 -0.374,7.012 C-0.374,7.012 1.955,5.418 1.955,5.418 C2.694,6.05 3.726,6.582 4.875,6.582 C6.881,6.582 8.297,5.595 8.297,3.798 C8.297,3.798 8.297,2.482 8.297,2.482 C7.353000000000001,3.367 5.967,3.975 4.433,3.975 C2.7489999999999997,3.975 1.529,3.35 0.79,2.705 C0.79,2.705 0.79,4.007 0.79,4.007 C0.79,4.007 -2.218,4.007 -2.218,4.007 C-2.218,4.007 -2.218,2.695 -2.218,2.695 C-2.218,2.695 -2.276,2.695 -2.276,2.695 C-2.896,3.582 -3.928,3.986 -5.963,3.986 C-7.865,3.986 -9.314,3.4339999999999997 -10.209,2.546 C-11.33,3.471 -13.114,3.972 -15.166,3.972 C-17.584,3.972 -19.825999999999997,3.213 -21.743,1.669 C-21.743,1.669 -19.65,-0.102 -19.65,-0.102 C-18.351999999999997,0.985 -16.937,1.544 -14.93,1.544 C-13.218,1.544 -11.981,0.985 -11.981,-0.102 C-11.981,-1.014 -12.777000000000001,-1.292 -13.81,-1.368 C-13.81,-1.368 -16.464,-1.57 -16.464,-1.57 C-18.941,-1.747 -20.77,-3.0130000000000003 -20.77,-5.214 C-20.77,-7.821000000000001 -18.352,-9.163 -15.195,-9.163 C-12.916,-9.163 -11.282,-8.647 -9.925,-7.815 C-8.825000000000001,-8.802 -7.380000000000001,-9.149 -5.432,-9.149 C-2.8380000000000005,-9.149 -0.814,-8.623 0.159,-7.21z"></path></g></g><g transform="matrix(1.3,0,0,1.3,371.9858,504.68)" opacity="1" style="user-select: none;"><g opacity="1" transform="matrix(1,0,0,1,0,0)"><g opacity="1" transform="matrix(1,0,0,1,30.582,30.587)"><path fill="rgb(49,77,92)" fill-opacity="1" d="M0 0 M0,-30.337 C16.752,-30.337 30.332,-16.754 30.332,0 C30.332,16.755 16.752,30.337 0,30.337 C-16.752,30.337 -30.332,16.755 -30.332,0 C-30.332,-16.754 -16.752,-30.337 0,-30.337z"></path></g><g opacity="1" transform="matrix(1,0,0,1,22.394,36.209)"><path fill="rgb(70,177,157)" fill-opacity="1" d="M0 0 M5.11,3.785 C5.11,3.785 0.464,3.785 0.464,3.785 C0.464,3.785 0.464,-9.463 0.464,-9.463 C0.464,-9.463 -5.111,-3.784 -5.111,-3.784 C-5.111,-3.784 -5.111,8.045 -5.111,8.045 C-5.111,8.828 -4.487,9.464 -3.717,9.464 C-3.717,9.464 5.11,9.464 5.11,9.464 C5.11,9.464 5.11,3.785 5.11,3.785z"></path></g><g opacity="1" transform="matrix(1,0,0,1,35.642,23.342)"><path fill="rgb(144,209,196)" fill-opacity="1" d="M0 0 M7.382,2.336 C7.382,2.336 7.382,-6.549 7.382,-6.549 C7.382,-7.322 6.761,-7.951 5.997,-7.951 C5.997,-7.951 -1.846,-7.951 -1.846,-7.951 C-1.846,-7.951 -7.382,-2.34 -7.382,-2.34 C-7.382,-2.34 1.846,-2.34 1.846,-2.34 C1.846,-2.34 1.846,7.947 1.846,7.947 C1.846,7.947 7.382,2.336 7.382,2.336z"></path></g><g opacity="1" transform="matrix(1,0,0,1,25.611,23.91)"><path fill="rgb(107,193,176)" fill-opacity="1" d="M0 0 M0.958,-8.519 C0.345,-8.519 -0.24400000000000005,-8.27 -0.678,-7.826 C-0.678,-7.826 -7.649,-0.695 -7.649,-0.695 C-8.085,-0.24799999999999994 -8.328,0.352 -8.328,0.977 C-8.328,0.977 -8.328,8.515 -8.328,8.515 C-8.328,8.515 8.327,-8.519 8.327,-8.519 C8.327,-8.519 0.957,-8.519 0.957,-8.519 C0.957,-8.519 0.958,-8.519 0.958,-8.519z"></path></g><g opacity="1" transform="matrix(1,0,0,1,35.453,35.453)"><path fill="rgb(255,255,255)" fill-opacity="1" d="M0 0 M7.947,-3.32 C7.947,-3.32 7.947,-9.841 7.947,-9.841 C7.947,-9.841 -2.339,0.467 -2.339,0.467 C-2.339,0.467 -2.339,-6.094 -2.339,-6.094 C-2.339,-6.094 -7.949,-6.094 -7.949,-6.094 C-7.949,-6.094 -7.949,9.841 -7.949,9.841 C-7.949,9.841 7.947,9.841 7.947,9.841 C7.947,9.841 7.947,4.217 7.947,4.217 C7.947,4.217 1.355,4.217 1.355,4.217 C1.355,4.217 7.257,-1.657 7.257,-1.657 C7.699999999999999,-2.099 7.949000000000001,-2.697 7.948,-3.32 C7.948,-3.32 7.947,-3.32 7.947,-3.32z"></path></g></g></g><g transform="matrix(1.45,0,0,1.45,185.0125,162.6177)" opacity="1" style="user-select: none;"><g opacity="1" transform="matrix(1,0,0,1,43.17,43.176)"><path fill="rgb(255,255,255)" fill-opacity="1" d="M0 0 M0,-42.926 C23.704,-42.926 42.92,-23.707 42.92,0 C42.92,23.707 23.704,42.926 0,42.926 C-23.704,42.926 -42.92,23.707 -42.92,0 C-42.92,-23.707 -23.704,-42.926 0,-42.926z"></path></g><g opacity="1" transform="matrix(1,0,0,1,43.232,43.022)"><path fill="rgb(255,73,0)" fill-opacity="1" d="M0 0 M6.807,0.012 C6.805000000000001,2.035 6.436,3.9719999999999995 5.761,5.76 C3.974,6.435 2.036,6.806 0.011,6.807 C0.011,6.807 -0.012,6.807 -0.012,6.807 C-2.035,6.806 -3.9719999999999995,6.436 -5.76,5.761 C-6.434,3.974 -6.806,2.036 -6.807,0.012 C-6.807,0.012 -6.807,-0.011 -6.807,-0.011 C-6.806,-2.035 -6.435,-3.9719999999999995 -5.762,-5.76 C-3.973,-6.434 -2.036,-6.805000000000001 -0.012,-6.807 C-0.012,-6.807 0.011,-6.807 0.011,-6.807 C2.036,-6.805000000000001 3.974,-6.434 5.761,-5.76 C6.4350000000000005,-3.9719999999999995 6.805000000000001,-2.035 6.807,-0.011 C6.807,-0.011 6.807,0.012 6.807,0.012zM0 0 M26.85,-4.538 C26.85,-4.538 10.955,-4.538 10.955,-4.538 C10.955,-4.538 22.194,-15.777 22.194,-15.777 C21.311999999999998,-17.016 20.328000000000003,-18.179 19.251,-19.255 C19.251,-19.255 19.251,-19.256 19.251,-19.256 C18.176000000000002,-20.330000000000002 17.014,-21.313 15.777,-22.195 C15.777,-22.195 4.538,-10.956 4.538,-10.956 C4.538,-10.956 4.538,-26.85 4.538,-26.85 C3.043,-27.101000000000003 1.53,-27.227 0.014,-27.228 C0.014,-27.228 -0.015,-27.228 -0.015,-27.228 C-1.531,-27.227 -3.0439999999999996,-27.101000000000003 -4.539,-26.85 C-4.539,-26.85 -4.539,-10.956 -4.539,-10.956 C-4.539,-10.956 -15.777,-22.194 -15.777,-22.194 C-17.015,-21.311999999999998 -18.178,-20.329 -19.254,-19.253 C-19.254,-19.253 -19.257,-19.25 -19.257,-19.25 C-20.331000000000003,-18.176 -21.313,-17.014 -22.194,-15.777 C-22.194,-15.777 -10.956,-4.538 -10.956,-4.538 C-10.956,-4.538 -26.85,-4.538 -26.85,-4.538 C-26.85,-4.538 -27.228,-1.553 -27.228,-0.01 C-27.228,-0.01 -27.228,0.009 -27.228,0.009 C-27.228,1.527 -27.101000000000003,3.042 -26.85,4.539 C-26.85,4.539 -10.956,4.539 -10.956,4.539 C-10.956,4.539 -22.194,15.777 -22.194,15.777 C-20.427,18.258 -18.258,20.427 -15.777,22.194 C-15.777,22.194 -4.539,10.956 -4.539,10.956 C-4.539,10.956 -4.539,26.85 -4.539,26.85 C-3.045,27.1 -1.5339999999999998,27.227 -0.019,27.228 C-0.019,27.228 0.02,27.228 0.02,27.228 C1.534,27.227 3.045,27.1 4.538,26.85 C4.538,26.85 4.538,10.956 4.538,10.956 C4.538,10.956 15.777,22.194 15.777,22.194 C17.015,21.311999999999998 18.177,20.329 19.252,19.254 C19.252,19.254 19.255,19.253 19.255,19.253 C20.329,18.177 21.313,17.015 22.194,15.777 C22.194,15.777 10.955,4.539 10.955,4.539 C10.955,4.539 26.85,4.539 26.85,4.539 C27.1,3.045 27.227,1.534 27.228,0.02 C27.228,0.02 27.228,-0.019 27.228,-0.019 C27.227,-1.533 27.1,-3.0440000000000005 26.85,-4.538z"></path></g></g><g transform="matrix(1.16,0,0,1.16,373.9143,364.8957)" opacity="1" style="user-select: none;"><g opacity="1" transform="matrix(1,0,0,1,43.769,43.775)"><path fill="rgb(19,181,234)" fill-opacity="1" d="M0 0 M0,-43.525 C24.035,-43.525 43.519,-24.038 43.519,0 C43.519,24.038 24.035,43.525 0,43.525 C-24.035,43.525 -43.519,24.038 -43.519,0 C-43.519,-24.038 -24.035,-43.525 0,-43.525z"></path></g><g opacity="1" transform="matrix(1,0,0,1,43.726,43.245)"><path fill="rgb(255,255,255)" fill-opacity="1" d="M0 0 M-17.843,0.193 C-17.843,0.193 -11.899,-5.779 -11.899,-5.779 C-11.53,-6.204 -11.554,-6.843 -11.954,-7.239 C-12.355,-7.634 -12.994,-7.651 -13.414,-7.276 C-13.414,-7.276 -19.355,-1.33 -19.355,-1.33 C-19.355,-1.33 -25.319,-7.287 -25.319,-7.287 C-25.738,-7.701 -26.413999999999998,-7.696 -26.828,-7.277 C-27.241,-6.8580000000000005 -27.237000000000002,-6.1819999999999995 -26.817,-5.768 C-26.817,-5.768 -20.873,0.184 -20.873,0.184 C-20.873,0.184 -26.814,6.141 -26.814,6.141 C-27.1,6.405 -27.219,6.804 -27.125,7.182 C-27.032,7.559 -26.74,7.856000000000001 -26.365,7.956 C-25.988999999999997,8.056000000000001 -25.587999999999997,7.944 -25.319,7.663 C-25.319,7.663 -19.363,1.703 -19.363,1.703 C-19.363,1.703 -13.43,7.64 -13.43,7.64 C-13.131,7.957999999999999 -12.667,8.061 -12.262,7.899 C-11.856,7.737 -11.591,7.343 -11.593,6.906 C-11.592,6.624 -11.703,6.353 -11.904,6.154 C-11.904,6.154 -17.844,0.187 -17.844,0.187 C-17.844,0.187 -17.843,0.193 -17.843,0.193zM0 0 M17.493,0.192 C17.493,1.262 18.360999999999997,2.131 19.432,2.131 C20.503,2.131 21.37,1.262 21.37,0.191 C21.369,-0.8799999999999999 20.501,-1.748 19.43,-1.747 C18.364,-1.747 17.498,-0.879 17.498,0.192 C17.498,0.192 17.493,0.192 17.493,0.192zM0 0 M13.824,0.192 C13.824,-2.903 16.338,-5.424 19.43,-5.424 C22.517,-5.424 25.034,-2.903 25.034,0.192 C25.034,3.2870000000000004 22.519,5.808 19.43,5.808 C16.333,5.803 13.824,3.29 13.824,0.192zM0 0 M11.619,0.192 C11.619,4.505 15.123999999999999,8.017 19.43,8.017 C23.736,8.017 27.241,4.508 27.241,0.193 C27.241,-4.119000000000001 23.736,-7.631 19.43,-7.631 C15.114999999999998,-7.623 11.621,-4.123 11.619,0.193 C11.619,0.193 11.619,0.192 11.619,0.192zM0 0 M11.065,-7.498 C11.065,-7.498 10.739,-7.498 10.739,-7.498 C9.755,-7.498 8.805,-7.188000000000001 8.012,-6.575 C7.901000000000001,-7.063000000000001 7.467,-7.41 6.967,-7.413 C6.686,-7.413 6.417000000000001,-7.301 6.219,-7.102 C6.021,-6.902 5.911,-6.632000000000001 5.912,-6.352 C5.912,-6.352 5.916,6.827 5.916,6.827 C5.947,7.3919999999999995 6.415,7.834 6.981,7.834 C7.547,7.832999999999999 8.014000000000001,7.39 8.044,6.824 C8.044,6.824 8.044,-1.28 8.044,-1.28 C8.044,-3.9800000000000004 8.292,-5.072 10.6,-5.36 C10.817,-5.3870000000000005 11.046999999999999,-5.382 11.049,-5.382 C11.679,-5.404999999999999 12.129,-5.841 12.129,-6.429 C12.128,-7.019 11.649,-7.497 11.059,-7.497 C11.059,-7.497 11.065,-7.498 11.065,-7.498zM0 0 M-9.388,-1.094 C-9.388,-1.125 -9.385,-1.156 -9.383,-1.184 C-8.745,-3.7039999999999997 -6.469,-5.462 -3.87,-5.442 C-1.2720000000000002,-5.421 0.977,-3.628 1.575,-1.099 C1.575,-1.099 -9.389,-1.099 -9.389,-1.099 C-9.389,-1.099 -9.388,-1.094 -9.388,-1.094zM0 0 M3.755,-1.296 C3.296,-3.4720000000000004 2.106,-5.261 0.296,-6.409 C-2.387,-8.093 -5.817,-8.001 -8.406,-6.176 C-11.027000000000001,-4.291 -12.238,-1.001 -11.466,2.134 C-10.658999999999999,5.255 -8.033999999999999,7.569 -4.837,7.978 C-3.8939999999999997,8.093 -2.9749999999999996,8.04 -2.029,7.792 C-1.201,7.59 -0.412,7.253 0.307,6.793 C1.062,6.307 1.6929999999999998,5.665 2.308,4.897 C2.3169999999999997,4.882000000000001 2.329,4.871 2.342,4.855 C2.767,4.328 2.688,3.574 2.222,3.217 C1.8279999999999998,2.914 1.1680000000000001,2.792 0.65,3.459 C0.538,3.621 0.41200000000000003,3.785 0.277,3.948 C-0.13699999999999996,4.405 -0.6499999999999999,4.848 -1.265,5.192 C-2.049,5.611 -2.9400000000000004,5.848 -3.886,5.854 C-6.985,5.819 -8.641,3.651 -9.233,2.106 C-9.336,1.813 -9.415000000000001,1.512 -9.47,1.206 C-9.47,1.206 -9.485,1.043 -9.485,1.043 C-9.485,1.043 1.636,1.043 1.636,1.043 C3.159,1.01 3.9779999999999998,-0.06899999999999995 3.752,-1.299 C3.752,-1.299 3.755,-1.296 3.755,-1.296z"></path></g></g><g transform="matrix(0.95,0,0,0.95,359.8892,233.031)" opacity="1" style="user-select: none;"><g opacity="1" transform="matrix(1,0,0,1,0,0)"><g opacity="1" transform="matrix(1,0,0,1,41.108,41.115)"><path fill="rgb(255,255,255)" fill-opacity="1" d="M0 0 M0,-40.865 C22.565,-40.865 40.858,-22.568 40.858,0 C40.858,22.569 22.565,40.865 0,40.865 C-22.565,40.865 -40.858,22.569 -40.858,0 C-40.858,-22.568 -22.565,-40.865 0,-40.865z"></path></g><g opacity="1" transform="matrix(1,0,0,1,28.864,51.357)"><path fill="rgb(0,0,0)" fill-opacity="1" d="M0 0 M0.587,-0.51 C0.5409999999999999,-0.931 0.47200000000000003,-1.281 0.074,-1.281 C-0.409,-1.281 -0.502,-0.78 -0.502,0.078 C-0.502,0.395 -0.502,1.265 0.074,1.265 C0.513,1.265 0.565,0.792 0.587,0.492 C0.587,0.492 1.268,0.555 1.268,0.555 C1.21,0.994 1.095,1.87 0.017,1.87 C-1.06,1.87 -1.273,0.763 -1.273,0.01 C-1.273,-0.745 -1.055,-1.87 0.068,-1.87 C1.089,-1.87 1.2209999999999999,-0.965 1.273,-0.578 C1.273,-0.578 0.593,-0.51 0.593,-0.51 C0.593,-0.51 0.587,-0.51 0.587,-0.51z"></path></g><g opacity="1" transform="matrix(1,0,0,1,30.987,50.727)"><path fill="rgb(0,0,0)" fill-opacity="1" d="M0 0 M-0.354,2.414 C-0.354,2.414 0.354,2.414 0.354,2.414 C0.354,2.414 0.354,-2.414 0.354,-2.414 C0.354,-2.414 -0.354,-2.414 -0.354,-2.414 C-0.354,-2.414 -0.354,2.414 -0.354,2.414z"></path></g><g opacity="1" transform="matrix(1,0,0,1,33.127,51.363)"><path fill="rgb(0,0,0)" fill-opacity="1" d="M0 0 M-0.599,-0.003 C-0.599,0.931 -0.397,1.306 -0.023,1.306 C0.352,1.306 0.553,0.942 0.553,-0.008 C0.553,-0.959 0.357,-1.316 -0.023,-1.316 C-0.403,-1.316 -0.599,-0.866 -0.599,0.004M0 0 M1.348,-0.044 C1.348,0.7859999999999999 1.159,1.87 -0.006,1.87 C-1.072,1.87 -1.348,0.925 -1.348,-0.003 C-1.348,-0.931 -1.118,-1.87 0.006,-1.87 C1.129,-1.87 1.348,-0.907 1.348,-0.037"></path></g><g opacity="1" transform="matrix(1,0,0,1,36.103,51.38)"><path fill="rgb(0,0,0)" fill-opacity="1" d="M0 0 M-0.486,-1.806 C-0.486,-1.806 -0.486,0.458 -0.486,0.458 C-0.486,0.96 -0.486,1.254 -0.089,1.254 C0.488,1.254 0.488,0.5670000000000001 0.488,-0.089 C0.488,-0.089 0.488,-1.818 0.488,-1.818 C0.488,-1.818 1.195,-1.818 1.195,-1.818 C1.195,-1.818 1.195,1.749 1.195,1.749 C1.195,1.749 0.539,1.749 0.539,1.749 C0.539,1.749 0.539,1.213 0.539,1.213 C0.42200000000000004,1.592 0.066,1.847 -0.331,1.836 C-1.195,1.836 -1.195,1.051 -1.195,0.458 C-1.195,0.458 -1.195,-1.847 -1.195,-1.847 C-1.195,-1.847 -0.486,-1.806 -0.486,-1.806z"></path></g><g opacity="1" transform="matrix(1,0,0,1,39.082,50.767)"><path fill="rgb(0,0,0)" fill-opacity="1" d="M0 0 M0.632,0.276 C0.653,0.03600000000000003 0.604,-0.205 0.487,-0.416 C0.393,-0.591 0.21300000000000002,-0.704 0.014,-0.716 C-0.511,-0.716 -0.563,-0.029999999999999916 -0.563,0.541 C-0.563,1.112 -0.499,1.877 0.014,1.877 C0.20700000000000002,1.867 0.383,1.762 0.481,1.595 C0.598,1.386 0.649,1.1480000000000001 0.632,0.909 C0.632,0.909 0.632,0.276 0.632,0.276zM0 0 M1.334,-2.45 C1.334,-2.45 1.334,2.373 1.334,2.373 C1.334,2.373 0.684,2.373 0.684,2.373 C0.684,2.373 0.684,1.831 0.684,1.831 C0.5670000000000001,2.207 0.21200000000000002,2.456 -0.181,2.437 C-1.149,2.437 -1.334,1.284 -1.334,0.604 C-1.334,-0.6170000000000001 -0.8380000000000001,-1.263 -0.181,-1.263 C0.15500000000000003,-1.287 0.47,-1.095 0.602,-0.784 C0.602,-0.784 0.602,-2.456 0.602,-2.456 C0.602,-2.456 1.334,-2.45 1.334,-2.45z"></path></g><g opacity="1" transform="matrix(1,0,0,1,43.224,51.353)"><path fill="rgb(0,0,0)" fill-opacity="1" d="M0 0 M0.575,0.042 C0.575,0.042 0.367,0.042 0.367,0.042 C-0.45099999999999996,0.042 -0.555,0.468 -0.555,0.802 C-0.555,1.229 -0.33099999999999996,1.339 -0.094,1.339 C0.142,1.339 0.58,1.0210000000000001 0.58,0.232 C0.58,0.232 0.58,0.053 0.58,0.053 C0.58,0.053 0.575,0.042 0.575,0.042zM0 0 M-1.154,-0.863 C-1.0499999999999998,-1.472 -0.504,-1.9040000000000001 0.114,-1.866 C0.471,-1.891 0.8210000000000001,-1.7480000000000002 1.058,-1.479 C1.241,-1.155 1.313,-0.782 1.266,-0.414 C1.266,-0.414 1.266,0.797 1.266,0.797 C1.2550000000000001,1.1280000000000001 1.2750000000000001,1.4589999999999999 1.324,1.787 C1.324,1.787 0.69,1.787 0.69,1.787 C0.6519999999999999,1.5979999999999999 0.636,1.405 0.644,1.211 C0.494,1.617 0.10899999999999999,1.889 -0.325,1.891 C-0.5940000000000001,1.903 -0.8559999999999999,1.796 -1.041,1.599 C-1.226,1.402 -1.315,1.134 -1.287,0.866 C-1.3239999999999998,0.38 -1.042,-0.07200000000000001 -0.59,-0.253 C-0.21699999999999997,-0.369 0.17299999999999993,-0.41800000000000004 0.563,-0.396 C0.563,-0.396 0.563,-0.541 0.563,-0.541 C0.563,-0.8 0.5630000000000001,-1.307 0.056,-1.307 C-0.262,-1.307 -0.52,-1.049 -0.52,-0.731 C-0.52,-0.731 -1.2,-0.823 -1.2,-0.823 C-1.2,-0.823 -1.154,-0.863 -1.154,-0.863z"></path></g><g opacity="1" transform="matrix(1,0,0,1,46.241,51.357)"><path fill="rgb(0,0,0)" fill-opacity="1" d="M0 0 M0.588,-0.51 C0.5419999999999999,-0.931 0.467,-1.281 0.075,-1.281 C-0.414,-1.281 -0.529,-0.78 -0.529,0.078 C-0.529,0.395 -0.529,1.265 0.075,1.265 C0.514,1.265 0.5599999999999999,0.792 0.588,0.492 C0.588,0.492 1.268,0.555 1.268,0.555 C1.21,0.994 1.095,1.87 0.018,1.87 C-1.059,1.87 -1.273,0.763 -1.273,0.01 C-1.273,-0.745 -1.048,-1.87 0.069,-1.87 C1.095,-1.87 1.2209999999999999,-0.965 1.273,-0.578 C1.273,-0.578 0.594,-0.51 0.594,-0.51 C0.594,-0.51 0.588,-0.51 0.588,-0.51z"></path></g><g opacity="1" transform="matrix(1,0,0,1,49.18,51.357)"><path fill="rgb(0,0,0)" fill-opacity="1" d="M0 0 M0.587,-0.51 C0.5349999999999999,-0.931 0.466,-1.281 0.074,-1.281 C-0.409,-1.281 -0.502,-0.78 -0.502,0.078 C-0.502,0.395 -0.502,1.265 0.074,1.265 C0.513,1.265 0.5589999999999999,0.792 0.587,0.492 C0.587,0.492 1.268,0.555 1.268,0.555 C1.215,0.994 1.095,1.87 0.017,1.87 C-1.06,1.87 -1.273,0.763 -1.273,0.01 C-1.273,-0.745 -1.049,-1.87 0.068,-1.87 C1.095,-1.87 1.2209999999999999,-0.965 1.273,-0.578 C1.273,-0.578 0.593,-0.51 0.593,-0.51 C0.593,-0.51 0.587,-0.51 0.587,-0.51z"></path></g><g opacity="1" transform="matrix(1,0,0,1,52.216,51.363)"><path fill="rgb(0,0,0)" fill-opacity="1" d="M0 0 M-0.6,-0.003 C-0.6,0.931 -0.398,1.306 -0.024,1.306 C0.351,1.306 0.552,0.942 0.552,-0.008 C0.552,-0.959 0.357,-1.316 -0.024,-1.316 C-0.404,-1.316 -0.6,-0.866 -0.6,0.004M0 0 M1.349,-0.044 C1.349,0.7859999999999999 1.159,1.87 -0.005,1.87 C-1.0719999999999998,1.87 -1.349,0.925 -1.349,-0.003 C-1.349,-0.931 -1.1190000000000002,-1.87 0.005,-1.87 C1.128,-1.87 1.349,-0.907 1.349,-0.037"></path></g><g opacity="1" transform="matrix(1,0,0,1,55.204,51.396)"><path fill="rgb(0,0,0)" fill-opacity="1" d="M0 0 M-0.481,-1.822 C-0.481,-1.822 -0.481,0.443 -0.481,0.443 C-0.481,0.9450000000000001 -0.48100000000000004,1.239 -0.083,1.239 C0.49399999999999994,1.239 0.494,0.552 0.494,-0.104 C0.494,-0.104 0.494,-1.833 0.494,-1.833 C0.494,-1.833 1.202,-1.833 1.202,-1.833 C1.202,-1.833 1.202,1.734 1.202,1.734 C1.202,1.734 0.544,1.734 0.544,1.734 C0.544,1.734 0.544,1.198 0.544,1.198 C0.43000000000000005,1.588 0.063,1.851 -0.343,1.831 C-1.202,1.831 -1.202,1.047 -1.202,0.453 C-1.202,0.453 -1.202,-1.851 -1.202,-1.851 C-1.202,-1.851 -0.481,-1.822 -0.481,-1.822z"></path></g><g opacity="1" transform="matrix(1,0,0,1,58.152,51.329)"><path fill="rgb(0,0,0)" fill-opacity="1" d="M0 0 M-1.205,-1.755 C-1.205,-1.755 -0.548,-1.755 -0.548,-1.755 C-0.548,-1.755 -0.548,-1.179 -0.548,-1.179 C-0.44300000000000006,-1.56 -0.09700000000000003,-1.822 0.298,-1.818 C0.619,-1.84 0.923,-1.665 1.066,-1.375 C1.167,-1.083 1.206,-0.773 1.181,-0.465 C1.181,-0.465 1.181,1.84 1.181,1.84 C1.181,1.84 0.471,1.84 0.471,1.84 C0.471,1.84 0.471,-0.447 0.471,-0.447 C0.471,-0.908 0.471,-1.248 0.062,-1.248 C-0.5149999999999999,-1.248 -0.515,-0.5569999999999999 -0.515,-0.183 C-0.515,-0.183 -0.515,1.811 -0.515,1.811 C-0.515,1.811 -1.205,1.811 -1.205,1.811 C-1.205,1.811 -1.205,-1.755 -1.205,-1.755z"></path></g><g opacity="1" transform="matrix(1,0,0,1,60.597,50.922)"><path fill="rgb(0,0,0)" fill-opacity="1" d="M0 0 M0.839,-0.755 C0.839,-0.755 0.188,-0.755 0.188,-0.755 C0.188,-0.755 0.188,0.824 0.188,0.824 C0.188,1.446 0.18700000000000006,1.683 0.659,1.683 C0.757,1.688 0.857,1.688 0.954,1.683 C0.954,1.683 0.954,2.259 0.954,2.259 C0.78,2.3 0.603,2.321 0.424,2.322 C-0.5090000000000001,2.322 -0.509,1.671 -0.509,0.888 C-0.509,0.888 -0.509,-0.755 -0.509,-0.755 C-0.509,-0.755 -0.954,-0.755 -0.954,-0.755 C-0.954,-0.755 -0.954,-1.331 -0.954,-1.331 C-0.954,-1.331 -0.487,-1.331 -0.487,-1.331 C-0.487,-1.331 -0.451,-2.264 -0.451,-2.264 C-0.451,-2.264 0.188,-2.322 0.188,-2.322 C0.188,-2.322 0.188,-1.331 0.188,-1.331 C0.188,-1.331 0.845,-1.331 0.845,-1.331 C0.845,-1.331 0.845,-0.755 0.845,-0.755 C0.845,-0.755 0.839,-0.755 0.839,-0.755z"></path></g><g opacity="1" transform="matrix(1,0,0,1,62.437,50.723)"><path fill="rgb(0,0,0)" fill-opacity="1" d="M0 0 M-0.362,2.417 C-0.362,2.417 0.347,2.417 0.347,2.417 C0.347,2.417 0.347,-1.149 0.347,-1.149 C0.347,-1.149 -0.362,-1.149 -0.362,-1.149 C-0.362,-1.149 -0.362,2.417 -0.362,2.417zM0 0 M-0.362,-1.616 C-0.362,-1.616 0.38,-1.616 0.38,-1.616 C0.38,-1.616 0.38,-2.417 0.38,-2.417 C0.38,-2.417 -0.38,-2.417 -0.38,-2.417 C-0.38,-2.417 -0.38,-1.634 -0.38,-1.634 C-0.38,-1.634 -0.362,-1.616 -0.362,-1.616z"></path></g><g opacity="1" transform="matrix(1,0,0,1,64.594,51.329)"><path fill="rgb(0,0,0)" fill-opacity="1" d="M0 0 M-1.205,-1.755 C-1.205,-1.755 -0.548,-1.755 -0.548,-1.755 C-0.548,-1.755 -0.548,-1.179 -0.548,-1.179 C-0.44100000000000006,-1.5590000000000002 -0.09600000000000003,-1.82 0.298,-1.818 C0.62,-1.84 0.924,-1.665 1.066,-1.375 C1.167,-1.083 1.206,-0.773 1.181,-0.465 C1.181,-0.465 1.181,1.84 1.181,1.84 C1.181,1.84 0.471,1.84 0.471,1.84 C0.471,1.84 0.471,-0.447 0.471,-0.447 C0.471,-0.908 0.471,-1.248 0.062,-1.248 C-0.5149999999999999,-1.248 -0.515,-0.5569999999999999 -0.515,-0.183 C-0.515,-0.183 -0.515,1.811 -0.515,1.811 C-0.515,1.811 -1.205,1.811 -1.205,1.811 C-1.205,1.811 -1.205,-1.755 -1.205,-1.755z"></path></g><g opacity="1" transform="matrix(1,0,0,1,67.685,51.74)"><path fill="rgb(0,0,0)" fill-opacity="1" d="M0 0 M-0.552,-1.066 C-0.552,-0.9570000000000001 -0.552,-0.381 -0.067,-0.381 C0.417,-0.381 0.423,-0.9570000000000001 0.423,-1.066 C0.423,-1.1760000000000002 0.42300000000000004,-1.769 -0.044,-1.769 C-0.511,-1.769 -0.552,-1.372 -0.552,-1.066zM0 0 M-0.828,1.705 C-0.828,2.091 -0.522,2.206 0.002,2.206 C0.302,2.206 0.815,2.155 0.815,1.716 C0.818,1.607 0.7759999999999999,1.5010000000000001 0.698,1.423 C0.62,1.346 0.515,1.304 0.405,1.307 C0.273,1.307 -0.379,1.261 -0.528,1.255 C-0.7110000000000001,1.3319999999999999 -0.829,1.512 -0.828,1.71 C-0.828,1.71 -0.828,1.705 -0.828,1.705zM0 0 M1.425,-2.196 C1.371,-2.2030000000000003 1.318,-2.2030000000000003 1.264,-2.196 C1.062,-2.196 0.9420000000000001,-2.103 0.889,-1.804 C1.063,-1.587 1.156,-1.316 1.154,-1.038 C1.164,-0.7230000000000001 1.042,-0.41900000000000004 0.816,-0.199 C0.59,0.02099999999999999 0.281,0.134 -0.033,0.115 C-0.181,0.117 -0.32899999999999996,0.095 -0.471,0.051 C-0.574,0.103 -0.729,0.16599999999999998 -0.729,0.368 C-0.729,0.5700000000000001 -0.5559999999999999,0.645 0.14,0.679 C0.837,0.7140000000000001 1.477,0.7599999999999999 1.477,1.642 C1.477,2.5229999999999997 0.549,2.747 -0.079,2.747 C-0.5619999999999999,2.747 -1.462,2.656 -1.462,1.849 C-1.4769999999999999,1.531 -1.268,1.244 -0.961,1.163 C-1.181,1.055 -1.326,0.833 -1.335,0.587 C-1.32,0.27199999999999996 -1.1219999999999999,-0.0059999999999999915 -0.828,-0.122 C-1.161,-0.321 -1.3459999999999999,-0.697 -1.301,-1.083 C-1.301,-1.398 -1.172,-1.7 -0.944,-1.918 C-0.718,-2.135 -0.41100000000000003,-2.2510000000000003 -0.096,-2.236 C0.132,-2.24 0.35800000000000004,-2.188 0.561,-2.087 C0.6070000000000001,-2.3630000000000004 0.67,-2.743 1.195,-2.743 C1.27,-2.7479999999999998 1.345,-2.7479999999999998 1.419,-2.743 C1.419,-2.743 1.419,-2.202 1.419,-2.202 C1.419,-2.202 1.425,-2.196 1.425,-2.196z"></path></g><g opacity="1" transform="matrix(1,0,0,1,14.721,40.963)"><path fill="rgb(13,131,221)" fill-opacity="1" d="M0 0 M-2.497,-5.413 C-2.497,-5.413 2.497,-5.413 2.497,-5.413 C2.497,-5.413 2.497,-3.102 2.497,-3.102 C2.497,-3.102 -0.044,-3.102 -0.044,-3.102 C-0.044,-3.102 -0.044,-1.115 -0.044,-1.115 C-0.044,-1.115 2.209,-1.115 2.209,-1.115 C2.209,-1.115 2.209,1.138 2.209,1.138 C2.209,1.138 -0.044,1.138 -0.044,1.138 C-0.044,1.138 -0.044,5.413 -0.044,5.413 C-0.044,5.413 -2.497,5.413 -2.497,5.413 C-2.497,5.413 -2.497,-5.413 -2.497,-5.413z"></path></g><g opacity="1" transform="matrix(1,0,0,1,20.37,41.825)"><path fill="rgb(13,131,221)" fill-opacity="1" d="M0 0 M-0.898,-2.737 C-0.898,-2.737 -0.898,-0.594 -0.898,-0.594 C0.009000000000000008,-0.594 0.461,-0.91 0.461,-1.544 C0.48900000000000005,-1.8760000000000001 0.374,-2.2030000000000003 0.143,-2.443 C-0.164,-2.653 -0.533,-2.7550000000000003 -0.905,-2.732 C-0.905,-2.732 -0.898,-2.737 -0.898,-2.737zM0 0 M-2.961,-4.489 C-2.961,-4.489 -0.576,-4.489 -0.576,-4.489 C0.258,-4.54 1.081,-4.274 1.728,-3.745 C2.296,-3.23 2.604,-2.488 2.569,-1.722 C2.567,-1.281 2.459,-0.8460000000000001 2.253,-0.456 C2.049,-0.057999999999999996 1.726,0.265 1.326,0.466 C1.326,0.466 2.961,4.539 2.961,4.539 C2.961,4.539 0.795,4.539 0.795,4.539 C0.795,4.539 -0.864,0.427 -0.864,0.427 C-0.864,0.427 -0.898,0.427 -0.898,0.427 C-0.898,0.427 -0.898,4.539 -0.898,4.539 C-0.898,4.539 -2.961,4.539 -2.961,4.539 C-2.961,4.539 -2.961,-4.489 -2.961,-4.489z"></path></g><g opacity="1" transform="matrix(1,0,0,1,25.574,41.853)"><path fill="rgb(13,131,221)" fill-opacity="1" d="M0 0 M-2.08,-4.517 C-2.08,-4.517 2.068,-4.517 2.068,-4.517 C2.068,-4.517 2.068,-2.593 2.068,-2.593 C2.068,-2.593 -0.029,-2.593 -0.029,-2.593 C-0.029,-2.593 -0.029,-0.928 -0.029,-0.928 C-0.029,-0.928 1.791,-0.928 1.791,-0.928 C1.791,-0.928 1.791,0.945 1.791,0.945 C1.791,0.945 -0.029,0.945 -0.029,0.945 C-0.029,0.945 -0.029,2.592 -0.029,2.592 C-0.029,2.592 2.08,2.592 2.08,2.592 C2.08,2.592 2.08,4.517 2.08,4.517 C2.08,4.517 -2.08,4.517 -2.08,4.517 C-2.08,4.517 -2.08,-4.517 -2.08,-4.517z"></path></g><g opacity="1" transform="matrix(1,0,0,1,35.023,41.853)"><path fill="rgb(13,131,221)" fill-opacity="1" d="M0 0 M-2.961,-4.517 C-2.961,-4.517 -0.91,-4.517 -0.91,-4.517 C-0.91,-4.517 -0.91,-1.163 -0.91,-1.163 C-0.91,-1.163 0.91,-1.163 0.91,-1.163 C0.91,-1.163 0.91,-4.517 0.91,-4.517 C0.91,-4.517 2.961,-4.517 2.961,-4.517 C2.961,-4.517 2.961,4.517 2.961,4.517 C2.961,4.517 0.91,4.517 0.91,4.517 C0.91,4.517 0.91,0.76 0.91,0.76 C0.91,0.76 -0.91,0.76 -0.91,0.76 C-0.91,0.76 -0.91,4.517 -0.91,4.517 C-0.91,4.517 -2.961,4.517 -2.961,4.517 C-2.961,4.517 -2.961,-4.517 -2.961,-4.517z"></path></g><g opacity="1" transform="matrix(1,0,0,1,41.865,40.986)"><path fill="rgb(4,5,5)" fill-opacity="1" d="M0 0 M-0.994,0.943 C-0.994,0.943 -0.994,3.31 -0.994,3.31 C-0.501,3.331 -0.010000000000000009,3.234 0.436,3.023 C0.75,2.8320000000000003 0.93,2.478 0.897,2.112 C0.897,1.343 0.32999999999999996,0.959 -0.803,0.959 C-0.803,0.959 -0.994,0.943 -0.994,0.943zM0 0 M-0.994,-3.362 C-0.994,-3.362 -0.994,-1.023 -0.994,-1.023 C0.15900000000000003,-1.049 0.736,-1.4329999999999998 0.736,-2.174 C0.77,-2.53 0.612,-2.879 0.321,-3.086 C-0.08899999999999997,-3.29 -0.5429999999999999,-3.3850000000000002 -0.999,-3.362 C-0.999,-3.362 -0.994,-3.362 -0.994,-3.362zM0 0 M-3.448,-5.442 C-3.448,-5.442 -0.93,-5.442 -0.93,-5.442 C0.533,-5.442 1.588,-5.154 2.234,-4.589 C2.868,-4.042000000000001 3.223,-3.237 3.201,-2.399 C3.198,-1.432 2.661,-0.545 1.807,-0.094 C2.806,0.252 3.448,1.224 3.374,2.279 C3.4010000000000002,3.141 3.0389999999999997,3.9699999999999998 2.389,4.537 C1.658,5.134 0.733,5.441 -0.21,5.396 C-0.21,5.396 -3.436,5.396 -3.436,5.396 C-3.436,5.396 -3.436,-5.442 -3.436,-5.442 C-3.436,-5.442 -3.448,-5.442 -3.448,-5.442z"></path></g><g opacity="1" transform="matrix(1,0,0,1,48.682,41.855)"><path fill="rgb(4,5,5)" fill-opacity="1" d="M0 0 M-0.032,-2.711 C-0.77,-2.711 -1.138,-1.8430000000000002 -1.138,-0.106 C-1.192,0.652 -1.097,1.4139999999999997 -0.857,2.135 C-0.73,2.4789999999999996 -0.40399999999999997,2.7079999999999997 -0.037,2.711 C0.34400000000000003,2.71 0.689,2.484 0.844,2.135 C1.1019999999999999,1.432 1.206,0.6819999999999999 1.148,-0.065 C1.148,-1.833 0.765,-2.715 -0.003,-2.711M0 0 M0.072,4.751 C-0.939,4.812 -1.9060000000000001,4.329 -2.463,3.484 C-3.103,2.3890000000000002 -3.402,1.126 -3.322,-0.141 C-3.391,-1.335 -3.091,-2.5200000000000005 -2.463,-3.539 C-1.9260000000000002,-4.336 -1.015,-4.798 -0.055,-4.761 C0.938,-4.812 1.8870000000000002,-4.35 2.458,-3.534 C3.099,-2.485 3.402,-1.264 3.326,-0.036 C3.4,1.195 3.106,2.4210000000000003 2.48,3.484 C1.9449999999999998,4.305 1.016,4.782 0.037,4.74"></path></g><g opacity="1" transform="matrix(1,0,0,1,55.461,41.848)"><path fill="rgb(4,5,5)" fill-opacity="1" d="M0 0 M-0.024,-2.704 C-0.793,-2.704 -1.177,-1.836 -1.177,-0.099 C-1.229,0.659 -1.134,1.42 -0.894,2.142 C-0.766,2.485 -0.441,2.713 -0.076,2.718 C0.306,2.718 0.653,2.492 0.806,2.142 C1.072,1.4409999999999998 1.1809999999999998,0.69 1.128,-0.058 C1.128,-1.826 0.744,-2.708 -0.024,-2.704zM0 0 M0.051,4.758 C-0.9539999999999998,4.811 -1.912,4.33 -2.468,3.491 C-3.106,2.395 -3.4050000000000002,1.133 -3.326,-0.134 C-3.394,-1.331 -3.093,-2.519 -2.462,-3.539 C-1.9240000000000002,-4.336 -1.013,-4.798 -0.053,-4.761 C0.94,-4.812 1.8900000000000001,-4.348 2.459,-3.533 C3.1020000000000003,-2.484 3.4050000000000002,-1.262 3.329,-0.035 C3.4010000000000002,1.199 3.1020000000000003,2.428 2.471,3.491 C1.936,4.3100000000000005 1.01,4.7860000000000005 0.033,4.746"></path></g><g opacity="1" transform="matrix(1,0,0,1,62.04,41.853)"><path fill="rgb(4,5,5)" fill-opacity="1" d="M0 0 M-3.088,-4.517 C-3.088,-4.517 -1.037,-4.517 -1.037,-4.517 C-1.037,-4.517 -1.037,-0.265 -1.037,-0.265 C-1.037,-0.265 -1.003,-0.265 -1.003,-0.265 C-1.003,-0.265 0.933,-4.517 0.933,-4.517 C0.933,-4.517 3.088,-4.517 3.088,-4.517 C3.088,-4.517 0.986,0.098 0.986,0.098 C0.986,0.098 2.997,4.517 2.997,4.517 C2.997,4.517 0.743,4.517 0.743,4.517 C0.743,4.517 -1.003,0.76 -1.003,0.76 C-1.003,0.76 -1.037,0.76 -1.037,0.76 C-1.037,0.76 -1.037,4.517 -1.037,4.517 C-1.037,4.517 -3.088,4.517 -3.088,4.517 C-3.088,4.517 -3.088,-4.517 -3.088,-4.517z"></path></g><g opacity="1" transform="matrix(1,0,0,1,67.326,41.859)"><path fill="rgb(4,5,5)" fill-opacity="1" d="M0 0 M-2.122,4.35 C-2.122,4.35 -2.122,2.247 -2.122,2.247 C-1.6349999999999998,2.576 -1.071,2.773 -0.486,2.823 C-0.262,2.835 -0.04200000000000001,2.759 0.125,2.61 C0.279,2.459 0.361,2.2489999999999997 0.35,2.034 C0.348,1.8489999999999998 0.28500000000000003,1.6709999999999998 0.171,1.527 C-0.011999999999999983,1.309 -0.221,1.1159999999999999 -0.451,0.951 C-1.04,0.532 -1.56,0.02499999999999991 -1.995,-0.552 C-2.311,-1.0110000000000001 -2.478,-1.5570000000000002 -2.474,-2.115 C-2.507,-2.826 -2.239,-3.518 -1.735,-4.021 C-1.2320000000000002,-4.525 -0.5399999999999999,-4.792 0.171,-4.758 C0.768,-4.756 1.357,-4.629 1.899,-4.385 C1.899,-4.385 1.899,-2.362 1.899,-2.362 C1.45,-2.6420000000000003 0.9410000000000001,-2.8110000000000004 0.413,-2.857 C0.205,-2.863 0.0020000000000000018,-2.798 -0.163,-2.672 C-0.311,-2.545 -0.393,-2.357 -0.382,-2.161 C-0.382,-1.7770000000000001 -0.04200000000000004,-1.349 0.638,-0.88 C1.104,-0.546 1.521,-0.15000000000000002 1.877,0.299 C2.29,0.7929999999999999 2.513,1.4180000000000001 2.505,2.063 C2.524,2.795 2.226,3.5010000000000003 1.687,3.998 C1.1230000000000002,4.517 0.377,4.793 -0.388,4.766 C-0.987,4.766 -1.5790000000000002,4.626 -2.116,4.362"></path></g><g opacity="1" transform="matrix(1,0,0,1,29.549,41.524)"><path fill="rgb(13,131,221)" fill-opacity="1" d="M0 0 M2.691,2.501 C2.691,2.501 0.628,-0.449 0.628,-0.449 C-1.4339999999999997,-3.399 2.985,-5.312 2.985,-5.312 C2.985,-5.312 2.663,-5.635 2.663,-5.635 C2.663,-5.635 -4.523,-4.154 -1.515,0.127 C-1.515,0.127 0.536,3.238 0.536,3.238 C1.302,4.391 0.15599999999999992,5.059 -0.553,5.059 C-0.553,5.059 -1.867,5.059 -1.867,5.059 C-1.867,5.059 -1.867,5.635 -1.867,5.635 C-1.867,5.635 -0.858,5.635 -0.858,5.635 C0.8710000000000001,5.635 4.523,5.261 2.691,2.535"></path></g><g opacity="1" transform="matrix(1,0,0,1,55.008,35.152)"><path fill="rgb(99,139,15)" fill-opacity="1" d="M0 0 M1.375,-2.057 C1.375,-2.057 0.4169999999999998,-1.481 -1.34,1.078 C-1.616,1.481 -1.8,1.441 -1.8,1.441 C-1.8,1.441 -1.721,2.057 -0.815,1.873 C-0.815,1.873 0.4630000000000001,-1.158 1.8,-1.763 C1.8,-1.763 1.375,-2.057 1.375,-2.057z"></path></g><g opacity="1" transform="matrix(1,0,0,1,62.482,30.485)"><path fill="rgb(133,197,31)" fill-opacity="1" d="M0 0 M-7.351,4.172 C-7.351,4.172 -6.7749999999999995,-4.119 -0.039,-3.894 C5.527,-3.722 7.319,-5.889 7.319,-5.889 C7.319,-5.889 7.377,5.888999999999999 -7.351,4.172z"></path></g><g opacity="1" transform="matrix(1,0,0,1,61.651,30.603)"><path fill="rgb(99,139,15)" fill-opacity="1" d="M0 0 M-5.713,3.252 C-5.713,3.252 -2.931,-0.9470000000000001 0.353,-1.27 C2.292,-1.439 4.151,-2.1229999999999998 5.736,-3.252 C4.276,-1.6499999999999997 2.2779999999999996,-0.641 0.123,-0.413 C-2.9429999999999996,-0.10699999999999998 -5.736,3.252 -5.736,3.252"></path></g></g></g><g transform="matrix(0.92,0,0,0.92,458.0611,172.2559)" opacity="1" style="user-select: none;"><g opacity="1" transform="matrix(1,0,0,1,32.251,32.256)"><path fill="rgb(0,116,190)" fill-opacity="1" d="M0 0 M0,-32.006 C17.674,-32.006 32.001,-17.677 32.001,-0.001 C32.001,17.676 17.674,32.006 0,32.006 C-17.673,32.006 -32.001,17.676 -32.001,-0.001 C-32.001,-17.677 -17.673,-32.006 0,-32.006z"></path></g><g opacity="1" transform="matrix(1,0,0,1,27.635,32.397)"><path fill="rgb(255,255,255)" fill-opacity="1" d="M0 0 M4.359,12.496 C6.756,12.496 9.154,11.623 10.026,11.405 C10.462,11.296 10.571,11.623 10.571,11.623 C12.206,15.113 14.385,16.749 14.93,17.403 C15.148,17.73 14.712,18.058 14.712,18.058 C12.096,19.694 7.846,20.566 4.468,20.566 C-7.629,20.676 -17.001,11.186 -17.001,0.062 C-17.001,-12.043000000000001 -7.411,-20.985999999999997 4.032,-20.551 C8.718,-20.551 13.186,-18.914 16.238,-16.951 C17.001,-16.406 17.001,-16.188000000000002 16.892,-15.97 C16.238,-14.988000000000001 14.385,-12.262 13.404,-10.407 C13.404,-10.407 13.186,-9.862 12.641,-10.19 C10.68,-11.498 7.955,-12.698 3.596,-12.698 C-3.2699999999999996,-12.698 -8.392,-7.354 -8.392,-0.155 C-8.501,7.151 -2.5069999999999997,12.496 4.359,12.496z"></path></g><g opacity="1" transform="matrix(1,0,0,1,50.568,39.785)"><path fill="rgb(255,255,255)" fill-opacity="1" d="M0 0 M0,-5.99 C3.308,-5.99 5.99,-3.308 5.99,0 C5.99,3.309 3.308,5.99 0,5.99 C-3.309,5.99 -5.99,3.309 -5.99,0 C-5.99,-3.308 -3.309,-5.99 0,-5.99z"></path></g></g><g transform="matrix(1.06,0,0,1.06,230.2225,371.0815)" opacity="1" style="user-select: none;"><g opacity="1" transform="matrix(1,0,0,1,33.079,33.084)"><path fill="rgb(35,161,5)" fill-opacity="1" d="M0 0 M0,-32.834 C18.131,-32.834 32.829,-18.134 32.829,-0.001 C32.829,18.133 18.131,32.834 0,32.834 C-18.131,32.834 -32.829,18.133 -32.829,-0.001 C-32.829,-18.134 -18.131,-32.834 0,-32.834z"></path></g><g opacity="1" transform="matrix(1,0,0,1,33.045,33.003)"><path fill="rgb(255,255,255)" fill-opacity="1" d="M0 0 M-1.509,19.212 C-1.509,19.212 -6.076,19.212 -6.076,19.212 C-6.076,19.212 -6.076,-8.328 -6.076,-8.328 C-6.076,-8.328 -10.099,-8.328 -10.099,-8.328 C-14.715,-8.328 -18.458,-4.585 -18.458,0.031 C-18.458,4.646999999999999 -14.715,8.389 -10.099,8.389 C-10.099,8.389 -8.972,8.389 -8.972,8.389 C-8.972,8.389 -8.972,12.956 -8.972,12.956 C-8.972,12.956 -10.099,12.956 -10.099,12.956 C-17.237000000000002,12.956 -23.024,7.169 -23.024,0.031 C-23.024,-7.1080000000000005 -17.237000000000002,-12.894 -10.099,-12.894 C-10.099,-12.894 -1.469,-12.894 -1.469,-12.894 C-1.469,-12.894 -1.469,19.292 -1.469,19.292 C-1.469,19.292 -1.509,19.212 -1.509,19.212zM0 0 M10.018,12.895 C10.018,12.895 1.388,12.895 1.388,12.895 C1.388,12.895 1.388,-19.292 1.388,-19.292 C1.388,-19.292 5.955,-19.292 5.955,-19.292 C5.955,-19.292 5.955,8.329 5.955,8.329 C5.955,8.329 9.978,8.329 9.978,8.329 C14.594,8.329 18.336,4.585999999999999 18.336,-0.03 C18.336,-4.646 14.594,-8.388 9.978,-8.388 C9.978,-8.388 8.972,-8.388 8.972,-8.388 C8.972,-8.388 8.972,-12.955 8.972,-12.955 C8.972,-12.955 10.098,-12.955 10.098,-12.955 C17.237000000000002,-12.955 23.023,-7.167 23.023,-0.03 C23.023,7.109 17.237000000000002,12.895 10.098,12.895 C10.098,12.895 10.018,12.895 10.018,12.895z"></path></g></g><g transform="matrix(1.32,0,0,1.32,475.6633,615.0843)" opacity="1" style="user-select: none;"><g opacity="1" transform="matrix(1,0,0,1,28.909,28.914)"><path fill="rgb(255,255,255)" fill-opacity="1" d="M0 0 M0,-28.664 C15.828,-28.664 28.659,-15.831 28.659,0 C28.659,15.831 15.828,28.664 0,28.664 C-15.828,28.664 -28.659,15.831 -28.659,0 C-28.659,-15.831 -15.828,-28.664 0,-28.664z"></path></g><g opacity="1" transform="matrix(1,0,0,1,27.23,23.889)"><path fill="rgb(228,66,109)" fill-opacity="1" d="M0 0 M4.83,0.767 C4.83,0.767 -13.881,-12.139000000000001 -14.974,9.03 C-14.974,9.03 -18.046,0.22100000000000009 -11.423,-5.31 C-11.423,-5.31 -4.149000000000001,-11.866 6.571,-5.139 C6.571,-5.139 7.766,-9.032 7.766,-9.032 C7.766,-9.032 15.687,2.782 15.687,2.782 C15.687,2.782 3.43,4.591 3.43,4.591 C3.395,4.557 4.488,2.304 4.83,0.767z"></path></g><g opacity="1" transform="matrix(1,0,0,1,30.47,34.236)"><path fill="rgb(228,66,109)" fill-opacity="1" d="M0 0 M-4.864,-0.77 C-4.864,-0.77 13.846,12.136000000000001 14.939,-9.033 C14.939,-9.033 18.012,-0.2239999999999993 11.388,5.307 C11.388,5.307 4.115,11.863 -6.605,5.136 C-6.605,5.136 -7.801,9.029 -7.801,9.029 C-7.801,9.029 -15.653,-2.785 -15.653,-2.785 C-15.653,-2.785 -3.396,-4.526 -3.396,-4.526 C-3.396,-4.593999999999999 -4.386,-2.306 -4.864,-0.77z"></path></g></g><g transform="matrix(0.84,0,0,0.84,103.0417,434.6407)" opacity="1" style="user-select: none;"><g opacity="1" transform="matrix(1,0,0,1,42.254,42.261)"><path fill="rgb(255,255,255)" fill-opacity="1" d="M0 0 M0,-42.011 C23.199,-42.011 42.004,-23.201 42.004,0.001 C42.004,23.203000000000003 23.199,42.011 0,42.011 C-23.198,42.011 -42.004,23.203000000000003 -42.004,0.001 C-42.004,-23.201 -23.198,-42.011 0,-42.011z"></path></g><g opacity="1" transform="matrix(1,0,0,1,50.003,50.802)"><path fill="rgb(35,141,193)" fill-opacity="1" d="M0 0 M9.638,9.833 C9.638,10.929 8.741,11.825 7.644,11.825 C7.644,11.825 -7.635,11.825 -7.635,11.825 C-8.732,11.825 -9.628,10.929 -9.628,9.833 C-9.628,9.833 -9.628,-9.831 -9.628,-9.831 C-9.628,-10.927999999999999 -8.732,-11.825 -7.635,-11.825 C-7.635,-11.825 7.644,-11.825 7.644,-11.825 C8.741,-11.825 9.638,-10.927999999999999 9.638,-9.831 C9.638,-9.831 9.638,9.833 9.638,9.833zM0 0 M7.904,-14.283 C7.904,-14.283 -7.901,-14.283 -7.901,-14.283 C-10.094,-14.283 -11.887,-12.488 -11.887,-10.296 C-11.887,-10.296 -11.887,10.298 -11.887,10.298 C-11.887,12.489 -10.094,14.283 -7.901,14.283 C-7.901,14.283 7.904,14.283 7.904,14.283 C10.097,14.283 11.89,12.489 11.89,10.298 C11.89,10.298 11.89,-10.296 11.89,-10.296 C11.89,-12.488 10.097,-14.283 7.904,-14.283z"></path></g><g opacity="1" transform="matrix(1,0,0,1,34.858,34.061)"><path fill="rgb(207,16,44)" fill-opacity="1" d="M0 0 M-7.638,11.824 C-8.734,11.824 -9.631,10.928 -9.631,9.833 C-9.631,9.833 -9.631,-9.833 -9.631,-9.833 C-9.631,-10.929 -8.734,-11.824 -7.638,-11.824 C-7.638,-11.824 7.642,-11.824 7.642,-11.824 C8.738,-11.824 9.634,-10.929 9.634,-9.833 C9.634,-9.833 9.634,-7.573 9.634,-7.573 C9.634,-7.573 11.888,-7.573 11.888,-7.573 C11.888,-7.573 11.888,-10.297 11.888,-10.297 C11.888,-12.489 10.094000000000001,-14.282 7.902,-14.282 C7.902,-14.282 -7.904,-14.282 -7.904,-14.282 C-10.096,-14.282 -11.889,-12.489 -11.889,-10.297 C-11.889,-10.297 -11.889,10.296 -11.889,10.296 C-11.889,12.488999999999999 -10.096,14.282 -7.904,14.282 C-7.904,14.282 -6.176,14.282 -6.176,14.282 C-6.176,14.282 -6.176,11.824 -6.176,11.824 C-6.176,11.824 -7.638,11.824 -7.638,11.824z"></path></g><g opacity="1" transform="matrix(1,0,0,1,42.696,42.564)"><path fill="rgb(248,190,0)" fill-opacity="1" d="M0 0 M-7.636,11.825 C-8.732,11.825 -9.628,10.929 -9.628,9.832 C-9.628,9.832 -9.628,-9.831 -9.628,-9.831 C-9.628,-10.927 -8.732,-11.824 -7.636,-11.824 C-7.636,-11.824 7.643,-11.824 7.643,-11.824 C8.74,-11.824 9.636,-10.927 9.636,-9.831 C9.636,-9.831 9.636,-7.971 9.636,-7.971 C9.636,-7.971 11.888,-7.971 11.888,-7.971 C11.888,-7.971 11.888,-10.296 11.888,-10.296 C11.888,-12.488 10.096,-14.282 7.904,-14.282 C7.904,-14.282 -7.903,-14.282 -7.903,-14.282 C-10.094,-14.282 -11.888,-12.488 -11.888,-10.296 C-11.888,-10.296 -11.888,10.297 -11.888,10.297 C-11.888,12.489 -10.094,14.282 -7.903,14.282 C-7.903,14.282 -6.706,14.282 -6.706,14.282 C-6.706,14.282 -6.706,11.825 -6.706,11.825 C-6.706,11.825 -7.636,11.825 -7.636,11.825z"></path></g></g><g transform="matrix(1.4,0,0,1.4,184.0673,502.4653)" opacity="1" style="user-select: none;"><g opacity="1" transform="matrix(1,0,0,1,0,0)"><g opacity="1" transform="matrix(1,0,0,1,44.25,44.257)"><path fill="rgb(255,255,255)" fill-opacity="1" d="M0 0 M0,-44.007 C24.301,-44.007 44,-24.304 44,0 C44,24.304 24.301,44.007 0,44.007 C-24.301,44.007 -44,24.304 -44,0 C-44,-24.304 -24.301,-44.007 0,-44.007z"></path></g><g opacity="1" transform="matrix(1,0,0,1,54.243,40.831)"><path fill="rgb(223,161,46)" fill-opacity="1" d="M0 0 M-1.716,-21.62 C-2.578,-24.279 -5.427,-25.734 -8.08,-24.87 C-10.734,-24.006 -12.186,-21.150000000000002 -11.323,-18.492 C-11.323,-18.492 1.738,21.782 1.738,21.782 C2.634,24.266 5.311999999999999,25.662 7.882,24.921 C10.562999999999999,24.147 12.197000000000001,21.294 11.342,18.655 C11.309000000000001,18.554000000000002 -1.716,-21.62 -1.716,-21.62z"></path></g><g opacity="1" transform="matrix(1,0,0,1,34.008,47.421)"><path fill="rgb(59,176,134)" fill-opacity="1" d="M0 0 M-1.718,-21.62 C-2.58,-24.279 -5.43,-25.734 -8.083,-24.87 C-10.736,-24.006 -12.187999999999999,-21.151 -11.325,-18.492 C-11.325,-18.492 1.735,21.782 1.735,21.782 C2.632,24.266 5.308999999999999,25.662000000000003 7.88,24.92 C10.56,24.147000000000002 12.195,21.294 11.339,18.654 C11.306000000000001,18.554 -1.718,-21.62 -1.718,-21.62z"></path></g><g opacity="1" transform="matrix(1,0,0,1,47.439,54.31)"><path fill="rgb(206,30,91)" fill-opacity="1" d="M0 0 M21.6,-1.735 C24.261000000000003,-2.604 25.717,-5.476999999999999 24.852,-8.152 C23.988,-10.825999999999999 21.129,-12.29 18.468,-11.421 C18.468,-11.421 -21.834,1.746 -21.834,1.746 C-24.32,2.65 -25.717000000000002,5.349 -24.975,7.94 C-24.201,10.643 -21.345,12.290000000000001 -18.705,11.428 C-18.604,11.395000000000001 21.6,-1.735 21.6,-1.735z"></path></g><g opacity="1" transform="matrix(1,0,0,1,37.216,57.59)"><path fill="rgb(57,36,56)" fill-opacity="1" d="M0 0 M-3.263,6.407 C-0.629,5.551 2.7640000000000002,4.449 6.407,3.265 C5.551,0.6320000000000001 4.449,-2.7640000000000002 3.265,-6.407 C3.265,-6.407 -6.407,-3.263 -6.407,-3.263 C-6.407,-3.263 -3.263,6.407 -3.263,6.407z"></path></g><g opacity="1" transform="matrix(1,0,0,1,57.506,51.082)"><path fill="rgb(186,35,42)" fill-opacity="1" d="M0 0 M-3.246,6.391 C0.3900000000000001,5.2059999999999995 3.7690000000000006,4.106 6.371,3.258 C5.5200000000000005,0.6310000000000002 4.422000000000001,-2.7560000000000002 3.245,-6.391 C3.245,-6.391 -6.371,-3.255 -6.371,-3.255 C-6.371,-3.255 -3.246,6.391 -3.246,6.391z"></path></g><g opacity="1" transform="matrix(1,0,0,1,40.824,34.082)"><path fill="rgb(113,197,205)" fill-opacity="1" d="M0 0 M21.564,-1.729 C24.22,-2.595 25.673,-5.457 24.81,-8.122 C23.947,-10.786 21.094,-12.244 18.437,-11.378 C18.437,-11.378 -21.797,1.739 -21.797,1.739 C-24.279,2.64 -25.674,5.329000000000001 -24.933,7.91 C-24.16,10.603 -21.31,12.244 -18.673,11.385 C-18.572999999999997,11.352 21.564,-1.729 21.564,-1.729z"></path></g><g opacity="1" transform="matrix(1,0,0,1,30.644,37.217)"><path fill="rgb(34,139,115)" fill-opacity="1" d="M0 0 M-3.264,6.407 C-0.6299999999999999,5.551 2.7650000000000006,4.449 6.408,3.265 C5.220000000000001,-0.3919999999999999 4.115,-3.79 3.265,-6.407 C3.265,-6.407 -6.408,-3.263 -6.408,-3.263 C-6.408,-3.263 -3.264,6.407 -3.264,6.407z"></path></g><g opacity="1" transform="matrix(1,0,0,1,51.017,30.645)"><path fill="rgb(97,128,57)" fill-opacity="1" d="M0 0 M-3.264,6.407 C0.39300000000000024,5.219 3.7910000000000004,4.116 6.408,3.265 C5.220000000000001,-0.391 4.115,-3.79 3.264,-6.407 C3.264,-6.407 -6.408,-3.265 -6.408,-3.265 C-6.408,-3.265 -3.264,6.407 -3.264,6.407z"></path></g></g></g><g transform="matrix(1.28,0,0,1.28,491.8387,427.8081)" opacity="1" style="user-select: none;"><g opacity="1" transform="matrix(1,0,0,1,50.391,50.398)"><path fill="rgb(255,255,255)" fill-opacity="1" d="M0 0 M0.001,-50.148 C27.693,-50.148 50.142,-27.696 50.142,0 C50.142,27.697 27.693,50.148 0.001,50.148 C-27.691,50.148 -50.142,27.697 -50.142,0 C-50.142,-27.696 -27.691,-50.148 0.001,-50.148z"></path></g><g opacity="1" transform="matrix(1,0,0,1,60.537,56.979)"><path fill="rgb(119,187,31)" fill-opacity="1" d="M0 0 M-1.786,-18.91 C-1.786,-18.91 -6.144,-7.022 -6.144,-7.022 C-6.144,-7.022 -1.937,3.649 -1.937,3.649 C-1.937,3.649 -10.049,3.649 -10.049,3.649 C-10.049,3.649 -13.106,11.857 -13.106,11.857 C-13.106,11.857 1.241,11.857 1.241,11.857 C1.241,11.857 4.086,18.91 4.086,18.91 C4.086,18.91 13.106,18.91 13.106,18.91 C13.106,18.91 -1.786,-18.91 -1.786,-18.91z"></path></g><g opacity="1" transform="matrix(1,0,0,1,43.411,48.639)"><path fill="rgb(0,121,190)" fill-opacity="1" d="M0 0 M19.419,-23.333 C11.164,-24.942999999999998 7.082,-20.541 5.681,-16.928 C5.407,-16.23 5.041,-15.286999999999999 3.122,-10.247 C1.569,-27.25 -14.606000000000002,-11.248999999999999 -22.617,-20.176 C-23.866,-12.463999999999999 -21.094,-11.553 -21.094,-11.553 C-21.703000000000003,-9.063 -19.266,-6.33 -17.256,-6.695 C-15.459,1.625 2.0869999999999997,-10.369 -2.056,3.202 C-6.016,13.525 -11.255,27.251 -11.255,27.251 C-11.255,27.251 -1.386,27.251 -1.386,27.251 C-1.386,27.251 12.321,-9.366 13.113,-11.067 C14.179,-13.344000000000001 17.590999999999998,-14.225 20.333,-12.312 C20.333,-12.312 23.866,-22.059 23.866,-22.059 C22.008,-22.758000000000003 20.546,-23.090999999999998 19.419,-23.333zM0 0 M-0.929,-5.967 C-4.067,-10.460999999999999 -12.017,-4.084 -13.722,-9.155 C-15.733,-8.729999999999999 -16.464,-11.037 -15.977,-11.858 C-15.977,-11.858 -17.651999999999997,-12.131 -17.47,-14.499 C-11.407999999999998,-10.491 0.32000000000000006,-20.570999999999998 -0.929,-5.967z"></path></g></g><g transform="matrix(1.13,0,0,1.13,113.7528,293.6446)" opacity="1" style="user-select: none;"><g opacity="1" transform="matrix(1,0,0,1,0,0)"><g opacity="1" transform="matrix(1,0,0,1,35.255,35.261)"><path fill="rgb(255,255,255)" fill-opacity="1" d="M0 0 M0,-35.011 C19.333,-35.011 35.005,-19.334999999999997 35.005,0.001 C35.005,19.337 19.333,35.011 0,35.011 C-19.333,35.011 -35.005,19.337 -35.005,0.001 C-35.005,-19.334999999999997 -19.333,-35.011 0,-35.011z"></path></g><g opacity="1" transform="matrix(1,0,0,1,54.149,36.62)"><path fill="rgb(231,146,0)" fill-opacity="1" d="M0 0 M0.687,-5.634 C0.687,-5.634 0.687,4.287 0.687,4.287 C0.687,4.287 -0.66,5.634 -0.66,5.634 C-0.66,5.634 -0.687,-4.072 -0.687,-4.072 C-0.687,-4.072 0.687,-5.634 0.687,-5.634z"></path></g><g opacity="1" transform="matrix(1,0,0,1,59.6,196.31)"><path fill="rgb(255,232,39)" fill-opacity="1" d="M0 0 M-15.184,-163.762 C-15.184,-163.762 -6.111,-163.762 -6.111,-163.762 C-6.111,-163.762 -6.111,-154.056 -6.111,-154.056 C-6.111,-154.056 -15.184,-154.056 -15.184,-154.056 C-15.184,-154.056 -15.184,-163.762 -15.184,-163.762z"></path></g><g opacity="1" transform="matrix(1,0,0,1,49.626,31.767)"><path fill="rgb(255,239,103)" fill-opacity="1" d="M0 0 M-3.782,-0.768 C-3.782,-0.768 -5.209,0.781 -5.209,0.781 C-5.209,0.781 3.864,0.781 3.864,0.781 C3.864,0.781 5.209,-0.781 5.209,-0.781 C5.209,-0.781 -3.782,-0.768 -3.782,-0.768z"></path></g><g opacity="1" transform="matrix(1,0,0,1,38.931,31.922)"><path fill="rgb(162,207,239)" fill-opacity="1" d="M0 0 M-4.314,-0.492 C-4.314,-0.492 4.597,-1.743 4.597,-1.743 C4.597,-1.743 3.857,0.397 3.857,0.397 C3.857,0.397 -4.597,1.743 -4.597,1.743 C-4.597,1.743 -4.557,0.208 -4.557,0.208 C-4.557,0.208 -4.314,-0.492 -4.314,-0.492z"></path></g><g opacity="1" transform="matrix(0.6947,0.7193,-0.7193,0.6947,39.032,37.286)"><path fill="rgb(31,134,194)" fill-opacity="1" d="M0 0 M-9.876,1.047 C-9.876,1.047 1.052,9.823 1.052,9.823 C1.052,9.823 9.876,-1.047 9.876,-1.047 C9.876,-1.047 -1.052,-9.823 -1.052,-9.823 C-1.052,-9.823 -9.876,1.047 -9.876,1.047z"></path></g><g opacity="1" transform="matrix(1,0,0,1,43.743,35.604)"><path fill="rgb(29,153,213)" fill-opacity="1" d="M0 0 M-0.215,-5.425 C-0.215,-5.425 -0.201,-5.371 -0.201,-5.371 C-0.201,-5.371 0.956,3.54 0.956,3.54 C0.956,3.54 0.283,5.425 0.283,5.425 C0.283,5.425 -0.956,-3.285 -0.956,-3.285"></path></g><g opacity="1" transform="matrix(1,0,0,1,29.246,36.503)"><path fill="rgb(70,168,87)" fill-opacity="1" d="M0 0 M-5.735,-5.826 C-5.735,-5.826 -5.735,5.831 -5.735,5.831 C-5.735,5.831 5.734,5.831 5.734,5.831 C5.734,5.831 5.734,-5.826 5.734,-5.826 C5.734,-5.826 -5.735,-5.826 -5.735,-5.826z"></path></g><g opacity="1" transform="matrix(1,0,0,1,30.618,31.082)"><path fill="rgb(164,208,159)" fill-opacity="1" d="M0 0 M-4.361,-3.165 C-4.361,-3.165 -3.541,-0.405 -3.541,-0.405 C-3.541,-0.405 4.361,3.162 4.361,3.162 C4.361,3.162 3.688,0.523 3.688,0.523 C3.688,0.523 -4.361,-3.165 -4.361,-3.165z"></path></g><g opacity="1" transform="matrix(1,0,0,1,25.079,33.343)"><path fill="rgb(110,184,94)" fill-opacity="1" d="M0 0 M1.178,-5.426 C1.178,-5.426 -1.999,2.113 -1.999,2.113 C-1.999,2.113 -1.568,5.424 -1.568,5.424 C-1.568,5.424 1.999,-2.666 1.999,-2.666 C1.999,-2.666 1.178,-5.426 1.178,-5.426z"></path></g><g opacity="1" transform="matrix(1,0,0,1,18.086,37.273)"><path fill="rgb(201,25,39)" fill-opacity="1" d="M0 0 M-6.665,-4.711 C-6.665,-4.711 -4.801,6.541 -4.801,6.541 C-4.801,6.541 6.665,4.711 6.665,4.711 C6.665,4.711 4.801,-6.54 4.801,-6.54 C4.801,-6.54 -6.665,-4.711 -6.665,-4.711z"></path></g><g opacity="1" transform="matrix(1,0,0,1,17.736,31.431)"><path fill="rgb(231,57,51)" fill-opacity="1" d="M0 0 M-4.711,2.234 C-4.711,2.234 -4.093,-0.821 -4.093,-0.821 C-4.093,-0.821 4.711,-2.234 4.711,-2.234 C4.711,-2.234 4.119,0.875 4.119,0.875 C4.119,0.875 -4.711,2.234 -4.711,2.234z"></path></g><g opacity="1" transform="matrix(1,0,0,1,22.797,35.031)"><path fill="rgb(123,22,19)" fill-opacity="1" d="M0 0 M-0.35,-5.836 C-0.35,-5.836 0.942,2.807 0.942,2.807 C0.942,2.807 0.35,5.836 0.35,5.836 C0.35,5.836 -0.942,-2.727 -0.942,-2.727 C-0.942,-2.727 -0.35,-5.836 -0.35,-5.836z"></path></g><g opacity="1" transform="matrix(1,0,0,1,33.755,37.064)"><path fill="rgb(255,255,255)" fill-opacity="1" d="M0 0 M18.348,-1.03 C18.172,-1.488 17.903000000000002,-1.891 17.553,-2.242 C17.217000000000002,-2.578 16.84,-2.847 16.422,-3.022 C16.005,-3.198 15.547,-3.278 15.063,-3.278 C14.578000000000001,-3.278 14.120999999999999,-3.198 13.703,-3.022 C13.286,-2.847 12.909,-2.592 12.573,-2.242 C12.223,-1.891 11.954,-1.488 11.779,-1.03 C11.604,-0.573 11.509,-0.08800000000000002 11.509,0.451 C11.509,0.976 11.604,1.46 11.779,1.918 C11.954,2.376 12.223,2.779 12.573,3.143 C12.895,3.48 13.272,3.7350000000000003 13.69,3.91 C14.107,4.085 14.565000000000001,4.166 15.063,4.166 C15.547,4.166 15.991999999999999,4.085 16.409,3.91 C16.826,3.7350000000000003 17.203,3.48 17.54,3.143 C17.89,2.779 18.159,2.376 18.334,1.918 C18.509,1.46 18.603,0.976 18.603,0.451 C18.617,-0.08800000000000002 18.535999999999998,-0.573 18.348,-1.03zM0 0 M16.49,2.174 C16.139999999999997,2.5909999999999997 15.668000000000001,2.806 15.076,2.806 C14.471,2.806 13.998999999999999,2.605 13.649,2.174 C13.299,1.757 13.124,1.177 13.124,0.437 C13.124,-0.317 13.299,-0.895 13.649,-1.326 C13.998999999999999,-1.743 14.471,-1.959 15.076,-1.959 C15.682,-1.959 16.153,-1.743 16.49,-1.326 C16.84,-0.909 17.015,-0.317 17.015,0.437 C17.015,1.177 16.84,1.757 16.49,2.174zM0 0 M-12.843,2.443 C-12.91,2.362 -13.004,2.295 -13.112,2.255 C-13.233,2.214 -13.368,2.201 -13.529,2.201 C-13.691,2.201 -13.866,2.214 -14.067,2.255 C-14.067,2.255 -16.37,2.645 -16.37,2.645 C-16.343,2.47 -16.262,2.228 -16.1,1.945 C-15.925,1.622 -15.67,1.245 -15.333,0.8 C-15.212,0.639 -15.131,0.531 -15.064,0.451 C-15.024000000000001,0.397 -14.956,0.316 -14.876,0.208 C-14.35,-0.4780000000000001 -14.027000000000001,-1.044 -13.893,-1.488 C-13.825000000000001,-1.7429999999999999 -13.771999999999998,-1.986 -13.758,-2.242 C-13.758,-2.242 -13.758,-2.444 -13.758,-2.444 C-13.758,-2.632 -13.772,-2.8070000000000004 -13.798,-2.982 C-13.825,-3.1430000000000002 -13.865,-3.278 -13.919,-3.386 C-13.972000000000001,-3.4930000000000003 -14.041,-3.575 -14.122,-3.628 C-14.216,-3.682 -14.35,-3.709 -14.525,-3.709 C-14.673,-3.709 -14.835,-3.6959999999999997 -15.037,-3.655 C-15.037,-3.655 -17.716,-3.211 -17.716,-3.211 C-18.039,-3.157 -18.281,-3.063 -18.429,-2.915 C-18.549999999999997,-2.807 -18.617,-2.659 -18.617,-2.484 C-18.617,-2.444 -18.618,-2.3890000000000002 -18.604,-2.349 C-18.564,-2.12 -18.442,-1.9589999999999999 -18.254,-1.878 C-18.147000000000002,-1.825 -18.012,-1.797 -17.85,-1.797 C-17.743000000000002,-1.797 -17.622,-1.811 -17.501,-1.825 C-17.501,-1.825 -15.266,-2.201 -15.266,-2.201 C-15.266,-2.201 -15.266,-2.08 -15.266,-2.08 C-15.266,-1.9460000000000002 -15.293000000000001,-1.811 -15.333,-1.676 C-15.4,-1.488 -15.562,-1.232 -15.831,-0.895 C-15.911999999999999,-0.801 -16.02,-0.667 -16.168,-0.465 C-16.774,0.26199999999999996 -17.204,0.8819999999999999 -17.46,1.406 C-17.649,1.757 -17.769,2.107 -17.836,2.456 C-17.875999999999998,2.658 -17.904,2.847 -17.904,3.035 C-17.904,3.17 -17.891,3.291 -17.877,3.425 C-17.849999999999998,3.601 -17.795,3.749 -17.742,3.87 C-17.688000000000002,3.991 -17.607000000000003,4.072 -17.513,4.126 C-17.432000000000002,4.166 -17.298,4.193 -17.124,4.193 C-16.895,4.193 -16.598,4.166 -16.221,4.099 C-16.221,4.099 -13.812,3.681 -13.812,3.681 C-13.381,3.614 -13.085,3.507 -12.91,3.359 C-12.775,3.251 -12.694,3.089 -12.694,2.901 C-12.694,2.86 -12.694,2.806 -12.708,2.753 C-12.722,2.632 -12.775,2.524 -12.843,2.443zM0 0 M-1.885,-3.346 C-2.195,-3.669 -2.572,-3.9240000000000004 -3.016,-4.113 C-3.46,-4.301 -3.9040000000000004,-4.395 -4.349,-4.395 C-4.349,-4.395 -4.376,-4.395 -4.376,-4.395 C-4.833,-4.395 -5.276,-4.288 -5.721,-4.099 C-6.178,-3.8970000000000002 -6.583,-3.6149999999999998 -6.933,-3.251 C-7.27,-2.888 -7.552,-2.457 -7.768,-1.946 C-7.983,-1.448 -8.103000000000002,-0.95 -8.117,-0.438 C-8.117,-0.438 -8.117,-0.263 -8.117,-0.263 C-8.117,0.181 -8.036,0.6119999999999999 -7.888,1.043 C-7.726,1.4869999999999999 -7.484,1.8780000000000001 -7.174,2.201 C-6.865,2.524 -6.476,2.793 -6.018,2.982 C-5.587,3.1700000000000004 -5.143000000000001,3.264 -4.698,3.264 C-4.698,3.264 -4.685,3.264 -4.685,3.264 C-4.228,3.264 -3.783,3.1700000000000004 -3.339,2.982 C-2.868,2.7790000000000004 -2.464,2.484 -2.128,2.133 C-1.7770000000000001,1.77 -1.4949999999999999,1.339 -1.293,0.828 C-1.077,0.32899999999999996 -0.956,-0.18200000000000005 -0.943,-0.68 C-0.943,-0.68 -0.943,-0.828 -0.943,-0.828 C-0.943,-1.272 -1.024,-1.7169999999999999 -1.185,-2.147 C-1.333,-2.618 -1.575,-3.009 -1.885,-3.346zM0 0 M-2.747,0.181 C-3.0429999999999997,0.8819999999999999 -3.4330000000000003,1.366 -3.918,1.635 C-4.173,1.783 -4.443,1.851 -4.726,1.851 C-4.968,1.851 -5.21,1.7970000000000002 -5.466,1.689 C-6.018000000000001,1.447 -6.368,1.07 -6.516,0.545 C-6.57,0.37000000000000005 -6.596,0.18100000000000002 -6.596,-0.02 C-6.596,-0.41100000000000003 -6.502000000000001,-0.842 -6.299,-1.313 C-5.99,-2.026 -5.601,-2.524 -5.116,-2.794 C-4.859999999999999,-2.942 -4.591,-3.009 -4.308,-3.009 C-4.066,-3.009 -3.8099999999999996,-2.955 -3.554,-2.847 C-3.0029999999999997,-2.618 -2.666,-2.228 -2.518,-1.703 C-2.464,-1.528 -2.45,-1.34 -2.45,-1.151 C-2.45,-0.747 -2.545,-0.303 -2.747,0.181zM0 0 M7.539,-3.076 C7.497999999999999,-3.346 7.403,-3.5469999999999997 7.255,-3.682 C7.134,-3.79 6.986,-3.844 6.811,-3.844 C6.77,-3.844 6.7170000000000005,-3.844 6.676,-3.83 C6.448,-3.803 6.272,-3.696 6.165,-3.52 C6.084,-3.399 6.044,-3.238 6.044,-3.063 C6.044,-2.995 6.0440000000000005,-2.928 6.057,-2.847 C6.057,-2.847 6.38,-0.586 6.38,-0.586 C6.38,-0.586 3.85,-0.209 3.85,-0.209 C3.85,-0.209 3.526,-2.471 3.526,-2.471 C3.4859999999999998,-2.74 3.3920000000000003,-2.942 3.244,-3.076 C3.1220000000000003,-3.184 2.975,-3.251 2.813,-3.251 C2.7720000000000002,-3.251 2.732,-3.251 2.692,-3.238 C2.45,-3.198 2.274,-3.1029999999999998 2.167,-2.928 C2.086,-2.807 2.046,-2.645 2.046,-2.471 C2.046,-2.403 2.047,-2.336 2.06,-2.255 C2.06,-2.255 2.921,3.628 2.921,3.628 C2.961,3.8970000000000002 3.055,4.099 3.217,4.234 C3.338,4.341 3.486,4.395 3.661,4.395 C3.715,4.395 3.7560000000000002,4.395 3.81,4.382 C4.025,4.3549999999999995 4.199999999999999,4.247 4.294,4.072 C4.361,3.951 4.401,3.802 4.401,3.628 C4.401,3.56 4.401,3.493 4.388,3.412 C4.388,3.412 4.039,1.083 4.039,1.083 C4.039,1.083 6.569,0.706 6.569,0.706 C6.569,0.706 6.919,3.035 6.919,3.035 C6.959,3.3040000000000003 7.053,3.507 7.202,3.641 C7.323,3.749 7.470999999999999,3.802 7.645,3.802 C7.686,3.802 7.74,3.802 7.78,3.789 C8.009,3.762 8.184,3.654 8.292,3.48 C8.372,3.359 8.399,3.21 8.399,3.035 C8.399,2.968 8.399,2.901 8.386,2.82 C8.386,2.82 7.539,-3.076 7.539,-3.076z"></path></g></g></g><g clip-path="url(#WoxAyIY5BC)" transform="matrix(1.28,0,0,1.28,503.0287,278.3972)" opacity="1" style="user-select: none;"><g opacity="1" transform="matrix(1,0,0,1,0,0)"><g opacity="1" transform="matrix(1,0,0,1,32.831,32.836)"><path fill="rgb(255,255,255)" fill-opacity="1" d="M0 0 M0,-32.586 C17.994,-32.586 32.581,-17.997 32.581,0 C32.581,17.997 17.994,32.586 0,32.586 C-17.994,32.586 -32.581,17.997 -32.581,0 C-32.581,-17.997 -17.994,-32.586 0,-32.586z"></path></g><g opacity="1" transform="matrix(1,0,0,1,49.121,16.543)"><path fill="rgb(248,210,0)" fill-opacity="1" d="M0 0 M-16.29,-16.292 C-16.29,-16.292 16.291,-16.292 16.291,-16.292 C16.291,-16.292 16.291,16.293 16.291,16.293 C16.291,16.293 -16.29,16.293 -16.29,16.293 C-16.29,16.293 -16.29,-16.292 -16.29,-16.292z"></path></g><g opacity="1" transform="matrix(1,0,0,1,16.541,16.543)"><path fill="rgb(255,255,255)" fill-opacity="1" d="M0 0 M-16.291,-16.292 C-16.291,-16.292 16.29,-16.292 16.29,-16.292 C16.29,-16.292 16.29,16.293 16.29,16.293 C16.29,16.293 -16.291,16.293 -16.291,16.293 C-16.291,16.293 -16.291,-16.292 -16.291,-16.292z"></path></g><g opacity="1" transform="matrix(1,0,0,1,49.121,49.128)"><path fill="rgb(172,189,40)" fill-opacity="1" d="M0 0 M-16.29,-16.293 C-16.29,-16.293 16.291,-16.293 16.291,-16.293 C16.291,-16.293 16.291,16.293 16.291,16.293 C16.291,16.293 -16.29,16.293 -16.29,16.293 C-16.29,16.293 -16.29,-16.293 -16.29,-16.293z"></path></g><g opacity="1" transform="matrix(1,0,0,1,16.541,49.128)"><path fill="rgb(0,162,214)" fill-opacity="1" d="M0 0 M-16.291,-16.293 C-16.291,-16.293 16.29,-16.293 16.29,-16.293 C16.29,-16.293 16.29,16.293 16.29,16.293 C16.29,16.293 -16.291,16.293 -16.291,16.293 C-16.291,16.293 -16.291,-16.293 -16.291,-16.293z"></path></g><g opacity="1" transform="matrix(1,0,0,1,19.563,19.766)"><path fill="rgb(55,68,75)" fill-opacity="1" d="M0 0 M5.489,4.611 C5.489,4.611 -2.307,4.611 -2.307,4.611 C-2.307,4.611 -2.307,1.019 -2.307,1.019 C-2.307,1.019 4.693,1.019 4.693,1.019 C4.693,1.019 4.693,-1.474 4.693,-1.474 C4.693,-1.474 -2.307,-1.474 -2.307,-1.474 C-2.307,-1.474 -2.307,-4.611 -2.307,-4.611 C-2.307,-4.611 5.33,-4.611 5.33,-4.611 C5.33,-4.611 5.33,-7.319 5.33,-7.319 C5.33,-7.319 -5.489,-7.319 -5.489,-7.319 C-5.489,-7.319 -5.489,7.319 -5.489,7.319 C-5.489,7.319 5.489,7.319 5.489,7.319 C5.489,7.319 5.489,4.611 5.489,4.611z"></path></g><g opacity="1" transform="matrix(1,0,0,1,20.29,45.467)"><path fill="rgb(255,255,255)" fill-opacity="1" d="M0 0 M5.895,-7.499 C5.895,-7.499 1.938,-3.463 1.938,-3.463 C1.938,-3.463 -6.806,-5.616 -6.806,-5.616 C-6.806,-5.616 -8.25,-4.145 -8.25,-4.145 C-8.25,-4.145 -0.977,-0.381 -0.977,-0.381 C-0.977,-0.381 -3.918,2.618 -3.918,2.618 C-3.918,2.618 -6.164,2.346 -6.164,2.346 C-6.164,2.346 -7.314,3.518 -7.314,3.518 C-7.314,3.518 -4.747,4.88 -4.747,4.88 C-4.747,4.88 -3.41,7.499 -3.41,7.499 C-3.41,7.499 -2.26,6.327 -2.26,6.327 C-2.26,6.327 -2.528,4.009 -2.528,4.009 C-2.528,4.009 0.414,1.009 0.414,1.009 C0.414,1.009 4.104,8.453 4.104,8.453 C4.104,8.453 5.547,6.98 5.547,6.98 C5.547,6.98 3.355,-2.017 3.355,-2.017 C3.355,-2.017 7.286,-6.026 7.286,-6.026 C8.248999999999999,-7.008 6.832,-8.453 5.895,-7.499z"></path></g><g opacity="1" transform="matrix(1,0,0,1,45.584,19.767)"><path fill="rgb(55,68,75)" fill-opacity="1" d="M0 0 M-6.684,4.349 C-6.684,4.349 -6.684,5.689 -6.684,5.689 C-6.684,7.319 -4.302,7.319 -4.302,5.689 C-4.302,5.689 -4.302,4.349 -4.302,4.349 C-4.302,4.349 4.276,4.349 4.276,4.349 C4.276,4.349 4.276,5.689 4.276,5.689 C4.276,7.319 6.657,7.319 6.657,5.689 C6.657,5.689 6.657,4.349 6.657,4.349 C6.657,4.349 7.928,4.349 7.928,4.349 C7.928,4.349 7.928,0.17 7.928,0.17 C7.928,-0.9329999999999999 7.008,-1.538 6.495,-1.59 C6.495,-1.59 5.196,-4.849 5.196,-4.849 C4.952,-5.48 4.412,-6.005 3.411,-6.005 C3.411,-6.005 1.57,-6.005 1.57,-6.005 C1.57,-6.005 1.57,-7.004 1.57,-7.004 C1.57,-7.188 1.4340000000000002,-7.319 1.245,-7.319 C1.245,-7.319 -1.245,-7.319 -1.245,-7.319 C-1.4340000000000002,-7.319 -1.57,-7.188 -1.57,-7.004 C-1.57,-7.004 -1.57,-6.005 -1.57,-6.005 C-1.57,-6.005 -3.41,-6.005 -3.41,-6.005 C-4.411,-6.005 -4.952,-5.48 -5.196,-4.849 C-5.196,-4.849 -6.495,-1.59 -6.495,-1.59 C-7.008,-1.538 -7.927,-0.9329999999999999 -7.927,0.17 C-7.927,0.17 -7.927,4.323 -7.927,4.323 C-7.927,4.323 -6.684,4.349 -6.684,4.349zM0 0 M5.439,-0.355 C6.062,-0.355 6.548,0.14400000000000002 6.548,0.749 C6.548,1.353 6.062,1.853 5.439,1.853 C4.844,1.853 4.33,1.353 4.33,0.749 C4.33,0.118 4.844,-0.355 5.439,-0.355zM0 0 M-4.193,-4.192 C-4.058,-4.5600000000000005 -3.8970000000000002,-4.823 -3.463,-4.823 C-3.463,-4.823 0,-4.823 0,-4.823 C0,-4.823 3.438,-4.823 3.438,-4.823 C3.871,-4.823 4.059,-4.5600000000000005 4.167,-4.192 C4.167,-4.192 5.141,-1.617 5.141,-1.617 C5.141,-1.617 0,-1.617 0,-1.617 C0,-1.617 -5.167,-1.617 -5.167,-1.617 C-5.167,-1.617 -4.193,-4.192 -4.193,-4.192zM0 0 M-5.438,-0.355 C-4.842,-0.355 -4.33,0.14400000000000002 -4.33,0.749 C-4.33,1.353 -4.816,1.853 -5.438,1.853 C-6.06,1.853 -6.547,1.353 -6.547,0.749 C-6.547,0.118 -6.06,-0.355 -5.438,-0.355z"></path></g><g opacity="1" transform="matrix(1,0,0,1,43.158,45.519)"><path fill="rgb(55,68,75)" fill-opacity="1" d="M0 0 M1.549,-8.734 C1.549,-8.734 1.549,-4.613 1.549,-4.613 C1.549,-4.613 0.956,-4.613 0.956,-4.613 C0.956,-4.613 0.956,-8.708 0.956,-8.708 C0.956,-9.216000000000001 0.31,-9.189 0.31,-8.734 C0.31,-8.734 0.31,-4.613 0.31,-4.613 C0.31,-4.613 -0.283,-4.613 -0.283,-4.613 C-0.283,-4.613 -0.283,-8.708 -0.283,-8.708 C-0.283,-9.189 -0.956,-9.162 -0.956,-8.734 C-0.956,-8.734 -0.956,-4.613 -0.956,-4.613 C-0.956,-4.613 -1.549,-4.613 -1.549,-4.613 C-1.549,-4.613 -1.549,-8.681 -1.549,-8.681 C-1.549,-9.189 -2.249,-9.162 -2.249,-8.708 C-2.249,-8.708 -2.249,-3.195 -2.249,-3.195 C-2.249,-2.4189999999999996 -1.657,-1.884 -0.956,-1.884 C-0.956,-1.884 -0.956,8.151 -0.956,8.151 C-0.956,9.568999999999999 0.984,9.568999999999999 0.984,8.151 C0.984,8.151 0.984,-1.884 0.984,-1.884 C1.684,-1.884 2.223,-2.5260000000000002 2.223,-3.115 C2.223,-3.115 2.223,-8.708 2.223,-8.708 C2.2489999999999997,-9.189 1.549,-9.189 1.549,-8.734z"></path></g><g opacity="1" transform="matrix(1,0,0,1,49.04,45.311)"><path fill="rgb(55,68,75)" fill-opacity="1" d="M0 0 M-1.626,-7.225 C-1.626,-7.225 -1.626,2.19 -1.626,2.19 C-1.626,2.19 -0.494,2.19 -0.494,2.19 C-0.494,2.19 -0.494,8.387 -0.494,8.387 C-0.494,9.755 1.626,9.781 1.626,8.387 C1.626,8.387 1.626,-7.225 1.626,-7.225 C1.597,-9.425 -1.626,-9.425 -1.626,-7.225z"></path></g></g></g></g></g></svg>