<svg id="World_payments_logo_Logo_white" data-name="World payments logo_Logo white" xmlns="http://www.w3.org/2000/svg" viewBox="0 0 167.959 19.118">
  <defs>
    <style>
      .cls-1 {
        fill: #fff;
      }
    </style>
  </defs>
  <g id="Logo_white" transform="translate(0 0)">
    <path id="Path_654" data-name="Path 654" class="cls-1" d="M32.135,43.9l-2.325,6.714L27.532,43.9H24.243L21.9,50.553,19.655,43.9H16l3.915,11h3.732l2.156-5.98,2.065,5.98h3.747l3.915-11Z" transform="translate(-16 -39.847)"/>
    <path id="Path_655" data-name="Path 655" class="cls-1" d="M151.109,51a2.344,2.344,0,0,1-2.309-2.646,2.326,2.326,0,1,1,4.619,0A2.336,2.336,0,0,1,151.109,51Zm0,3.059c3.64,0,6.209-2.371,6.209-5.7,0-3.3-2.585-5.659-6.209-5.659-3.594,0-6.209,2.355-6.209,5.659C144.9,51.693,147.515,54.063,151.109,54.063Z" transform="translate(-125.186 -38.831)"/>
    <path id="Path_656" data-name="Path 656" class="cls-1" d="M241.471,44.2V42.884H237.8v11h3.854V48.833a2.4,2.4,0,0,1,2.646-2.722,5.979,5.979,0,0,1,.872.061V42.7A4.506,4.506,0,0,0,241.471,44.2Z" transform="translate(-203.878 -38.831)"/>
    <rect id="Rectangle_2203" data-name="Rectangle 2203" class="cls-1" width="3.854" height="15.065" transform="translate(42.869)"/>
    <path id="Path_657" data-name="Path 657" class="cls-1" d="M340.025,29.574a2.336,2.336,0,0,1-2.309-2.646,2.319,2.319,0,1,1,4.6,0C342.319,28.626,341.325,29.574,340.025,29.574ZM342.258,17.4v5.016a4.027,4.027,0,0,0-3.044-1.132,5.32,5.32,0,0,0-5.414,5.659,5.342,5.342,0,0,0,5.414,5.7,3.961,3.961,0,0,0,3.227-1.285v1.1h3.671V17.4Z" transform="translate(-285.196 -17.4)"/>
    <path id="Path_658" data-name="Path 658" class="cls-1" d="M459.752,54.083a3.788,3.788,0,1,1,3.64-3.793A3.553,3.553,0,0,1,459.752,54.083ZM459.9,44.8a4.587,4.587,0,0,0-3.839,1.8v-1.7H454.2V59.6h1.958V54.038a4.574,4.574,0,0,0,3.762,1.744,5.227,5.227,0,0,0,5.445-5.506A5.248,5.248,0,0,0,459.9,44.8Z" transform="translate(-387.181 -40.609)"/>
    <path id="Path_659" data-name="Path 659" class="cls-1" d="M542.828,54.282c-1.484,0-2.371-.673-2.371-1.744,0-.918.551-1.667,2.478-1.667h3v1.5A3.13,3.13,0,0,1,542.828,54.282Zm.443-9.482a7.21,7.21,0,0,0-4.451,1.376l.811,1.468a5.46,5.46,0,0,1,3.411-1.162c1.927,0,2.875.948,2.875,2.6v.382h-3.089c-3.212,0-4.328,1.422-4.328,3.151,0,1.866,1.545,3.166,3.976,3.166a4,4,0,0,0,3.533-1.545v1.422h1.851V49.174C547.875,46.222,546.224,44.8,543.272,44.8Z" transform="translate(-458.589 -40.609)"/>
    <path id="Path_660" data-name="Path 660" class="cls-1" d="M617.011,45.5l-3.716,8.611L609.532,45.5H607.5l4.756,10.736-.352.749c-.52,1.239-1.116,1.667-2.049,1.667a2.745,2.745,0,0,1-1.927-.8l-.826,1.468a4.079,4.079,0,0,0,2.753.994c1.652,0,2.891-.7,3.839-2.982L618.907,45.5Z" transform="translate(-516.697 -41.202)"/>
    <path id="Path_661" data-name="Path 661" class="cls-1" d="M709.759,44.8a4.848,4.848,0,0,0-4.145,1.988,3.965,3.965,0,0,0-3.732-1.988,4.4,4.4,0,0,0-3.716,1.7V44.907H696.3V55.659h1.942V50.122c0-2.34,1.285-3.579,3.227-3.579,1.759,0,2.784,1.04,2.784,3.151v5.965H706.2V50.122c0-2.34,1.285-3.579,3.227-3.579,1.759,0,2.784,1.04,2.784,3.151v5.965h1.942V49.48C714.163,46.314,712.374,44.8,709.759,44.8Z" transform="translate(-592.255 -40.609)"/>
    <path id="Path_662" data-name="Path 662" class="cls-1" d="M835.9,46.536a3.377,3.377,0,0,1,3.456,3.089h-6.9A3.34,3.34,0,0,1,835.9,46.536Zm5.322,3.9A5.19,5.19,0,0,0,835.9,44.9a5.268,5.268,0,0,0-5.4,5.475c0,3.212,2.309,5.506,5.781,5.506a5.382,5.382,0,0,0,4.236-1.744l-1.071-1.254a4.031,4.031,0,0,1-3.1,1.3,3.648,3.648,0,0,1-3.9-3.151h8.733A4.412,4.412,0,0,0,841.221,50.436Z" transform="translate(-705.93 -40.694)"/>
    <path id="Path_663" data-name="Path 663" class="cls-1" d="M924.035,44.8a4.579,4.579,0,0,0-3.869,1.728V44.907H918.3V55.659h1.942V50.122c0-2.34,1.346-3.579,3.411-3.579,1.851,0,2.906,1.04,2.906,3.151v5.965H928.5V49.48C928.5,46.314,926.651,44.8,924.035,44.8Z" transform="translate(-780.302 -40.609)"/>
    <path id="Path_664" data-name="Path 664" class="cls-1" d="M1005.574,41.188a2.482,2.482,0,0,1-1.529.5,1.582,1.582,0,0,1-1.682-1.8V34.061h3.089V32.455h-3.089V30.1h-1.942v2.355H998.6v1.606h1.82v5.9a3.067,3.067,0,0,0,3.411,3.365,3.71,3.71,0,0,0,2.355-.749Z" transform="translate(-848.321 -28.158)"/>
    <path id="Path_665" data-name="Path 665" class="cls-1" d="M1059.235,55.781c2.86,0,4.649-1.239,4.649-3.181,0-4.175-6.821-2.111-6.821-4.649,0-.856.826-1.484,2.539-1.484a5.649,5.649,0,0,1,3.1.856l.826-1.545a7.813,7.813,0,0,0-3.915-.979c-2.768,0-4.481,1.3-4.481,3.227,0,4.282,6.806,2.187,6.806,4.6,0,.918-.75,1.468-2.554,1.468a6.975,6.975,0,0,1-3.778-1.116l-.811,1.545A7.609,7.609,0,0,0,1059.235,55.781Z" transform="translate(-895.926 -40.609)"/>
  </g>
</svg>
