<?xml version="1.0" encoding="utf-8"?>
<!-- Generator: Adobe Illustrator 21.0.0, SVG Export Plug-In . SVG Version: 6.00 Build 0)  -->
<svg version="1.1" id="Layer_1" xmlns="http://www.w3.org/2000/svg" xmlns:xlink="http://www.w3.org/1999/xlink" x="0px" y="0px"
	 viewBox="0 0 606 606" style="enable-background:new 0 0 606 606;" xml:space="preserve">
<style type="text/css">
	.Drop_x0020_Shadow{fill:none;}
	.st0{opacity:0.64;fill:url(#Ellipse_2753-2_2_);enable-background:new    ;}
	.st1{fill:url(#Ellipse_2754-2_2_);}
	.st2{opacity:0.58;fill:#31C4EC;enable-background:new    ;}
	.st3{opacity:0.64;fill:url(#Ellipse_2751-2_2_);enable-background:new    ;}
	.st4{opacity:0.58;fill:#B9509E;enable-background:new    ;}
	.st5{opacity:0.71;fill:url(#Subtraction_41_2_);enable-background:new    ;}
	.st6{fill:#FFFFFF;}
	.st7{fill:#72CADA;}
	.st8{fill:#DF1766;}
	.st9{fill:#E8A825;}
	.st10{fill:#3FB890;}
	.st11{fill:#CD2028;}
	.st12{fill:#361538;}
	.st13{fill:#66873A;}
	.st14{fill:#1D947D;}
	.st15{clip-path:url(#SVGID_4_);}
	.st16{fill:#04759B;}
	.st17{fill:#474443;}
	.st18{fill:#9C5C8F;}
	.st19{fill:#F58220;}
	.st20{fill:#44B049;}
	.st21{fill:#95BF47;}
	.st22{fill:#5F8F3E;}
	.st23{fill:#17A0DB;}
</style>
<g>
	
		<image style="overflow:visible;opacity:0.75;" width="618" height="597" xlink:href="7C41766F4D7122D1.png"  transform="matrix(0.24 0 0 0.24 413.4 419.64)">
	</image>
	<g>
		<g>
			<g transform="matrix(1, 0, 0, 1, 0, 0)">
				
					<linearGradient id="Ellipse_2753-2_2_" gradientUnits="userSpaceOnUse" x1="3.1756" y1="606.611" x2="3.1756" y2="605.7844" gradientTransform="matrix(151 0 0 -151 6 92025)">
					<stop  offset="0" style="stop-color:#31C4EC"/>
					<stop  offset="1" style="stop-color:#0F667A"/>
				</linearGradient>
				<ellipse id="Ellipse_2753-2_13_" class="st0" cx="485.5" cy="489.1" rx="65.1" ry="62.4"/>
			</g>
		</g>
	</g>
</g>
<g>
	
		<image style="overflow:visible;opacity:0.75;" width="1075" height="1034" xlink:href="7C41766F4D7122D3.png"  transform="matrix(0.24 0 0 0.24 40.92 324.84)">
	</image>
	<g>
		<g>
			<g transform="matrix(1, 0, 0, 1, 0, 0)">
				
					<linearGradient id="Ellipse_2754-2_2_" gradientUnits="userSpaceOnUse" x1="0.9188" y1="605.6179" x2="0.3473" y2="606.7057" gradientTransform="matrix(278 0 0 -278 6 168987)">
					<stop  offset="0" style="stop-color:#DF1766"/>
					<stop  offset="1" style="stop-color:#94D3F4;stop-opacity:0.451"/>
				</linearGradient>
				<ellipse id="Ellipse_2754-2_13_" class="st1" cx="167.7" cy="446.9" rx="119.8" ry="114.9"/>
			</g>
		</g>
	</g>
</g>
<g>
	
		<image style="overflow:visible;opacity:0.75;" width="325" height="313" xlink:href="7C41766F4D7122D6.png"  transform="matrix(0.24 0 0 0.24 276.8384 65.0569)">
	</image>
	<g>
		<g>
			<g transform="matrix(1, 0, 0, 1, 0, 0)">
				<ellipse id="Ellipse_2752-2_13_" class="st2" cx="313.6" cy="100.6" rx="29.7" ry="28.5"/>
			</g>
		</g>
	</g>
</g>
<g>
	
		<image style="overflow:visible;opacity:0.75;" width="874" height="841" xlink:href="7C41766F4D7122D7.png"  transform="matrix(0.24 0 0 0.24 37.08 79.56)">
	</image>
	<g>
		<g>
			<g transform="matrix(1, 0, 0, 1, 0, 0)">
				
					<linearGradient id="Ellipse_2751-2_2_" gradientUnits="userSpaceOnUse" x1="0.9716" y1="607.7425" x2="0.2171" y2="607.3158" gradientTransform="matrix(222 0 0 -222 6 135051)">
					<stop  offset="0" style="stop-color:#F37021"/>
					<stop  offset="1" style="stop-color:#FDB728"/>
				</linearGradient>
				<ellipse id="Ellipse_2751-2_13_" class="st3" cx="139.8" cy="178.5" rx="95.7" ry="91.7"/>
			</g>
		</g>
	</g>
</g>
<g>
	
		<image style="overflow:visible;opacity:0.75;" width="324" height="314" xlink:href="7C41766F4D7122D2.png"  transform="matrix(0.24 0 0 0.24 448.7653 297.179)">
	</image>
	<g>
		<g>
			<g transform="matrix(1, 0, 0, 1, 0, 0)">
				<ellipse id="Ellipse_2759-2_13_" class="st4" cx="485.5" cy="332.7" rx="29.7" ry="28.5"/>
			</g>
		</g>
	</g>
</g>
<g>
	<g>
		<g>
			
				<linearGradient id="Subtraction_41_2_" gradientUnits="userSpaceOnUse" x1="11.1894" y1="611.4556" x2="10.0382" y2="610.9347" gradientTransform="matrix(54.9861 0 0 -85.9982 -2.9861 52627.918)">
				<stop  offset="0" style="stop-color:#77D0E9"/>
				<stop  offset="1" style="stop-color:#90489C"/>
			</linearGradient>
			<path id="Subtraction_41_13_" class="st5" d="M596,92.2c-20.5,0-37.1-15.9-37-35.6c0-14.3,8.9-27.2,22.6-32.7
				c7.8-3.2,16.6-3.7,24.8-1.4v68.3C603,91.7,599.5,92.2,596,92.2z"/>
		</g>
	</g>
</g>
<g>
	

	<g>
		<g>
			<g id="Group_1363_10_" transform="translate(39 26)">
         <animateTransform 
         attributeName="transform"
         attributeType= "XML"
         type="rotate"
         from="0 640 640"
         to="360 640 640"
         dur = "1s"
         repeatCount="indefinite"
         />
						<g id="slack_20_" transform="translate(41.735 42.875)">
					<path id="Path_677_26_" class="st7" d="M119.2,420.9c-3.6,0.1-6.9-2.1-8-5.4c0-0.1-0.1-0.3-0.1-0.4c-1.3-4.3,1.2-8.7,5.6-10.1
						l70.6-22.7c0.8-0.2,1.7-0.4,2.6-0.4c3.7-0.1,7.1,2.2,8.3,5.5l0.1,0.3c1.3,4.4-2,8.4-5.9,9.6c0,0-0.7,0.2-70.2,23
						C121.1,420.7,120.2,420.9,119.2,420.9L119.2,420.9z"/>
					<path id="Path_678_26_" class="st8" d="M130.9,454.2c-3.6,0.1-6.9-2.1-8.1-5.3c0-0.1-0.1-0.2-0.1-0.4
						c-1.3-4.3,1.2-8.8,5.6-10.2l70.6-22.9c0.9-0.3,1.8-0.4,2.8-0.5c3.7-0.1,7,2.1,8.2,5.5l0.1,0.3c0.7,2.3,0.3,4.8-1.1,6.9
						c-1,1.5-4.2,2.8-4.2,2.8l-70.9,23.2C133,454,132,454.2,130.9,454.2L130.9,454.2z"/>
					<path id="Path_679_26_" class="st9" d="M189.7,454.3c-3.8,0-7.1-2.3-8.3-5.7l-23.6-67.1l-0.1-0.4c-1.3-4.4,1.4-9,6-10.3
						c4.5-1.2,9.1,1.1,10.6,5.4l23.6,67.1l0.1,0.2c1.4,4.4-1.2,9-5.7,10.4C191.4,454.2,190.6,454.3,189.7,454.3L189.7,454.3z"/>
					<path id="Path_680_26_" class="st10" d="M154.7,465.6c-3.8,0-7.1-2.3-8.3-5.7l-23.6-67.1c-1.5-4.3,0.9-9.1,5.4-10.5
						c0,0,0,0,0,0c0.9-0.3,1.8-0.4,2.7-0.4c3.8,0,7.1,2.3,8.3,5.7l23.6,67.1c1.5,4.4-0.9,9.1-5.5,10.5
						C156.5,465.5,155.6,465.6,154.7,465.6L154.7,465.6L154.7,465.6z"/>
					<path id="Path_681_26_" class="st11" d="M178.1,439.2l16.4-5.4l-5.4-15.3l-16.5,5.3L178.1,439.2z"/>
					<path id="Path_682_26_" class="st12" d="M143.1,450.7l16.4-5.4l-5.4-15.4l-16.4,5.3L143.1,450.7z"/>
					<path id="Path_683_26_" class="st13" d="M166.4,405.9l16.4-5.4l-5.3-15.1l-16.5,5.3L166.4,405.9z"/>
					<path id="Path_684_26_" class="st14" d="M131.4,417.3l16.4-5.4l-5.4-15.3l-16.5,5.3L131.4,417.3z"/>
				</g>
				<g id="slack_19_" transform="translate(41.735 42.875)">
					<path id="Path_677_25_" class="st7" d="M119.2,420.9c-3.6,0.1-6.9-2.1-8-5.4c0-0.1-0.1-0.3-0.1-0.4c-1.3-4.3,1.2-8.7,5.6-10.1
						l70.6-22.7c0.8-0.2,1.7-0.4,2.6-0.4c3.7-0.1,7.1,2.2,8.3,5.5l0.1,0.3c1.3,4.4-2,8.4-5.9,9.6c0,0-0.7,0.2-70.2,23
						C121.1,420.7,120.2,420.9,119.2,420.9L119.2,420.9z"/>
					<path id="Path_678_25_" class="st8" d="M130.9,454.2c-3.6,0.1-6.9-2.1-8.1-5.3c0-0.1-0.1-0.2-0.1-0.4
						c-1.3-4.3,1.2-8.8,5.6-10.2l70.6-22.9c0.9-0.3,1.8-0.4,2.8-0.5c3.7-0.1,7,2.1,8.2,5.5l0.1,0.3c0.7,2.3,0.3,4.8-1.1,6.9
						c-1,1.5-4.2,2.8-4.2,2.8l-70.9,23.2C133,454,132,454.2,130.9,454.2L130.9,454.2z"/>
					<path id="Path_679_25_" class="st9" d="M189.7,454.3c-3.8,0-7.1-2.3-8.3-5.7l-23.6-67.1l-0.1-0.4c-1.3-4.4,1.4-9,6-10.3
						c4.5-1.2,9.1,1.1,10.6,5.4l23.6,67.1l0.1,0.2c1.4,4.4-1.2,9-5.7,10.4C191.4,454.2,190.6,454.3,189.7,454.3L189.7,454.3z"/>
					<path id="Path_680_25_" class="st10" d="M154.7,465.6c-3.8,0-7.1-2.3-8.3-5.7l-23.6-67.1c-1.5-4.3,0.9-9.1,5.4-10.5
						c0,0,0,0,0,0c0.9-0.3,1.8-0.4,2.7-0.4c3.8,0,7.1,2.3,8.3,5.7l23.6,67.1c1.5,4.4-0.9,9.1-5.5,10.5
						C156.5,465.5,155.6,465.6,154.7,465.6L154.7,465.6L154.7,465.6z"/>
					<path id="Path_681_25_" class="st11" d="M178.1,439.2l16.4-5.4l-5.4-15.3l-16.5,5.3L178.1,439.2z"/>
					<path id="Path_682_25_" class="st12" d="M143.1,450.7l16.4-5.4l-5.4-15.4l-16.4,5.3L143.1,450.7z"/>
					<path id="Path_683_25_" class="st13" d="M166.4,405.9l16.4-5.4l-5.3-15.1l-16.5,5.3L166.4,405.9z"/>
					<path id="Path_684_25_" class="st14" d="M131.4,417.3l16.4-5.4l-5.4-15.3l-16.5,5.3L131.4,417.3z"/>
				</g>
			</g>
		</g>
	</g>
</g>
<g>
	
		<image style="overflow:visible;opacity:0.75;" width="1900" height="744" xlink:href="7C41766F4D7122DF.png"  transform="matrix(0.24 0 0 0.24 233.64 215.16)">
	</image>
	<g>
		<g>
			<g id="Group_1364_11_" transform="translate(9 6)">
				<g>
					<defs>
						<rect id="SVGID_1_" x="270.2" y="253.1" width="90.6" height="86.9"/>
					</defs>
					<clipPath id="SVGID_2_">
						<use xlink:href="#SVGID_1_"  style="overflow:visible;"/>
					</clipPath>
				</g>
			</g>
		</g>
		<g>
			<g id="Group_1364_10_" transform="translate(9 6)">
				<g transform="matrix(1, 0, 0, 1, -9, -6)">
					<path id="Path_697-2_13_" class="st6" d="M324.3,222.3c46.1,0,83.6,35.9,83.6,80.1s-37.4,80.1-83.6,80.1s-83.6-35.9-83.6-80.1
						c0,0,0,0,0,0C240.7,258.1,278.1,222.3,324.3,222.3z"/>
				</g>
				<g>
					<defs>
						<rect id="SVGID_3_" x="270.2" y="253.1" width="90.6" height="86.9"/>
					</defs>
					<clipPath id="SVGID_4_">
						<use xlink:href="#SVGID_3_"  style="overflow:visible;"/>
					</clipPath>
					<g id="wordpress-blue_10_" transform="translate(44.619 44.619)" class="st15">
						<path id="Path_687_13_" class="st16" d="M457.2,242.7h-15.7v1.6c4.9,0,5.7,1,5.7,7v10.8c0,6-0.8,7.1-5.7,7.1
							c-3.8-0.5-6.3-2.4-9.8-6.1l-4-4.2c5.4-0.9,8.3-4.2,8.3-7.9c0-4.6-4.1-8.2-11.9-8.2h-15.5v1.6c4.9,0,5.7,1,5.7,7v10.8
							c0,6-0.8,7.1-5.7,7.1v1.6h17.5v-1.6c-4.9,0-5.7-1.1-5.7-7.1v-3h1.5l9.7,11.7h25.6c12.6,0,18-6.4,18-14.1
							C475.2,249,469.7,242.7,457.2,242.7L457.2,242.7z M420.4,256.4v-11.2h3.6c4,0,5.7,2.6,5.7,5.6c0,2.9-1.8,5.6-5.7,5.6
							L420.4,256.4z M457.4,268.2h-0.6c-3.2,0-3.6-0.8-3.6-4.6v-18.3h4.2c9.1,0,10.8,6.4,10.8,11.4
							C468.2,261.8,466.6,268.2,457.4,268.2z M359.7,259.6l6.1-17.2c1.8-5,1-6.4-4.7-6.4v-1.7h16.5v1.7c-5.5,0-6.8,1.3-9,7.4
							l-10,28.8h-1.1l-9-26.4l-9.1,26.4h-1.1l-9.7-28.8c-2.1-6.1-3.5-7.4-8.6-7.4v-1.7h19.5v1.7c-5.2,0-6.6,1.2-4.7,6.4l5.9,17.2
							l8.9-25.3h1.7L359.7,259.6L359.7,259.6z M389.6,271.9c-9.7,0-17.6-6.8-17.6-15.2c0-8.3,7.9-15.1,17.6-15.1
							c9.7,0,17.6,6.8,17.6,15.1C407.1,265,399.2,271.9,389.6,271.9z M389.6,244.2c-8.1,0-10.9,7-10.9,12.5
							c0,5.6,2.8,12.5,10.9,12.5c8.2,0,11-6.9,11-12.5C400.5,251.2,397.7,244.2,389.6,244.2z"/>
						<path id="Path_688_13_" class="st17" d="M496.9,269.1v1.7h-20.1v-1.7c5.9,0,6.9-1.4,6.9-9.9v-13.5c0-8.4-1.1-9.8-6.9-9.8v-1.7
							h18.2c9,0,14,4.5,14,10.4c0,5.8-5,10.4-14,10.4h-5v4.1C489.9,267.6,491,269.1,496.9,269.1L496.9,269.1z M494.9,237.3h-5V252h5
							c4.9,0,7.2-3.3,7.2-7.2C502.1,240.7,499.9,237.3,494.9,237.3L494.9,237.3z M569.3,262.8l-0.4,1.5c-0.8,2.8-1.8,3.8-8,3.8h-1.2
							c-4.6,0-5.4-1-5.4-7v-3.9c6.9,0,7.4,0.6,7.4,5h1.7v-12.5h-1.7c0,4.4-0.5,5-7.4,5v-9.4h4.8c6.2,0,7.2,1,8,3.8l0.4,1.6h1.4
							l-0.6-7.9h-25.8v1.6c4.9,0,5.7,1,5.7,7v10.8c0,5.5-0.7,6.8-4.5,7c-3.7-0.5-6.2-2.5-9.7-6.1l-4-4.2c5.4-0.9,8.3-4.2,8.3-7.9
							c0-4.6-4.1-8.2-11.9-8.2H511v1.6c4.9,0,5.7,1,5.7,7v10.8c0,6-0.8,7.1-5.7,7.1v1.6h17.5v-1.6c-4.9,0-5.7-1.1-5.7-7.1v-3h1.5
							l9.7,11.7h36.1l0.5-7.9L569.3,262.8L569.3,262.8z M522.8,256.4v-11.2h3.6c4,0,5.7,2.6,5.7,5.6c0,2.9-1.8,5.6-5.7,5.6
							L522.8,256.4z M587.2,271.9c-2.9-0.1-5.7-1.1-7.9-2.9c-0.7,0.8-1.2,1.8-1.4,2.9h-1.7v-11.6h1.8c0.7,5.6,4.7,8.8,9.9,8.8
							c2.8,0,5.1-1.5,5.1-4c0-2.2-2-3.9-5.6-5.5l-5-2.3c-3.5-1.6-6.1-4.4-6.1-8.1c0-4,4-7.5,9.4-7.5c2.5,0,4.9,0.7,6.9,2.2
							c0.6-0.6,1-1.4,1.1-2.3h1.7v9.9h-1.8c-0.6-4-2.9-7.2-7.6-7.2c-2.5,0-4.7,1.3-4.7,3.5c0,2.2,1.8,3.4,6.1,5.2l4.8,2.3
							c4.2,1.9,5.9,5.1,5.9,7.6C597.9,268.2,593,271.9,587.2,271.9L587.2,271.9z M614.2,271.9c-2.9-0.1-5.7-1.1-7.9-2.9
							c-0.7,0.8-1.2,1.8-1.4,2.9h-1.7v-11.6h1.8c0.7,5.6,4.7,8.8,9.9,8.8c2.8,0,5.1-1.5,5.1-4c0-2.2-2-3.9-5.6-5.5l-5-2.3
							c-3.5-1.6-6.1-4.4-6.1-8.1c0-4,4-7.5,9.4-7.5c2.5,0,4.9,0.7,6.9,2.2c0.6-0.6,1-1.4,1.1-2.3h1.7v9.9h-1.8
							c-0.6-4-2.9-7.2-7.6-7.2c-2.5,0-4.7,1.3-4.7,3.5c0,2.2,1.8,3.4,6.1,5.2l4.8,2.3c4.2,1.9,5.9,5.1,5.9,7.6
							C624.9,268.2,620.1,271.9,614.2,271.9L614.2,271.9z"/>
						<g id="Group_1223_10_">
							<path id="Path_689_13_" class="st16" d="M232,252c0,14.3,8.5,27.3,21.9,33.5l-18.5-48.7C233.1,241.6,232,246.7,232,252z
								 M297.1,250.1c-0.1-3.6-1.2-7.2-3.2-10.3c-2-3.1-3.8-5.7-3.8-8.7c-0.1-3.6,2.8-6.5,6.5-6.6c0.2,0,0.3,0,0.5,0
								c-15.8-13.9-40.4-12.9-54.9,2.3c-1.4,1.5-2.7,3-3.8,4.7c0.9,0,1.8,0,2.5,0c4.1,0,10.4-0.5,10.4-0.5c0.9-0.1,1.7,0.6,1.7,1.4
								c0.1,0.8-0.6,1.6-1.5,1.7c0,0-2.1,0.2-4.4,0.4l14.2,40.4l8.5-24.5l-6.1-15.9c-2.1-0.1-4.1-0.4-4.1-0.4
								c-2.1-0.1-1.8-3.2,0.2-3.1c0,0,6.4,0.5,10.2,0.5c4.1,0,10.4-0.5,10.4-0.5c0.9-0.1,1.7,0.6,1.7,1.4s-0.6,1.6-1.5,1.7l0,0
								c0,0-2.1,0.2-4.4,0.4l14,40.1l3.9-12.4C295.8,257,297.1,253.3,297.1,250.1L297.1,250.1z"/>
							<path id="Path_690_13_" class="st16" d="M271.6,255.2l-11.7,32.5c7.8,2.2,16.2,2,23.9-0.6c-0.1-0.2-0.2-0.3-0.3-0.5
								L271.6,255.2z M305,234.1c0.2,1.3,0.3,2.6,0.3,3.8c-0.1,4.6-1.1,9.1-3,13.4l-11.9,32.9C308.6,274,315.1,251.8,305,234.1
								L305,234.1z"/>
							<path id="Path_691_13_" class="st16" d="M270.9,208.5c-25,0-45.3,19.5-45.3,43.5c0,24,20.3,43.4,45.3,43.4
								c25,0,45.3-19.5,45.3-43.4C316.2,228,295.9,208.5,270.9,208.5z M270.9,293.4c-23.9,0-43.2-18.6-43.2-41.5
								c0-22.9,19.4-41.5,43.2-41.5c23.9,0,43.2,18.6,43.2,41.5C314.1,274.8,294.7,293.4,270.9,293.4z"/>
						</g>
					</g>
				</g>
			</g>
		</g>
		<g>
			<g id="Group_1364_9_" transform="translate(9 6)">
				<g>
					<defs>
						<rect id="SVGID_5_" x="270.2" y="253.1" width="90.6" height="86.9"/>
					</defs>
					<clipPath id="SVGID_6_">
						<use xlink:href="#SVGID_5_"  style="overflow:visible;"/>
					</clipPath>
				</g>
			</g>
		</g>
	</g>
</g>
<g>
	
		<image style="overflow:visible;opacity:0.75;" width="1159" height="1165" xlink:href="7C41766F4D7122D4.png"  transform="matrix(0.24 0 0 0.24 76.68 103.32)">
	</image>
	<g>
		<g>
			<g id="Group_1361_10_" transform="translate(9 6)">
				<g transform="matrix(1, 0, 0, 1, -9, -6)">
					<path id="Path_695-2_13_" class="st6" d="M343.4,371.6C343.4,371.6,343.4,371.6,343.4,371.6
						C343.4,371.6,343.4,371.6,343.4,371.6C343.4,371.6,343.4,371.6,343.4,371.6C343.4,371.6,343.4,371.6,343.4,371.6z"/>
				</g>
				<g id="woocommerce_10_" transform="translate(36.329 60.768)">
					<path id="Path_685_13_" class="st18" d="M298.1,304.8L298.1,304.8C298.1,304.8,298.1,304.8,298.1,304.8
						C298.1,304.8,298.1,304.8,298.1,304.8L298.1,304.8C298.1,304.8,298.1,304.8,298.1,304.8C298.1,304.8,298.1,304.8,298.1,304.8
						L298.1,304.8L298.1,304.8L298.1,304.8L298.1,304.8C298.1,304.8,298.1,304.8,298.1,304.8C298.1,304.8,298.1,304.8,298.1,304.8
						L298.1,304.8C298.1,304.8,298.1,304.8,298.1,304.8C298.1,304.8,298.1,304.8,298.1,304.8z"/>
					<path id="Path_686_13_" class="st6" d="M298.1,304.8C298.1,304.8,298.1,304.8,298.1,304.8C298.1,304.8,298.1,304.8,298.1,304.8
						C298.1,304.8,298.1,304.8,298.1,304.8L298.1,304.8C298.1,304.8,298.1,304.8,298.1,304.8C298.1,304.8,298.1,304.8,298.1,304.8
						C298.1,304.8,298.1,304.8,298.1,304.8C298.1,304.8,298.1,304.8,298.1,304.8C298.1,304.8,298.1,304.8,298.1,304.8
						C298.1,304.8,298.1,304.8,298.1,304.8C298.1,304.8,298.1,304.8,298.1,304.8C298.1,304.8,298.1,304.8,298.1,304.8
						C298.1,304.8,298.1,304.8,298.1,304.8C298.1,304.8,298.1,304.8,298.1,304.8C298.1,304.8,298.1,304.8,298.1,304.8
						C298.1,304.8,298.1,304.8,298.1,304.8C298.1,304.8,298.1,304.8,298.1,304.8C298.1,304.8,298.1,304.8,298.1,304.8
						C298.1,304.8,298.1,304.8,298.1,304.8C298.1,304.8,298.1,304.8,298.1,304.8C298.1,304.8,298.1,304.8,298.1,304.8
						C298.1,304.8,298.1,304.8,298.1,304.8C298.1,304.8,298.1,304.8,298.1,304.8L298.1,304.8z M298.1,304.8
						C298.1,304.8,298.1,304.8,298.1,304.8C298.1,304.8,298.1,304.8,298.1,304.8C298.1,304.8,298.1,304.8,298.1,304.8
						C298.1,304.8,298.1,304.8,298.1,304.8C298.1,304.8,298.1,304.8,298.1,304.8C298.1,304.8,298.1,304.8,298.1,304.8
						C298.1,304.8,298.1,304.8,298.1,304.8C298.1,304.8,298.1,304.8,298.1,304.8C298.1,304.8,298.1,304.8,298.1,304.8
						C298.1,304.8,298.1,304.8,298.1,304.8L298.1,304.8z M298.1,304.8C298.1,304.8,298.1,304.8,298.1,304.8
						C298.1,304.8,298.1,304.8,298.1,304.8C298.1,304.8,298.1,304.8,298.1,304.8C298.1,304.8,298.1,304.8,298.1,304.8
						C298.1,304.8,298.1,304.8,298.1,304.8C298.1,304.8,298.1,304.8,298.1,304.8C298.1,304.8,298.1,304.8,298.1,304.8
						C298.1,304.8,298.1,304.8,298.1,304.8C298.1,304.8,298.1,304.8,298.1,304.8C298.1,304.8,298.1,304.8,298.1,304.8L298.1,304.8z
						 M298.1,304.8C298.1,304.8,298.1,304.8,298.1,304.8C298.1,304.8,298.1,304.8,298.1,304.8C298.1,304.8,298.1,304.8,298.1,304.8
						C298.1,304.8,298.1,304.8,298.1,304.8C298.1,304.8,298.1,304.8,298.1,304.8C298.1,304.8,298.1,304.8,298.1,304.8
						C298.1,304.8,298.1,304.8,298.1,304.8C298.1,304.8,298.1,304.8,298.1,304.8C298.1,304.8,298.1,304.8,298.1,304.8
						C298.1,304.8,298.1,304.8,298.1,304.8L298.1,304.8z M298.1,304.8C298.1,304.8,298.1,304.8,298.1,304.8
						C298.1,304.8,298.1,304.8,298.1,304.8C298.1,304.8,298.1,304.8,298.1,304.8C298.1,304.8,298.1,304.8,298.1,304.8
						C298.1,304.8,298.1,304.8,298.1,304.8C298.1,304.8,298.1,304.8,298.1,304.8C298.1,304.8,298.1,304.8,298.1,304.8
						C298.1,304.8,298.1,304.8,298.1,304.8C298.1,304.8,298.1,304.8,298.1,304.8C298.1,304.8,298.1,304.8,298.1,304.8L298.1,304.8z"
						/>
				</g>
			</g>
			<g>
				
					<image style="overflow:visible;opacity:0.75;" width="722" height="696" xlink:href="F5761E16315A084A.png"  transform="matrix(0.24 0 0 0.24 83.16 109.8)">
				</image>
				<g>
					<g>
						<g id="Group_1365_11_" transform="translate(9 6)">
							<g transform="matrix(1, 0, 0, 1, -9, -6)">
								<path id="Path_694-2_14_" class="st6" d="M167.7,116.8c42.8,0,77.6,33.3,77.6,74.4s-34.7,74.4-77.6,74.4
									s-77.6-33.3-77.6-74.4S124.9,116.8,167.7,116.8z"/>
							</g>
							<g id="instacart-1_11_" transform="translate(43.745 69.969) rotate(-25)">
								<g id="Logo_11_">
									<path id="Carrot_14_" class="st19" d="M65.4,146.9c3.9,3.8,7.1,9.9,5.4,13.5c-4.6,9.6-39.9,26.1-43,23.1
										c-3.1-3,13.9-37.4,23.7-41.9C55.2,140,61.5,143.1,65.4,146.9C65.4,146.9,65.4,146.9,65.4,146.9z"/>
									<path id="Leaves_14_" class="st20" d="M84.2,143.1c-0.7-2.2-2.3-4.5-4.6-4.8c-4.3-0.6-11,6.8-10.5,8.6
										c0.5,1.8,10.2,5,13.8,2.6C84.6,148.2,84.8,145.4,84.2,143.1L84.2,143.1z M70.5,122.3c3.2,0.9,6.5,3.1,6.9,6.3
										c0.8,5.9-9.8,15-12.3,14.3c-2.6-0.7-7.3-13.9-3.7-18.8C63.2,121.7,67.2,121.4,70.5,122.3C70.5,122.3,70.5,122.3,70.5,122.3
										L70.5,122.3z"/>
								</g>
							</g>
						</g>
					</g>
				</g>
			</g>
		</g>
	</g>
</g>
<g id="shopify">
	
		<image style="overflow:visible;opacity:0.75;" width="678" height="653" xlink:href="F5761E16315A084D.png"  transform="matrix(0.24 0 0 0.24 383.88 392.52)">
	</image>
	<g>
		<g>
			<g id="Group_1362_10_" transform="translate(9 6)">
				<g transform="matrix(1, 0, 0, 1, -9, -6)">
					<path id="Path_696-2_13_" class="st6" d="M463.1,399.7c39.9,0,72.2,31,72.2,69.2s-32.3,69.2-72.2,69.2s-72.2-31-72.2-69.2
						S423.3,399.7,463.1,399.7z"/>
				</g>
				<g id="shopify_11_" transform="translate(46.771 42.094)">
					<path id="Path_673_13_" class="st21" d="M431,399.9c-0.1-0.3-0.3-0.5-0.6-0.6c-0.3,0-5.8-0.4-5.8-0.4s-3.9-3.7-4.3-4.1
						c-0.5-0.3-1-0.4-1.6-0.2l-2.2,0.6c-1.3-3.5-3.6-6.8-7.6-6.8c-0.1,0-0.2,0-0.3,0c-0.8-1.2-2.2-2-3.8-2.1
						c-9.3,0-13.7,11.2-15.1,16.8c-3.6,1.1-6.2,1.8-6.5,1.9c-2,0.6-2.1,0.7-2.3,2.5c-0.2,1.4-5.5,40.5-5.5,40.5l41.1,7.4l22.3-4.6
						C438.9,451,431.1,400.2,431,399.9z M414.3,396l-3.5,1c0-0.2,0-0.5,0-0.7c0-1.8-0.2-3.7-0.8-5.4
						C412.1,391.1,413.4,393.4,414.3,396z M407.5,391.3c0.7,1.9,1,4,0.9,6c0,0.1,0,0.3,0,0.4l-7.2,2.1
						C402.6,394.7,405.2,392.2,407.5,391.3z M404.7,388.8c0.4,0,0.8,0.1,1.2,0.4c-3,1.3-6.2,4.7-7.5,11.5l-5.7,1.7
						C394.3,397.2,398,388.8,404.7,388.8L404.7,388.8z"/>
					<path id="Path_674_13_" class="st22" d="M430.4,399.3c-0.3,0-5.8-0.4-5.8-0.4s-3.9-3.7-4.3-4.1c-0.2-0.1-0.4-0.2-0.6-0.3
						l-3.1,61l22.3-4.6c0,0-7.8-50.7-7.9-51.1C431,399.6,430.7,399.4,430.4,399.3"/>
					<path id="Path_675_13_" class="st6" d="M409.1,411.1l-2.7,7.8c-1.7-0.8-3.5-1.2-5.4-1.2c-4.3,0-4.5,2.6-4.5,3.3
						c0,3.6,9.7,5,9.7,13.3c0,6.6-4.4,10.8-10.2,10.8c-4,0.1-7.9-1.4-10.7-4.2l1.9-6c0,0,3.7,3.1,6.8,3.1c1.5,0.1,2.8-1.1,2.9-2.5
						c0,0,0-0.1,0-0.1c0-4.7-8-4.9-8-12.6c0-6.5,4.8-12.7,14.6-12.7C407.2,410.1,409.1,411.1,409.1,411.1"/>
				</g>
			</g>
		</g>
	</g>
</g>
<g id="salforce">
	
		<image style="overflow:visible;opacity:0.75;" width="654" height="630" xlink:href="F5761E16315A084E.png"  transform="matrix(0.24 0 0 0.24 388.3798 66.7719)">
	</image>
	<g>
		<g>
			<g id="Group_1360_10_" transform="translate(9 6)">
				<g transform="matrix(1, 0, 0, 1, -9, -6)">
					<path id="Path_693-2_13_" class="st6" d="M464.8,73.9c38.3,0,69.3,29.8,69.3,66.5s-31,66.5-69.3,66.5s-69.3-29.8-69.3-66.5
						c0,0,0,0,0,0C395.5,103.7,426.5,73.9,464.8,73.9z"/>
				</g>
				<g id="salesforce-2_10_" transform="translate(20.043 37.978)">
					<path id="Path_670_13_" class="st23" d="M427,69c3.4-3.5,8.2-5.4,13.2-5.4c6.7,0,12.8,3.5,16.1,9.1c2.9-1.2,5.9-1.9,9.1-1.8
						c12.5,0.1,22.5,9.9,22.4,21.9c-0.1,11.8-10.1,21.4-22.4,21.5c-1.5,0-3-0.1-4.4-0.4c-4.2,7.3-13.7,10.1-21.5,6.5
						c-4,9.1-15,13.4-24.5,9.5c-4.8-1.9-8.5-5.7-10.2-10.3c-1.2,0.2-2.4,0.4-3.6,0.4c-9.7-0.1-17.5-7.7-17.4-17.1
						c0.1-5.9,3.4-11.4,8.7-14.4c-4.4-9.8,0.3-21.2,10.6-25.5C411.5,59.4,421.4,61.9,427,69"/>
					<path id="Path_671_13_" class="st6" d="M398.8,97.6c-0.1,0.2,0,0.2,0,0.2c0.2,0.1,0.4,0.2,0.6,0.3c1,0.5,2,0.7,3.1,0.7
						c2.1,0,3.5-1.1,3.5-2.8v0c0-1.6-1.5-2.2-2.9-2.6l-0.2-0.1c-1.1-0.3-2-0.6-2-1.3v0c0-0.6,0.5-1,1.4-1c0.9,0,1.9,0.2,2.7,0.7
						c0,0,0.2,0.1,0.3-0.1c0-0.1,0.4-1,0.4-1.1c0-0.1,0-0.2-0.1-0.2c-0.9-0.5-2-0.8-3.1-0.8h-0.2c-2,0-3.3,1.1-3.3,2.8v0
						c0,1.7,1.5,2.3,2.9,2.7l0.2,0.1c1,0.3,1.9,0.6,1.9,1.3v0c0,0.6-0.6,1.1-1.5,1.1c-1,0-1.9-0.3-2.7-0.8c-0.1-0.1-0.2-0.1-0.4-0.2
						c-0.1-0.1-0.2-0.1-0.2,0c0,0,0,0,0,0.1L398.8,97.6z M430,97.6c-0.1,0.2,0,0.2,0,0.2c0.2,0.1,0.4,0.2,0.6,0.3
						c1,0.5,2,0.7,3.1,0.7c2.1,0,3.5-1.1,3.5-2.8v0c0-1.6-1.5-2.2-2.9-2.6l-0.2-0.1c-1.1-0.3-2-0.6-2-1.3v0c0-0.6,0.5-1,1.4-1
						c0.9,0,1.9,0.2,2.7,0.7c0,0,0.2,0.1,0.3-0.1c0-0.1,0.4-1,0.4-1.1c0-0.1,0-0.2-0.1-0.2c-0.9-0.5-2-0.8-3.1-0.8h-0.2
						c-2,0-3.3,1.1-3.3,2.8v0c0,1.7,1.5,2.3,2.9,2.7l0.2,0.1c1,0.3,1.9,0.6,1.9,1.3v0c0,0.6-0.6,1.1-1.5,1.1c-1,0-1.9-0.3-2.7-0.8
						c-0.1-0.1-0.2-0.1-0.4-0.2c-0.1-0.1-0.2,0-0.3,0c0,0,0,0,0,0.1L430,97.6L430,97.6z M451.4,94.1c0,0.8-0.2,1.6-0.6,2.3
						c-0.4,0.6-1,0.9-1.7,0.8c-0.7,0.1-1.3-0.3-1.7-0.8c-0.8-1.5-0.8-3.2,0-4.6c0.4-0.5,1-0.9,1.7-0.8c0.7,0,1.3,0.3,1.7,0.8
						C451.2,92.5,451.4,93.3,451.4,94.1 M453.2,92.3c-0.2-0.5-0.4-1.1-0.8-1.5c-0.4-0.4-0.8-0.8-1.4-1c-1.2-0.5-2.6-0.5-3.8,0
						c-0.5,0.2-1,0.6-1.4,1c-0.4,0.4-0.6,0.9-0.8,1.5c-0.3,1.2-0.3,2.5,0,3.7c0.2,0.5,0.4,1.1,0.8,1.5c0.4,0.4,0.8,0.8,1.4,1
						c1.2,0.5,2.6,0.5,3.8,0c0.5-0.2,1-0.6,1.4-1c0.4-0.4,0.7-0.9,0.8-1.5C453.5,94.8,453.5,93.5,453.2,92.3 M467.8,97
						c0-0.1-0.1-0.1-0.2-0.1c0,0,0,0,0,0c-0.3,0.1-0.5,0.2-0.8,0.2c-0.3,0-0.7,0.1-1,0.1c-0.8,0-1.5-0.2-2-0.7
						c-0.6-0.7-0.8-1.5-0.8-2.3c0-0.8,0.2-1.6,0.7-2.3c0.5-0.6,1.2-0.9,2-0.8c0.6,0,1.3,0.1,1.9,0.3c0,0,0.1,0.1,0.2-0.1
						c0.2-0.4,0.3-0.7,0.4-1.2c0-0.1,0-0.2-0.1-0.2c0,0,0,0,0,0c-0.4-0.1-0.8-0.2-1.2-0.3c-0.4-0.1-0.9-0.1-1.3-0.1
						c-0.7,0-1.4,0.1-2,0.4c-0.5,0.2-1,0.6-1.4,1c-0.4,0.4-0.7,0.9-0.9,1.5c-0.2,0.6-0.3,1.2-0.3,1.8c-0.1,1.2,0.4,2.5,1.2,3.4
						c0.9,0.9,2.2,1.4,3.5,1.3c0.9,0,1.7-0.1,2.5-0.4c0.1,0,0.1-0.1,0.1-0.2L467.8,97z M470.9,93.2c0.1-0.5,0.2-0.9,0.5-1.4
						c0.4-0.6,1-0.9,1.7-0.8c0.7,0,1.3,0.3,1.7,0.8c0.3,0.4,0.4,0.9,0.4,1.4H470.9z M476.9,92c-0.2-0.5-0.4-1-0.8-1.4
						c-0.3-0.4-0.7-0.6-1.1-0.8c-0.5-0.2-1.1-0.3-1.7-0.3c-0.7,0-1.4,0.1-2,0.4c-0.5,0.2-1,0.6-1.4,1c-0.4,0.4-0.7,1-0.8,1.5
						c-0.2,0.6-0.3,1.2-0.3,1.8c0,0.6,0.1,1.2,0.3,1.8c0.3,1.1,1.2,2,2.4,2.4c0.7,0.2,1.4,0.4,2.2,0.3c1,0.1,2.1-0.1,3-0.6
						c0.1,0,0.1-0.1,0-0.3l-0.4-1.1c0-0.1-0.1-0.1-0.2-0.1c0,0,0,0,0,0c-0.8,0.3-1.6,0.5-2.5,0.4c-1.4,0.2-2.6-0.8-2.8-2
						c0-0.2,0-0.4,0-0.6l6,0c0.1,0,0.2-0.1,0.2-0.2C477.2,93.6,477.1,92.8,476.9,92 M422.6,93.2c0.1-0.5,0.2-0.9,0.5-1.4
						c0.4-0.6,1-0.9,1.7-0.8c0.7,0,1.3,0.3,1.7,0.8c0.2,0.4,0.4,0.9,0.4,1.4H422.6z M428.6,92c-0.2-0.5-0.4-1-0.8-1.4
						c-0.3-0.4-0.7-0.6-1.1-0.8c-0.5-0.2-1.1-0.3-1.7-0.3c-0.7,0-1.4,0.1-2,0.4c-0.5,0.2-1,0.6-1.4,1c-0.4,0.4-0.7,1-0.8,1.5
						c-0.2,0.6-0.3,1.2-0.3,1.8c0,0.6,0.1,1.2,0.3,1.8c0.3,1.1,1.2,2,2.4,2.4c0.7,0.2,1.4,0.4,2.2,0.3c1,0.1,2.1-0.1,3-0.6
						c0.1,0,0.1-0.1,0.1-0.3l-0.4-1.1c0-0.1-0.1-0.1-0.2-0.1c0,0,0,0,0,0c-0.8,0.3-1.6,0.5-2.5,0.4c-1.4,0.2-2.6-0.8-2.8-2
						c0-0.2,0-0.4,0-0.6l6,0c0.1,0,0.2-0.1,0.2-0.2C428.9,93.6,428.8,92.8,428.6,92 M409.6,97c-0.1-0.1-0.3-0.2-0.3-0.3
						c-0.1-0.2-0.2-0.5-0.2-0.8c0-0.4,0.2-0.9,0.5-1.1c0.5-0.3,1.1-0.5,1.7-0.4c0.5,0,1.1,0.1,1.6,0.1v2.6l0,0
						c-0.5,0.1-1.1,0.2-1.6,0.2C410.7,97.4,410.1,97.3,409.6,97 M412,92.9c-0.2,0-0.6,0-0.9,0c-0.5,0-1,0.1-1.5,0.2
						c-0.5,0.1-0.9,0.3-1.3,0.6c-0.8,0.5-1.2,1.4-1.2,2.3c0,0.5,0.1,0.9,0.3,1.3c0.2,0.4,0.4,0.7,0.8,0.9c0.4,0.2,0.8,0.4,1.2,0.5
						c0.5,0.1,1.1,0.2,1.6,0.2c0.6,0,1.2,0,1.8-0.1c0.6-0.1,1.3-0.2,1.5-0.3c0.1,0,0.3-0.1,0.4-0.1c0.1,0,0.1-0.1,0.1-0.2v-5.3
						c0.1-0.9-0.3-1.9-1-2.6c-0.8-0.6-1.8-0.9-2.8-0.8c-0.5,0-1.1,0.1-1.6,0.1c-0.7,0.1-1.3,0.3-1.9,0.7c-0.1,0.1-0.1,0.2-0.1,0.2
						l0.4,1.1c0,0.1,0.1,0.1,0.2,0.1c0,0,0,0,0,0c0,0,0.1,0,0.1,0c0.8-0.4,1.7-0.6,2.6-0.6c0.5,0,1,0.1,1.5,0.4
						c0.3,0.2,0.5,0.6,0.5,1.4V93C412.5,92.9,412,92.9,412,92.9 M460.6,89.9c0-0.1,0-0.2-0.1-0.2c0,0,0,0,0,0
						c-0.3-0.1-0.7-0.1-1-0.2c-0.5-0.1-1.1,0-1.6,0.2c-0.4,0.2-0.7,0.4-1,0.7v-0.7c0-0.1-0.1-0.2-0.2-0.2c0,0,0,0,0,0h-1.5
						c-0.1,0-0.2,0.1-0.2,0.2c0,0,0,0,0,0v8.6c0,0.1,0.1,0.2,0.2,0.2h1.6c0.1,0,0.2-0.1,0.2-0.2v-4.3c0-0.5,0.1-1,0.2-1.5
						c0.1-0.3,0.3-0.6,0.5-0.9c0.2-0.2,0.5-0.3,0.7-0.4c0.3-0.1,0.5-0.1,0.8-0.1c0.2,0,0.4,0,0.7,0.1c0.1,0,0.2-0.1,0.2-0.2
						C460.3,90.9,460.6,90.1,460.6,89.9"/>
					<path id="Path_672_13_" class="st6" d="M445.7,85.9c-0.2-0.1-0.4-0.1-0.6-0.1c-0.3,0-0.5-0.1-0.8-0.1c-0.9-0.1-1.9,0.3-2.6,0.9
						c-0.7,0.7-1.1,1.7-1.2,2.6l-0.1,0.4h-1.4c-0.1,0-0.2,0.1-0.2,0.2l-0.2,1.2c0,0.1,0,0.2,0.2,0.2h1.3l-1.4,7.2
						c-0.1,0.5-0.2,1-0.4,1.4c-0.1,0.3-0.2,0.6-0.4,0.8c-0.1,0.2-0.3,0.3-0.6,0.4c-0.2,0.1-0.5,0.1-0.7,0.1c-0.2,0-0.3,0-0.5-0.1
						c-0.1,0-0.2-0.1-0.3-0.1c-0.1,0-0.2,0-0.2,0.1c0,0,0,0,0,0c0,0.1-0.4,1.1-0.4,1.2c0,0.1,0,0.2,0.1,0.2c0,0,0,0,0,0
						c0.2,0.1,0.4,0.1,0.6,0.2c0.3,0.1,0.6,0.1,0.9,0.1c0.5,0,1-0.1,1.5-0.2c0.4-0.2,0.8-0.4,1.1-0.7c0.3-0.4,0.6-0.8,0.8-1.3
						c0.2-0.6,0.4-1.3,0.5-1.9l1.4-7.4h2c0.1,0,0.2-0.1,0.2-0.2l0.2-1.2c0-0.1,0-0.2-0.2-0.2h-1.9c0.1-0.4,0.2-0.9,0.3-1.3
						c0.1-0.2,0.2-0.4,0.4-0.6c0.1-0.1,0.3-0.2,0.5-0.3c0.2-0.1,0.4-0.1,0.6-0.1c0.2,0,0.3,0,0.5,0c0.2,0,0.3,0.1,0.3,0.1
						c0.2,0.1,0.2,0,0.3-0.1l0.5-1.2C445.9,86.1,445.8,86,445.7,85.9C445.7,85.9,445.7,85.9,445.7,85.9 M418.8,98.4
						c0,0.1-0.1,0.2-0.2,0.2c0,0,0,0,0,0H417c-0.1,0-0.2-0.1-0.2-0.2c0,0,0,0,0,0V86.1c0-0.1,0.1-0.2,0.2-0.2c0,0,0,0,0,0h1.6
						c0.1,0,0.2,0.1,0.2,0.2c0,0,0,0,0,0V98.4z"/>
				</g>
			</g>
		</g>
	</g>
</g>
</svg>
