<svg xmlns="http://www.w3.org/2000/svg" xmlns:xlink="http://www.w3.org/1999/xlink" viewBox="0 0 185.5 185.5">
  <defs>
    <style>
      .cls-1 {
        fill: #fff;
      }

      .cls-2 {
        fill: #95bf46;
      }

      .cls-3 {
        fill: #5e8e3e;
      }

      .cls-4 {
        filter: url(#Path_696);
      }
    </style>
    <filter id="Path_696" x="0" y="0" width="185.5" height="185.5" filterUnits="userSpaceOnUse">
      <feOffset dy="3" input="SourceAlpha"/>
      <feGaussianBlur stdDeviation="3" result="blur"/>
      <feFlood flood-opacity="0.161"/>
      <feComposite operator="in" in2="blur"/>
      <feComposite in="SourceGraphic"/>
    </filter>
  </defs>
  <g id="Group_1362" data-name="Group 1362" transform="translate(9 6)">
    <g class="cls-4" transform="matrix(1, 0, 0, 1, -9, -6)">
      <path id="Path_696-2" data-name="Path 696" class="cls-1" d="M83.75,0A83.75,83.75,0,1,1,0,83.75,83.75,83.75,0,0,1,83.75,0Z" transform="translate(9 6)"/>
    </g>
    <g id="shopify" transform="translate(46.771 42.094)">
      <path id="Path_673" data-name="Path 673" class="cls-2" d="M64.5,17.075a.809.809,0,0,0-.731-.679c-.3-.025-6.737-.5-6.737-.5s-4.468-4.435-4.958-4.926a2.033,2.033,0,0,0-1.821-.232l-2.5.772c-1.492-4.295-4.126-8.241-8.76-8.241-.128,0-.26.005-.391.013a5.631,5.631,0,0,0-4.36-2.5C23.446.779,18.289,14.273,16.672,21.13c-4.194,1.3-7.174,2.224-7.555,2.343-2.341.734-2.415.808-2.723,3.014C6.164,28.157.038,75.531.038,75.531l47.734,8.944,25.864-5.6S64.556,17.5,64.5,17.075ZM45.114,12.323l-4.039,1.25c0-.285,0-.565,0-.871a19.812,19.812,0,0,0-.965-6.522C42.5,6.48,44.09,9.2,45.114,12.323ZM37.151,6.71a20.022,20.022,0,0,1,1.1,7.271c0,.165,0,.315,0,.468L29.9,17.033C31.508,10.834,34.519,7.839,37.151,6.71ZM33.944,3.674a2.438,2.438,0,0,1,1.384.467C31.869,5.769,28.161,9.869,26.6,18.057L20,20.1c1.834-6.245,6.189-16.424,13.942-16.424Z" transform="translate(-0.038 -0.779)"/>
      <path id="Path_674" data-name="Path 674" class="cls-3" d="M181.718,40.787c-.3-.025-6.737-.5-6.737-.5s-4.468-4.435-4.958-4.926a1.225,1.225,0,0,0-.69-.317l-3.609,73.824,25.862-5.595s-9.08-61.384-9.137-61.8a.809.809,0,0,0-.731-.679" transform="translate(-117.988 -25.17)"/>
      <path id="Path_675" data-name="Path 675" class="cls-1" d="M66.886,101.5,63.7,110.983a14.67,14.67,0,0,0-6.219-1.491c-5.021,0-5.274,3.151-5.274,3.945,0,4.333,11.294,5.993,11.294,16.141,0,7.984-5.064,13.126-11.892,13.126a16.545,16.545,0,0,1-12.384-5.1l2.194-7.249s4.307,3.7,7.942,3.7a3.2,3.2,0,0,0,3.341-3.236c0-5.652-9.266-5.9-9.266-15.19,0-7.816,5.61-15.38,16.935-15.38,4.363,0,6.519,1.25,6.519,1.25" transform="translate(-27.932 -71.589)"/>
    </g>
  </g>
</svg>
