<svg xmlns="http://www.w3.org/2000/svg" viewBox="0 0 103 282.798">
  <defs>
    <style>
      .cls-1 {
        fill: none;
      }

      .cls-2, .cls-3 {
        stroke: none;
      }

      .cls-3 {
        fill: rgba(17,44,223,0.21);
      }
    </style>
  </defs>
  <g id="Subtraction_40" data-name="Subtraction 40" class="cls-1" transform="translate(0 0)">
    <path class="cls-2" d="M103,282.8h0A148.574,148.574,0,0,1,103,0V60.58a88.231,88.231,0,0,0,0,162.639Z"/>
    <path class="cls-3" d="M 103.0004959106445 282.7979431152344 L 102.9985809326172 282.7979431152344 L 102.9985809326172 282.7972106933594 C 88.22457885742188 278.0457153320312 74.32907867431641 271.0141296386719 61.69874572753906 261.8985290527344 C 49.22315979003906 252.8957824707031 38.25291061401367 242.0616302490234 29.09274482727051 229.696533203125 C 19.82766151428223 217.1875457763672 12.62741088867188 203.3923797607422 7.692410945892334 188.6943664550781 C 2.587910890579224 173.4923706054688 -5.859375050931703e-06 157.5802001953125 -5.859375050931703e-06 141.3999633789062 C -5.859375050931703e-06 125.2177886962891 2.587910890579224 109.3056259155273 7.692410945892334 94.10545349121094 C 12.62741088867188 79.40554046630859 19.82766151428223 65.61045837402344 29.09274482727051 53.10337448120117 C 38.25199508666992 40.73770523071289 49.22216033935547 29.90270614624023 61.69874572753906 20.89945602416992 C 74.33791351318359 11.77920627593994 88.23390960693359 4.747706413269043 103.0004959106445 3.963216295232996e-05 L 103.0004959106445 60.58037185668945 C 70.19724273681641 74.26254272460938 49.00199508666992 106.1815414428711 49.00199508666992 141.8987884521484 C 49.00199508666992 177.6162109375 70.19774627685547 209.5362854003906 103.0004959106445 223.2189636230469 L 103.0004959106445 282.7979431152344 Z"/>
  </g>
</svg>
