<?xml version="1.0" encoding="utf-8"?>
<!-- Generator: Adobe Illustrator 21.0.0, SVG Export Plug-In . SVG Version: 6.00 Build 0)  -->
<svg version="1.1" id="Layer_1" xmlns="http://www.w3.org/2000/svg" xmlns:xlink="http://www.w3.org/1999/xlink" x="0px" y="0px"
	 viewBox="0 0 6000 8400" style="enable-background:new 0 0 6000 8400;" xml:space="preserve">
<style type="text/css">
	.st0{fill:#FFFFFF;}
	.st1{fill:#95BF47;}
	.st2{fill:#5F8F3E;}
</style>
<g>
	<g id="Group_1362_1_" transform="translate(9 6)">
		<g transform="matrix(1, 0, 0, 1, -9, -6)">
			<path id="Path_696-2_1_" class="st0" d="M1705.3,2021.9c46.3,0,83.8,37.5,83.8,83.8s-37.5,83.8-83.8,83.8
				c-46.3,0-83.8-37.5-83.8-83.8S1659.1,2021.9,1705.3,2021.9z"/>
		</g>
		<g id="shopify_1_" transform="translate(46.771 42.094)">
			<path id="Path_673_1_" class="st1" d="M1677,2032.2c-0.1-0.4-0.4-0.6-0.7-0.7c-0.3,0-6.7-0.5-6.7-0.5s-4.5-4.4-5-4.9
				c-0.5-0.4-1.2-0.4-1.8-0.2l-2.5,0.8c-1.5-4.3-4.1-8.2-8.8-8.2c-0.1,0-0.3,0-0.4,0c-1-1.5-2.6-2.4-4.4-2.5
				c-10.8,0-16,13.5-17.6,20.3c-4.2,1.3-7.2,2.2-7.6,2.3c-2.3,0.7-2.4,0.8-2.7,3c-0.2,1.7-6.4,49-6.4,49l47.7,8.9l25.9-5.6
				C1686.2,2094,1677.1,2032.6,1677,2032.2z M1657.6,2027.4l-4,1.2c0-0.3,0-0.6,0-0.9c0-2.2-0.3-4.4-1-6.5
				C1655,2021.6,1656.6,2024.3,1657.6,2027.4z M1649.7,2021.8c0.8,2.3,1.2,4.8,1.1,7.3c0,0.2,0,0.3,0,0.5l-8.4,2.6
				C1644,2025.9,1647.1,2022.9,1649.7,2021.8z M1646.5,2018.8c0.5,0,1,0.2,1.4,0.5c-3.5,1.6-7.2,5.7-8.7,13.9l-6.6,2
				C1634.4,2028.9,1638.7,2018.8,1646.5,2018.8L1646.5,2018.8z"/>
			<path id="Path_674_1_" class="st2" d="M1676.3,2031.5c-0.3,0-6.7-0.5-6.7-0.5s-4.5-4.4-5-4.9c-0.2-0.2-0.4-0.3-0.7-0.3l-3.6,73.8
				l25.9-5.6c0,0-9.1-61.4-9.1-61.8C1677,2031.8,1676.7,2031.5,1676.3,2031.5"/>
			<path id="Path_675_1_" class="st0" d="M1651.5,2045.8l-3.2,9.5c-1.9-0.9-4.1-1.5-6.2-1.5c-5,0-5.3,3.2-5.3,3.9
				c0,4.3,11.3,6,11.3,16.1c0,8-5.1,13.1-11.9,13.1c-4.7,0.1-9.2-1.7-12.4-5.1l2.2-7.2c0,0,4.3,3.7,7.9,3.7c1.8,0.1,3.3-1.3,3.3-3.1
				c0-0.1,0-0.1,0-0.2c0-5.7-9.3-5.9-9.3-15.2c0-7.8,5.6-15.4,16.9-15.4C1649.4,2044.5,1651.5,2045.8,1651.5,2045.8"/>
		</g>
	</g>
</g>
</svg>
