<svg xmlns="http://www.w3.org/2000/svg" xmlns:xlink="http://www.w3.org/1999/xlink" viewBox="0 0 211.904 211.904">
  <defs>
    <style>
      .cls-1 {
        fill: #fff;
      }

      .cls-2 {
        clip-path: url(#clip-path);
      }

      .cls-3 {
        fill: #00749a;
      }

      .cls-4 {
        fill: #464342;
      }

      .cls-5 {
        filter: url(#Path_697);
      }
    </style>
    <filter id="Path_697" x="0" y="0" width="211.904" height="211.904" filterUnits="userSpaceOnUse">
      <feOffset dy="3" input="SourceAlpha"/>
      <feGaussianBlur stdDeviation="3" result="blur"/>
      <feFlood flood-opacity="0.161"/>
      <feComposite operator="in" in2="blur"/>
      <feComposite in="SourceGraphic"/>
    </filter>
    <clipPath id="clip-path">
      <path id="Path_692" data-name="Path 692" d="M0,0H105.13V105.131H0Z"/>
    </clipPath>
  </defs>
  <g id="Group_1364" data-name="Group 1364" transform="translate(9 6)">
    <g class="cls-5" transform="matrix(1, 0, 0, 1, -9, -6)">
      <path id="Path_697-2" data-name="Path 697" class="cls-1" d="M96.952,0A96.952,96.952,0,1,1,0,96.952,96.952,96.952,0,0,1,96.952,0Z" transform="translate(9 6)"/>
    </g>
    <g id="wordpress-blue" class="cls-2" transform="translate(44.619 44.619)">
      <path id="Path_687" data-name="Path 687" class="cls-3" d="M286.827,46.541h-18.24v1.935c5.705,0,6.622,1.223,6.622,8.457V69.977c0,7.234-.916,8.56-6.622,8.56-4.379-.612-7.336-2.955-11.412-7.439L252.488,66c6.316-1.122,9.679-5.1,9.679-9.579,0-5.6-4.788-9.883-13.755-9.883H230.478v1.935c5.705,0,6.622,1.223,6.622,8.457V69.977c0,7.234-.916,8.56-6.622,8.56v1.936h20.277V78.537c-5.7,0-6.622-1.326-6.622-8.56V66.311h1.732l11.311,14.162h29.652c14.571,0,20.889-7.743,20.889-17.017s-6.319-16.915-20.89-16.915ZM244.133,63.149V49.6h4.177c4.585,0,6.623,3.158,6.623,6.827,0,3.567-2.039,6.725-6.623,6.725Zm43,14.165h-.714c-3.667,0-4.177-.916-4.177-5.6V49.6h4.891c10.6,0,12.531,7.743,12.531,13.755C299.665,69.569,297.729,77.314,287.133,77.314ZM173.725,66.921l7.03-20.789c2.039-6.012,1.122-7.742-5.4-7.742V36.351h19.156V38.39c-6.418,0-7.947,1.527-10.494,8.966L172.4,82.2h-1.324L160.682,50.311,150.086,82.2H148.76L137.45,47.356c-2.445-7.438-4.076-8.966-9.986-8.966V36.352h22.621v2.039c-6.013,0-7.644,1.426-5.5,7.742l6.827,20.789L161.7,36.352h1.937l10.088,30.569ZM208.368,81.8c-11.208,0-20.379-8.253-20.379-18.342,0-9.986,9.171-18.24,20.379-18.24s20.379,8.254,20.379,18.24C228.747,73.543,219.577,81.8,208.368,81.8Zm0-33.42c-9.373,0-12.636,8.455-12.636,15.079,0,6.726,3.262,15.081,12.636,15.081,9.477,0,12.738-8.355,12.738-15.081,0-6.624-3.261-15.079-12.738-15.079Z" transform="translate(-18.093 -5.16)"/>
      <path id="Path_688" data-name="Path 688" class="cls-4" d="M363,78.434v2.038H339.67V78.434c6.828,0,8.05-1.732,8.05-11.923v-16.3c0-10.191-1.223-11.82-8.05-11.82V36.35h21.092c10.494,0,16.3,5.4,16.3,12.637,0,7.031-5.81,12.533-16.3,12.533h-5.809v4.991c0,10.192,1.223,11.923,8.051,11.923Zm-2.242-38.416h-5.809V57.749h5.809c5.706,0,8.355-3.974,8.355-8.762C369.117,44.1,366.469,40.018,360.762,40.018Zm86.3,30.876-.511,1.834c-.916,3.363-2.039,4.585-9.273,4.585h-1.427c-5.3,0-6.215-1.223-6.215-8.456V64.171c7.948,0,8.56.712,8.56,6.012h1.937V55H438.2c0,5.3-.612,6.012-8.56,6.012V49.6h5.6c7.236,0,8.356,1.223,9.273,4.585l.511,1.936h1.629l-.712-9.578H415.987v1.935c5.705,0,6.623,1.223,6.623,8.457V69.977c0,6.618-.778,8.285-5.277,8.524-4.276-.654-7.211-2.985-11.228-7.4L401.418,66c6.318-1.122,9.681-5.1,9.681-9.579,0-5.6-4.789-9.883-13.755-9.883H379.41v1.935c5.705,0,6.623,1.223,6.623,8.457V69.977c0,7.234-.916,8.56-6.623,8.56v1.936h20.277V78.537c-5.7,0-6.623-1.326-6.623-8.56V66.311H394.8l11.31,14.162h41.878L448.6,70.9l-1.531,0Zm-54-7.746V49.6h4.177c4.585,0,6.624,3.158,6.624,6.827,0,3.567-2.039,6.725-6.624,6.725ZM467.751,81.8a15.064,15.064,0,0,1-9.171-3.465A7.313,7.313,0,0,0,456.95,81.8h-1.937V67.735h2.038c.816,6.725,5.5,10.7,11.514,10.7,3.261,0,5.91-1.835,5.91-4.89,0-2.649-2.342-4.688-6.521-6.623l-5.809-2.751c-4.077-1.937-7.132-5.3-7.132-9.783,0-4.891,4.585-9.068,10.9-9.068a12.761,12.761,0,0,1,7.948,2.65,5.756,5.756,0,0,0,1.325-2.753h1.936V57.241h-2.14c-.714-4.79-3.363-8.763-8.762-8.763-2.853,0-5.5,1.629-5.5,4.179,0,2.649,2.139,4.075,7.031,6.316l5.6,2.751c4.892,2.343,6.827,6.115,6.827,9.172,0,6.418-5.6,10.9-12.431,10.9Zm31.383,0a15.06,15.06,0,0,1-9.171-3.465,7.313,7.313,0,0,0-1.629,3.465H486.4V67.735h2.038c.815,6.725,5.5,10.7,11.514,10.7,3.261,0,5.91-1.835,5.91-4.89,0-2.649-2.343-4.688-6.522-6.623l-5.809-2.751c-4.076-1.937-7.132-5.3-7.132-9.783,0-4.891,4.585-9.068,10.9-9.068a12.763,12.763,0,0,1,7.948,2.65,5.748,5.748,0,0,0,1.323-2.753h1.937V57.241h-2.139c-.714-4.79-3.363-8.763-8.762-8.763-2.853,0-5.5,1.629-5.5,4.179,0,2.649,2.14,4.075,7.032,6.316l5.6,2.751c4.891,2.343,6.826,6.115,6.826,9.172,0,6.418-5.6,10.9-12.43,10.9Z" transform="translate(-48.216 -5.16)"/>
      <g id="Group_1223" data-name="Group 1223">
        <path id="Path_689" data-name="Path 689" class="cls-3" d="M8.708,53.8A45.1,45.1,0,0,0,34.123,94.385L12.612,35.448A44.922,44.922,0,0,0,8.708,53.8Zm75.536-2.276a23.742,23.742,0,0,0-3.719-12.437c-2.286-3.715-4.428-6.86-4.428-10.575a7.808,7.808,0,0,1,7.571-8c.2,0,.39.025.585.036a45.085,45.085,0,0,0-68.129,8.488c1.058.032,2.056.053,2.9.053,4.717,0,12.018-.572,12.018-.572a1.863,1.863,0,0,1,.29,3.715s-2.444.287-5.162.43L42.594,81.5l9.869-29.6L45.437,32.658c-2.428-.142-4.729-.43-4.729-.43-2.43-.142-2.145-3.858.285-3.715,0,0,7.447.572,11.878.572,4.716,0,12.018-.572,12.018-.572a1.863,1.863,0,0,1,.289,3.715s-2.448.287-5.161.43l16.3,48.475,4.5-15.03c1.95-6.237,3.434-10.717,3.434-14.577Z" transform="translate(-1.236 -1.236)"/>
        <path id="Path_690" data-name="Path 690" class="cls-3" d="M59.946,61.625,46.416,100.94a45.106,45.106,0,0,0,27.713-.718,3.82,3.82,0,0,1-.321-.621ZM98.723,36.046a34.608,34.608,0,0,1,.3,4.637A42.538,42.538,0,0,1,95.6,56.835L81.824,96.66a45.1,45.1,0,0,0,16.9-60.614Z" transform="translate(-6.589 -5.117)"/>
        <path id="Path_691" data-name="Path 691" class="cls-3" d="M52.566,0a52.566,52.566,0,1,0,52.569,52.564A52.625,52.625,0,0,0,52.566,0Zm0,102.722a50.155,50.155,0,1,1,50.153-50.157,50.214,50.214,0,0,1-50.153,50.157Z"/>
      </g>
    </g>
  </g>
</svg>
