<svg xmlns="http://www.w3.org/2000/svg" xmlns:xlink="http://www.w3.org/1999/xlink" width="127.598" height="127.598" viewBox="0 0 127.598 127.598">
  <defs>
    <filter id="Ellipse_2735" x="0" y="0" width="127.598" height="127.598" filterUnits="userSpaceOnUse">
      <feOffset dy="1" input="SourceAlpha"/>
      <feGaussianBlur stdDeviation="1.5" result="blur"/>
      <feFlood flood-opacity="0.161"/>
      <feComposite operator="in" in2="blur"/>
      <feComposite in="SourceGraphic"/>
    </filter>
    <linearGradient id="linear-gradient" x1="1" y1="-0.112" x2="0.165" y2="1" gradientUnits="objectBoundingBox">
      <stop offset="0" stop-color="#38f9d7"/>
      <stop offset="1" stop-color="#43e97b"/>
    </linearGradient>
  </defs>
  <g id="Group_1277" data-name="Group 1277" transform="translate(-2428.5 -133.5)">
    <g transform="matrix(1, 0, 0, 1, 2428.5, 133.5)" filter="url(#Ellipse_2735)">
      <circle id="Ellipse_2735-2" data-name="Ellipse 2735" cx="59.299" cy="59.299" r="59.299" transform="translate(4.5 3.5)" fill="#fff"/>
    </g>
    <g id="point-of-sale-terminal-pos" transform="translate(2472.532 162.157)">
      <path id="Path_964" data-name="Path 964" d="M144.445,6.1H140.2V2.12A2.121,2.121,0,0,0,138.084,0h-20.5a2.121,2.121,0,0,0-2.121,2.12V6.1h-4.241a4.947,4.947,0,0,0-4.948,4.948V61.111a4.947,4.947,0,0,0,4.948,4.948h33.22a4.947,4.947,0,0,0,4.948-4.948V11.043A4.948,4.948,0,0,0,144.445,6.1ZM133.49,11.043v-6.8h2.474V15.726H133.49Zm-13.783,0v-6.8h7.775V15.726h-7.775V11.043ZM121,60.254a2.121,2.121,0,0,1-2.121,2.121h-3.417a2.12,2.12,0,0,1-2.121-2.121V56.6a2.12,2.12,0,0,1,2.121-2.12h3.417A2.12,2.12,0,0,1,121,56.6v3.65Zm0-10.662a2.12,2.12,0,0,1-2.121,2.12h-3.417a2.12,2.12,0,0,1-2.121-2.12v-3.65a2.121,2.121,0,0,1,2.121-2.121h3.417A2.12,2.12,0,0,1,121,45.943v3.65Zm0-10.66a2.121,2.121,0,0,1-2.121,2.121h-3.417a2.12,2.12,0,0,1-2.121-2.121V35.281a2.12,2.12,0,0,1,2.121-2.121h3.417A2.12,2.12,0,0,1,121,35.281v3.651Zm10.661,21.322a2.12,2.12,0,0,1-2.12,2.121h-3.418a2.12,2.12,0,0,1-2.12-2.121V56.6a2.12,2.12,0,0,1,2.12-2.12h3.418a2.12,2.12,0,0,1,2.12,2.12Zm0-10.662a2.12,2.12,0,0,1-2.12,2.12h-3.418a2.12,2.12,0,0,1-2.12-2.12v-3.65a2.12,2.12,0,0,1,2.12-2.121h3.418a2.12,2.12,0,0,1,2.12,2.121Zm0-10.66a2.12,2.12,0,0,1-2.12,2.121h-3.418a2.12,2.12,0,0,1-2.12-2.121V35.281a2.12,2.12,0,0,1,2.12-2.121h3.418a2.12,2.12,0,0,1,2.12,2.121Zm10.661,21.322a2.121,2.121,0,0,1-2.121,2.121h-3.417a2.12,2.12,0,0,1-2.12-2.121V56.6a2.12,2.12,0,0,1,2.12-2.12H140.2a2.12,2.12,0,0,1,2.121,2.12Zm0-10.662a2.12,2.12,0,0,1-2.121,2.12h-3.417a2.12,2.12,0,0,1-2.12-2.12v-3.65a2.121,2.121,0,0,1,2.12-2.121H140.2a2.12,2.12,0,0,1,2.121,2.121Zm0-10.66a2.121,2.121,0,0,1-2.121,2.121h-3.417a2.12,2.12,0,0,1-2.12-2.121V35.281a2.12,2.12,0,0,1,2.12-2.121H140.2a2.12,2.12,0,0,1,2.121,2.121Zm0-12.382a3.623,3.623,0,0,1-3.623,3.622H116.967a3.622,3.622,0,0,1-3.622-3.622V22.809a3.622,3.622,0,0,1,3.622-3.623H138.7a3.623,3.623,0,0,1,3.623,3.623v3.742Z" transform="translate(-106.277)" fill="url(#linear-gradient)"/>
    </g>
  </g>
</svg>
