<svg xmlns="http://www.w3.org/2000/svg" xmlns:xlink="http://www.w3.org/1999/xlink" width="144.359" height="105.143" viewBox="0 0 144.359 105.143">
  <defs>
    <filter id="Path_1312" x="0" y="0" width="144.359" height="105.143" filterUnits="userSpaceOnUse">
      <feOffset dy="3" input="SourceAlpha"/>
      <feGaussianBlur stdDeviation="3" result="blur"/>
      <feFlood flood-opacity="0.161"/>
      <feComposite operator="in" in2="blur"/>
      <feComposite in="SourceGraphic"/>
    </filter>
  </defs>
  <g id="Group_1426" data-name="Group 1426" transform="translate(9 6)">
    <g transform="matrix(1, 0, 0, 1, -9, -6)" filter="url(#Path_1312)">
      <path id="Path_1312-2" data-name="Path 1312" d="M126.359,159.124a7.469,7.469,0,0,1-7.469,7.47H7.469A7.469,7.469,0,0,1,0,159.124v-72.2a7.469,7.469,0,0,1,7.469-7.469h111.42a7.469,7.469,0,0,1,7.469,7.469v72.2Z" transform="translate(9 -73.45)" fill="#278ce4"/>
    </g>
    <g id="Group_1425" data-name="Group 1425" transform="translate(18.263 16.535)">
      <path id="Path_1298" data-name="Path 1298" d="M77.994,121.955A26.935,26.935,0,1,0,96.25,168.807h0a27.044,27.044,0,0,0,2.73-2.885H93.477a26.065,26.065,0,0,1-2-2.776h9.5a26.935,26.935,0,0,0,1.567-2.882H89.907a26.231,26.231,0,0,1-1.124-2.83H103.66a26.879,26.879,0,0,0,1.383-8.543,27.173,27.173,0,0,0-.619-5.77H87.993a27.422,27.422,0,0,1,.766-2.829h14.884a26.991,26.991,0,0,0-1.159-2.884H89.905a25.983,25.983,0,0,1,1.541-2.83h9.49a26.766,26.766,0,0,0-2.085-2.882H93.56a24.627,24.627,0,0,1,2.695-2.719,26.731,26.731,0,0,0-18.087-7.022Z" transform="translate(-51.288 -121.955)" fill="#931b1d"/>
      <path id="Path_1299" data-name="Path 1299" d="M251.132,148.9a26.877,26.877,0,1,1-53.754.011V148.9a26.877,26.877,0,1,1,53.755-.015A.143.143,0,0,0,251.132,148.9Z" transform="translate(-161.324 -121.955)" fill="#f16622"/>
      <path id="Path_1300" data-name="Path 1300" d="M251.132,150.11a26.877,26.877,0,1,1-53.754.014v-.014a26.877,26.877,0,1,1,53.755-.014S251.132,150.1,251.132,150.11Z" transform="translate(-161.324 -122.868)" fill="#f7981d"/>
      <path id="Path_1301" data-name="Path 1301" d="M77.994,123.193A26.936,26.936,0,1,0,96.25,170.046v0h0a26.632,26.632,0,0,0,2.73-2.885H93.477a25.852,25.852,0,0,1-2-2.772h9.5a27.171,27.171,0,0,0,1.567-2.885H89.907a26.441,26.441,0,0,1-1.124-2.829H103.66a27.127,27.127,0,0,0,.765-14.313H87.993a27.423,27.423,0,0,1,.766-2.828h14.884a27.031,27.031,0,0,0-1.159-2.886H89.905a26.229,26.229,0,0,1,1.541-2.829h9.49a27.262,27.262,0,0,0-2.085-2.884H93.56a24.955,24.955,0,0,1,2.695-2.719,26.734,26.734,0,0,0-18.087-7.021Z" transform="translate(-51.288 -122.888)" fill="#cb2026"/>
      <g id="Group_1423" data-name="Group 1423" transform="translate(2.55 20.285)">
        <path id="Path_1302" data-name="Path 1302" d="M185.853,221.6l.359-2.437c-.2,0-.484.083-.738.083-1,0-1.106-.53-1.042-.923l.8-4.975h1.514l.366-2.7h-1.427l.291-1.675h-2.863c-.062.063-1.69,9.431-1.69,10.57a2.127,2.127,0,0,0,2.28,2.43A7.522,7.522,0,0,0,185.853,221.6Z" transform="translate(-151.86 -207.782)" fill="#fff"/>
        <path id="Path_1303" data-name="Path 1303" d="M203.035,221.093c0,4.053,2.668,5.017,4.942,5.017a7.241,7.241,0,0,0,3.022-.472l.505-2.767a8.85,8.85,0,0,1-3.039.709c-3.072,0-2.534-2.3-2.534-2.3h5.817a20.79,20.79,0,0,0,.374-2.617c0-1.889-.94-4.192-4.081-4.192C205.164,214.476,203.035,217.581,203.035,221.093Zm5.019-4.051c1.614,0,1.316,1.819,1.316,1.966h-3.177C206.192,218.821,206.493,217.042,208.054,217.042Z" transform="translate(-168.134 -211.927)" fill="#fff"/>
        <path id="Path_1304" data-name="Path 1304" d="M273.435,217.963l.513-3.13a6.85,6.85,0,0,1-2.368.709c-2.03,0-2.843-1.557-2.843-3.223,0-3.387,1.746-5.251,3.692-5.251a5.085,5.085,0,0,1,2.628.822l.466-3.036a10.231,10.231,0,0,0-3.222-.706c-3.3,0-6.52,2.869-6.52,8.268,0,3.574,1.737,5.939,5.152,5.939A13.155,13.155,0,0,0,273.435,217.963Z" transform="translate(-215.396 -204.149)" fill="#fff"/>
        <path id="Path_1305" data-name="Path 1305" d="M119.355,214.654a9.884,9.884,0,0,0-3.467.631l-.415,2.471a9.047,9.047,0,0,1,3.119-.5c1.066,0,1.844.119,1.844.988a1.845,1.845,0,0,1-.1.721s-.839-.071-1.229-.071c-2.474,0-5.074,1.058-5.074,4.251,0,2.514,1.7,3.092,2.762,3.092a3.717,3.717,0,0,0,2.936-1.318l-.094,1.1h2.519l1.125-7.9C123.285,214.762,120.368,214.654,119.355,214.654Zm.614,6.429c.055.483-.3,2.745-2.026,2.745a1.045,1.045,0,0,1-1.12-1.084c0-.784.426-1.727,2.524-1.727A1.865,1.865,0,0,1,119.969,221.083Z" transform="translate(-101.101 -212.061)" fill="#fff"/>
        <path id="Path_1306" data-name="Path 1306" d="M152.563,226.229c.644,0,4.328.165,4.328-3.645,0-3.563-3.41-2.86-3.41-4.291,0-.71.556-.937,1.572-.937.4,0,1.956.13,1.956.13l.362-2.534a13.384,13.384,0,0,0-2.639-.224c-2.119,0-4.266.844-4.266,3.743,0,3.287,3.583,2.954,3.583,4.337,0,.923-1,1-1.774,1a9.3,9.3,0,0,1-2.541-.438l-.381,2.505A8.944,8.944,0,0,0,152.563,226.229Z" transform="translate(-127.7 -212.117)" fill="#fff"/>
        <path id="Path_1307" data-name="Path 1307" d="M367.853,205.426l-.616,3.838a3.782,3.782,0,0,0-2.763-1.489c-2.623,0-4.808,3.167-4.808,6.809,0,2.35,1.164,4.651,3.549,4.651a3.57,3.57,0,0,0,2.663-1.2l-.125,1.022h2.783l2.188-13.638Zm-1.328,7.487c0,1.514-.75,3.535-2.3,3.535-1.031,0-1.512-.866-1.512-2.226,0-2.222,1-3.692,2.251-3.692C366,210.53,366.525,211.241,366.525,212.913Z" transform="translate(-286.11 -205.106)" fill="#fff"/>
        <path id="Path_1308" data-name="Path 1308" d="M64.376,219.061l1.744-10.3.254,10.3h1.972l3.678-10.3-1.63,10.3h2.929l2.258-13.653H71.051l-2.821,8.376-.147-8.376H63.908l-2.289,13.653Z" transform="translate(-61.619 -205.097)" fill="#fff"/>
        <path id="Path_1309" data-name="Path 1309" d="M242.486,226.442c.833-4.746.987-8.6,2.976-7.9a11.114,11.114,0,0,1,1.062-3.324,2.973,2.973,0,0,0-.552-.038c-1.279,0-2.229,1.754-2.229,1.754l.253-1.611H241.33l-1.783,11.116Z" transform="translate(-195.635 -212.459)" fill="#fff"/>
        <path id="Path_1310" data-name="Path 1310" d="M307.318,214.654a9.876,9.876,0,0,0-3.466.631l-.414,2.471a9.026,9.026,0,0,1,3.118-.5c1.065,0,1.845.119,1.845.988a1.827,1.827,0,0,1-.1.721s-.839-.071-1.232-.071c-2.475,0-5.072,1.058-5.072,4.251,0,2.514,1.706,3.092,2.762,3.092a3.71,3.71,0,0,0,2.935-1.318l-.093,1.1h2.521l1.124-7.9C311.25,214.762,308.334,214.654,307.318,214.654Zm.615,6.429c.055.483-.3,2.745-2.027,2.745a1.043,1.043,0,0,1-1.117-1.084c0-.784.426-1.727,2.52-1.727A1.87,1.87,0,0,1,307.933,221.083Z" transform="translate(-242.676 -212.061)" fill="#fff"/>
        <path id="Path_1311" data-name="Path 1311" d="M339.832,226.442c.834-4.746.988-8.6,2.977-7.9a11.039,11.039,0,0,1,1.064-3.324,3.019,3.019,0,0,0-.553-.038c-1.283,0-2.23,1.754-2.23,1.754l.255-1.611h-2.667l-1.784,11.116h2.938Z" transform="translate(-268.958 -212.459)" fill="#fff"/>
      </g>
    </g>
  </g>
</svg>
