<svg xmlns="http://www.w3.org/2000/svg" xmlns:xlink="http://www.w3.org/1999/xlink" width="144.359" height="105.143" viewBox="0 0 144.359 105.143">
  <defs>
    <filter id="Path_1312" x="0" y="0" width="144.359" height="105.143" filterUnits="userSpaceOnUse">
      <feOffset dy="3" input="SourceAlpha"/>
      <feGaussianBlur stdDeviation="3" result="blur"/>
      <feFlood flood-opacity="0.161"/>
      <feComposite operator="in" in2="blur"/>
      <feComposite in="SourceGraphic"/>
    </filter>
  </defs>
  <g id="Group_1430" data-name="Group 1430" transform="translate(9 6)">
    <g transform="matrix(1, 0, 0, 1, -9, -6)" filter="url(#Path_1312)">
      <path id="Path_1312-2" data-name="Path 1312" d="M126.359,159.124a7.469,7.469,0,0,1-7.469,7.47H7.469A7.469,7.469,0,0,1,0,159.124v-72.2a7.469,7.469,0,0,1,7.469-7.469h111.42a7.469,7.469,0,0,1,7.469,7.469v72.2Z" transform="translate(9 -73.45)" fill="#f3f2f2"/>
    </g>
    <g id="Group_1427" data-name="Group 1427" transform="translate(16.339 28.295)">
      <g id="Group_1412" data-name="Group 1412" transform="translate(8.315)">
        <path id="Path_1265" data-name="Path 1265" d="M175.483,203.266l4.724-27.894h7.648l-4.723,27.894Z" transform="translate(-150.28 -174.923)" fill="#293688"/>
        <path id="Path_1266" data-name="Path 1266" d="M244.195,174.818a19.863,19.863,0,0,0-6.856-1.171c-7.558,0-12.882,3.784-12.928,9.206-.042,4.007,3.8,6.242,6.7,7.578,2.977,1.365,3.978,2.24,3.963,3.46-.018,1.87-2.378,2.724-4.577,2.724a16.139,16.139,0,0,1-7.2-1.464l-.986-.444-1.074,6.244a24.322,24.322,0,0,0,8.521,1.489c8.039,0,13.26-3.739,13.318-9.53.029-3.173-2.009-5.587-6.422-7.579-2.674-1.289-4.311-2.149-4.294-3.457,0-1.159,1.387-2.4,4.38-2.4a14.182,14.182,0,0,1,5.726,1.068l.684.322,1.039-6.046Z" transform="translate(-184.118 -173.647)" fill="#293688"/>
        <path id="Path_1267" data-name="Path 1267" d="M315.985,175.373a3.8,3.8,0,0,0-3.962,2.376l-11.334,25.519h8.1l1.574-4.274h9.674l.9,4.274h7.2l-6.3-27.894h-5.85Zm-3.476,18.039c.632-1.606,3.046-7.8,3.046-7.8-.044.073.629-1.614,1.015-2.661l.518,2.4s1.463,6.659,1.77,8.054h-6.349Z" transform="translate(-242.869 -174.923)" fill="#293688"/>
        <path id="Path_1268" data-name="Path 1268" d="M89.995,194.494l-.674-3.824c-1.4-4.458-5.728-9.281-10.582-11.7L85.5,203.266h8.1l12.146-27.894h-8.1Z" transform="translate(-78.739 -174.923)" fill="#293688"/>
      </g>
      <path id="Path_1269" data-name="Path 1269" d="M46.823,175.373v.45c9.6,2.308,16.259,8.143,18.9,14.847l-2.773-12.916c-.463-1.765-1.866-2.319-3.526-2.38Z" transform="translate(-46.823 -174.923)" fill="#f7981d"/>
    </g>
  </g>
</svg>
