<svg xmlns="http://www.w3.org/2000/svg" xmlns:xlink="http://www.w3.org/1999/xlink" width="261.333" height="260.12" viewBox="0 0 261.333 260.12">
  <defs>
    <linearGradient id="linear-gradient" x1="0.554" y1="0.573" x2="-0.237" y2="-0.486" gradientUnits="objectBoundingBox">
      <stop offset="0" stop-color="#59bdef"/>
      <stop offset="1" stop-color="#7bdaff"/>
    </linearGradient>
    <linearGradient id="linear-gradient-2" y1="0.5" x2="1" y2="0.5" gradientUnits="objectBoundingBox">
      <stop offset="0" stop-color="#2573ba"/>
      <stop offset="1" stop-color="#0063ad"/>
    </linearGradient>
    <linearGradient id="linear-gradient-3" y1="0.5" x2="1" y2="0.5" gradientUnits="objectBoundingBox">
      <stop offset="0" stop-color="#3a9bd5"/>
      <stop offset="1" stop-color="#2573ba"/>
    </linearGradient>
    <linearGradient id="linear-gradient-4" x1="0" y1="0.5" y2="0.5" xlink:href="#linear-gradient-2"/>
    <linearGradient id="linear-gradient-7" y1="0.5" x2="2.597" y2="0.5" gradientUnits="objectBoundingBox">
      <stop offset="0" stop-color="#3a9bd5"/>
      <stop offset="0.52" stop-color="#3088c8"/>
      <stop offset="1" stop-color="#297bbf"/>
    </linearGradient>
    <linearGradient id="linear-gradient-8" x1="-1.774" y1="3.037" x2="-0.169" y2="3.344" xlink:href="#linear-gradient"/>
    <radialGradient id="radial-gradient" cx="159.663" cy="-422.427" r="25.859" gradientTransform="matrix(0.517, -0.65, 0.65, 0.517, 363.354, -205.872)" gradientUnits="userSpaceOnUse">
      <stop offset="0" stop-color="#fce586"/>
      <stop offset="0.23" stop-color="#fcdb7b"/>
      <stop offset="0.62" stop-color="#fcd06f"/>
      <stop offset="1" stop-color="#fccc6b"/>
    </radialGradient>
    <radialGradient id="radial-gradient-2" cx="1770.594" cy="-804.327" r="61.649" gradientTransform="translate(287.664 -154.574) scale(0.828 0.828)" xlink:href="#radial-gradient"/>
    <linearGradient id="linear-gradient-9" x1="0.5" x2="0.5" y2="1" gradientUnits="objectBoundingBox">
      <stop offset="0" stop-color="#f905f5"/>
      <stop offset="1" stop-color="#17c9f2"/>
    </linearGradient>
    <radialGradient id="radial-gradient-3" cx="40.32" cy="-296.957" r="37.134" gradientTransform="matrix(0.553, -0.17, 0.17, 0.553, 56.476, -222.252)" xlink:href="#radial-gradient"/>
    <radialGradient id="radial-gradient-4" cx="50.412" cy="-286.673" r="88.441" gradientTransform="matrix(0.552, -0.169, 0.169, 0.552, 58.122, -217.108)" xlink:href="#radial-gradient"/>
    <radialGradient id="radial-gradient-5" cx="34.882" cy="-294.837" r="37.134" gradientTransform="matrix(0.553, -0.17, 0.17, 0.553, 52.141, -221.137)" xlink:href="#radial-gradient"/>
    <radialGradient id="radial-gradient-6" cx="45.211" cy="-284.197" r="88.39" gradientTransform="matrix(0.552, -0.17, 0.17, 0.552, 53.895, -215.626)" xlink:href="#radial-gradient"/>
    <radialGradient id="radial-gradient-7" cx="26.637" cy="-329.991" r="37.134" gradientTransform="matrix(0.553, -0.17, 0.17, 0.553, 49.195, -248.575)" xlink:href="#radial-gradient"/>
    <radialGradient id="radial-gradient-8" cx="36.644" cy="-319.637" r="88.441" gradientTransform="matrix(0.552, -0.169, 0.169, 0.552, 50.76, -243.418)" xlink:href="#radial-gradient"/>
    <radialGradient id="radial-gradient-9" cx="62.935" cy="-313.352" r="37.134" gradientTransform="matrix(0.553, -0.17, 0.17, 0.553, 75.226, -232.608)" xlink:href="#radial-gradient"/>
    <radialGradient id="radial-gradient-10" cx="73.035" cy="-302.812" r="88.376" gradientTransform="matrix(0.552, -0.17, 0.17, 0.552, 76.848, -227.182)" xlink:href="#radial-gradient"/>
    <radialGradient id="radial-gradient-11" cx="43.552" cy="-317.799" r="37.134" gradientTransform="matrix(0.553, -0.17, 0.17, 0.553, 60.905, -237.768)" xlink:href="#radial-gradient"/>
    <radialGradient id="radial-gradient-12" cx="53.525" cy="-307.532" r="88.441" gradientTransform="matrix(0.552, -0.169, 0.169, 0.552, 62.473, -232.67)" xlink:href="#radial-gradient"/>
    <radialGradient id="radial-gradient-13" cx="37.178" cy="-317.366" r="37.134" gradientTransform="matrix(0.553, -0.17, 0.17, 0.553, 56.017, -238.025)" xlink:href="#radial-gradient"/>
    <radialGradient id="radial-gradient-14" cx="47.18" cy="-307.049" r="88.441" gradientTransform="matrix(0.552, -0.169, 0.169, 0.552, 57.594, -232.888)" xlink:href="#radial-gradient"/>
    <radialGradient id="radial-gradient-15" cx="30.949" cy="-312.295" r="37.118" gradientTransform="matrix(0.553, -0.17, 0.17, 0.553, 50.784, -234.682)" xlink:href="#radial-gradient"/>
    <radialGradient id="radial-gradient-16" cx="40.848" cy="-302.12" r="88.441" gradientTransform="matrix(0.552, -0.169, 0.169, 0.552, 52.302, -229.723)" xlink:href="#radial-gradient"/>
    <radialGradient id="radial-gradient-17" cx="-48.195" cy="-206.019" r="35.135" gradientTransform="matrix(0.608, -0.056, 0.056, 0.608, -41.073, -162.029)" xlink:href="#radial-gradient"/>
    <radialGradient id="radial-gradient-18" cx="-41.829" cy="-193.788" r="83.995" gradientTransform="matrix(0.605, -0.056, 0.056, 0.605, -40.531, -158.613)" xlink:href="#radial-gradient"/>
    <radialGradient id="radial-gradient-19" cx="-112.664" cy="49.639" r="27.961" gradientTransform="matrix(0.752, 0.169, -0.169, 0.752, -63.173, 16.706)" xlink:href="#radial-gradient"/>
    <radialGradient id="radial-gradient-20" cx="-110.169" cy="69.802" r="66.545" gradientTransform="matrix(0.752, 0.169, -0.169, 0.752, -59.827, 21.124)" xlink:href="#radial-gradient"/>
    <radialGradient id="radial-gradient-21" cx="300.114" cy="-462.854" r="28.035" gradientTransform="matrix(0.526, -0.557, 0.557, 0.526, 439.625, -178.855)" xlink:href="#radial-gradient"/>
    <radialGradient id="radial-gradient-22" cx="316.377" cy="-465.715" r="66.676" gradientTransform="matrix(0.526, -0.557, 0.557, 0.526, 447.82, -172.703)" xlink:href="#radial-gradient"/>
    <linearGradient id="linear-gradient-10" x1="-14.27" y1="1.875" x2="-12.842" y2="2.233" gradientUnits="objectBoundingBox">
      <stop offset="0" stop-color="#2573ba"/>
      <stop offset="0.91" stop-color="#0364ae"/>
      <stop offset="1" stop-color="#0063ad"/>
    </linearGradient>
    <linearGradient id="linear-gradient-11" x1="-27.925" y1="0.5" x2="-26.926" y2="0.5" gradientUnits="objectBoundingBox">
      <stop offset="0" stop-color="#0063ad"/>
      <stop offset="1" stop-color="#2573ba"/>
    </linearGradient>
  </defs>
  <g id="Ñëîé_1" data-name="Ñëîé 1" transform="translate(0 0)">
    <path id="Path_1384" data-name="Path 1384" d="M46.064,129.273,24.32,116.713,41.6,106.74l21.744,12.549Z" transform="translate(2.645 11.787)" fill="#041860" opacity="0.6"/>
    <path id="Path_1385" data-name="Path 1385" d="M47.729,134.462,17,116.694l24.609-14.2,30.773,17.769Zm-29.3-17.769,29.3,16.913L70.85,120.281l-29.3-16.936Z" transform="translate(1.836 11.317)" fill="#fff"/>
    <path id="Path_1386" data-name="Path 1386" d="M46.064,103.123,24.32,90.574,41.6,80.59,63.344,93.15Z" transform="translate(2.645 8.896)" fill="url(#linear-gradient)"/>
    <path id="Path_1387" data-name="Path 1387" d="M61.18,105.371V91.9L43.9,101.873v13.471Z" transform="translate(4.81 10.146)" fill="url(#linear-gradient-2)"/>
    <path id="Path_1388" data-name="Path 1388" d="M24.32,89.58v13.471L46.064,115.6V102.129Z" transform="translate(2.645 9.89)" fill="url(#linear-gradient-3)"/>
    <path id="Path_1389" data-name="Path 1389" d="M37.3,86.74,27.88,92.182v2.91l2.8,1.61v-2.91L40.1,88.35Z" transform="translate(3.039 9.576)" fill="#fff"/>
    <path id="Path_1390" data-name="Path 1390" d="M42.687,89.85,33.27,95.292V98.2l2.787,1.61V96.9l9.417-5.442Z" transform="translate(3.635 9.92)" fill="#fff"/>
    <path id="Path_1391" data-name="Path 1391" d="M48.077,92.96,38.66,98.4v2.91l2.8,1.61v-2.91l9.406-5.431Z" transform="translate(4.23 10.264)" fill="#fff"/>
    <path id="Path_1392" data-name="Path 1392" d="M36.36,86.74v1.177l1.8,1.022,1-.589Z" transform="translate(3.976 9.576)" fill="#a9ebff"/>
    <path id="Path_1393" data-name="Path 1393" d="M28.9,93.72l-1.022.6,2.8,1.61v-1.21Z" transform="translate(3.039 10.348)" fill="#a9ebff"/>
    <path id="Path_1394" data-name="Path 1394" d="M37.3,86.74,27.88,92.182v2.91l1.022-.6V92.77l8.407-4.853Z" transform="translate(3.039 9.576)" fill="url(#linear-gradient-4)"/>
    <path id="Path_1395" data-name="Path 1395" d="M41.75,89.85v1.177l1.788,1.011,1-.577Z" transform="translate(4.572 9.92)" fill="#a9ebff"/>
    <path id="Path_1396" data-name="Path 1396" d="M34.281,96.83l-1.011.6,2.787,1.61v-1.21Z" transform="translate(3.635 10.691)" fill="#a9ebff"/>
    <path id="Path_1397" data-name="Path 1397" d="M42.687,89.85,33.27,95.292V98.2l1.011-.6V95.88l8.407-4.853Z" transform="translate(3.635 9.92)" fill="url(#linear-gradient-4)"/>
    <path id="Path_1398" data-name="Path 1398" d="M47.14,92.96v1.177l1.788,1.011,1-.566Z" transform="translate(5.168 10.264)" fill="#a9ebff"/>
    <path id="Path_1399" data-name="Path 1399" d="M39.671,99.94l-1.011.6,2.8,1.61v-1.21Z" transform="translate(4.23 11.035)" fill="#a9ebff"/>
    <path id="Path_1400" data-name="Path 1400" d="M48.077,92.96,38.66,98.4v2.91l1.011-.6V98.99l8.407-4.853Z" transform="translate(4.23 10.264)" fill="url(#linear-gradient-4)"/>
    <path id="Path_1401" data-name="Path 1401" d="M155.505,245.725c-25.542,0-51.007-5.553-70.43-16.814C66.2,218.006,55.79,203.491,55.79,188.033s10.395-29.984,29.285-40.879c38.869-22.422,102.014-22.422,140.849,0,18.879,10.905,29.285,25.42,29.285,40.879s-10.395,29.973-29.274,40.879h0C206.512,240.117,181,245.714,155.505,245.725Zm0-114.652c-25.376,0-50.74,5.553-70.053,16.725-18.646,10.761-28.874,25.054-28.874,40.235s10.261,29.474,28.874,40.235c38.624,22.3,101.481,22.3,140.105,0h0c18.646-10.761,28.874-25.054,28.874-40.235s-10.272-29.474-28.874-40.235C206.245,136.626,180.87,131.073,155.505,131.073Z" transform="translate(6.124 14.395)" fill="#fff"/>
    <path id="Path_1402" data-name="Path 1402" d="M203.019,215.456c-27.763,16.058-72.907,16.058-100.715,0s-27.763-42.089,0-58.148,72.907-16.058,100.715,0S230.871,199.387,203.019,215.456Z" transform="translate(8.962 16.045)" fill="#13247a" opacity="0.5"/>
    <path id="Path_1403" data-name="Path 1403" d="M194.476,42.71,121.558.576a3.1,3.1,0,0,0-3.065-.289L113.54,3.175l3.232,1.955V175.963c0,3.531,2.154,7.64,4.8,9.173l72.063,41.645-1.033,3.654,4.986-2.9h0c1.033-.577,1.688-1.943,1.688-3.9V51.883C199.273,48.34,197.119,44.231,194.476,42.71Z" transform="translate(12.507 -0.011)" fill="url(#linear-gradient-7)"/>
    <path id="Path_1404" data-name="Path 1404" d="M189.6,229.921l-72.918-42.134c-2.654-1.533-4.8-5.642-4.8-9.173V6.859c0-3.532,2.154-5.164,4.8-3.631l72.907,42.134c2.654,1.533,4.8,5.642,4.8,9.173V226.256C194.393,229.832,192.249,231.454,189.6,229.921Z" transform="translate(12.324 0.281)" fill="url(#linear-gradient-8)"/>
    <path id="Path_1405" data-name="Path 1405" d="M194.393,226.005,111.88,178.33V6.33l82.513,47.675Z" transform="translate(12.324 0.688)" fill="#0f65b2"/>
    <path id="Path_1406" data-name="Path 1406" d="M182.082,228.509l-73.64-42.545A8.884,8.884,0,0,1,104,178.191V16.475a2.932,2.932,0,0,1,4.442-2.543l73.584,42.545a8.884,8.884,0,0,1,4.442,7.774V225.966a2.932,2.932,0,0,1-4.387,2.543Z" transform="translate(11.453 1.482)" fill="#fff" opacity="0.4"/>
    <path id="Path_1407" data-name="Path 1407" d="M183.592,229.272a3.243,3.243,0,0,1-1.632-.444l-73.64-42.556a9.284,9.284,0,0,1-4.62-8.018V16.5a3.265,3.265,0,0,1,4.9-2.821l73.629,42.6a9.284,9.284,0,0,1,4.62,8.018V226a3.332,3.332,0,0,1-3.265,3.265ZM106.965,13.895a2.621,2.621,0,0,0-2.61,2.621v161.75a8.629,8.629,0,0,0,4.3,7.452l73.64,42.556a2.61,2.61,0,0,0,3.92-2.221V64.246a8.629,8.629,0,0,0-4.3-7.452L108.253,14.239a2.61,2.61,0,0,0-1.3-.355Z" transform="translate(11.42 1.452)" fill="#fff"/>
    <path id="Path_1408" data-name="Path 1408" d="M155.092,29.438l-10.905-6.252a1.61,1.61,0,0,1-.666-1.277h0c0-.489.3-.722.666-.511l10.905,6.23a1.61,1.61,0,0,1,.666,1.277h0C155.758,29.427,155.458,29.649,155.092,29.438Z" transform="translate(15.821 2.345)" fill="#0063ad"/>
    <path id="Path_1409" data-name="Path 1409" d="M163.971,126.635c1.488.866,2.7,0,2.7-2.043V64.856a6.474,6.474,0,0,0-2.7-5.164L104.213,25.21a10.184,10.184,0,0,0-.233,2.154V92.02Z" transform="translate(11.451 2.775)" fill="#041860" opacity="0.2"/>
    <path id="Path_1410" data-name="Path 1410" d="M120.036,96.61V98.1a9.717,9.717,0,0,0-4.82-.722c-6.763.5-14.637,5.841-17.58,11.938a9.817,9.817,0,0,0-1.111,4.631l-1.366-.455,1.477,2.221h0c1.222,1.9,3.709,2.965,7.152,2.71,6.763-.5,14.637-5.841,17.58-11.938,1.477-3.054,1.444-5.708.189-7.552h0Z" transform="translate(10.476 10.667)" fill="#f4a856"/>
    <path id="Path_1411" data-name="Path 1411" d="M119.928,104.414c-2.954,6.1-10.828,11.45-17.58,11.938s-9.85-4.053-6.9-10.15,10.828-11.45,17.58-11.938S122.837,98.317,119.928,104.414Z" transform="translate(10.384 10.404)" fill="#fccc6b"/>
    <path id="Path_1412" data-name="Path 1412" d="M119.928,104.414c-2.954,6.1-10.828,11.45-17.58,11.938s-9.85-4.053-6.9-10.15,10.828-11.45,17.58-11.938S122.837,98.317,119.928,104.414Z" transform="translate(10.384 10.404)" fill="url(#radial-gradient)"/>
    <path id="Path_1413" data-name="Path 1413" d="M111.733,111.221a18.424,18.424,0,0,1-8.718,3.332c-2.787.2-4.942-.589-6.064-2.221s-1.111-3.942.155-6.463c2.488-5.153,9.162-9.684,14.87-10.095,2.787-.2,4.942.589,6.064,2.221s1.111,3.942-.155,6.463a18.335,18.335,0,0,1-6.152,6.763Zm-8.34-11.938a18.068,18.068,0,0,0-6.064,6.663c-1.177,2.432-1.244,4.642-.178,6.208s3.143,2.332,5.841,2.132a19.612,19.612,0,0,0,14.659-9.995c1.177-2.432,1.244-4.642.178-6.208s-3.143-2.332-5.841-2.132A18.168,18.168,0,0,0,103.393,99.282Z" transform="translate(10.583 10.571)" fill="#f4a856"/>
    <path id="Path_1414" data-name="Path 1414" d="M117.748,104.381a19.723,19.723,0,0,1-14.759,9.995c-5.675.411-8.262-3.4-5.786-8.518a19.723,19.723,0,0,1,14.759-9.995C117.637,95.452,120.225,99.261,117.748,104.381Z" transform="translate(10.598 10.581)" fill="url(#radial-gradient-2)"/>
    <path id="Path_1415" data-name="Path 1415" d="M97.537,106.388A19.723,19.723,0,0,1,112.3,96.393c2.687-.2,4.675.555,5.775,1.943-.988-1.7-3.121-2.665-6.108-2.443A19.723,19.723,0,0,0,97.2,105.888c-1.31,2.7-1.2,5.031,0,6.585C96.338,110.941,96.371,108.809,97.537,106.388Z" transform="translate(10.597 10.584)" fill="#f4a856"/>
    <path id="Path_1416" data-name="Path 1416" d="M119.528,103.727c-2.954,6.1-10.828,11.45-17.58,11.938-3.232.233-5.63-.677-6.919-2.377,1.188,1.988,3.72,3.11,7.241,2.843,6.763-.5,14.637-5.841,17.58-11.938,1.544-3.187,1.433-5.941,0-7.774C120.972,98.175,120.939,100.784,119.528,103.727Z" transform="translate(10.461 10.646)" fill="#fce586"/>
    <path id="Path_1417" data-name="Path 1417" d="M117.154,111.633a18.88,18.88,0,0,0,3.6-4.942c1.477-3.054,1.444-5.708.189-7.552L119.4,96.918l-.067-.089-.1-.144h0c-1.288-1.721-3.676-2.665-6.941-2.421a22.411,22.411,0,0,0-11.45,4.764l12.216,12.6Z" transform="translate(11.103 10.403)" fill="#f4a856"/>
    <path id="Path_1418" data-name="Path 1418" d="M159.931,65.714,73.254,15.662a1.721,1.721,0,0,0-1.766-.144h0l-1.288.755.6.089a3.443,3.443,0,0,0-.244,1.355V77.441a6.474,6.474,0,0,0,2.7,5.164l86.677,50.074a2.642,2.642,0,0,0,.478.211v.677l1.3-.755h0a2.388,2.388,0,0,0,.933-2.221V70.878a6.474,6.474,0,0,0-2.71-5.164Z" transform="translate(7.717 1.684)" fill="#fff"/>
    <path id="Path_1419" data-name="Path 1419" d="M158.777,133.317,72.089,83.266a6.474,6.474,0,0,1-2.7-5.164V18.366c0-1.988,1.21-2.91,2.7-2.043l86.688,50.052a6.474,6.474,0,0,1,2.7,5.153v59.747C161.476,133.262,160.265,134.173,158.777,133.317Z" transform="translate(7.627 1.756)" fill="url(#linear-gradient-9)"/>
    <path id="Path_1420" data-name="Path 1420" d="M126.61,65V56.48l1.81,1.044a6.041,6.041,0,0,1,.888.622,4.131,4.131,0,0,1,.677.744,3.087,3.087,0,0,1,.444.933,3.954,3.954,0,0,1,.144,1.111q0,1.577-1.111,1.111a3.331,3.331,0,0,1,.977,1.222,3.921,3.921,0,0,1,.333,1.644q0,1.21-.522,1.544t-1.544-.267Zm1.344-4.276.422.244q.589.344.811.178t.222-.855a2.376,2.376,0,0,0-.078-.622,1.3,1.3,0,0,0-.244-.478,2.221,2.221,0,0,0-.389-.366,5.761,5.761,0,0,0-.566-.366l-.189-.111Zm0,3.954.489.289q.6.344.833.155c.155-.122.233-.444.233-.933a2.709,2.709,0,0,0-.267-1.266,2.221,2.221,0,0,0-.877-.855l-.422-.244Z" transform="translate(13.952 6.231)" fill="#fff"/>
    <path id="Path_1421" data-name="Path 1421" d="M130.82,67.343l1.5-7.663,1.4.811,1.5,9.4-1.255-.722-.3-2.154-1.277-.733-.255,1.8Zm1.71-2,.988.566-.489-3.787Z" transform="translate(14.417 6.585)" fill="#fff"/>
    <path id="Path_1422" data-name="Path 1422" d="M135.43,70.1V61.57l.922.533,1.81,5.875v-4.82l1.111.644v8.529l-.877-.511-1.821-6.13v5.075Z" transform="translate(14.927 6.794)" fill="#fff"/>
    <path id="Path_1423" data-name="Path 1423" d="M139.89,72.669V64.14l1.344.777v3.7l1.455-2.865,1.288.744-1.421,3.043,1.566,5.553-1.344-.777L141.5,69.537l-.267.4v3.454Z" transform="translate(15.42 7.078)" fill="#fff"/>
    <path id="Path_1424" data-name="Path 1424" d="M92.578,77.614,76.12,68.108V65.92l16.458,9.5Z" transform="translate(8.371 7.275)" fill="#fff"/>
    <path id="Path_1425" data-name="Path 1425" d="M110.788,88.135,94.33,78.629v-2.2l16.458,9.506Z" transform="translate(10.384 8.436)" fill="#fff"/>
    <path id="Path_1426" data-name="Path 1426" d="M129,98.644l-16.447-9.5v-2.2L129,96.445Z" transform="translate(12.398 9.599)" fill="#fff"/>
    <path id="Path_1427" data-name="Path 1427" d="M147.218,109.165,130.76,99.659v-2.2l16.458,9.506Z" transform="translate(14.411 10.761)" fill="#fff"/>
    <path id="Path_1428" data-name="Path 1428" d="M158.777,66.375,72.089,16.323c-1.488-.866-2.7,0-2.7,2.043V78.1a5.708,5.708,0,0,0,.122,1.111c4.609-3.332,23.321-13.648,59.192,6.119,13.038,7.2,23.943,6.241,32.783,1.533V71.528A6.474,6.474,0,0,0,158.777,66.375Z" transform="translate(7.627 1.756)" fill="#fff" opacity="0.2"/>
    <path id="Path_1430" data-name="Path 1430" d="M122.454,189.247l-.833,1.233a9.717,9.717,0,0,0-3.565-3.332c-5.853-3.42-15.37-3.454-21.256-.1a9.806,9.806,0,0,0-3.543,3.2l-.877-1.111v2.576h0c-.067,2.221,1.388,4.542,4.364,6.286,5.853,3.42,15.37,3.454,21.256.1,2.943-1.677,4.442-3.9,4.442-6.119h0Z" transform="translate(10.168 20.388)" fill="#f4a856"/>
    <path id="Path_1431" data-name="Path 1431" d="M118.022,195.771c-5.886,3.332-15.4,3.332-21.256-.1s-5.83-8.884,0-12.271,15.4-3.332,21.256.1S123.908,192.406,118.022,195.771Z" transform="translate(10.169 19.983)" fill="#fccc6b"/>
    <path id="Path_1432" data-name="Path 1432" d="M118.022,195.771c-5.886,3.332-15.4,3.332-21.256-.1s-5.83-8.884,0-12.271,15.4-3.332,21.256.1S123.908,192.406,118.022,195.771Z" transform="translate(10.169 19.983)" fill="url(#radial-gradient-3)"/>
    <path id="Path_1433" data-name="Path 1433" d="M107.274,196.867a18.424,18.424,0,0,1-9.073-2.221c-2.421-1.41-3.743-3.332-3.731-5.275s1.355-3.854,3.787-5.242c4.964-2.843,13.027-2.8,17.968.078,2.421,1.41,3.743,3.332,3.731,5.275s-1.355,3.854-3.787,5.242a18.335,18.335,0,0,1-8.9,2.143Zm-.133-14.559a18.068,18.068,0,0,0-8.773,2.077c-2.343,1.344-3.643,3.121-3.654,5.02s1.277,3.7,3.609,5.053a19.612,19.612,0,0,0,17.769.078c2.343-1.344,3.643-3.121,3.654-5.02s-1.277-3.7-3.609-5.053a18.168,18.168,0,0,0-9.006-2.154Z" transform="translate(10.399 20.108)" fill="#f4a856"/>
    <path id="Path_1434" data-name="Path 1434" d="M116.083,194.642a19.723,19.723,0,0,1-17.846-.078c-4.92-2.865-4.9-7.485,0-10.306a19.723,19.723,0,0,1,17.846.078C121.047,187.2,121.025,191.821,116.083,194.642Z" transform="translate(10.409 20.124)" fill="url(#radial-gradient-4)"/>
    <path id="Path_1435" data-name="Path 1435" d="M98.28,184.862a19.723,19.723,0,0,1,17.846.078c2.321,1.355,3.543,3.1,3.665,4.864.144-1.966-1.111-3.953-3.654-5.475a19.723,19.723,0,0,0-17.857-.122c-2.6,1.488-3.842,3.476-3.709,5.442C94.715,187.938,95.948,186.195,98.28,184.862Z" transform="translate(10.409 20.12)" fill="#f4a856"/>
    <path id="Path_1436" data-name="Path 1436" d="M118.031,194.375c-5.886,3.332-15.4,3.332-21.256-.1-2.8-1.632-4.253-3.743-4.364-5.875-.144,2.31,1.31,4.664,4.364,6.441,5.853,3.42,15.37,3.454,21.256.1,3.065-1.755,4.542-4.087,4.442-6.408C122.318,190.665,120.83,192.764,118.031,194.375Z" transform="translate(10.171 20.813)" fill="#fce586"/>
    <path id="Path_1437" data-name="Path 1437" d="M124.784,185.937l-.833,1.233a9.717,9.717,0,0,0-3.565-3.332c-5.853-3.42-15.37-3.454-21.256-.1a9.806,9.806,0,0,0-3.543,3.2l-.877-1.111v2.621h0c-.067,2.221,1.388,4.542,4.364,6.286,5.853,3.42,15.37,3.454,21.256.1,2.943-1.677,4.442-3.9,4.442-6.119h0Z" transform="translate(10.426 20.023)" fill="#f4a856"/>
    <path id="Path_1438" data-name="Path 1438" d="M120.352,192.481c-5.886,3.332-15.4,3.332-21.256-.1s-5.83-8.884,0-12.271,15.4-3.332,21.256.1S126.238,189.094,120.352,192.481Z" transform="translate(10.426 19.62)" fill="#fccc6b"/>
    <path id="Path_1439" data-name="Path 1439" d="M120.352,192.481c-5.886,3.332-15.4,3.332-21.256-.1s-5.83-8.884,0-12.271,15.4-3.332,21.256.1S126.238,189.094,120.352,192.481Z" transform="translate(10.426 19.62)" fill="url(#radial-gradient-5)"/>
    <path id="Path_1440" data-name="Path 1440" d="M109.584,193.557a18.424,18.424,0,0,1-9.073-2.221c-2.421-1.41-3.743-3.332-3.731-5.275s1.355-3.854,3.787-5.242c4.964-2.843,13.027-2.8,17.968.078,2.421,1.41,3.743,3.332,3.731,5.275s-1.355,3.854-3.787,5.242A18.335,18.335,0,0,1,109.584,193.557Zm-.133-14.526a18.068,18.068,0,0,0-8.773,2.077c-2.343,1.255-3.654,3.087-3.654,4.986s1.277,3.7,3.609,5.053a19.612,19.612,0,0,0,17.769.078c2.343-1.344,3.643-3.121,3.654-5.02s-1.277-3.7-3.609-5.053a18.168,18.168,0,0,0-9-2.121Z" transform="translate(10.655 19.742)" fill="#f4a856"/>
    <path id="Path_1441" data-name="Path 1441" d="M118.4,191.323a19.723,19.723,0,0,1-17.835-.089c-4.92-2.865-4.9-7.485,0-10.306a19.723,19.723,0,0,1,17.846.078C123.366,183.894,123.344,188.5,118.4,191.323Z" transform="translate(10.666 19.756)" fill="url(#radial-gradient-6)"/>
    <path id="Path_1442" data-name="Path 1442" d="M100.6,181.549a19.723,19.723,0,0,1,17.846.078c2.321,1.355,3.543,3.1,3.665,4.864.144-1.966-1.111-3.954-3.654-5.475a19.723,19.723,0,0,0-17.846-.078c-2.6,1.488-3.842,3.476-3.709,5.442C97.012,184.57,98.267,182.882,100.6,181.549Z" transform="translate(10.667 19.757)" fill="#f4a856"/>
    <path id="Path_1443" data-name="Path 1443" d="M120.351,191.055c-5.886,3.332-15.4,3.332-21.256-.1-2.8-1.632-4.253-3.742-4.364-5.875-.144,2.31,1.31,4.664,4.364,6.441,5.853,3.42,15.37,3.454,21.256.1,3.065-1.755,4.542-4.087,4.442-6.408C124.638,187.345,123.161,189.433,120.351,191.055Z" transform="translate(10.427 20.446)" fill="#fce586"/>
    <path id="Path_1444" data-name="Path 1444" d="M142.614,202.417l-.833,1.233a9.718,9.718,0,0,0-3.565-3.332c-5.853-3.42-15.37-3.454-21.256-.1a9.806,9.806,0,0,0-3.543,3.2l-.877-1.111v2.621h0c-.067,2.221,1.388,4.542,4.364,6.286,5.853,3.42,15.37,3.454,21.256.1,2.943-1.677,4.442-3.9,4.442-6.119h0Z" transform="translate(12.397 21.844)" fill="#f4a856"/>
    <path id="Path_1445" data-name="Path 1445" d="M138.182,208.941c-5.886,3.332-15.4,3.332-21.256-.1s-5.83-8.884,0-12.271,15.4-3.332,21.256.1S144.068,205.576,138.182,208.941Z" transform="translate(12.397 21.439)" fill="#fccc6b"/>
    <path id="Path_1446" data-name="Path 1446" d="M138.182,208.941c-5.886,3.332-15.4,3.332-21.256-.1s-5.83-8.884,0-12.271,15.4-3.332,21.256.1S144.068,205.576,138.182,208.941Z" transform="translate(12.397 21.439)" fill="url(#radial-gradient-7)"/>
    <path id="Path_1447" data-name="Path 1447" d="M127.424,210.037a18.424,18.424,0,0,1-9.073-2.221c-2.421-1.41-3.743-3.332-3.731-5.275s1.355-3.854,3.787-5.242c4.964-2.843,13.027-2.8,17.968.078,2.421,1.41,3.742,3.332,3.731,5.275s-1.355,3.854-3.787,5.242A18.335,18.335,0,0,1,127.424,210.037Zm-.167-14.57a18.057,18.057,0,0,0-8.773,2.077c-2.343,1.344-3.643,3.121-3.654,5.02s1.277,3.7,3.609,5.053a19.612,19.612,0,0,0,17.769.078c2.343-1.344,3.643-3.121,3.654-5.02s-1.277-3.7-3.609-5.053A18.168,18.168,0,0,0,127.258,195.467Z" transform="translate(12.627 21.564)" fill="#f4a856"/>
    <path id="Path_1448" data-name="Path 1448" d="M136.243,207.8a19.723,19.723,0,0,1-17.846-.078c-4.92-2.865-4.9-7.485,0-10.306a19.723,19.723,0,0,1,17.846.078C141.207,200.373,141.185,204.959,136.243,207.8Z" transform="translate(12.637 21.578)" fill="url(#radial-gradient-8)"/>
    <path id="Path_1449" data-name="Path 1449" d="M118.439,198.029a19.723,19.723,0,0,1,17.846.078c2.321,1.355,3.543,3.1,3.665,4.864.144-1.966-1.111-3.954-3.654-5.475a19.723,19.723,0,0,0-17.846-.078c-2.6,1.488-3.842,3.476-3.709,5.442C114.863,201.094,116.14,199.406,118.439,198.029Z" transform="translate(12.639 21.578)" fill="#f4a856"/>
    <path id="Path_1450" data-name="Path 1450" d="M138.181,207.535c-5.886,3.332-15.4,3.332-21.256-.1-2.8-1.632-4.253-3.743-4.364-5.875-.144,2.31,1.31,4.664,4.364,6.441,5.853,3.42,15.37,3.454,21.256.1,3.065-1.755,4.542-4.087,4.442-6.408C142.468,203.826,141,205.924,138.181,207.535Z" transform="translate(12.398 22.268)" fill="#fce586"/>
    <path id="Path_1451" data-name="Path 1451" d="M115.554,207.107l-.833,1.233a9.717,9.717,0,0,0-3.565-3.332c-5.853-3.42-15.37-3.454-21.256-.1a9.806,9.806,0,0,0-3.543,3.2L85.48,207v2.621h0c-.067,2.221,1.388,4.542,4.364,6.286,5.853,3.42,15.37,3.454,21.256.1,2.943-1.677,4.442-3.9,4.442-6.119h0Z" transform="translate(9.405 22.363)" fill="#f4a856"/>
    <path id="Path_1452" data-name="Path 1452" d="M111.122,213.631c-5.886,3.332-15.4,3.332-21.256-.1s-5.83-8.884,0-12.271,15.4-3.332,21.256.1S117.008,210.266,111.122,213.631Z" transform="translate(9.406 21.957)" fill="#fccc6b"/>
    <path id="Path_1453" data-name="Path 1453" d="M111.122,213.631c-5.886,3.332-15.4,3.332-21.256-.1s-5.83-8.884,0-12.271,15.4-3.332,21.256.1S117.008,210.266,111.122,213.631Z" transform="translate(9.406 21.957)" fill="url(#radial-gradient-9)"/>
    <path id="Path_1454" data-name="Path 1454" d="M100.354,214.727a18.424,18.424,0,0,1-9.073-2.221c-2.421-1.41-3.743-3.332-3.731-5.275s1.355-3.854,3.787-5.242c4.964-2.843,13.027-2.8,17.968.078,2.421,1.41,3.743,3.332,3.731,5.275s-1.355,3.854-3.787,5.242A18.335,18.335,0,0,1,100.354,214.727Zm-.089-14.559a18.068,18.068,0,0,0-8.773,2.077c-2.343,1.344-3.643,3.121-3.654,5.02s1.277,3.7,3.609,5.053a19.612,19.612,0,0,0,17.769.078c2.343-1.344,3.643-3.121,3.654-5.02s-1.277-3.7-3.609-5.053a18.169,18.169,0,0,0-9-2.154Z" transform="translate(9.634 22.082)" fill="#f4a856"/>
    <path id="Path_1455" data-name="Path 1455" d="M109.135,212.5a19.723,19.723,0,0,1-17.769-.089c-4.92-2.865-4.9-7.485,0-10.306a19.723,19.723,0,0,1,17.846.078C114.132,205.063,114.11,209.671,109.135,212.5Z" transform="translate(9.649 22.097)" fill="url(#radial-gradient-10)"/>
    <path id="Path_1456" data-name="Path 1456" d="M91.37,202.719a19.723,19.723,0,0,1,17.846.078c2.321,1.355,3.543,3.1,3.665,4.864.144-1.966-1.111-3.954-3.654-5.475a19.723,19.723,0,0,0-17.857-.067c-2.6,1.488-3.842,3.476-3.709,5.442C87.805,205.8,89.038,204.052,91.37,202.719Z" transform="translate(9.646 22.097)" fill="#f4a856"/>
    <path id="Path_1457" data-name="Path 1457" d="M111.121,212.225c-5.886,3.332-15.4,3.332-21.256-.1-2.8-1.632-4.253-3.742-4.364-5.875-.144,2.31,1.31,4.664,4.364,6.441,5.853,3.42,15.37,3.454,21.256.1,3.065-1.755,4.542-4.087,4.442-6.408C115.408,208.527,113.931,210.626,111.121,212.225Z" transform="translate(9.407 22.786)" fill="#fce586"/>
    <path id="Path_1458" data-name="Path 1458" d="M128.354,202.137l-.833,1.233a9.717,9.717,0,0,0-3.565-3.332c-5.853-3.42-15.37-3.454-21.256-.1a9.806,9.806,0,0,0-3.543,3.2l-.877-1.111v2.621h0c-.067,2.221,1.388,4.542,4.364,6.286,5.853,3.42,15.37,3.454,21.256.1,2.943-1.677,4.442-3.9,4.442-6.119h0Z" transform="translate(10.82 21.813)" fill="#f4a856"/>
    <path id="Path_1459" data-name="Path 1459" d="M123.922,208.651c-5.886,3.332-15.4,3.332-21.256-.1s-5.83-8.884,0-12.271,15.4-3.332,21.256.1S129.808,205.3,123.922,208.651Z" transform="translate(10.821 21.407)" fill="#fccc6b"/>
    <path id="Path_1460" data-name="Path 1460" d="M123.922,208.651c-5.886,3.332-15.4,3.332-21.256-.1s-5.83-8.884,0-12.271,15.4-3.332,21.256.1S129.808,205.3,123.922,208.651Z" transform="translate(10.821 21.407)" fill="url(#radial-gradient-11)"/>
    <path id="Path_1461" data-name="Path 1461" d="M113.164,209.757a18.424,18.424,0,0,1-9.073-2.221c-2.421-1.41-3.743-3.332-3.731-5.275s1.355-3.854,3.787-5.242c4.964-2.843,13.027-2.8,17.968.078,2.421,1.41,3.743,3.332,3.731,5.275s-1.355,3.854-3.787,5.242a18.335,18.335,0,0,1-8.9,2.143Zm-.133-14.559a18.068,18.068,0,0,0-8.773,2.077c-2.343,1.344-3.643,3.121-3.654,5.02s1.277,3.7,3.609,5.053a19.612,19.612,0,0,0,17.769.078c2.343-1.344,3.643-3.121,3.654-5.02s-1.277-3.7-3.609-5.053a18.168,18.168,0,0,0-9-2.166Z" transform="translate(11.05 21.533)" fill="#f4a856"/>
    <path id="Path_1462" data-name="Path 1462" d="M121.983,207.522a19.723,19.723,0,0,1-17.846-.078c-4.92-2.865-4.9-7.485,0-10.306a19.723,19.723,0,0,1,17.846.078C126.947,200.081,126.925,204.7,121.983,207.522Z" transform="translate(11.061 21.547)" fill="url(#radial-gradient-12)"/>
    <path id="Path_1463" data-name="Path 1463" d="M104.179,197.739a19.723,19.723,0,0,1,17.846.078c2.321,1.355,3.543,3.1,3.665,4.864.144-1.966-1.111-3.954-3.654-5.475a19.723,19.723,0,0,0-17.846-.078c-2.6,1.488-3.842,3.476-3.709,5.442C100.6,200.816,101.847,199.083,104.179,197.739Z" transform="translate(11.063 21.546)" fill="#f4a856"/>
    <path id="Path_1464" data-name="Path 1464" d="M123.921,207.255c-5.886,3.332-15.4,3.332-21.256-.1-2.8-1.632-4.253-3.742-4.364-5.875-.144,2.31,1.31,4.664,4.364,6.441,5.853,3.42,15.37,3.454,21.256.1,3.065-1.755,4.542-4.087,4.442-6.408C128.208,203.546,126.742,205.644,123.921,207.255Z" transform="translate(10.822 22.237)" fill="#fce586"/>
    <path id="Path_1465" data-name="Path 1465" d="M131.854,199.467l-.833,1.233a9.717,9.717,0,0,0-3.565-3.332c-5.853-3.42-15.37-3.454-21.256-.1a9.806,9.806,0,0,0-3.543,3.2l-.877-1.111v2.621h0c-.067,2.221,1.388,4.542,4.364,6.286,5.853,3.42,15.37,3.454,21.256.1,2.943-1.677,4.442-3.9,4.442-6.119h0Z" transform="translate(11.207 21.518)" fill="#f4a856"/>
    <path id="Path_1466" data-name="Path 1466" d="M127.422,205.951c-5.886,3.332-15.4,3.332-21.256-.1s-5.83-8.884,0-12.271,15.4-3.332,21.256.1S133.308,202.586,127.422,205.951Z" transform="translate(11.208 21.108)" fill="#fccc6b"/>
    <path id="Path_1467" data-name="Path 1467" d="M127.422,205.951c-5.886,3.332-15.4,3.332-21.256-.1s-5.83-8.884,0-12.271,15.4-3.332,21.256.1S133.308,202.586,127.422,205.951Z" transform="translate(11.208 21.108)" fill="url(#radial-gradient-13)"/>
    <path id="Path_1468" data-name="Path 1468" d="M116.664,207.047a18.424,18.424,0,0,1-9.073-2.221c-2.421-1.41-3.743-3.332-3.731-5.275s1.355-3.854,3.787-5.242c4.964-2.843,13.027-2.8,17.968.078,2.421,1.41,3.743,3.332,3.731,5.275s-1.355,3.854-3.787,5.242a18.335,18.335,0,0,1-8.9,2.143Zm-.133-14.559a18.068,18.068,0,0,0-8.773,2.077c-2.343,1.344-3.643,3.121-3.654,5.02s1.277,3.7,3.609,5.053a19.612,19.612,0,0,0,17.769.078c2.343-1.344,3.643-3.121,3.654-5.02s-1.277-3.7-3.609-5.053a18.169,18.169,0,0,0-9-2.154Z" transform="translate(11.437 21.234)" fill="#f4a856"/>
    <path id="Path_1469" data-name="Path 1469" d="M125.483,204.812a19.723,19.723,0,0,1-17.846-.078c-4.92-2.865-4.9-7.485,0-10.306a19.723,19.723,0,0,1,17.846.078C130.447,197.383,130.425,201.958,125.483,204.812Z" transform="translate(11.448 21.248)" fill="url(#radial-gradient-14)"/>
    <path id="Path_1470" data-name="Path 1470" d="M107.679,195.039a19.723,19.723,0,0,1,17.846.078c2.321,1.355,3.543,3.1,3.665,4.864.144-1.966-1.111-3.954-3.654-5.475a19.723,19.723,0,0,0-17.846-.078c-2.6,1.488-3.842,3.476-3.709,5.442C104.1,198.1,105.347,196.405,107.679,195.039Z" transform="translate(11.45 21.248)" fill="#f4a856"/>
    <path id="Path_1471" data-name="Path 1471" d="M127.421,204.595c-5.886,3.332-15.4,3.332-21.256-.1-2.8-1.632-4.253-3.743-4.364-5.875-.144,2.31,1.31,4.664,4.364,6.441,5.853,3.42,15.37,3.454,21.256.1,3.065-1.755,4.542-4.087,4.442-6.408C131.708,200.841,130.242,202.929,127.421,204.595Z" transform="translate(11.209 21.943)" fill="#fce586"/>
    <path id="Path_1472" data-name="Path 1472" d="M133.7,194.227l-.833,1.233a9.717,9.717,0,0,0-3.565-3.332c-5.853-3.42-15.37-3.454-21.256-.1a9.817,9.817,0,0,0-3.543,3.2l-.877-1.111v2.6h0c-.067,2.221,1.388,4.542,4.364,6.286,5.853,3.42,15.37,3.454,21.256.1,2.943-1.677,4.442-3.9,4.442-6.119h0Z" transform="translate(11.412 20.939)" fill="#f4a856"/>
    <path id="Path_1473" data-name="Path 1473" d="M129.282,200.751c-5.886,3.332-15.4,3.332-21.256-.1s-5.83-8.884,0-12.271,15.4-3.332,21.256.1S135.134,197.386,129.282,200.751Z" transform="translate(11.414 20.534)" fill="#fccc6b"/>
    <path id="Path_1474" data-name="Path 1474" d="M129.282,200.751c-5.886,3.332-15.4,3.332-21.256-.1s-5.83-8.884,0-12.271,15.4-3.332,21.256.1S135.134,197.386,129.282,200.751Z" transform="translate(11.414 20.534)" fill="url(#radial-gradient-15)"/>
    <path id="Path_1475" data-name="Path 1475" d="M118.514,201.847a18.424,18.424,0,0,1-9.073-2.221c-2.421-1.41-3.743-3.332-3.731-5.275s1.355-3.854,3.787-5.242c4.964-2.843,13.027-2.8,17.968.078,2.421,1.41,3.743,3.332,3.731,5.275s-1.355,3.854-3.787,5.242A18.335,18.335,0,0,1,118.514,201.847Zm-.133-14.559a18.068,18.068,0,0,0-8.773,2.077c-2.343,1.344-3.643,3.121-3.654,5.02s1.277,3.7,3.609,5.053a19.612,19.612,0,0,0,17.769.078c2.343-1.344,3.643-3.121,3.654-5.02s-1.277-3.7-3.609-5.053a18.168,18.168,0,0,0-9-2.166Z" transform="translate(11.642 20.659)" fill="#f4a856"/>
    <path id="Path_1476" data-name="Path 1476" d="M127.333,199.612a19.723,19.723,0,0,1-17.846-.078c-4.92-2.865-4.9-7.485,0-10.306a19.723,19.723,0,0,1,17.846.078C132.3,192.183,132.275,196.791,127.333,199.612Z" transform="translate(11.652 20.673)" fill="url(#radial-gradient-16)"/>
    <path id="Path_1477" data-name="Path 1477" d="M109.529,189.839a19.723,19.723,0,0,1,17.846.078c2.321,1.355,3.543,3.1,3.665,4.864.144-1.966-1.111-3.954-3.654-5.475a19.723,19.723,0,0,0-17.846-.078c-2.6,1.488-3.842,3.476-3.709,5.442C105.964,192.9,107.2,191.172,109.529,189.839Z" transform="translate(11.654 20.673)" fill="#f4a856"/>
    <path id="Path_1478" data-name="Path 1478" d="M129.281,199.345c-5.886,3.332-15.4,3.332-21.256-.1-2.8-1.632-4.253-3.743-4.364-5.875-.144,2.31,1.31,4.664,4.364,6.441,5.853,3.42,15.37,3.454,21.256.1,3.065-1.755,4.542-4.087,4.442-6.408C133.568,195.635,132.091,197.734,129.281,199.345Z" transform="translate(11.414 21.362)" fill="#fce586"/>
    <path id="Path_1479" data-name="Path 1479" d="M143.07,196.728l-1.111,1.033a9.717,9.717,0,0,0-2.81-3.976c-5.031-4.542-14.337-6.53-20.789-4.442a9.806,9.806,0,0,0-4.12,2.4l-.622-1.3-.544,2.565h0c-.533,2.221.422,4.731,2.987,7.041,5.031,4.542,14.337,6.53,20.789,4.442,3.221-1.044,5.12-2.91,5.553-5.075h0Z" transform="translate(12.44 20.826)" fill="#f4a856"/>
    <path id="Path_1480" data-name="Path 1480" d="M137.381,202.21c-6.452,2.088-15.758.1-20.789-4.442s-3.887-9.917,2.565-12,15.759-.1,20.789,4.442S143.867,200.122,137.381,202.21Z" transform="translate(12.498 20.43)" fill="#fccc6b"/>
    <path id="Path_1481" data-name="Path 1481" d="M137.381,202.21c-6.452,2.088-15.758.1-20.789-4.442s-3.887-9.917,2.565-12,15.759-.1,20.789,4.442S143.867,200.122,137.381,202.21Z" transform="translate(12.498 20.43)" fill="url(#radial-gradient-17)"/>
    <path id="Path_1482" data-name="Path 1482" d="M126.626,201.112a18.424,18.424,0,0,1-8.44-4c-2.077-1.877-2.987-3.987-2.576-5.93s2.11-3.5,4.775-4.364c5.442-1.766,13.326-.078,17.58,3.754,2.077,1.877,3,3.987,2.576,5.93s-2.11,3.5-4.775,4.364A18.335,18.335,0,0,1,126.626,201.112Zm2.854-14.281a18.068,18.068,0,0,0-8.984.267c-2.576.833-4.209,2.31-4.609,4.165s.489,3.876,2.5,5.686a19.612,19.612,0,0,0,17.324,3.709c2.576-.833,4.209-2.31,4.609-4.176s-.489-3.876-2.5-5.686a18.168,18.168,0,0,0-8.34-3.965Z" transform="translate(12.725 20.561)" fill="#f4a856"/>
    <path id="Path_1483" data-name="Path 1483" d="M135.72,200.739a19.723,19.723,0,0,1-17.458-3.731c-4.22-3.809-3.265-8.318,2.154-10.073a19.723,19.723,0,0,1,17.447,3.731C142.094,194.476,141.128,198.985,135.72,200.739Z" transform="translate(12.738 20.579)" fill="url(#radial-gradient-18)"/>
    <path id="Path_1484" data-name="Path 1484" d="M120.29,187.521a19.723,19.723,0,0,1,17.447,3.731c2,1.8,2.832,3.765,2.588,5.553.544-1.888-.233-4.1-2.465-6.108a19.723,19.723,0,0,0-17.447-3.731c-2.854.922-4.442,2.61-4.742,4.564C116.17,189.8,117.724,188.342,120.29,187.521Z" transform="translate(12.743 20.582)" fill="#f4a856"/>
    <path id="Path_1485" data-name="Path 1485" d="M137.533,201.105c-6.452,2.088-15.759.1-20.789-4.442-2.41-2.221-3.4-4.531-3.076-6.663-.611,2.221.322,4.831,2.954,7.2,5.031,4.542,14.337,6.53,20.789,4.442,3.332-1.111,5.275-3.076,5.63-5.364C142.486,198.329,140.621,200.084,137.533,201.105Z" transform="translate(12.501 20.99)" fill="#fce586"/>
    <path id="Path_1486" data-name="Path 1486" d="M122.233,140.484l-1.322.666a9.717,9.717,0,0,0-1.466-4.642c-3.409-5.853-11.672-10.583-18.457-10.55A9.806,9.806,0,0,0,96.335,127l-.2-1.433-1.3,2.277h0c-1.177,1.932-1.033,4.631.711,7.618,3.409,5.853,11.672,10.583,18.457,10.55,3.387,0,5.764-1.21,6.863-3.143h0Z" transform="translate(10.355 13.868)" fill="#f4a856"/>
    <path id="Path_1487" data-name="Path 1487" d="M115.234,143.89c-6.774,0-15.037-4.7-18.457-10.55s-.689-10.628,6.086-10.65,15.037,4.7,18.457,10.55S122.008,143.857,115.234,143.89Z" transform="translate(10.491 13.55)" fill="#fccc6b"/>
    <path id="Path_1488" data-name="Path 1488" d="M115.234,143.89c-6.774,0-15.037-4.7-18.457-10.55s-.689-10.628,6.086-10.65,15.037,4.7,18.457,10.55S122.008,143.857,115.234,143.89Z" transform="translate(10.491 13.55)" fill="url(#radial-gradient-19)"/>
    <path id="Path_1489" data-name="Path 1489" d="M105.254,139.613a18.424,18.424,0,0,1-6.819-6.374c-1.41-2.421-1.644-4.709-.655-6.43s3.076-2.687,5.875-2.7c5.719,0,12.716,3.976,15.548,8.884,1.41,2.421,1.644,4.7.655,6.43s-3.076,2.688-5.875,2.7a18.335,18.335,0,0,1-8.729-2.51Zm7.052-12.738a18.057,18.057,0,0,0-8.651-2.51c-2.7,0-4.709.922-5.653,2.576s-.711,3.842.655,6.175a19.612,19.612,0,0,0,15.381,8.8c2.71,0,4.709-.922,5.653-2.576s.711-3.842-.655-6.175a18.169,18.169,0,0,0-6.73-6.286Z" transform="translate(10.699 13.707)" fill="#f4a856"/>
    <path id="Path_1490" data-name="Path 1490" d="M114.03,142.024a19.723,19.723,0,0,1-15.547-8.884c-2.865-4.92-.577-8.884,5.108-8.94a19.723,19.723,0,0,1,15.548,8.884C122,137.993,119.716,142,114.03,142.024Z" transform="translate(10.706 13.717)" fill="url(#radial-gradient-20)"/>
    <path id="Path_1491" data-name="Path 1491" d="M103.3,124.742a19.723,19.723,0,0,1,15.547,8.884c1.355,2.321,1.555,4.442.788,6.041,1.111-1.632,1.022-3.976-.489-6.563A19.723,19.723,0,0,0,103.6,124.22c-3,0-5.053,1.111-5.908,2.91C98.678,125.653,100.611,124.753,103.3,124.742Z" transform="translate(10.755 13.719)" fill="#f4a856"/>
    <path id="Path_1492" data-name="Path 1492" d="M115.511,143.1c-6.774,0-15.037-4.7-18.457-10.55-1.632-2.8-1.855-5.353-.911-7.263-1.266,1.943-1.111,4.7.622,7.774,3.409,5.853,11.672,10.583,18.457,10.55,3.532,0,5.964-1.322,7-3.4C121.074,141.992,118.753,143.092,115.511,143.1Z" transform="translate(10.492 13.837)" fill="#fce586"/>
    <path id="Path_1493" data-name="Path 1493" d="M119.428,162.63l-.111,1.477A9.717,9.717,0,0,0,114.586,163c-6.774-.089-15.081,4.575-18.535,10.395a9.806,9.806,0,0,0-1.5,4.52l-1.322-.566,1.288,2.288h0c1.111,2,3.443,3.265,6.9,3.332,6.774.089,15.081-4.575,18.535-10.395,1.732-2.91,1.921-5.553.833-7.507h0Z" transform="translate(10.262 17.965)" fill="#f4a856"/>
    <path id="Path_1494" data-name="Path 1494" d="M118.653,170.456c-3.465,5.83-11.761,10.483-18.535,10.395s-9.462-4.875-6.008-10.706,11.761-10.483,18.535-10.395S122.118,164.625,118.653,170.456Z" transform="translate(10.193 17.646)" fill="#fccc6b"/>
    <path id="Path_1495" data-name="Path 1495" d="M118.653,170.456c-3.465,5.83-11.761,10.483-18.535,10.395s-9.462-4.875-6.008-10.706,11.761-10.483,18.535-10.395S122.118,164.625,118.653,170.456Z" transform="translate(10.193 17.646)" fill="url(#radial-gradient-21)"/>
    <path id="Path_1496" data-name="Path 1496" d="M109.884,176.533a18.424,18.424,0,0,1-8.973,2.576c-2.8,0-4.875-1.011-5.853-2.754s-.722-4.02.711-6.43c2.921-4.92,9.995-8.884,15.681-8.8,2.8,0,4.875,1.011,5.853,2.754s.722,4.02-.711,6.43a18.335,18.335,0,0,1-6.708,6.219Zm-7.3-12.6a18.068,18.068,0,0,0-6.608,6.13c-1.377,2.321-1.632,4.52-.7,6.175s2.932,2.588,5.63,2.621a19.612,19.612,0,0,0,15.459-8.662c1.377-2.321,1.632-4.52.7-6.175s-2.932-2.588-5.63-2.621a18.168,18.168,0,0,0-8.851,2.554Z" transform="translate(10.4 17.799)" fill="#f4a856"/>
    <path id="Path_1497" data-name="Path 1497" d="M116.466,170.254a19.723,19.723,0,0,1-15.548,8.729c-5.686-.067-7.951-4.1-5.042-8.984a19.723,19.723,0,0,1,15.547-8.729C117.121,161.348,119.375,165.412,116.466,170.254Z" transform="translate(10.415 17.814)" fill="url(#radial-gradient-22)"/>
    <path id="Path_1498" data-name="Path 1498" d="M96.158,170.531a19.723,19.723,0,0,1,15.547-8.729c2.688,0,4.609.955,5.553,2.432-.833-1.777-2.876-2.921-5.875-2.954a19.723,19.723,0,0,0-15.547,8.729c-1.533,2.576-1.632,4.909-.544,6.563C94.57,174.962,94.792,172.841,96.158,170.531Z" transform="translate(10.41 17.815)" fill="#f4a856"/>
    <path id="Path_1499" data-name="Path 1499" d="M118.318,169.664c-3.465,5.83-11.761,10.483-18.535,10.395-3.243,0-5.553-1.111-6.663-2.954,1.022,2.088,3.432,3.409,6.974,3.454,6.774.089,15.081-4.575,18.535-10.395,1.81-3.043,1.932-5.8.689-7.774C120.217,164.322,119.973,166.877,118.318,169.664Z" transform="translate(10.25 17.938)" fill="#fce586"/>
    <path id="Path_1500" data-name="Path 1500" d="M40.741,167.066a2.954,2.954,0,0,1-1.477-.4L.4,144.2a.711.711,0,0,1,0-1.233L34.822,123.1l.344.6L.74,143.567l38.869,22.5a2.221,2.221,0,0,0,2.221,0L65.04,152.74a2.965,2.965,0,0,1,2.965,0l9.506,5.553-.344.6-9.506-5.553a2.221,2.221,0,0,0-2.221,0l-23.21,13.326a2.954,2.954,0,0,1-1.488.4Z" transform="translate(-0.039 13.595)" fill="#fff"/>
    <path id="Path_1501" data-name="Path 1501" d="M200.512,137.034,164.286,98.165,128.027,95.2s-5.819,49.108,36.226,101.192C206.342,192.861,200.512,137.034,200.512,137.034Z" transform="translate(14.078 10.511)" fill="url(#linear-gradient-10)"/>
    <path id="Path_1502" data-name="Path 1502" d="M128.851,95.2,120.7,99.909l36.226,2.932,8.151-4.709Z" transform="translate(13.299 10.511)" fill="url(#linear-gradient-11)"/>
    <path id="Path_1503" data-name="Path 1503" d="M193.179,141.274l-36.226-38.869-14.892-1.51L120.727,99.44s-5.819,49.108,36.226,101.192C199,197.1,193.179,141.274,193.179,141.274Z" transform="translate(13.271 10.98)" fill="url(#linear-gradient-9)"/>
    <path id="Path_1504" data-name="Path 1504" d="M193.151,141.332l-36.226-38.869L120.7,99.5l1.022-.589,36.7,2.965,36.226,38.869s4.864,46.643-26.453,57.37C197.849,186.487,193.151,141.332,193.151,141.332Z" transform="translate(13.299 10.921)" fill="#fff"/>
    <path id="Path_1505" data-name="Path 1505" d="M188.508,141.393l-32.572-34.971-13.393-1.355-19.179-1.277s-5.231,44.155,32.572,90.986C193.717,191.589,188.508,141.393,188.508,141.393Z" transform="translate(13.566 11.461)" fill="#e4e4e4" opacity="0.2"/>
  </g>
</svg>
