<svg xmlns="http://www.w3.org/2000/svg" xmlns:xlink="http://www.w3.org/1999/xlink" width="42" height="42" viewBox="0 0 42 42">
  <defs>
    <filter id="Ellipse_2735" x="0" y="0" width="42" height="42" filterUnits="userSpaceOnUse">
      <feOffset dy="1" input="SourceAlpha"/>
      <feGaussianBlur stdDeviation="1.5" result="blur"/>
      <feFlood flood-opacity="0.161"/>
      <feComposite operator="in" in2="blur"/>
      <feComposite in="SourceGraphic"/>
    </filter>
    <linearGradient id="linear-gradient" x1="1" x2="0" y2="1" gradientUnits="objectBoundingBox">
      <stop offset="0" stop-color="#38f9d7"/>
      <stop offset="1" stop-color="#43e97b"/>
    </linearGradient>
  </defs>
  <g id="Group_45" data-name="Group 45" transform="translate(4.5 3.5)">
    <g transform="matrix(1, 0, 0, 1, -4.5, -3.5)" filter="url(#Ellipse_2735)">
      <circle id="Ellipse_2735-2" data-name="Ellipse 2735" cx="16.5" cy="16.5" r="16.5" transform="translate(4.5 3.5)" fill="#fff"/>
    </g>
    <g id="Group_44" data-name="Group 44" transform="translate(8.749 9.998)">
      <path id="Path_837" data-name="Path 837" d="M.55,0H15.672a.55.55,0,0,1,.55.55V3.3a.55.55,0,0,1-.55.55H.55A.55.55,0,0,1,0,3.3V.55A.55.55,0,0,1,.55,0Z" transform="translate(0 0)" fill="url(#linear-gradient)"/>
      <path id="Path_838" data-name="Path 838" d="M.55,0H15.672a.55.55,0,0,1,.55.55V7.424a.55.55,0,0,1-.55.55H.55A.55.55,0,0,1,0,7.424V.55A.55.55,0,0,1,.55,0Z" transform="translate(0 4.674)" fill="url(#linear-gradient)"/>
      <path id="Path_840" data-name="Path 840" d="M.412,0h1.65a.412.412,0,0,1,.412.412V.687a.412.412,0,0,1-.412.412H.412A.412.412,0,0,1,0,.687V.412A.412.412,0,0,1,.412,0Z" transform="translate(1.1 10.448)" fill="#f6f7fa"/>
      <path id="Path_839" data-name="Path 839" d="M.412,0h1.65a.412.412,0,0,1,.412.412V.687a.412.412,0,0,1-.412.412H.412A.412.412,0,0,1,0,.687V.412A.412.412,0,0,1,.412,0Z" transform="translate(3.849 10.448)" fill="#f6f7fa"/>
    </g>
  </g>
</svg>
