<svg xmlns="http://www.w3.org/2000/svg" xmlns:xlink="http://www.w3.org/1999/xlink" width="56.711" height="67.658" viewBox="0 0 56.711 67.658">
  <defs>
    <linearGradient id="linear-gradient" x1="1" y1="-2.509" x2="-0.085" y2="1.439" gradientUnits="objectBoundingBox">
      <stop offset="0" stop-color="#89f7fe"/>
      <stop offset="1" stop-color="#66a6ff"/>
    </linearGradient>
  </defs>
  <g id="support" transform="translate(0 0)">
    <g id="Group_74" data-name="Group 74" transform="translate(0)">
      <g id="Group_73" data-name="Group 73" transform="translate(0)">
        <path id="Path_882" data-name="Path 882" d="M70.837,300.4H56.613A21.247,21.247,0,0,0,35.4,321.613H92.111A21.38,21.38,0,0,0,70.837,300.4Z" transform="translate(-35.4 -253.955)" fill="url(#linear-gradient)"/>
        <path id="Path_883" data-name="Path 883" d="M140.655,107.41a4.579,4.579,0,0,1,2.969,1.051h5.133A14.71,14.71,0,1,0,123.4,98.319a14.748,14.748,0,0,0,7.545,12.864,4.818,4.818,0,0,1,4.638-3.772Z" transform="translate(-109.794 -70.675)" fill="url(#linear-gradient)"/>
        <path id="Path_884" data-name="Path 884" d="M75.433,28.881a6.909,6.909,0,0,0,1.979,4.02,7.462,7.462,0,0,0,3.03,1.793,2.774,2.774,0,0,1-.062-.68v-12a3.011,3.011,0,0,1,.062-.742,6.613,6.613,0,0,0-3.03,1.793l-.247.247V22.82a21.215,21.215,0,0,1,.309-3.463,14.8,14.8,0,0,1,.928-3.34,14.7,14.7,0,0,1,1.484-3.154,18,18,0,0,1,1.979-2.845.469.469,0,0,0,.124-.247,1.826,1.826,0,0,0,1.484-.495,19.26,19.26,0,0,1,27.211,0,1.757,1.757,0,0,0,1.484.495c.062.062.062.186.124.247a18,18,0,0,1,1.979,2.845,24.636,24.636,0,0,1,1.484,3.154,30.578,30.578,0,0,1,.928,3.4,21.208,21.208,0,0,1,.309,3.463v.495c-.062-.124-.186-.186-.247-.247a7.463,7.463,0,0,0-3.03-1.793,3.014,3.014,0,0,1,.062.742V34.014a2.321,2.321,0,0,1-.062.68,5.444,5.444,0,0,0,.928-.309v3.9a6.233,6.233,0,0,1-.124,1.175,1.74,1.74,0,0,1-.309.68,1.346,1.346,0,0,1-.495.309,3.134,3.134,0,0,1-.8.124H101.469a2.055,2.055,0,0,0-1.793-1.051H94.6A1.993,1.993,0,0,0,92.626,41.5a2.047,2.047,0,0,0,2.041,1.979h5.071a2.133,2.133,0,0,0,1.793-1.051h11.936a3.616,3.616,0,0,0,1.175-.247,3.3,3.3,0,0,0,1.237-.8,4.083,4.083,0,0,0,.742-1.361,7.379,7.379,0,0,0,.247-1.793V33.087l.186-.186a6.909,6.909,0,0,0,1.979-4.02c.062-.062.124-.062.124-.124a1.141,1.141,0,0,0,.309-.742V22.882a26,26,0,0,0-.309-3.834c-.371-1.3-.68-2.536-1.113-3.772a18.393,18.393,0,0,0-1.67-3.525A18.221,18.221,0,0,0,114.147,8.6a.617.617,0,0,0-.309-.247,1.884,1.884,0,0,0-.495-1.67A22.7,22.7,0,0,0,97.2,0,22.95,22.95,0,0,0,81,6.679a1.884,1.884,0,0,0-.495,1.67,1.086,1.086,0,0,0-.309.247,18.22,18.22,0,0,0-2.226,3.154,30.818,30.818,0,0,0-1.67,3.525,19.933,19.933,0,0,0-.989,3.772A19.654,19.654,0,0,0,75,22.882v5.133a1.024,1.024,0,0,0,.309.742C75.371,28.819,75.433,28.819,75.433,28.881Z" transform="translate(-68.877 0)" fill="url(#linear-gradient)"/>
      </g>
    </g>
  </g>
</svg>
