<svg xmlns="http://www.w3.org/2000/svg" xmlns:xlink="http://www.w3.org/1999/xlink" width="109.55" height="109.55" viewBox="0 0 109.55 109.55">
  <defs>
    <filter id="Ellipse_2743" x="0" y="0" width="109.55" height="109.55" filterUnits="userSpaceOnUse">
      <feOffset dy="6" input="SourceAlpha"/>
      <feGaussianBlur stdDeviation="4" result="blur"/>
      <feFlood flood-opacity="0.161"/>
      <feComposite operator="in" in2="blur"/>
      <feComposite in="SourceGraphic"/>
    </filter>
    <linearGradient id="linear-gradient" x1="1.829" x2="0" y2="1" gradientUnits="objectBoundingBox">
      <stop offset="0" stop-color="#fc6076"/>
      <stop offset="1" stop-color="#ff9a44"/>
    </linearGradient>
  </defs>
  <g id="Group_1451" data-name="Group 1451" transform="translate(-6510 -1358)">
    <g transform="matrix(1, 0, 0, 1, 6510, 1358)" filter="url(#Ellipse_2743)">
      <circle id="Ellipse_2743-2" data-name="Ellipse 2743" cx="42.775" cy="42.775" r="42.775" transform="translate(12 6)" fill="#fff"/>
    </g>
    <g id="cloud-computing" transform="translate(6539 1380.5)">
      <path id="Path_1115" data-name="Path 1115" d="M34.582,41.779l-4.308,4.308V27.915l4.308,4.308a1.879,1.879,0,1,0,2.657-2.657l-7.515-7.515a1.868,1.868,0,0,0-.287-.235c-.047-.032-.1-.054-.148-.081a1.825,1.825,0,0,0-.175-.092,1.771,1.771,0,0,0-.194-.06c-.053-.016-.1-.036-.158-.047a1.869,1.869,0,0,0-.737,0,1.523,1.523,0,0,0-.158.047,1.088,1.088,0,0,0-.368.153c-.049.027-.1.049-.147.08a1.868,1.868,0,0,0-.287.235L19.55,29.566a1.879,1.879,0,0,0,2.658,2.657l4.308-4.308V46.087l-4.308-4.308a1.879,1.879,0,1,0-2.657,2.657l7.516,7.516a1.878,1.878,0,0,0,2.657,0l7.516-7.516a1.879,1.879,0,0,0-2.657-2.657Z" transform="translate(-1.15 -1.211)" fill="url(#linear-gradient)"/>
      <path id="Path_1116" data-name="Path 1116" d="M44.939,16.518a17.259,17.259,0,0,0-4.4,0,.923.923,0,0,1-.143.011.94.94,0,0,1-.14-1.869,17.945,17.945,0,0,1,3.836-.116A14.182,14.182,0,0,0,30.142,1.5,14.881,14.881,0,0,0,18.6,7.258a8.436,8.436,0,0,1,3.006,6.455.939.939,0,0,1-1.879,0,6.564,6.564,0,0,0-3.674-5.892c-.065-.032-.131-.065-.2-.095a6.4,6.4,0,0,0-.784-.3c-.033-.009-.067-.016-.1-.025a6.605,6.605,0,0,0-.741-.166L14.013,7.2a6.71,6.71,0,0,0-.861-.062,6.585,6.585,0,0,0-6.576,6.576c0,.077.006.153.011.229l.011.2-.008.15c-.007.122-.014.243-.014.363v.592l-.533.255A11.167,11.167,0,0,0,0,25.131,10.2,10.2,0,0,0,10.188,35.32H23.514V31.24l-1.1,1.1A3.758,3.758,0,0,1,17.1,27.027l7.516-7.516h0a3.817,3.817,0,0,1,.573-.469c.092-.061.193-.1.288-.157a2.2,2.2,0,0,1,.74-.307c.107-.031.209-.072.319-.095a3.769,3.769,0,0,1,1.472,0,3.294,3.294,0,0,1,.319.095,3.651,3.651,0,0,1,.381.118,3.834,3.834,0,0,1,.359.189c.1.053.2.095.288.157a3.76,3.76,0,0,1,.573.469h0l7.516,7.516a3.758,3.758,0,0,1-5.315,5.314l-1.1-1.1v4.08h2.183c.055,0,.109,0,.163-.008l.186-.01.255.01c.054,0,.108.008.163.008h9.209A9.432,9.432,0,0,0,52.609,25.9,9.63,9.63,0,0,0,44.939,16.518Z" fill="url(#linear-gradient)"/>
    </g>
  </g>
</svg>
