<svg xmlns="http://www.w3.org/2000/svg" xmlns:xlink="http://www.w3.org/1999/xlink" width="109.55" height="109.55" viewBox="0 0 109.55 109.55">
  <defs>
    <filter id="Ellipse_2746" x="0" y="0" width="109.55" height="109.55" filterUnits="userSpaceOnUse">
      <feOffset dy="6" input="SourceAlpha"/>
      <feGaussianBlur stdDeviation="4" result="blur"/>
      <feFlood flood-opacity="0.161"/>
      <feComposite operator="in" in2="blur"/>
      <feComposite in="SourceGraphic"/>
    </filter>
    <linearGradient id="linear-gradient" x1="1.431" y1="-0.552" x2="-2.008" y2="1.244" gradientUnits="objectBoundingBox">
      <stop offset="0" stop-color="#f905f5"/>
      <stop offset="1" stop-color="#17c9f2"/>
    </linearGradient>
  </defs>
  <g id="Group_1456" data-name="Group 1456" transform="translate(-6068 -1620.45)">
    <g transform="matrix(1, 0, 0, 1, 6068, 1620.45)" filter="url(#Ellipse_2746)">
      <circle id="Ellipse_2746-2" data-name="Ellipse 2746" cx="42.775" cy="42.775" r="42.775" transform="translate(12 6)" fill="#fff"/>
    </g>
    <g id="pie-chart" transform="translate(6096.014 1642.89)">
      <path id="Path_936" data-name="Path 936" d="M44.7,27.5a14.612,14.612,0,0,1-2.54,8.252l8.518,8.518a26.6,26.6,0,0,0,0-33.54l-8.518,8.518A14.618,14.618,0,0,1,44.7,27.5Z" transform="translate(-3.536 -0.882)" fill="url(#linear-gradient)"/>
      <path id="Path_937" data-name="Path 937" d="M34.8,41.392A14.677,14.677,0,0,1,12.134,32H.077A26.613,26.613,0,0,0,43.322,49.911Z" transform="translate(-0.077 -2.63)" fill="url(#linear-gradient)"/>
      <path id="Path_938" data-name="Path 938" d="M12.134,23.863A14.677,14.677,0,0,1,34.8,14.471l8.518-8.518A26.612,26.612,0,0,0,.077,23.863Z" transform="translate(-0.077)" fill="url(#linear-gradient)"/>
    </g>
  </g>
</svg>
