<svg xmlns="http://www.w3.org/2000/svg" xmlns:xlink="http://www.w3.org/1999/xlink" width="718.55" height="473.356" viewBox="0 0 718.55 473.356">
  <defs>
    <filter id="Oval" x="430.685" y="380.872" width="19.274" height="19.274" filterUnits="userSpaceOnUse">
      <feOffset dy="4" input="SourceAlpha"/>
      <feGaussianBlur stdDeviation="2" result="blur"/>
      <feFlood flood-opacity="0.078"/>
      <feComposite operator="in" in2="blur"/>
      <feComposite in="SourceGraphic"/>
    </filter>
    <filter id="Oval-2" x="471.418" y="341.108" width="19.274" height="19.274" filterUnits="userSpaceOnUse">
      <feOffset dy="4" input="SourceAlpha"/>
      <feGaussianBlur stdDeviation="2" result="blur-2"/>
      <feFlood flood-opacity="0.078"/>
      <feComposite operator="in" in2="blur-2"/>
      <feComposite in="SourceGraphic"/>
    </filter>
    <filter id="Oval-3" x="515.546" y="302.315" width="19.274" height="19.274" filterUnits="userSpaceOnUse">
      <feOffset dy="4" input="SourceAlpha"/>
      <feGaussianBlur stdDeviation="2" result="blur-3"/>
      <feFlood flood-opacity="0.078"/>
      <feComposite operator="in" in2="blur-3"/>
      <feComposite in="SourceGraphic"/>
    </filter>
    <filter id="Oval-4" x="554.34" y="263.036" width="19.274" height="19.274" filterUnits="userSpaceOnUse">
      <feOffset dy="4" input="SourceAlpha"/>
      <feGaussianBlur stdDeviation="2" result="blur-4"/>
      <feFlood flood-opacity="0.078"/>
      <feComposite operator="in" in2="blur-4"/>
      <feComposite in="SourceGraphic"/>
    </filter>
    <filter id="Oval-5" x="595.558" y="224.242" width="19.274" height="19.274" filterUnits="userSpaceOnUse">
      <feOffset dy="4" input="SourceAlpha"/>
      <feGaussianBlur stdDeviation="2" result="blur-5"/>
      <feFlood flood-opacity="0.078"/>
      <feComposite operator="in" in2="blur-5"/>
      <feComposite in="SourceGraphic"/>
    </filter>
  </defs>
  <g id="Group_1468" data-name="Group 1468" transform="translate(-2910.95 -980.7)">
    <g id="Group_1298" data-name="Group 1298" transform="translate(2910.95 980.7)">
      <g id="Desktop" transform="translate(0 0)">
        <g id="Layer_1" data-name="Layer 1" transform="translate(0 0)">
          <path id="Path_967" data-name="Path 967" d="M92.145,1.7H766.292A22.208,22.208,0,0,1,788.5,23.908V452.861a22.2,22.2,0,0,1-22.2,22.2H92.145a22.2,22.2,0,0,1-22.2-22.2V23.9a22.2,22.2,0,0,1,22.2-22.2Z" transform="translate(-69.95 -1.7)" fill="#e2e2e2"/>
          <rect id="Rectangle_2414" data-name="Rectangle 2414" width="679.258" height="430.079" transform="translate(19.083 21.268)" fill="#fff"/>
        </g>
      </g>
      <g id="Main" transform="translate(31.776 56.035)">
        <rect id="Rectangle-path" width="648.34" height="351.568" rx="4" fill="#fff" stroke="#f0f3f4" stroke-miterlimit="10" stroke-width="1"/>
        <path id="Lines" d="M648.34,157.114H0v-.485H648.34v.484Zm0-38.793H0v-.485H648.34v.485Zm0-39.279H0v-.485H648.34v.484Zm0-39.279H0v-.485H648.34v.484Zm0-39.279H0V0H648.34V.484Z" transform="translate(0 152.75)" fill="#e9eff4"/>
        <g id="Internship_Students" data-name="Internship Students" transform="translate(20.367 324.17)">
          <g id="Amount" transform="translate(89.468 0)">
            <path id="Shape" d="M3.394,12.608A1.455,1.455,0,0,1,1.94,11.153V7.92L0,6.3,1.94,4.687V1.455A1.455,1.455,0,0,1,3.394,0H39.279a1.455,1.455,0,0,1,1.455,1.455v9.7a1.455,1.455,0,0,1-1.455,1.455Z" transform="translate(0 0)" fill="#969ba1"/>
            <text id="_9633.17" data-name="$ 9633.17" transform="translate(16.036 5.726)" fill="#fff" font-size="1" font-family="Lato-Bold, Lato" font-weight="700" letter-spacing="0.042em"><tspan x="-2.437" y="0">$ 9633.17</tspan></text>
          </g>
          <text id="Internship_Students-2" data-name="Internship Students" transform="translate(0 5.818)" fill="#323c47" font-size="2" font-family="Lato-Regular, Lato"><tspan x="0" y="0">Internship Students</tspan></text>
          <g id="Gray_bar" data-name="Gray bar" transform="translate(377.754 2.667)">
            <rect id="Rectangle_" data-name="Rectangle " width="226.458" height="3.879" rx="1.94" transform="translate(0 1.94)" fill="#e9eff4"/>
            <rect id="Rectangle_2" data-name="Rectangle " width="11.153" height="3.879" rx="1.94" transform="translate(0 1.94)" fill="#969ba1"/>
            <g transform="matrix(1, 0, 0, 1, -429.9, -382.87)" filter="url(#Oval)">
              <circle id="Oval-6" data-name="Oval" cx="3.637" cy="3.637" r="3.637" transform="translate(436.68 382.87)" fill="#fff"/>
            </g>
            <circle id="Oval_" data-name="Oval " cx="2.182" cy="2.182" r="2.182" transform="translate(8.244 1.455)" fill="#969ba1"/>
          </g>
        </g>
        <g id="Public_Relations" data-name="Public Relations" transform="translate(20.367 284.406)">
          <g id="Amount-2" data-name="Amount" transform="translate(74.435 0)">
            <path id="Shape-2" data-name="Shape" d="M3.394,12.608A1.455,1.455,0,0,1,1.94,11.153V7.92L0,6.3,1.94,4.687V1.455A1.455,1.455,0,0,1,3.394,0H42.673a1.455,1.455,0,0,1,1.455,1.455v9.7a1.455,1.455,0,0,1-1.455,1.455Z" transform="translate(0 0)" fill="#fc8650"/>
            <text id="_11420.51" data-name="$ 11420.51" transform="translate(17.442 5.726)" fill="#fff" font-size="1" font-family="Lato-Bold, Lato" font-weight="700" letter-spacing="0.042em"><tspan x="-2.748" y="0">$ 11420.51</tspan></text>
          </g>
          <text id="Public_Relations-2" data-name="Public Relations" transform="translate(0 5.818)" fill="#323c47" font-size="2" font-family="Lato-Regular, Lato"><tspan x="0" y="0">Public Relations</tspan></text>
          <g id="Red_bar" data-name="Red bar" transform="translate(377.754 2.667)">
            <rect id="Rectangle_3" data-name="Rectangle " width="226.458" height="3.879" rx="1.94" transform="translate(0 1.94)" fill="#e9eff4"/>
            <rect id="Rectangle_4" data-name="Rectangle " width="50.917" height="3.879" rx="1.94" transform="translate(0 1.94)" fill="#fc8650"/>
            <g transform="matrix(1, 0, 0, 1, -429.9, -343.11)" filter="url(#Oval-2)">
              <circle id="Oval-7" data-name="Oval" cx="3.637" cy="3.637" r="3.637" transform="translate(477.42 343.11)" fill="#fff"/>
            </g>
            <circle id="Oval_2" data-name="Oval " cx="2.182" cy="2.182" r="2.182" transform="translate(48.977 1.455)" fill="#fc8650"/>
          </g>
        </g>
        <g id="Management_Directory" data-name="Management Directory" transform="translate(20.367 245.613)">
          <g id="Amount-3" data-name="Amount" transform="translate(104.501 0)">
            <path id="Shape-3" data-name="Shape" d="M3.394,12.608A1.455,1.455,0,0,1,1.94,11.153V7.92L0,6.3,1.94,4.687V1.455A1.455,1.455,0,0,1,3.394,0H42.673a1.455,1.455,0,0,1,1.455,1.455v9.7a1.455,1.455,0,0,1-1.455,1.455Z" transform="translate(0 0)" fill="#fdcf2f"/>
            <text id="_12379.69" data-name="$ 12379.69" transform="translate(16.957 6.211)" fill="#fff" font-size="1" font-family="Lato-Bold, Lato" font-weight="700" letter-spacing="0.042em"><tspan x="-2.748" y="0">$ 12379.69</tspan></text>
          </g>
          <text id="Management_Directory-2" data-name="Management Directory" transform="translate(0 5.818)" fill="#323c47" font-size="2" font-family="Lato-Regular, Lato"><tspan x="0" y="0">Management Directory</tspan></text>
          <g id="Yellow_bar" data-name="Yellow bar" transform="translate(377.754 2.667)">
            <rect id="Rectangle_5" data-name="Rectangle " width="226.458" height="3.879" rx="1.94" transform="translate(0 1.94)" fill="#e9eff4"/>
            <rect id="Rectangle_6" data-name="Rectangle " width="95.529" height="3.879" rx="1.94" transform="translate(0 1.94)" fill="#fdcf2f"/>
            <g transform="matrix(1, 0, 0, 1, -429.9, -304.31)" filter="url(#Oval-3)">
              <circle id="Oval-8" data-name="Oval" cx="3.637" cy="3.637" r="3.637" transform="translate(521.55 304.31)" fill="#fff"/>
            </g>
            <circle id="Oval_3" data-name="Oval " cx="2.182" cy="2.182" r="2.182" transform="translate(93.105 1.455)" fill="#fdcf2f"/>
          </g>
        </g>
        <g id="Marketing_Campaign" data-name="Marketing Campaign" transform="translate(20.367 206.334)">
          <g id="Amount-4" data-name="Amount" transform="translate(93.832 0)">
            <path id="Shape-4" data-name="Shape" d="M3.394,12.608A1.455,1.455,0,0,1,1.94,11.153V7.92L0,6.3,1.94,4.687V1.455A1.455,1.455,0,0,1,3.394,0H41.7a1.455,1.455,0,0,1,1.455,1.455v9.7A1.455,1.455,0,0,1,41.7,12.608Z" transform="translate(0 0)" fill="#7ed321"/>
            <text id="_23605.11" data-name="$ 23605.11" transform="translate(16.472 6.211)" fill="#fff" font-size="1" font-family="Lato-Bold, Lato" font-weight="700" letter-spacing="0.042em"><tspan x="-2.748" y="0">$ 23605.11</tspan></text>
          </g>
          <text id="Marketing_Campaign-2" data-name="Marketing Campaign" transform="translate(0 5.818)" fill="#323c47" font-size="2" font-family="Lato-Regular, Lato"><tspan x="0" y="0">Marketing Campaign</tspan></text>
          <g id="Green_bar" data-name="Green bar" transform="translate(377.754 2.667)">
            <rect id="Rectangle_7" data-name="Rectangle " width="226.458" height="3.879" rx="1.94" transform="translate(0 1.94)" fill="#e9eff4"/>
            <rect id="Rectangle_8" data-name="Rectangle " width="132.383" height="3.879" rx="1.94" transform="translate(0 1.94)" fill="#7ed321"/>
            <g transform="matrix(1, 0, 0, 1, -429.9, -265.04)" filter="url(#Oval-4)">
              <circle id="Oval-9" data-name="Oval" cx="3.637" cy="3.637" r="3.637" transform="translate(560.34 265.04)" fill="#fff"/>
            </g>
            <circle id="Oval_4" data-name="Oval " cx="2.182" cy="2.182" r="2.182" transform="translate(131.899 1.455)" fill="#7ed321"/>
          </g>
        </g>
        <g id="User_Experience_Design" data-name="User Experience Design" transform="translate(20.852 167.54)">
          <text id="User_Experience_Desi" data-name="User Experience Desi" transform="translate(0 5.334)" fill="#323c47" font-size="2" font-family="Lato-Regular, Lato"><tspan x="0" y="0">User Experience Design</tspan></text>
          <g id="Blue_bar" data-name="Blue bar" transform="translate(377.269 2.667)">
            <rect id="Rectangle_9" data-name="Rectangle " width="226.458" height="3.879" rx="1.94" transform="translate(0 1.94)" fill="#e9eff4"/>
            <rect id="Rectangle_10" data-name="Rectangle " width="175.057" height="3.879" rx="1.94" transform="translate(0 1.94)" fill="#56a2fd"/>
            <g transform="matrix(1, 0, 0, 1, -429.9, -226.24)" filter="url(#Oval-5)">
              <circle id="Oval-10" data-name="Oval" cx="3.637" cy="3.637" r="3.637" transform="translate(601.56 226.24)" fill="#fff"/>
            </g>
            <circle id="Oval_5" data-name="Oval " cx="2.182" cy="2.182" r="2.182" transform="translate(173.117 1.455)" fill="#56a2fd"/>
          </g>
          <g id="Amount-5" data-name="Amount" transform="translate(105.47 0)">
            <path id="Shape-5" data-name="Shape" d="M43.158,12.608H3.394A1.455,1.455,0,0,1,1.94,11.153V7.92L0,6.3,1.94,4.687V1.455A1.455,1.455,0,0,1,3.394,0H43.158a1.455,1.455,0,0,1,1.455,1.455v9.7a1.455,1.455,0,0,1-1.455,1.455Z" transform="translate(0 0)" fill="#4da1ff"/>
            <text id="_81033.61" data-name="$ 81033.61" transform="translate(16.957 6.211)" fill="#fff" font-size="1" font-family="Lato-Bold, Lato" font-weight="700" letter-spacing="0.042em"><tspan x="-2.748" y="0">$ 81033.61</tspan></text>
          </g>
        </g>
        <g id="Analytics" transform="translate(398.12 27.641)">
          <g id="Labels" transform="translate(7.658 89.124)">
            <text id="Aug" transform="translate(205.614 2.19)" fill="#939eab" font-size="1" font-family="Lato-Regular, Lato"><tspan x="-0.871" y="0">Aug</tspan></text>
            <text id="Jul" transform="translate(174.867 1)" fill="#939eab" font-size="1" font-family="Lato-Regular, Lato"><tspan x="-0.601" y="0">Jul</tspan></text>
            <text id="Jun" transform="translate(146.476 1)" fill="#939eab" font-size="1" font-family="Lato-Regular, Lato"><tspan x="-0.762" y="0">Jun</tspan></text>
            <text id="May" transform="translate(119.056 2.19)" fill="#939eab" font-size="1" font-family="Lato-Regular, Lato"><tspan x="-0.957" y="0">May</tspan></text>
            <text id="Apr" transform="translate(88.528 2.19)" fill="#939eab" font-size="1" font-family="Lato-Regular, Lato"><tspan x="-0.8" y="0">Apr</tspan></text>
            <text id="Mar" transform="translate(60.865 2.19)" fill="#939eab" font-size="1" font-family="Lato-Regular, Lato"><tspan x="-0.887" y="0">Mar</tspan></text>
            <text id="Feb" transform="translate(31.065 2.19)" fill="#939eab" font-size="1" font-family="Lato-Regular, Lato"><tspan x="-0.805" y="0">Feb</tspan></text>
            <text id="Jan" transform="translate(1 2.19)" fill="#939eab" font-size="1" font-family="Lato-Regular, Lato"><tspan x="-0.729" y="0">Jan</tspan></text>
          </g>
          <path id="Graph" d="M224.518,58.675a1.336,1.336,0,0,1-1.454-1.166V25.239a1.49,1.49,0,0,1,2.909,0v32.27A1.336,1.336,0,0,1,224.518,58.675Zm-9.7,0a1.336,1.336,0,0,1-1.454-1.166V35.537a1.49,1.49,0,0,1,2.908,0V57.509A1.336,1.336,0,0,1,214.82,58.675Zm-9.7,0a1.336,1.336,0,0,1-1.455-1.166V44.085a1.49,1.49,0,0,1,2.909,0V57.509A1.336,1.336,0,0,1,205.122,58.675Zm-9.7,0a1.336,1.336,0,0,1-1.454-1.166V11.444a1.49,1.49,0,0,1,2.909,0V57.509A1.336,1.336,0,0,1,195.423,58.675Zm-9.7,0a1.336,1.336,0,0,1-1.455-1.166V6a1.49,1.49,0,0,1,2.909,0v51.5A1.336,1.336,0,0,1,185.725,58.675Zm-9.7,0a1.336,1.336,0,0,1-1.454-1.166V1.166a1.49,1.49,0,0,1,2.909,0V57.509A1.336,1.336,0,0,1,176.026,58.675Zm-9.7,0a1.336,1.336,0,0,1-1.454-1.166V13.582a1.49,1.49,0,0,1,2.908,0V57.509A1.336,1.336,0,0,1,166.328,58.675Zm-9.7,0a1.336,1.336,0,0,1-1.454-1.166V17.662a1.49,1.49,0,0,1,2.909,0V57.509A1.336,1.336,0,0,1,156.63,58.675Zm-9.7,0a1.336,1.336,0,0,1-1.455-1.166V21.548a1.49,1.49,0,0,1,2.909,0V57.509A1.336,1.336,0,0,1,146.931,58.675Zm-9.7,0a1.336,1.336,0,0,1-1.454-1.166V30.485a1.49,1.49,0,0,1,2.909,0V57.509A1.336,1.336,0,0,1,137.232,58.675Zm-9.7,0a1.336,1.336,0,0,1-1.454-1.166v-38.7a1.49,1.49,0,0,1,2.908,0v38.7A1.336,1.336,0,0,1,127.534,58.675Zm-9.7,0a1.336,1.336,0,0,1-1.455-1.166V15.314a1.49,1.49,0,0,1,2.909,0V57.509A1.336,1.336,0,0,1,117.836,58.675Zm-9.7,0a1.336,1.336,0,0,1-1.455-1.166V21.143a1.49,1.49,0,0,1,2.909,0V57.509A1.336,1.336,0,0,1,108.137,58.675Zm-9.7,0a1.336,1.336,0,0,1-1.454-1.166V20.755a1.49,1.49,0,0,1,2.909,0V57.509A1.336,1.336,0,0,1,98.438,58.675Zm-9.7,0a1.336,1.336,0,0,1-1.454-1.166V23.863a1.49,1.49,0,0,1,2.909,0V57.509A1.336,1.336,0,0,1,88.74,58.675Zm-9.7,0a1.336,1.336,0,0,1-1.454-1.166V31.247a1.49,1.49,0,0,1,2.908,0V57.509A1.336,1.336,0,0,1,79.042,58.675Zm-9.7,0a1.336,1.336,0,0,1-1.454-1.166V27.765a1.49,1.49,0,0,1,2.908,0V57.509A1.336,1.336,0,0,1,69.343,58.675Zm-9.7,0a1.336,1.336,0,0,1-1.455-1.166V26.956a1.49,1.49,0,0,1,2.909,0V57.509A1.336,1.336,0,0,1,59.645,58.675Zm-9.7,0a1.336,1.336,0,0,1-1.454-1.166V26.956a1.49,1.49,0,0,1,2.909,0V57.509A1.336,1.336,0,0,1,49.946,58.675Zm-9.7,0a1.336,1.336,0,0,1-1.454-1.166V30.261a1.49,1.49,0,0,1,2.908,0V57.509A1.336,1.336,0,0,1,40.248,58.675Zm-9.7,0a1.336,1.336,0,0,1-1.454-1.166V31.424a1.49,1.49,0,0,1,2.909,0V57.509A1.336,1.336,0,0,1,30.549,58.675Zm-9.7,0A1.336,1.336,0,0,1,19.4,57.509V39.585a1.336,1.336,0,0,1,1.455-1.166,1.336,1.336,0,0,1,1.454,1.166V57.509A1.336,1.336,0,0,1,20.851,58.675Zm-9.7,0A1.336,1.336,0,0,1,9.7,57.509V27.376a1.336,1.336,0,0,1,1.454-1.165,1.336,1.336,0,0,1,1.455,1.165V57.509A1.336,1.336,0,0,1,11.153,58.675Zm-9.7,0A1.336,1.336,0,0,1,0,57.509V41.171a1.336,1.336,0,0,1,1.454-1.165,1.336,1.336,0,0,1,1.454,1.165V57.509A1.336,1.336,0,0,1,1.454,58.675Z" transform="translate(0 23.276)" fill="#4da1ff"/>
          <text id="Year_2021" data-name="Year 2021" transform="translate(194.938 4.513)" fill="#939eab" font-size="1" font-family="Lato-Regular, Lato"><tspan x="0" y="0">Year 2021</tspan></text>
          <g id="New" transform="translate(53.826 0)">
            <rect id="Rectangle" width="22.306" height="10.668" rx="5.334" fill="#fc8650"/>
            <text id="NEW-2" data-name="NEW" transform="translate(6.233 3.808)" fill="#fff" font-size="1" font-family="Lato-Bold, Lato" font-weight="700" letter-spacing="0.042em"><tspan x="-1.24" y="0">NEW</tspan></text>
          </g>
          <text id="Analytics-2" data-name="Analytics" transform="translate(0 4.285)" fill="#323c47" font-size="2" font-family="Lato-Regular, Lato"><tspan x="0" y="0">Analytics</tspan></text>
        </g>
        <g id="Left_Area" data-name="Left Area" transform="translate(20.839 49.947)">
          <g id="Components_Button_Basic" data-name="Components / Button / Basic" transform="translate(0 45.177)">
            <rect id="Components_Button_Basic_background" data-name="Components / Button / Basic background" width="98.042" height="17.33" transform="translate(0 11.033)" fill="rgba(0,0,0,0)"/>
            <g id="Cta" transform="translate(0)">
              <rect id="Rectangle-2" data-name="Rectangle" width="98.042" height="24.793" rx="4" fill="#4da1ff"/>
              <text id="CONTINUE_TO_STEP_4" data-name="CONTINUE TO STEP 4" transform="translate(4.873 5.119)" fill="#fff" font-size="10" font-family="Lato-Bold, Lato" font-weight="700" letter-spacing="0.042em"><tspan x="11.924" y="10">DOWNLOAD </tspan></text>
            </g>
          </g>
          <text id="The_initial_results" data-name="The initial results" transform="translate(0.982 0)" fill="#939eab" font-size="12" font-family="Lato-Regular, Lato"><tspan x="0" y="12">The initial results of using these models to estimate.</tspan></text>
        </g>
      </g>
    </g>
  </g>
</svg>
