<svg xmlns="http://www.w3.org/2000/svg" xmlns:xlink="http://www.w3.org/1999/xlink" width="57.5" height="57.5" viewBox="0 0 57.5 57.5">
  <defs>
    <filter id="Path_834" x="0" y="0" width="57.5" height="57.5" filterUnits="userSpaceOnUse">
      <feOffset dy="3" input="SourceAlpha"/>
      <feGaussianBlur stdDeviation="3" result="blur"/>
      <feFlood flood-opacity="0.161"/>
      <feComposite operator="in" in2="blur"/>
      <feComposite in="SourceGraphic"/>
    </filter>
  </defs>
  <g id="twitter-logo-button" transform="translate(9 6)">
    <g id="Group_32" data-name="Group 32">
      <g transform="matrix(1, 0, 0, 1, -9, -6)" filter="url(#Path_834)">
        <path id="Path_834-2" data-name="Path 834" d="M19.75,0A19.75,19.75,0,1,0,39.5,19.75,19.772,19.772,0,0,0,19.75,0Zm8.811,15.23c.009.2.014.393.014.59a12.931,12.931,0,0,1-19.9,10.891,9.179,9.179,0,0,0,6.73-1.882,4.55,4.55,0,0,1-4.247-3.157,4.563,4.563,0,0,0,2.052-.076,4.547,4.547,0,0,1-3.646-4.457c0-.019,0-.039,0-.057a4.527,4.527,0,0,0,2.058.568,4.553,4.553,0,0,1-1.407-6.069,12.907,12.907,0,0,0,9.369,4.751,4.549,4.549,0,0,1,7.746-4.147,9.074,9.074,0,0,0,2.888-1.1,4.566,4.566,0,0,1-2,2.515,9.037,9.037,0,0,0,2.611-.715A9.144,9.144,0,0,1,28.561,15.23Z" transform="translate(9 6)" fill="#fff"/>
      </g>
    </g>
  </g>
</svg>
