<svg xmlns="http://www.w3.org/2000/svg" xmlns:xlink="http://www.w3.org/1999/xlink" width="234.917" height="279.924" viewBox="0 0 234.917 279.924">
  <defs>
    <linearGradient id="linear-gradient" x1="1.108" y1="-0.688" x2="-0.004" y2="1.454" gradientUnits="objectBoundingBox">
      <stop offset="0" stop-color="#3c588f"/>
      <stop offset="0.11" stop-color="#4a6ea2"/>
      <stop offset="0.36" stop-color="#699eca"/>
      <stop offset="0.59" stop-color="#7fc0e7"/>
      <stop offset="0.77" stop-color="#8cd5f9"/>
      <stop offset="0.9" stop-color="#91ddff"/>
    </linearGradient>
    <linearGradient id="linear-gradient-2" x1="0.656" y1="-0.276" x2="0.362" y2="1.268" gradientUnits="objectBoundingBox">
      <stop offset="0" stop-color="#f905f5"/>
      <stop offset="1" stop-color="#17c9f2"/>
    </linearGradient>
  </defs>
  <g id="NFC" transform="translate(-0.006 -30.275)">
    <g id="Layer_1" data-name="Layer 1" transform="translate(0.006 34.645)">
      <path id="Path_1049" data-name="Path 1049" d="M288.506,307.867a18.41,18.41,0,0,1-18.3,18.075H190.42a18.476,18.476,0,0,1-18.356-18.075l-2.845-183.352a17.76,17.76,0,0,1,17.767-18.075h86.049a17.827,17.827,0,0,1,17.82,18.075Z" transform="translate(-55.94 -70.726)" fill="#58575e"/>
      <path id="Path_1050" data-name="Path 1050" d="M264.9,325.621a20.512,20.512,0,0,1-20.391,20.117H155.623a20.578,20.578,0,0,1-20.451-20.117L132,119.086c-.174-11.066,8.7-11.133,19.8-11.133h95.877c10.744,0,20.324-14.908,19.855,20.117Z" transform="translate(-43.637 -70.184)" fill="#424242"/>
      <path id="Path_1051" data-name="Path 1051" d="M288.516,278.492a18.409,18.409,0,0,1-18.3,18.075H190.43a18.476,18.476,0,0,1-18.356-18.075L169.751,127.28a17.641,17.641,0,0,0-.5,4.4l2.845,183.359a18.477,18.477,0,0,0,18.356,18.075h79.757a18.41,18.41,0,0,0,18.3-18.075l2.35-183.352a17.96,17.96,0,0,0-.422-4.017Z" transform="translate(-55.951 -77.614)" fill="#404040"/>
      <path id="Path_1052" data-name="Path 1052" d="M249.36,325.928l47.336-6.741a18.182,18.182,0,0,0,11.554-4.177l2.8-204.332a17.74,17.74,0,0,0-11.521-4.238H255.465C253.805,160.979,250.625,267.1,249.36,325.928Z" transform="translate(-82.433 -70.726)" fill="#21211f"/>
      <path id="Path_1053" data-name="Path 1053" d="M264.9,295.389a20.512,20.512,0,0,1-20.391,20.083H155.623a20.579,20.579,0,0,1-20.451-20.083L132,91.083A19.8,19.8,0,0,1,151.794,71h95.877a19.862,19.862,0,0,1,19.855,20.083Z" transform="translate(-43.637 -59.01)" fill="#58575e"/>
      <path id="Path_1054" data-name="Path 1054" d="M252.63,71H156.754A19.7,19.7,0,0,0,147,73.544l2.229,199.445A17.867,17.867,0,0,0,167,290.575h75.285a17.807,17.807,0,0,0,17.72-17.559l1.747-199.787A19.722,19.722,0,0,0,252.63,71Z" transform="translate(-48.597 -59.01)" fill="#383836"/>
      <path id="Path_1055" data-name="Path 1055" d="M248.585,121.94a6.694,6.694,0,0,1,6.694,6.741l-1.459,154.2a6.842,6.842,0,0,1-6.788,6.741H174.786a6.855,6.855,0,0,1-6.815-6.741l-1.881-154.2a6.694,6.694,0,0,1,6.634-6.735Z" transform="translate(-54.907 -75.849)" fill="url(#linear-gradient)"/>
      <path id="Path_1056" data-name="Path 1056" d="M264.9,312.062a20.511,20.511,0,0,1-20.391,20.083H155.621a20.578,20.578,0,0,1-20.451-20.083L132.211,121.44a20.171,20.171,0,0,0-.221,3.146l3.18,206.535a20.579,20.579,0,0,0,20.451,20.117h88.888A20.512,20.512,0,0,0,264.9,331.121l2.624-197.551a20.927,20.927,0,0,0-.187-2.838Z" transform="translate(-43.634 -75.684)" fill="#404040"/>
      <path id="Path_1057" data-name="Path 1057" d="M156.754,71A19.7,19.7,0,0,0,147,73.544l1.761,161.107c26.818-23.43,76.49-66,112.465-96.881l.5-64.574a19.722,19.722,0,0,0-9.1-2.2Z" transform="translate(-48.597 -59.01)" fill="#f1f2f2" opacity="0.1"/>
      <path id="Path_1058" data-name="Path 1058" d="M212.4,408.05a4.686,4.686,0,0,1,4.686,4.639v1.68a4.686,4.686,0,0,1-4.639,4.639h-9.151a4.686,4.686,0,0,1-4.639-4.639v-1.68a4.686,4.686,0,0,1,4.639-4.639h9.1m0-1.66h-9.1a6.306,6.306,0,0,0-6.293,6.3v1.68a6.306,6.306,0,0,0,6.3,6.3h9.1a6.306,6.306,0,0,0,6.3-6.3v-1.68A6.306,6.306,0,0,0,212.4,406.39Z" transform="translate(-65.125 -169.878)" fill="#2b2c30"/>
      <rect id="Rectangle_2544" data-name="Rectangle 2544" width="18.396" height="10.959" rx="5.479" transform="translate(133.529 238.172)" fill="#b78013"/>
      <path id="Path_1059" data-name="Path 1059" d="M295.622,406.55a4.264,4.264,0,0,1,4.3,4.318v1.68a5.081,5.081,0,0,1-4.626,4.974l-9.138.669h-.335a4.258,4.258,0,0,1-4.3-4.318v-1.68a5.074,5.074,0,0,1,4.626-4.974l9.138-.669h.335m0-1.66h-.449l-9.138.669a6.755,6.755,0,0,0-6.166,6.627v1.68a5.9,5.9,0,0,0,5.951,5.978h.455l9.138-.669a6.755,6.755,0,0,0,6.166-6.627v-1.68a5.9,5.9,0,0,0-5.951-5.978Z" transform="translate(-92.518 -169.382)" fill="#2b2c30"/>
      <path id="Path_1060" data-name="Path 1060" d="M300.729,413.354a5.081,5.081,0,0,1-4.626,4.974l-9.138.669a4.264,4.264,0,0,1-4.626-4.3v-1.687a5.074,5.074,0,0,1,4.626-4.974l9.138-.669a4.264,4.264,0,0,1,4.626,4.3Z" transform="translate(-93.335 -170.194)" fill="#97b735"/>
      <path id="Path_1061" data-name="Path 1061" d="M172.935,419.432h-.395l-9.145-.669a5.911,5.911,0,0,1-5.4-5.8v-1.68a5.081,5.081,0,0,1,5.128-5.148h.395l9.145.669a5.911,5.911,0,0,1,5.416,5.8v1.68a5.081,5.081,0,0,1-5.148,5.148Z" transform="translate(-52.233 -169.792)" fill="#b51823"/>
      <path id="Path_1062" data-name="Path 1062" d="M162.721,406.55h.335l9.145.669a5.074,5.074,0,0,1,4.626,4.974v1.68a4.258,4.258,0,0,1-4.3,4.318h-.335l-9.145-.669a5.081,5.081,0,0,1-4.626-4.974v-1.68a4.264,4.264,0,0,1,4.3-4.318m0-1.66h0a5.9,5.9,0,0,0-5.951,5.978v1.68a6.755,6.755,0,0,0,6.166,6.627l9.145.669h.455a5.9,5.9,0,0,0,5.951-5.978v-1.674a6.755,6.755,0,0,0-6.166-6.627l-9.145-.669h-.449Z" transform="translate(-51.826 -169.382)" fill="#2b2c30"/>
      <rect id="Rectangle_2545" data-name="Rectangle 2545" width="18.396" height="10.289" rx="5.145" transform="translate(133.529 237.509)" fill="#f4bb19"/>
      <path id="Path_1063" data-name="Path 1063" d="M253.8,408.05a4.686,4.686,0,0,1,4.639,4.639v1.68a4.686,4.686,0,0,1-4.639,4.639h-9.118a4.686,4.686,0,0,1-4.639-4.639v-1.68a4.686,4.686,0,0,1,4.639-4.639H253.8m0-1.66h-9.118a6.306,6.306,0,0,0-6.3,6.3v1.68a6.306,6.306,0,0,0,6.3,6.3H253.8a6.306,6.306,0,0,0,6.3-6.3v-1.68a6.306,6.306,0,0,0-6.3-6.3Z" transform="translate(-78.803 -169.878)" fill="#2b2c30"/>
      <rect id="Rectangle_2546" data-name="Rectangle 2546" width="18.396" height="10.959" rx="5.479" transform="translate(161.237 238.172)" fill="#357aa0"/>
      <rect id="Rectangle_2547" data-name="Rectangle 2547" width="18.396" height="10.289" rx="5.145" transform="translate(161.237 237.509)" fill="#54a6f7"/>
      <path id="Path_1064" data-name="Path 1064" d="M300.729,411.708a5.081,5.081,0,0,1-4.626,4.974l-9.138.669a4.264,4.264,0,0,1-4.626-4.3v-1.011a5.074,5.074,0,0,1,4.626-4.974l9.138-.669a4.264,4.264,0,0,1,4.626,4.3Z" transform="translate(-93.335 -169.874)" fill="#c6dd3c"/>
      <path id="Path_1065" data-name="Path 1065" d="M177.636,413.027a4.264,4.264,0,0,1-4.626,4.3l-9.145-.669a5.074,5.074,0,0,1-4.626-4.974v-1.011a4.264,4.264,0,0,1,4.626-4.3l9.145.669a5.074,5.074,0,0,1,4.626,4.974Z" transform="translate(-52.642 -169.867)" fill="#ff363f"/>
      <path id="Path_1066" data-name="Path 1066" d="M199.892,351.531a3.059,3.059,0,0,1-3.053,3.053h-17.78A3.053,3.053,0,0,1,176,351.531v-11.7a3.053,3.053,0,0,1,3.059-3.059h17.78a3.059,3.059,0,0,1,3.053,3.053Z" transform="translate(-58.183 -146.864)" fill="#015876"/>
      <path id="Path_1067" data-name="Path 1067" d="M239.946,351.534a3.059,3.059,0,0,1-3.053,3.053h-17.78a3.053,3.053,0,0,1-3.053-3.053v-11.7a3.053,3.053,0,0,1,3.053-3.053h17.78a3.059,3.059,0,0,1,3.053,3.053Z" transform="translate(-71.425 -146.867)" fill="#0080a5"/>
      <path id="Path_1068" data-name="Path 1068" d="M280,351.534a3.059,3.059,0,0,1-3.053,3.053H259.159a3.053,3.053,0,0,1-3.059-3.053v-11.7a3.053,3.053,0,0,1,3.059-3.053h17.78a3.059,3.059,0,0,1,3.053,3.053Z" transform="translate(-84.661 -146.867)" fill="#015876"/>
      <path id="Path_1069" data-name="Path 1069" d="M199.892,319.781a3.059,3.059,0,0,1-3.053,3.053h-17.78A3.059,3.059,0,0,1,176,319.781v-11.7a3.053,3.053,0,0,1,3.059-3.059h17.78a3.059,3.059,0,0,1,3.053,3.059Z" transform="translate(-58.183 -136.369)" fill="#0080a5"/>
      <path id="Path_1070" data-name="Path 1070" d="M239.946,319.781a3.066,3.066,0,0,1-3.053,3.053h-17.78a3.053,3.053,0,0,1-3.053-3.053v-11.7a3.053,3.053,0,0,1,3.053-3.059h17.78a3.059,3.059,0,0,1,3.053,3.059Z" transform="translate(-71.425 -136.369)" fill="#0080a5"/>
      <path id="Path_1071" data-name="Path 1071" d="M280,319.781a3.066,3.066,0,0,1-3.053,3.053H259.159a3.059,3.059,0,0,1-3.059-3.053v-11.7a3.053,3.053,0,0,1,3.059-3.059h17.78a3.059,3.059,0,0,1,3.053,3.059Z" transform="translate(-84.661 -136.369)" fill="#0080a5"/>
      <path id="Path_1072" data-name="Path 1072" d="M199.892,288.041a3.066,3.066,0,0,1-3.053,3.053h-17.78A3.059,3.059,0,0,1,176,288.041v-11.7a3.053,3.053,0,0,1,3.059-3.059h17.78a3.059,3.059,0,0,1,3.053,3.059Z" transform="translate(-58.183 -125.877)" fill="#0080a5"/>
      <path id="Path_1073" data-name="Path 1073" d="M239.946,288.041a3.066,3.066,0,0,1-3.053,3.053h-17.78a3.053,3.053,0,0,1-3.053-3.053v-11.7a3.053,3.053,0,0,1,3.053-3.059h17.78a3.059,3.059,0,0,1,3.053,3.059Z" transform="translate(-71.425 -125.877)" fill="#0080a5"/>
      <path id="Path_1074" data-name="Path 1074" d="M280,288.041a3.066,3.066,0,0,1-3.053,3.053H259.159a3.059,3.059,0,0,1-3.059-3.053v-11.7a3.053,3.053,0,0,1,3.059-3.059h17.78a3.059,3.059,0,0,1,3.053,3.059Z" transform="translate(-84.661 -125.877)" fill="#0080a5"/>
      <path id="Path_1075" data-name="Path 1075" d="M199.892,256.3a3.059,3.059,0,0,1-3.053,3.053h-17.78A3.059,3.059,0,0,1,176,256.3V244.589a3.053,3.053,0,0,1,3.059-3.059h17.78a3.059,3.059,0,0,1,3.053,3.053Z" transform="translate(-58.183 -115.381)" fill="#0080a5"/>
      <path id="Path_1076" data-name="Path 1076" d="M239.946,256.3a3.059,3.059,0,0,1-3.053,3.053h-17.78a3.053,3.053,0,0,1-3.053-3.053V244.593a3.053,3.053,0,0,1,3.053-3.053h17.78a3.059,3.059,0,0,1,3.053,3.053Z" transform="translate(-71.425 -115.385)" fill="#0080a5"/>
      <path id="Path_1077" data-name="Path 1077" d="M280,256.3a3.059,3.059,0,0,1-3.053,3.053H259.159A3.053,3.053,0,0,1,256.1,256.3V244.593a3.053,3.053,0,0,1,3.059-3.053h17.78a3.059,3.059,0,0,1,3.053,3.053Z" transform="translate(-84.661 -115.385)" fill="#0080a5"/>
      <path id="Path_1078" data-name="Path 1078" d="M248.585,121.94H172.724a6.694,6.694,0,0,0-6.634,6.735l.817,69.454h87.7l.669-69.454a6.694,6.694,0,0,0-6.688-6.735Z" transform="translate(-54.907 -75.849)" fill="#e6e7e8"/>
      <path id="Path_1079" data-name="Path 1079" d="M167.268,220.191H254.89l.194-16.321H167.02Z" transform="translate(-55.214 -102.932)" fill="#51a62f"/>
      <path id="Path_1080" data-name="Path 1080" d="M248.585,121.94H172.724a6.694,6.694,0,0,0-6.634,6.735l.1,8.8h88.988l.087-8.8a6.694,6.694,0,0,0-6.681-6.735Z" transform="translate(-54.907 -75.849)" fill="#ceccbf"/>
      <path id="Path_1081" data-name="Path 1081" d="M261.541,90.688l.214-17.479A19.722,19.722,0,0,0,252.63,71H156.754A19.7,19.7,0,0,0,147,73.544l.261,17.144Z" transform="translate(-48.597 -59.01)" fill="#383836"/>
      <g id="Group_1358" data-name="Group 1358" transform="translate(163.707 73.678)" opacity="0.7">
        <path id="Path_1082" data-name="Path 1082" d="M247.971,176.646v-4.137a4.733,4.733,0,0,1-2.209-7.156,3.233,3.233,0,0,1,2.209-1.225v-.977h1.165v.977a3.3,3.3,0,0,1,2.008,1.051,4.338,4.338,0,0,1,.984,2.383l-2.042.328a2.008,2.008,0,0,0-.977-1.58v3.863a5.108,5.108,0,0,1,2.557,1.533,4.519,4.519,0,0,1,.8,2.751,4.9,4.9,0,0,1-.91,3.053,3.769,3.769,0,0,1-2.45,1.459v1.848h-1.165v-1.794q-2.912-.422-3.394-4.284l2.115-.274a3.722,3.722,0,0,0,.482,1.339A2.356,2.356,0,0,0,247.971,176.646Zm0-10.363a1.62,1.62,0,0,0-.75.669,1.868,1.868,0,0,0-.295,1.024,1.834,1.834,0,0,0,1.044,1.741Zm1.165,10.5a1.613,1.613,0,0,0,.984-.669,2.155,2.155,0,0,0,.388-1.3,1.854,1.854,0,0,0-1.339-1.888Z" transform="translate(-244.55 -163.15)" fill="#333330"/>
        <path id="Path_1083" data-name="Path 1083" d="M265.888,179.34h-2.269V168.883a7.8,7.8,0,0,1-2.939,2.1v-2.517a6.3,6.3,0,0,0,1.961-1.372,5.356,5.356,0,0,0,1.412-2.276h1.834Z" transform="translate(-249.882 -163.702)" fill="#333330"/>
        <path id="Path_1084" data-name="Path 1084" d="M274.74,167.727V165.15h7.779v2.008a15.239,15.239,0,0,0-1.941,3.28,22.313,22.313,0,0,0-1.52,4.559,20.624,20.624,0,0,0-.536,4.418h-2.189a22.76,22.76,0,0,1,1.024-6.152,22.09,22.09,0,0,1,2.557-5.55Z" transform="translate(-254.53 -163.811)" fill="#333330"/>
      </g>
      <rect id="Rectangle_2548" data-name="Rectangle 2548" width="37.964" height="4.733" transform="translate(117.817 106.554)" fill="#fff"/>
      <rect id="Rectangle_2549" data-name="Rectangle 2549" width="23.825" height="4.733" transform="translate(117.817 51.493)" fill="#58575e" opacity="0.5"/>
      <rect id="Rectangle_2550" data-name="Rectangle 2550" width="11.816" height="4.733" transform="translate(183.489 51.493)" fill="#58575e" opacity="0.5"/>
      <rect id="Rectangle_2551" data-name="Rectangle 2551" width="29.134" height="4.733" transform="translate(162.964 106.554)" fill="#fff"/>
      <path id="Path_1085" data-name="Path 1085" d="M211.35,387.174v-4.827h1.285a3.88,3.88,0,0,1,.937.067,1.058,1.058,0,0,1,.582.475,1.754,1.754,0,0,1,.228.944,1.781,1.781,0,0,1-.194.877,1.145,1.145,0,0,1-.5.5,2.564,2.564,0,0,1-1.018.141h-.522v1.821Zm.8-4.017V384.5h.442a1.928,1.928,0,0,0,.6-.06.542.542,0,0,0,.261-.228.843.843,0,0,0-.007-.81.522.522,0,0,0-.261-.221,2.367,2.367,0,0,0-.669-.054Z" transform="translate(-69.868 -161.929)" fill="#c2b59b"/>
      <path id="Path_1086" data-name="Path 1086" d="M221.23,387.177h-.864l-.348-1.091h-1.6l-.328,1.091h-.85l1.54-4.827h.843Zm-1.473-1.908-.549-1.794-.536,1.794Z" transform="translate(-71.815 -161.931)" fill="#c2b59b"/>
      <path id="Path_1087" data-name="Path 1087" d="M225.516,387.19v-2.008l-1.446-2.792h.937l.931,1.908.917-1.908h.917l-1.453,2.8V387.2Z" transform="translate(-74.073 -161.944)" fill="#c2b59b"/>
      <path id="Path_1088" data-name="Path 1088" d="M231.78,387.177V382.35h1.192l.716,3.294.716-3.294h1.2v4.827h-.743v-3.8l-.79,3.8h-.77l-.783-3.8v3.8Z" transform="translate(-76.622 -161.931)" fill="#c2b59b"/>
      <path id="Path_1089" data-name="Path 1089" d="M240.29,387.177V382.35h2.932v.817H241.08v1.071h2.008v.81H241.08v1.339h2.209v.817Z" transform="translate(-79.435 -161.931)" fill="#c2b59b"/>
      <path id="Path_1090" data-name="Path 1090" d="M247.41,387.177V382.35h.777l1.62,3.22v-3.22h.743v4.827h-.8l-1.593-3.146v3.146Z" transform="translate(-81.788 -161.931)" fill="#c2b59b"/>
      <path id="Path_1091" data-name="Path 1091" d="M255.721,387.173v-4.017H254.55v-.817h3.14v.817h-1.172v4.017Z" transform="translate(-84.149 -161.928)" fill="#c2b59b"/>
      <rect id="Rectangle_2552" data-name="Rectangle 2552" width="82.809" height="2.952" transform="translate(114.791 261.89)" fill="#21211f"/>
      <rect id="Rectangle_2553" data-name="Rectangle 2553" width="82.809" height="2.946" transform="translate(114.791 264.836)" fill="#58575e"/>
      <g id="card" transform="translate(7.769 20.766)" opacity="0.6">
        <path id="Path_1092" data-name="Path 1092" d="M99.8,259.041a7.953,7.953,0,0,0,10.222-4.592l46.733-129.985a7.953,7.953,0,0,0-4.954-10.042L68.988,84.632a7.953,7.953,0,0,0-10.256,4.592L12.025,219.216a7.946,7.946,0,0,0,4.954,10.042Z" transform="translate(-11.611 -84.111)" fill="#025eac"/>
        <path id="Path_1093" data-name="Path 1093" d="M99.8,259.041a7.953,7.953,0,0,0,10.222-4.592l46.733-129.985a7.953,7.953,0,0,0-4.954-10.042L68.988,84.632a7.953,7.953,0,0,0-10.256,4.592L12.025,219.216a7.946,7.946,0,0,0,4.954,10.042Z" transform="translate(-11.611 -84.111)" fill="#333349"/>
      </g>
      <path id="Path_1096" data-name="Path 1096" d="M142.9,53.09a54.024,54.024,0,1,1-54.03,54.028A54.022,54.022,0,0,1,142.9,53.09Z" transform="translate(-29.381 -53.09)" fill="none" stroke="#fff9f0" stroke-miterlimit="10" stroke-width="8.74" opacity="0.5"/>
      <circle id="Ellipse_2756" data-name="Ellipse 2756" cx="36.745" cy="36.745" r="36.745" transform="translate(76.767 17.278)" fill="none" stroke="#fff9f0" stroke-miterlimit="10" stroke-width="11.66" opacity="0.75"/>
      <circle id="Ellipse_2757" data-name="Ellipse 2757" cx="19.461" cy="19.461" r="19.461" transform="translate(94.052 34.563)" fill="none" stroke="#fff9f0" stroke-miterlimit="10" stroke-width="14.57"/>
      <g id="card-2" data-name="card" transform="translate(0 4.16)">
        <path id="Path_1097" data-name="Path 1097" d="M87.089,237.211a7.98,7.98,0,0,0,10.189-4.793L145.122,99.367a7.986,7.986,0,0,0-4.8-10.2L58.5,59.77a7.993,7.993,0,0,0-10.2,4.8L.47,197.607A7.986,7.986,0,0,0,5.277,207.8Z" transform="translate(-0.006 -59.304)" fill="#025eac"/>
        <path id="Path_1098" data-name="Path 1098" d="M87.089,237.211a7.98,7.98,0,0,0,10.189-4.793L145.122,99.367a7.986,7.986,0,0,0-4.8-10.2L58.5,59.77a7.993,7.993,0,0,0-10.2,4.8L.47,197.607A7.986,7.986,0,0,0,5.277,207.8Z" transform="translate(-0.006 -59.304)" fill="url(#linear-gradient-2)"/>
      </g>
      <path id="Path_1099" data-name="Path 1099" d="M44.5,259.566a6.025,6.025,0,0,1-.428,2.383c-1.084,3.026-3.535,3.909-6.025,3.012a4.746,4.746,0,0,1-2.932-6.453,5.5,5.5,0,0,1,1.165-2.008l1.426.971a4.512,4.512,0,0,0-.924,1.546,2.8,2.8,0,0,0,1.894,3.836,2.767,2.767,0,0,0,3.863-1.774,5.288,5.288,0,0,0,.308-1.754Z" transform="translate(-11.49 -120.33)" fill="#383836"/>
      <path id="Path_1100" data-name="Path 1100" d="M38.31,249.548a18.4,18.4,0,0,1,.763-2.678,4.775,4.775,0,0,1,1.707-2.584,2.356,2.356,0,0,1,2.122-.147,2.47,2.47,0,0,1,1.6,2.323h.04a2.35,2.35,0,0,1,2.055-.582c1.084.08,2.323.221,2.725.174l-.73,2.008a11.6,11.6,0,0,1-2.256-.12c-1.172-.161-1.607.107-1.908.91l-.214.6,3.434,1.232-.7,2.008Zm4.472-.609.281-.777c.355-.984.074-1.747-.669-2.008s-1.406.114-1.741,1.018a5.284,5.284,0,0,0-.254.917Z" transform="translate(-12.668 -116.182)" fill="#383836"/>
      <path id="Path_1101" data-name="Path 1101" d="M50.025,232.368l-1.158,3.22,2.075.75,1.292-3.595,1.62.582-2.008,5.583-8.756-3.146,1.941-5.4,1.62.582-1.232,3.414,1.821.669,1.145-3.24Z" transform="translate(-14.248 -111.689)" fill="#383836"/>
      <path id="Path_1102" data-name="Path 1102" d="M47.84,222.532a18.747,18.747,0,0,1,.777-2.738,5.993,5.993,0,0,1,2.223-3.247,4.11,4.11,0,0,1,3.829-.295,4.72,4.72,0,0,1,3.026,2.731,6.677,6.677,0,0,1-.321,4.445,18.436,18.436,0,0,1-.937,2.2Zm7.859.582a3.855,3.855,0,0,0,.288-.669c.669-1.787.094-3.314-2.008-4.064a2.666,2.666,0,0,0-3.769,1.754,4.412,4.412,0,0,0-.248.924Z" transform="translate(-15.818 -106.913)" fill="#383836"/>
      <path id="Path_1103" data-name="Path 1103" d="M54.216,206.55l8.756,3.146-.716,2.008L53.5,208.558Z" transform="translate(-17.689 -103.818)" fill="#383836"/>
      <path id="Path_1104" data-name="Path 1104" d="M58.614,197.21l-.843,2.35-1.66-.6,2.417-6.694,1.66.6-.857,2.39,7.089,2.551-.716,2.008Z" transform="translate(-18.552 -99.098)" fill="#383836"/>
      <path id="Path_1105" data-name="Path 1105" d="M76.946,169.326a6.025,6.025,0,0,1-.428,2.383c-1.091,3.026-3.535,3.91-6.025,3.012a4.746,4.746,0,0,1-2.932-6.453,5.5,5.5,0,0,1,1.165-2.008l1.426.971a4.538,4.538,0,0,0-.924,1.533,2.8,2.8,0,0,0,1.895,3.836,2.767,2.767,0,0,0,3.863-1.774,5.255,5.255,0,0,0,.308-1.754Z" transform="translate(-22.217 -90.5)" fill="#383836"/>
      <path id="Path_1106" data-name="Path 1106" d="M78.39,159.434l2.008,1.433-.736,2.055L71.87,157.1l.931-2.6,9.727.435-.763,2.129-2.49-.134Zm-.669-2.751-2.055-.121c-.576,0-1.279-.107-1.848-.167h0c.475.315,1.091.669,1.54,1.011l1.674,1.185Z" transform="translate(-23.761 -86.612)" fill="#383836"/>
      <path id="Path_1107" data-name="Path 1107" d="M76.52,143.238a18.431,18.431,0,0,1,.763-2.678,4.775,4.775,0,0,1,1.707-2.584,2.363,2.363,0,0,1,2.122-.147,2.47,2.47,0,0,1,1.6,2.323h.04a2.35,2.35,0,0,1,2.055-.582c1.084.08,2.323.221,2.725.174l-.73,2.008a11.61,11.61,0,0,1-2.256-.12c-1.172-.161-1.607.107-1.908.91l-.214.6,3.441,1.238-.7,1.961Zm4.472-.609.281-.777c.355-.984.074-1.747-.669-2.008s-1.406.114-1.741,1.018a5.284,5.284,0,0,0-.254.917Z" transform="translate(-25.298 -81.041)" fill="#383836"/>
      <path id="Path_1108" data-name="Path 1108" d="M81.63,128.562a18.742,18.742,0,0,1,.783-2.738,5.993,5.993,0,0,1,2.223-3.247,4.117,4.117,0,0,1,3.829-.295,4.686,4.686,0,0,1,3.026,2.731,6.677,6.677,0,0,1-.321,4.445,18.315,18.315,0,0,1-.937,2.2Zm7.859.582a3.836,3.836,0,0,0,.288-.669c.669-1.787.094-3.314-2.008-4.063A2.668,2.668,0,0,0,84,126.165a4.426,4.426,0,0,0-.248.924Z" transform="translate(-26.988 -75.851)" fill="#383836"/>
      <g id="Group_1359" data-name="Group 1359" transform="translate(49.953 32.672)" opacity="0.6">
        <path id="Path_1109" data-name="Path 1109" d="M83.143,283.3a.867.867,0,1,1-1.633-.582l.422-1.2-5.195-1.848-.415,1.172a.884.884,0,0,1-1.125.522.857.857,0,0,1-.522-1.1l1-2.812,6.835,2.43.12-.341-1.741-.616a.879.879,0,0,1,.576-1.66l2.564.91a.89.89,0,0,1,.522,1.125Z" transform="translate(-74.625 -159.85)" fill="#333349"/>
        <path id="Path_1110" data-name="Path 1110" d="M86.62,272.835,82.864,271.5a1.412,1.412,0,0,1-.85-1.774l.951-2.678-1.754-.623-1.138,3.2a.89.89,0,0,1-1.125.522.857.857,0,0,1-.515-1.111l1.259-3.5a1.413,1.413,0,0,1,1.781-.877l2.39.877a1.392,1.392,0,0,1,.864,1.774l-.957,2.678,1.8.669,1.131-3.187a.877.877,0,0,1,1.085-.529.857.857,0,0,1,.549,1.1Z" transform="translate(-75.865 -155.673)" fill="#333349"/>
        <path id="Path_1111" data-name="Path 1111" d="M90.789,261.183a.864.864,0,0,1-1.111.529.843.843,0,0,1-.515-1.111l1.118-3.153-1.62-.576a.208.208,0,0,0-.241.107l-.71,2.008a.917.917,0,0,1-1.111.529.877.877,0,0,1-.529-1.111l.716-2.008a.194.194,0,0,0-.114-.214l-1.58-.562-1.138,3.2a.89.89,0,0,1-1.125.522.864.864,0,0,1-.515-1.111l1.252-3.528a1.413,1.413,0,0,1,1.761-.857l1.874.669a1.768,1.768,0,0,1,.944.669,1.828,1.828,0,0,1,1.111.054l1.941.669a1.406,1.406,0,0,1,.837,1.781Z" transform="translate(-77.149 -152.102)" fill="#333349"/>
        <path id="Path_1112" data-name="Path 1112" d="M92.685,248.147l-1.058,2.972-5.074-1.807a.87.87,0,0,1-.536-1.1.9.9,0,0,1,1.118-.542l3.428,1.218.475-1.339-2.564-.91a.857.857,0,0,1-.542-1.1.877.877,0,0,1,1.138-.562l2.678.944a.864.864,0,0,1,.924-.228.877.877,0,0,1,.582.763l1.814.669a.857.857,0,0,1,.529,1.111.87.87,0,0,1-1.111.529Z" transform="translate(-78.376 -149.174)" fill="#333349"/>
        <path id="Path_1113" data-name="Path 1113" d="M100.965,233a2.008,2.008,0,0,1-.449.723l-.562.629a.81.81,0,0,1-.964.228.884.884,0,0,1-.536-1.058,1.051,1.051,0,0,1,.274-.435l.6-.669.669-1.955-1.8-.669-1.058,2.972-4.191-1.493-.542-1.145,1.064-2.919a.87.87,0,1,1,1.64.582l-.763,2.149,1.761.629.589-1.654a1.453,1.453,0,0,1,1.774-.864l2.45.87a1.413,1.413,0,0,1,.83,1.794Z" transform="translate(-80.504 -143.129)" fill="#333349"/>
        <path id="Path_1114" data-name="Path 1114" d="M104.2,224.107a.9.9,0,0,1-1.1.542l-6.848-2.437a.864.864,0,0,1-.515-1.118l.174-.5a.9.9,0,0,1,1.1-.522.931.931,0,0,1,.589.756l2.678.957,1.118-3.153a.9.9,0,0,1,1.111-.529l2.564.91a.884.884,0,0,1,.522,1.125Zm-1.439-4.077-.83,2.343.931.328.83-2.343Z" transform="translate(-81.584 -140.297)" fill="#333349"/>
        <path id="Path_1115" data-name="Path 1115" d="M104.306,212.5a.924.924,0,0,1-.6-.536l-.837-2.229-1.339-.489-.87,2.437a.844.844,0,0,1,.154.87.87.87,0,0,1-1.111.529l-.408-.147a.837.837,0,0,1-.529-1.111l1.707-4.807,3.347,1.2a.877.877,0,0,1,.529.529l.87,2.216,2.149.763a.9.9,0,0,1,.549,1.1.877.877,0,0,1-1.111.556Z" transform="translate(-82.586 -136.646)" fill="#333349"/>
        <path id="Path_1116" data-name="Path 1116" d="M111.036,205.1a1.419,1.419,0,0,1-1.787.864l-2.437-.87a1.406,1.406,0,0,1-.9-1.453l-2.678-.944a.864.864,0,0,1-.529-1.085l.723-2.008a.877.877,0,0,1,1.1-.522l2.678.937a1.372,1.372,0,0,1,1.607-.542l2.45.87a1.412,1.412,0,0,1,.843,1.767Zm-6.226-4.1-.134.375,1.761.629.134-.375Zm3.749.208-.837,2.343,1.8.669.83-2.343Z" transform="translate(-83.894 -134.005)" fill="#333349"/>
        <path id="Path_1117" data-name="Path 1117" d="M118,184.564a.85.85,0,0,1-1.1.5.777.777,0,0,1-.562-.743l-2.718-.964-1.125,3.166a.877.877,0,0,1-1.1.536l-2.571-.917a.864.864,0,0,1-.529-1.111l1.413-3.976a.89.89,0,0,1,1.111-.529l6.835,2.43a.857.857,0,0,1,.529,1.111Zm-6.929-2.136-.837,2.356.884.315.837-2.356Z" transform="translate(-85.734 -127.873)" fill="#333349"/>
        <path id="Path_1118" data-name="Path 1118" d="M120.865,176.792a1.339,1.339,0,0,1-1.741.837l-5.9-2.1a1.392,1.392,0,0,1-.817-1.747l1.1-3.093a1.379,1.379,0,0,1,1.727-.8l5.9,2.1a1.339,1.339,0,0,1,.83,1.727Zm-5.844-5.141-.837,2.356,5.181,1.841.837-2.356Z" transform="translate(-87.088 -124.345)" fill="#333349"/>
        <path id="Path_1119" data-name="Path 1119" d="M124.463,167.118a.867.867,0,0,1-1.633-.582l.422-1.2-5.195-1.848-.415,1.172a.884.884,0,0,1-1.125.522.857.857,0,0,1-.522-1.1l1-2.812,6.842,2.41.121-.341-1.741-.616a.879.879,0,1,1,.576-1.66l2.557.944a.89.89,0,0,1,.522,1.125Z" transform="translate(-88.284 -121.439)" fill="#333349"/>
        <path id="Path_1120" data-name="Path 1120" d="M127.93,156.673l-3.756-1.339a1.412,1.412,0,0,1-.85-1.774l.951-2.678-1.754-.623-1.138,3.2a.89.89,0,0,1-1.125.522.857.857,0,0,1-.515-1.111L121,149.329a1.406,1.406,0,0,1,1.754-.843l2.417.857a1.392,1.392,0,0,1,.864,1.774l-.957,2.678,1.8.669,1.131-3.187a.884.884,0,0,1,1.084-.529.857.857,0,0,1,.542,1.1Z" transform="translate(-89.521 -117.273)" fill="#333349"/>
        <path id="Path_1121" data-name="Path 1121" d="M134.529,138.16a.864.864,0,0,1-1.111.529.844.844,0,0,1-.515-1.111l1.118-3.153-1.62-.576a.207.207,0,0,0-.241.107l-.71,2.008a.917.917,0,0,1-1.111.529.877.877,0,0,1-.529-1.111l.716-2.008a.194.194,0,0,0-.114-.221l-1.58-.562-1.138,3.2a.89.89,0,0,1-1.125.522.864.864,0,0,1-.515-1.111l1.252-3.528a1.413,1.413,0,0,1,1.761-.857l1.874.669a1.767,1.767,0,0,1,.944.669,1.828,1.828,0,0,1,1.111.054l1.941.669a1.406,1.406,0,0,1,.837,1.781Z" transform="translate(-91.607 -111.433)" fill="#333349"/>
        <path id="Path_1122" data-name="Path 1122" d="M136.464,125.139l-1.058,2.972-5.074-1.8a.87.87,0,0,1-.536-1.1.9.9,0,0,1,1.118-.542l3.428,1.218.475-1.339-2.564-.91a.857.857,0,0,1-.542-1.1.877.877,0,0,1,1.118-.542l2.678.937a.864.864,0,0,1,.924-.228.877.877,0,0,1,.582.763l1.814.669a.857.857,0,0,1,.529,1.111.87.87,0,0,1-1.111.529Z" transform="translate(-92.847 -108.52)" fill="#333349"/>
        <path id="Path_1123" data-name="Path 1123" d="M142.285,116.831a2.008,2.008,0,0,1-.449.723l-.562.616a.81.81,0,0,1-.964.228.89.89,0,0,1-.536-1.064,1.058,1.058,0,0,1,.274-.435l.6-.669.669-1.955-1.8-.669-1.058,2.972-4.191-1.493-.542-1.145,1.051-2.946a.87.87,0,1,1,1.64.582l-.763,2.149,1.761.629.589-1.654a1.453,1.453,0,0,1,1.774-.864l2.45.87a1.406,1.406,0,0,1,.83,1.794Z" transform="translate(-94.163 -104.711)" fill="#333349"/>
        <path id="Path_1124" data-name="Path 1124" d="M145.52,107.943a.9.9,0,0,1-1.1.542l-6.848-2.437a.864.864,0,0,1-.515-1.125l.174-.5a.9.9,0,0,1,1.1-.522.931.931,0,0,1,.589.756l2.678.957,1.118-3.153a.9.9,0,0,1,1.111-.529l2.564.91a.884.884,0,0,1,.522,1.125Zm-1.446-4.05-.837,2.343.931.328.837-2.343Z" transform="translate(-95.241 -101.895)" fill="#333349"/>
      </g>
      <path id="Path_1125" data-name="Path 1125" d="M82.343,282.164a.867.867,0,0,1-1.633-.582l.422-1.2-5.175-1.841-.415,1.172a.884.884,0,0,1-1.125.522.857.857,0,0,1-.522-1.1l1-2.812,6.835,2.43.12-.335-1.741-.616a.879.879,0,0,1,.576-1.66l2.564.91a.89.89,0,0,1,.522,1.125Z" transform="translate(-24.414 -126.808)" fill="#fff"/>
      <path id="Path_1126" data-name="Path 1126" d="M85.8,271.71l-3.756-1.339A1.413,1.413,0,0,1,81.2,268.6l.951-2.678L80.4,265.3l-1.138,3.213a.89.89,0,0,1-1.125.522.85.85,0,0,1-.515-1.111l1.259-3.541a1.412,1.412,0,0,1,1.754-.843l2.417.857a1.392,1.392,0,0,1,.83,1.767l-.957,2.678,1.8.669,1.165-3.2a.884.884,0,0,1,1.084-.529.857.857,0,0,1,.542,1.1Z" transform="translate(-25.644 -122.633)" fill="#fff"/>
      <path id="Path_1127" data-name="Path 1127" d="M89.972,260.033a.864.864,0,0,1-1.111.529.844.844,0,0,1-.515-1.111l1.118-3.153-1.613-.569a.208.208,0,0,0-.241.107l-.71,2.008a.917.917,0,0,1-1.111.529.884.884,0,0,1-.529-1.111l.716-2.008a.194.194,0,0,0-.114-.214l-1.58-.562-1.118,3.166a.89.89,0,0,1-1.125.522.864.864,0,0,1-.515-1.111l1.218-3.514a1.413,1.413,0,0,1,1.761-.864l1.874.669a1.768,1.768,0,0,1,.944.669,1.828,1.828,0,0,1,1.111.054l1.948.669a1.406,1.406,0,0,1,.817,1.807Z" transform="translate(-26.935 -119.043)" fill="#fff"/>
      <path id="Path_1128" data-name="Path 1128" d="M91.894,247.021l-1.058,2.946-5.074-1.807a.87.87,0,0,1-.536-1.1.9.9,0,0,1,1.118-.542l3.4,1.258.475-1.339-2.564-.91a.857.857,0,0,1-.542-1.1.87.87,0,0,1,1.118-.542l2.678.944a.864.864,0,0,1,.924-.228.877.877,0,0,1,.582.763l1.814.669a.857.857,0,0,1,.529,1.111.87.87,0,0,1-1.111.529Z" transform="translate(-28.161 -116.14)" fill="#fff"/>
      <path id="Path_1129" data-name="Path 1129" d="M100.145,231.838a2.008,2.008,0,0,1-.449.723l-.562.629a.81.81,0,0,1-.964.228.89.89,0,0,1-.536-1.064,1.05,1.05,0,0,1,.274-.435l.6-.669.669-1.955-1.8-.669L96.323,231.6,92.132,230.1l-.542-1.145,1.051-2.946a.87.87,0,1,1,1.64.582l-.763,2.149,1.761.629.589-1.654a1.453,1.453,0,0,1,1.774-.864l2.45.87a1.406,1.406,0,0,1,.83,1.794Z" transform="translate(-30.28 -110.061)" fill="#fff"/>
      <path id="Path_1130" data-name="Path 1130" d="M103.381,223.017a.9.9,0,0,1-1.1.542l-6.848-2.437A.864.864,0,0,1,94.912,220l.174-.5a.9.9,0,0,1,1.1-.522.937.937,0,0,1,.589.756l2.678.957,1.118-3.153a.9.9,0,0,1,1.111-.529l2.564.91a.884.884,0,0,1,.522,1.125Zm-1.446-4.05-.837,2.343.931.328.837-2.343Z" transform="translate(-31.36 -107.264)" fill="#fff"/>
      <path id="Path_1131" data-name="Path 1131" d="M103.485,211.363a.924.924,0,0,1-.6-.536l-.837-2.229-1.339-.489-.87,2.437a.843.843,0,0,1,.154.87.87.87,0,0,1-1.111.529l-.408-.147a.83.83,0,0,1-.529-1.111l1.707-4.807,3.347,1.2a.877.877,0,0,1,.536.529l.87,2.216,2.149.763a.91.91,0,0,1,.542,1.1.877.877,0,0,1-1.111.556Z" transform="translate(-32.361 -103.597)" fill="#fff"/>
      <path id="Path_1132" data-name="Path 1132" d="M110.213,203.956a1.419,1.419,0,0,1-1.787.864l-2.443-.87a1.406,1.406,0,0,1-.9-1.453l-2.678-.944a.864.864,0,0,1-.529-1.084l.723-2.008a.877.877,0,0,1,1.1-.522l2.678.944a1.372,1.372,0,0,1,1.607-.542l2.45.87a1.412,1.412,0,0,1,.837,1.767Zm-6.226-4.1-.134.375,1.761.629.134-.375Zm3.749.208L106.9,202.4l1.8.669.837-2.343Z" transform="translate(-33.666 -100.956)" fill="#fff"/>
      <path id="Path_1133" data-name="Path 1133" d="M117.178,183.424a.85.85,0,0,1-1.1.5.777.777,0,0,1-.562-.743l-2.718-.964-1.125,3.166a.877.877,0,0,1-1.1.536L107.993,185a.864.864,0,0,1-.529-1.111l1.413-3.976a.89.89,0,0,1,1.111-.529l6.842,2.4a.857.857,0,0,1,.529,1.111Zm-6.929-2.135-.837,2.356.884.315.837-2.356Z" transform="translate(-35.51 -94.824)" fill="#fff"/>
      <path id="Path_1134" data-name="Path 1134" d="M120.045,175.652a1.339,1.339,0,0,1-1.741.837l-5.9-2.1a1.392,1.392,0,0,1-.817-1.747l1.1-3.093a1.379,1.379,0,0,1,1.727-.8l5.9,2.1a1.339,1.339,0,0,1,.83,1.727Zm-5.844-5.141-.837,2.356,5.168,1.848.837-2.356Z" transform="translate(-36.864 -91.297)" fill="#fff"/>
      <path id="Path_1135" data-name="Path 1135" d="M123.647,166a.867.867,0,1,1-1.633-.582l.428-1.192-5.195-1.848-.415,1.172a.884.884,0,0,1-1.125.522.857.857,0,0,1-.522-1.1l1-2.812,6.835,2.43.12-.335-1.741-.616a.879.879,0,0,1,.576-1.66l2.564.91a.89.89,0,0,1,.542,1.091Z" transform="translate(-38.063 -88.41)" fill="#fff"/>
      <path id="Path_1136" data-name="Path 1136" d="M127.119,155.533l-3.756-1.339a1.412,1.412,0,0,1-.85-1.774l.951-2.678-1.754-.623-1.138,3.2a.89.89,0,0,1-1.125.522.85.85,0,0,1-.515-1.111l1.259-3.541a1.412,1.412,0,0,1,1.754-.843l2.417.857a1.392,1.392,0,0,1,.864,1.774l-.957,2.678,1.8.669,1.131-3.187a.884.884,0,0,1,1.084-.529.857.857,0,0,1,.542,1.1Z" transform="translate(-39.299 -84.225)" fill="#fff"/>
      <path id="Path_1137" data-name="Path 1137" d="M133.709,137.02a.864.864,0,0,1-1.111.529.844.844,0,0,1-.515-1.111l1.118-3.153-1.62-.576a.208.208,0,0,0-.241.107l-.71,2.008a.917.917,0,0,1-1.111.529.884.884,0,0,1-.529-1.111l.716-2.008a.194.194,0,0,0-.114-.221l-1.58-.562-1.138,3.2a.89.89,0,0,1-1.125.522.864.864,0,0,1-.515-1.111l1.252-3.528a1.413,1.413,0,0,1,1.761-.857l1.874.669a1.774,1.774,0,0,1,.944.669,1.814,1.814,0,0,1,1.111.054l1.948.669a1.406,1.406,0,0,1,.837,1.781Z" transform="translate(-41.384 -78.384)" fill="#fff"/>
      <path id="Path_1138" data-name="Path 1138" d="M135.675,123.991,134.6,126.95l-5.074-1.807a.87.87,0,0,1-.536-1.1.9.9,0,0,1,1.118-.542l3.428,1.218.475-1.339-2.557-.91a.857.857,0,0,1-.542-1.1.87.87,0,0,1,1.118-.542l2.678.944a.864.864,0,0,1,.924-.228.877.877,0,0,1,.582.763l1.814.669a.857.857,0,0,1,.529,1.111.87.87,0,0,1-1.111.529Z" transform="translate(-42.627 -75.464)" fill="#fff"/>
      <path id="Path_1139" data-name="Path 1139" d="M141.5,115.7a2.009,2.009,0,0,1-.449.723l-.562.629a.81.81,0,0,1-.964.228.89.89,0,0,1-.536-1.058,1.058,1.058,0,0,1,.274-.435l.6-.669.669-1.955-1.8-.669-1.044,3L133.5,114l-.5-1.145,1.051-2.946a.87.87,0,1,1,1.64.582l-.763,2.149,1.761.629.589-1.654a1.453,1.453,0,0,1,1.774-.864l2.45.87a1.413,1.413,0,0,1,.83,1.794Z" transform="translate(-43.969 -71.682)" fill="#fff"/>
      <path id="Path_1140" data-name="Path 1140" d="M144.691,106.82a.9.9,0,0,1-1.1.549l-6.868-2.417a.864.864,0,0,1-.515-1.118l.174-.5a.9.9,0,0,1,1.1-.522.931.931,0,0,1,.589.756l2.678.957,1.118-3.153a.9.9,0,0,1,1.111-.529l2.564.91a.884.884,0,0,1,.522,1.125Zm-1.446-4.05-.837,2.343.931.328.837-2.343Z" transform="translate(-45.009 -68.863)" fill="#fff"/>
      <path id="Path_1141" data-name="Path 1141" d="M170.778,130.75a8.522,8.522,0,1,1-10.9,5.128A8.522,8.522,0,0,1,170.778,130.75Z" transform="translate(-52.686 -78.594)" fill="#f9ed32"/>
      <path id="Path_1142" data-name="Path 1142" d="M176.189,115.7a8.522,8.522,0,1,1-10.9,5.135A8.522,8.522,0,0,1,176.189,115.7Z" transform="translate(-54.475 -73.62)" fill="#fbb040"/>
      <path id="Path_1143" data-name="Path 1143" d="M170.671,136.712a8.522,8.522,0,0,0,7.31-.736,8.529,8.529,0,0,0-12.472-4.485,8.482,8.482,0,0,0,5.161,5.222Z" transform="translate(-54.715 -78.598)" fill="#f7941e"/>
      <path id="Path_1144" data-name="Path 1144" d="M170.638,114.317a8.522,8.522,0,0,1,4.425,15.8h0a8.522,8.522,0,1,1-12.472-4.485h0a8.515,8.515,0,0,1,8.033-11.313m0-1.787a10.3,10.3,0,0,0-10.082,12.365,10.309,10.309,0,1,0,16.569,5.958,10.308,10.308,0,0,0-6.473-18.322Z" transform="translate(-51.804 -72.739)" fill="#fffbf8"/>
      <path id="Path_1145" data-name="Path 1145" d="M28.428,149.91.58,227.344a7.986,7.986,0,0,0,4.813,10.2L87.2,266.954a7.986,7.986,0,0,0,10.2-4.8l14.975-41.646Z" transform="translate(-0.041 -85.095)" fill="#fff" opacity="0.1"/>
      <rect id="Rectangle_2554" data-name="Rectangle 2554" width="19.039" height="7.136" transform="matrix(0.338, -0.941, 0.941, 0.338, 78.039, 159.513)" fill="#f3f4f5"/>
      <rect id="Rectangle_2555" data-name="Rectangle 2555" width="19.045" height="7.136" transform="matrix(0.339, -0.941, 0.941, 0.339, 86.108, 137.067)" fill="#f3f4f5"/>
      <path id="Path_1146" data-name="Path 1146" d="M92.25,87.259a17.626,17.626,0,0,1,15.29,5.436" transform="translate(-30.498 -64.33)" fill="none" stroke="#fffbf8" stroke-miterlimit="10" stroke-width="2.7"/>
      <path id="Path_1147" data-name="Path 1147" d="M92.6,93.109a14.848,14.848,0,0,1,12.418,4.418" transform="translate(-30.614 -66.285)" fill="none" stroke="#fffbf8" stroke-miterlimit="10" stroke-width="2.7"/>
      <path id="Path_1148" data-name="Path 1148" d="M92.91,98.973a12.016,12.016,0,0,1,9.566,3.4" transform="translate(-30.716 -68.24)" fill="none" stroke="#fffbf8" stroke-miterlimit="10" stroke-width="2.7"/>
      <path id="Path_1149" data-name="Path 1149" d="M93.22,104.833a9.232,9.232,0,0,1,6.694,2.37" transform="translate(-30.819 -70.19)" fill="none" stroke="#fffbf8" stroke-miterlimit="10" stroke-width="2.7"/>
    </g>
  </g>
</svg>
