<svg xmlns="http://www.w3.org/2000/svg" xmlns:xlink="http://www.w3.org/1999/xlink" width="43.116" height="66.059" viewBox="0 0 43.116 66.059">
  <defs>
    <linearGradient id="linear-gradient" x1="1" y1="-0.112" x2="0.165" y2="1" gradientUnits="objectBoundingBox">
      <stop offset="0" stop-color="#38f9d7"/>
      <stop offset="1" stop-color="#43e97b"/>
    </linearGradient>
  </defs>
  <path id="Path_964" data-name="Path 964" d="M144.445,6.1H140.2V2.12A2.121,2.121,0,0,0,138.084,0h-20.5a2.121,2.121,0,0,0-2.121,2.12V6.1h-4.241a4.947,4.947,0,0,0-4.948,4.948V61.111a4.947,4.947,0,0,0,4.948,4.948h33.22a4.947,4.947,0,0,0,4.948-4.948V11.043A4.948,4.948,0,0,0,144.445,6.1ZM133.49,11.043v-6.8h2.474V15.726H133.49Zm-13.783,0v-6.8h7.775V15.726h-7.775V11.043ZM121,60.254a2.121,2.121,0,0,1-2.121,2.121h-3.417a2.12,2.12,0,0,1-2.121-2.121V56.6a2.12,2.12,0,0,1,2.121-2.12h3.417A2.12,2.12,0,0,1,121,56.6v3.65Zm0-10.662a2.12,2.12,0,0,1-2.121,2.12h-3.417a2.12,2.12,0,0,1-2.121-2.12v-3.65a2.121,2.121,0,0,1,2.121-2.121h3.417A2.12,2.12,0,0,1,121,45.943v3.65Zm0-10.66a2.121,2.121,0,0,1-2.121,2.121h-3.417a2.12,2.12,0,0,1-2.121-2.121V35.281a2.12,2.12,0,0,1,2.121-2.121h3.417A2.12,2.12,0,0,1,121,35.281v3.651Zm10.661,21.322a2.12,2.12,0,0,1-2.12,2.121h-3.418a2.12,2.12,0,0,1-2.12-2.121V56.6a2.12,2.12,0,0,1,2.12-2.12h3.418a2.12,2.12,0,0,1,2.12,2.12Zm0-10.662a2.12,2.12,0,0,1-2.12,2.12h-3.418a2.12,2.12,0,0,1-2.12-2.12v-3.65a2.12,2.12,0,0,1,2.12-2.121h3.418a2.12,2.12,0,0,1,2.12,2.121Zm0-10.66a2.12,2.12,0,0,1-2.12,2.121h-3.418a2.12,2.12,0,0,1-2.12-2.121V35.281a2.12,2.12,0,0,1,2.12-2.121h3.418a2.12,2.12,0,0,1,2.12,2.121Zm10.661,21.322a2.121,2.121,0,0,1-2.121,2.121h-3.417a2.12,2.12,0,0,1-2.12-2.121V56.6a2.12,2.12,0,0,1,2.12-2.12H140.2a2.12,2.12,0,0,1,2.121,2.12Zm0-10.662a2.12,2.12,0,0,1-2.121,2.12h-3.417a2.12,2.12,0,0,1-2.12-2.12v-3.65a2.121,2.121,0,0,1,2.12-2.121H140.2a2.12,2.12,0,0,1,2.121,2.121Zm0-10.66a2.121,2.121,0,0,1-2.121,2.121h-3.417a2.12,2.12,0,0,1-2.12-2.121V35.281a2.12,2.12,0,0,1,2.12-2.121H140.2a2.12,2.12,0,0,1,2.121,2.121Zm0-12.382a3.623,3.623,0,0,1-3.623,3.622H116.967a3.622,3.622,0,0,1-3.622-3.622V22.809a3.622,3.622,0,0,1,3.622-3.623H138.7a3.623,3.623,0,0,1,3.623,3.623v3.742Z" transform="translate(-106.277 0)" fill="url(#linear-gradient)"/>
</svg>
