<svg xmlns="http://www.w3.org/2000/svg" xmlns:xlink="http://www.w3.org/1999/xlink" width="85.853" height="85.852" viewBox="0 0 85.853 85.852">
  <defs>
    <linearGradient id="linear-gradient" x1="1.122" y1="-0.085" x2="-0.271" y2="1.09" gradientUnits="objectBoundingBox">
      <stop offset="0" stop-color="#66a6ff"/>
      <stop offset="1" stop-color="#89f7fe"/>
    </linearGradient>
  </defs>
  <g id="Group_1901" data-name="Group 1901" transform="translate(-144 -702.039)">
    <circle id="Ellipse_2735" data-name="Ellipse 2735" cx="42.926" cy="42.926" r="42.926" transform="translate(144 702.039)" fill="url(#linear-gradient)"/>
    <g id="credit-card-and-machine" transform="translate(164 675.107)">
      <g id="Group_1273" data-name="Group 1273" transform="translate(0 53.673)">
        <g id="Group_1270" data-name="Group 1270" transform="translate(1.729 6.578)">
          <path id="Path_961" data-name="Path 961" d="M27.27,117.776a1.387,1.387,0,0,0-1.3.817l-9.094,29.433c-.139.45.215.817.79.817H34.716l9.6-31.067H27.27Zm-.49,27.7H23.438l3.033-9.814h3.341Z" transform="translate(-16.848 -117.775)" fill="#fff"/>
        </g>
        <g id="Group_1271" data-name="Group 1271">
          <path id="Path_962" data-name="Path 962" d="M0,53.673v9.534H7.622L8.68,59.783a3.315,3.315,0,0,1,3.1-1.955H39.623c1.376,0,2.225.877,1.893,1.955l-1.059,3.424h8.205V53.673Z" transform="translate(0 -53.673)" fill="#fff"/>
        </g>
        <g id="Group_1272" data-name="Group 1272" transform="translate(23.356 6.579)">
          <path id="Path_963" data-name="Path 963" d="M241.983,117.783h-4.8l-9.6,31.066h4.8a1.383,1.383,0,0,0,1.295-.817l9.1-29.434C242.912,118.149,242.558,117.783,241.983,117.783Z" transform="translate(-227.583 -117.783)" fill="#fff"/>
        </g>
      </g>
    </g>
  </g>
</svg>
