<svg xmlns="http://www.w3.org/2000/svg" xmlns:xlink="http://www.w3.org/1999/xlink" width="661.345" height="483.567" viewBox="0 0 661.345 483.567">
  <defs>
    <filter id="Path_89" x="0" y="0" width="661.345" height="483.567" filterUnits="userSpaceOnUse">
      <feOffset dx="10" dy="10" input="SourceAlpha"/>
      <feGaussianBlur stdDeviation="17.5" result="blur"/>
      <feFlood flood-opacity="0.102"/>
      <feComposite operator="in" in2="blur"/>
      <feComposite in="SourceGraphic"/>
    </filter>
  </defs>
  <g id="Group_1234" data-name="Group 1234" transform="translate(-1743.61 -6403.769)">
    <g id="undraw_revenue_3osh" transform="translate(1786.11 6445.142)">
      <path id="Path_28" data-name="Path 28" d="M1020.78,148.92l.092.254c-12.33,15.69-27.874,34.417-40.3,48.288-1.179,1.326-2.358,2.713-3.491,4.131l-.354-.285c1.141-1.426,2.312-2.821,3.506-4.146C992.659,183.3,1008.442,164.61,1020.78,148.92Z" transform="translate(-480.916 -148.909)" fill="#444053"/>
      <path id="Path_29" data-name="Path 29" d="M968.583,216.41l.247.424c-22.611,28.229-24.106,72.063-24.16,72.44l-4.77-5.5C939.977,283.386,945.811,244.839,968.583,216.41Z" transform="translate(-472.468 -164.389)" fill="#444053"/>
      <path id="Path_33" data-name="Path 33" d="M1035.383,303.21s-18.349-15.228-12.261-41.83" transform="translate(-491.272 -190.473)" fill="none" stroke="#444053" stroke-miterlimit="10" stroke-width="1"/>
      <path id="Path_34" data-name="Path 34" d="M989.346,293.41s-12.23-25.624-1.349-42.3" transform="translate(-482.466 -186.694)" fill="none" stroke="#444053" stroke-miterlimit="10" stroke-width="1"/>
      <path id="Path_37" data-name="Path 37" d="M1051.7,211.5s-16.907,20.877-15.675,39.85" transform="translate(-494.5 -163.262)" fill="none" stroke="#444053" stroke-miterlimit="10" stroke-width="1"/>
      <path id="Path_38" data-name="Path 38" d="M1013.585,222.12s-16.8,16.06-14.642,24.992" transform="translate(-485.967 -165.698)" fill="none" stroke="#444053" stroke-miterlimit="10" stroke-width="1"/>
      <path id="Path_39" data-name="Path 39" d="M999.456,214.072S983.7,216.9,981.5,211.76" transform="translate(-482.01 -163.322)" fill="none" stroke="#444053" stroke-miterlimit="10" stroke-width="1"/>
      <path id="Path_40" data-name="Path 40" d="M978.24,190.08s7.961,10.542,10.018,8.184" transform="translate(-481.262 -158.35)" fill="none" stroke="#444053" stroke-miterlimit="10" stroke-width="1"/>
      <path id="Path_47" data-name="Path 47" d="M957.467,201.55s-.046,23.574-6.427,25.246" transform="translate(-475.023 -160.98)" fill="none" stroke="#444053" stroke-miterlimit="10" stroke-width="1"/>
      <path id="Path_48" data-name="Path 48" d="M891.3,237.928S916.785,240.1,928.537,227" transform="translate(-461.322 -166.818)" fill="none" stroke="#444053" stroke-miterlimit="10" stroke-width="1"/>
      <path id="Path_49" data-name="Path 49" d="M943.941,165.41s-6.165,23.89-23.181,30.348" transform="translate(-468.078 -152.691)" fill="none" stroke="#444053" stroke-miterlimit="10" stroke-width="1"/>
      <path id="Path_50" data-name="Path 50" d="M871.46,205.612s18.041,6.273,33.554-9.7" transform="translate(-434.329 -159.687)" fill="none" stroke="#444053" stroke-miterlimit="10" stroke-width="1"/>
      <path id="Path_52" data-name="Path 52" d="M872.35,166.928s14.974.1,18.5-4.778" transform="translate(-432.14 -151.944)" fill="none" stroke="#444053" stroke-miterlimit="10" stroke-width="1"/>
      <g transform="matrix(1, 0, 0, 1, -42.5, -41.37)" filter="url(#Path_89)">
        <path id="Path_89-2" data-name="Path 89" d="M713.413,170.279V529.468c.436-.024-10.747,0-24.02,0h-508.3c-13.268,0-24.014-8.244-24.014-18.375l7.213-341.112c0-10.143-2.5-9.762,10.772-9.762l514.3-9.319C702.635,150.9,713.413,160.125,713.413,170.279Z" transform="translate(-114.58 -108.4)" fill="#fff"/>
      </g>
      <path id="Path_90" data-name="Path 90" d="M714.275,177.712v21.723H157.08V177.712c0-15.669,10.157-28.372,22.687-28.372h511.8c12.538-.013,22.708,12.692,22.711,28.372Z" transform="translate(-157.08 -149.34)" fill="#65617d"/>
      <circle id="Ellipse_14" data-name="Ellipse 14" cx="9.957" cy="9.957" r="9.957" transform="translate(23.574 15.254)" fill="#fa5959" opacity="0.8"/>
      <circle id="Ellipse_15" data-name="Ellipse 15" cx="9.957" cy="9.957" r="9.957" transform="translate(52.558 15.254)" fill="#fed253" opacity="0.8"/>
      <circle id="Ellipse_16" data-name="Ellipse 16" cx="9.957" cy="9.957" r="9.957" transform="translate(81.534 15.254)" fill="#8ccf4d" opacity="0.8"/>
      <circle id="Ellipse_17" data-name="Ellipse 17" cx="0.686" cy="0.686" r="0.686" transform="translate(432.963 378.312)" fill="#e6e8ec"/>
      <rect id="Rectangle_9" data-name="Rectangle 9" width="8.762" height="29.361" transform="translate(231.534 180.887)" fill="#fff"/>
      <rect id="Rectangle_10" data-name="Rectangle 10" width="8.762" height="65.712" transform="translate(244.906 147.931)" fill="#fff"/>
    </g>
    <rect id="Rectangle_2234" data-name="Rectangle 2234" width="77.257" height="329.245" transform="translate(1786 6495.582)" fill="#e9e8e8"/>
    <text id="_1" data-name="1" transform="translate(1819.935 6544.628)" fill="#1bc79e" font-size="17" font-family="SegoeUI, Segoe UI"><tspan x="0" y="0">1</tspan></text>
    <text id="_2" data-name="2" transform="translate(1819.935 6593.727)" fill="#1bc79e" font-size="17" font-family="SegoeUI, Segoe UI"><tspan x="0" y="0">2</tspan></text>
    <text id="_3" data-name="3" transform="translate(1819.935 6642.103)" fill="#1bc79e" font-size="17" font-family="SegoeUI, Segoe UI"><tspan x="0" y="0">3</tspan></text>
    <text id="_4" data-name="4" transform="translate(1819.935 6691.2)" fill="#1bc79e" font-size="17" font-family="SegoeUI, Segoe UI"><tspan x="0" y="0">4</tspan></text>
    <text id="_5" data-name="5" transform="translate(1819.935 6740.298)" fill="#1bc79e" font-size="17" font-family="SegoeUI, Segoe UI"><tspan x="0" y="0">5</tspan></text>
    <text id="_6" data-name="6" transform="translate(1819.935 6788.674)" fill="#1bc79e" font-size="17" font-family="SegoeUI, Segoe UI"><tspan x="0" y="0">6</tspan></text>
  </g>
</svg>
