<svg xmlns="http://www.w3.org/2000/svg" xmlns:xlink="http://www.w3.org/1999/xlink" width="376" height="432.999" viewBox="0 0 376 432.999">
  <defs>
    <linearGradient id="linear-gradient" x1="1" y1="0.022" x2="-0.321" y2="1.202" gradientUnits="objectBoundingBox">
      <stop offset="0" stop-color="#f905f5"/>
      <stop offset="1" stop-color="#17c9f2"/>
    </linearGradient>
  </defs>
  <path id="Subtraction_57" data-name="Subtraction 57" d="M-6848.912-493a13.224,13.224,0,0,1-4.993-1,17.747,17.747,0,0,1-4.684-2.878,27.554,27.554,0,0,1-4.275-4.575,42.009,42.009,0,0,1-3.768-6.089,59.8,59.8,0,0,1-3.163-7.418,78.188,78.188,0,0,1-2.458-8.566,94.858,94.858,0,0,1-1.655-9.529c-.412-3.354-.665-6.822-.752-10.31l-.341-13.5V-923.784c.4-.768.814-1.514,1.231-2.216H-6499v366.584c-.39,1.733-.83,3.439-1.308,5.072a68.692,68.692,0,0,1-2.951,8.2,49.292,49.292,0,0,1-3.654,6.9,32.45,32.45,0,0,1-4.258,5.373,20.448,20.448,0,0,1-4.763,3.621,14.215,14.215,0,0,1-5.17,1.644l-326.422,35.528A12.835,12.835,0,0,1-6848.912-493Z" transform="translate(6875 926)" fill="url(#linear-gradient)"/>
</svg>
