<svg xmlns="http://www.w3.org/2000/svg" xmlns:xlink="http://www.w3.org/1999/xlink" width="85.853" height="85.852" viewBox="0 0 85.853 85.852">
  <defs>
    <linearGradient id="linear-gradient" x1="1.122" y1="-0.085" x2="-0.271" y2="1.09" gradientUnits="objectBoundingBox">
      <stop offset="0" stop-color="#ff9a44"/>
      <stop offset="1" stop-color="#fc6076"/>
    </linearGradient>
  </defs>
  <g id="Group_1902" data-name="Group 1902" transform="translate(-5172 -698.039)">
    <circle id="Ellipse_2735" data-name="Ellipse 2735" cx="42.926" cy="42.926" r="42.926" transform="translate(5172 698.039)" fill="url(#linear-gradient)"/>
    <g id="point-of-sale-terminal-pos" transform="translate(5091.723 713.039)">
      <path id="Path_964" data-name="Path 964" d="M136.273,4.79H132.94V1.666A1.667,1.667,0,0,0,131.274,0H115.165A1.667,1.667,0,0,0,113.5,1.666V4.791h-3.333a3.888,3.888,0,0,0-3.888,3.888V48.027a3.888,3.888,0,0,0,3.888,3.888h26.108a3.888,3.888,0,0,0,3.888-3.888V8.679A3.888,3.888,0,0,0,136.273,4.79Zm-8.61,3.888V3.333h1.944v9.026h-1.944Zm-10.832,0V3.333h6.11v9.026h-6.11V8.679Zm1.019,38.675a1.667,1.667,0,0,1-1.667,1.667H113.5a1.666,1.666,0,0,1-1.667-1.667V44.485a1.666,1.666,0,0,1,1.667-1.666h2.685a1.666,1.666,0,0,1,1.667,1.666v2.869Zm0-8.379a1.666,1.666,0,0,1-1.667,1.666H113.5a1.666,1.666,0,0,1-1.667-1.666V36.106A1.667,1.667,0,0,1,113.5,34.44h2.685a1.666,1.666,0,0,1,1.667,1.667v2.868Zm0-8.378a1.667,1.667,0,0,1-1.667,1.667H113.5a1.666,1.666,0,0,1-1.667-1.667v-2.87a1.666,1.666,0,0,1,1.667-1.667h2.685a1.666,1.666,0,0,1,1.667,1.667V30.6Zm8.379,16.757a1.667,1.667,0,0,1-1.667,1.667h-2.686a1.666,1.666,0,0,1-1.666-1.667V44.485a1.666,1.666,0,0,1,1.666-1.666h2.686a1.666,1.666,0,0,1,1.667,1.666Zm0-8.379a1.666,1.666,0,0,1-1.667,1.666h-2.686a1.666,1.666,0,0,1-1.666-1.666V36.106a1.666,1.666,0,0,1,1.666-1.667h2.686a1.666,1.666,0,0,1,1.667,1.667Zm0-8.378a1.667,1.667,0,0,1-1.667,1.667h-2.686A1.666,1.666,0,0,1,120.21,30.6v-2.87a1.666,1.666,0,0,1,1.666-1.667h2.686a1.666,1.666,0,0,1,1.667,1.667Zm8.378,16.757a1.667,1.667,0,0,1-1.667,1.667h-2.685a1.666,1.666,0,0,1-1.666-1.667V44.485a1.666,1.666,0,0,1,1.666-1.666h2.685a1.666,1.666,0,0,1,1.667,1.666Zm0-8.379a1.666,1.666,0,0,1-1.667,1.666h-2.685a1.666,1.666,0,0,1-1.666-1.666V36.106a1.666,1.666,0,0,1,1.666-1.667h2.685a1.666,1.666,0,0,1,1.667,1.667Zm0-8.378a1.667,1.667,0,0,1-1.667,1.667h-2.685a1.666,1.666,0,0,1-1.666-1.667v-2.87a1.666,1.666,0,0,1,1.666-1.667h2.685a1.666,1.666,0,0,1,1.667,1.667Zm0-9.731a2.847,2.847,0,0,1-2.847,2.846H114.679a2.846,2.846,0,0,1-2.846-2.846V17.926a2.846,2.846,0,0,1,2.846-2.847H131.76a2.847,2.847,0,0,1,2.847,2.847v2.941Z" transform="translate(0)" fill="#fff"/>
    </g>
  </g>
</svg>
