<svg xmlns="http://www.w3.org/2000/svg" width="22.653" height="22.653" viewBox="0 0 22.653 22.653">
  <g id="translation" transform="translate(-6.851 0)">
    <path id="Path_825" data-name="Path 825" d="M58.057,41.324H54.344a20.312,20.312,0,0,0-.712-5.094h2.435a.362.362,0,1,0,0-.723H53.411a11.4,11.4,0,0,0-1.473-3.02.361.361,0,0,0-.588.42,10.436,10.436,0,0,1,1.3,2.6H48.9V32.166a.362.362,0,0,0-.723,0v3.34h-3.75a10.435,10.435,0,0,1,1.3-2.6.361.361,0,0,0-.588-.42,11.4,11.4,0,0,0-1.473,3.02H41.008a.362.362,0,0,0,0,.723h2.435a20.311,20.311,0,0,0-.712,5.094H39.019a.362.362,0,1,0,0,.723h3.713a20.309,20.309,0,0,0,.712,5.094H41.008a.362.362,0,0,0,0,.723h2.656a11.394,11.394,0,0,0,1.473,3.02.362.362,0,0,0,.588-.42,10.435,10.435,0,0,1-1.3-2.6h3.75v3.341a.362.362,0,1,0,.723,0v-3.34h3.75a10.433,10.433,0,0,1-1.3,2.6.362.362,0,1,0,.588.42,11.4,11.4,0,0,0,1.473-3.02h2.656a.362.362,0,1,0,0-.723H53.632a20.307,20.307,0,0,0,.712-5.094h3.713a.362.362,0,0,0,0-.723ZM52.882,36.23a19.434,19.434,0,0,1,.739,5.094H48.9V36.23Zm-8.689,0h3.983v5.094H43.454A19.432,19.432,0,0,1,44.193,36.23Zm0,10.912a19.432,19.432,0,0,1-.739-5.094h4.722v5.094Zm8.689,0H48.9V42.047h4.722A19.435,19.435,0,0,1,52.882,47.142Z" transform="translate(-30.36 -30.359)" fill="#185b6d"/>
    <path id="Path_826" data-name="Path 826" d="M26.187,3.318A11.327,11.327,0,0,0,8.719,17.56L7.335,21.712a.361.361,0,0,0,.457.457l4.152-1.384A11.327,11.327,0,0,0,26.187,3.318ZM18.178,21.93A10.546,10.546,0,0,1,12.2,20.088a.362.362,0,0,0-.318-.045L8.25,21.255,9.461,17.62a.362.362,0,0,0-.045-.318,10.6,10.6,0,1,1,8.761,4.629Z" transform="translate(0 0)" fill="#185b6d"/>
  </g>
</svg>
