<svg xmlns="http://www.w3.org/2000/svg" xmlns:xlink="http://www.w3.org/1999/xlink" viewBox="0 0 612.673 422.967">
  <defs>
    <style>
      .cls-1 {
        fill: #444053;
      }

      .cls-2 {
        fill: none;
        stroke: #444053;
        stroke-miterlimit: 10;
      }

      .cls-3 {
        fill: #fff;
      }

      .cls-4 {
        fill: #65617d;
      }

      .cls-5 {
        fill: #fa5959;
      }

      .cls-5, .cls-6, .cls-7 {
        opacity: 0.8;
      }

      .cls-6 {
        fill: #fed253;
      }

      .cls-7 {
        fill: #8ccf4d;
      }

      .cls-8 {
        fill: #e6e8ec;
      }

      .cls-9 {
        fill: #e9e8e8;
      }

      .cls-10 {
        fill: #1bc79e;
        font-family: Helvetica;
      }

      .cls-10, .cls-11 {
        font-size: 15px;
      }

      .cls-11 {
        fill: #707070;
        font-family: HelveticaNeue, Helvetica Neue;
      }

      .cls-12 {
        filter: url(#Path_89);
      }
    </style>
    <filter id="Path_89" x="0" y="0" width="612.673" height="422.967" filterUnits="userSpaceOnUse">
      <feOffset dx="10" dy="10" input="SourceAlpha"/>
      <feGaussianBlur stdDeviation="17.5" result="blur"/>
      <feFlood flood-opacity="0.102"/>
      <feComposite operator="in" in2="blur"/>
      <feComposite in="SourceGraphic"/>
    </filter>
  </defs>
  <g id="Group_1827" data-name="Group 1827" transform="translate(-120.601 -3146.322)">
    <g id="Group_1826" data-name="Group 1826" transform="translate(163 3187.794)">
      <g id="Group_1824" data-name="Group 1824">
        <g id="undraw_revenue_3osh" transform="translate(0.1)">
          <path id="Path_28" data-name="Path 28" class="cls-1" d="M1016.926,148.92l.084.232c-11.251,14.318-25.435,31.406-36.771,44.064-1.076,1.21-2.152,2.475-3.185,3.769l-.323-.26c1.041-1.3,2.11-2.574,3.2-3.783C991.266,180.291,1005.668,163.238,1016.926,148.92Z" transform="translate(-524.293 -148.91)"/>
          <path id="Path_29" data-name="Path 29" class="cls-1" d="M966.074,216.41l.225.387c-20.633,25.759-22,65.758-22.046,66.1l-4.353-5.021C939.971,277.527,945.294,242.352,966.074,216.41Z" transform="translate(-513.362 -168.94)"/>
          <path id="Path_33" data-name="Path 33" class="cls-2" d="M1034.2,299.551s-16.744-13.9-11.188-38.171" transform="translate(-537.693 -202.444)"/>
          <path id="Path_34" data-name="Path 34" class="cls-2" d="M988.834,289.71s-11.16-23.382-1.231-38.6" transform="translate(-526.298 -197.576)"/>
          <path id="Path_37" data-name="Path 37" class="cls-2" d="M1050.318,211.5s-15.428,19.05-14.3,36.363" transform="translate(-541.87 -167.483)"/>
          <path id="Path_38" data-name="Path 38" class="cls-2" d="M1012.287,222.12s-15.33,14.655-13.361,22.805" transform="translate(-530.828 -170.634)"/>
          <path id="Path_39" data-name="Path 39" class="cls-2" d="M997.885,213.87s-14.374,2.581-16.385-2.11" transform="translate(-525.708 -167.56)"/>
          <path id="Path_40" data-name="Path 40" class="cls-2" d="M978.24,190.08s7.264,9.62,9.142,7.468" transform="translate(-524.741 -161.126)"/>
          <path id="Path_47" data-name="Path 47" class="cls-2" d="M956.9,201.55s-.042,21.511-5.865,23.037" transform="translate(-516.668 -164.53)"/>
          <path id="Path_48" data-name="Path 48" class="cls-2" d="M891.3,236.972s23.255,1.983,33.98-9.972" transform="translate(-498.939 -172.083)"/>
          <path id="Path_49" data-name="Path 49" class="cls-2" d="M941.913,165.41s-5.626,21.8-21.153,27.693" transform="translate(-507.682 -153.804)"/>
          <path id="Path_50" data-name="Path 50" class="cls-2" d="M871.46,204.764s16.462,5.724,30.618-8.854" transform="translate(-472.572 -162.856)"/>
          <path id="Path_52" data-name="Path 52" class="cls-2" d="M872.35,166.51s13.664.091,16.877-4.36" transform="translate(-470.652 -152.836)"/>
          <g class="cls-12" transform="matrix(1, 0, 0, 1, -42.5, -41.47)">
            <path id="Path_89-2" data-name="Path 89" class="cls-3" d="M664.741,167.177V468.867c.4-.02-9.806,0-21.919,0H178.993c-12.107,0-21.913-6.924-21.913-15.433l6.582-286.507c0-8.519-2.277-8.2,9.83-8.2L642.8,150.9C654.907,150.9,664.741,158.648,664.741,167.177Z" transform="translate(-114.58 -108.4)"/>
          </g>
          <path id="Path_90" data-name="Path 90" class="cls-4" d="M665.529,175.23v19.823H157.08V175.23c0-14.3,9.268-25.89,20.7-25.89H644.8c11.441-.012,20.721,11.582,20.724,25.89Z" transform="translate(-157.08 -149.34)"/>
          <circle id="Ellipse_14" data-name="Ellipse 14" class="cls-5" cx="9.086" cy="9.086" r="9.086" transform="translate(21.512 13.92)"/>
          <circle id="Ellipse_15" data-name="Ellipse 15" class="cls-6" cx="9.086" cy="9.086" r="9.086" transform="translate(47.96 13.92)"/>
          <circle id="Ellipse_16" data-name="Ellipse 16" class="cls-7" cx="9.086" cy="9.086" r="9.086" transform="translate(74.401 13.92)"/>
          <circle id="Ellipse_17" data-name="Ellipse 17" class="cls-8" cx="0.626" cy="0.626" r="0.626" transform="translate(395.085 317.734)"/>
          <rect id="Rectangle_9" data-name="Rectangle 9" class="cls-3" width="7.996" height="26.793" transform="translate(211.278 150.872)"/>
          <rect id="Rectangle_10" data-name="Rectangle 10" class="cls-3" width="7.996" height="59.964" transform="translate(223.48 122.042)"/>
        </g>
        <rect id="Rectangle_2234" data-name="Rectangle 2234" class="cls-9" width="70.498" height="272.959" transform="translate(0 46.027)"/>
      </g>
      <g id="Group_1825" data-name="Group 1825" transform="translate(30.966 46.876)">
        <text id="_1" data-name="1" class="cls-10" transform="translate(0 16)"><tspan x="0" y="0">1</tspan></text>
        <text id="_2" data-name="2" class="cls-10" transform="translate(0 60.802)"><tspan x="0" y="0">2</tspan></text>
        <text id="_3" data-name="3" class="cls-10" transform="translate(0 104.947)"><tspan x="0" y="0">3</tspan></text>
        <text id="_4" data-name="4" class="cls-10" transform="translate(0 149.749)"><tspan x="0" y="0">4</tspan></text>
        <text id="_5" data-name="5" class="cls-10" transform="translate(0 194.551)"><tspan x="0" y="0">5</tspan></text>
        <text id="_6" data-name="6" class="cls-10" transform="translate(0 238.695)"><tspan x="0" y="0">6</tspan></text>
      </g>
    </g>
    <text id="_Require_the_WP_library_with_a_test_secret_key._const_wp_require_wp_sk_test_BQokikJOvBiI2HlWgH4olfQ2_Create_a_payment_from_a_test_card_token._const_charge_await_wp.charges.create_amount:_2000_currency:_usd_source:_tok_visa_" data-name="// Require the WP library with a test secret key.
const wp = require(&apos;wp&apos;)(&apos;sk_test_BQokikJOvBiI2HlWgH4olfQ2&apos;);

// Create a payment from a test card token.
const charge = await wp.charges.create({
  amount: 2000,
  currency: &apos;usd&apos;,
  source: &apos;tok_visa&apos;,
 " class="cls-11" transform="translate(249.311 3262.151)"><tspan x="0" y="14">// Require the WP library with a test secret key.</tspan><tspan x="0" y="31">const wp = require(&apos;wp&apos;)</tspan><tspan x="0" y="48">(&apos;sk_test_BQokikJOvBiI2HlWgH4olfQ2&apos;);</tspan><tspan x="0" y="65"></tspan><tspan x="0" y="82">// Create a payment from a test card token.</tspan><tspan x="0" y="99">const charge = await wp.charges.create({</tspan><tspan x="0" y="116" xml:space="preserve">  amount: 2000,</tspan><tspan x="0" y="133" xml:space="preserve">  currency: &apos;usd&apos;,</tspan><tspan x="0" y="150" xml:space="preserve">  source: &apos;tok_visa&apos;,</tspan><tspan x="0" y="167" xml:space="preserve">  description: &apos;My first payment&apos;</tspan><tspan x="0" y="184">});</tspan><tspan x="0" y="201"></tspan></text>
  </g>
</svg>
