<svg xmlns="http://www.w3.org/2000/svg" xmlns:xlink="http://www.w3.org/1999/xlink" width="333.667" height="373.92" viewBox="0 0 333.667 373.92">
  <defs>
    <clipPath id="clip-path">
      <rect id="Rectangle_2954" data-name="Rectangle 2954" width="333.667" height="373.92" rx="30" transform="translate(11305 2119)" fill="#676fe9"/>
    </clipPath>
    <filter id="Path_8" x="-126.876" y="-253.428" width="590.608" height="641.677" filterUnits="userSpaceOnUse">
      <feOffset dx="2" dy="2" input="SourceAlpha"/>
      <feGaussianBlur stdDeviation="4" result="blur"/>
      <feFlood flood-opacity="0.502"/>
      <feComposite operator="in" in2="blur"/>
      <feComposite in="SourceGraphic"/>
    </filter>
    <clipPath id="clip-path-2">
      <path id="Clip_2" data-name="Clip 2" d="M0,0H39.209V23.681H0Z" fill="none"/>
    </clipPath>
    <clipPath id="clip-path-3">
      <path id="Clip_5" data-name="Clip 5" d="M0,0H39.209V22.505H0Z" fill="none"/>
    </clipPath>
    <clipPath id="clip-path-4">
      <path id="Clip_2-2" data-name="Clip 2" d="M0,0H40.766V35.233H0Z" fill="none"/>
    </clipPath>
    <clipPath id="clip-path-5">
      <path id="Clip_5-2" data-name="Clip 5" d="M0,0H39.853V35.237H0Z" fill="none"/>
    </clipPath>
  </defs>
  <g id="Group_2033" data-name="Group 2033" transform="translate(-10549 -2479)">
    <g id="Mask_Group_2" data-name="Mask Group 2" transform="translate(-756 360)" clip-path="url(#clip-path)">
      <path id="Path_2059" data-name="Path 2059" d="M30,0H303.667a30,30,0,0,1,30,30V343.92a30,30,0,0,1-30,30H30a30,30,0,0,1-30-30V30A30,30,0,0,1,30,0Z" transform="translate(11305 2119)" fill="#fee140"/>
      <path id="Path_8-2" data-name="Path 8" d="M0,33.658,195.424,283.89,281.7,154.379,233.807,34.69,70.576,0Z" transform="matrix(-0.995, 0.105, -0.105, -0.995, 11544.694, 2536.562)" fill="#17c9f2"/>
      <g transform="matrix(1, 0, 0, 1, 11305, 2119)" filter="url(#Path_8)">
        <path id="Path_8-3" data-name="Path 8" d="M0,46.569,345.738,392.79,498.37,213.6,413.644,48,124.86,0Z" transform="translate(-116.88 208.25) rotate(-65)" fill="#676fe9"/>
      </g>
    </g>
    <text id="Transfer_money_without_borders" data-name="Transfer money 
without borders" transform="translate(10594 2532)" fill="#fcfcfc" font-size="22" font-family="Poppins-Medium, Poppins" font-weight="500"><tspan x="0" y="0">Transfer money </tspan><tspan x="0" y="33">without borders</tspan></text>
    <g id="Group_5" data-name="Group 5" transform="translate(10411.449 2538.936) rotate(14)">
      <g id="Group_2" data-name="Group 2" transform="translate(187 0.398)">
        <g id="Page_1" data-name="Page 1" transform="translate(18.739 0)">
          <path id="Fill_1" data-name="Fill 1" d="M54.151,83.77c.011.042.022.078.033.121a53.157,53.157,0,0,1,.859,18.57A23.821,23.821,0,0,0,65.126,124.7l9.795,6.833s-3.362,25.709,5.968,39.238v.005A100.386,100.386,0,0,1,30.749,0c-7.468,15.028-15.061,38.231-4.375,57.66,4.892,8.893,12.611,14.659,21.186,18.364a11.389,11.389,0,0,1,6.591,7.746" transform="translate(27.794 29.2)" fill="#009cde"/>
          <path id="Fill_3" data-name="Fill 3" d="M63.972,200.753a101.215,101.215,0,0,1-19.494-1.891v-.005c.026-.024,2.883-2.7,10.232-10.335l15.61-16.554c5.043-5.543,9.387-10.535,12.911-14.838a18.067,18.067,0,0,0-4.623-26.872c-5.06-3.071-9.652-6.057-13.648-8.876A105.539,105.539,0,0,1,52.9,111.7a15.576,15.576,0,0,0-10.833-4.333,15.927,15.927,0,0,0-1.7.092,122.48,122.48,0,0,0-22.585,4.51c.682-6.769-4.518-13.119-9.546-19.261-5.391-6.584-10.482-12.8-7.182-18.578A10.287,10.287,0,0,1,10.521,68.6a17.471,17.471,0,0,1,4.269.573,9.423,9.423,0,0,0,2.311.288,9.592,9.592,0,0,0,7.473-3.6c5.531-6.827,17.541-13.226,26.643-17.393A10.045,10.045,0,0,0,55.1,33.317a110.559,110.559,0,0,0-18.606-19A109.235,109.235,0,0,0,26.7,7.15a100.226,100.226,0,0,1,95.878,11.736,60.127,60.127,0,0,0-4.275,8.278c-1.931,4.53-4.194,11.365-4.014,18.2a6.336,6.336,0,0,0,5.7,6.078c.273.026.48.038.67.038a6.338,6.338,0,0,0,5.7-3.551,10.694,10.694,0,0,1,3.014-3.782,8.987,8.987,0,0,1,5.6-1.806c4.1,0,9.2,2.194,15.139,6.52l.005-.005c1.151,1.913,2.241,3.878,3.24,5.841l-.007,0a37.107,37.107,0,0,1-7.2.641,43.666,43.666,0,0,1-5.338-.326,8.266,8.266,0,0,0-1.015-.063,7.871,7.871,0,0,0-4.625,1.473,32.888,32.888,0,0,0-3.885,3.446c-3.786,3.806-5.907,9.772-7.019,14.107a57,57,0,0,0-1.523,8.582,61.3,61.3,0,0,0,.512,10.638,15.6,15.6,0,0,0,17.756,13.53l.15-.021c.077-.011.154-.023.23-.031a10.75,10.75,0,0,1,12.311,10.051c.4,7,1.99,12.922,4.738,17.594h.005a100.053,100.053,0,0,1-14.514,26.721,100.138,100.138,0,0,1-79.978,39.716ZM55.767,10.277c-.247,0-.395.06-.451.182-.214.464.9,1.775,2.588,3.759,3.437,4.041,9.191,10.805,10.158,18.228L80.2,16.616a17.259,17.259,0,0,0-5.013-2.572c-3.37-1.264-9.447-2.942-19.259-3.759C55.869,10.28,55.815,10.277,55.767,10.277Z" transform="translate(64.204 1.117)" fill="#009cde"/>
          <path id="Fill_5" data-name="Fill 5" d="M35.85,29.968l-.005.005C20.484,18.79,14.4,24.405,12.088,29.039a6.373,6.373,0,0,1-5.7,3.552c-.222,0-.448-.016-.671-.038a6.33,6.33,0,0,1-5.7-6.08C-.339,13.249,8.3,0,8.3,0A100.782,100.782,0,0,1,35.85,29.968" transform="translate(178.485 20.002)" fill="#80ff00"/>
          <path id="Fill_7" data-name="Fill 7" d="M41.639,45.683a100.184,100.184,0,0,1-5.883,33.94h-.005c-3.2-5.445-4.418-11.9-4.74-17.594A10.746,10.746,0,0,0,18.7,51.978c-.128.016-.255.036-.381.052A15.667,15.667,0,0,1,.564,38.5,60.954,60.954,0,0,1,.052,27.864S1.265,12.539,8.6,5.172a33.583,33.583,0,0,1,3.883-3.446A7.965,7.965,0,0,1,18.119.318,40.453,40.453,0,0,0,30.664,0,99.927,99.927,0,0,1,41.639,45.683" transform="translate(186.913 55.81)" fill="#80ff00"/>
          <path id="Fill_9" data-name="Fill 9" d="M24.909,6.338,12.773,22.169C11.19,10.031-3.157-.311.636.007c19,1.582,24.273,6.331,24.273,6.331" transform="translate(119.492 11.395)" fill="#80ff00"/>
          <path id="Fill_11" data-name="Fill 11" d="M70.43,26.168a10.046,10.046,0,0,1-3.883,15.149C57.649,45.39,45.475,51.833,39.9,58.71a9.576,9.576,0,0,1-9.784,3.308c-4.554-1.155-10.315-1.045-13.745,4.966-6.333,11.082,18.152,23.7,16.728,37.839-.011-.042-.022-.08-.033-.121a11.389,11.389,0,0,0-6.591-7.746c-8.574-3.7-16.294-9.471-21.186-18.362C-5.393,59.164,2.2,35.961,9.668,20.933A100.309,100.309,0,0,1,42.031,0s16.648,10.389,28.4,26.168" transform="translate(48.875 8.267)" fill="#80ff00"/>
          <path id="Fill_13" data-name="Fill 13" d="M60.836,22.888a18.064,18.064,0,0,1,4.623,26.869c-3.91,4.776-8.406,9.889-12.911,14.838L36.937,81.149C29.529,88.842,26.7,91.486,26.7,91.486c-9.33-13.53-5.968-39.238-5.968-39.238l-9.795-6.833A23.821,23.821,0,0,1,.859,23.173,53.157,53.157,0,0,0,0,4.6,121.977,121.977,0,0,1,22.585.091,15.677,15.677,0,0,1,35.122,4.334c6.644,6.38,16.961,13.24,25.714,18.553" transform="translate(81.977 108.488)" fill="#80ff00"/>
          <path id="Fill_15" data-name="Fill 15" d="M4.923,123.4Q2.265,119.658,0,115.764A100.384,100.384,0,0,0,163.017,0q2.931,3.43,5.6,7.191A100.376,100.376,0,1,1,4.923,123.4" transform="translate(41.394 36.185)" fill="#007fb5"/>
          <path id="Stroke_17" data-name="Stroke 17" d="M226.116,34.351c13.531,35.413-25.517,83.235-87.217,106.81S16.212,155.141,2.679,119.728,28.2,36.493,89.9,12.918,212.585-1.062,226.116,34.351Z" transform="translate(16.452 39.882)" fill="none" stroke="#002fff" stroke-miterlimit="10" stroke-width="1.186"/>
          <path id="Stroke_19" data-name="Stroke 19" d="M255.025,172.783c-22.726,39.363-96.744,39.175-165.323-.419S-16.051,68.76,6.677,29.4,103.419-9.774,172,29.819,277.751,133.422,255.025,172.783Z" transform="translate(0)" fill="none" stroke="#ffb600" stroke-miterlimit="10" stroke-width="1.751" stroke-dasharray="8.682 8.682"/>
          <path id="Fill_21" data-name="Fill 21" d="M35.85,29.968l-.005.005C20.484,18.79,14.4,24.405,12.088,29.039a6.373,6.373,0,0,1-5.7,3.552c-.222,0-.448-.016-.671-.038a6.33,6.33,0,0,1-5.7-6.08C-.339,13.249,8.3,0,8.3,0A100.782,100.782,0,0,1,35.85,29.968" transform="translate(178.485 20.002)" fill="#80ff00"/>
          <path id="Fill_23" data-name="Fill 23" d="M24.909,6.338,12.773,22.169C11.19,10.031-3.157-.311.636.007c19,1.582,24.273,6.331,24.273,6.331" transform="translate(119.492 11.395)" fill="#80ff00"/>
          <path id="Fill_25" data-name="Fill 25" d="M70.43,26.168a10.046,10.046,0,0,1-3.883,15.149C57.649,45.39,45.475,51.833,39.9,58.71a9.576,9.576,0,0,1-9.784,3.308c-4.554-1.155-10.315-1.045-13.745,4.966-6.333,11.082,18.152,23.7,16.728,37.839-.011-.042-.022-.08-.033-.121a11.389,11.389,0,0,0-6.591-7.746c-8.574-3.7-16.294-9.471-21.186-18.362C-5.393,59.164,2.2,35.961,9.668,20.933A100.309,100.309,0,0,1,42.031,0s16.648,10.389,28.4,26.168" transform="translate(48.875 8.267)" fill="#80ff00"/>
          <path id="Fill_27" data-name="Fill 27" d="M54.151,83.77c.011.042.022.078.033.121a53.157,53.157,0,0,1,.859,18.57A23.821,23.821,0,0,0,65.126,124.7S0,121.061,0,72.292A100.059,100.059,0,0,1,30.749,0c-7.468,15.028-15.061,38.231-4.375,57.66,4.892,8.893,12.611,14.659,21.186,18.364a11.389,11.389,0,0,1,6.591,7.746" transform="translate(27.794 29.2)" fill="#009cde"/>
          <path id="Fill_29" data-name="Fill 29" d="M82.994,157.4h0c-.016-.032.7-1.033,2.018-2.871a18.253,18.253,0,0,1-1.779,2.6A1.885,1.885,0,0,1,82.994,157.4Zm2.024-2.881h0a17.981,17.981,0,0,0-6.407-24.26c-5.06-3.071-9.652-6.057-13.648-8.876A105.544,105.544,0,0,1,52.9,111.7a15.576,15.576,0,0,0-10.833-4.333,15.925,15.925,0,0,0-1.7.092,122.479,122.479,0,0,0-22.585,4.51c.682-6.769-4.518-13.119-9.546-19.261-5.391-6.584-10.482-12.8-7.182-18.578A10.287,10.287,0,0,1,10.521,68.6a17.471,17.471,0,0,1,4.269.573,9.423,9.423,0,0,0,2.311.288,9.592,9.592,0,0,0,7.473-3.6c5.531-6.827,17.541-13.226,26.643-17.393A10.045,10.045,0,0,0,55.1,33.317a110.559,110.559,0,0,0-18.606-19A109.478,109.478,0,0,0,26.7,7.15a100.226,100.226,0,0,1,95.878,11.736,60.184,60.184,0,0,0-4.275,8.278c-1.931,4.53-4.194,11.365-4.014,18.2a6.336,6.336,0,0,0,5.7,6.078c.273.026.48.038.67.038a6.338,6.338,0,0,0,5.7-3.551,10.694,10.694,0,0,1,3.014-3.782,8.987,8.987,0,0,1,5.6-1.806c4.1,0,9.2,2.194,15.139,6.52l.005-.005c1.151,1.913,2.24,3.878,3.24,5.841l-.007,0a37.1,37.1,0,0,1-7.2.641,43.671,43.671,0,0,1-5.338-.326,8.259,8.259,0,0,0-1.015-.063,7.871,7.871,0,0,0-4.625,1.473,32.889,32.889,0,0,0-3.885,3.446c-3.786,3.805-5.907,9.772-7.019,14.107a56.817,56.817,0,0,0-1.523,8.582,61.3,61.3,0,0,0,.512,10.638c.39,2.954-4.546,12.221-14.671,27.543-8.219,12.44-17.887,25.867-22.534,32.32ZM55.767,10.277c-.247,0-.395.06-.451.182-.215.464.9,1.775,2.588,3.759,3.437,4.041,9.191,10.805,10.158,18.228L80.2,16.616a17.226,17.226,0,0,0-5.013-2.572c-3.37-1.264-9.447-2.942-19.259-3.759C55.869,10.28,55.815,10.277,55.767,10.277Z" transform="translate(64.204 1.117)" fill="#009cde"/>
          <path id="Fill_35" data-name="Fill 35" d="M41.639,45.683c0,11.91-5.888,33.94-5.888,33.94-3.2-5.445-10.8-28.616-17.049-27.645-.128.016-.255.036-.381.052A15.667,15.667,0,0,1,.564,38.5,60.954,60.954,0,0,1,.052,27.864S1.265,12.539,8.6,5.172a33.583,33.583,0,0,1,3.883-3.446A7.965,7.965,0,0,1,18.119.318,40.453,40.453,0,0,0,30.664,0,99.927,99.927,0,0,1,41.639,45.683" transform="translate(186.913 55.81)" fill="#80ff00"/>
          <path id="Fill_37" data-name="Fill 37" d="M9.081,80.237A100.249,100.249,0,0,0,0,0Q2.931,3.43,5.6,7.191A100.265,100.265,0,0,1,18.232,99.239c-11.476,7.553-15.446,1.314-9.151-19" transform="translate(204.41 36.185)" fill="#007fb5"/>
        </g>
        <g id="Page_1-2" data-name="Page 1" transform="translate(225.008 114.5)">
          <g id="Group_3" data-name="Group 3" transform="translate(0 4.441)">
            <path id="Clip_2-3" data-name="Clip 2" d="M0,0H39.209V23.681H0Z" transform="translate(0 0)" fill="none"/>
            <g id="Group_3-2" data-name="Group 3" transform="translate(0 0)" clip-path="url(#clip-path-2)">
              <path id="Fill_1-2" data-name="Fill 1" d="M38.791,6.58C36.928,1.478,29.046,0,19.6,0S2.282,1.478.418,6.58H0v5.849c0,6.214,8.778,11.252,19.6,11.252s19.6-5.038,19.6-11.252V6.58Z" transform="translate(0 0)" fill="#ff8f00"/>
            </g>
          </g>
          <g id="Group_6" data-name="Group 6" transform="translate(0 0)">
            <path id="Clip_5-3" data-name="Clip 5" d="M0,0H39.209V22.505H0Z" transform="translate(0 0)" fill="none"/>
            <g id="Group_6-2" data-name="Group 6" transform="translate(0 0)" clip-path="url(#clip-path-3)">
              <path id="Fill_4" data-name="Fill 4" d="M39.209,11.253c0,6.214-8.778,11.252-19.6,11.252S0,17.467,0,11.253,8.777,0,19.6,0s19.6,5.038,19.6,11.253" transform="translate(0 0)" fill="#ffba2d"/>
            </g>
          </g>
          <path id="Fill_7-2" data-name="Fill 7" d="M11.233,11.965h0a5.53,5.53,0,0,1-2.011-.347l-.134-.075-.653-.365-.053-.031-1.124-.629-.906.537-1.97-1.1.906-.538L4.164,8.783l-.906.537-.534-.3-1.435-.8.905-.538-.814-.456L0,6.449,1.779,5.393l1.381.774L5.913,4.532,7.83,3.395,10.583,1.76,9.2.985,10.861,0l1.38.775.814.455L14.848.166l1.434.8.535.3L15.025,2.334l1.124.63L17.941,1.9,19.911,3,18.118,4.068l.546.306.423.238a1.711,1.711,0,0,1,.858,1.328,2.114,2.114,0,0,1-.923,1.669l-1.145.681a7.191,7.191,0,0,1-1.951.522,1.339,1.339,0,0,1,.045.609,1.716,1.716,0,0,1-.231.622,2.833,2.833,0,0,1-.64.711,4.418,4.418,0,0,1-.509.353,5.517,5.517,0,0,1-.6.3,6.263,6.263,0,0,1-.919.318,7.122,7.122,0,0,1-1.365.223C11.553,11.959,11.391,11.965,11.233,11.965ZM8.7,6.092,5.943,7.727l1.124.63,1.072.6.9.5.436.245.392.22a2.523,2.523,0,0,0,.884.147,3.187,3.187,0,0,0,1.226-.243l.525-.312c.408-.338.5-.752.243-1.08a.968.968,0,0,0-.2-.191L12.3,8.115,11.919,7.9l-.13-.074-.809-.453L9.82,6.722Zm4.67-2.773h0L10.613,4.955l1.124.629.115.065,1.594.893.261.147.094.052a2.5,2.5,0,0,0,.906.156A3.152,3.152,0,0,0,16,6.623l.407-.241a.956.956,0,0,0,.437-.73.713.713,0,0,0-.327-.565l-.059-.033-.227-.127-1.491-.836-.252-.141-1.124-.63Z" transform="translate(8.721 4.677)" fill="#fff"/>
        </g>
        <g id="Page_1-3" data-name="Page 1" transform="translate(0 15.553)">
          <g id="Group_3-3" data-name="Group 3" transform="translate(0 3.405)">
            <path id="Clip_2-4" data-name="Clip 2" d="M0,0H40.766V35.233H0Z" transform="translate(0 0)" fill="none"/>
            <g id="Group_3-4" data-name="Group 3" transform="translate(0 0)" clip-path="url(#clip-path-4)">
              <path id="Fill_1-3" data-name="Fill 1" d="M39.77,27.641c.731-6.007-3.738-14.226-11.7-20.447S11.049-1.376,5.4.787L4.4.008l-2.657,3.4c-4.5,5.755,0,16.781,10.041,24.626s21.826,9.539,26.323,3.784l2.658-3.4Z" transform="translate(0 0)" fill="#5ab700"/>
            </g>
          </g>
          <g id="Group_6-3" data-name="Group 6" transform="translate(2.657 0)">
            <path id="Clip_5-4" data-name="Clip 5" d="M0,0H39.853V35.237H0Z" fill="none"/>
            <g id="Group_6-4" data-name="Group 6" clip-path="url(#clip-path-5)">
              <path id="Fill_4-2" data-name="Fill 4" d="M38.108,31.824c-4.5,5.755-16.282,4.061-26.323-3.784S-2.752,9.169,1.745,3.414,18.027-.648,28.067,7.2,42.6,26.069,38.108,31.824" transform="translate(0 0)" fill="#75d800"/>
            </g>
          </g>
          <path id="Fill_7-3" data-name="Fill 7" d="M28.86,24.1c-3.405,4.359-12.331,3.075-19.935-2.866S-2.084,6.943,1.321,2.585,13.652-.49,21.257,5.451s11.009,14.291,7.6,18.65" transform="translate(7.493 4.275)" fill="#d4f7ad"/>
          <path id="Fill_9-2" data-name="Fill 9" d="M11.3,20.908l-.292-.722a2.79,2.79,0,0,0,2.437-.842l0,0,1.066-1.365-.64.1A5.476,5.476,0,0,0,13.4,15.73a8.417,8.417,0,0,0-1.506-2.437,9.166,9.166,0,0,0-2.12-1.79A31.38,31.38,0,0,0,6.721,9.928,14.7,14.7,0,0,1,4.381,8.665a2.793,2.793,0,0,1-.914-1.208,1.321,1.321,0,0,1-.034-1.182q.261-.447,1.035-.339,1.546.216,3.214,2.623l2.07-.764,1.091-1.4L9.2,7A8.948,8.948,0,0,0,4.262,3.481l-.7-1.733,1.792.336L2.784,0,1.692,1.4l.738,1.826c-.175,0-.339.014-.495.031l-.412-.709L.433,3.94h0a1.607,1.607,0,0,0-.3.562A4.484,4.484,0,0,0,.453,7.494,8.452,8.452,0,0,0,1.92,9.89a9,9,0,0,0,2.006,1.743A23.525,23.525,0,0,0,6.74,13.084a16.411,16.411,0,0,1,2.593,1.365,2.945,2.945,0,0,1,.983,1.3,1.471,1.471,0,0,1,.053,1.269q-.264.485-1.3.339a4.725,4.725,0,0,1-3.306-2.373L6.043,15l-.5-.391c-.04-.069-.082-.132-.121-.2l-.116.019L4,13.4,2.912,14.8q2.518,4.236,6.273,5.139l.951,2.353,1.831.258,1.092-1.4Z" transform="translate(15.515 5.95)" fill="#5ab700"/>
          <path id="Fill_11-2" data-name="Fill 11" d="M1.692,0,3.524.257l.738,1.826A9.374,9.374,0,0,1,9.751,6.4l-2.07.764Q6.015,4.756,4.469,4.538q-.774-.108-1.035.34a1.319,1.319,0,0,0,.034,1.181,2.786,2.786,0,0,0,.914,1.208A14.6,14.6,0,0,0,6.721,8.531a31.434,31.434,0,0,1,3.048,1.575,9.181,9.181,0,0,1,2.12,1.789A8.4,8.4,0,0,1,13.4,14.333a4.127,4.127,0,0,1,.254,3.292q-.583,1.221-2.637,1.163l.956,2.366L10.135,20.9l-.951-2.354q-3.754-.9-6.273-5.139l2.509-.4A5.044,5.044,0,0,0,9.07,15.956q1.035.146,1.3-.339a1.471,1.471,0,0,0-.053-1.269,2.953,2.953,0,0,0-.984-1.3,16.46,16.46,0,0,0-2.593-1.365,23.488,23.488,0,0,1-2.814-1.45A9.013,9.013,0,0,1,1.92,8.492,8.423,8.423,0,0,1,.453,6.1,4.486,4.486,0,0,1,.136,3.1Q.521,1.849,2.43,1.826Z" transform="translate(16.606 5.95)" fill="#75d800"/>
        </g>
      </g>
    </g>
  </g>
</svg>
