<svg xmlns="http://www.w3.org/2000/svg" xmlns:xlink="http://www.w3.org/1999/xlink" viewBox="0 0 113.5 113.5">
  <defs>
    <style>
      .cls-1 {
        fill: rgba(233,233,233,0.23);
      }

      .cls-2 {
        fill: none;
      }

      .cls-2, .cls-4 {
        fill-rule: evenodd;
      }

      .cls-3, .cls-4 {
        fill: url(#linear-gradient);
      }
    </style>
    <linearGradient id="linear-gradient" x1="1.321" x2="0.085" y2="0.928" gradientUnits="objectBoundingBox">
      <stop offset="0" stop-color="#3d50cb" stop-opacity="0.529"/>
      <stop offset="1" stop-color="#41df8b"/>
    </linearGradient>
  </defs>
  <g id="Group_1345" data-name="Group 1345" transform="translate(1379 -3499)">
    <circle id="Ellipse_2680" data-name="Ellipse 2680" class="cls-1" cx="56.75" cy="56.75" r="56.75" transform="translate(-1379 3499)"/>
    <g id="iconspace_ATM_a_25px" data-name="iconspace_ATM a_25px" transform="translate(-1354.752 3523.248)">
      <g id="iconspace_ATM-a_25px" transform="translate(0 0)">
        <path id="ATM-a" class="cls-2" d="M0,0H65.292V65.292H0Z"/>
        <path id="ATM-a-2" data-name="ATM-a" class="cls-3" d="M25.894,50.4V6H5V46.481A3.918,3.918,0,0,0,8.918,50.4ZM12.835,30.811V41.258a1.306,1.306,0,1,1-2.612,0V30.811A1.306,1.306,0,1,1,12.835,30.811ZM40.258,50.4H36.34V6h7.835V46.481A3.918,3.918,0,0,1,40.258,50.4Z" transform="translate(8.058 9.67)"/>
        <path id="ATM-a-3" data-name="ATM-a" class="cls-4" d="M55.54,17.67H51.622V11.141a1.306,1.306,0,0,0-1.306-1.306H8.529a1.306,1.306,0,0,0-1.306,1.306V17.67H3.306A1.306,1.306,0,0,1,2,16.364V3.306A1.306,1.306,0,0,1,3.306,2H55.54a1.306,1.306,0,0,1,1.306,1.306V16.364A1.306,1.306,0,0,1,55.54,17.67Zm-22.2-5.223h5.223v44.4H33.34Z" transform="translate(3.223 3.223)"/>
      </g>
    </g>
  </g>
</svg>
