<svg xmlns="http://www.w3.org/2000/svg" xmlns:xlink="http://www.w3.org/1999/xlink" viewBox="0 0 178.904 178.904">
  <defs>
    <style>
      .cls-1 {
        fill: #fff;
      }

      .cls-2 {
        fill: #00a1e0;
      }

      .cls-3 {
        filter: url(#Path_693);
      }
    </style>
    <filter id="Path_693" x="0" y="0" width="178.904" height="178.904" filterUnits="userSpaceOnUse">
      <feOffset dy="3" input="SourceAlpha"/>
      <feGaussianBlur stdDeviation="3" result="blur"/>
      <feFlood flood-opacity="0.161"/>
      <feComposite operator="in" in2="blur"/>
      <feComposite in="SourceGraphic"/>
    </filter>
  </defs>
  <g id="Group_1360" data-name="Group 1360" transform="translate(9 6)">
    <g class="cls-3" transform="matrix(1, 0, 0, 1, -9, -6)">
      <path id="Path_693-2" data-name="Path 693" class="cls-1" d="M80.452,0A80.452,80.452,0,1,1,0,80.452,80.452,80.452,0,0,1,80.452,0Z" transform="translate(9 6)"/>
    </g>
    <g id="salesforce-2" transform="translate(20.043 37.978)">
      <path id="Path_670" data-name="Path 670" class="cls-2" d="M50.744,9.717A21.157,21.157,0,0,1,66.055,3.143,21.377,21.377,0,0,1,84.682,14.185a25.741,25.741,0,0,1,10.528-2.238,26.258,26.258,0,0,1,0,52.514,25.833,25.833,0,0,1-5.127-.511A19.028,19.028,0,0,1,65.15,71.782,21.709,21.709,0,0,1,24.794,70.8a19.914,19.914,0,0,1-4.142.432,20.4,20.4,0,0,1-10.075-38A23.448,23.448,0,0,1,50.744,9.717" transform="translate(-0.5 -0.5)"/>
      <path id="Path_671" data-name="Path 671" class="cls-1" d="M145,291.422c-.076.2.028.239.052.273a7.033,7.033,0,0,0,.69.416,7.352,7.352,0,0,0,3.61.844c2.477,0,4.014-1.317,4.014-3.438v-.041c0-1.961-1.735-2.673-3.364-3.187l-.212-.069c-1.228-.4-2.288-.743-2.288-1.551v-.043c0-.691.619-1.2,1.579-1.2a7.141,7.141,0,0,1,3.147.8s.239.155.327-.077c.048-.124.461-1.235.5-1.355a.231.231,0,0,0-.12-.279,7.024,7.024,0,0,0-3.548-.953l-.248,0c-2.267,0-3.849,1.369-3.849,3.332v.041c0,2.069,1.746,2.74,3.381,3.208l.263.081c1.192.366,2.219.681,2.219,1.52v.041c0,.767-.667,1.338-1.744,1.338a5.856,5.856,0,0,1-3.19-.919c-.174-.1-.275-.175-.409-.256a.2.2,0,0,0-.325.112Zm36.258,0c-.076.2.028.239.052.273a7.049,7.049,0,0,0,.69.416,7.352,7.352,0,0,0,3.61.844c2.477,0,4.014-1.317,4.014-3.438v-.041c0-1.961-1.735-2.673-3.364-3.187l-.212-.069c-1.228-.4-2.288-.743-2.288-1.551v-.043c0-.691.619-1.2,1.579-1.2a7.142,7.142,0,0,1,3.148.8s.239.155.327-.077c.048-.124.461-1.235.5-1.355a.231.231,0,0,0-.12-.279,7.024,7.024,0,0,0-3.548-.953l-.248,0c-2.267,0-3.849,1.369-3.849,3.332v.041c0,2.069,1.746,2.74,3.381,3.208l.263.081c1.192.366,2.221.681,2.221,1.52v.041c0,.767-.669,1.338-1.746,1.338a5.856,5.856,0,0,1-3.19-.919c-.174-.1-.277-.172-.408-.256a.211.211,0,0,0-.327.112l-.489,1.355Zm24.752-4.154a5.1,5.1,0,0,1-.664,2.81,2.222,2.222,0,0,1-2.012.982,2.194,2.194,0,0,1-2-.982,6.348,6.348,0,0,1,0-5.61,2.205,2.205,0,0,1,2-.972,2.234,2.234,0,0,1,2.014.972,5.06,5.06,0,0,1,.662,2.8m2.067-2.222a4.977,4.977,0,0,0-.941-1.8,4.548,4.548,0,0,0-1.588-1.207,5.756,5.756,0,0,0-4.432,0,4.572,4.572,0,0,0-1.589,1.207,5.058,5.058,0,0,0-.941,1.8,8.306,8.306,0,0,0,0,4.444,5.005,5.005,0,0,0,.943,1.8,4.435,4.435,0,0,0,1.588,1.2,5.883,5.883,0,0,0,4.432,0,4.44,4.44,0,0,0,1.588-1.2,4.979,4.979,0,0,0,.941-1.8,8.261,8.261,0,0,0,0-4.444m16.977,5.694a.2.2,0,0,0-.263-.126,4.741,4.741,0,0,1-.961.275,7.491,7.491,0,0,1-1.134.081,3.149,3.149,0,0,1-2.365-.886,3.947,3.947,0,0,1-.888-2.826,4.381,4.381,0,0,1,.793-2.723,2.7,2.7,0,0,1,2.294-1.01,6.869,6.869,0,0,1,2.184.313s.163.07.241-.143c.181-.5.315-.862.507-1.414a.186.186,0,0,0-.127-.243,8.065,8.065,0,0,0-1.379-.347,10.353,10.353,0,0,0-1.551-.1,5.62,5.62,0,0,0-2.3.444,4.77,4.77,0,0,0-1.665,1.206,5.128,5.128,0,0,0-1.006,1.8,7.15,7.15,0,0,0-.337,2.226,5.951,5.951,0,0,0,1.376,4.116,5.231,5.231,0,0,0,4.081,1.536,8.411,8.411,0,0,0,2.927-.523.188.188,0,0,0,.084-.246Zm3.617-4.621a4.064,4.064,0,0,1,.566-1.651,2.227,2.227,0,0,1,2-1.015,2.171,2.171,0,0,1,1.961,1.015,3.459,3.459,0,0,1,.464,1.651h-4.991Zm6.961-1.464a4.346,4.346,0,0,0-.9-1.637,4.113,4.113,0,0,0-1.328-1.013,5.117,5.117,0,0,0-2.005-.406,5.461,5.461,0,0,0-2.31.449,4.6,4.6,0,0,0-1.612,1.23,5.04,5.04,0,0,0-.948,1.816,7.858,7.858,0,0,0-.308,2.234,7.485,7.485,0,0,0,.318,2.234,4.493,4.493,0,0,0,2.774,2.944,7.045,7.045,0,0,0,2.54.411,7.311,7.311,0,0,0,3.524-.7c.077-.043.151-.119.058-.335l-.457-1.281a.2.2,0,0,0-.263-.12,6.755,6.755,0,0,1-2.872.516,2.863,2.863,0,0,1-3.209-3.151l7,.007a.207.207,0,0,0,.2-.182,7.5,7.5,0,0,0-.208-3.015m-63.007,1.464a4.09,4.09,0,0,1,.566-1.651,2.227,2.227,0,0,1,2-1.015,2.176,2.176,0,0,1,1.962,1.015,3.479,3.479,0,0,1,.463,1.651Zm6.959-1.464a4.345,4.345,0,0,0-.894-1.637,4.115,4.115,0,0,0-1.328-1.013,5.117,5.117,0,0,0-2.005-.406,5.466,5.466,0,0,0-2.31.449,4.6,4.6,0,0,0-1.612,1.23,5.041,5.041,0,0,0-.948,1.816,7.919,7.919,0,0,0-.308,2.234,7.481,7.481,0,0,0,.318,2.234,4.493,4.493,0,0,0,2.774,2.944,7.044,7.044,0,0,0,2.54.411,7.312,7.312,0,0,0,3.524-.7c.077-.043.151-.119.059-.335l-.456-1.281a.2.2,0,0,0-.265-.12A6.752,6.752,0,0,1,175.8,291a2.863,2.863,0,0,1-3.208-3.151l7,.007a.207.207,0,0,0,.2-.182,7.5,7.5,0,0,0-.21-3.015M157.5,290.7a1.417,1.417,0,0,1-.4-.415,1.692,1.692,0,0,1-.208-.91,1.531,1.531,0,0,1,.624-1.355,3.137,3.137,0,0,1,2.029-.506,14.352,14.352,0,0,1,1.9.162v3.182h0a14.219,14.219,0,0,1-1.89.251,3.146,3.146,0,0,1-2.052-.409m2.784-4.917c-.284-.021-.652-.033-1.092-.033a6.637,6.637,0,0,0-1.723.222,4.5,4.5,0,0,0-1.462.678,3.265,3.265,0,0,0-1.388,2.767,3.656,3.656,0,0,0,.32,1.6,2.882,2.882,0,0,0,.913,1.094,3.826,3.826,0,0,0,1.426.617,8.359,8.359,0,0,0,1.852.189,12.621,12.621,0,0,0,2.126-.177c.686-.117,1.529-.287,1.763-.34q.246-.059.49-.126a.22.22,0,0,0,.16-.229l0-6.4a3.917,3.917,0,0,0-1.113-3.089,4.761,4.761,0,0,0-3.215-.968,11.522,11.522,0,0,0-1.875.174,6.76,6.76,0,0,0-2.159.788.219.219,0,0,0-.062.279l.5,1.331a.177.177,0,0,0,.229.113.908.908,0,0,0,.115-.057,7.1,7.1,0,0,1,3.049-.71,2.817,2.817,0,0,1,1.73.452c.382.292.576.734.576,1.667v.3c-.6-.086-1.154-.136-1.154-.136m56.445-3.606a.188.188,0,0,0-.105-.251,6.072,6.072,0,0,0-1.173-.2,3.487,3.487,0,0,0-1.8.291,3.18,3.18,0,0,0-1.183.872v-.851a.2.2,0,0,0-.2-.213h-1.794a.2.2,0,0,0-.2.213v10.438a.214.214,0,0,0,.213.213h1.839a.213.213,0,0,0,.211-.213v-5.215a6.109,6.109,0,0,1,.232-1.837,2.643,2.643,0,0,1,.612-1.03,2.147,2.147,0,0,1,.865-.519,3.37,3.37,0,0,1,.939-.132,3.932,3.932,0,0,1,.769.094c.134.015.21-.067.254-.189.121-.32.461-1.278.526-1.469" transform="translate(-127.51 -247.597)"/>
      <path id="Path_672" data-name="Path 672" class="cls-1" d="M352.044,244.876a6,6,0,0,0-.691-.165,5.485,5.485,0,0,0-.951-.072,4.008,4.008,0,0,0-2.964,1.063,5.783,5.783,0,0,0-1.407,3.175l-.086.473h-1.589a.236.236,0,0,0-.234.2l-.26,1.457c-.019.138.041.225.227.225h1.546l-1.569,8.758a10.842,10.842,0,0,1-.42,1.725,3.526,3.526,0,0,1-.488,1,1.3,1.3,0,0,1-.64.494,2.6,2.6,0,0,1-.824.119,3.1,3.1,0,0,1-.561-.062,1.659,1.659,0,0,1-.378-.122.194.194,0,0,0-.253.112c-.057.15-.47,1.283-.519,1.422a.211.211,0,0,0,.108.28,5.722,5.722,0,0,0,.64.187,4.242,4.242,0,0,0,1.025.1,5.13,5.13,0,0,0,1.718-.267,3.245,3.245,0,0,0,1.293-.9,4.62,4.62,0,0,0,.908-1.567,13.293,13.293,0,0,0,.616-2.349l1.577-8.921h2.3a.235.235,0,0,0,.234-.2l.261-1.455c.017-.139-.041-.225-.229-.225H348.2a9.714,9.714,0,0,1,.37-1.579,2.065,2.065,0,0,1,.49-.747,1.47,1.47,0,0,1,.587-.365,2.433,2.433,0,0,1,.752-.107,2.939,2.939,0,0,1,.574.057c.217.047.3.071.358.088.229.069.26,0,.3-.108l.535-1.469a.188.188,0,0,0-.129-.245M320.78,260.012a.2.2,0,0,1-.2.212h-1.856a.2.2,0,0,1-.2-.212V245.076a.2.2,0,0,1,.2-.212h1.856a.2.2,0,0,1,.2.212Z" transform="translate(-280.087 -215.132)"/>
    </g>
  </g>
</svg>
