<svg id="slack" xmlns="http://www.w3.org/2000/svg" viewBox="0 0 64.222 63.845">
  <defs>
    <style>
      .cls-1 {
        fill: #70cadb;
      }

      .cls-2 {
        fill: #e01765;
      }

      .cls-3 {
        fill: #e8a723;
      }

      .cls-4 {
        fill: #3eb890;
      }

      .cls-5 {
        fill: #cc2027;
      }

      .cls-6 {
        fill: #361238;
      }

      .cls-7 {
        fill: #65863a;
      }

      .cls-8 {
        fill: #1a937d;
      }
    </style>
  </defs>
  <path id="Path_677" data-name="Path 677" class="cls-1" d="M6.93,71.957a5.31,5.31,0,0,1-5.175-3.638q-.042-.126-.078-.254a5.564,5.564,0,0,1,3.6-6.8L50.744,46.036a6.162,6.162,0,0,1,1.66-.243,5.448,5.448,0,0,1,5.312,3.716l.068.22c.851,2.973-1.263,5.626-3.795,6.477L8.777,71.643a5.884,5.884,0,0,1-1.847.314Z" transform="translate(-1.464 -38.161)"/>
  <path id="Path_678" data-name="Path 678" class="cls-2" d="M24.276,122.947a5.3,5.3,0,0,1-5.192-3.587q-.042-.125-.079-.253a5.6,5.6,0,0,1,3.6-6.863L68.07,96.872a5.855,5.855,0,0,1,1.8-.3,5.494,5.494,0,0,1,5.3,3.683l.07.231a5.753,5.753,0,0,1-.693,4.624,7.624,7.624,0,0,1-2.7,1.9l-45.64,15.605a6.262,6.262,0,0,1-1.931.33Z" transform="translate(-11.231 -66.79)"/>
  <path id="Path_679" data-name="Path 679" class="cls-3" d="M91.243,84.547a5.582,5.582,0,0,1-5.345-3.8L70.724,35.67l-.076-.253A5.589,5.589,0,0,1,81.321,32.1L96.494,77.172l.044.145a5.585,5.585,0,0,1-5.295,7.23Z" transform="translate(-40.351 -28.294)"/>
  <path id="Path_680" data-name="Path 680" class="cls-4" d="M39.531,101.958a5.584,5.584,0,0,1-5.347-3.808L19.014,53.08A5.582,5.582,0,0,1,22.526,46a5.653,5.653,0,0,1,1.738-.291,5.581,5.581,0,0,1,5.346,3.8L44.78,94.587a5.588,5.588,0,0,1-5.25,7.371h0Z" transform="translate(-11.194 -38.113)"/>
  <path id="Path_681" data-name="Path 681" class="cls-5" d="M96.51,116.041l10.58-3.618-3.459-10.272-10.593,3.58Z" transform="translate(-53.098 -69.938)"/>
  <path id="Path_682" data-name="Path 682" class="cls-6" d="M44.845,133.594l10.579-3.617-3.485-10.35-10.59,3.581Z" transform="translate(-23.953 -79.791)"/>
  <path id="Path_683" data-name="Path 683" class="cls-7" d="M79.283,64.906l10.581-3.613L86.446,51.142l-10.6,3.552Z" transform="translate(-43.403 -41.176)"/>
  <path id="Path_684" data-name="Path 684" class="cls-8" d="M27.59,82.369l10.581-3.613-3.46-10.281-10.6,3.551Z" transform="translate(-14.233 -50.95)"/>
</svg>
