<svg xmlns="http://www.w3.org/2000/svg" xmlns:xlink="http://www.w3.org/1999/xlink" viewBox="0 0 209.75 209.75">
  <defs>
    <style>
      .cls-1 {
        fill: #fff;
      }

      .cls-2 {
        fill: #9b5c8f;
      }

      .cls-3 {
        filter: url(#Path_695);
      }
    </style>
    <filter id="Path_695" x="0" y="0" width="209.75" height="209.75" filterUnits="userSpaceOnUse">
      <feOffset dy="3" input="SourceAlpha"/>
      <feGaussianBlur stdDeviation="3" result="blur"/>
      <feFlood flood-opacity="0.161"/>
      <feComposite operator="in" in2="blur"/>
      <feComposite in="SourceGraphic"/>
    </filter>
  </defs>
  <g id="Group_1361" data-name="Group 1361" transform="translate(9 6)">
    <g class="cls-3" transform="matrix(1, 0, 0, 1, -9, -6)">
      <path id="Path_695-2" data-name="Path 695" class="cls-1" d="M95.875,0A95.875,95.875,0,1,1,0,95.875,95.875,95.875,0,0,1,95.875,0Z" transform="translate(9 6)"/>
    </g>
    <g id="woocommerce" transform="translate(36.329 60.768)">
      <path id="Path_685" data-name="Path 685" class="cls-2" d="M11,0h96.441a11.039,11.039,0,0,1,11.044,11.044V47.857A11.039,11.039,0,0,1,107.437,58.9H72.852L77.6,70.526,56.722,58.9H11.044A11.039,11.039,0,0,1,0,47.857V11.044A11,11,0,0,1,11,0Z" transform="translate(0)"/>
      <path id="Path_686" data-name="Path 686" class="cls-1" d="M13.616,17.65a3.875,3.875,0,0,1,3.034-1.493q3.685-.289,4.19,3.467Q23.08,34.724,25.7,45.2L36.252,25.115q1.445-2.746,3.613-2.89c2.119-.144,3.419,1.2,3.949,4.045A90.005,90.005,0,0,0,48.39,42.743q1.879-18.35,6.358-26.489a3.7,3.7,0,0,1,3.179-2.12,4.186,4.186,0,0,1,3.034.964,3.772,3.772,0,0,1,1.493,2.745,4.182,4.182,0,0,1-.481,2.312c-1.879,3.468-3.42,9.3-4.672,17.387-1.2,7.851-1.637,13.968-1.349,18.351a5.716,5.716,0,0,1-.578,3.179A3.1,3.1,0,0,1,52.821,60.8a4.842,4.842,0,0,1-3.8-1.782Q42.3,52.158,38.372,38.5q-4.7,9.247-6.936,13.871c-2.842,5.443-5.25,8.236-7.273,8.381-1.3.1-2.408-1.012-3.371-3.323q-3.684-9.464-7.947-36.556a4.1,4.1,0,0,1,.77-3.227Zm103.5,7.562a11.093,11.093,0,0,0-7.706-5.587,12.651,12.651,0,0,0-2.6-.289c-4.624,0-8.38,2.408-11.318,7.225a25.517,25.517,0,0,0-3.757,13.582,18.649,18.649,0,0,0,2.312,9.536,11.091,11.091,0,0,0,7.706,5.587,12.618,12.618,0,0,0,2.6.289c4.672,0,8.428-2.408,11.318-7.225A25.81,25.81,0,0,0,119.43,34.7a17.773,17.773,0,0,0-2.312-9.488ZM111.05,38.553a12.739,12.739,0,0,1-3.661,7.128c-1.4,1.252-2.7,1.782-3.9,1.541-1.156-.241-2.12-1.252-2.842-3.13a12.212,12.212,0,0,1-.867-4.383,16.757,16.757,0,0,1,.337-3.516,15.579,15.579,0,0,1,2.552-5.732c1.59-2.36,3.275-3.323,5.009-2.986,1.156.241,2.12,1.252,2.842,3.13a12.222,12.222,0,0,1,.867,4.383,16.9,16.9,0,0,1-.337,3.564ZM86.968,25.211a11.193,11.193,0,0,0-7.706-5.587,12.648,12.648,0,0,0-2.6-.289c-4.624,0-8.38,2.408-11.318,7.225a25.521,25.521,0,0,0-3.757,13.582A18.649,18.649,0,0,0,63.9,49.678,11.091,11.091,0,0,0,71.6,55.265a12.621,12.621,0,0,0,2.6.289c4.672,0,8.428-2.408,11.318-7.225A25.806,25.806,0,0,0,89.28,34.7a18.223,18.223,0,0,0-2.312-9.488ZM80.852,38.553a12.742,12.742,0,0,1-3.66,7.128c-1.4,1.252-2.7,1.782-3.9,1.541-1.156-.241-2.119-1.252-2.842-3.13a12.23,12.23,0,0,1-.866-4.383,16.756,16.756,0,0,1,.337-3.516,15.573,15.573,0,0,1,2.553-5.732c1.589-2.36,3.275-3.323,5.009-2.986,1.156.241,2.12,1.252,2.842,3.13a12.212,12.212,0,0,1,.867,4.383,14.209,14.209,0,0,1-.337,3.564Z" transform="translate(-6.869 -7.584)"/>
    </g>
  </g>
</svg>
