<svg xmlns="http://www.w3.org/2000/svg" xmlns:xlink="http://www.w3.org/1999/xlink" width="375" height="169" viewBox="0 0 375 169">
  <defs>
    <linearGradient id="linear-gradient" x1="-0.135" y1="-0.21" x2="1" y2="1.173" gradientUnits="objectBoundingBox">
      <stop offset="0" stop-color="#f905f5"/>
      <stop offset="1" stop-color="#4da1ff"/>
    </linearGradient>
    <filter id="Ellipse_66" x="99" y="93" width="21" height="21" filterUnits="userSpaceOnUse">
      <feOffset dy="3" input="SourceAlpha"/>
      <feGaussianBlur stdDeviation="3" result="blur"/>
      <feFlood flood-opacity="0.161"/>
      <feComposite operator="in" in2="blur"/>
      <feComposite in="SourceGraphic"/>
    </filter>
  </defs>
  <g id="Group_1911" data-name="Group 1911" transform="translate(-25.261 -2568.776)">
    <rect id="Rectangle_288" data-name="Rectangle 288" width="375" height="100" transform="translate(25.261 2603.776)" opacity="0.8" fill="url(#linear-gradient)"/>
    <g id="Layer_2" data-name="Layer 2" transform="translate(73.557 2645.943) rotate(-135)">
      <g id="Layer_1" data-name="Layer 1" transform="translate(0 0)">
        <path id="Path_1235" data-name="Path 1235" d="M2.948,4.87a.628.628,0,0,1-.747.471L.5,5a.612.612,0,0,1-.493-.722l.8-3.8A.628.628,0,0,1,1.563.015l1.7.334a.614.614,0,0,1,.495.722Z" transform="translate(30.291 31.951)" fill="#b94444"/>
        <path id="Path_1236" data-name="Path 1236" d="M1.12.325V0C.946.016.775.036.6.055L.012,2.842A.612.612,0,0,0,.5,3.564l.457.091h0L2.2,3.9a.628.628,0,0,0,.749-.471l.061-.294A3.068,3.068,0,0,1,1.12.325Z" transform="translate(30.291 33.398)" fill="#a53232"/>
        <path id="Path_1237" data-name="Path 1237" d="M12,0S8.763,16.458,6.252,18.138A6.614,6.614,0,0,1,0,18.546S4.125,3.291,4,.077Z" transform="translate(29.185 26.61)" fill="#ff7171"/>
        <path id="Path_1238" data-name="Path 1238" d="M2,19C2.608,16.731,5.908,4.239,6.24,0L4,.02c.126,3.214-4,18.469-4,18.469A8.241,8.241,0,0,0,2,19Z" transform="translate(29.189 26.456)" fill="#e55c5c"/>
        <path id="Path_1239" data-name="Path 1239" d="M0,0V2.44A2.8,2.8,0,0,0,2.851,5.2H8.92A2.808,2.808,0,0,0,11.771,2.44V0Z" transform="translate(30.659 25.481)" fill="#b94444"/>
        <path id="Path_1240" data-name="Path 1240" d="M9.465.879H2.3A3.42,3.42,0,0,1,0,0V.247A2.8,2.8,0,0,0,2.851,3H8.912A2.808,2.808,0,0,0,11.763.247V0A3.423,3.423,0,0,1,9.465.879Z" transform="translate(30.667 27.675)" fill="#a53232"/>
        <path id="Path_1241" data-name="Path 1241" d="M0,0V14.847A7.573,7.573,0,0,0,7.379,7.423,7.577,7.577,0,0,0,0,0Z" transform="translate(41.179 12.591)" fill="#b94444"/>
        <rect id="Rectangle_289" data-name="Rectangle 289" width="6.599" height="14.859" transform="translate(34.582 12.58)" fill="#f905f5"/>
        <path id="Path_1242" data-name="Path 1242" d="M0,0C.9,2.255,1.57,10.363,1.57,20.012S.9,37.755,0,40.02c3.241-3.726,14.236-12.576,30.049-12.576V12.58C14.235,12.58,3.238,3.724,0,0Z" transform="translate(4.561 0)" fill="#fff"/>
        <path id="Path_1243" data-name="Path 1243" d="M4.167,20.011c0,11.05-.933,20.009-2.084,20.009S0,31.061,0,20.011.934,0,2.084,0C2.333,0,4.167,8.959,4.167,20.011Z" transform="translate(2.478 0)" fill="#8e048c"/>
        <path id="Path_1244" data-name="Path 1244" d="M7.262,6.125V6.114c-.035-.179-.075-.355-.122-.529l-.031-.121c-.047-.157-.1-.327-.157-.487-.017-.047-.033-.093-.052-.138-.06-.157-.124-.314-.195-.457-.022-.049-.046-.094-.068-.141q-.108-.221-.231-.433c-.027-.046-.055-.088-.082-.132-.085-.141-.174-.281-.268-.416l-.075-.1a7.519,7.519,0,0,0-1.1-1.2c-.041-.036-.079-.074-.119-.108-.1-.082-.2-.157-.3-.236s-.157-.122-.239-.179-.192-.129-.289-.192-.19-.121-.287-.179S3.456.958,3.36.906A3.546,3.546,0,0,0,3.032.749C2.92.7,2.842.661,2.746.622s-.24-.1-.364-.143C2.289.446,2.195.411,2.1.38,1.967.338,1.831.3,1.694.264,1.6.24,1.515.215,1.424.195,1.267.159,1.11.132.953.107.876.093.8.077.722.066.485.035.251.011,0,0V4.035H1.936v.011A8.8,8.8,0,0,1,7.262,6.125Z" transform="translate(41.172 12.597)" fill="#8e048c"/>
        <path id="Path_1245" data-name="Path 1245" d="M0,4.03c.391.009.785.016,1.181.016H6.6V0H.009Z" transform="translate(34.582 12.58)" fill="#d504d2"/>
        <path id="Path_1246" data-name="Path 1246" d="M30.052,12.58h0c-.447,0-.89-.009-1.33-.024l-.405-.016q-.471-.022-.933-.049l-.422-.028q-.51-.038-1.014-.088l-.268-.025c-.418-.044-.834-.094-1.244-.157-.11-.014-.217-.031-.325-.047Q23.649,12.08,23.2,12c-.135-.022-.27-.044-.4-.069-.292-.05-.581-.105-.867-.157l-.344-.066c-.389-.082-.774-.165-1.156-.254l-.19-.047q-.48-.116-.942-.24l-.377-.1c-.257-.071-.512-.144-.765-.218l-.371-.11q-.451-.137-.89-.283l-.187-.06q-.518-.174-1.022-.356l-.352-.13c-.226-.085-.452-.17-.674-.257L14.272,9.5c-.22-.088-.435-.177-.65-.268-.113-.047-.226-.093-.338-.141q-.455-.195-.9-.4l-.349-.157c-.19-.089-.378-.177-.562-.268-.138-.066-.273-.133-.408-.2-.157-.08-.314-.157-.48-.243l-.408-.21c-.157-.086-.328-.176-.49-.264q-.345-.187-.68-.375l-.4-.22c-.157-.088-.3-.176-.447-.265L7.852,6.3c-.157-.094-.314-.187-.455-.281l-.24-.157q-.826-.523-1.57-1.046l-.122-.085-.493-.352-.08-.06A30.361,30.361,0,0,1,0,0H0A25.394,25.394,0,0,1,.992,5.715c.171.144.345.287.528.433A47.963,47.963,0,0,0,30.052,16.61Z" transform="translate(4.561 0)" fill="#fafafa"/>
        <path id="Path_1247" data-name="Path 1247" d="M0,.089H0V0A.341.341,0,0,1,0,.089Z" transform="translate(0.022 20.529)" fill="#00568b"/>
        <path id="Path_1248" data-name="Path 1248" d="M6.136,0A6.357,6.357,0,0,0,0,6.247a6.356,6.356,0,0,0,6.136,6.246Z" transform="translate(0 14.852)" fill="#d20cd9"/>
        <path id="Path_1249" data-name="Path 1249" d="M.879,5c.174-.027.345-.06.515-.1l.193-.046c.173-.042.344-.093.51-.146.049-.016.1-.03.148-.047a7.819,7.819,0,0,0,1.233-.546c.053-.028.105-.06.157-.091.138-.08.275-.165.407-.253.061-.039.121-.082.181-.122.126-.089.247-.182.366-.278l.157-.127q.236-.2.471-.424c.042-.041.079-.085.118-.126.107-.111.212-.225.314-.342.06-.071.116-.143.173-.215s.146-.19.209-.287.113-.157.168-.245.124-.2.184-.3.1-.166.144-.251c.088-.157.17-.33.245-.5.039-.093.075-.187.111-.281s.069-.182.1-.273A9.961,9.961,0,0,1,3.255.9H0V5.092c.239-.011.471-.033.707-.064C.761,5.02.82,5.009.879,5Z" transform="translate(41.179 22.346)" fill="#a53232"/>
        <path id="Path_1250" data-name="Path 1250" d="M1.616,0V.008C1.072.008.534.019,0,.036V4.189H6.6V0Z" transform="translate(34.582 23.248)" fill="#e55c5c"/>
        <path id="Path_1251" data-name="Path 1251" d="M1.112,9.656A30.99,30.99,0,0,1,0,16.734H0A37.4,37.4,0,0,1,10.81,8.8l.085-.042c.232-.118.471-.232.7-.349l.1-.047q1.043-.5,2.164-.964c.1-.039.192-.08.289-.118.2-.083.411-.165.628-.247l.361-.138c.2-.077.407-.157.612-.228l.413-.144q.5-.174,1.019-.341c.173-.055.345-.111.52-.157l.55-.157.556-.157c.179-.05.358-.1.539-.148.221-.058.446-.113.67-.17.157-.039.323-.08.485-.118q.517-.121,1.039-.229l.471-.093c.24-.047.482-.093.725-.135.165-.03.331-.058.5-.085.261-.044.524-.083.785-.122.144-.02.286-.042.43-.061q.6-.08,1.2-.144c.113-.013.228-.022.341-.031q.471-.047.942-.082L27.4,4.26q.446-.027.9-.046l.427-.017q.645-.02,1.3-.024h.017V0A53.734,53.734,0,0,0,1.112,9.656Z" transform="translate(4.563 23.285)" fill="#fafafa"/>
        <path id="Path_1252" data-name="Path 1252" d="M0,0C.9,2.255,1.57,10.363,1.57,20.012S.9,37.755,0,40.02a27.32,27.32,0,0,1,3.39-3.179,74.3,74.3,0,0,0,0-33.66A27.465,27.465,0,0,1,0,0Z" transform="translate(4.561 0)" fill="#f905f5"/>
        <path id="Path_1253" data-name="Path 1253" d="M3.391,3.181A27.465,27.465,0,0,1,0,0H0A25.394,25.394,0,0,1,.992,5.715c.171.144.345.287.528.433.849.686,1.806,1.4,2.861,2.12C4.109,6.565,3.784,4.867,3.391,3.181Z" transform="translate(4.561 0)" fill="#d504d2"/>
        <path id="Path_1254" data-name="Path 1254" d="M0,9.279A27.477,27.477,0,0,1,3.391,6.1Q4.1,3.068,4.542,0C3.308.729,2.164,1.468,1.112,2.2A30.991,30.991,0,0,1,0,9.276Z" transform="translate(4.561 30.739)" fill="#d504d2"/>
        <path id="Path_1255" data-name="Path 1255" d="M3.454,2.916c0,1.611-.769,2.917-1.727,2.917S0,4.527,0,2.916.771,0,1.727,0,3.454,1.3,3.454,2.916Z" transform="translate(0.597 17.943)" fill="#f905f5"/>
      </g>
    </g>
    <g id="Polygon_3" data-name="Polygon 3" transform="translate(58.163 2644.735) rotate(120)" fill="none">
      <path d="M2.507,4.313a2.885,2.885,0,0,1,4.994,0h0A2.885,2.885,0,0,1,5,8.644H5a2.885,2.885,0,0,1-2.5-4.331Z" stroke="none"/>
      <path d="M 5.004243850708008 2.873271942138672 C 5.974891185760498 2.873271942138672 6.945538520812988 3.35314416885376 7.50118350982666 4.312889099121094 C 8.614764213562012 6.236359119415283 7.226813793182373 8.643698692321777 5.004243850708008 8.643698692321777 C 2.781673908233643 8.643698692321777 1.39371395111084 6.236359119415283 2.507303714752197 4.312889099121094 C 3.062948703765869 3.35314416885376 4.033596515655518 2.873271942138672 5.004243850708008 2.873271942138672 Z" stroke="none" fill="rgba(255,255,255,0.31)"/>
    </g>
    <g id="Polygon_5" data-name="Polygon 5" transform="translate(314.538 2624.699) rotate(132)" fill="none">
      <path d="M1.856,3.334a2.183,2.183,0,0,1,3.794,0h0A2.183,2.183,0,0,1,3.753,6.6h0a2.183,2.183,0,0,1-1.9-3.262Z" stroke="none"/>
      <path d="M 3.753182649612427 2.231059074401855 C 4.492505073547363 2.231059074401855 5.231827735900879 2.598831653594971 5.650322914123535 3.334376335144043 C 6.478232383728027 4.78947639465332 5.427322387695313 6.596506595611572 3.753182649612427 6.596506595611572 C 2.079042434692383 6.596506595611572 1.028132438659668 4.78947639465332 1.856042861938477 3.334376335144043 C 2.274537563323975 2.598831653594971 3.01386022567749 2.231059074401855 3.753182649612427 2.231059074401855 Z" stroke="none" fill="rgba(255,255,255,0.31)"/>
    </g>
    <g id="Polygon_4" data-name="Polygon 4" transform="translate(249.485 2684.194) rotate(45)" fill="none">
      <path d="M2.006,3.386a2.286,2.286,0,0,1,3.95,0h0A2.286,2.286,0,0,1,3.981,6.824h0A2.286,2.286,0,0,1,2.006,3.386Z" stroke="none"/>
      <path d="M 3.980647563934326 2.251237392425537 C 4.747541427612305 2.251237392425537 5.514433860778809 2.629347324371338 5.955558776855469 3.385567665100098 L 5.955568790435791 3.385567665100098 C 6.844688892364502 4.909787178039551 5.745248794555664 6.823967456817627 3.980648756027222 6.823967456817627 C 2.216048717498779 6.823967456817627 1.116608619689941 4.909787178039551 2.005728721618652 3.385567665100098 C 2.446858882904053 2.629347324371338 3.213753700256348 2.251237392425537 3.980647563934326 2.251237392425537 Z" stroke="none" fill="rgba(255,255,255,0.31)"/>
    </g>
    <g transform="matrix(1, 0, 0, 1, 25.26, 2568.78)" filter="url(#Ellipse_66)">
      <circle id="Ellipse_66-2" data-name="Ellipse 66" cx="1.5" cy="1.5" r="1.5" transform="translate(108 99)" fill="rgba(255,255,255,0.31)"/>
    </g>
    <g id="Ellipse_64" data-name="Ellipse 64" transform="translate(90.261 2688.776)" fill="none" stroke="rgba(255,255,255,0.31)" stroke-width="1">
      <circle cx="3.5" cy="3.5" r="3.5" stroke="none"/>
      <circle cx="3.5" cy="3.5" r="3" fill="none"/>
    </g>
    <g id="Ellipse_65" data-name="Ellipse 65" transform="translate(373.261 2632.776)" fill="none" stroke="rgba(255,255,255,0.31)" stroke-width="1">
      <ellipse cx="3" cy="2.5" rx="3" ry="2.5" stroke="none"/>
      <ellipse cx="3" cy="2.5" rx="2.5" ry="2" fill="none"/>
    </g>
    <g id="Layer_2-2" data-name="Layer 2" transform="translate(358.208 2653.917) rotate(30)">
      <g id="Layer_1-2" data-name="Layer 1" transform="translate(0 0)">
        <path id="Path_1235-2" data-name="Path 1235" d="M2.948,4.87a.628.628,0,0,1-.747.471L.5,5a.612.612,0,0,1-.493-.722l.8-3.8A.628.628,0,0,1,1.563.015l1.7.334a.614.614,0,0,1,.495.722Z" transform="translate(30.291 31.951)" fill="#d504d2"/>
        <path id="Path_1236-2" data-name="Path 1236" d="M1.12.325V0C.946.016.775.036.6.055L.012,2.842A.612.612,0,0,0,.5,3.564l.457.091h0L2.2,3.9a.628.628,0,0,0,.749-.471l.061-.294A3.068,3.068,0,0,1,1.12.325Z" transform="translate(30.291 33.398)" fill="#8e048c"/>
        <path id="Path_1237-2" data-name="Path 1237" d="M12,0S8.763,16.458,6.252,18.138A6.614,6.614,0,0,1,0,18.546S4.125,3.291,4,.077Z" transform="translate(29.185 26.61)" fill="#f905f5"/>
        <path id="Path_1238-2" data-name="Path 1238" d="M2,19C2.608,16.731,5.908,4.239,6.24,0L4,.02c.126,3.214-4,18.469-4,18.469A8.241,8.241,0,0,0,2,19Z" transform="translate(29.189 26.456)" fill="#d504d2"/>
        <path id="Path_1239-2" data-name="Path 1239" d="M0,0V2.44A2.8,2.8,0,0,0,2.851,5.2H8.92A2.808,2.808,0,0,0,11.771,2.44V0Z" transform="translate(30.659 25.481)" fill="#d20cd9"/>
        <path id="Path_1240-2" data-name="Path 1240" d="M9.465.879H2.3A3.42,3.42,0,0,1,0,0V.247A2.8,2.8,0,0,0,2.851,3H8.912A2.808,2.808,0,0,0,11.763.247V0A3.423,3.423,0,0,1,9.465.879Z" transform="translate(30.667 27.675)" fill="#8e048c"/>
        <path id="Path_1241-2" data-name="Path 1241" d="M0,0V14.847A7.573,7.573,0,0,0,7.379,7.423,7.577,7.577,0,0,0,0,0Z" transform="translate(41.179 12.591)" fill="#d504d2"/>
        <path id="Path_2028" data-name="Path 2028" d="M0,0H6.6V14.859H0Z" transform="translate(34.582 12.58)" fill="#f905f5"/>
        <path id="Path_1242-2" data-name="Path 1242" d="M0,0C.9,2.255,1.57,10.363,1.57,20.012S.9,37.755,0,40.02c3.241-3.726,14.236-12.576,30.049-12.576V12.58C14.235,12.58,3.238,3.724,0,0Z" transform="translate(4.561 0)" fill="#fff"/>
        <path id="Path_1243-2" data-name="Path 1243" d="M4.167,20.011c0,11.05-.933,20.009-2.084,20.009S0,31.061,0,20.011.934,0,2.084,0C2.333,0,4.167,8.959,4.167,20.011Z" transform="translate(2.478 0)" fill="#8e048c"/>
        <path id="Path_1244-2" data-name="Path 1244" d="M7.262,6.125V6.114c-.035-.179-.075-.355-.122-.529l-.031-.121c-.047-.157-.1-.327-.157-.487-.017-.047-.033-.093-.052-.138-.06-.157-.124-.314-.195-.457-.022-.049-.046-.094-.068-.141q-.108-.221-.231-.433c-.027-.046-.055-.088-.082-.132-.085-.141-.174-.281-.268-.416l-.075-.1a7.519,7.519,0,0,0-1.1-1.2c-.041-.036-.079-.074-.119-.108-.1-.082-.2-.157-.3-.236s-.157-.122-.239-.179-.192-.129-.289-.192-.19-.121-.287-.179S3.456.958,3.36.906A3.546,3.546,0,0,0,3.032.749C2.92.7,2.842.661,2.746.622s-.24-.1-.364-.143C2.289.446,2.195.411,2.1.38,1.967.338,1.831.3,1.694.264,1.6.24,1.515.215,1.424.195,1.267.159,1.11.132.953.107.876.093.8.077.722.066.485.035.251.011,0,0V4.035H1.936v.011A8.8,8.8,0,0,1,7.262,6.125Z" transform="translate(41.172 12.597)" fill="#8e048c"/>
        <path id="Path_1245-2" data-name="Path 1245" d="M0,4.03c.391.009.785.016,1.181.016H6.6V0H.009Z" transform="translate(34.582 12.58)" fill="#d504d2"/>
        <path id="Path_1246-2" data-name="Path 1246" d="M30.052,12.58h0c-.447,0-.89-.009-1.33-.024l-.405-.016q-.471-.022-.933-.049l-.422-.028q-.51-.038-1.014-.088l-.268-.025c-.418-.044-.834-.094-1.244-.157-.11-.014-.217-.031-.325-.047Q23.649,12.08,23.2,12c-.135-.022-.27-.044-.4-.069-.292-.05-.581-.105-.867-.157l-.344-.066c-.389-.082-.774-.165-1.156-.254l-.19-.047q-.48-.116-.942-.24l-.377-.1c-.257-.071-.512-.144-.765-.218l-.371-.11q-.451-.137-.89-.283l-.187-.06q-.518-.174-1.022-.356l-.352-.13c-.226-.085-.452-.17-.674-.257L14.272,9.5c-.22-.088-.435-.177-.65-.268-.113-.047-.226-.093-.338-.141q-.455-.195-.9-.4l-.349-.157c-.19-.089-.378-.177-.562-.268-.138-.066-.273-.133-.408-.2-.157-.08-.314-.157-.48-.243l-.408-.21c-.157-.086-.328-.176-.49-.264q-.345-.187-.68-.375l-.4-.22c-.157-.088-.3-.176-.447-.265L7.852,6.3c-.157-.094-.314-.187-.455-.281l-.24-.157q-.826-.523-1.57-1.046l-.122-.085-.493-.352-.08-.06A30.361,30.361,0,0,1,0,0H0A25.394,25.394,0,0,1,.992,5.715c.171.144.345.287.528.433A47.963,47.963,0,0,0,30.052,16.61Z" transform="translate(4.561 0)" fill="#fafafa"/>
        <path id="Path_1247-2" data-name="Path 1247" d="M0,.089H0V0A.341.341,0,0,1,0,.089Z" transform="translate(0.022 20.529)" fill="#00568b"/>
        <path id="Path_1248-2" data-name="Path 1248" d="M6.136,0A6.357,6.357,0,0,0,0,6.247a6.356,6.356,0,0,0,6.136,6.246Z" transform="translate(0 14.852)" fill="#d20cd9"/>
        <path id="Path_1249-2" data-name="Path 1249" d="M.879,5c.174-.027.345-.06.515-.1l.193-.046c.173-.042.344-.093.51-.146.049-.016.1-.03.148-.047a7.819,7.819,0,0,0,1.233-.546c.053-.028.105-.06.157-.091.138-.08.275-.165.407-.253.061-.039.121-.082.181-.122.126-.089.247-.182.366-.278l.157-.127q.236-.2.471-.424c.042-.041.079-.085.118-.126.107-.111.212-.225.314-.342.06-.071.116-.143.173-.215s.146-.19.209-.287.113-.157.168-.245.124-.2.184-.3.1-.166.144-.251c.088-.157.17-.33.245-.5.039-.093.075-.187.111-.281s.069-.182.1-.273A9.961,9.961,0,0,1,3.255.9H0V5.092c.239-.011.471-.033.707-.064C.761,5.02.82,5.009.879,5Z" transform="translate(41.179 22.346)" fill="#8e048c"/>
        <path id="Path_1250-2" data-name="Path 1250" d="M1.616,0V.008C1.072.008.534.019,0,.036V4.189H6.6V0Z" transform="translate(34.582 23.248)" fill="#d504d2"/>
        <path id="Path_1251-2" data-name="Path 1251" d="M1.112,9.656A30.99,30.99,0,0,1,0,16.734H0A37.4,37.4,0,0,1,10.81,8.8l.085-.042c.232-.118.471-.232.7-.349l.1-.047q1.043-.5,2.164-.964c.1-.039.192-.08.289-.118.2-.083.411-.165.628-.247l.361-.138c.2-.077.407-.157.612-.228l.413-.144q.5-.174,1.019-.341c.173-.055.345-.111.52-.157l.55-.157.556-.157c.179-.05.358-.1.539-.148.221-.058.446-.113.67-.17.157-.039.323-.08.485-.118q.517-.121,1.039-.229l.471-.093c.24-.047.482-.093.725-.135.165-.03.331-.058.5-.085.261-.044.524-.083.785-.122.144-.02.286-.042.43-.061q.6-.08,1.2-.144c.113-.013.228-.022.341-.031q.471-.047.942-.082L27.4,4.26q.446-.027.9-.046l.427-.017q.645-.02,1.3-.024h.017V0A53.734,53.734,0,0,0,1.112,9.656Z" transform="translate(4.563 23.285)" fill="#fafafa"/>
        <path id="Path_1252-2" data-name="Path 1252" d="M0,0C.9,2.255,1.57,10.363,1.57,20.012S.9,37.755,0,40.02a27.32,27.32,0,0,1,3.39-3.179,74.3,74.3,0,0,0,0-33.66A27.465,27.465,0,0,1,0,0Z" transform="translate(4.561 0)" fill="#f905f5"/>
        <path id="Path_1253-2" data-name="Path 1253" d="M3.391,3.181A27.465,27.465,0,0,1,0,0H0A25.394,25.394,0,0,1,.992,5.715c.171.144.345.287.528.433.849.686,1.806,1.4,2.861,2.12C4.109,6.565,3.784,4.867,3.391,3.181Z" transform="translate(4.561 0)" fill="#d504d2"/>
        <path id="Path_1254-2" data-name="Path 1254" d="M0,9.279A27.477,27.477,0,0,1,3.391,6.1Q4.1,3.068,4.542,0C3.308.729,2.164,1.468,1.112,2.2A30.991,30.991,0,0,1,0,9.276Z" transform="translate(4.561 30.739)" fill="#d504d2"/>
        <path id="Path_1255-2" data-name="Path 1255" d="M3.454,2.916c0,1.611-.769,2.917-1.727,2.917S0,4.527,0,2.916.771,0,1.727,0,3.454,1.3,3.454,2.916Z" transform="translate(0.597 17.943)" fill="#f905f5"/>
      </g>
    </g>
    <rect id="Rectangle_290" data-name="Rectangle 290" width="375" height="35" transform="translate(25.261 2568.776)" fill="#fff"/>
    <rect id="Rectangle_291" data-name="Rectangle 291" width="375" height="34" transform="translate(25.261 2703.776)" fill="#fff"/>
  </g>
</svg>
