<svg xmlns="http://www.w3.org/2000/svg" xmlns:xlink="http://www.w3.org/1999/xlink" width="24" height="24" viewBox="0 0 24 24">
  <defs>
    <linearGradient id="linear-gradient" x1="2.21" y1="-1.458" x2="-0.753" y2="2.057" gradientUnits="objectBoundingBox">
      <stop offset="0" stop-color="#f20bf5"/>
      <stop offset="1" stop-color="#22bff2"/>
    </linearGradient>
  </defs>
  <g id="Group_1905" data-name="Group 1905" transform="translate(-92 -551)">
    <circle id="Ellipse_3006" data-name="Ellipse 3006" cx="12" cy="12" r="12" transform="translate(92 551)" fill="url(#linear-gradient)"/>
    <g id="call-center-agent" transform="translate(58 558)">
      <path id="Path_1502" data-name="Path 1502" d="M67.539,337.148a3.689,3.689,0,0,1-4.841,0,4.135,4.135,0,0,0-.883.875,4.085,4.085,0,0,0-.815,2.46v.042a.317.317,0,0,0,.317.317h7.6a.317.317,0,0,0,.317-.317v-.042a4.085,4.085,0,0,0-.815-2.46A4.135,4.135,0,0,0,67.539,337.148Z" transform="translate(-19.578 -330.027)" fill="#fff"/>
      <path id="Path_1503" data-name="Path 1503" d="M114.633,64.632a.323.323,0,0,1,.325-.3h1.892a3.073,3.073,0,1,0-.388.634H114.95A.317.317,0,0,1,114.633,64.632Z" transform="translate(-68.521 -58.733)" fill="#fff"/>
      <path id="Path_1504" data-name="Path 1504" d="M49.766,3.063h-.083A4.357,4.357,0,0,0,48.237.941a4.33,4.33,0,0,0-5.391,0A4.357,4.357,0,0,0,41.4,3.063h-.083A.317.317,0,0,0,41,3.38V4.647a.317.317,0,0,0,.317.317h.528V4.33a3.679,3.679,0,0,1,.224-1.267h0a3.7,3.7,0,0,1,6.947,0h0a3.679,3.679,0,0,1,.224,1.267V5.6h-.908l-.388.634h1.614a.317.317,0,0,0,.317-.317V4.945a.317.317,0,0,0,.211-.3V3.38A.317.317,0,0,0,49.766,3.063Z" transform="translate(0 0)" fill="#fff"/>
    </g>
  </g>
</svg>
