<svg xmlns="http://www.w3.org/2000/svg" xmlns:xlink="http://www.w3.org/1999/xlink" width="413" height="522" viewBox="0 0 413 522">
  <defs>
    <filter id="Rectangle_2678" x="0" y="0" width="413" height="522" filterUnits="userSpaceOnUse">
      <feOffset dy="12" input="SourceAlpha"/>
      <feGaussianBlur stdDeviation="15" result="blur"/>
      <feFlood flood-opacity="0.161"/>
      <feComposite operator="in" in2="blur"/>
      <feComposite in="SourceGraphic"/>
    </filter>
    <linearGradient id="linear-gradient" x1="1.344" y1="-0.384" x2="-0.244" y2="1.765" gradientUnits="objectBoundingBox">
      <stop offset="0" stop-color="#f905f5"/>
      <stop offset="1" stop-color="#4da1ff"/>
    </linearGradient>
    <linearGradient id="linear-gradient-2" x1="0.5" x2="0.5" y2="1" gradientUnits="objectBoundingBox">
      <stop offset="0" stop-color="#4da1ff"/>
      <stop offset="1" stop-color="#f905f5"/>
    </linearGradient>
    <linearGradient id="linear-gradient-8" x1="0.5" y1="0" x2="0.5" y2="1" xlink:href="#linear-gradient"/>
  </defs>
  <g id="Group_1898" data-name="Group 1898" transform="translate(-835 -1055)">
    <g transform="matrix(1, 0, 0, 1, 835, 1055)" filter="url(#Rectangle_2678)">
      <rect id="Rectangle_2678-2" data-name="Rectangle 2678" width="323" height="432" rx="16" transform="translate(45 33)" fill="#fff"/>
    </g>
    <path id="Path_1544" data-name="Path 1544" d="M307.982,0H16.661C7.814,0,.643,6.678.643,14.916V151.955c0,8.238-.068,17.616,0,17.972L307.982,197c8.846,0,16.018-9.472,16.018-17.71V14.916C324,6.678,316.829,0,307.982,0Z" transform="translate(879 1088)" opacity="0.8" fill="url(#linear-gradient)"/>
    <text id="Intelligent_Business_Reporting_" data-name="Intelligent Business 
Reporting " transform="translate(1041 1318)" fill="#585858" font-size="20" font-family="Poppins-Medium, Poppins" font-weight="500"><tspan x="-99.41" y="0">Intelligent Business </tspan><tspan x="-51.72" y="30">Reporting </tspan></text>
    <text id="Monitor_Transaction_data_in_real-time_and_run_transaction_reports_that_provide_you_with_behaviour_insights_and_generate_business_growth_strategies." data-name="Monitor Transaction data in real-time and run transaction reports that provide you with behaviour insights and generate business growth strategies." transform="translate(918 1372)" fill="#585858" font-size="16" font-family="Raleway-Regular, Raleway"><tspan x="4.893" y="15">Monitor Transaction data in real-</tspan><tspan x="4.805" y="39">time and run transaction reports </tspan><tspan x="6.925" y="63">that provide you with behaviour </tspan><tspan x="8.845" y="87">insights and generate business </tspan><tspan x="57.229" y="111">growth strategies.</tspan></text>
    <g id="Layer_2" data-name="Layer 2" transform="translate(969.64 1101.139)">
      <g id="Ñëîé_1" data-name="Ñëîé 1" transform="translate(0.006 -0.007)">
        <path id="Path_1798" data-name="Path 1798" d="M95.217,130.99l7.426-4.285-7.426-4.285L87.8,126.7h0L80.37,130.99l7.426,4.29h0l7.421,4.285,7.426-4.285-7.426-4.29Z" transform="translate(-39.522 -60.192)" fill="#d4ecff"/>
        <path id="Path_1799" data-name="Path 1799" d="M109.58,83.722V52.29L117.006,48V79.438Z" transform="translate(-53.885 -23.598)" fill="url(#linear-gradient-2)"/>
        <path id="Path_1800" data-name="Path 1800" d="M102.4,52.29,94.98,48V79.438l7.421,4.285Z" transform="translate(-46.706 -23.598)" fill="url(#linear-gradient-2)"/>
        <path id="Path_1801" data-name="Path 1801" d="M109.827,43.855,102.4,39.57,94.98,43.855l7.421,4.29Z" transform="translate(-46.706 -19.453)" fill="#4da1ff"/>
        <path id="Path_1802" data-name="Path 1802" d="M117.006,116.945l-7.426-4.285v2.857l7.426,4.285Z" transform="translate(-53.885 -55.393)" fill="#95d359"/>
        <path id="Path_1803" data-name="Path 1803" d="M94.98,100.448V77.59L102.4,73.3V96.163Z" transform="translate(-46.706 -36.039)" fill="#c13d1a"/>
        <path id="Path_1804" data-name="Path 1804" d="M87.8,77.59,80.37,73.3V96.163l7.426,4.285Z" transform="translate(-39.522 -36.039)" fill="#db5126"/>
        <path id="Path_1805" data-name="Path 1805" d="M95.217,69.155,87.8,64.87,80.37,69.155l7.426,4.29Z" transform="translate(-39.522 -31.894)" fill="#ef602e"/>
        <path id="Path_1806" data-name="Path 1806" d="M94.98,100.448V77.59L102.4,73.3V96.163Z" transform="translate(-46.706 -36.039)" fill="url(#linear-gradient-2)"/>
        <path id="Path_1807" data-name="Path 1807" d="M87.8,77.59,80.37,73.3V96.163l7.426,4.285Z" transform="translate(-39.522 -36.039)" fill="url(#linear-gradient-2)"/>
        <path id="Path_1808" data-name="Path 1808" d="M95.217,69.155,87.8,64.87,80.37,69.155l7.426,4.29Z" transform="translate(-39.522 -31.894)" fill="#4da1ff"/>
        <path id="Path_1809" data-name="Path 1809" d="M109.58,118.56V105.7l7.426-4.29v12.86Z" transform="translate(-53.885 -49.861)" fill="url(#linear-gradient-2)"/>
        <path id="Path_1810" data-name="Path 1810" d="M102.4,105.7l-7.421-4.29v12.86l7.421,4.29Z" transform="translate(-46.706 -49.861)" fill="url(#linear-gradient-2)"/>
        <path id="Path_1811" data-name="Path 1811" d="M109.827,97.265,102.4,92.98,94.98,97.265l7.421,4.29Z" transform="translate(-46.706 -45.716)" fill="#4da1ff"/>
        <path id="Path_1812" data-name="Path 1812" d="M115.663,235.668,59.594,203.295c-1.586-.915-1.388-2.541.442-3.558L98.214,177.7a6.888,6.888,0,0,1,6.191-.259L160.474,209.8c1.586.915,1.388,2.541-.447,3.558l-38.177,22.034A6.833,6.833,0,0,1,115.663,235.668Z" transform="translate(-28.779 -86.944)" fill="#d4ecff"/>
        <path id="Path_1813" data-name="Path 1813" d="M204.253,84.243,147.259,51.367a2.17,2.17,0,0,0-1.952-.264h0l-.091.041h0l-1.876.864,2.033,1.017V99.949a7.626,7.626,0,0,0,3.243,6.1L204.09,138.07l.315,2.613,2.033-.971a2.782,2.782,0,0,0,1.088-2.541V90.357A7.8,7.8,0,0,0,204.253,84.243Z" transform="translate(-70.485 -25.064)" fill="#173d7a"/>
        <path id="Path_1814" data-name="Path 1814" d="M204.253,84.243,147.259,51.367a2.17,2.17,0,0,0-1.952-.264h0l-.091.041h0l-1.876.864,2.033,1.017V83.988L171.3,104.483l35.219-17.724a6.425,6.425,0,0,0-2.262-2.516Z" transform="translate(-70.485 -25.064)" fill="#396caa"/>
        <path id="Path_1815" data-name="Path 1815" d="M259.641,117.87l-5.591,2.348,4.219,3.248,3.522-1.5A8.178,8.178,0,0,0,259.641,117.87Z" transform="translate(-124.923 -57.954)" fill="#274f89"/>
        <path id="Path_1816" data-name="Path 1816" d="M201.262,141.3,144.268,108.4a7.637,7.637,0,0,1-3.238-6.1V55.49c0-2.343,1.449-3.406,3.238-2.379l56.994,32.881a7.637,7.637,0,0,1,3.238,6.1v46.813C204.5,141.243,203.051,142.321,201.262,141.3Z" transform="translate(-69.349 -25.919)" fill="#d4ecff"/>
        <path id="Path_1817" data-name="Path 1817" d="M201.436,141.1l-53.233-30.7a7.037,7.037,0,0,1-2.963-5.591V61.978c0-2.145,1.327-3.116,2.963-2.175l53.228,30.7a7.009,7.009,0,0,1,2.963,5.591v42.838C204.394,141.052,203.063,142.069,201.436,141.1Z" transform="translate(-71.419 -29.226)" fill="#fff"/>
        <path id="Path_1818" data-name="Path 1818" d="M201.436,141.1l-53.233-30.7a7.037,7.037,0,0,1-2.963-5.591V61.978c0-2.145,1.327-3.116,2.963-2.175l53.228,30.7a7.009,7.009,0,0,1,2.963,5.591v42.838C204.394,141.052,203.063,142.069,201.436,141.1Z" transform="translate(-71.419 -29.226)" fill="#fff"/>
        <path id="Path_1819" data-name="Path 1819" d="M161.525,200.594l-7.665-1.017-49.472-28.566a6.887,6.887,0,0,0-6.191.254L63.126,191.5l-4.636-.61v2.628h0a1.8,1.8,0,0,0,1.067,1.627l56.069,32.368a6.86,6.86,0,0,0,6.186-.254l38.177-22.034a2.6,2.6,0,0,0,1.525-2.084h0Z" transform="translate(-28.763 -83.78)" fill="#173d7a"/>
        <path id="Path_1820" data-name="Path 1820" d="M124.369,192.333l-3.517-2.033H82.221L63.156,201.294l-4.636-.61v2.628h0a1.8,1.8,0,0,0,1.067,1.627l56.069,32.368a5.744,5.744,0,0,0,3.192.6Z" transform="translate(-28.778 -93.569)" fill="#396caa"/>
        <path id="Path_1821" data-name="Path 1821" d="M60.6,211l-2.033-.269v2.628h0a1.8,1.8,0,0,0,1.067,1.627l.986.569Z" transform="translate(-28.803 -103.615)" fill="#5793ce"/>
        <path id="Path_1822" data-name="Path 1822" d="M172.05,277.311a7.177,7.177,0,0,0,5.256-.325V271.12H172.05Z" transform="translate(-84.602 -133.31)" fill="#274f89"/>
        <path id="Path_1823" data-name="Path 1823" d="M115.663,220.7,59.594,188.325c-1.586-.915-1.388-2.541.442-3.558l38.177-22.034a6.888,6.888,0,0,1,6.191-.259l56.069,32.358c1.586.915,1.388,2.541-.447,3.558l-38.177,22.034A6.833,6.833,0,0,1,115.663,220.7Z" transform="translate(-28.779 -79.583)" fill="#d4ecff"/>
        <path id="Path_1824" data-name="Path 1824" d="M160.029,221.057l-38.177,22.034a6.877,6.877,0,0,1-6.186.259L59.6,210.958a2.084,2.084,0,0,1-.986-1.078,1.678,1.678,0,0,0,.986,2.033l56.069,32.373a6.877,6.877,0,0,0,6.186-.259l38.177-22.034c1.235-.712,1.723-1.667,1.433-2.5A2.994,2.994,0,0,1,160.029,221.057Z" transform="translate(-28.782 -103.197)" fill="#fff"/>
        <path id="Path_1825" data-name="Path 1825" d="M104.949,189.205l-2.541-1.469c-.2-.117-.178-.32.056-.457l3-1.728a.879.879,0,0,1,.793-.036l2.541,1.469c.2.117.178.32-.056.457l-2.994,1.728a.89.89,0,0,1-.8.036Z" transform="translate(-50.29 -91.178)" fill="#173d7a"/>
        <path id="Path_1826" data-name="Path 1826" d="M112.659,193.655l-2.541-1.469c-.2-.117-.178-.32.056-.457L113.167,190a.889.889,0,0,1,.8-.036l2.541,1.469c.2.117.178.32-.056.457l-3,1.728a.879.879,0,0,1-.793.036Z" transform="translate(-54.081 -93.366)" fill="#173d7a"/>
        <path id="Path_1827" data-name="Path 1827" d="M120.409,198.105l-2.541-1.469c-.2-.117-.178-.32.056-.457l2.994-1.728a.879.879,0,0,1,.793-.036l2.541,1.469c.2.117.178.32-.061.457l-2.994,1.728a.879.879,0,0,1-.788.036Z" transform="translate(-57.892 -95.554)" fill="#173d7a"/>
        <path id="Path_1828" data-name="Path 1828" d="M131.029,194.7l-2.541-1.464c-.2-.117-.178-.325.056-.457l2.516-1.454a.859.859,0,0,1,.793-.031l2.541,1.464c.2.117.178.32-.056.457l-2.516,1.449A.9.9,0,0,1,131.029,194.7Z" transform="translate(-63.114 -94.016)" fill="#173d7a"/>
        <path id="Path_1829" data-name="Path 1829" d="M138.737,199.146l-2.541-1.464c-.208-.117-.178-.325.056-.457l2.511-1.454a.874.874,0,0,1,.8-.031L142.1,197.2c.2.117.178.32-.056.457l-2.541,1.454A.9.9,0,0,1,138.737,199.146Z" transform="translate(-66.903 -96.204)" fill="#173d7a"/>
        <path id="Path_1830" data-name="Path 1830" d="M146.409,203.626l-2.541-1.464c-.2-.117-.178-.325.061-.457l2.511-1.454a.859.859,0,0,1,.793-.031l2.541,1.464c.2.117.178.32-.061.457L147.2,203.6A.9.9,0,0,1,146.409,203.626Z" transform="translate(-70.677 -98.407)" fill="#173d7a"/>
        <path id="Path_1831" data-name="Path 1831" d="M154.149,208.046l-2.541-1.464c-.2-.117-.178-.325.056-.457l2.516-1.454a.859.859,0,0,1,.793-.03l2.541,1.464c.2.117.178.32-.056.457l-2.511,1.454A.9.9,0,0,1,154.149,208.046Z" transform="translate(-74.483 -100.58)" fill="#173d7a"/>
        <path id="Path_1832" data-name="Path 1832" d="M161.859,212.5l-2.541-1.464c-.2-.117-.178-.325.056-.457l2.541-1.454a.859.859,0,0,1,.793-.031l2.541,1.464c.2.117.178.32-.056.457l-2.541,1.454A.9.9,0,0,1,161.859,212.5Z" transform="translate(-78.274 -102.768)" fill="#173d7a"/>
        <path id="Path_1833" data-name="Path 1833" d="M169.569,216.948l-2.541-1.464c-.2-.117-.178-.325.056-.457l2.511-1.454a.89.89,0,0,1,.8-.03l2.541,1.464c.2.117.178.32-.056.457l-2.516,1.454A.9.9,0,0,1,169.569,216.948Z" transform="translate(-82.065 -104.959)" fill="#173d7a"/>
        <path id="Path_1834" data-name="Path 1834" d="M177.279,221.4l-2.541-1.464c-.2-.117-.178-.325.061-.457l2.511-1.454a.884.884,0,0,1,.8-.031l2.541,1.464c.2.117.178.32-.061.457l-2.511,1.454A.9.9,0,0,1,177.279,221.4Z" transform="translate(-85.856 -107.146)" fill="#173d7a"/>
        <path id="Path_1835" data-name="Path 1835" d="M184.979,225.848l-2.541-1.464c-.2-.117-.178-.325.056-.457l2.516-1.454a.874.874,0,0,1,.793-.031l2.541,1.464c.208.117.178.32-.056.457l-2.511,1.454A.9.9,0,0,1,184.979,225.848Z" transform="translate(-89.642 -109.334)" fill="#173d7a"/>
        <path id="Path_1836" data-name="Path 1836" d="M192.689,230.3l-2.541-1.464c-.2-.117-.178-.325.056-.457l2.516-1.454a.874.874,0,0,1,.793-.031l2.541,1.464c.2.117.178.32-.056.457l-2.516,1.454A.9.9,0,0,1,192.689,230.3Z" transform="translate(-93.433 -111.522)" fill="#173d7a"/>
        <path id="Path_1837" data-name="Path 1837" d="M200.409,234.748l-2.541-1.464c-.2-.117-.178-.325.056-.457l2.516-1.454a.874.874,0,0,1,.793-.031l2.541,1.464c.2.117.178.32-.056.457l-2.516,1.454a.9.9,0,0,1-.793.031Z" transform="translate(-97.229 -113.711)" fill="#173d7a"/>
        <path id="Path_1838" data-name="Path 1838" d="M142.409,192.63l-2.541-1.464c-.2-.117-.178-.32.061-.457l2.511-1.454a.9.9,0,0,1,.8-.03l2.541,1.464c.2.117.178.325-.061.457l-2.511,1.454a.874.874,0,0,1-.8.031Z" transform="translate(-68.71 -93.002)" fill="#396caa"/>
        <path id="Path_1839" data-name="Path 1839" d="M134.559,188.075l-2.541-1.464c-.2-.122-.178-.325.056-.463l2.516-1.449a.879.879,0,0,1,.793-.036l2.541,1.464c.2.122.178.325-.056.463l-2.511,1.449a.889.889,0,0,1-.8.036Z" transform="translate(-64.85 -90.76)" fill="#396caa"/>
        <path id="Path_1840" data-name="Path 1840" d="M123.9,181.913l-5.464-3.151c-.2-.117-.178-.325.056-.463l2.516-1.449a.879.879,0,0,1,.793-.036l5.464,3.156c.2.117.178.325-.056.457l-2.541,1.454A.874.874,0,0,1,123.9,181.913Z" transform="translate(-58.172 -86.9)" fill="#173d7a"/>
        <path id="Path_1841" data-name="Path 1841" d="M130.369,177.008l-4.432-2.541c-.2-.117-.178-.32.056-.457l2.516-1.449a.879.879,0,0,1,.793-.036l4.437,2.541c.2.117.178.32-.061.457l-2.511,1.454A.9.9,0,0,1,130.369,177.008Z" transform="translate(-61.86 -84.791)" fill="#173d7a"/>
        <path id="Path_1842" data-name="Path 1842" d="M150.089,197.04l-2.541-1.464c-.2-.117-.178-.32.056-.457l2.516-1.454a.9.9,0,0,1,.793-.031l2.541,1.464c.208.117.183.325-.056.457l-2.511,1.454a.889.889,0,0,1-.8.031Z" transform="translate(-72.486 -95.17)" fill="#396caa"/>
        <path id="Path_1843" data-name="Path 1843" d="M157.8,201.49l-2.541-1.464c-.2-.117-.178-.32.056-.457l2.541-1.454a.9.9,0,0,1,.793-.03l2.541,1.464c.2.117.178.325-.056.457l-2.541,1.454A.859.859,0,0,1,157.8,201.49Z" transform="translate(-76.277 -97.359)" fill="#173d7a"/>
        <path id="Path_1844" data-name="Path 1844" d="M165.509,205.94l-2.541-1.464c-.2-.117-.178-.32.056-.457l2.516-1.454a.9.9,0,0,1,.793-.03L168.873,204c.2.117.178.325-.056.457l-2.541,1.454a.859.859,0,0,1-.768.03Z" transform="translate(-80.068 -99.547)" fill="#173d7a"/>
        <path id="Path_1845" data-name="Path 1845" d="M173.219,210.39l-2.541-1.464c-.2-.117-.178-.32.056-.457l2.511-1.454a.9.9,0,0,1,.8-.031l2.541,1.464c.2.117.178.325-.056.457l-2.516,1.454A.859.859,0,0,1,173.219,210.39Z" transform="translate(-83.86 -101.735)" fill="#173d7a"/>
        <path id="Path_1846" data-name="Path 1846" d="M180.919,214.84l-2.541-1.464c-.2-.117-.178-.32.061-.457l2.511-1.454a.9.9,0,0,1,.793-.03l2.541,1.464c.2.117.178.325-.061.457l-2.511,1.454A.869.869,0,0,1,180.919,214.84Z" transform="translate(-87.646 -103.923)" fill="#173d7a"/>
        <path id="Path_1847" data-name="Path 1847" d="M188.629,219.29l-2.541-1.464c-.2-.117-.178-.32.056-.457l2.516-1.454a.9.9,0,0,1,.793-.031l2.541,1.464c.2.117.178.325-.056.457l-2.511,1.454A.874.874,0,0,1,188.629,219.29Z" transform="translate(-91.437 -106.111)" fill="#173d7a"/>
        <path id="Path_1848" data-name="Path 1848" d="M196.339,223.74l-2.541-1.464c-.2-.117-.178-.32.056-.457l2.516-1.454a.9.9,0,0,1,.793-.03L199.7,221.8c.2.117.178.325-.056.457l-2.516,1.454A.859.859,0,0,1,196.339,223.74Z" transform="translate(-95.228 -108.299)" fill="#173d7a"/>
        <path id="Path_1849" data-name="Path 1849" d="M204.049,228.19l-2.541-1.464c-.2-.117-.178-.32.056-.457l2.511-1.454a.9.9,0,0,1,.8-.03l2.541,1.464c.2.117.178.325-.056.457l-2.541,1.454A.859.859,0,0,1,204.049,228.19Z" transform="translate(-99.019 -110.487)" fill="#173d7a"/>
        <path id="Path_1850" data-name="Path 1850" d="M211.759,232.63l-2.541-1.464c-.2-.117-.178-.32.061-.457l2.511-1.454a.9.9,0,0,1,.8-.031l2.541,1.464c.2.117.178.325-.061.457l-2.516,1.484A.859.859,0,0,1,211.759,232.63Z" transform="translate(-102.811 -112.67)" fill="#173d7a"/>
        <path id="Path_1851" data-name="Path 1851" d="M222.562,238.879l-5.535-3.2c-.2-.117-.178-.325.056-.457l2.516-1.454a.859.859,0,0,1,.793-.03l5.535,3.192c.2.117.178.325-.056.463l-2.516,1.449A.879.879,0,0,1,222.562,238.879Z" transform="translate(-106.65 -114.889)" fill="#173d7a"/>
        <path id="Path_1852" data-name="Path 1852" d="M238.4,230.72l-4.671-2.674c-.2-.117-.178-.32.056-.457l2.516-1.449a.879.879,0,0,1,.793-.036l4.676,2.7c.2.117.178.32-.061.457l-2.511,1.454A.9.9,0,0,1,238.4,230.72Z" transform="translate(-114.862 -111.137)" fill="#173d7a"/>
        <path id="Path_1853" data-name="Path 1853" d="M163.589,196.17l-2.541-1.464c-.2-.117-.178-.32.056-.457l2.516-1.454a.9.9,0,0,1,.793-.03l2.541,1.464c.2.117.178.325-.056.457l-2.511,1.454A.889.889,0,0,1,163.589,196.17Z" transform="translate(-79.124 -94.743)" fill="#173d7a"/>
        <path id="Path_1854" data-name="Path 1854" d="M155.689,191.63l-2.541-1.464c-.2-.117-.178-.325.056-.457l2.516-1.454a.9.9,0,0,1,.793-.031l2.541,1.464c.2.117.178.32-.056.457l-2.511,1.454A.9.9,0,0,1,155.689,191.63Z" transform="translate(-75.24 -92.51)" fill="#173d7a"/>
        <path id="Path_1855" data-name="Path 1855" d="M147.789,187.048l-2.541-1.464c-.2-.117-.178-.325.056-.457l2.516-1.454a.874.874,0,0,1,.793-.03l2.541,1.464c.2.117.178.32-.056.457l-2.486,1.454a.9.9,0,0,1-.823.03Z" transform="translate(-71.355 -90.256)" fill="#396caa"/>
        <path id="Path_1856" data-name="Path 1856" d="M139.889,182.486l-2.541-1.464c-.2-.117-.178-.325.056-.457l2.541-1.454a.859.859,0,0,1,.793-.031l2.541,1.464c.2.117.178.32-.056.457l-2.511,1.454A.9.9,0,0,1,139.889,182.486Z" transform="translate(-67.471 -88.012)" fill="#173d7a"/>
        <path id="Path_1857" data-name="Path 1857" d="M171.3,200.63l-2.541-1.464c-.2-.117-.178-.32.056-.457l2.541-1.454a.9.9,0,0,1,.793-.031l2.541,1.464c.2.117.178.325-.056.457l-2.541,1.454a.874.874,0,0,1-.793.03Z" transform="translate(-82.915 -96.936)" fill="#173d7a"/>
        <path id="Path_1858" data-name="Path 1858" d="M179.009,205.07l-2.541-1.464c-.2-.117-.178-.32.056-.457l2.511-1.454a.9.9,0,0,1,.8-.03l2.541,1.464c.2.117.178.325-.056.457l-2.541,1.454A.874.874,0,0,1,179.009,205.07Z" transform="translate(-86.707 -99.119)" fill="#173d7a"/>
        <path id="Path_1859" data-name="Path 1859" d="M186.709,209.52l-2.541-1.464c-.2-.117-.178-.32.061-.457l2.511-1.454a.9.9,0,0,1,.793-.03l2.541,1.464c.2.117.178.325-.061.457l-2.511,1.454a.884.884,0,0,1-.793.03Z" transform="translate(-90.493 -101.307)" fill="#173d7a"/>
        <path id="Path_1860" data-name="Path 1860" d="M194.409,213.97l-2.541-1.464c-.2-.117-.178-.32.056-.457l2.541-1.454a.9.9,0,0,1,.793-.031l2.541,1.464c.2.117.178.325-.056.457l-2.511,1.454a.889.889,0,0,1-.823.031Z" transform="translate(-94.279 -103.495)" fill="#173d7a"/>
        <path id="Path_1861" data-name="Path 1861" d="M202.129,218.42l-2.541-1.464c-.2-.117-.178-.32.056-.457l2.516-1.454a.9.9,0,0,1,.793-.03l2.541,1.464c.2.117.178.325-.056.457l-2.516,1.454A.874.874,0,0,1,202.129,218.42Z" transform="translate(-98.075 -105.683)" fill="#173d7a"/>
        <path id="Path_1862" data-name="Path 1862" d="M209.839,222.87l-2.541-1.464c-.2-.117-.178-.32.056-.457l2.511-1.454a.9.9,0,0,1,.8-.031l2.541,1.464c.2.117.178.325-.056.457l-2.511,1.454A.874.874,0,0,1,209.839,222.87Z" transform="translate(-101.866 -107.871)" fill="#173d7a"/>
        <path id="Path_1863" data-name="Path 1863" d="M217.549,227.32l-2.541-1.464c-.2-.117-.178-.32.061-.457l2.511-1.454a.9.9,0,0,1,.8-.03l2.541,1.464c.2.117.178.325-.061.457l-2.511,1.454A.874.874,0,0,1,217.549,227.32Z" transform="translate(-105.658 -110.059)" fill="#173d7a"/>
        <path id="Path_1864" data-name="Path 1864" d="M225.249,231.77l-2.541-1.464c-.2-.117-.178-.32.056-.457l2.516-1.454a.9.9,0,0,1,.793-.031l2.541,1.464c.208.117.183.325-.056.457l-2.511,1.454A.889.889,0,0,1,225.249,231.77Z" transform="translate(-109.443 -112.248)" fill="#173d7a"/>
        <path id="Path_1865" data-name="Path 1865" d="M232.959,236.22l-2.541-1.464c-.2-.117-.178-.32.056-.457l2.541-1.454a.9.9,0,0,1,.793-.03l2.541,1.464c.2.117.178.325-.056.457l-2.516,1.454a.874.874,0,0,1-.818.03Z" transform="translate(-113.234 -114.436)" fill="#173d7a"/>
        <path id="Path_1866" data-name="Path 1866" d="M159.529,185.165l-2.541-1.469c-.2-.117-.178-.32.056-.457l2.516-1.449a.879.879,0,0,1,.793-.036l2.541,1.464c.2.117.178.325-.056.463l-2.511,1.449A.889.889,0,0,1,159.529,185.165Z" transform="translate(-77.128 -89.329)" fill="#173d7a"/>
        <path id="Path_1867" data-name="Path 1867" d="M151.859,180.735l-2.541-1.464c-.2-.122-.178-.325.056-.463l2.541-1.449a.879.879,0,0,1,.793-.036l2.541,1.469c.208.117.183.32-.056.457l-2.547,1.428a.889.889,0,0,1-.788.056Z" transform="translate(-73.357 -87.151)" fill="#173d7a"/>
        <path id="Path_1868" data-name="Path 1868" d="M144.189,176.306l-2.541-1.464c-.2-.117-.178-.325.061-.457l2.511-1.454a.859.859,0,0,1,.793-.031l2.541,1.464c.2.117.178.32-.061.457l-2.511,1.454A.9.9,0,0,1,144.189,176.306Z" transform="translate(-69.586 -84.973)" fill="#173d7a"/>
        <path id="Path_1869" data-name="Path 1869" d="M136.519,171.88l-2.541-1.464c-.2-.117-.178-.325.061-.457l2.511-1.454a.9.9,0,0,1,.793-.031l2.541,1.464c.2.117.178.32-.061.457l-2.511,1.454A.9.9,0,0,1,136.519,171.88Z" transform="translate(-65.814 -82.799)" fill="#173d7a"/>
        <path id="Path_1870" data-name="Path 1870" d="M144.409,168.265l-2.541-1.464c-.2-.117-.178-.325.056-.463l.834-.478a.859.859,0,0,1,.793-.031l2.541,1.464c.2.117.178.32-.056.457l-.834.478a.879.879,0,0,1-.793.036Z" transform="translate(-69.693 -81.497)" fill="#173d7a"/>
        <path id="Path_1871" data-name="Path 1871" d="M154.409,174.045l-2.541-1.464c-.2-.122-.178-.325.056-.463l.834-.478a.879.879,0,0,1,.793-.036l2.541,1.469c.2.117.178.32-.056.457l-.834.478A.879.879,0,0,1,154.409,174.045Z" transform="translate(-74.61 -84.338)" fill="#173d7a"/>
        <path id="Path_1872" data-name="Path 1872" d="M162.059,178.455l-2.541-1.464c-.2-.122-.178-.325.056-.463l.829-.478a.89.89,0,0,1,.8-.036l2.541,1.469c.2.117.178.32-.056.457l-.834.478A.879.879,0,0,1,162.059,178.455Z" transform="translate(-78.372 -86.507)" fill="#173d7a"/>
        <path id="Path_1873" data-name="Path 1873" d="M169.689,182.865l-2.541-1.469c-.2-.117-.178-.32.061-.457l.829-.478a.879.879,0,0,1,.793-.036l2.541,1.464c.2.122.178.325-.061.463l-.829.478A.889.889,0,0,1,169.689,182.865Z" transform="translate(-82.124 -88.675)" fill="#173d7a"/>
        <path id="Path_1874" data-name="Path 1874" d="M177.329,187.275l-2.541-1.469c-.2-.117-.178-.32.056-.457l.834-.478a.879.879,0,0,1,.793-.036l2.541,1.464c.2.122.178.325-.056.463l-.829.478A.889.889,0,0,1,177.329,187.275Z" transform="translate(-85.88 -90.844)" fill="#173d7a"/>
        <path id="Path_1875" data-name="Path 1875" d="M219.969,211.89l-2.541-1.464c-.2-.117-.178-.32.056-.457l.834-.478a.879.879,0,0,1,.793-.036l2.541,1.464c.2.117.178.325-.056.457l-.834.483a.874.874,0,0,1-.793.031Z" transform="translate(-106.847 -102.95)" fill="#173d7a"/>
        <path id="Path_1876" data-name="Path 1876" d="M227.609,216.3l-2.541-1.464c-.2-.117-.178-.32.056-.457l.859-.483a.9.9,0,0,1,.8-.031l2.541,1.464c.2.117.178.325-.056.457l-.834.483A.874.874,0,0,1,227.609,216.3Z" transform="translate(-110.604 -105.118)" fill="#173d7a"/>
        <path id="Path_1877" data-name="Path 1877" d="M235.249,220.684l-2.541-1.464c-.2-.117-.178-.32.061-.457l.829-.508a.9.9,0,0,1,.8-.031l2.541,1.464c.2.117.178.325-.061.457l-.829.508a.9.9,0,0,1-.8.03Z" transform="translate(-114.361 -107.262)" fill="#173d7a"/>
        <path id="Path_1878" data-name="Path 1878" d="M242.879,225.095l-2.541-1.464c-.2-.117-.178-.325.056-.457l.834-.508a.9.9,0,0,1,.793-.03l2.541,1.464c.2.117.178.325-.056.457l-.829.508a.9.9,0,0,1-.8.03Z" transform="translate(-118.112 -109.43)" fill="#173d7a"/>
        <path id="Path_1879" data-name="Path 1879" d="M167.239,189.625l-2.541-1.469c-.2-.117-.178-.32.056-.457l2.541-1.449a.879.879,0,0,1,.793-.036l2.541,1.464c.2.117.178.325-.056.463l-2.541,1.449a.879.879,0,0,1-.793.036Z" transform="translate(-80.919 -91.522)" fill="#173d7a"/>
        <path id="Path_1880" data-name="Path 1880" d="M174.949,194.065l-2.541-1.469c-.2-.117-.178-.32.056-.457l2.511-1.449a.89.89,0,0,1,.8-.036l2.541,1.464c.2.117.178.325-.056.463l-2.541,1.449A.879.879,0,0,1,174.949,194.065Z" transform="translate(-84.71 -93.706)" fill="#173d7a"/>
        <path id="Path_1881" data-name="Path 1881" d="M182.655,198.515l-2.541-1.469c-.208-.117-.183-.32.056-.457l2.511-1.449a.89.89,0,0,1,.8-.036l2.541,1.464c.2.117.178.325-.056.463l-2.516,1.449A.879.879,0,0,1,182.655,198.515Z" transform="translate(-88.498 -95.894)" fill="#173d7a"/>
        <path id="Path_1882" data-name="Path 1882" d="M190.409,202.965l-2.541-1.469c-.2-.117-.178-.32.061-.457l2.48-1.449a.879.879,0,0,1,.793-.036l2.541,1.464c.2.117.178.325-.061.463l-2.511,1.449A.889.889,0,0,1,190.409,202.965Z" transform="translate(-92.313 -98.082)" fill="#173d7a"/>
        <path id="Path_1883" data-name="Path 1883" d="M198.069,207.415l-2.541-1.469c-.2-.117-.178-.32.056-.457l2.516-1.449a.879.879,0,0,1,.793-.036l2.541,1.464c.2.117.178.325-.056.463l-2.511,1.449A.889.889,0,0,1,198.069,207.415Z" transform="translate(-96.079 -100.27)" fill="#173d7a"/>
        <path id="Path_1884" data-name="Path 1884" d="M205.779,211.866l-2.541-1.469c-.2-.117-.178-.32.056-.457l2.516-1.449a.879.879,0,0,1,.793-.036l2.541,1.464c.2.122.178.325-.056.463l-2.516,1.449A.879.879,0,0,1,205.779,211.866Z" transform="translate(-99.87 -102.458)" fill="#173d7a"/>
        <path id="Path_1885" data-name="Path 1885" d="M213.489,216.315l-2.541-1.469c-.2-.117-.178-.32.056-.457l2.511-1.449a.89.89,0,0,1,.8-.036l2.541,1.464c.2.122.178.325-.056.463l-2.541,1.449a.879.879,0,0,1-.768.036Z" transform="translate(-103.661 -104.646)" fill="#173d7a"/>
        <path id="Path_1886" data-name="Path 1886" d="M221.2,220.766l-2.541-1.469c-.2-.117-.178-.32.061-.457l2.511-1.449a.879.879,0,0,1,.793-.036l2.541,1.464c.2.122.178.325-.061.463l-2.511,1.449A.879.879,0,0,1,221.2,220.766Z" transform="translate(-107.452 -106.834)" fill="#173d7a"/>
        <path id="Path_1887" data-name="Path 1887" d="M228.9,225.215l-2.541-1.469c-.2-.117-.178-.32.056-.457l2.516-1.449a.879.879,0,0,1,.793-.036l2.541,1.464c.2.122.178.325-.056.463L229.7,225.18a.889.889,0,0,1-.8.036Z" transform="translate(-111.238 -109.022)" fill="#173d7a"/>
        <path id="Path_1888" data-name="Path 1888" d="M118.4,187.408l-7.472-4.315c-.2-.117-.178-.325.061-.457l2.511-1.454a.874.874,0,0,1,.8-.031l7.472,4.31c.2.117.178.325-.061.463l-2.511,1.449A.89.89,0,0,1,118.4,187.408Z" transform="translate(-54.48 -89.03)" fill="#173d7a"/>
        <path id="Path_1889" data-name="Path 1889" d="M213.1,242.078l-7.472-4.315c-.2-.117-.178-.325.056-.457l2.511-1.454a.874.874,0,0,1,.8-.03l7.472,4.31c.2.117.178.325-.061.463l-2.521,1.449a.879.879,0,0,1-.783.036Z" transform="translate(-101.045 -115.912)" fill="#173d7a"/>
        <path id="Path_1890" data-name="Path 1890" d="M187.039,236.6l-2.541-1.464c-.2-.117-.178-.325.056-.463l2.994-1.728a.9.9,0,0,1,.8-.03l2.541,1.464c.2.117.178.325-.056.457l-3,1.728A.879.879,0,0,1,187.039,236.6Z" transform="translate(-90.655 -114.485)" fill="#173d7a"/>
        <path id="Path_1891" data-name="Path 1891" d="M129.59,203.43l-4.066-2.343c-.208-.117-.183-.32.056-.457l2.994-1.728a.859.859,0,0,1,.793-.031l4.066,2.338c.208.117.178.325-.056.463l-2.994,1.728A.9.9,0,0,1,129.59,203.43Z" transform="translate(-61.655 -97.743)" fill="#173d7a"/>
        <path id="Path_1892" data-name="Path 1892" d="M178.134,231.509l-4.066-2.343c-.2-.117-.178-.32.061-.457l2.994-1.728a.879.879,0,0,1,.793-.036l4.066,2.343c.2.117.178.325-.056.463l-2.994,1.728a.9.9,0,0,1-.8.03Z" transform="translate(-85.527 -111.55)" fill="#173d7a"/>
        <path id="Path_1893" data-name="Path 1893" d="M140.713,209.85l-4.066-2.343c-.2-.117-.178-.32.056-.457l2.994-1.728a.859.859,0,0,1,.793-.031l4.066,2.338c.2.122.178.325-.061.463l-2.994,1.728A.874.874,0,0,1,140.713,209.85Z" transform="translate(-67.127 -100.9)" fill="#173d7a"/>
        <path id="Path_1894" data-name="Path 1894" d="M140.7,205.4l17.638,10.166a.244.244,0,0,1,0,.457l-3.05,1.764a.874.874,0,0,1-.793,0L136.86,207.621Z" transform="translate(-67.299 -100.994)" fill="#173d7a"/>
        <path id="Path_1895" data-name="Path 1895" d="M209.2,248.235l2.826,1.632c.168.1.147.264-.046.376l-1.225.707a.722.722,0,0,1-.651,0l-2.826-1.632c-.168-.1-.147-.264.046-.376l1.225-.707A.722.722,0,0,1,209.2,248.235Z" transform="translate(-101.869 -122.019)" fill="#173d7a"/>
        <path id="Path_1896" data-name="Path 1896" d="M201.431,243.757l2.846,1.616c.168.1.147.264-.046.376l-1.225.707a.722.722,0,0,1-.651.025l-2.846-1.616c-.168-.091-.147-.264.046-.376l1.225-.707a.722.722,0,0,1,.651-.025Z" transform="translate(-98.049 -119.823)" fill="#173d7a"/>
        <path id="Path_1897" data-name="Path 1897" d="M193.721,239.3l2.826,1.632c.168.1.147.264-.046.376l-1.225.707a.722.722,0,0,1-.651,0l-2.826-1.632c-.168-.091-.147-.264.046-.376l1.225-.707A.722.722,0,0,1,193.721,239.3Z" transform="translate(-94.258 -117.623)" fill="#173d7a"/>
        <path id="Path_1898" data-name="Path 1898" d="M205.691,241.3l2.826,1.632c.168.1.142.264-.046.376l-1.225.707a.732.732,0,0,1-.656.03l-2.826-1.632c-.163-.1-.142-.264.051-.376l1.225-.707A.722.722,0,0,1,205.691,241.3Z" transform="translate(-100.143 -118.615)" fill="#173d7a"/>
        <path id="Path_1899" data-name="Path 1899" d="M213.181,129.312l-2.425-1.418a1.017,1.017,0,0,1-.417-.783h0c0-.3.173-.442.4-.31l2.43,1.4a1.017,1.017,0,0,1,.417.783h0C213.588,129.3,213.41,129.419,213.181,129.312Z" transform="translate(-103.43 -62.321)" fill="#d4ecff"/>
        <path id="Path_1900" data-name="Path 1900" d="M223.46,135.246l-3.558-2.064a1.017,1.017,0,0,1-.412-.783h0c0-.3.173-.442.4-.315l3.558,2.069a1.017,1.017,0,0,1,.417.783h0C223.866,135.236,223.688,135.378,223.46,135.246Z" transform="translate(-107.929 -64.921)" fill="#d4ecff"/>
        <path id="Path_1901" data-name="Path 1901" d="M210.831,154.8l-2.43-1.4a1.017,1.017,0,0,1-.4-.757h0c0-.3.178-.442.4-.315l2.425,1.4a.986.986,0,0,1,.417.783h0C211.233,154.794,211.05,154.937,210.831,154.8Z" transform="translate(-102.279 -74.878)" fill="#d4ecff"/>
        <path id="Path_1902" data-name="Path 1902" d="M219.86,159.988l-3.558-2.064a1.017,1.017,0,0,1-.412-.783h0c0-.3.173-.442.4-.31l3.558,2.064a1.017,1.017,0,0,1,.417.783h0C220.266,159.978,220.088,160.12,219.86,159.988Z" transform="translate(-106.159 -77.088)" fill="#d4ecff"/>
        <path id="Path_1903" data-name="Path 1903" d="M200.962,126.746l-1.525-.874a1.017,1.017,0,0,1-.417-.783h0c0-.3.173-.442.4-.315l1.525.874a1.017,1.017,0,0,1,.417.783h0C201.368,126.736,201.19,126.9,200.962,126.746Z" transform="translate(-97.864 -61.326)" fill="#d4ecff"/>
        <path id="Path_1904" data-name="Path 1904" d="M208.117,135.356l-4.63-2.674a1.017,1.017,0,0,1-.417-.783h0c0-.3.173-.442.4-.315l4.63,2.674a1.017,1.017,0,0,1,.417.783h0C208.534,135.33,208.356,135.483,208.117,135.356Z" transform="translate(-99.855 -64.675)" fill="#d4ecff"/>
        <path id="Path_1905" data-name="Path 1905" d="M205.122,142.579,203.6,141.7a1.017,1.017,0,0,1-.417-.783h0c0-.3.173-.442.4-.31l1.525.874a1.016,1.016,0,0,1,.417.783h0C205.549,142.569,205.371,142.711,205.122,142.579Z" transform="translate(-99.909 -69.113)" fill="#d4ecff"/>
        <path id="Path_1906" data-name="Path 1906" d="M222.883,170.7l-4.066-2.338a1.017,1.017,0,0,1-.417-.783h0c0-.3.173-.442.4-.315l4.066,2.338a1.017,1.017,0,0,1,.417.783h0C223.28,170.69,223.112,170.827,222.883,170.7Z" transform="translate(-107.393 -82.219)" fill="#d4ecff"/>
        <path id="Path_1907" data-name="Path 1907" d="M204.778,151.291l-.971-.559a1.017,1.017,0,0,1-.417-.783h0c0-.3.173-.442.4-.315l.976.564a1.017,1.017,0,0,1,.417.783h0C205.184,151.281,205,151.423,204.778,151.291Z" transform="translate(-100.012 -73.55)" fill="#d4ecff"/>
        <path id="Path_1908" data-name="Path 1908" d="M205.156,160.451l-1.21-.7a1.017,1.017,0,0,1-.417-.783h0c0-.3.178-.442.4-.31l1.21.7a1.017,1.017,0,0,1,.417.783h0C205.563,160.446,205.38,160.583,205.156,160.451Z" transform="translate(-100.081 -77.988)" fill="#d4ecff"/>
        <path id="Path_1909" data-name="Path 1909" d="M212.5,164.707l-3.2-1.815a1.016,1.016,0,0,1-.417-.783h0c0-.3.173-.442.4-.315l3.182,1.84a1.017,1.017,0,0,1,.417.783h0C212.9,164.7,212.717,164.839,212.5,164.707Z" transform="translate(-102.717 -79.529)" fill="#d4ecff"/>
        <path id="Path_1910" data-name="Path 1910" d="M206.314,165.614l-2.287-1.327a.981.981,0,0,1-.417-.778h0c0-.3.173-.442.4-.315l2.292,1.322a1.017,1.017,0,0,1,.417.783h0C206.721,165.614,206.543,165.731,206.314,165.614Z" transform="translate(-100.121 -80.218)" fill="#d4ecff"/>
        <path id="Path_1911" data-name="Path 1911" d="M232.236,176.074l-1.469-.849a.986.986,0,0,1-.417-.783h0c0-.3.173-.442.4-.31l1.474.849a1.016,1.016,0,0,1,.417.783h0C232.642,176.074,232.459,176.221,232.236,176.074Z" transform="translate(-113.269 -85.595)" fill="#d4ecff"/>
        <path id="Path_1912" data-name="Path 1912" d="M213.8,147.573l-4.066-2.338a1.017,1.017,0,0,1-.417-.783h0c0-.3.173-.442.4-.31l4.066,2.333a1.017,1.017,0,0,1,.417.783h0C214.2,147.563,214.027,147.7,213.8,147.573Z" transform="translate(-102.928 -70.848)" fill="#d4ecff"/>
        <path id="Path_1913" data-name="Path 1913" d="M210.642,141.271l-7.055-4.066a1.017,1.017,0,0,1-.417-.783h0c0-.3.173-.442.4-.31l7.06,4.066a1.017,1.017,0,0,1,.412.783h0C211.043,141.266,210.865,141.4,210.642,141.271Z" transform="translate(-99.904 -66.9)" fill="#d4ecff"/>
        <path id="Path_1914" data-name="Path 1914" d="M207.768,148.555l-4.066-2.338a.976.976,0,0,1-.412-.778h0c0-.3.173-.442.4-.315l4.066,2.338a1.017,1.017,0,0,1,.417.783h0C208.17,148.545,207.992,148.687,207.768,148.555Z" transform="translate(-99.963 -71.333)" fill="#d4ecff"/>
        <path id="Path_1915" data-name="Path 1915" d="M222.351,152.5l-1.474-.849a1.017,1.017,0,0,1-.417-.783h0c0-.3.178-.442.4-.315l1.469.849a1.017,1.017,0,0,1,.417.783h0C222.768,152.491,222.574,152.628,222.351,152.5Z" transform="translate(-108.406 -74.003)" fill="#d4ecff"/>
        <path id="Path_1916" data-name="Path 1916" d="M239.944,144.777l-8.707-5.032a.986.986,0,0,1-.417-.783h0c0-.3.173-.442.4-.31l8.712,5.027a1.017,1.017,0,0,1,.417.783h0C240.35,144.767,240.172,144.9,239.944,144.777Z" transform="translate(-113.5 -68.149)" fill="#d4ecff"/>
        <path id="Path_1917" data-name="Path 1917" d="M208.746,158.056l-4.869-2.811a1.017,1.017,0,0,1-.417-.783h0c0-.3.173-.442.4-.31l4.864,2.806a1.017,1.017,0,0,1,.417.783h0C209.148,158.046,208.97,158.183,208.746,158.056Z" transform="translate(-100.047 -75.771)" fill="#d4ecff"/>
        <path id="Path_1918" data-name="Path 1918" d="M202.985,123.424l-3.558-2.069a1.017,1.017,0,0,1-.417-.783h0c0-.3.173-.442.4-.31l3.558,2.064a1.017,1.017,0,0,1,.417.783h0C203.386,123.413,203.208,123.551,202.985,123.424Z" transform="translate(-97.859 -59.106)" fill="#d4ecff"/>
        <path id="Path_1919" data-name="Path 1919" d="M204.259,168.878l-4.143-2.394a1.017,1.017,0,0,1-.417-.783h0c0-.3.173-.442.4-.31l4.148,2.389a1.017,1.017,0,0,1,.417.783h0C204.666,168.868,204.483,169.005,204.259,168.878Z" transform="translate(-98.198 -81.297)" fill="#d4ecff"/>
        <path id="Path_1920" data-name="Path 1920" d="M.12,165.269l21.348-12.428c4.229-2.44,8.214-2.826,11.228-1.088s4.671,5.388,4.671,10.267v1.566c-.152.1-.31.2-.473.3v-1.86c0-4.707-1.576-8.209-4.432-9.861s-6.684-1.261-10.76,1.093L.353,165.68a.229.229,0,0,1-.32-.1.239.239,0,0,1,.086-.315Z" transform="translate(-0.006 -74.088)" fill="#d4ecff"/>
        <path id="Path_1921" data-name="Path 1921" d="M120.933,76.371v-48.1c0-9.627,6.786-21.373,15.122-26.187,4.1-2.358,7.934-2.735,10.847-1.072s4.508,5.2,4.508,9.917v3.355l-.468.468v-3.8c0-4.539-1.525-7.919-4.28-9.51s-6.44-1.22-10.374,1.052c-8.209,4.737-14.883,16.311-14.883,25.78v48.1c0,7.98-4.7,17.424-11.065,23.107v-.63C116.455,93.226,120.933,84.1,120.933,76.371Z" transform="translate(-54.259 0.007)" fill="#d4ecff"/>
        <path id="Path_1922" data-name="Path 1922" d="M190.688,26.358h0a18.9,18.9,0,0,1,9.657-4.717c5.957-.91,8.417,6.054,8.417,6.054a38.528,38.528,0,0,1,.661,5.779c0,2.14-.178,9.917-.178,9.917l-18.9-10.872h0a.234.234,0,0,1-.127-.208V26.785C190.378,26.627,190.53,26.535,190.688,26.358Z" transform="translate(-93.537 -10.597)" fill="#4da1ff"/>
        <path id="Path_1923" data-name="Path 1923" d="M164.749,11.423,146.857,1.089l.066.254C144.178-.435,140-.608,134.424,3.478c-11.076,8.133-12.407,19.427-12.971,21.546s-.33,15.543-.33,15.543-.041,32.373-.076,36.139a31.053,31.053,0,0,1-3.248,12.55c-2.114,4.559-7.548,10.1-7.548,10.1v6.608c.869,7.116,3.893,8.788,8.4,9.19,3.634.33,7.507-2.292,10.6-5.154l-.188.193V116.8c.869,7.116,3.893,8.783,8.4,9.19s9.378-3.721,12.677-7.213a37.524,37.524,0,0,0,7.624-13.632c1.525-4.808,1.017-11.025,1.017-11.025s.036-35.392.076-42.366.254-5.759,2.541-12.773,8.382-11.97,8.382-11.97l14.557-4.326Z" transform="translate(-54.214 -0.069)" fill="#f2f2f2"/>
        <path id="Path_1924" data-name="Path 1924" d="M115.048,210.127c-.244-.33-3.431-2.47-4.244-6.237a29.33,29.33,0,0,1-.407-5.276s0-1.774.056-3.38l.107-.091v-.635l-.086.081a8.044,8.044,0,0,1,.041-1.017c.091-1.672-1.144-5.24-1.144-5.24a7.961,7.961,0,0,0-6.979-4.966c-4.636-.163-9.52,3.172-10.557,3.924v-2.16l-.213.137v-.874l.107-.091v-.63l-.086.076a7.52,7.52,0,0,1,.041-.991c.091-1.677-1.144-5.246-1.144-5.246a7.969,7.969,0,0,0-6.979-4.966c-4.636-.163-9.52,3.177-10.557,3.924v-2.155c-.152.1-.31.2-.473.3v3.777c0,4.575,1.525,8.021,4.3,9.734h0l.1.056.076.051.051.025L96.206,199.28v-.025Z" transform="translate(-35.667 -84.836)" fill="#4da1ff"/>
        <path id="Path_1925" data-name="Path 1925" d="M51.588,162.771a4.33,4.33,0,0,0-.4-.178l-.229-.117L32.776,151.949a9.759,9.759,0,0,0-7.38-.274C21.355,153.154.18,165.856.18,165.856l18.918,10.9h.051L37.91,187.565s10.613-6.577,17.953-10.821l.473-.269a47.851,47.851,0,0,1,6.13-3.212,11.653,11.653,0,0,1,8.5.712Z" transform="translate(-0.091 -74.284)" fill="#f2f2f2"/>
        <path id="Path_1926" data-name="Path 1926" d="M139.44,196.14l.219.127Z" transform="translate(-68.567 -96.441)" fill="#d4ecff"/>
        <path id="Path_1927" data-name="Path 1927" d="M227.7,47.688h0a18.857,18.857,0,0,1,9.657-4.717c5.937-.91,8.4,6.074,8.4,6.074a38.9,38.9,0,0,1,.676,5.739c-.025,2.14-.178,9.917-.178,9.917L227.357,53.823h0a.234.234,0,0,1-.127-.208v-5.52C227.388,47.937,227.545,47.845,227.7,47.688Z" transform="translate(-111.735 -21.085)" fill="#4da1ff"/>
        <path id="Path_1928" data-name="Path 1928" d="M119.528,147.14a13.756,13.756,0,0,0,6.77-2.074c8.28-4.778,15.01-16.443,15.01-26v-48.1c0-9.474,6.679-21.043,14.888-25.78,3.934-2.272,7.624-2.643,10.374-1.052s4.28,4.966,4.28,9.51V64.4a.229.229,0,0,0,.234.234.234.234,0,0,0,.234-.234V53.646c0-4.717-1.6-8.239-4.514-9.917s-6.76-1.306-10.842,1.047c-8.341,4.813-15.122,16.565-15.122,26.192v48.125c0,9.408-6.608,20.891-14.776,25.592-3.9,2.252-7.558,2.623-10.3,1.017s-4.244-4.93-4.244-9.439v-5.642c0-4.88-1.657-8.529-4.671-10.267s-7-1.352-11.228,1.088L74.276,133.869a.239.239,0,0,0-.086.325.234.234,0,0,0,.32.081l21.348-12.423c4.066-2.353,7.9-2.745,10.76-1.093s4.432,5.154,4.432,9.861v5.642c0,4.681,1.591,8.178,4.483,9.851A7.889,7.889,0,0,0,119.528,147.14Z" transform="translate(-36.467 -20.99)" fill="#396caa"/>
        <path id="Path_1929" data-name="Path 1929" d="M162.745,118.312l-3.156-1.82a1.3,1.3,0,0,1-.539-1.017h0c0-.4.224-.574.508-.407l3.151,1.82a1.3,1.3,0,0,1,.544,1.017h0C163.269,118.3,163.04,118.485,162.745,118.312Z" transform="translate(-78.21 -56.546)" fill="#5793ce"/>
        <path id="Path_1930" data-name="Path 1930" d="M174.475,125.086l-4.651-2.684a1.291,1.291,0,0,1-.544-1.017h0c0-.4.229-.574.508-.407l4.656,2.684a1.311,1.311,0,0,1,.539,1.017h0C175,125.076,174.77,125.259,174.475,125.086Z" transform="translate(-83.24 -59.452)" fill="#5793ce"/>
        <path id="Path_1931" data-name="Path 1931" d="M159.267,93.05l-6.023-3.487a1.317,1.317,0,0,1-.544-1.017h0c0-.391.229-.574.508-.407l6.023,3.482a1.3,1.3,0,0,1,.544,1.017h0C159.791,93.035,159.557,93.218,159.267,93.05Z" transform="translate(-75.087 -43.305)" fill="#5793ce"/>
        <path id="Path_1932" data-name="Path 1932" d="M155.426,102.457l-1.952-1.144a1.306,1.306,0,0,1-.544-1.017h0c0-.391.229-.574.508-.407l1.972,1.139a1.306,1.306,0,0,1,.544,1.017h0C155.949,102.457,155.715,102.619,155.426,102.457Z" transform="translate(-75.201 -49.083)" fill="#5793ce"/>
        <path id="Path_1933" data-name="Path 1933" d="M154.889,113.782l-1.266-.727a1.316,1.316,0,0,1-.544-1.017h0c0-.391.229-.574.508-.4l1.266.727a1.3,1.3,0,0,1,.544,1.017h0C155.413,113.772,155.179,113.955,154.889,113.782Z" transform="translate(-75.274 -54.857)" fill="#5793ce"/>
        <path id="Path_1934" data-name="Path 1934" d="M166.645,108.932l-5.266-3.05a1.3,1.3,0,0,1-.539-1.017h0c0-.4.224-.574.508-.407l5.266,3.05a1.3,1.3,0,0,1,.539,1.017h0C167.168,108.917,166.939,109.1,166.645,108.932Z" transform="translate(-79.09 -51.329)" fill="#5793ce"/>
        <path id="Path_1935" data-name="Path 1935" d="M162.538,100.744l-9.149-5.3a1.3,1.3,0,0,1-.539-1.017h0c0-.391.224-.574.508-.407l9.175,5.3a1.317,1.317,0,0,1,.544,1.017h0C163.092,100.729,162.833,100.912,162.538,100.744Z" transform="translate(-75.161 -46.196)" fill="#5793ce"/>
        <path id="Path_1936" data-name="Path 1936" d="M158.795,110.212l-5.266-3.05a1.3,1.3,0,0,1-.539-1.017h0c0-.4.224-.574.508-.407l5.266,3.05a1.3,1.3,0,0,1,.539,1.017h0C159.318,110.2,159.095,110.38,158.795,110.212Z" transform="translate(-75.23 -51.959)" fill="#5793ce"/>
        <path id="Path_1937" data-name="Path 1937" d="M177.745,115.346l-1.916-1.1a1.3,1.3,0,0,1-.539-1.017h0c0-.391.224-.574.508-.407l1.911,1.1a1.316,1.316,0,0,1,.544,1.017h0C178.269,115.336,178.035,115.519,177.745,115.346Z" transform="translate(-86.195 -55.441)" fill="#5793ce"/>
        <path id="Path_1938" data-name="Path 1938" d="M165.82,85.21l-3.156-1.82a1.291,1.291,0,0,1-.544-1.017h0c0-.4.229-.579.508-.407l3.156,1.82a1.306,1.306,0,0,1,.544,1.017h0C166.344,85.2,166.125,85.378,165.82,85.21Z" transform="translate(-79.719 -40.268)" fill="#5793ce"/>
        <path id="Path_1939" data-name="Path 1939" d="M179.14,92.937l-4.666-2.714a1.3,1.3,0,0,1-.544-1.017h0c0-.391.229-.574.508-.407l4.656,2.689a1.3,1.3,0,0,1,.539,1.017h0C179.663,92.9,179.435,93.08,179.14,92.937Z" transform="translate(-85.527 -43.63)" fill="#5793ce"/>
        <path id="Path_1940" data-name="Path 1940" d="M162.745,118.312l-3.156-1.82a1.3,1.3,0,0,1-.539-1.017h0c0-.4.224-.574.508-.407l3.151,1.82a1.3,1.3,0,0,1,.544,1.017h0C163.269,118.3,163.04,118.485,162.745,118.312Z" transform="translate(-78.21 -56.546)" fill="#5793ce"/>
        <path id="Path_1941" data-name="Path 1941" d="M174.475,125.086l-4.651-2.684a1.291,1.291,0,0,1-.544-1.017h0c0-.4.229-.574.508-.407l4.656,2.684a1.311,1.311,0,0,1,.539,1.017h0C175,125.076,174.77,125.259,174.475,125.086Z" transform="translate(-83.24 -59.452)" fill="#5793ce"/>
        <path id="Path_1942" data-name="Path 1942" d="M149.941,81.861l-1.967-1.139a1.291,1.291,0,0,1-.544-1.017h0c0-.4.229-.574.508-.407l1.972,1.139a1.291,1.291,0,0,1,.539,1.017h0C150.47,81.846,150.261,82.029,149.941,81.861Z" transform="translate(-72.496 -38.958)" fill="#5793ce"/>
        <path id="Path_1943" data-name="Path 1943" d="M159.267,93.05l-6.023-3.487a1.317,1.317,0,0,1-.544-1.017h0c0-.391.229-.574.508-.407l6.023,3.482a1.3,1.3,0,0,1,.544,1.017h0C159.791,93.035,159.557,93.218,159.267,93.05Z" transform="translate(-75.087 -43.305)" fill="#5793ce"/>
        <path id="Path_1944" data-name="Path 1944" d="M155.426,102.457l-1.952-1.144a1.306,1.306,0,0,1-.544-1.017h0c0-.391.229-.574.508-.407l1.972,1.139a1.306,1.306,0,0,1,.544,1.017h0C155.949,102.457,155.715,102.619,155.426,102.457Z" transform="translate(-75.201 -49.083)" fill="#5793ce"/>
        <path id="Path_1945" data-name="Path 1945" d="M178.46,139l-5.266-3.05a1.306,1.306,0,0,1-.544-1.017h0c0-.391.229-.574.508-.407l5.266,3.05a1.306,1.306,0,0,1,.544,1.017h0C178.983,138.993,178.749,139.17,178.46,139Z" transform="translate(-84.897 -66.116)" fill="#5793ce"/>
        <path id="Path_1946" data-name="Path 1946" d="M154.889,113.782l-1.266-.727a1.316,1.316,0,0,1-.544-1.017h0c0-.391.229-.574.508-.4l1.266.727a1.3,1.3,0,0,1,.544,1.017h0C155.413,113.772,155.179,113.955,154.889,113.782Z" transform="translate(-75.274 -54.857)" fill="#5793ce"/>
        <path id="Path_1947" data-name="Path 1947" d="M155.384,125.683l-1.571-.91a1.306,1.306,0,0,1-.544-1.017h0c0-.391.229-.574.508-.407l1.571.91a1.291,1.291,0,0,1,.544,1.017h0C155.908,125.683,155.674,125.856,155.384,125.683Z" transform="translate(-75.368 -60.618)" fill="#5793ce"/>
        <path id="Path_1948" data-name="Path 1948" d="M164.926,131.247l-4.143-2.394a1.286,1.286,0,0,1-.544-1.017h0c0-.391.224-.574.508-.407l4.143,2.394a1.306,1.306,0,0,1,.544,1.017h0C165.45,131.211,165.2,131.389,164.926,131.247Z" transform="translate(-78.795 -62.625)" fill="#5793ce"/>
        <path id="Path_1949" data-name="Path 1949" d="M156.887,132.37l-2.979-1.718a1.3,1.3,0,0,1-.539-1.017h0c0-.4.224-.574.508-.407l2.979,1.718a1.311,1.311,0,0,1,.539,1.017h0C157.416,132.36,157.182,132.543,156.887,132.37Z" transform="translate(-75.417 -63.509)" fill="#5793ce"/>
        <path id="Path_1950" data-name="Path 1950" d="M166.645,108.932l-5.266-3.05a1.3,1.3,0,0,1-.539-1.017h0c0-.4.224-.574.508-.407l5.266,3.05a1.3,1.3,0,0,1,.539,1.017h0C167.168,108.917,166.939,109.1,166.645,108.932Z" transform="translate(-79.09 -51.329)" fill="#5793ce"/>
        <path id="Path_1951" data-name="Path 1951" d="M162.538,100.744l-9.149-5.3a1.3,1.3,0,0,1-.539-1.017h0c0-.391.224-.574.508-.407l9.175,5.3a1.317,1.317,0,0,1,.544,1.017h0C163.092,100.729,162.833,100.912,162.538,100.744Z" transform="translate(-75.161 -46.196)" fill="#5793ce"/>
        <path id="Path_1952" data-name="Path 1952" d="M158.795,110.212l-5.266-3.05a1.3,1.3,0,0,1-.539-1.017h0c0-.4.224-.574.508-.407l5.266,3.05a1.3,1.3,0,0,1,.539,1.017h0C159.318,110.2,159.095,110.38,158.795,110.212Z" transform="translate(-75.23 -51.959)" fill="#5793ce"/>
        <path id="Path_1953" data-name="Path 1953" d="M177.745,115.346l-1.916-1.1a1.3,1.3,0,0,1-.539-1.017h0c0-.391.224-.574.508-.407l1.911,1.1a1.316,1.316,0,0,1,.544,1.017h0C178.269,115.336,178.035,115.519,177.745,115.346Z" transform="translate(-86.195 -55.441)" fill="#5793ce"/>
        <path id="Path_1954" data-name="Path 1954" d="M160.047,122.568l-6.328-3.655a1.3,1.3,0,0,1-.539-1.017h0c0-.391.224-.574.508-.407l6.328,3.655a1.3,1.3,0,0,1,.539,1.017h0C160.576,122.557,160.342,122.74,160.047,122.568Z" transform="translate(-75.324 -57.737)" fill="#5793ce"/>
        <path id="Path_1955" data-name="Path 1955" d="M152.53,77.542l-4.651-2.689a1.3,1.3,0,0,1-.539-1.017h0c0-.391.224-.574.508-.407l4.651,2.689a1.281,1.281,0,0,1,.539,1.017h0C153.058,77.527,152.824,77.71,152.53,77.542Z" transform="translate(-72.452 -36.072)" fill="#5793ce"/>
        <path id="Path_1956" data-name="Path 1956" d="M154.242,136.658l-5.413-3.1a1.3,1.3,0,0,1-.539-1.017h0c0-.4.224-.574.508-.407l5.388,3.111a1.3,1.3,0,0,1,.539,1.017h0C154.75,136.648,154.511,136.825,154.242,136.658Z" transform="translate(-72.919 -64.94)" fill="#5793ce"/>
        <path id="Path_1957" data-name="Path 1957" d="M161.285,174l-3.156-1.825a1.3,1.3,0,0,1-.539-1.017h0c0-.391.224-.574.508-.407l3.156,1.825a1.3,1.3,0,0,1,.539,1.017h0C161.809,173.982,161.58,174.165,161.285,174Z" transform="translate(-77.492 -83.926)" fill="#5793ce"/>
        <path id="Path_1958" data-name="Path 1958" d="M172.975,180.772l-4.651-2.689a1.306,1.306,0,0,1-.544-1.017h0c0-.391.229-.574.508-.407l4.686,2.684a1.3,1.3,0,0,1,.539,1.017h0C173.519,180.757,173.29,180.94,172.975,180.772Z" transform="translate(-82.503 -86.832)" fill="#5793ce"/>
        <path id="Path_1959" data-name="Path 1959" d="M157.807,148.739l-6.023-3.477a1.306,1.306,0,0,1-.544-1.017h0c0-.4.229-.574.508-.407l6.023,3.477a1.306,1.306,0,0,1,.544,1.017h0C158.331,148.729,158.1,148.907,157.807,148.739Z" transform="translate(-74.37 -70.693)" fill="#5793ce"/>
        <path id="Path_1960" data-name="Path 1960" d="M153.946,158.138l-1.972-1.133a1.316,1.316,0,0,1-.544-1.017h0c0-.391.229-.574.508-.4l1.972,1.133a1.317,1.317,0,0,1,.544,1.017h0C154.47,158.128,154.261,158.306,153.946,158.138Z" transform="translate(-74.463 -76.468)" fill="#5793ce"/>
        <path id="Path_1961" data-name="Path 1961" d="M153.429,169.465l-1.266-.732a1.306,1.306,0,0,1-.544-1.017h0c0-.391.229-.574.508-.407l1.266.732a1.291,1.291,0,0,1,.544,1.017h0C153.953,169.45,153.719,169.633,153.429,169.465Z" transform="translate(-74.556 -82.234)" fill="#5793ce"/>
        <path id="Path_1962" data-name="Path 1962" d="M165.185,164.613l-5.266-3.05a1.3,1.3,0,0,1-.539-1.017h0c0-.391.224-.574.508-.407l5.266,3.05a1.3,1.3,0,0,1,.539,1.017h0C165.708,164.613,165.479,164.785,165.185,164.613Z" transform="translate(-78.372 -78.708)" fill="#5793ce"/>
        <path id="Path_1963" data-name="Path 1963" d="M161.058,156.432l-9.18-5.3a1.3,1.3,0,0,1-.539-1.017h0c0-.4.224-.579.508-.407L161,155a1.306,1.306,0,0,1,.544,1.017h0C161.582,156.432,161.333,156.594,161.058,156.432Z" transform="translate(-74.419 -73.577)" fill="#5793ce"/>
        <path id="Path_1964" data-name="Path 1964" d="M157.385,165.893l-5.266-3.05a1.3,1.3,0,0,1-.539-1.017h0c0-.391.224-.574.508-.407l5.266,3.05a1.311,1.311,0,0,1,.539,1.017h0C157.893,165.883,157.654,166.065,157.385,165.893Z" transform="translate(-74.537 -79.338)" fill="#5793ce"/>
        <path id="Path_1965" data-name="Path 1965" d="M176.285,171.036l-1.916-1.1a1.311,1.311,0,0,1-.539-1.017h0c0-.391.224-.574.508-.407l1.911,1.108a1.306,1.306,0,0,1,.544,1.017h0C176.809,171.021,176.575,171.2,176.285,171.036Z" transform="translate(-85.477 -82.824)" fill="#5793ce"/>
        <path id="Path_1966" data-name="Path 1966" d="M210.24,303.545l5.845-3.375,5.84,3.375-5.84,3.375Z" transform="translate(-103.381 -147.594)" fill="#d4ecff"/>
        <path id="Path_1967" data-name="Path 1967" d="M234.64,289.27l5.845-3.37,5.845,3.37-5.845,3.375Z" transform="translate(-115.378 -140.577)" fill="#d4ecff"/>
        <path id="Path_1968" data-name="Path 1968" d="M258.97,275.335l5.845-3.375,5.845,3.375-5.845,3.37Z" transform="translate(-127.342 -133.723)" fill="#d4ecff"/>
        <path id="Path_1969" data-name="Path 1969" d="M240.485,271.863V253.87l-5.845-3.37v17.993Z" transform="translate(-115.378 -123.17)" fill="#c13d1a"/>
        <path id="Path_1970" data-name="Path 1970" d="M246.14,253.87l5.845-3.37v17.993l-5.845,3.37Z" transform="translate(-121.033 -123.17)" fill="url(#linear-gradient-8)"/>
        <path id="Path_1971" data-name="Path 1971" d="M240.485,271.863V253.87l-5.845-3.37v17.993Z" transform="translate(-115.378 -123.17)" fill="url(#linear-gradient-8)"/>
        <path id="Path_1972" data-name="Path 1972" d="M216.085,293.755v-10.12l-5.845-3.375v10.12Z" transform="translate(-103.381 -137.804)" fill="url(#linear-gradient-8)"/>
        <path id="Path_1973" data-name="Path 1973" d="M221.74,283.635l5.84-3.375v10.12l-5.84,3.375Z" transform="translate(-109.035 -137.804)" fill="url(#linear-gradient-8)"/>
        <path id="Path_1974" data-name="Path 1974" d="M210.24,277l5.845-3.375,5.84,3.375-5.84,3.375Z" transform="translate(-103.381 -134.539)" fill="#f905f5"/>
        <path id="Path_1975" data-name="Path 1975" d="M264.815,251.4V226.655l-5.845-3.375v24.743Z" transform="translate(-127.342 -109.786)" fill="url(#linear-gradient-8)"/>
        <path id="Path_1976" data-name="Path 1976" d="M270.47,226.655l5.845-3.375v24.743L270.47,251.4Z" transform="translate(-132.997 -109.786)" fill="url(#linear-gradient-8)"/>
        <path id="Path_1977" data-name="Path 1977" d="M258.97,220.02l5.845-3.37,5.845,3.37-5.845,3.375Z" transform="translate(-127.342 -106.526)" fill="#f905f5"/>
        <path id="Path_1978" data-name="Path 1978" d="M234.64,247.235l5.845-3.375,5.845,3.375-5.845,3.37Z" transform="translate(-115.378 -119.905)" fill="#f905f5"/>
        <path id="Path_1979" data-name="Path 1979" d="M82.145,284.463c-4.981-2.877-13.058-2.877-18.039,0s-4.981,7.538,0,10.415,13.058,2.877,18.039,0S87.121,287.34,82.145,284.463Zm-4.874,7.624a9.163,9.163,0,0,1-8.29,0c-2.292-1.322-2.287-3.467,0-4.788a9.163,9.163,0,0,1,8.29,0c2.287,1.322,2.292,3.441,0,4.768Z" transform="translate(-29.688 -138.809)" fill="#d4ecff"/>
        <path id="Path_1980" data-name="Path 1980" d="M61.891,276.589l4.575.071a4.965,4.965,0,0,1,1.423-1.189,10.966,10.966,0,0,1,9.149-.335l2.7-2.541,4.163.061c-.2-.132-.417-.264-.635-.391-5.789-3.345-15.167-3.345-20.952,0a10.964,10.964,0,0,0-2.6,2.033Z" transform="translate(-29.363 -132.638)" fill="#b001ad"/>
        <path id="Path_1981" data-name="Path 1981" d="M103.3,262.366v6.6l-4.163-.061V262.3Z" transform="translate(-48.751 -128.973)" fill="#b001ad"/>
        <path id="Path_1982" data-name="Path 1982" d="M93.83,264.841v6.608l2.7-2.541V262.3Z" transform="translate(-46.14 -128.973)" fill="#b001ad"/>
        <path id="Path_1983" data-name="Path 1983" d="M72.97,266.854v6.608l5.988-4.88,4.615,3.334v-6.608l-4.249-2.059s-5.845,1.789-6.171,1.865S72.97,266.854,72.97,266.854Z" transform="translate(-35.868 -129.44)" fill="#b001ad"/>
        <path id="Path_1984" data-name="Path 1984" d="M64.02,270.2v6.608l4.549.071v-6.608Z" transform="translate(-31.482 -132.857)" fill="#b001ad"/>
        <path id="Path_1985" data-name="Path 1985" d="M59.74,265.64v6.6l2.175,2.323v-6.608Z" transform="translate(-29.378 -130.615)" fill="#b001ad"/>
        <path id="Path_1986" data-name="Path 1986" d="M61.891,263.589l4.575.071a4.965,4.965,0,0,1,1.423-1.189,10.966,10.966,0,0,1,9.149-.336l2.7-2.541,4.163.066c-.2-.137-.417-.269-.635-.4-5.789-3.345-15.167-3.345-20.952,0a10.71,10.71,0,0,0-2.6,2.033Z" transform="translate(-29.363 -126.246)" fill="#f905f5"/>
        <path id="Path_1987" data-name="Path 1987" d="M96.52,268.9V275l3.939-.945s-.229-3.558-.315-3.649S96.52,268.9,96.52,268.9Z" transform="translate(-47.463 -132.218)" fill="#5793ce"/>
        <path id="Path_1988" data-name="Path 1988" d="M90.66,280.85v6.608l.422.452,2.8-1.6s-.432-5.042-.483-5.144A26.266,26.266,0,0,0,90.66,280.85Z" transform="translate(-44.582 -138.094)" fill="#173d7a"/>
        <path id="Path_1989" data-name="Path 1989" d="M96.022,277.49l-2.384,2.242c1.982,1.571,1.749,3.782-.707,5.195a8.385,8.385,0,0,1-2.272.879l2.46,2.618-2.181,2.033a19.823,19.823,0,0,0,7.558-2.338c4.971-2.872,5.667-7.274,2.089-10.577Z" transform="translate(-44.582 -136.442)" fill="#1b79e2"/>
        <path id="Path_1990" data-name="Path 1990" d="M91.21,281.637v6.608l5.4-2.084,6.5-6.2-.025-7.014-6.872,5.444Z" transform="translate(-44.852 -134.209)" fill="#1b79e2"/>
        <path id="Path_1991" data-name="Path 1991" d="M96.022,264.49l-2.384,2.242c1.982,1.571,1.749,3.782-.707,5.2a8.549,8.549,0,0,1-2.272.874l2.46,2.618-2.181,2.033a19.823,19.823,0,0,0,7.558-2.338c4.971-2.872,5.667-7.274,2.089-10.577Z" transform="translate(-44.582 -130.049)" fill="#d4ecff"/>
        <path id="Path_1992" data-name="Path 1992" d="M74.036,290.2l-2.165-2.313a10.359,10.359,0,0,1-5.647-1.154c-1.6-.92-2.252-2.175-1.972-3.37l-5.164-.081L57.1,281.17c-1.738,2.979-.554,6.4,3.558,8.778a21.709,21.709,0,0,0,10.989,2.5Z" transform="translate(-27.698 -138.251)" fill="#1b79e2"/>
        <path id="Path_1993" data-name="Path 1993" d="M71.655,282.139v6.608L56.33,280.253V273.64l2.236.9Z" transform="translate(-27.701 -134.549)" fill="#1b79e2"/>
        <path id="Path_1994" data-name="Path 1994" d="M88.864,285.94v6.608l-2.384,2.247v-6.608Z" transform="translate(-42.526 -140.597)" fill="#173d7a"/>
        <path id="Path_1995" data-name="Path 1995" d="M74.036,277.2l-2.165-2.313a10.4,10.4,0,0,1-5.647-1.149c-1.6-.92-2.252-2.181-1.972-3.375l-5.164-.081L57.1,268.17c-1.738,2.979-.554,6.4,3.558,8.778a21.709,21.709,0,0,0,10.989,2.5Z" transform="translate(-27.698 -131.859)" fill="#4da1ff"/>
        <path id="Path_1996" data-name="Path 1996" d="M243.463,6.587a2.857,2.857,0,1,1-.838-2.022,2.862,2.862,0,0,1,.838,2.022Z" transform="translate(-116.903 -1.83)" fill="#d4ecff"/>
        <path id="Path_1997" data-name="Path 1997" d="M203.485,59.8,189.9,51.95a.717.717,0,0,0-.707-.056h0l-1.322.762L188.8,53v9.886a2.613,2.613,0,0,0,1.1,2.089l12.987,7.5v1.159l1.322-.768h0a.981.981,0,0,0,.371-.874v-10.1A2.628,2.628,0,0,0,203.485,59.8Z" transform="translate(-92.381 -25.48)" fill="#d3008d"/>
        <path id="Path_1998" data-name="Path 1998" d="M201.77,74.337l-13.617-7.848A2.618,2.618,0,0,1,187.06,64.4V54.3c0-.8.508-1.174,1.093-.823L201.77,61.3a2.623,2.623,0,0,1,1.093,2.089V73.5C202.837,74.317,202.349,74.688,201.77,74.337Z" transform="translate(-91.983 -26.224)" fill="#f905f5"/>
        <path id="Path_1999" data-name="Path 1999" d="M196.435,70.691c0,.585-.412.823-.92.508a2.033,2.033,0,0,1-.915-1.586c0-.585.412-.823.915-.508A2.033,2.033,0,0,1,196.435,70.691Z" transform="translate(-95.69 -33.907)" fill="#fff"/>
        <path id="Path_2000" data-name="Path 2000" d="M201.895,73.848c0,.585-.412.818-.915.508a2.033,2.033,0,0,1-.92-1.591c0-.585.412-.818.92-.508a2.033,2.033,0,0,1,.915,1.591Z" transform="translate(-98.375 -35.458)" fill="#fff"/>
        <path id="Path_2001" data-name="Path 2001" d="M207.365,77c0,.585-.412.823-.92.508a2.033,2.033,0,0,1-.915-1.591c0-.585.412-.823.915-.508A2.033,2.033,0,0,1,207.365,77Z" transform="translate(-101.065 -37.005)" fill="#fff"/>
        <path id="Path_2002" data-name="Path 2002" d="M73.765,29.575l-13.332-7.7a.676.676,0,0,0-.686-.056h0l-1.3.747.91.33v9.7a2.541,2.541,0,0,0,1.072,2.033l12.743,7.37v1.144l1.311-.757h0a.956.956,0,0,0,.361-.854V31.624A2.541,2.541,0,0,0,73.765,29.575Z" transform="translate(-28.744 -10.694)" fill="#1b79e2"/>
        <path id="Path_2003" data-name="Path 2003" d="M72.06,43.84l-13.337-7.7a2.541,2.541,0,0,1-1.072-2.033V24.174c0-.788.478-1.149,1.072-.808l13.337,7.7a2.572,2.572,0,0,1,1.072,2.033v9.912C73.127,43.819,72.65,44.18,72.06,43.84Z" transform="translate(-28.35 -11.423)" fill="#4da1ff"/>
        <path id="Path_2004" data-name="Path 2004" d="M66.82,40.278c0,.574-.4.808-.9.508A1.977,1.977,0,0,1,65,39.242c0-.574.4-.808.9-.508a1.977,1.977,0,0,1,.92,1.545Z" transform="translate(-31.964 -18.977)" fill="#fff"/>
        <path id="Path_2005" data-name="Path 2005" d="M72.2,43.4c0,.569-.4.8-.9.508a1.992,1.992,0,0,1-.9-1.525c0-.574.4-.8.9-.508a1.982,1.982,0,0,1,.9,1.525Z" transform="translate(-34.619 -20.524)" fill="#fff"/>
        <path id="Path_2006" data-name="Path 2006" d="M77.559,46.459c0,.574-.4.808-.9.508a1.987,1.987,0,0,1-.9-1.555c0-.574.407-.808.9-.508A1.977,1.977,0,0,1,77.559,46.459Z" transform="translate(-37.255 -22.011)" fill="#fff"/>
      </g>
    </g>
  </g>
</svg>
