<svg xmlns="http://www.w3.org/2000/svg" xmlns:xlink="http://www.w3.org/1999/xlink" width="406.503" height="576.856" viewBox="0 0 406.503 576.856">
  <defs>
    <filter id="Path_693" x="134" y="0" width="126.503" height="126.503" filterUnits="userSpaceOnUse">
      <feOffset dy="3" input="SourceAlpha"/>
      <feGaussianBlur stdDeviation="3" result="blur"/>
      <feFlood flood-opacity="0.161"/>
      <feComposite operator="in" in2="blur"/>
      <feComposite in="SourceGraphic"/>
    </filter>
    <filter id="Path_693-2" x="134" y="300" width="126.503" height="126.503" filterUnits="userSpaceOnUse">
      <feOffset dy="3" input="SourceAlpha"/>
      <feGaussianBlur stdDeviation="3" result="blur-2"/>
      <feFlood flood-opacity="0.161"/>
      <feComposite operator="in" in2="blur-2"/>
      <feComposite in="SourceGraphic"/>
    </filter>
    <filter id="Path_695" x="280" y="0" width="126.503" height="126.503" filterUnits="userSpaceOnUse">
      <feOffset dy="3" input="SourceAlpha"/>
      <feGaussianBlur stdDeviation="3" result="blur-3"/>
      <feFlood flood-opacity="0.161"/>
      <feComposite operator="in" in2="blur-3"/>
      <feComposite in="SourceGraphic"/>
    </filter>
    <filter id="Path_695-2" x="280" y="300" width="126.503" height="126.503" filterUnits="userSpaceOnUse">
      <feOffset dy="3" input="SourceAlpha"/>
      <feGaussianBlur stdDeviation="3" result="blur-4"/>
      <feFlood flood-opacity="0.161"/>
      <feComposite operator="in" in2="blur-4"/>
      <feComposite in="SourceGraphic"/>
    </filter>
    <filter id="Path_696" x="280" y="150" width="126.17" height="126.169" filterUnits="userSpaceOnUse">
      <feOffset dy="3" input="SourceAlpha"/>
      <feGaussianBlur stdDeviation="3" result="blur-5"/>
      <feFlood flood-opacity="0.161"/>
      <feComposite operator="in" in2="blur-5"/>
      <feComposite in="SourceGraphic"/>
    </filter>
    <filter id="Path_696-2" x="280" y="450" width="126.17" height="126.169" filterUnits="userSpaceOnUse">
      <feOffset dy="3" input="SourceAlpha"/>
      <feGaussianBlur stdDeviation="3" result="blur-6"/>
      <feFlood flood-opacity="0.161"/>
      <feComposite operator="in" in2="blur-6"/>
      <feComposite in="SourceGraphic"/>
    </filter>
    <filter id="Path_698" x="134" y="150" width="126.856" height="126.856" filterUnits="userSpaceOnUse">
      <feOffset dy="3" input="SourceAlpha"/>
      <feGaussianBlur stdDeviation="3" result="blur-7"/>
      <feFlood flood-opacity="0.161"/>
      <feComposite operator="in" in2="blur-7"/>
      <feComposite in="SourceGraphic"/>
    </filter>
    <filter id="Path_698-2" x="134" y="450" width="126.856" height="126.856" filterUnits="userSpaceOnUse">
      <feOffset dy="3" input="SourceAlpha"/>
      <feGaussianBlur stdDeviation="3" result="blur-8"/>
      <feFlood flood-opacity="0.161"/>
      <feComposite operator="in" in2="blur-8"/>
      <feComposite in="SourceGraphic"/>
    </filter>
    <filter id="Path_697" x="0" y="150" width="126.856" height="126.856" filterUnits="userSpaceOnUse">
      <feOffset dy="3" input="SourceAlpha"/>
      <feGaussianBlur stdDeviation="3" result="blur-9"/>
      <feFlood flood-opacity="0.161"/>
      <feComposite operator="in" in2="blur-9"/>
      <feComposite in="SourceGraphic"/>
    </filter>
    <clipPath id="clip-path">
      <path id="Path_692" data-name="Path 692" d="M0,0H59.019V59.02H0Z"/>
    </clipPath>
    <filter id="Path_697-2" x="0" y="450" width="126.856" height="126.856" filterUnits="userSpaceOnUse">
      <feOffset dy="3" input="SourceAlpha"/>
      <feGaussianBlur stdDeviation="3" result="blur-10"/>
      <feFlood flood-opacity="0.161"/>
      <feComposite operator="in" in2="blur-10"/>
      <feComposite in="SourceGraphic"/>
    </filter>
    <filter id="Path_694" x="0" y="0" width="126.503" height="126.503" filterUnits="userSpaceOnUse">
      <feOffset dy="3" input="SourceAlpha"/>
      <feGaussianBlur stdDeviation="3" result="blur-11"/>
      <feFlood flood-opacity="0.161"/>
      <feComposite operator="in" in2="blur-11"/>
      <feComposite in="SourceGraphic"/>
    </filter>
    <filter id="Path_694-2" x="0" y="300" width="126.503" height="126.503" filterUnits="userSpaceOnUse">
      <feOffset dy="3" input="SourceAlpha"/>
      <feGaussianBlur stdDeviation="3" result="blur-12"/>
      <feFlood flood-opacity="0.161"/>
      <feComposite operator="in" in2="blur-12"/>
      <feComposite in="SourceGraphic"/>
    </filter>
  </defs>
  <g id="Group_1322" data-name="Group 1322" transform="translate(-103 -2579)">
    <g id="Group_1310" data-name="Group 1310" transform="translate(246 2585)">
      <g transform="matrix(1, 0, 0, 1, -143, -6)" filter="url(#Path_693)">
        <path id="Path_693-3" data-name="Path 693" d="M54.251,0A54.251,54.251,0,1,1,0,54.251,54.251,54.251,0,0,1,54.251,0Z" transform="translate(143 6)" fill="#fff"/>
      </g>
      <g id="salesforce-2" transform="translate(13.516 25.61)">
        <path id="Path_670" data-name="Path 670" d="M34.381,6.715A14.267,14.267,0,0,1,44.706,2.283,14.415,14.415,0,0,1,57.266,9.728a17.358,17.358,0,0,1,7.1-1.509,17.707,17.707,0,0,1,0,35.412,17.42,17.42,0,0,1-3.457-.344A12.831,12.831,0,0,1,44.1,48.568a14.639,14.639,0,0,1-27.214-.662,13.429,13.429,0,0,1-2.793.291A13.759,13.759,0,0,1,7.3,22.572,15.812,15.812,0,0,1,34.381,6.715" transform="translate(-0.5 -0.5)" fill="#00a1e0"/>
        <path id="Path_671" data-name="Path 671" d="M144.989,288.213c-.051.133.019.161.035.184a4.741,4.741,0,0,0,.465.281,4.958,4.958,0,0,0,2.434.569c1.67,0,2.707-.888,2.707-2.318V286.9c0-1.322-1.17-1.8-2.269-2.149l-.143-.046c-.828-.269-1.543-.5-1.543-1.046v-.029c0-.466.418-.81,1.065-.81a4.815,4.815,0,0,1,2.122.543s.161.1.22-.052c.032-.084.311-.833.34-.914a.156.156,0,0,0-.081-.188,4.736,4.736,0,0,0-2.393-.643h-.167a2.333,2.333,0,0,0-2.6,2.247v.028c0,1.4,1.177,1.848,2.28,2.163l.177.055c.8.247,1.5.459,1.5,1.025v.028c0,.517-.45.9-1.176.9a3.949,3.949,0,0,1-2.151-.619c-.117-.068-.186-.118-.276-.173a.132.132,0,0,0-.219.075Zm24.45,0c-.051.133.019.161.035.184a4.754,4.754,0,0,0,.465.281,4.958,4.958,0,0,0,2.434.569c1.67,0,2.707-.888,2.707-2.318V286.9c0-1.322-1.17-1.8-2.269-2.149l-.143-.046c-.828-.269-1.543-.5-1.543-1.046v-.029c0-.466.418-.81,1.065-.81a4.816,4.816,0,0,1,2.122.543s.161.1.22-.052c.032-.084.311-.833.34-.914a.156.156,0,0,0-.081-.188,4.736,4.736,0,0,0-2.393-.643h-.167a2.333,2.333,0,0,0-2.6,2.247v.028c0,1.4,1.177,1.848,2.28,2.163l.177.055c.8.247,1.5.459,1.5,1.025v.028c0,.517-.451.9-1.177.9a3.949,3.949,0,0,1-2.151-.619c-.117-.068-.187-.116-.275-.173a.142.142,0,0,0-.22.075l-.329.914Zm16.691-2.8a3.436,3.436,0,0,1-.448,1.9,1.5,1.5,0,0,1-1.357.662,1.48,1.48,0,0,1-1.351-.662,4.281,4.281,0,0,1,0-3.783,1.487,1.487,0,0,1,1.351-.655,1.507,1.507,0,0,1,1.358.655,3.412,3.412,0,0,1,.446,1.888m1.394-1.5a3.356,3.356,0,0,0-.634-1.211,3.067,3.067,0,0,0-1.071-.814,3.882,3.882,0,0,0-2.989,0,3.083,3.083,0,0,0-1.072.814,3.411,3.411,0,0,0-.634,1.211,5.6,5.6,0,0,0,0,3,3.375,3.375,0,0,0,.636,1.211,2.991,2.991,0,0,0,1.071.807,3.967,3.967,0,0,0,2.989,0,2.994,2.994,0,0,0,1.071-.807,3.356,3.356,0,0,0,.634-1.211,5.57,5.57,0,0,0,0-3m11.448,3.84a.132.132,0,0,0-.177-.085,3.2,3.2,0,0,1-.648.186,5.053,5.053,0,0,1-.764.055,2.123,2.123,0,0,1-1.595-.6,2.662,2.662,0,0,1-.6-1.906,2.954,2.954,0,0,1,.535-1.836,1.82,1.82,0,0,1,1.547-.681,4.633,4.633,0,0,1,1.473.211s.11.048.162-.1c.122-.339.212-.581.342-.953a.125.125,0,0,0-.086-.164,5.44,5.44,0,0,0-.93-.234,6.983,6.983,0,0,0-1.046-.071,3.79,3.79,0,0,0-1.554.3,3.216,3.216,0,0,0-1.123.813,3.458,3.458,0,0,0-.678,1.211,4.821,4.821,0,0,0-.227,1.5,4.013,4.013,0,0,0,.928,2.775,3.527,3.527,0,0,0,2.752,1.036,5.672,5.672,0,0,0,1.974-.353.127.127,0,0,0,.057-.166Zm2.439-3.116a2.741,2.741,0,0,1,.382-1.113,1.5,1.5,0,0,1,1.349-.684,1.464,1.464,0,0,1,1.322.684,2.332,2.332,0,0,1,.313,1.113h-3.366Zm4.694-.987a2.931,2.931,0,0,0-.6-1.1,2.774,2.774,0,0,0-.9-.683,3.451,3.451,0,0,0-1.352-.274,3.683,3.683,0,0,0-1.558.3,3.1,3.1,0,0,0-1.087.829,3.4,3.4,0,0,0-.639,1.225,5.3,5.3,0,0,0-.208,1.507,5.047,5.047,0,0,0,.215,1.507,3.03,3.03,0,0,0,1.871,1.986,4.75,4.75,0,0,0,1.713.277,4.93,4.93,0,0,0,2.376-.472c.052-.029.1-.08.039-.226l-.308-.864a.135.135,0,0,0-.177-.081,4.555,4.555,0,0,1-1.937.348,1.931,1.931,0,0,1-2.164-2.125l4.719,0a.14.14,0,0,0,.137-.123,5.059,5.059,0,0,0-.14-2.033m-42.488.987a2.758,2.758,0,0,1,.382-1.113,1.5,1.5,0,0,1,1.349-.684,1.467,1.467,0,0,1,1.323.684,2.346,2.346,0,0,1,.312,1.113Zm4.692-.987a2.93,2.93,0,0,0-.6-1.1,2.775,2.775,0,0,0-.9-.683,3.45,3.45,0,0,0-1.352-.274,3.686,3.686,0,0,0-1.558.3,3.1,3.1,0,0,0-1.087.829,3.4,3.4,0,0,0-.639,1.225,5.339,5.339,0,0,0-.208,1.507,5.044,5.044,0,0,0,.215,1.507,3.03,3.03,0,0,0,1.871,1.986,4.75,4.75,0,0,0,1.713.277,4.93,4.93,0,0,0,2.376-.472c.052-.029.1-.08.039-.226l-.307-.864a.137.137,0,0,0-.179-.081,4.553,4.553,0,0,1-1.938.348,1.931,1.931,0,0,1-2.163-2.125l4.719,0a.139.139,0,0,0,.137-.123,5.055,5.055,0,0,0-.142-2.033m-14.893,4.077a.955.955,0,0,1-.273-.28,1.141,1.141,0,0,1-.14-.613,1.033,1.033,0,0,1,.421-.914,2.116,2.116,0,0,1,1.369-.341,9.679,9.679,0,0,1,1.28.109v2.146h0A9.59,9.59,0,0,1,154.8,288a2.121,2.121,0,0,1-1.384-.276m1.878-3.316c-.191-.014-.44-.022-.737-.022a4.476,4.476,0,0,0-1.162.15,3.032,3.032,0,0,0-.986.457,2.2,2.2,0,0,0-.936,1.866,2.466,2.466,0,0,0,.216,1.078,1.943,1.943,0,0,0,.616.738,2.58,2.58,0,0,0,.961.416,5.636,5.636,0,0,0,1.249.128,8.508,8.508,0,0,0,1.433-.12c.463-.079,1.031-.194,1.189-.23q.166-.04.331-.085a.148.148,0,0,0,.108-.154l0-4.316a2.642,2.642,0,0,0-.75-2.083,3.211,3.211,0,0,0-2.168-.653,7.768,7.768,0,0,0-1.264.117,4.559,4.559,0,0,0-1.456.531.147.147,0,0,0-.042.188l.334.9a.119.119,0,0,0,.154.077.611.611,0,0,0,.078-.038,4.79,4.79,0,0,1,2.056-.479,1.9,1.9,0,0,1,1.167.3c.257.2.389.5.389,1.124v.2c-.406-.058-.778-.092-.778-.092m38.063-2.432a.127.127,0,0,0-.071-.169,4.092,4.092,0,0,0-.791-.136,2.351,2.351,0,0,0-1.217.2,2.145,2.145,0,0,0-.8.588v-.574a.137.137,0,0,0-.136-.144h-1.21a.137.137,0,0,0-.136.144v7.039a.145.145,0,0,0,.144.144h1.24a.143.143,0,0,0,.143-.144v-3.516a4.119,4.119,0,0,1,.157-1.239,1.783,1.783,0,0,1,.413-.695,1.448,1.448,0,0,1,.583-.35,2.272,2.272,0,0,1,.633-.089,2.651,2.651,0,0,1,.518.064c.09.01.141-.045.172-.128.081-.216.311-.862.355-.99" transform="translate(-133.196 -258.66)" fill="#fff"/>
        <path id="Path_672" data-name="Path 672" d="M341.127,244.8a4.047,4.047,0,0,0-.466-.111,3.7,3.7,0,0,0-.641-.049,2.7,2.7,0,0,0-2,.717,3.9,3.9,0,0,0-.949,2.141l-.058.319h-1.072a.159.159,0,0,0-.158.137l-.175.982c-.013.093.028.152.153.152h1.043l-1.058,5.906a7.308,7.308,0,0,1-.283,1.163,2.377,2.377,0,0,1-.329.672.877.877,0,0,1-.432.333,1.755,1.755,0,0,1-.555.08,2.09,2.09,0,0,1-.378-.042,1.118,1.118,0,0,1-.255-.082.131.131,0,0,0-.171.076c-.038.1-.317.865-.35.959a.142.142,0,0,0,.073.189,3.855,3.855,0,0,0,.431.126,2.86,2.86,0,0,0,.691.065,3.46,3.46,0,0,0,1.159-.18,2.189,2.189,0,0,0,.872-.608,3.116,3.116,0,0,0,.612-1.057,8.961,8.961,0,0,0,.415-1.584l1.064-6.016h1.554a.159.159,0,0,0,.158-.138l.176-.981c.012-.094-.028-.152-.154-.152h-1.509a6.55,6.55,0,0,1,.249-1.065,1.393,1.393,0,0,1,.331-.5.991.991,0,0,1,.4-.246,1.641,1.641,0,0,1,.507-.072,1.982,1.982,0,0,1,.387.038c.146.031.2.048.241.059.154.046.175,0,.205-.073l.361-.99a.126.126,0,0,0-.087-.165m-21.082,10.206a.137.137,0,0,1-.136.143h-1.251a.136.136,0,0,1-.135-.143V244.934a.136.136,0,0,1,.135-.143h1.251a.137.137,0,0,1,.136.143Z" transform="translate(-292.604 -224.742)" fill="#fff"/>
      </g>
    </g>
    <g id="Group_1318" data-name="Group 1318" transform="translate(246 2885)">
      <g transform="matrix(1, 0, 0, 1, -143, -306)" filter="url(#Path_693-2)">
        <path id="Path_693-4" data-name="Path 693" d="M54.251,0A54.251,54.251,0,1,1,0,54.251,54.251,54.251,0,0,1,54.251,0Z" transform="translate(143 306)" fill="#fff"/>
      </g>
      <g id="salesforce-2-2" data-name="salesforce-2" transform="translate(13.516 25.61)">
        <path id="Path_670-2" data-name="Path 670" d="M34.381,6.715A14.267,14.267,0,0,1,44.706,2.283,14.415,14.415,0,0,1,57.266,9.728a17.358,17.358,0,0,1,7.1-1.509,17.707,17.707,0,0,1,0,35.412,17.42,17.42,0,0,1-3.457-.344A12.831,12.831,0,0,1,44.1,48.568a14.639,14.639,0,0,1-27.214-.662,13.429,13.429,0,0,1-2.793.291A13.759,13.759,0,0,1,7.3,22.572,15.812,15.812,0,0,1,34.381,6.715" transform="translate(-0.5 -0.5)" fill="#00a1e0"/>
        <path id="Path_671-2" data-name="Path 671" d="M144.989,288.213c-.051.133.019.161.035.184a4.741,4.741,0,0,0,.465.281,4.958,4.958,0,0,0,2.434.569c1.67,0,2.707-.888,2.707-2.318V286.9c0-1.322-1.17-1.8-2.269-2.149l-.143-.046c-.828-.269-1.543-.5-1.543-1.046v-.029c0-.466.418-.81,1.065-.81a4.815,4.815,0,0,1,2.122.543s.161.1.22-.052c.032-.084.311-.833.34-.914a.156.156,0,0,0-.081-.188,4.736,4.736,0,0,0-2.393-.643h-.167a2.333,2.333,0,0,0-2.6,2.247v.028c0,1.4,1.177,1.848,2.28,2.163l.177.055c.8.247,1.5.459,1.5,1.025v.028c0,.517-.45.9-1.176.9a3.949,3.949,0,0,1-2.151-.619c-.117-.068-.186-.118-.276-.173a.132.132,0,0,0-.219.075Zm24.45,0c-.051.133.019.161.035.184a4.754,4.754,0,0,0,.465.281,4.958,4.958,0,0,0,2.434.569c1.67,0,2.707-.888,2.707-2.318V286.9c0-1.322-1.17-1.8-2.269-2.149l-.143-.046c-.828-.269-1.543-.5-1.543-1.046v-.029c0-.466.418-.81,1.065-.81a4.816,4.816,0,0,1,2.122.543s.161.1.22-.052c.032-.084.311-.833.34-.914a.156.156,0,0,0-.081-.188,4.736,4.736,0,0,0-2.393-.643h-.167a2.333,2.333,0,0,0-2.6,2.247v.028c0,1.4,1.177,1.848,2.28,2.163l.177.055c.8.247,1.5.459,1.5,1.025v.028c0,.517-.451.9-1.177.9a3.949,3.949,0,0,1-2.151-.619c-.117-.068-.187-.116-.275-.173a.142.142,0,0,0-.22.075l-.329.914Zm16.691-2.8a3.436,3.436,0,0,1-.448,1.9,1.5,1.5,0,0,1-1.357.662,1.48,1.48,0,0,1-1.351-.662,4.281,4.281,0,0,1,0-3.783,1.487,1.487,0,0,1,1.351-.655,1.507,1.507,0,0,1,1.358.655,3.412,3.412,0,0,1,.446,1.888m1.394-1.5a3.356,3.356,0,0,0-.634-1.211,3.067,3.067,0,0,0-1.071-.814,3.882,3.882,0,0,0-2.989,0,3.083,3.083,0,0,0-1.072.814,3.411,3.411,0,0,0-.634,1.211,5.6,5.6,0,0,0,0,3,3.375,3.375,0,0,0,.636,1.211,2.991,2.991,0,0,0,1.071.807,3.967,3.967,0,0,0,2.989,0,2.994,2.994,0,0,0,1.071-.807,3.356,3.356,0,0,0,.634-1.211,5.57,5.57,0,0,0,0-3m11.448,3.84a.132.132,0,0,0-.177-.085,3.2,3.2,0,0,1-.648.186,5.053,5.053,0,0,1-.764.055,2.123,2.123,0,0,1-1.595-.6,2.662,2.662,0,0,1-.6-1.906,2.954,2.954,0,0,1,.535-1.836,1.82,1.82,0,0,1,1.547-.681,4.633,4.633,0,0,1,1.473.211s.11.048.162-.1c.122-.339.212-.581.342-.953a.125.125,0,0,0-.086-.164,5.44,5.44,0,0,0-.93-.234,6.983,6.983,0,0,0-1.046-.071,3.79,3.79,0,0,0-1.554.3,3.216,3.216,0,0,0-1.123.813,3.458,3.458,0,0,0-.678,1.211,4.821,4.821,0,0,0-.227,1.5,4.013,4.013,0,0,0,.928,2.775,3.527,3.527,0,0,0,2.752,1.036,5.672,5.672,0,0,0,1.974-.353.127.127,0,0,0,.057-.166Zm2.439-3.116a2.741,2.741,0,0,1,.382-1.113,1.5,1.5,0,0,1,1.349-.684,1.464,1.464,0,0,1,1.322.684,2.332,2.332,0,0,1,.313,1.113h-3.366Zm4.694-.987a2.931,2.931,0,0,0-.6-1.1,2.774,2.774,0,0,0-.9-.683,3.451,3.451,0,0,0-1.352-.274,3.683,3.683,0,0,0-1.558.3,3.1,3.1,0,0,0-1.087.829,3.4,3.4,0,0,0-.639,1.225,5.3,5.3,0,0,0-.208,1.507,5.047,5.047,0,0,0,.215,1.507,3.03,3.03,0,0,0,1.871,1.986,4.75,4.75,0,0,0,1.713.277,4.93,4.93,0,0,0,2.376-.472c.052-.029.1-.08.039-.226l-.308-.864a.135.135,0,0,0-.177-.081,4.555,4.555,0,0,1-1.937.348,1.931,1.931,0,0,1-2.164-2.125l4.719,0a.14.14,0,0,0,.137-.123,5.059,5.059,0,0,0-.14-2.033m-42.488.987a2.758,2.758,0,0,1,.382-1.113,1.5,1.5,0,0,1,1.349-.684,1.467,1.467,0,0,1,1.323.684,2.346,2.346,0,0,1,.312,1.113Zm4.692-.987a2.93,2.93,0,0,0-.6-1.1,2.775,2.775,0,0,0-.9-.683,3.45,3.45,0,0,0-1.352-.274,3.686,3.686,0,0,0-1.558.3,3.1,3.1,0,0,0-1.087.829,3.4,3.4,0,0,0-.639,1.225,5.339,5.339,0,0,0-.208,1.507,5.044,5.044,0,0,0,.215,1.507,3.03,3.03,0,0,0,1.871,1.986,4.75,4.75,0,0,0,1.713.277,4.93,4.93,0,0,0,2.376-.472c.052-.029.1-.08.039-.226l-.307-.864a.137.137,0,0,0-.179-.081,4.553,4.553,0,0,1-1.938.348,1.931,1.931,0,0,1-2.163-2.125l4.719,0a.139.139,0,0,0,.137-.123,5.055,5.055,0,0,0-.142-2.033m-14.893,4.077a.955.955,0,0,1-.273-.28,1.141,1.141,0,0,1-.14-.613,1.033,1.033,0,0,1,.421-.914,2.116,2.116,0,0,1,1.369-.341,9.679,9.679,0,0,1,1.28.109v2.146h0A9.59,9.59,0,0,1,154.8,288a2.121,2.121,0,0,1-1.384-.276m1.878-3.316c-.191-.014-.44-.022-.737-.022a4.476,4.476,0,0,0-1.162.15,3.032,3.032,0,0,0-.986.457,2.2,2.2,0,0,0-.936,1.866,2.466,2.466,0,0,0,.216,1.078,1.943,1.943,0,0,0,.616.738,2.58,2.58,0,0,0,.961.416,5.636,5.636,0,0,0,1.249.128,8.508,8.508,0,0,0,1.433-.12c.463-.079,1.031-.194,1.189-.23q.166-.04.331-.085a.148.148,0,0,0,.108-.154l0-4.316a2.642,2.642,0,0,0-.75-2.083,3.211,3.211,0,0,0-2.168-.653,7.768,7.768,0,0,0-1.264.117,4.559,4.559,0,0,0-1.456.531.147.147,0,0,0-.042.188l.334.9a.119.119,0,0,0,.154.077.611.611,0,0,0,.078-.038,4.79,4.79,0,0,1,2.056-.479,1.9,1.9,0,0,1,1.167.3c.257.2.389.5.389,1.124v.2c-.406-.058-.778-.092-.778-.092m38.063-2.432a.127.127,0,0,0-.071-.169,4.092,4.092,0,0,0-.791-.136,2.351,2.351,0,0,0-1.217.2,2.145,2.145,0,0,0-.8.588v-.574a.137.137,0,0,0-.136-.144h-1.21a.137.137,0,0,0-.136.144v7.039a.145.145,0,0,0,.144.144h1.24a.143.143,0,0,0,.143-.144v-3.516a4.119,4.119,0,0,1,.157-1.239,1.783,1.783,0,0,1,.413-.695,1.448,1.448,0,0,1,.583-.35,2.272,2.272,0,0,1,.633-.089,2.651,2.651,0,0,1,.518.064c.09.01.141-.045.172-.128.081-.216.311-.862.355-.99" transform="translate(-133.196 -258.66)" fill="#fff"/>
        <path id="Path_672-2" data-name="Path 672" d="M341.127,244.8a4.047,4.047,0,0,0-.466-.111,3.7,3.7,0,0,0-.641-.049,2.7,2.7,0,0,0-2,.717,3.9,3.9,0,0,0-.949,2.141l-.058.319h-1.072a.159.159,0,0,0-.158.137l-.175.982c-.013.093.028.152.153.152h1.043l-1.058,5.906a7.308,7.308,0,0,1-.283,1.163,2.377,2.377,0,0,1-.329.672.877.877,0,0,1-.432.333,1.755,1.755,0,0,1-.555.08,2.09,2.09,0,0,1-.378-.042,1.118,1.118,0,0,1-.255-.082.131.131,0,0,0-.171.076c-.038.1-.317.865-.35.959a.142.142,0,0,0,.073.189,3.855,3.855,0,0,0,.431.126,2.86,2.86,0,0,0,.691.065,3.46,3.46,0,0,0,1.159-.18,2.189,2.189,0,0,0,.872-.608,3.116,3.116,0,0,0,.612-1.057,8.961,8.961,0,0,0,.415-1.584l1.064-6.016h1.554a.159.159,0,0,0,.158-.138l.176-.981c.012-.094-.028-.152-.154-.152h-1.509a6.55,6.55,0,0,1,.249-1.065,1.393,1.393,0,0,1,.331-.5.991.991,0,0,1,.4-.246,1.641,1.641,0,0,1,.507-.072,1.982,1.982,0,0,1,.387.038c.146.031.2.048.241.059.154.046.175,0,.205-.073l.361-.99a.126.126,0,0,0-.087-.165m-21.082,10.206a.137.137,0,0,1-.136.143h-1.251a.136.136,0,0,1-.135-.143V244.934a.136.136,0,0,1,.135-.143h1.251a.137.137,0,0,1,.136.143Z" transform="translate(-292.604 -224.742)" fill="#fff"/>
      </g>
    </g>
    <g id="Group_1311" data-name="Group 1311" transform="translate(392 2585)">
      <g transform="matrix(1, 0, 0, 1, -289, -6)" filter="url(#Path_695)">
        <path id="Path_695-3" data-name="Path 695" d="M54.251,0A54.251,54.251,0,1,1,0,54.251,54.251,54.251,0,0,1,54.251,0Z" transform="translate(289 6)" fill="#fff"/>
      </g>
      <g id="woocommerce" transform="translate(20.557 34.386)">
        <path id="Path_685" data-name="Path 685" d="M6.222,0H60.794a6.246,6.246,0,0,1,6.249,6.249V27.08a6.246,6.246,0,0,1-6.249,6.249H41.224l2.686,6.578L32.1,33.33H6.25A6.246,6.246,0,0,1,0,27.08V6.249A6.223,6.223,0,0,1,6.222,0Z" transform="translate(0)" fill="#9b5c8f"/>
        <path id="Path_686" data-name="Path 686" d="M13.256,16.116a2.193,2.193,0,0,1,1.717-.845,1.991,1.991,0,0,1,2.371,1.962q1.267,8.544,2.752,14.472l5.968-11.365a2.587,2.587,0,0,1,2.044-1.635c1.2-.082,1.935.681,2.235,2.289a50.93,50.93,0,0,0,2.589,9.321Q34,19.932,36.531,15.326a2.094,2.094,0,0,1,1.8-1.2,2.369,2.369,0,0,1,1.717.545,2.135,2.135,0,0,1,.845,1.554,2.367,2.367,0,0,1-.272,1.308c-1.063,1.962-1.935,5.26-2.644,9.838a50.776,50.776,0,0,0-.763,10.384,3.235,3.235,0,0,1-.327,1.8,1.757,1.757,0,0,1-1.445.981,2.74,2.74,0,0,1-2.153-1.008q-3.8-3.884-6.023-11.61-2.658,5.233-3.925,7.849c-1.608,3.08-2.971,4.661-4.115,4.742-.736.054-1.363-.572-1.908-1.88q-2.085-5.355-4.5-20.685a2.32,2.32,0,0,1,.436-1.826ZM71.824,20.4a6.277,6.277,0,0,0-4.36-3.162,7.159,7.159,0,0,0-1.472-.163c-2.616,0-4.742,1.363-6.4,4.088a14.439,14.439,0,0,0-2.126,7.685,10.553,10.553,0,0,0,1.308,5.4A6.276,6.276,0,0,0,63.13,37.4a7.14,7.14,0,0,0,1.472.164c2.643,0,4.769-1.363,6.4-4.088a14.6,14.6,0,0,0,2.126-7.713A10.057,10.057,0,0,0,71.824,20.4ZM68.39,27.944a7.209,7.209,0,0,1-2.072,4.033,2.619,2.619,0,0,1-2.207.872c-.654-.136-1.2-.708-1.608-1.771a6.91,6.91,0,0,1-.491-2.48,9.482,9.482,0,0,1,.191-1.989,8.816,8.816,0,0,1,1.444-3.243c.9-1.336,1.853-1.88,2.834-1.69.654.136,1.2.709,1.608,1.771a6.916,6.916,0,0,1,.491,2.48,9.565,9.565,0,0,1-.191,2.017ZM54.763,20.4a6.334,6.334,0,0,0-4.36-3.162,7.157,7.157,0,0,0-1.472-.163c-2.616,0-4.742,1.363-6.4,4.088A14.441,14.441,0,0,0,40.4,28.844a10.553,10.553,0,0,0,1.308,5.4,6.276,6.276,0,0,0,4.36,3.161,7.142,7.142,0,0,0,1.472.164c2.643,0,4.769-1.363,6.4-4.088a14.6,14.6,0,0,0,2.126-7.713A10.312,10.312,0,0,0,54.763,20.4ZM51.3,27.944a7.21,7.21,0,0,1-2.071,4.033,2.62,2.62,0,0,1-2.208.872c-.654-.136-1.2-.708-1.608-1.771a6.921,6.921,0,0,1-.49-2.48,9.481,9.481,0,0,1,.191-1.989,8.812,8.812,0,0,1,1.445-3.243c.9-1.336,1.853-1.88,2.834-1.69.654.136,1.2.709,1.608,1.771a6.91,6.91,0,0,1,.491,2.48,8.04,8.04,0,0,1-.191,2.017Z" transform="translate(-9.438 -10.42)" fill="#fff"/>
      </g>
    </g>
    <g id="Group_1320" data-name="Group 1320" transform="translate(392 2885)">
      <g transform="matrix(1, 0, 0, 1, -289, -306)" filter="url(#Path_695-2)">
        <path id="Path_695-4" data-name="Path 695" d="M54.251,0A54.251,54.251,0,1,1,0,54.251,54.251,54.251,0,0,1,54.251,0Z" transform="translate(289 306)" fill="#fff"/>
      </g>
      <g id="woocommerce-2" data-name="woocommerce" transform="translate(20.557 34.386)">
        <path id="Path_685-2" data-name="Path 685" d="M6.222,0H60.794a6.246,6.246,0,0,1,6.249,6.249V27.08a6.246,6.246,0,0,1-6.249,6.249H41.224l2.686,6.578L32.1,33.33H6.25A6.246,6.246,0,0,1,0,27.08V6.249A6.223,6.223,0,0,1,6.222,0Z" transform="translate(0)" fill="#9b5c8f"/>
        <path id="Path_686-2" data-name="Path 686" d="M13.256,16.116a2.193,2.193,0,0,1,1.717-.845,1.991,1.991,0,0,1,2.371,1.962q1.267,8.544,2.752,14.472l5.968-11.365a2.587,2.587,0,0,1,2.044-1.635c1.2-.082,1.935.681,2.235,2.289a50.93,50.93,0,0,0,2.589,9.321Q34,19.932,36.531,15.326a2.094,2.094,0,0,1,1.8-1.2,2.369,2.369,0,0,1,1.717.545,2.135,2.135,0,0,1,.845,1.554,2.367,2.367,0,0,1-.272,1.308c-1.063,1.962-1.935,5.26-2.644,9.838a50.776,50.776,0,0,0-.763,10.384,3.235,3.235,0,0,1-.327,1.8,1.757,1.757,0,0,1-1.445.981,2.74,2.74,0,0,1-2.153-1.008q-3.8-3.884-6.023-11.61-2.658,5.233-3.925,7.849c-1.608,3.08-2.971,4.661-4.115,4.742-.736.054-1.363-.572-1.908-1.88q-2.085-5.355-4.5-20.685a2.32,2.32,0,0,1,.436-1.826ZM71.824,20.4a6.277,6.277,0,0,0-4.36-3.162,7.159,7.159,0,0,0-1.472-.163c-2.616,0-4.742,1.363-6.4,4.088a14.439,14.439,0,0,0-2.126,7.685,10.553,10.553,0,0,0,1.308,5.4A6.276,6.276,0,0,0,63.13,37.4a7.14,7.14,0,0,0,1.472.164c2.643,0,4.769-1.363,6.4-4.088a14.6,14.6,0,0,0,2.126-7.713A10.057,10.057,0,0,0,71.824,20.4ZM68.39,27.944a7.209,7.209,0,0,1-2.072,4.033,2.619,2.619,0,0,1-2.207.872c-.654-.136-1.2-.708-1.608-1.771a6.91,6.91,0,0,1-.491-2.48,9.482,9.482,0,0,1,.191-1.989,8.816,8.816,0,0,1,1.444-3.243c.9-1.336,1.853-1.88,2.834-1.69.654.136,1.2.709,1.608,1.771a6.916,6.916,0,0,1,.491,2.48,9.565,9.565,0,0,1-.191,2.017ZM54.763,20.4a6.334,6.334,0,0,0-4.36-3.162,7.157,7.157,0,0,0-1.472-.163c-2.616,0-4.742,1.363-6.4,4.088A14.441,14.441,0,0,0,40.4,28.844a10.553,10.553,0,0,0,1.308,5.4,6.276,6.276,0,0,0,4.36,3.161,7.142,7.142,0,0,0,1.472.164c2.643,0,4.769-1.363,6.4-4.088a14.6,14.6,0,0,0,2.126-7.713A10.312,10.312,0,0,0,54.763,20.4ZM51.3,27.944a7.21,7.21,0,0,1-2.071,4.033,2.62,2.62,0,0,1-2.208.872c-.654-.136-1.2-.708-1.608-1.771a6.921,6.921,0,0,1-.49-2.48,9.481,9.481,0,0,1,.191-1.989,8.812,8.812,0,0,1,1.445-3.243c.9-1.336,1.853-1.88,2.834-1.69.654.136,1.2.709,1.608,1.771a6.91,6.91,0,0,1,.491,2.48,8.04,8.04,0,0,1-.191,2.017Z" transform="translate(-9.438 -10.42)" fill="#fff"/>
      </g>
    </g>
    <g id="Group_1312" data-name="Group 1312" transform="translate(392 2735)">
      <g transform="matrix(1, 0, 0, 1, -289, -156)" filter="url(#Path_696)">
        <path id="Path_696-3" data-name="Path 696" d="M54.085,0A54.085,54.085,0,1,1,0,54.085,54.085,54.085,0,0,1,54.085,0Z" transform="translate(289 156)" fill="#fff"/>
      </g>
      <g id="shopify" transform="translate(30.204 27.184)">
        <path id="Path_673" data-name="Path 673" d="M41.666,11.3a.522.522,0,0,0-.472-.439c-.2-.016-4.351-.324-4.351-.324s-2.885-2.864-3.2-3.181a1.313,1.313,0,0,0-1.176-.15l-1.615.5c-.964-2.773-2.665-5.322-5.657-5.322-.083,0-.168,0-.253.008A3.636,3.636,0,0,0,22.125.779c-6.971,0-10.3,8.714-11.345,13.142L5.9,15.435c-1.512.474-1.56.522-1.758,1.947C3.994,18.46.038,49.053.038,49.053l30.826,5.776,16.7-3.613S41.7,11.574,41.666,11.3ZM29.147,8.234l-2.608.807c0-.184,0-.365,0-.562a12.794,12.794,0,0,0-.623-4.212C27.46,4.461,28.486,6.215,29.147,8.234ZM24.005,4.609a12.93,12.93,0,0,1,.707,4.7c0,.106,0,.2,0,.3l-5.387,1.668C20.361,7.272,22.305,5.339,24.005,4.609ZM21.934,2.649a1.574,1.574,0,0,1,.894.3C20.594,4,18.2,6.649,17.188,11.937L12.93,13.255c1.184-4.033,4-10.607,9-10.607Z" transform="translate(-0.038 -0.779)" fill="#95bf46"/>
        <path id="Path_674" data-name="Path 674" d="M176.053,38.752c-.2-.016-4.351-.324-4.351-.324s-2.885-2.864-3.2-3.181a.791.791,0,0,0-.445-.2l-2.331,47.675,16.7-3.613s-5.863-39.641-5.9-39.913a.522.522,0,0,0-.472-.439" transform="translate(-134.897 -28.667)" fill="#5e8e3e"/>
        <path id="Path_675" data-name="Path 675" d="M57.087,101.054l-2.06,6.126a9.474,9.474,0,0,0-4.016-.963c-3.243,0-3.406,2.035-3.406,2.548,0,2.8,7.294,3.87,7.294,10.424,0,5.156-3.27,8.476-7.68,8.476a10.685,10.685,0,0,1-8-3.293l1.417-4.681s2.782,2.388,5.129,2.388a2.069,2.069,0,0,0,2.158-2.09c0-3.65-5.984-3.813-5.984-9.81,0-5.048,3.623-9.932,10.936-9.932a9,9,0,0,1,4.21.807" transform="translate(-31.931 -81.74)" fill="#fff"/>
      </g>
    </g>
    <g id="Group_1321" data-name="Group 1321" transform="translate(392 3035)">
      <g transform="matrix(1, 0, 0, 1, -289, -456)" filter="url(#Path_696-2)">
        <path id="Path_696-4" data-name="Path 696" d="M54.085,0A54.085,54.085,0,1,1,0,54.085,54.085,54.085,0,0,1,54.085,0Z" transform="translate(289 456)" fill="#fff"/>
      </g>
      <g id="shopify-2" data-name="shopify" transform="translate(30.204 27.184)">
        <path id="Path_673-2" data-name="Path 673" d="M41.666,11.3a.522.522,0,0,0-.472-.439c-.2-.016-4.351-.324-4.351-.324s-2.885-2.864-3.2-3.181a1.313,1.313,0,0,0-1.176-.15l-1.615.5c-.964-2.773-2.665-5.322-5.657-5.322-.083,0-.168,0-.253.008A3.636,3.636,0,0,0,22.125.779c-6.971,0-10.3,8.714-11.345,13.142L5.9,15.435c-1.512.474-1.56.522-1.758,1.947C3.994,18.46.038,49.053.038,49.053l30.826,5.776,16.7-3.613S41.7,11.574,41.666,11.3ZM29.147,8.234l-2.608.807c0-.184,0-.365,0-.562a12.794,12.794,0,0,0-.623-4.212C27.46,4.461,28.486,6.215,29.147,8.234ZM24.005,4.609a12.93,12.93,0,0,1,.707,4.7c0,.106,0,.2,0,.3l-5.387,1.668C20.361,7.272,22.305,5.339,24.005,4.609ZM21.934,2.649a1.574,1.574,0,0,1,.894.3C20.594,4,18.2,6.649,17.188,11.937L12.93,13.255c1.184-4.033,4-10.607,9-10.607Z" transform="translate(-0.038 -0.779)" fill="#95bf46"/>
        <path id="Path_674-2" data-name="Path 674" d="M176.053,38.752c-.2-.016-4.351-.324-4.351-.324s-2.885-2.864-3.2-3.181a.791.791,0,0,0-.445-.2l-2.331,47.675,16.7-3.613s-5.863-39.641-5.9-39.913a.522.522,0,0,0-.472-.439" transform="translate(-134.897 -28.667)" fill="#5e8e3e"/>
        <path id="Path_675-2" data-name="Path 675" d="M57.087,101.054l-2.06,6.126a9.474,9.474,0,0,0-4.016-.963c-3.243,0-3.406,2.035-3.406,2.548,0,2.8,7.294,3.87,7.294,10.424,0,5.156-3.27,8.476-7.68,8.476a10.685,10.685,0,0,1-8-3.293l1.417-4.681s2.782,2.388,5.129,2.388a2.069,2.069,0,0,0,2.158-2.09c0-3.65-5.984-3.813-5.984-9.81,0-5.048,3.623-9.932,10.936-9.932a9,9,0,0,1,4.21.807" transform="translate(-31.931 -81.74)" fill="#fff"/>
      </g>
    </g>
    <g id="Group_1313" data-name="Group 1313" transform="translate(246 2735)">
      <g transform="matrix(1, 0, 0, 1, -143, -156)" filter="url(#Path_698)">
        <path id="Path_698-3" data-name="Path 698" d="M54.428,0A54.428,54.428,0,1,1,0,54.428,54.428,54.428,0,0,1,54.428,0Z" transform="translate(143 156)" fill="#fff"/>
      </g>
      <g id="slack" transform="translate(22.755 23.376)">
        <path id="Path_677" data-name="Path 677" d="M6.835,71.5a5.217,5.217,0,0,1-5.084-3.575q-.041-.124-.076-.25A5.467,5.467,0,0,1,5.212,61L49.885,46.032a6.055,6.055,0,0,1,1.632-.238,5.353,5.353,0,0,1,5.22,3.651l.067.216c.836,2.921-1.241,5.528-3.728,6.364L8.65,71.192a5.781,5.781,0,0,1-1.814.309Z" transform="translate(-1.464 -38.294)" fill="#70cadb"/>
        <path id="Path_678" data-name="Path 678" d="M24.18,122.487a5.212,5.212,0,0,1-5.1-3.525q-.041-.123-.077-.248a5.5,5.5,0,0,1,3.534-6.743l44.674-15.1a5.753,5.753,0,0,1,1.773-.3,5.4,5.4,0,0,1,5.207,3.619l.069.227a5.653,5.653,0,0,1-.681,4.543,7.491,7.491,0,0,1-2.656,1.871L26.078,122.163a6.153,6.153,0,0,1-1.9.324Z" transform="translate(-11.363 -67.31)" fill="#e01765"/>
        <path id="Path_679" data-name="Path 679" d="M90.88,83.566a5.485,5.485,0,0,1-5.252-3.738L70.719,35.541l-.075-.249a5.492,5.492,0,0,1,10.487-3.255L96.039,76.32l.043.142a5.488,5.488,0,0,1-5.2,7.1Z" transform="translate(-40.875 -28.294)" fill="#e8a723"/>
        <path id="Path_680" data-name="Path 680" d="M39.168,100.978a5.487,5.487,0,0,1-5.254-3.741L19.009,52.951A5.484,5.484,0,0,1,22.459,46a5.554,5.554,0,0,1,1.708-.286,5.484,5.484,0,0,1,5.253,3.738L44.326,93.735a5.49,5.49,0,0,1-5.159,7.243h0Z" transform="translate(-11.325 -38.246)" fill="#3eb890"/>
        <path id="Path_681" data-name="Path 681" d="M96.449,115.8l10.4-3.554-3.4-10.092-10.408,3.517Z" transform="translate(-53.794 -70.5)" fill="#cc2027"/>
        <path id="Path_682" data-name="Path 682" d="M44.784,133.351l10.4-3.554-3.424-10.17L41.35,123.145Z" transform="translate(-24.257 -80.486)" fill="#361238"/>
        <path id="Path_683" data-name="Path 683" d="M79.223,64.666l10.4-3.55-3.359-9.975-10.416,3.49Z" transform="translate(-43.969 -41.35)" fill="#65863a"/>
        <path id="Path_684" data-name="Path 684" d="M27.529,82.127l10.4-3.55-3.4-10.1L24.11,71.964Z" transform="translate(-14.405 -51.255)" fill="#1a937d"/>
      </g>
    </g>
    <g id="Group_1319" data-name="Group 1319" transform="translate(246 3035)">
      <g transform="matrix(1, 0, 0, 1, -143, -456)" filter="url(#Path_698-2)">
        <path id="Path_698-4" data-name="Path 698" d="M54.428,0A54.428,54.428,0,1,1,0,54.428,54.428,54.428,0,0,1,54.428,0Z" transform="translate(143 456)" fill="#fff"/>
      </g>
      <g id="slack-2" data-name="slack" transform="translate(22.755 23.376)">
        <path id="Path_677-2" data-name="Path 677" d="M6.835,71.5a5.217,5.217,0,0,1-5.084-3.575q-.041-.124-.076-.25A5.467,5.467,0,0,1,5.212,61L49.885,46.032a6.055,6.055,0,0,1,1.632-.238,5.353,5.353,0,0,1,5.22,3.651l.067.216c.836,2.921-1.241,5.528-3.728,6.364L8.65,71.192a5.781,5.781,0,0,1-1.814.309Z" transform="translate(-1.464 -38.294)" fill="#70cadb"/>
        <path id="Path_678-2" data-name="Path 678" d="M24.18,122.487a5.212,5.212,0,0,1-5.1-3.525q-.041-.123-.077-.248a5.5,5.5,0,0,1,3.534-6.743l44.674-15.1a5.753,5.753,0,0,1,1.773-.3,5.4,5.4,0,0,1,5.207,3.619l.069.227a5.653,5.653,0,0,1-.681,4.543,7.491,7.491,0,0,1-2.656,1.871L26.078,122.163a6.153,6.153,0,0,1-1.9.324Z" transform="translate(-11.363 -67.31)" fill="#e01765"/>
        <path id="Path_679-2" data-name="Path 679" d="M90.88,83.566a5.485,5.485,0,0,1-5.252-3.738L70.719,35.541l-.075-.249a5.492,5.492,0,0,1,10.487-3.255L96.039,76.32l.043.142a5.488,5.488,0,0,1-5.2,7.1Z" transform="translate(-40.875 -28.294)" fill="#e8a723"/>
        <path id="Path_680-2" data-name="Path 680" d="M39.168,100.978a5.487,5.487,0,0,1-5.254-3.741L19.009,52.951A5.484,5.484,0,0,1,22.459,46a5.554,5.554,0,0,1,1.708-.286,5.484,5.484,0,0,1,5.253,3.738L44.326,93.735a5.49,5.49,0,0,1-5.159,7.243h0Z" transform="translate(-11.325 -38.246)" fill="#3eb890"/>
        <path id="Path_681-2" data-name="Path 681" d="M96.449,115.8l10.4-3.554-3.4-10.092-10.408,3.517Z" transform="translate(-53.794 -70.5)" fill="#cc2027"/>
        <path id="Path_682-2" data-name="Path 682" d="M44.784,133.351l10.4-3.554-3.424-10.17L41.35,123.145Z" transform="translate(-24.257 -80.486)" fill="#361238"/>
        <path id="Path_683-2" data-name="Path 683" d="M79.223,64.666l10.4-3.55-3.359-9.975-10.416,3.49Z" transform="translate(-43.969 -41.35)" fill="#65863a"/>
        <path id="Path_684-2" data-name="Path 684" d="M27.529,82.127l10.4-3.55-3.4-10.1L24.11,71.964Z" transform="translate(-14.405 -51.255)" fill="#1a937d"/>
      </g>
    </g>
    <g id="Group_1314" data-name="Group 1314" transform="translate(112 2735)">
      <g transform="matrix(1, 0, 0, 1, -9, -156)" filter="url(#Path_697)">
        <path id="Path_697-3" data-name="Path 697" d="M54.428,0A54.428,54.428,0,1,1,0,54.428,54.428,54.428,0,0,1,54.428,0Z" transform="translate(9 156)" fill="#fff"/>
      </g>
      <g id="wordpress-blue" transform="translate(25.049 25.049)" clip-path="url(#clip-path)">
        <path id="Path_687" data-name="Path 687" d="M216.929,42.072h-10.24v1.086c3.2,0,3.718.686,3.718,4.748v7.323c0,4.061-.514,4.805-3.718,4.805-2.459-.343-4.119-1.659-6.407-4.176L197.652,53c3.546-.63,5.434-2.86,5.434-5.378,0-3.146-2.688-5.548-7.722-5.548H185.3v1.086c3.2,0,3.718.686,3.718,4.748v7.323c0,4.061-.514,4.805-3.718,4.805v1.087h11.383V60.034c-3.2,0-3.718-.744-3.718-4.805V53.17h.973l6.35,7.951h16.646c8.18,0,11.727-4.347,11.727-9.553s-3.547-9.5-11.728-9.5ZM192.961,51.4V43.788h2.345a3.508,3.508,0,0,1,3.718,3.832,3.491,3.491,0,0,1-3.718,3.775Zm24.14,7.952h-.4c-2.059,0-2.345-.514-2.345-3.146V43.788H217.1c5.949,0,7.035,4.347,7.035,7.722C224.136,55,223.049,59.347,217.1,59.347Zm-63.666-5.834,3.947-11.671c1.145-3.375.63-4.346-3.031-4.346V36.351H165.1V37.5c-3.6,0-4.462.857-5.891,5.033l-6.522,19.564h-.743l-5.835-17.9-5.949,17.9h-.744L133.07,42.529c-1.373-4.176-2.288-5.033-5.606-5.033V36.351h12.7V37.5c-3.376,0-4.291.8-3.089,4.346l3.832,11.671,5.777-17.162h1.088l5.663,17.161Zm19.448,8.351c-6.292,0-11.44-4.633-11.44-10.3,0-5.606,5.148-10.24,11.44-10.24s11.44,4.634,11.44,10.24C184.323,57.23,179.175,61.863,172.883,61.863Zm0-18.762c-5.262,0-7.094,4.747-7.094,8.465,0,3.776,1.831,8.466,7.094,8.466,5.32,0,7.151-4.69,7.151-8.466,0-3.719-1.83-8.465-7.151-8.465Z" transform="translate(-66.064 -18.841)" fill="#00749a"/>
        <path id="Path_688" data-name="Path 688" d="M352.769,59.976V61.12h-13.1V59.976c3.833,0,4.519-.973,4.519-6.694V44.13c0-5.721-.686-6.635-4.519-6.635V36.35h11.841c5.891,0,9.153,3.032,9.153,7.094,0,3.947-3.262,7.036-9.153,7.036H348.25v2.8C348.25,59,348.936,59.976,352.769,59.976Zm-1.259-21.566H348.25v9.954h3.261c3.2,0,4.69-2.231,4.69-4.919C356.2,40.7,354.715,38.409,351.511,38.409Zm48.451,17.334-.287,1.029c-.514,1.888-1.145,2.574-5.206,2.574h-.8c-2.974,0-3.489-.686-3.489-4.747V51.968c4.462,0,4.805.4,4.805,3.375h1.087V46.819h-1.087c0,2.975-.343,3.375-4.805,3.375V43.788h3.146c4.062,0,4.691.686,5.206,2.574l.287,1.087h.914l-.4-5.377H382.514v1.086c3.2,0,3.718.686,3.718,4.748v7.322c0,3.715-.437,4.651-2.962,4.785-2.4-.367-4.048-1.676-6.3-4.156L374.335,53c3.547-.63,5.435-2.86,5.435-5.378,0-3.146-2.688-5.548-7.722-5.548H361.98v1.086c3.2,0,3.718.686,3.718,4.748v7.323c0,4.061-.514,4.805-3.718,4.805V61.12h11.384V60.033c-3.2,0-3.718-.744-3.718-4.805V53.17h.973l6.349,7.951h23.51l.343-5.376h-.859Zm-30.317-4.348V43.788h2.345a3.508,3.508,0,0,1,3.719,3.832,3.492,3.492,0,0,1-3.719,3.775Zm41.929,10.468a8.457,8.457,0,0,1-5.148-1.945,4.1,4.1,0,0,0-.915,1.945h-1.087V53.969h1.144c.458,3.776,3.089,6.006,6.464,6.006,1.83,0,3.318-1.03,3.318-2.745,0-1.487-1.315-2.632-3.661-3.718l-3.261-1.544c-2.289-1.088-4-2.976-4-5.492,0-2.746,2.574-5.091,6.121-5.091a7.164,7.164,0,0,1,4.462,1.488,3.231,3.231,0,0,0,.744-1.545h1.087v6.751h-1.2c-.4-2.689-1.888-4.92-4.919-4.92-1.6,0-3.089.915-3.089,2.346,0,1.487,1.2,2.288,3.947,3.546l3.146,1.544c2.746,1.316,3.832,3.433,3.832,5.149C418.552,59.347,415.406,61.863,411.573,61.863Zm17.618,0a8.454,8.454,0,0,1-5.148-1.945,4.106,4.106,0,0,0-.914,1.945h-1.087V53.969h1.144c.458,3.776,3.088,6.006,6.464,6.006,1.83,0,3.318-1.03,3.318-2.745,0-1.487-1.316-2.632-3.661-3.718l-3.261-1.544c-2.288-1.088-4-2.976-4-5.492,0-2.746,2.574-5.091,6.121-5.091a7.165,7.165,0,0,1,4.462,1.488,3.226,3.226,0,0,0,.743-1.545h1.087v6.751h-1.2c-.4-2.689-1.888-4.92-4.919-4.92-1.6,0-3.09.915-3.09,2.346,0,1.487,1.2,2.288,3.948,3.546l3.146,1.544c2.746,1.316,3.832,3.433,3.832,5.149C436.17,59.347,433.024,61.863,429.192,61.863Z" transform="translate(-176.05 -18.84)" fill="#464342"/>
        <g id="Group_1223" data-name="Group 1223">
          <path id="Path_689" data-name="Path 689" d="M8.708,34.022A25.321,25.321,0,0,0,22.976,56.807L10.9,23.72A25.219,25.219,0,0,0,8.708,34.022Zm42.405-1.277a13.329,13.329,0,0,0-2.088-6.982c-1.283-2.085-2.486-3.851-2.486-5.937a4.383,4.383,0,0,1,4.251-4.493c.112,0,.219.014.329.02a25.311,25.311,0,0,0-38.247,4.765c.594.018,1.154.03,1.629.03,2.648,0,6.747-.321,6.747-.321a1.046,1.046,0,0,1,.163,2.085s-1.372.161-2.9.241l9.219,27.421,5.541-16.615L29.327,22.153c-1.363-.08-2.655-.241-2.655-.241a1.046,1.046,0,0,1,.16-2.085s4.181.321,6.668.321c2.647,0,6.747-.321,6.747-.321a1.046,1.046,0,0,1,.162,2.085s-1.374.161-2.9.241l9.149,27.213,2.525-8.438C50.28,37.427,51.113,34.912,51.113,32.745Z" transform="translate(-4.513 -4.513)" fill="#00749a"/>
          <path id="Path_690" data-name="Path 690" d="M54.012,50.406l-7.6,22.071a25.322,25.322,0,0,0,15.558-.4,2.144,2.144,0,0,1-.18-.349Zm21.769-14.36a19.429,19.429,0,0,1,.171,2.6,23.88,23.88,0,0,1-1.925,9.068L66.294,70.074a25.32,25.32,0,0,0,9.487-34.028Z" transform="translate(-24.057 -18.683)" fill="#00749a"/>
          <path id="Path_691" data-name="Path 691" d="M29.51,0A29.51,29.51,0,1,0,59.022,29.509,29.543,29.543,0,0,0,29.51,0Zm0,57.667A28.157,28.157,0,1,1,57.666,29.509,28.19,28.19,0,0,1,29.51,57.667Z" fill="#00749a"/>
        </g>
      </g>
    </g>
    <g id="Group_1317" data-name="Group 1317" transform="translate(112 3035)">
      <g transform="matrix(1, 0, 0, 1, -9, -456)" filter="url(#Path_697-2)">
        <path id="Path_697-4" data-name="Path 697" d="M54.428,0A54.428,54.428,0,1,1,0,54.428,54.428,54.428,0,0,1,54.428,0Z" transform="translate(9 456)" fill="#fff"/>
      </g>
      <g id="wordpress-blue-2" data-name="wordpress-blue" transform="translate(25.049 25.049)" clip-path="url(#clip-path)">
        <path id="Path_687-2" data-name="Path 687" d="M216.929,42.072h-10.24v1.086c3.2,0,3.718.686,3.718,4.748v7.323c0,4.061-.514,4.805-3.718,4.805-2.459-.343-4.119-1.659-6.407-4.176L197.652,53c3.546-.63,5.434-2.86,5.434-5.378,0-3.146-2.688-5.548-7.722-5.548H185.3v1.086c3.2,0,3.718.686,3.718,4.748v7.323c0,4.061-.514,4.805-3.718,4.805v1.087h11.383V60.034c-3.2,0-3.718-.744-3.718-4.805V53.17h.973l6.35,7.951h16.646c8.18,0,11.727-4.347,11.727-9.553s-3.547-9.5-11.728-9.5ZM192.961,51.4V43.788h2.345a3.508,3.508,0,0,1,3.718,3.832,3.491,3.491,0,0,1-3.718,3.775Zm24.14,7.952h-.4c-2.059,0-2.345-.514-2.345-3.146V43.788H217.1c5.949,0,7.035,4.347,7.035,7.722C224.136,55,223.049,59.347,217.1,59.347Zm-63.666-5.834,3.947-11.671c1.145-3.375.63-4.346-3.031-4.346V36.351H165.1V37.5c-3.6,0-4.462.857-5.891,5.033l-6.522,19.564h-.743l-5.835-17.9-5.949,17.9h-.744L133.07,42.529c-1.373-4.176-2.288-5.033-5.606-5.033V36.351h12.7V37.5c-3.376,0-4.291.8-3.089,4.346l3.832,11.671,5.777-17.162h1.088l5.663,17.161Zm19.448,8.351c-6.292,0-11.44-4.633-11.44-10.3,0-5.606,5.148-10.24,11.44-10.24s11.44,4.634,11.44,10.24C184.323,57.23,179.175,61.863,172.883,61.863Zm0-18.762c-5.262,0-7.094,4.747-7.094,8.465,0,3.776,1.831,8.466,7.094,8.466,5.32,0,7.151-4.69,7.151-8.466,0-3.719-1.83-8.465-7.151-8.465Z" transform="translate(-66.064 -18.841)" fill="#00749a"/>
        <path id="Path_688-2" data-name="Path 688" d="M352.769,59.976V61.12h-13.1V59.976c3.833,0,4.519-.973,4.519-6.694V44.13c0-5.721-.686-6.635-4.519-6.635V36.35h11.841c5.891,0,9.153,3.032,9.153,7.094,0,3.947-3.262,7.036-9.153,7.036H348.25v2.8C348.25,59,348.936,59.976,352.769,59.976Zm-1.259-21.566H348.25v9.954h3.261c3.2,0,4.69-2.231,4.69-4.919C356.2,40.7,354.715,38.409,351.511,38.409Zm48.451,17.334-.287,1.029c-.514,1.888-1.145,2.574-5.206,2.574h-.8c-2.974,0-3.489-.686-3.489-4.747V51.968c4.462,0,4.805.4,4.805,3.375h1.087V46.819h-1.087c0,2.975-.343,3.375-4.805,3.375V43.788h3.146c4.062,0,4.691.686,5.206,2.574l.287,1.087h.914l-.4-5.377H382.514v1.086c3.2,0,3.718.686,3.718,4.748v7.322c0,3.715-.437,4.651-2.962,4.785-2.4-.367-4.048-1.676-6.3-4.156L374.335,53c3.547-.63,5.435-2.86,5.435-5.378,0-3.146-2.688-5.548-7.722-5.548H361.98v1.086c3.2,0,3.718.686,3.718,4.748v7.323c0,4.061-.514,4.805-3.718,4.805V61.12h11.384V60.033c-3.2,0-3.718-.744-3.718-4.805V53.17h.973l6.349,7.951h23.51l.343-5.376h-.859Zm-30.317-4.348V43.788h2.345a3.508,3.508,0,0,1,3.719,3.832,3.492,3.492,0,0,1-3.719,3.775Zm41.929,10.468a8.457,8.457,0,0,1-5.148-1.945,4.1,4.1,0,0,0-.915,1.945h-1.087V53.969h1.144c.458,3.776,3.089,6.006,6.464,6.006,1.83,0,3.318-1.03,3.318-2.745,0-1.487-1.315-2.632-3.661-3.718l-3.261-1.544c-2.289-1.088-4-2.976-4-5.492,0-2.746,2.574-5.091,6.121-5.091a7.164,7.164,0,0,1,4.462,1.488,3.231,3.231,0,0,0,.744-1.545h1.087v6.751h-1.2c-.4-2.689-1.888-4.92-4.919-4.92-1.6,0-3.089.915-3.089,2.346,0,1.487,1.2,2.288,3.947,3.546l3.146,1.544c2.746,1.316,3.832,3.433,3.832,5.149C418.552,59.347,415.406,61.863,411.573,61.863Zm17.618,0a8.454,8.454,0,0,1-5.148-1.945,4.106,4.106,0,0,0-.914,1.945h-1.087V53.969h1.144c.458,3.776,3.088,6.006,6.464,6.006,1.83,0,3.318-1.03,3.318-2.745,0-1.487-1.316-2.632-3.661-3.718l-3.261-1.544c-2.288-1.088-4-2.976-4-5.492,0-2.746,2.574-5.091,6.121-5.091a7.165,7.165,0,0,1,4.462,1.488,3.226,3.226,0,0,0,.743-1.545h1.087v6.751h-1.2c-.4-2.689-1.888-4.92-4.919-4.92-1.6,0-3.09.915-3.09,2.346,0,1.487,1.2,2.288,3.948,3.546l3.146,1.544c2.746,1.316,3.832,3.433,3.832,5.149C436.17,59.347,433.024,61.863,429.192,61.863Z" transform="translate(-176.05 -18.84)" fill="#464342"/>
        <g id="Group_1223-2" data-name="Group 1223">
          <path id="Path_689-2" data-name="Path 689" d="M8.708,34.022A25.321,25.321,0,0,0,22.976,56.807L10.9,23.72A25.219,25.219,0,0,0,8.708,34.022Zm42.405-1.277a13.329,13.329,0,0,0-2.088-6.982c-1.283-2.085-2.486-3.851-2.486-5.937a4.383,4.383,0,0,1,4.251-4.493c.112,0,.219.014.329.02a25.311,25.311,0,0,0-38.247,4.765c.594.018,1.154.03,1.629.03,2.648,0,6.747-.321,6.747-.321a1.046,1.046,0,0,1,.163,2.085s-1.372.161-2.9.241l9.219,27.421,5.541-16.615L29.327,22.153c-1.363-.08-2.655-.241-2.655-.241a1.046,1.046,0,0,1,.16-2.085s4.181.321,6.668.321c2.647,0,6.747-.321,6.747-.321a1.046,1.046,0,0,1,.162,2.085s-1.374.161-2.9.241l9.149,27.213,2.525-8.438C50.28,37.427,51.113,34.912,51.113,32.745Z" transform="translate(-4.513 -4.513)" fill="#00749a"/>
          <path id="Path_690-2" data-name="Path 690" d="M54.012,50.406l-7.6,22.071a25.322,25.322,0,0,0,15.558-.4,2.144,2.144,0,0,1-.18-.349Zm21.769-14.36a19.429,19.429,0,0,1,.171,2.6,23.88,23.88,0,0,1-1.925,9.068L66.294,70.074a25.32,25.32,0,0,0,9.487-34.028Z" transform="translate(-24.057 -18.683)" fill="#00749a"/>
          <path id="Path_691-2" data-name="Path 691" d="M29.51,0A29.51,29.51,0,1,0,59.022,29.509,29.543,29.543,0,0,0,29.51,0Zm0,57.667A28.157,28.157,0,1,1,57.666,29.509,28.19,28.19,0,0,1,29.51,57.667Z" fill="#00749a"/>
        </g>
      </g>
    </g>
    <g id="Group_1315" data-name="Group 1315" transform="translate(112 2585)">
      <g transform="matrix(1, 0, 0, 1, -9, -6)" filter="url(#Path_694)">
        <path id="Path_694-3" data-name="Path 694" d="M54.251,0A54.251,54.251,0,1,1,0,54.251,54.251,54.251,0,0,1,54.251,0Z" transform="translate(9 6)" fill="#fff"/>
      </g>
      <g id="instacart-1" transform="translate(26.369 42.177) rotate(-25)">
        <g id="Logo" transform="translate(0 0)">
          <path id="Carrot_2_" d="M27.188,4c2.685,2.7,4.881,7.116,3.625,9.741C27.452,20.762,2.374,33.074.244,30.942S10.433,3.726,17.455.363C20.08-.893,24.5,1.3,27.2,3.988A.16.16,0,0,1,27.188,4Z" transform="translate(0 14.186)" fill="#ff8200"/>
          <path id="Leaves_2_" d="M16.815,15.223c-.435-1.615-1.548-3.247-3.211-3.44C10.556,11.429,5.754,16.817,6.1,18.1s7.129,3.532,9.662,1.711c1.306-.939,1.49-2.968,1.062-4.583ZM7.384.3c2.263.613,4.551,2.173,4.821,4.5.5,4.272-7.056,11.007-8.849,10.526S-1.6,5.332.959,1.778C2.276-.053,5.12-.311,7.387.29c0,0,0,0,0,.009Z" transform="translate(23.66 0)" fill="#43b02a"/>
        </g>
      </g>
    </g>
    <g id="Group_1316" data-name="Group 1316" transform="translate(112 2885)">
      <g transform="matrix(1, 0, 0, 1, -9, -306)" filter="url(#Path_694-2)">
        <path id="Path_694-4" data-name="Path 694" d="M54.251,0A54.251,54.251,0,1,1,0,54.251,54.251,54.251,0,0,1,54.251,0Z" transform="translate(9 306)" fill="#fff"/>
      </g>
      <g id="instacart-1-2" data-name="instacart-1" transform="translate(26.369 42.177) rotate(-25)">
        <g id="Logo-2" data-name="Logo" transform="translate(0 0)">
          <path id="Carrot_2_2" data-name="Carrot_2_" d="M27.188,4c2.685,2.7,4.881,7.116,3.625,9.741C27.452,20.762,2.374,33.074.244,30.942S10.433,3.726,17.455.363C20.08-.893,24.5,1.3,27.2,3.988A.16.16,0,0,1,27.188,4Z" transform="translate(0 14.186)" fill="#ff8200"/>
          <path id="Leaves_2_2" data-name="Leaves_2_" d="M16.815,15.223c-.435-1.615-1.548-3.247-3.211-3.44C10.556,11.429,5.754,16.817,6.1,18.1s7.129,3.532,9.662,1.711c1.306-.939,1.49-2.968,1.062-4.583ZM7.384.3c2.263.613,4.551,2.173,4.821,4.5.5,4.272-7.056,11.007-8.849,10.526S-1.6,5.332.959,1.778C2.276-.053,5.12-.311,7.387.29c0,0,0,0,0,.009Z" transform="translate(23.66 0)" fill="#43b02a"/>
        </g>
      </g>
    </g>
  </g>
</svg>
