<svg id="Pay_Online" data-name="Pay Online" xmlns="http://www.w3.org/2000/svg" xmlns:xlink="http://www.w3.org/1999/xlink" width="468.6" height="313.77" viewBox="0 0 468.6 313.77">
  <defs>
    <linearGradient id="linear-gradient" y1="0.5" x2="1" y2="0.5" gradientUnits="objectBoundingBox">
      <stop offset="0" stop-color="#17c9f2"/>
      <stop offset="1" stop-color="#f905f5"/>
    </linearGradient>
    <filter id="Path_1001" x="334.77" y="228.55" width="53.23" height="85.22" filterUnits="userSpaceOnUse">
      <feOffset dy="3" input="SourceAlpha"/>
      <feGaussianBlur stdDeviation="3" result="blur"/>
      <feFlood flood-opacity="0.161"/>
      <feComposite operator="in" in2="blur"/>
      <feComposite in="SourceGraphic"/>
    </filter>
    <linearGradient id="linear-gradient-2" x1="0" xlink:href="#linear-gradient"/>
  </defs>
  <g id="OBJECTS">
    <ellipse id="Ellipse_2739" data-name="Ellipse 2739" cx="234.3" cy="38.13" rx="234.3" ry="38.13" transform="translate(0 187.87)" fill="url(#linear-gradient)"/>
    <path id="Path_973" data-name="Path 973" d="M433.2,221.7l14.85-14.2-14.86.01Z" fill="#185b6d"/>
    <circle id="Ellipse_2740" data-name="Ellipse 2740" cx="6.51" cy="6.51" r="6.51" transform="translate(349.523 80.613) rotate(-89.87)" fill="#ea9313"/>
    <circle id="Ellipse_2741" data-name="Ellipse 2741" cx="6.51" cy="6.51" r="6.51" transform="translate(410.943 80.744) rotate(-89.87)" fill="#ea9313"/>
    <path id="Path_974" data-name="Path 974" d="M358.6,72.41A24.78,24.78,0,0,1,368.77,52.8c5.41-4,11.59-4.48,18-4.47,6.11,0,11.52.57,16.92,3.81,7.09,4.27,11,12.31,11.18,20.4.08,3.31,5.22,3.33,5.14,0a30.06,30.06,0,0,0-11-22.9c-6.47-5.34-14.11-6.44-22.19-6.45s-15.1,1.08-21.7,6A29.67,29.67,0,0,0,353.46,72.4c-.1,3.31,5,3.32,5.14,0Z" fill="#fff"/>
    <path id="Path_975" data-name="Path 975" d="M447.95,65.05l-116.5.08,7.04,21.43,84.73-.06Z" fill="#17c9f2"/>
    <rect id="Rectangle_2421" data-name="Rectangle 2421" width="114.69" height="135.21" transform="translate(318.47 86.53)" fill="#17c9f2"/>
    <path id="Path_976" data-name="Path 976" d="M433.19,207.51l14.86-.01-.1-142.45L423.21,75.93l9.9,10.56Z" fill="#1194b2"/>
    <path id="Path_977" data-name="Path 977" d="M423.21,75.93l.01,10.57,9.89-.01Z" fill="#185b6d"/>
    <path id="Path_978" data-name="Path 978" d="M331.45,65.13l.02,16.76,16.89-6.05Z" fill="#f4a422"/>
    <path id="Path_979" data-name="Path 979" d="M318.42,86.57l29.94-10.73.01,10.71Z" fill="#ea9313"/>
    <circle id="Ellipse_2742" data-name="Ellipse 2742" cx="6.51" cy="6.51" r="6.51" transform="translate(331.763 102.427) rotate(-89.88)" fill="#ea9313"/>
    <circle id="Ellipse_2743" data-name="Ellipse 2743" cx="6.51" cy="6.51" r="6.51" transform="translate(393.203 102.573) rotate(-89.87)" fill="#185b6d"/>
    <path id="Path_980" data-name="Path 980" d="M340.86,94.23A24.8,24.8,0,0,1,351,74.62c5.41-4,11.59-4.49,18-4.47,6.11,0,11.52.57,16.91,3.81,7.09,4.27,11,12.31,11.18,20.39.08,3.31,5.22,3.33,5.14,0a30.06,30.06,0,0,0-11-22.9C384.8,66.13,377.15,65,369.07,65s-15.1,1.08-21.7,6a29.67,29.67,0,0,0-11.65,23.25c-.09,3.31,5,3.32,5.14,0Z" fill="#fff"/>
    <path id="Path_981" data-name="Path 981" d="M141.26,68.34,21.75,68.07,8.91,221.46l144.52.32Z" fill="#f905f5"/>
    <path id="Path_982" data-name="Path 982" d="M81.55,49.21l-59.76-.13-.04,18.99,59.75.13,59.76.14.05-18.99Z" fill="#b904b6"/>
    <path id="Path_983" data-name="Path 983" d="M21.75,68.07,37.27,56.12l-.02,11.99Z" fill="#7a0278"/>
    <path id="Path_984" data-name="Path 984" d="M37.27,56.12,21.79,49.08l-.04,18.99Z" fill="#f905f5"/>
    <path id="Path_985" data-name="Path 985" d="M141.26,68.34,125.79,56.32l-.02,11.98Z" fill="#bc1915"/>
    <path id="Path_986" data-name="Path 986" d="M125.79,56.32l15.52-6.97-.05,18.99Z" fill="#f24c36"/>
    <circle id="Ellipse_2744" data-name="Ellipse 2744" cx="5.73" cy="5.73" r="5.73" transform="translate(45.54 77.33)" fill="#7a0278"/>
    <circle id="Ellipse_2745" data-name="Ellipse 2745" cx="5.73" cy="5.73" r="5.73" transform="translate(108.62 77.28)" fill="#bc1915"/>
    <path id="Path_987" data-name="Path 987" d="M112.08,83a29.66,29.66,0,0,1-29.25,29.3c-16.2.33-29-13.54-29.3-29.26-.06-2.91-4.59-2.92-4.53,0a34.27,34.27,0,0,0,33.82,33.78c18.68.35,33.44-15.7,33.78-33.83.05-2.92-4.47-2.91-4.53,0Z" fill="#fff"/>
    <path id="Path_988" data-name="Path 988" d="M82.16,162.21V188a16,16,0,0,0,16,16H370.94a16,16,0,0,0,16-16V162.21Z" fill="#fcfcfc"/>
    <path id="Path_989" data-name="Path 989" d="M386.92,162.21V16a16,16,0,0,0-16-16H98.14a16,16,0,0,0-16,16V162.21Z" fill="#185b6d"/>
    <path id="Path_990" data-name="Path 990" d="M273.25,220.79v-16.8H195.83v16.8l-12.49,22.26h102.4Z" fill="#fcfcfc"/>
    <path id="Path_991" data-name="Path 991" d="M183.34,249.19h102.4c7.92,0,7.92-12.29,0-12.29H183.34C175.42,236.9,175.42,249.19,183.34,249.19Z" fill="#e6eeef"/>
    <rect id="Rectangle_2422" data-name="Rectangle 2422" width="277.72" height="136.4" transform="translate(95.68 12.29)" fill="#d3d3d1"/>
    <rect id="Rectangle_2423" data-name="Rectangle 2423" width="265.06" height="125.85" transform="translate(101.66 17.57)" fill="#fcfcfc"/>
    <rect id="Rectangle_2424" data-name="Rectangle 2424" width="265.06" height="9.71" transform="translate(101.66 17.57)" fill="#efefef"/>
    <circle id="Ellipse_2746" data-name="Ellipse 2746" cx="2.05" cy="2.05" r="2.05" transform="translate(106.23 20.44)" fill="#f24c36"/>
    <circle id="Ellipse_2747" data-name="Ellipse 2747" cx="2.05" cy="2.05" r="2.05" transform="translate(113.51 20.44)" fill="#efcb37"/>
    <circle id="Ellipse_2748" data-name="Ellipse 2748" cx="2.05" cy="2.05" r="2.05" transform="translate(120.8 20.44)" fill="#6ad339"/>
    <rect id="Rectangle_2425" data-name="Rectangle 2425" width="179.02" height="4.11" transform="translate(130.5 20.44)" fill="#fcfcfc"/>
    <rect id="Rectangle_2426" data-name="Rectangle 2426" width="45.79" height="4.11" transform="translate(317.06 20.44)" fill="#fcfcfc"/>
    <circle id="Ellipse_2749" data-name="Ellipse 2749" cx="35.17" cy="35.17" r="35.17" transform="translate(115.55 48.44)" fill="#17c9f2"/>
    <path id="Path_992" data-name="Path 992" d="M168.41,63.69l-8,4.87c-1.68,1-1.47,3.42-1.68,5.19L156.66,92h-16l-4-12.09h18.33c2.67,0,2.67-4.14,0-4.14h-21.2a2.08,2.08,0,0,0-2,2.62l5.41,16.22a2.11,2.11,0,0,0,2,1.52h19.37A2.11,2.11,0,0,0,160.55,94l2.56-22.29,7.38-4.51C172.76,65.87,170.69,62.29,168.41,63.69Z" fill="#1194b2"/>
    <circle id="Ellipse_2750" data-name="Ellipse 2750" cx="3.45" cy="3.45" r="3.45" transform="translate(138.9 98.61)" fill="#1194b2"/>
    <circle id="Ellipse_2751" data-name="Ellipse 2751" cx="3.45" cy="3.45" r="3.45" transform="translate(153.45 98.61)" fill="#1194b2"/>
    <path id="Path_993" data-name="Path 993" d="M166.75,62l-8,4.87c-1.69,1-1.48,3.42-1.68,5.18L155,90.33H139l-4-12.09h18.33c2.67,0,2.67-4.13,0-4.13H132.06a2.08,2.08,0,0,0-2,2.62l5.41,16.22a2.11,2.11,0,0,0,2,1.52h19.37a2.11,2.11,0,0,0,2.07-2.07l2.56-22.29,7.38-4.51C171.11,64.22,169,60.64,166.75,62Z" fill="#fff"/>
    <circle id="Ellipse_2752" data-name="Ellipse 2752" cx="3.45" cy="3.45" r="3.45" transform="translate(137.25 96.96)" fill="#fff"/>
    <circle id="Ellipse_2753" data-name="Ellipse 2753" cx="3.45" cy="3.45" r="3.45" transform="translate(151.8 96.96)" fill="#fff"/>
    <path id="Path_994" data-name="Path 994" d="M184.66,100.12H182V86.56a2.63,2.63,0,0,0-2.62-2.62h-5.25a2.63,2.63,0,0,0-2.62,2.62v13.56h-2.62V86.56a5.26,5.26,0,0,1,5.25-5.25h5.25a5.26,5.26,0,0,1,5.25,5.25Z" fill="#7a0278"/>
    <rect id="Rectangle_2427" data-name="Rectangle 2427" width="24.93" height="19.25" rx="3.94" transform="translate(164.32 97.06)" fill="#f905f5"/>
    <path id="Path_995" data-name="Path 995" d="M180.06,104.28a3.28,3.28,0,1,0-5.14,2.7l-1.16,3.86h6L178.64,107a3.27,3.27,0,0,0,1.42-2.72Z" fill="#7a0278"/>
    <rect id="Rectangle_2428" data-name="Rectangle 2428" width="148.49" height="99.22" transform="translate(205.04 35.95)" fill="#efefef"/>
    <rect id="Rectangle_2429" data-name="Rectangle 2429" width="39.2" height="3.82" transform="translate(211.28 42.2)" fill="#d3d3d1"/>
    <rect id="Rectangle_2430" data-name="Rectangle 2430" width="29.56" height="2.26" transform="translate(211.28 53.79)" fill="#d3d3d1"/>
    <rect id="Rectangle_2431" data-name="Rectangle 2431" width="39.2" height="2.26" transform="translate(211.28 57.96)" fill="#d3d3d1"/>
    <rect id="Rectangle_2432" data-name="Rectangle 2432" width="20.12" height="2.26" transform="translate(211.28 62.12)" fill="#d3d3d1"/>
    <rect id="Rectangle_2433" data-name="Rectangle 2433" width="13.15" height="2.26" transform="translate(211.28 66.28)" fill="#d3d3d1"/>
    <rect id="Rectangle_2434" data-name="Rectangle 2434" width="32.61" height="2.26" transform="translate(211.28 78.77)" fill="#d3d3d1"/>
    <rect id="Rectangle_2435" data-name="Rectangle 2435" width="10.41" height="2.26" transform="translate(252.22 78.77)" fill="#d3d3d1"/>
    <rect id="Rectangle_2436" data-name="Rectangle 2436" width="32.61" height="2.26" transform="translate(211.28 85.02)" fill="#d3d3d1"/>
    <rect id="Rectangle_2437" data-name="Rectangle 2437" width="10.41" height="2.26" transform="translate(252.22 85.02)" fill="#d3d3d1"/>
    <rect id="Rectangle_2438" data-name="Rectangle 2438" width="32.61" height="2.26" transform="translate(211.28 91.26)" fill="#d3d3d1"/>
    <rect id="Rectangle_2439" data-name="Rectangle 2439" width="10.41" height="2.26" transform="translate(252.22 91.26)" fill="#d3d3d1"/>
    <rect id="Rectangle_2440" data-name="Rectangle 2440" width="32.61" height="2.26" transform="translate(211.28 97.51)" fill="#d3d3d1"/>
    <rect id="Rectangle_2441" data-name="Rectangle 2441" width="10.41" height="2.26" transform="translate(252.22 97.51)" fill="#d3d3d1"/>
    <rect id="Rectangle_2442" data-name="Rectangle 2442" width="32.61" height="2.26" transform="translate(211.28 103.75)" fill="#d3d3d1"/>
    <rect id="Rectangle_2443" data-name="Rectangle 2443" width="10.41" height="2.26" transform="translate(252.22 103.75)" fill="#d3d3d1"/>
    <rect id="Rectangle_2444" data-name="Rectangle 2444" width="32.61" height="2.26" transform="translate(211.28 110)" fill="#d3d3d1"/>
    <rect id="Rectangle_2445" data-name="Rectangle 2445" width="10.41" height="2.26" transform="translate(252.22 110)" fill="#d3d3d1"/>
    <rect id="Rectangle_2446" data-name="Rectangle 2446" width="32.61" height="2.26" transform="translate(211.28 116.24)" fill="#d3d3d1"/>
    <rect id="Rectangle_2447" data-name="Rectangle 2447" width="10.41" height="2.26" transform="translate(252.22 116.24)" fill="#d3d3d1"/>
    <rect id="Rectangle_2448" data-name="Rectangle 2448" width="32.61" height="2.26" transform="translate(211.28 122.48)" fill="#d3d3d1"/>
    <rect id="Rectangle_2449" data-name="Rectangle 2449" width="10.41" height="2.26" transform="translate(252.22 122.48)" fill="#d3d3d1"/>
    <rect id="Rectangle_2450" data-name="Rectangle 2450" width="31.22" height="2.47" transform="translate(312.23 43.37)" fill="#d3d3d1"/>
    <rect id="Rectangle_2451" data-name="Rectangle 2451" width="35.5" height="2.47" transform="translate(307.95 57.94)" fill="#d3d3d1"/>
    <rect id="Rectangle_2452" data-name="Rectangle 2452" width="67.3" height="7.79" transform="translate(276.16 65.1)" fill="#fcfcfc"/>
    <rect id="Rectangle_2453" data-name="Rectangle 2453" width="35.5" height="2.47" transform="translate(307.95 78.76)" fill="#d3d3d1"/>
    <rect id="Rectangle_2454" data-name="Rectangle 2454" width="67.3" height="7.79" transform="translate(276.16 85.91)" fill="#fcfcfc"/>
    <rect id="Rectangle_2455" data-name="Rectangle 2455" width="67.3" height="23.23" transform="translate(276.16 102.76)" fill="#f905f5"/>
    <path id="Path_996" data-name="Path 996" d="M298.08,116.36h-2.74v4.84a1.24,1.24,0,1,1-2.48,0V108a1.22,1.22,0,0,1,1.23-1.23h4a4.78,4.78,0,1,1,0,9.55Zm-2.74-2.48h2.74a2.3,2.3,0,1,0,0-4.6h-2.74Z" fill="#f3f4f2"/>
    <path id="Path_997" data-name="Path 997" d="M312.27,118.75h-5.43l-1.09,2.9a1.25,1.25,0,0,1-1.16.78,1.319,1.319,0,0,1-.42-.07,1.27,1.27,0,0,1-.74-1.61l4.93-13.14a1.29,1.29,0,0,1,2.37,0l4.93,13.14a1.27,1.27,0,0,1-.74,1.61,1.22,1.22,0,0,1-.42.07,1.2,1.2,0,0,1-1.14-.78Zm-.92-2.46-1.81-4.8-1.81,4.8Z" fill="#f3f4f2"/>
    <path id="Path_998" data-name="Path 998" d="M327.92,108.91l-4.58,6.27v6a1.21,1.21,0,0,1-1.23,1.23,1.24,1.24,0,0,1-1.23-1.23v-6l-4.53-6.27a1.17,1.17,0,0,1,.25-1.69,1.19,1.19,0,0,1,1.7.27l3.82,5.22,3.82-5.22a1.229,1.229,0,0,1,2,1.43Z" fill="#f3f4f2"/>
    <path id="Path_999" data-name="Path 999" d="M339.46,126.04l-7.48-5.3,1.25,9.08,2.61-1.59,1.83,3.01,1-.61-1.82-3.01Z" fill="#231f20"/>
    <path id="Path_1000" data-name="Path 1000" d="M362.71,238.22h-3.12V227.81c0-6.6,6.3-12,14.05-12h27.78a10.94,10.94,0,0,0,10.93-10.93V126.23a10.94,10.94,0,0,0-10.93-10.93h-14.5v-3.12h14.5a14.07,14.07,0,0,1,14.05,14.05v78.69A14.07,14.07,0,0,1,401.41,219H373.64c-6,0-10.93,4-10.93,8.85Z" fill="#fff"/>
    <g transform="matrix(1, 0, 0, 1, 0, 0)" filter="url(#Path_1001)">
      <path id="Path_1001-2" data-name="Path 1001" d="M379,284.16a17.61,17.61,0,0,1-17.62,17.61h0a17.61,17.61,0,0,1-17.61-17.61v-32a17.61,17.61,0,0,1,17.61-17.61h0A17.61,17.61,0,0,1,379,252.17Z" fill="#fff"/>
    </g>
    <path id="Path_1002" data-name="Path 1002" d="M363.57,254.51a2.34,2.34,0,0,1-2.34,2.34h0a2.34,2.34,0,0,1-2.34-2.34v-9.35a2.34,2.34,0,0,1,2.34-2.34h0a2.34,2.34,0,0,1,2.34,2.34Z" fill="#d2d3d4"/>
    <rect id="Rectangle_2456" data-name="Rectangle 2456" width="180.99" height="50.42" rx="3.53" transform="translate(139.34 258.31)" fill="#eaeaea"/>
    <rect id="Rectangle_2457" data-name="Rectangle 2457" width="8.28" height="8.28" rx="1" transform="translate(143.29 260.99)" fill="#fff"/>
    <rect id="Rectangle_2458" data-name="Rectangle 2458" width="8.28" height="8.28" rx="1" transform="translate(153.82 260.99)" fill="#fff"/>
    <rect id="Rectangle_2459" data-name="Rectangle 2459" width="8.28" height="8.28" rx="1" transform="translate(164.36 260.99)" fill="#fff"/>
    <rect id="Rectangle_2460" data-name="Rectangle 2460" width="8.28" height="8.28" rx="1" transform="translate(174.89 260.99)" fill="#fff"/>
    <rect id="Rectangle_2461" data-name="Rectangle 2461" width="8.28" height="8.28" rx="1" transform="translate(185.43 260.99)" fill="#fff"/>
    <rect id="Rectangle_2462" data-name="Rectangle 2462" width="8.28" height="8.28" rx="1" transform="translate(195.96 260.99)" fill="#fff"/>
    <rect id="Rectangle_2463" data-name="Rectangle 2463" width="8.28" height="8.28" rx="1" transform="translate(206.5 260.99)" fill="#fff"/>
    <rect id="Rectangle_2464" data-name="Rectangle 2464" width="8.28" height="8.28" rx="1" transform="translate(217.04 260.99)" fill="#fff"/>
    <rect id="Rectangle_2465" data-name="Rectangle 2465" width="8.28" height="8.28" rx="1" transform="translate(227.57 260.99)" fill="#fff"/>
    <rect id="Rectangle_2466" data-name="Rectangle 2466" width="8.28" height="8.28" rx="1" transform="translate(143.29 273.04)" fill="#fff"/>
    <rect id="Rectangle_2467" data-name="Rectangle 2467" width="8.28" height="8.28" rx="1" transform="translate(153.82 273.04)" fill="#fff"/>
    <rect id="Rectangle_2468" data-name="Rectangle 2468" width="8.28" height="8.28" rx="1" transform="translate(164.36 273.04)" fill="#fff"/>
    <rect id="Rectangle_2469" data-name="Rectangle 2469" width="8.28" height="8.28" rx="1" transform="translate(174.89 273.04)" fill="#fff"/>
    <rect id="Rectangle_2470" data-name="Rectangle 2470" width="8.28" height="8.28" rx="1" transform="translate(185.43 273.04)" fill="#fff"/>
    <rect id="Rectangle_2471" data-name="Rectangle 2471" width="8.28" height="8.28" rx="1" transform="translate(195.96 273.04)" fill="#fff"/>
    <rect id="Rectangle_2472" data-name="Rectangle 2472" width="8.28" height="8.28" rx="1" transform="translate(206.5 273.04)" fill="#fff"/>
    <rect id="Rectangle_2473" data-name="Rectangle 2473" width="8.28" height="8.28" rx="1" transform="translate(217.04 273.04)" fill="#fff"/>
    <rect id="Rectangle_2474" data-name="Rectangle 2474" width="8.28" height="8.28" rx="1" transform="translate(227.57 273.04)" fill="#fff"/>
    <rect id="Rectangle_2475" data-name="Rectangle 2475" width="8.28" height="8.28" rx="1" transform="translate(143.29 285.07)" fill="#fff"/>
    <rect id="Rectangle_2476" data-name="Rectangle 2476" width="8.28" height="8.28" rx="1" transform="translate(153.82 285.07)" fill="#fff"/>
    <rect id="Rectangle_2477" data-name="Rectangle 2477" width="8.28" height="8.28" rx="1" transform="translate(164.36 285.07)" fill="#fff"/>
    <rect id="Rectangle_2478" data-name="Rectangle 2478" width="8.28" height="8.28" rx="1" transform="translate(174.89 285.07)" fill="#fff"/>
    <rect id="Rectangle_2479" data-name="Rectangle 2479" width="8.28" height="8.28" rx="1" transform="translate(185.43 285.07)" fill="#fff"/>
    <rect id="Rectangle_2480" data-name="Rectangle 2480" width="8.28" height="8.28" rx="1" transform="translate(195.96 285.07)" fill="#fff"/>
    <rect id="Rectangle_2481" data-name="Rectangle 2481" width="8.28" height="8.28" rx="1" transform="translate(206.5 285.07)" fill="#fff"/>
    <rect id="Rectangle_2482" data-name="Rectangle 2482" width="8.28" height="8.28" rx="1" transform="translate(217.04 285.07)" fill="#fff"/>
    <rect id="Rectangle_2483" data-name="Rectangle 2483" width="8.28" height="8.28" rx="1" transform="translate(227.57 285.07)" fill="#fff"/>
    <rect id="Rectangle_2484" data-name="Rectangle 2484" width="8.28" height="8.28" rx="1" transform="translate(143.29 297.12)" fill="#fff"/>
    <rect id="Rectangle_2485" data-name="Rectangle 2485" width="8.28" height="8.28" rx="1" transform="translate(153.82 297.12)" fill="#fff"/>
    <path id="Path_1003" data-name="Path 1003" d="M205.26,297.12h-39.9a1,1,0,0,0-1,1v6.28a1,1,0,0,0,1,1H211.9a1,1,0,0,0,1-1v-6.28a1,1,0,0,0-1-1Z" fill="#fff"/>
    <rect id="Rectangle_2486" data-name="Rectangle 2486" width="8.28" height="8.28" rx="1" transform="translate(217.04 297.12)" fill="#fff"/>
    <rect id="Rectangle_2487" data-name="Rectangle 2487" width="8.28" height="8.28" rx="1" transform="translate(227.57 297.12)" fill="#fff"/>
    <rect id="Rectangle_2488" data-name="Rectangle 2488" width="8.28" height="8.28" rx="1" transform="translate(246.39 260.99)" fill="#fff"/>
    <rect id="Rectangle_2489" data-name="Rectangle 2489" width="8.28" height="8.28" rx="1" transform="translate(256.92 260.99)" fill="#fff"/>
    <rect id="Rectangle_2490" data-name="Rectangle 2490" width="8.28" height="8.28" rx="1" transform="translate(267.46 260.99)" fill="#fff"/>
    <rect id="Rectangle_2491" data-name="Rectangle 2491" width="8.28" height="8.28" rx="1" transform="translate(246.39 273.04)" fill="#fff"/>
    <rect id="Rectangle_2492" data-name="Rectangle 2492" width="8.28" height="8.28" rx="1" transform="translate(256.92 273.04)" fill="#fff"/>
    <rect id="Rectangle_2493" data-name="Rectangle 2493" width="8.28" height="8.28" rx="1" transform="translate(267.46 273.04)" fill="#fff"/>
    <rect id="Rectangle_2494" data-name="Rectangle 2494" width="8.28" height="8.28" rx="1" transform="translate(246.39 297.12)" fill="#fff"/>
    <rect id="Rectangle_2495" data-name="Rectangle 2495" width="8.28" height="8.28" rx="1" transform="translate(256.92 297.12)" fill="#fff"/>
    <rect id="Rectangle_2496" data-name="Rectangle 2496" width="8.28" height="8.28" rx="1" transform="translate(267.46 297.12)" fill="#fff"/>
    <rect id="Rectangle_2497" data-name="Rectangle 2497" width="8.28" height="8.28" rx="1" transform="translate(256.92 285.07)" fill="#fff"/>
    <rect id="Rectangle_2498" data-name="Rectangle 2498" width="8.28" height="8.28" rx="1" transform="translate(287.77 260.99)" fill="#fff"/>
    <rect id="Rectangle_2499" data-name="Rectangle 2499" width="8.28" height="8.28" rx="1" transform="translate(298.31 260.99)" fill="#fff"/>
    <rect id="Rectangle_2500" data-name="Rectangle 2500" width="8.28" height="8.28" rx="1" transform="translate(308.85 260.99)" fill="#fff"/>
    <rect id="Rectangle_2501" data-name="Rectangle 2501" width="8.28" height="8.28" rx="1" transform="translate(287.77 273.04)" fill="#fff"/>
    <rect id="Rectangle_2502" data-name="Rectangle 2502" width="8.28" height="8.28" rx="1" transform="translate(298.31 273.04)" fill="#fff"/>
    <rect id="Rectangle_2503" data-name="Rectangle 2503" width="8.28" height="8.28" rx="1" transform="translate(308.85 273.04)" fill="#fff"/>
    <rect id="Rectangle_2504" data-name="Rectangle 2504" width="8.28" height="8.28" rx="1" transform="translate(287.77 285.07)" fill="#fff"/>
    <rect id="Rectangle_2505" data-name="Rectangle 2505" width="8.28" height="8.28" rx="1" transform="translate(298.31 285.07)" fill="#fff"/>
    <rect id="Rectangle_2506" data-name="Rectangle 2506" width="8.28" height="8.28" rx="1" transform="translate(308.85 285.07)" fill="#fff"/>
    <rect id="Rectangle_2507" data-name="Rectangle 2507" width="8.28" height="8.28" rx="1" transform="translate(287.77 297.12)" fill="#fff"/>
    <rect id="Rectangle_2508" data-name="Rectangle 2508" width="8.28" height="8.28" rx="1" transform="translate(298.31 297.12)" fill="#fff"/>
    <rect id="Rectangle_2509" data-name="Rectangle 2509" width="8.28" height="8.28" rx="1" transform="translate(308.85 297.12)" fill="#fff"/>
    <rect id="Rectangle_2510" data-name="Rectangle 2510" width="99.81" height="62.76" rx="10.29" transform="translate(27.35 180.59)" fill="url(#linear-gradient-2)"/>
    <rect id="Rectangle_2511" data-name="Rectangle 2511" width="99.81" height="14.97" transform="translate(27.35 194.52)" fill="#fcfcfc"/>
    <path id="Path_1004" data-name="Path 1004" d="M64.86,215.35l1.33-1.92c.28-.41-.39-.8-.67-.39l-1.13,1.63L63.25,213c-.28-.41-1,0-.67.39l1.33,1.92-1.33,1.92c-.29.41.38.79.67.39L64.39,216l1.13,1.63c.28.41,1,0,.67-.39Z" fill="#fff"/>
    <path id="Path_1005" data-name="Path 1005" d="M70,215.35l1.33-1.92c.28-.41-.39-.8-.67-.39l-1.13,1.63L68.4,213c-.28-.41-1,0-.67.39l1.33,1.92-1.33,1.92c-.29.41.38.79.67.39L69.53,216l1.13,1.63c.28.41,1,0,.67-.39Z" fill="#fff"/>
    <path id="Path_1006" data-name="Path 1006" d="M75.15,215.35l1.33-1.92c.28-.41-.39-.8-.67-.39l-1.13,1.63L73.54,213c-.28-.41-1,0-.67.39l1.33,1.92-1.33,1.92c-.29.41.38.79.67.39L74.68,216l1.13,1.63c.28.41,1,0,.67-.39Z" fill="#fff"/>
    <path id="Path_1007" data-name="Path 1007" d="M85.44,215.35l1.33-1.92c.29-.41-.38-.8-.67-.39L85,214.68,83.83,213c-.28-.41-1,0-.67.39l1.33,1.92-1.33,1.92c-.28.41.38.79.67.39L85,216l1.13,1.63c.28.41,1,0,.67-.39Z" fill="#fff"/>
    <path id="Path_1008" data-name="Path 1008" d="M90.58,215.35l1.33-1.92c.28-.41-.38-.8-.67-.39l-1.13,1.63L89,213c-.28-.41-1,0-.67.39l1.33,1.92-1.33,1.92c-.29.41.38.79.67.39L90.11,216l1.13,1.63c.28.41,1,0,.67-.39Z" fill="#fff"/>
    <rect id="Rectangle_2512" data-name="Rectangle 2512" width="99.81" height="62.76" rx="10.29" transform="translate(27.35 223.93)" fill="url(#linear-gradient-2)"/>
    <path id="Path_1009" data-name="Path 1009" d="M64.62,263.79,66,261.87c.28-.41-.38-.8-.67-.39l-1.13,1.63L63,261.48c-.28-.41-1,0-.67.39l1.33,1.92-1.33,1.92c-.29.41.38.8.67.39l1.13-1.63,1.13,1.63c.28.41,1,0,.67-.39Z" fill="#fff"/>
    <path id="Path_1010" data-name="Path 1010" d="M69.77,263.79l1.33-1.92c.28-.41-.38-.8-.67-.39l-1.13,1.63-1.13-1.63c-.28-.41-1,0-.67.39l1.33,1.92-1.33,1.92c-.28.41.38.8.67.39l1.13-1.63,1.13,1.63c.28.41,1,0,.67-.39Z" fill="#fff"/>
    <path id="Path_1011" data-name="Path 1011" d="M79,263.79l1.33-1.92c.28-.41-.38-.8-.67-.39l-1.13,1.63-1.14-1.63c-.28-.41-1,0-.67.39l1.33,1.92-1.33,1.92c-.29.41.38.8.67.39l1.14-1.63,1.13,1.63c.28.41,1,0,.67-.39Z" fill="#fff"/>
    <path id="Path_1012" data-name="Path 1012" d="M84.17,263.79l1.33-1.92c.28-.41-.38-.8-.67-.39l-1.13,1.63-1.13-1.63c-.28-.41-1,0-.67.39l1.33,1.92-1.33,1.92c-.29.41.38.8.67.39l1.13-1.63,1.13,1.63c.28.41,1,0,.67-.39Z" fill="#fff"/>
    <path id="Path_1013" data-name="Path 1013" d="M75.23,259.76,72,267.44c-.19.45.47.85.67.39l3.27-7.68c.19-.45-.47-.85-.67-.39Z" fill="#fff"/>
    <path id="Path_1014" data-name="Path 1014" d="M36,255.31l1.33-1.92c.28-.41-.38-.79-.67-.39l-1.13,1.63L34.45,253c-.28-.41-1,0-.67.39l1.33,1.92-1.33,1.92c-.28.41.38.8.67.39L35.58,256l1.13,1.63c.28.41,1,0,.67-.39Z" fill="#fff"/>
    <path id="Path_1015" data-name="Path 1015" d="M41.19,255.31l1.33-1.92c.28-.41-.38-.79-.67-.39l-1.13,1.63L39.59,253c-.28-.41-1,0-.67.39l1.33,1.92-1.33,1.92c-.29.41.38.8.67.39L40.72,256l1.13,1.63c.28.41,1,0,.67-.39Z" fill="#fff"/>
    <path id="Path_1016" data-name="Path 1016" d="M46.34,255.31l1.33-1.92c.28-.41-.38-.79-.67-.39l-1.13,1.63L44.73,253c-.28-.41-1,0-.67.39l1.33,1.92-1.33,1.92c-.28.41.38.8.67.39L45.87,256,47,257.62c.28.41,1,0,.67-.39Z" fill="#fff"/>
    <path id="Path_1017" data-name="Path 1017" d="M51.48,255.31l1.33-1.92c.28-.41-.38-.79-.67-.39L51,254.63,49.88,253c-.28-.41-1,0-.67.39l1.33,1.92-1.33,1.92c-.29.41.38.8.67.39L51,256l1.14,1.63c.28.41,1,0,.67-.39Z" fill="#fff"/>
    <path id="Path_1018" data-name="Path 1018" d="M58.68,255.31,60,253.39c.28-.41-.38-.79-.67-.39l-1.13,1.63L57.08,253c-.28-.41-1,0-.67.39l1.33,1.92-1.33,1.92c-.28.41.38.8.67.39L58.22,256l1.13,1.63c.28.41,1,0,.67-.39Z" fill="#fff"/>
    <path id="Path_1019" data-name="Path 1019" d="M63.83,255.31l1.33-1.92c.28-.41-.39-.79-.67-.39l-1.13,1.63L62.23,253c-.28-.41-1,0-.67.39l1.33,1.92-1.33,1.92c-.29.41.38.8.67.39L63.36,256l1.13,1.63c.28.41,1,0,.67-.39Z" fill="#fff"/>
    <path id="Path_1020" data-name="Path 1020" d="M69,255.31l1.33-1.92c.28-.41-.38-.79-.67-.39l-1.13,1.63L67.37,253c-.28-.41-1,0-.67.39l1.3,1.92-1.33,1.92c-.28.41.38.8.67.39L68.51,256l1.13,1.63c.28.41,1,0,.67-.39Z" fill="#fff"/>
    <path id="Path_1021" data-name="Path 1021" d="M74.12,255.31l1.33-1.92c.29-.41-.38-.79-.67-.39l-1.13,1.63L72.52,253c-.28-.41-1,0-.67.39l1.33,1.92-1.33,1.92c-.29.41.38.8.67.39L73.65,256l1.13,1.63c.28.41,1,0,.67-.39Z" fill="#fff"/>
    <path id="Path_1022" data-name="Path 1022" d="M81.32,255.31l1.33-1.92c.28-.41-.38-.79-.67-.39l-1.13,1.63L79.72,253c-.28-.41-1,0-.67.39l1.33,1.92-1.33,1.92c-.28.41.38.8.67.39L80.85,256,82,257.62c.28.41,1,0,.67-.39Z" fill="#fff"/>
    <path id="Path_1023" data-name="Path 1023" d="M86.46,255.31l1.33-1.92c.29-.41-.38-.79-.67-.39L86,254.63,84.86,253c-.28-.41-1,0-.67.39l1.33,1.92-1.33,1.92c-.28.41.39.8.67.39L86,256l1.13,1.63c.28.41,1,0,.67-.39Z" fill="#fff"/>
    <path id="Path_1024" data-name="Path 1024" d="M91.61,255.31l1.33-1.92c.28-.41-.38-.79-.67-.39l-1.13,1.63L90,253c-.28-.41-1,0-.67.39l1.33,1.92-1.33,1.92c-.28.41.38.8.67.39L91.14,256l1.13,1.63c.28.41,1,0,.67-.39Z" fill="#fff"/>
    <path id="Path_1025" data-name="Path 1025" d="M96.75,255.31l1.33-1.92c.29-.41-.38-.79-.67-.39l-1.13,1.63L95.15,253c-.28-.41-1,0-.67.39l1.33,1.92-1.33,1.92c-.28.41.38.8.67.39L96.29,256l1.13,1.63c.28.41,1,0,.67-.39Z" fill="#fff"/>
    <path id="Path_1026" data-name="Path 1026" d="M104,255.31l1.33-1.92c.28-.41-.38-.79-.67-.39l-1.13,1.63L102.35,253c-.28-.41-1,0-.67.39l1.33,1.92-1.33,1.92c-.28.41.39.8.67.39l1.13-1.63,1.13,1.63c.28.41,1,0,.67-.39Z" fill="#fff"/>
    <path id="Path_1027" data-name="Path 1027" d="M109.1,255.31l1.33-1.92c.29-.41-.38-.79-.67-.39l-1.13,1.63L107.5,253c-.28-.41-1,0-.67.39l1.33,1.92-1.33,1.92c-.28.41.38.8.67.39l1.14-1.63,1.13,1.63c.28.41,1,0,.67-.39Z" fill="#fff"/>
    <path id="Path_1028" data-name="Path 1028" d="M114.25,255.31l1.33-1.92c.28-.41-.38-.79-.67-.39l-1.13,1.63L112.64,253c-.28-.41-1,0-.67.39l1.33,1.92-1.3,1.92c-.28.41.38.8.67.39l1.13-1.63,1.13,1.63c.28.41,1,0,.67-.39Z" fill="#fff"/>
    <path id="Path_1029" data-name="Path 1029" d="M119.39,255.31l1.33-1.92c.29-.41-.38-.79-.67-.39l-1.13,1.63L117.79,253c-.28-.41-1,0-.67.39l1.33,1.92-1.33,1.92c-.28.41.38.8.67.39l1.13-1.63,1.13,1.63c.28.41,1,0,.67-.39Z" fill="#fff"/>
    <circle id="Ellipse_2754" data-name="Ellipse 2754" cx="5.88" cy="5.88" r="5.88" transform="translate(104.97 270.44)" fill="#f74514"/>
    <circle id="Ellipse_2755" data-name="Ellipse 2755" cx="5.88" cy="5.88" r="5.88" transform="translate(97.82 270.44)" fill="#224750"/>
    <text id="NAME_SURNAME" data-name="NAME SURNAME" transform="translate(33.94 278.54)" fill="#fcfcfc" font-size="6.85" font-family="SegoeUI-Bold, Segoe UI" font-weight="700"><tspan x="0" y="0">NA</tspan><tspan y="0" letter-spacing="-0.05em">M</tspan><tspan y="0">E S</tspan><tspan y="0" letter-spacing="-0.019em">U</tspan><tspan y="0">RNA</tspan><tspan y="0" letter-spacing="-0.05em">M</tspan><tspan y="0">E</tspan></text>
    <text id="BANK_NAME" data-name="BANK NAME" transform="translate(78.9 236)" fill="#fcfcfc" font-size="6.85" font-family="SegoeUI-Bold, Segoe UI" font-weight="700"><tspan x="0" y="0" letter-spacing="-0.019em">B</tspan><tspan y="0">ANK NA</tspan><tspan y="0" letter-spacing="-0.05em">M</tspan><tspan y="0">E</tspan></text>
    <rect id="Rectangle_2513" data-name="Rectangle 2513" width="17.3" height="13.03" rx="1.03" transform="translate(33.94 235.68)" fill="#fcfcfc"/>
    <path id="Path_1030" data-name="Path 1030" d="M49.53,240.09h0V238a1,1,0,0,0-1-1H36.73a1,1,0,0,0-1,1v6.31h0v2.08a1.05,1.05,0,0,0,1,1H48.46a1,1,0,0,0,1-1v-6.31ZM36.2,238a.53.53,0,0,1,.53-.53h4v3.08l-4.5,3.38Zm0,8.44v-1.87l5-3.76v-3.34h7.24A.53.53,0,0,1,49,238v1.87l-5,3.76v3.34H36.73a.54.54,0,0,1-.53-.55Zm12.79,0a.54.54,0,0,1-.53.53h-4v-3.08l4.5-3.38Z" fill="#f4ca76"/>
    <text id="CREDIT_CARD" data-name="CREDIT CARD" transform="translate(73.09 245.02)" fill="#fcfcfc" font-size="6.85" font-family="SegoeUI-Bold, Segoe UI" font-weight="700"><tspan x="0" y="0">CRE</tspan><tspan y="0" letter-spacing="-0.05em">D</tspan><tspan y="0">IT </tspan><tspan y="0" letter-spacing="-0.009em">C</tspan><tspan y="0">ARD</tspan></text>
    <path id="Path_1031" data-name="Path 1031" d="M434,30.48s-2.31,6-7.32,6.72c5,.75,7.32,6.72,7.32,6.72s2.31-6,7.32-6.72C436.29,36.45,434,30.48,434,30.48Z" fill="#fff"/>
    <path id="Path_1032" data-name="Path 1032" d="M34.63,30.48s2.31,6,7.32,6.72c-5,.75-7.32,6.72-7.32,6.72s-2.31-6-7.32-6.72C32.32,36.45,34.63,30.48,34.63,30.48Z" fill="#fff"/>
  </g>
</svg>
