<svg xmlns="http://www.w3.org/2000/svg" xmlns:xlink="http://www.w3.org/1999/xlink" width="144.359" height="105.143" viewBox="0 0 144.359 105.143">
  <defs>
    <filter id="Path_1323" x="0" y="0" width="144.359" height="105.143" filterUnits="userSpaceOnUse">
      <feOffset dy="3" input="SourceAlpha"/>
      <feGaussianBlur stdDeviation="3" result="blur"/>
      <feFlood flood-opacity="0.161"/>
      <feComposite operator="in" in2="blur"/>
      <feComposite in="SourceGraphic"/>
    </filter>
  </defs>
  <g id="Group_1432" data-name="Group 1432" transform="translate(9 6)">
    <g transform="matrix(1, 0, 0, 1, -9, -6)" filter="url(#Path_1323)">
      <path id="Path_1323-2" data-name="Path 1323" d="M126.359,159.124a7.469,7.469,0,0,1-7.469,7.47H7.469A7.469,7.469,0,0,1,0,159.124v-72.2a7.469,7.469,0,0,1,7.469-7.469h111.42a7.469,7.469,0,0,1,7.469,7.469v72.2Z" transform="translate(9 -73.45)" fill="#27ade4"/>
    </g>
    <g id="Group_1431" data-name="Group 1431" transform="translate(13.098 25.649)">
      <path id="Path_1235" data-name="Path 1235" d="M43.365,168.216l-1.811-4.471-1.8,4.471m43.483-1.781a2.415,2.415,0,0,1-1.308.232H78.715v-2.491h3.256a2.682,2.682,0,0,1,1.254.2,1.033,1.033,0,0,1,.554.993,1.149,1.149,0,0,1-.543,1.065m22.916,1.781-1.829-4.471-1.819,4.471Zm-42.718,4.839H60.723l-.01-8.785-3.834,8.785H54.557l-3.844-8.792v8.792H45.334l-1.016-2.5H38.813l-1.027,2.5H34.914l4.735-11.216h3.93l4.5,10.618V161.839h4.315l3.461,7.608,3.179-7.608h4.4v11.216Zm10.8,0H65.405V161.839h8.834v2.337H68.051V166.2h6.04v2.3h-6.04v2.237h6.189v2.321Zm12.455-8.194a3.157,3.157,0,0,1-1.864,2.988,3.065,3.065,0,0,1,1.308.946,3.25,3.25,0,0,1,.439,2.055v2.2H83.91l-.01-1.414a3.408,3.408,0,0,0-.418-2.186c-.387-.394-.975-.48-1.927-.48h-2.84v4.08H76.07V161.839h6.083a6.147,6.147,0,0,1,3.2.537,2.626,2.626,0,0,1,1.339,2.485m4.232,8.194h-2.7V161.84h2.7Zm31.3,0h-3.748l-5.012-8.418v8.418h-5.386l-1.028-2.5h-5.493l-1,2.5H97.467a5.509,5.509,0,0,1-3.834-1.241,5.688,5.688,0,0,1-1.413-4.281,6.008,6.008,0,0,1,1.426-4.384,5.319,5.319,0,0,1,4.016-1.309h2.559v2.4H97.715a2.524,2.524,0,0,0-2.034.665,3.742,3.742,0,0,0-.76,2.541,3.921,3.921,0,0,0,.728,2.633,2.522,2.522,0,0,0,1.842.579h1.187l3.727-8.82h3.963l4.477,10.608V161.84h4.027l4.648,7.81v-7.81h2.709v11.215Zm-87.344,2.2H39.4l1.019-2.492H42.7l1.016,2.492h8.89v-1.9l.794,1.912h4.614l.793-1.94v1.933H80.9l-.011-4.09h.428c.3.011.387.039.387.541v3.549H93.13v-.952a8.955,8.955,0,0,0,4.243.952h4.806l1.029-2.492h2.281l1.006,2.492h9.263v-2.367l1.4,2.367h7.423V159.616h-7.347v1.848l-1.028-1.848H108.67v1.848l-.943-1.848H97.544a9.051,9.051,0,0,0-4.412.913v-.913H86.1v.913a4.312,4.312,0,0,0-2.986-.913H57.447l-1.722,4.04-1.769-4.04H45.869v1.848l-.889-1.848H38.086l-3.2,7.437-3.672,8.2Z" transform="translate(-31.21 -159.616)" fill="#2d78bc"/>
      <path id="Path_1236" data-name="Path 1236" d="M43.365,171.957l-1.811-4.471-1.8,4.471m43.483-1.781a2.415,2.415,0,0,1-1.308.232H78.715v-2.491h3.256a2.681,2.681,0,0,1,1.254.2,1.033,1.033,0,0,1,.554.993,1.149,1.149,0,0,1-.543,1.065m22.916,1.781-1.829-4.471-1.819,4.471ZM63.435,176.8H60.723l-.01-8.785L56.879,176.8H54.557L50.713,168V176.8H45.334l-1.016-2.5H38.813l-1.027,2.5H34.914l4.735-11.216h3.93l4.5,10.618V165.581h4.315l3.461,7.608,3.179-7.608h4.4V176.8Zm10.8,0H65.405V165.581h8.834v2.337H68.051v2.022h6.04v2.3h-6.04v2.237h6.189V176.8ZM86.694,168.6a3.157,3.157,0,0,1-1.864,2.988,3.065,3.065,0,0,1,1.308.946,3.249,3.249,0,0,1,.439,2.055v2.2H83.91l-.01-1.414a3.408,3.408,0,0,0-.418-2.186c-.387-.394-.975-.48-1.927-.48h-2.84v4.08H76.07V165.581h6.083a6.146,6.146,0,0,1,3.2.537,2.626,2.626,0,0,1,1.339,2.485m4.232,8.194h-2.7V165.582h2.7Zm31.3,0h-3.748l-5.012-8.418V176.8h-5.386l-1.028-2.5h-5.493l-1,2.5H97.467a5.509,5.509,0,0,1-3.834-1.241,5.688,5.688,0,0,1-1.413-4.281,6.008,6.008,0,0,1,1.426-4.384,5.319,5.319,0,0,1,4.016-1.309h2.559v2.4H97.715a2.524,2.524,0,0,0-2.034.665,3.742,3.742,0,0,0-.76,2.541,3.921,3.921,0,0,0,.728,2.633,2.521,2.521,0,0,0,1.842.579h1.187l3.727-8.819h3.963l4.477,10.608V165.582h4.027l4.648,7.81v-7.81h2.709V176.8ZM34.884,179H39.4l1.019-2.492H42.7L43.716,179h8.89v-1.9l.794,1.912h4.614l.793-1.94V179H80.9l-.011-4.09h.428c.3.011.387.039.387.541V179H93.13v-.952a8.955,8.955,0,0,0,4.243.952h4.806l1.029-2.492h2.281L106.495,179h9.263v-2.367l1.4,2.367h7.423V163.358h-7.347v1.848l-1.028-1.848H108.67v1.848l-.943-1.848H97.544a9.05,9.05,0,0,0-4.412.913v-.913H86.1v.913a4.312,4.312,0,0,0-2.986-.913H57.447l-1.722,4.04-1.769-4.04H45.869v1.848l-.889-1.848H38.086l-3.2,7.437L31.21,179Z" transform="translate(-31.21 -162.442)" fill="#fff"/>
      <path id="Path_1237" data-name="Path 1237" d="M198.906,244.572V237.4h-6.625a5.474,5.474,0,0,0-3.311.914V237.4h-7.242a4.962,4.962,0,0,0-3.159.914V237.4H165.634v.914a6.817,6.817,0,0,0-3.567-.914h-8.531v.914c-.814-.8-2.624-.914-3.728-.914h-9.547l-2.185,2.393L136.03,237.4H121.769v15.64h13.992l2.252-2.431,2.12,2.431,8.626.009v-3.68h.847a8.874,8.874,0,0,0,3.684-.55v4.22H160.4v-4.077h.344c.438,0,.48.019.48.462v3.616H182.84a6.123,6.123,0,0,0,3.6-1v1H193.3a9.085,9.085,0,0,0,3.88-.721V252.3a5.659,5.659,0,0,0,1.73-7.726Zm-49.182,2.5h-3.3v3.76h-5.142l-3.258-3.712-3.385,3.712h-10.48v-11.21H134.8l3.255,3.674,3.365-3.674h8.454c2.1,0,4.457.589,4.457,3.692S152.036,247.075,149.724,247.075Zm15.921-.508a3.3,3.3,0,0,1,.439,2.046v2.222h-2.655v-1.4a3.351,3.351,0,0,0-.429-2.195c-.388-.4-.975-.5-1.941-.5h-2.828v4.1h-2.657v-11.21h6.108a6.47,6.47,0,0,1,3.183.53,2.629,2.629,0,0,1,1.36,2.489,3.139,3.139,0,0,1-1.875,2.983A2.882,2.882,0,0,1,165.645,246.566Zm10.876-4.622h-6.2v2.038h6.045v2.287h-6.045V248.5l6.2.011v2.326h-8.83V239.625h8.83v2.319Zm6.737,8.892h-5.153v-2.4h5.133a1.531,1.531,0,0,0,1.081-.278,1,1,0,0,0,.312-.729.969.969,0,0,0-.323-.743,1.375,1.375,0,0,0-.942-.248c-2.474-.084-5.573.077-5.573-3.471,0-1.626,1.009-3.337,3.782-3.337h5.3v2.386h-4.853a1.783,1.783,0,0,0-1.061.2.946.946,0,0,0,.181,1.643,3.047,3.047,0,0,0,1.03.126l1.425.041a4.229,4.229,0,0,1,3.021.9,3.135,3.135,0,0,1,.79,2.373C187.415,249.709,185.928,250.836,183.258,250.836Zm13.617-1.083a4.472,4.472,0,0,1-3.288,1.083h-5.11v-2.4h5.088a1.482,1.482,0,0,0,1.072-.278.988.988,0,0,0,.312-.729.927.927,0,0,0-.323-.743,1.326,1.326,0,0,0-.932-.248c-2.484-.084-5.583.077-5.583-3.471,0-1.626,1.019-3.337,3.8-3.337h5.169v2.385h-4.72a1.825,1.825,0,0,0-1.071.2.875.875,0,0,0-.387.806.846.846,0,0,0,.579.836,2.968,2.968,0,0,0,1.019.127l1.434.039a4.137,4.137,0,0,1,3,.9,1.5,1.5,0,0,1,.247.277l-.091-.116a3.681,3.681,0,0,1-.213,4.669Zm-63.449-7.809,2.895,3.267L133.3,248.5h-6.506v-2.23H132.6v-2.287h-5.809v-2.037Zm6.3,3.3,4.063-4.42v8.987Zm11.765-1.931c0,.972-.633,1.48-1.65,1.48h-3.419v-2.854h3.451C150.828,241.944,151.492,242.337,151.492,243.318Zm11.807-.163a1.212,1.212,0,0,1-.549,1.075,2.5,2.5,0,0,1-1.305.231H158.23v-2.517h3.257a2.577,2.577,0,0,1,1.263.2A1.065,1.065,0,0,1,163.3,243.155Z" transform="translate(-99.599 -218.355)" fill="#2d78bc"/>
      <path id="Path_1238" data-name="Path 1238" d="M198.906,248.314v-7.176h-6.625a5.474,5.474,0,0,0-3.311.914v-.914h-7.242a4.963,4.963,0,0,0-3.159.914v-.914H165.634v.914a6.817,6.817,0,0,0-3.567-.914h-8.531v.914c-.814-.8-2.624-.914-3.728-.914h-9.547l-2.185,2.393-2.046-2.393H121.769v15.64h13.992l2.252-2.431,2.12,2.431,8.626.009v-3.68h.847a8.875,8.875,0,0,0,3.684-.55v4.22H160.4V252.7h.344c.438,0,.48.019.48.462v3.616H182.84a6.123,6.123,0,0,0,3.6-1v1H193.3a9.085,9.085,0,0,0,3.88-.721v-.016a5.659,5.659,0,0,0,1.73-7.726Zm-49.182,2.5h-3.3v3.76h-5.142l-3.258-3.712-3.385,3.712h-10.48v-11.21H134.8l3.255,3.674,3.365-3.674h8.454c2.1,0,4.457.589,4.457,3.692S152.036,250.817,149.724,250.817Zm15.921-.508a3.3,3.3,0,0,1,.439,2.046v2.222h-2.655v-1.4A3.351,3.351,0,0,0,163,250.98c-.388-.4-.975-.5-1.941-.5h-2.828v4.1h-2.657v-11.21h6.108a6.47,6.47,0,0,1,3.183.53,2.629,2.629,0,0,1,1.36,2.489,3.139,3.139,0,0,1-1.875,2.983A2.887,2.887,0,0,1,165.645,250.308Zm10.876-4.622h-6.2v2.038h6.045v2.287h-6.045v2.23l6.2.011v2.326h-8.83V243.366h8.83v2.32Zm6.737,8.892h-5.153v-2.4h5.133a1.531,1.531,0,0,0,1.081-.278,1,1,0,0,0,.312-.729.968.968,0,0,0-.323-.743,1.374,1.374,0,0,0-.942-.248c-2.474-.084-5.573.077-5.573-3.471,0-1.626,1.009-3.337,3.782-3.337h5.3v2.386h-4.853a1.783,1.783,0,0,0-1.061.2.946.946,0,0,0,.181,1.643,3.045,3.045,0,0,0,1.03.126l1.425.041a4.229,4.229,0,0,1,3.021.9,3.135,3.135,0,0,1,.79,2.373C187.415,253.451,185.928,254.578,183.258,254.578Zm13.617-1.083a4.472,4.472,0,0,1-3.288,1.083h-5.11v-2.4h5.088a1.482,1.482,0,0,0,1.072-.278.988.988,0,0,0,.312-.729.927.927,0,0,0-.323-.743,1.325,1.325,0,0,0-.932-.248c-2.484-.084-5.583.077-5.583-3.471,0-1.626,1.019-3.337,3.8-3.337h5.169v2.385h-4.72a1.825,1.825,0,0,0-1.071.2.875.875,0,0,0-.387.806.846.846,0,0,0,.579.836,2.97,2.97,0,0,0,1.019.127l1.434.039a4.137,4.137,0,0,1,3,.9,1.5,1.5,0,0,1,.247.277l-.091-.116a3.681,3.681,0,0,1-.213,4.669Zm-63.449-7.809,2.895,3.266-3.023,3.289h-6.506v-2.23H132.6v-2.287h-5.809v-2.037Zm6.3,3.3,4.063-4.42v8.987Zm11.765-1.931c0,.972-.633,1.48-1.65,1.48h-3.419v-2.854h3.451C150.828,245.686,151.492,246.079,151.492,247.06ZM163.3,246.9a1.212,1.212,0,0,1-.549,1.075,2.5,2.5,0,0,1-1.305.231H158.23v-2.517h3.257a2.576,2.576,0,0,1,1.263.2A1.065,1.065,0,0,1,163.3,246.9Z" transform="translate(-99.599 -221.181)" fill="#fff"/>
    </g>
  </g>
</svg>
