<svg xmlns="http://www.w3.org/2000/svg" xmlns:xlink="http://www.w3.org/1999/xlink" width="510.156" height="528.997" viewBox="0 0 510.156 528.997">
  <defs>
    <linearGradient id="linear-gradient" x1="-4.047" y1="0.5" x2="-3.047" y2="0.5" gradientUnits="objectBoundingBox">
      <stop offset="0" stop-color="#62177d"/>
      <stop offset="0.47" stop-color="#492090"/>
      <stop offset="1" stop-color="#292ba9"/>
    </linearGradient>
    <linearGradient id="linear-gradient-2" x1="0.913" y1="0.175" x2="-0.145" y2="0.797" gradientUnits="objectBoundingBox">
      <stop offset="0" stop-color="#f905f5"/>
      <stop offset="1" stop-color="#17c9f2"/>
    </linearGradient>
    <clipPath id="clip-path">
      <path id="Path_1165" data-name="Path 1165" d="M66.531,141.075,42.787,129.2a9.952,9.952,0,0,1-5.287-7.931V105.9c0-2.913,2.374-4.109,5.287-2.644l23.743,11.872a9.952,9.952,0,0,1,5.287,7.931v15.374C71.818,141.361,69.461,142.54,66.531,141.075Z" transform="translate(-37.5 -102.628)" fill="#fcaa37"/>
    </clipPath>
    <linearGradient id="linear-gradient-3" x1="1.292" y1="0.625" x2="-0.298" y2="0.373" gradientUnits="objectBoundingBox">
      <stop offset="0" stop-color="#6322b8"/>
      <stop offset="0.44" stop-color="#622cd1"/>
      <stop offset="1" stop-color="#603bf5"/>
    </linearGradient>
    <linearGradient id="linear-gradient-4" x1="1.161" y1="0" x2="-0.409" y2="0.899" xlink:href="#linear-gradient-2"/>
    <linearGradient id="linear-gradient-5" x1="0.479" y1="0.923" x2="0.52" y2="0.077" gradientUnits="objectBoundingBox">
      <stop offset="0" stop-color="#603bf5"/>
      <stop offset="0.56" stop-color="#622cd1"/>
      <stop offset="1" stop-color="#6322b8"/>
    </linearGradient>
    <linearGradient id="linear-gradient-6" x1="0.042" y1="-5.676" x2="0.946" y2="-6.076" xlink:href="#linear-gradient-3"/>
    <linearGradient id="linear-gradient-7" x1="0.435" y1="0.971" x2="0.565" y2="0.028" gradientUnits="objectBoundingBox">
      <stop offset="0" stop-color="#18994b"/>
      <stop offset="0.48" stop-color="#1c9f50"/>
      <stop offset="1" stop-color="#24ac5b"/>
    </linearGradient>
    <linearGradient id="linear-gradient-8" x1="0.435" y1="0.971" x2="0.565" y2="0.029" gradientUnits="objectBoundingBox">
      <stop offset="0" stop-color="#1ea353"/>
      <stop offset="0.48" stop-color="#22a958"/>
      <stop offset="1" stop-color="#2bb663"/>
    </linearGradient>
    <linearGradient id="linear-gradient-9" x1="0.435" y1="0.971" x2="0.565" y2="0.029" gradientUnits="objectBoundingBox">
      <stop offset="0" stop-color="#23ad5a"/>
      <stop offset="0.48" stop-color="#27b35f"/>
      <stop offset="1" stop-color="#31c06b"/>
    </linearGradient>
    <linearGradient id="linear-gradient-10" x1="0.435" y1="0.971" x2="0.565" y2="0.029" gradientUnits="objectBoundingBox">
      <stop offset="0" stop-color="#29b862"/>
      <stop offset="0.48" stop-color="#2ebe67"/>
      <stop offset="1" stop-color="#38cb73"/>
    </linearGradient>
    <linearGradient id="linear-gradient-11" x1="0.435" y1="0.971" x2="0.565" y2="0.029" gradientUnits="objectBoundingBox">
      <stop offset="0" stop-color="#2fc269"/>
      <stop offset="0.48" stop-color="#34c86e"/>
      <stop offset="1" stop-color="#3ed57b"/>
    </linearGradient>
    <linearGradient id="linear-gradient-12" x1="0.435" y1="0.971" x2="0.565" y2="0.029" gradientUnits="objectBoundingBox">
      <stop offset="0" stop-color="#34cc70"/>
      <stop offset="0.48" stop-color="#39d276"/>
      <stop offset="1" stop-color="#44df83"/>
    </linearGradient>
    <linearGradient id="linear-gradient-13" x1="0.435" y1="0.971" x2="0.565" y2="0.029" gradientUnits="objectBoundingBox">
      <stop offset="0" stop-color="#3ad678"/>
      <stop offset="0.48" stop-color="#3fdc7e"/>
      <stop offset="1" stop-color="#4be98b"/>
    </linearGradient>
    <linearGradient id="linear-gradient-14" x1="-5.77" y1="0.964" x2="-5.565" y2="0.034" gradientUnits="objectBoundingBox">
      <stop offset="0" stop-color="#abbcff"/>
      <stop offset="0.13" stop-color="#c0cdff"/>
      <stop offset="0.35" stop-color="#dbe3ff"/>
      <stop offset="0.56" stop-color="#eff2ff"/>
      <stop offset="0.78" stop-color="#fbfcff"/>
      <stop offset="1" stop-color="#fff"/>
    </linearGradient>
    <linearGradient id="linear-gradient-15" x1="-5.412" y1="0.964" x2="-5.208" y2="0.034" xlink:href="#linear-gradient-14"/>
  </defs>
  <g id="Telephone_Payments" data-name="Telephone Payments" transform="translate(-0.04 0.018)">
    <g id="Layer_2" data-name="Layer 2" transform="translate(0.04 -0.018)">
      <g id="Layer_1" data-name="Layer 1">
        <g id="Group_1372" data-name="Group 1372" transform="translate(0 229.125)" opacity="0.21">
          <path id="Path_1150" data-name="Path 1150" d="M120.262,258.891,2.187,199.8c-2.155-1.078-2.155-2.829,0-3.907l118.075-59.038a9.834,9.834,0,0,1,7.813,0L246.151,195.9c2.155,1.078,2.155,2.829,0,3.907L128.075,258.891A9.834,9.834,0,0,1,120.262,258.891ZM13.907,197.85l110.313,55.131L234.481,197.85,124.219,142.7Z" transform="translate(0.322 -136.049)" fill="#fff"/>
          <path id="Path_1151" data-name="Path 1151" d="M189.626,293.511,71.517,234.473c-2.155-1.078-2.155-2.829,0-3.907l118.109-59.038a9.834,9.834,0,0,1,7.813,0l118.075,59.038c2.155,1.078,2.155,2.829,0,3.907L197.439,293.511A9.834,9.834,0,0,1,189.626,293.511ZM83.253,232.52l110.262,55.131L303.778,232.52,193.515,177.389Z" transform="translate(47.738 -112.338)" fill="#fff"/>
          <path id="Path_1152" data-name="Path 1152" d="M119.665,328.884,1.657,269.813c-2.155-1.078-2.155-2.829,0-3.907l118.075-59.038a9.834,9.834,0,0,1,7.813,0l118.075,59.038c2.155,1.078,2.155,2.829,0,3.907L127.495,328.884A9.834,9.834,0,0,1,119.665,328.884ZM13.309,267.86l110.262,55.131L233.833,267.86,123.571,212.695Z" transform="translate(-0.04 -88.169)" fill="#fff"/>
          <path id="Path_1153" data-name="Path 1153" d="M189.032,363.521,70.957,304.483c-2.155-1.078-2.155-2.829,0-3.907l118.075-59.038a9.834,9.834,0,0,1,7.813,0l118.075,59.038c2.155,1.078,2.155,2.829,0,3.907L196.845,363.521a9.834,9.834,0,0,1-7.813,0ZM82.677,302.53l110.262,55.131L303.2,302.53,192.939,247.4Z" transform="translate(47.355 -64.458)" fill="#fff"/>
        </g>
        <path id="Path_1154" data-name="Path 1154" d="M212.238,285.321,43.629,197.337c-6.736-3.368-12.074-11.451-12.074-18.119L27.8,81c0-6.736,9.16-10.541,15.829-7.207l171.859,85.879c6.736,3.368,12.074,11.451,12.074,18.119v99.35C227.562,283.923,218.923,288.655,212.238,285.321Z" transform="translate(18.945 49.655)" fill="url(#linear-gradient)"/>
        <path id="Path_1155" data-name="Path 1155" d="M211.662,284.415,39.9,198.469C33.168,195.1,27.83,187.018,27.83,180.35V81c0-6.736,5.405-9.379,12.074-6.045l171.758,85.93c6.736,3.368,12.074,11.451,12.074,18.119v99.35C223.769,285.038,218.4,287.749,211.662,284.415Z" transform="translate(18.966 50.308)" fill="url(#linear-gradient-2)"/>
        <path id="Path_1156" data-name="Path 1156" d="M66.531,141.075,42.787,129.2a9.952,9.952,0,0,1-5.287-7.931V105.9c0-2.913,2.374-4.109,5.287-2.644l23.743,11.872a9.952,9.952,0,0,1,5.287,7.931v15.374C71.818,141.361,69.461,142.54,66.531,141.075Z" transform="translate(25.579 70.218)" fill="#fcaa37"/>
        <g id="Group_1373" data-name="Group 1373" transform="translate(63.079 172.847)" clip-path="url(#clip-path)">
          <path id="Path_1157" data-name="Path 1157" d="M42.405,137.719l-.505-.253V101.33l.505.253Z" transform="translate(-34.491 -103.516)" fill="#8c5e1f"/>
          <path id="Path_1158" data-name="Path 1158" d="M56.727,115.077,20.59,97.008V96.52l36.137,18.068Z" transform="translate(-49.065 -106.805)" fill="#8c5e1f"/>
          <path id="Path_1159" data-name="Path 1159" d="M56.727,122.107,20.59,104.038v-.488l36.137,18.068Z" transform="translate(-49.065 -101.998)" fill="#8c5e1f"/>
          <path id="Path_1160" data-name="Path 1160" d="M89.987,131.707,53.85,113.638v-.488l36.137,18.068Z" transform="translate(-26.318 -95.432)" fill="#8c5e1f"/>
          <path id="Path_1161" data-name="Path 1161" d="M55.48,114.22l-10.71-5.355v-.505l10.71,5.355Z" transform="translate(-32.528 -98.708)" fill="#8c5e1f"/>
          <path id="Path_1162" data-name="Path 1162" d="M55.48,121.86l-10.71-5.355V116l10.71,5.355Z" transform="translate(-32.528 -93.483)" fill="#8c5e1f"/>
          <path id="Path_1163" data-name="Path 1163" d="M89.987,138.737,53.85,120.668v-.488l36.137,18.068Z" transform="translate(-26.318 -90.624)" fill="#8c5e1f"/>
          <path id="Path_1164" data-name="Path 1164" d="M54.188,143.619l-.488-.253V107.23l.488.253Z" transform="translate(-26.421 -99.481)" fill="#8c5e1f"/>
        </g>
        <path id="Path_1166" data-name="Path 1166" d="M90.043,120.231a9.194,9.194,0,0,1-3.519-1.128A11.484,11.484,0,0,1,79.94,109c0-4.176,2.829-5.574,6.955-3.519a12.225,12.225,0,0,1,3.25,2.256l-.421,1.2a10.778,10.778,0,0,0-2.694-1.9c-3.115-1.566-5.2-.606-5.2,2.9a8.874,8.874,0,0,0,5.052,7.914,7.342,7.342,0,0,0,2.812.859Z" transform="translate(54.604 71.529)" fill="#fff"/>
        <path id="Path_1167" data-name="Path 1167" d="M87.15,112.051V109.02l1.516.758v1.9h0a1.684,1.684,0,0,1,2.644-.775,3.033,3.033,0,0,1,.488.3v1.684a4.124,4.124,0,0,0-.589-.354,1.448,1.448,0,0,0-2.341,1.061,4.245,4.245,0,0,0,0,.775v5.052l-1.684-.859Z" transform="translate(59.535 74.59)" fill="#fff"/>
        <path id="Path_1168" data-name="Path 1168" d="M92.12,116.019a5.658,5.658,0,0,0,3.284,4.968,6.735,6.735,0,0,0,2.644.825l.3,1.4a8.268,8.268,0,0,1-3.183-.993,8.167,8.167,0,0,1-4.7-7.173c0-2.879,1.684-4.311,4.479-2.913a7.342,7.342,0,0,1,3.957,6.483,5.947,5.947,0,0,1,0,.775Zm5.052,1.313a4.446,4.446,0,0,0-2.408-4.041c-1.684-.876-2.526.354-2.661,1.5Z" transform="translate(61.805 76.347)" fill="#fff"/>
        <path id="Path_1169" data-name="Path 1169" d="M105.285,113.992v14.061l-1.566-.775v-1.684h0c-.539.791-1.684,1.027-3.267.253a7.982,7.982,0,0,1-4.092-6.9c0-3.2,1.953-4.159,4.294-3a6.264,6.264,0,0,1,2.879,2.913h0V113.15Zm-1.684,7.493a3.586,3.586,0,0,0,0-.775,5.052,5.052,0,0,0-2.509-3.267c-1.8-.892-2.863.152-2.863,2.256a5.49,5.49,0,0,0,2.694,4.984c1.162.589,2.24.354,2.543-.808a2.594,2.594,0,0,0,0-.707Z" transform="translate(65.834 77.414)" fill="#fff"/>
        <path id="Path_1170" data-name="Path 1170" d="M105.405,116.86c0,.606-.421.859-1.111.505a1.936,1.936,0,0,1-1.044-1.6c0-.606.455-.859,1.095-.539a1.92,1.92,0,0,1,1.061,1.633Zm-1.937,11.282v-9.565l1.684.876v9.565Z" transform="translate(70.546 78.739)" fill="#fff"/>
        <path id="Path_1171" data-name="Path 1171" d="M108.7,117.708v2.745l2.492,1.246v1.33l-2.492-1.246v5.136a2.475,2.475,0,0,0,1.3,2.509,4.448,4.448,0,0,0,1.01.387v1.347a4.8,4.8,0,0,1-1.549-.539,4.563,4.563,0,0,1-1.869-1.684,5.052,5.052,0,0,1-.674-2.829v-5.22l-1.482-.741v-1.33l1.482.741v-2.29Z" transform="translate(72.037 80.232)" fill="#fff"/>
        <path id="Path_1172" data-name="Path 1172" d="M122.163,136.3a9.211,9.211,0,0,1-3.519-1.128,11.484,11.484,0,0,1-6.584-10.1c0-4.176,2.829-5.574,6.955-3.519a12.224,12.224,0,0,1,3.166,2.172l-.421,1.2a10.794,10.794,0,0,0-2.694-1.9c-3.115-1.566-5.2-.606-5.2,2.9a8.874,8.874,0,0,0,5.052,7.914,7.343,7.343,0,0,0,2.812.859Z" transform="translate(76.571 82.519)" fill="#fff"/>
        <path id="Path_1173" data-name="Path 1173" d="M124.8,137.063l-.135-1.28h0a2.593,2.593,0,0,1-2.93,0,5.052,5.052,0,0,1-2.93-4.21c0-2.307,2.054-2.543,5.759-.674v-.2a3.536,3.536,0,0,0-2.172-3.368,4.5,4.5,0,0,0-2.492-.539l-.387-1.347a5.709,5.709,0,0,1,3.149.724,6.1,6.1,0,0,1,3.637,5.725v3.57a14.924,14.924,0,0,0,.152,2.374Zm-.253-5.052c-1.9-.993-4.058-1.684-4.058.118a2.846,2.846,0,0,0,1.684,2.475c1.246.623,2.038.236,2.307-.438a1.363,1.363,0,0,0,.1-.505Z" transform="translate(81.187 85.815)" fill="#fff"/>
        <path id="Path_1174" data-name="Path 1174" d="M124.88,130.921V127.89l1.516.758v1.9h0a1.684,1.684,0,0,1,2.644-.775,3.014,3.014,0,0,1,.488.3v1.684a4.01,4.01,0,0,0-.589-.354,1.448,1.448,0,0,0-2.341,1.061,4.229,4.229,0,0,0,0,.775V138.3l-1.684-.859Z" transform="translate(85.339 87.495)" fill="#fff"/>
        <path id="Path_1175" data-name="Path 1175" d="M137.135,129.929v14.061l-1.566-.775v-1.684h0c-.539.791-1.684,1.027-3.267.253a7.982,7.982,0,0,1-4.092-6.9c0-3.2,1.953-4.159,4.294-3a6.247,6.247,0,0,1,2.88,2.9h0V129.07Zm-1.684,7.493a3.584,3.584,0,0,0,0-.775,5.052,5.052,0,0,0-2.509-3.267c-1.8-.892-2.863.152-2.863,2.256a5.49,5.49,0,0,0,2.829,4.951c1.162.589,2.24.354,2.543-.791a2.594,2.594,0,0,0,0-.707Z" transform="translate(87.616 88.302)" fill="#fff"/>
        <path id="Path_1176" data-name="Path 1176" d="M43.665,149.608a7.9,7.9,0,0,1-3.014-.96,9.834,9.834,0,0,1-5.641-8.588c0-3.57,2.425-4.782,5.961-3.014a10.523,10.523,0,0,1,2.711,1.869l-.354,1.027a9.278,9.278,0,0,0-2.307-1.684c-2.677-1.33-4.445-.522-4.445,2.475a7.594,7.594,0,0,0,4.378,6.736,6.264,6.264,0,0,0,2.408.724Z" transform="translate(23.876 93.208)" fill="#fff"/>
        <path id="Path_1177" data-name="Path 1177" d="M45.926,150.275l-.118-1.095h0a2.223,2.223,0,0,1-2.509,0,4.361,4.361,0,0,1-2.509-3.6c0-1.987,1.684-2.189,4.917-.589V144.8a3.031,3.031,0,0,0-1.869-2.829,3.839,3.839,0,0,0-2.139-.455l-.337-1.145a4.866,4.866,0,0,1,2.694.623,5.22,5.22,0,0,1,3.115,4.917v3.065a12.95,12.95,0,0,0,.135,2.038Zm-.219-4.294c-1.684-.842-3.469-1.482-3.469.118a2.442,2.442,0,0,0,1.4,2.122c1.061.539,1.684.2,1.987-.387a1.178,1.178,0,0,0,0-.438Z" transform="translate(27.829 96.027)" fill="#fff"/>
        <path id="Path_1178" data-name="Path 1178" d="M46,145.053V142.46l1.3.657V144.8h0a1.5,1.5,0,0,1,2.273-.657,2.458,2.458,0,0,1,.421.269v1.4a3.569,3.569,0,0,0-.505-.3,1.246,1.246,0,0,0-2,.909,3.569,3.569,0,0,0,0,.657v4.361L46,150.694Z" transform="translate(31.392 97.46)" fill="#fff"/>
        <path id="Path_1179" data-name="Path 1179" d="M56.478,144.181v12.057l-1.33-.674V154.1h0c-.455.69-1.448.876-2.8.219a6.854,6.854,0,0,1-3.5-5.91c0-2.728,1.684-3.57,3.671-2.56A5.372,5.372,0,0,1,55,148.34h0v-4.9ZM55,150.6a3.116,3.116,0,0,0,0-.657,4.277,4.277,0,0,0-2.155-2.8c-1.549-.775-2.458.118-2.458,1.936a4.7,4.7,0,0,0,2.425,4.243c.994.505,1.92.3,2.189-.69a2.223,2.223,0,0,0,0-.606Z" transform="translate(33.341 98.13)" fill="#fff"/>
        <path id="Path_1180" data-name="Path 1180" d="M58.475,146.77v4.782L64,154.365v-4.782l1.482.741V161.74L64,161v-5.355l-5.523-2.762v5.355L57.01,157.5V146.08Z" transform="translate(38.922 99.935)" fill="#fff"/>
        <path id="Path_1181" data-name="Path 1181" d="M71.179,158.546c0,3.031-2.1,3.368-4.075,2.307a7.207,7.207,0,0,1-3.923-6.18c0-2.745,1.8-3.452,4.058-2.324A7.157,7.157,0,0,1,71.179,158.546Zm-6.5-3.166a5.052,5.052,0,0,0,2.492,4.4c1.414.707,2.492-.084,2.492-1.937A5.052,5.052,0,0,0,67.2,153.46C65.436,152.585,64.679,153.8,64.679,155.38Z" transform="translate(43.142 103.871)" fill="#fff"/>
        <path id="Path_1182" data-name="Path 1182" d="M69,151.72l1.482.741v12.023L69,163.743Z" transform="translate(47.122 103.793)" fill="#fff"/>
        <path id="Path_1183" data-name="Path 1183" d="M78.718,155.3v12.057l-1.33-.674v-1.465h0c-.455.69-1.448.876-2.8.219a6.854,6.854,0,0,1-3.5-5.91c0-2.728,1.684-3.57,3.671-2.56a5.372,5.372,0,0,1,2.475,2.492h0v-4.9Zm-1.482,6.416a3.1,3.1,0,0,0,0-.657,4.277,4.277,0,0,0-2.155-2.8c-1.549-.775-2.459.118-2.459,1.936a4.715,4.715,0,0,0,2.425,4.243c.993.505,1.92.3,2.189-.69a2.24,2.24,0,0,0,0-.606Z" transform="translate(48.551 105.735)" fill="#fff"/>
        <path id="Path_1184" data-name="Path 1184" d="M78.154,162.4a4.85,4.85,0,0,0,2.812,4.243,5.758,5.758,0,0,0,2.273.707l.253,1.2a7.1,7.1,0,0,1-2.728-.859,7,7,0,0,1-4.025-6.146c0-2.475,1.448-3.688,3.839-2.492a6.281,6.281,0,0,1,3.368,5.557,4.9,4.9,0,0,1,0,.674Zm4.361,1.111a3.806,3.806,0,0,0-2.071-3.452c-1.5-.758-2.172.3-2.29,1.28Z" transform="translate(52.415 108.487)" fill="#fff"/>
        <path id="Path_1185" data-name="Path 1185" d="M82.13,163.053V160.46l1.3.657V162.8h0a1.5,1.5,0,0,1,2.273-.657,2.559,2.559,0,0,1,.421.269v1.4a3.583,3.583,0,0,0-.505-.3,1.246,1.246,0,0,0-2,.909,3.555,3.555,0,0,0,0,.657v4.361l-1.465-.741Z" transform="translate(56.102 109.77)" fill="#fff"/>
        <path id="Path_1186" data-name="Path 1186" d="M41.841,124.259h-1.8l-.269-1.179h2.273l1.2.606v10.1l-1.4-.741Z" transform="translate(27.132 84.206)" fill="#333"/>
        <path id="Path_1187" data-name="Path 1187" d="M44,134.309v-.842l1.111-.488c2.661-1.128,3.856-1.835,3.873-3.368a3.368,3.368,0,0,0-2-2.981,2.93,2.93,0,0,0-2.206-.253l-.455-1.2a4.008,4.008,0,0,1,2.947.455,5.355,5.355,0,0,1,3.183,4.53c0,1.869-1.4,2.677-3.587,3.637l-.825.337h0l4.7,2.357v1.128Z" transform="translate(30.024 85.572)" fill="#333"/>
        <path id="Path_1188" data-name="Path 1188" d="M49.27,135.4a8.723,8.723,0,0,0,2.307,1.785c1.8.909,2.374,0,2.357-.791a4.361,4.361,0,0,0-2.694-3.368l-.791-.387v-1.027l.791.387c1.027.505,2.324.64,2.324-.556A2.879,2.879,0,0,0,51.746,129a3.469,3.469,0,0,0-2.088-.37l-.37-1.179a4.7,4.7,0,0,1,2.728.589A4.8,4.8,0,0,1,55,131.944c0,1.044-.64,1.684-1.92,1.414h0a5.052,5.052,0,0,1,2.324,3.755c0,1.684-1.3,2.391-3.789,1.145a9.682,9.682,0,0,1-2.711-2.038Z" transform="translate(33.376 87.18)" fill="#333"/>
        <path id="Path_1189" data-name="Path 1189" d="M58.343,140.888v-2.762L53.51,135.7v-.909l4.648-4.142,1.516.758v6.281l1.448.724v1.078l-1.448-.724v2.762Zm0-3.822v-4.934h0a12.9,12.9,0,0,1-.859,1.061l-2.543,2.172h0Z" transform="translate(36.528 89.383)" fill="#333"/>
        <path id="Path_1190" data-name="Path 1190" d="M70.978,138.87l-4.041-1.987-.4,2.391a7.455,7.455,0,0,1,.842.37,7.9,7.9,0,0,1,2.24,1.684A5.052,5.052,0,0,1,71.1,144.7c0,1.97-1.684,2.644-3.873,1.516a9.212,9.212,0,0,1-2.593-1.92l.354-.859a8.421,8.421,0,0,0,2.223,1.684c1.33.657,2.458.387,2.458-.96a4.513,4.513,0,0,0-3-3.738,14.006,14.006,0,0,0-1.448-.606l.674-4.513,5.052,2.492Z" transform="translate(44.133 92.563)" fill="#333"/>
        <path id="Path_1191" data-name="Path 1191" d="M75.635,140.477a6.971,6.971,0,0,0-1.061-.471c-2.206-.741-3.368.236-3.62,1.785h0a2.341,2.341,0,0,1,2.509.084,5.624,5.624,0,0,1,3.132,4.833c0,1.852-1.3,2.913-3.452,1.835a6.87,6.87,0,0,1-3.688-6.146,3.738,3.738,0,0,1,1.684-3.671,4.361,4.361,0,0,1,3.368.168,8.7,8.7,0,0,1,1.027.438Zm-.4,5.624a3.806,3.806,0,0,0-2.139-3.368,1.532,1.532,0,0,0-2.021.236.774.774,0,0,0-.152.522,4.5,4.5,0,0,0,2.29,4.041C74.423,148.139,75.231,147.566,75.231,146.1Z" transform="translate(47.408 94.728)" fill="#333"/>
        <path id="Path_1192" data-name="Path 1192" d="M81.124,143.1v.909l-4.53,6.955-1.465-.724,4.513-6.736h0l-5.052-2.543V139.83Z" transform="translate(50.945 95.661)" fill="#333"/>
        <path id="Path_1193" data-name="Path 1193" d="M79.26,149.234c0-1.28.791-1.785,2.071-1.684h0a4.58,4.58,0,0,1-1.684-3.1c0-1.684,1.4-1.987,3.216-1.078a5.052,5.052,0,0,1,3.031,4.008c0,.859-.438,1.566-1.684,1.516h0a5.271,5.271,0,0,1,2.088,3.671c0,1.684-1.549,2.172-3.536,1.179a5.776,5.776,0,0,1-3.5-4.513Zm5.607,2.745c0-1.229-.876-2.256-2.29-3.368-1.212-.269-1.869.185-1.869,1.145A3.536,3.536,0,0,0,82.8,152.72c1.246.64,2.054.286,2.054-.758Zm-3.873-6.988c0,1.01.791,1.953,1.987,2.863.892.152,1.583-.118,1.583-1.044a2.947,2.947,0,0,0-1.684-2.526c-1.246-.606-1.9-.185-1.9.69Z" transform="translate(54.139 97.741)" fill="#333"/>
        <path id="Path_1194" data-name="Path 1194" d="M91.068,156.753a8.118,8.118,0,0,0,1.145.522,3.031,3.031,0,0,0,2.172.1,2.357,2.357,0,0,0,1.381-2h0a2.374,2.374,0,0,1-2.442-.135,5.523,5.523,0,0,1-3.065-4.631c0-1.92,1.431-2.879,3.553-1.819a6.584,6.584,0,0,1,3.368,5.978c0,2.223-.775,3.368-1.785,3.856a4.041,4.041,0,0,1-3.031-.152,8.773,8.773,0,0,1-1.3-.573Zm.438-5.624a3.637,3.637,0,0,0,2,3.149c.943.471,1.684.387,2.054,0a.606.606,0,0,0,.135-.438,4.378,4.378,0,0,0-2.122-4.109C92.415,149.159,91.506,149.748,91.506,151.129Z" transform="translate(61.662 101.487)" fill="#333"/>
        <path id="Path_1195" data-name="Path 1195" d="M102.068,158.007c0,3.368-1.313,4.681-3.62,3.536-2.038-1.01-3.368-3.553-3.368-6.921s1.5-4.513,3.62-3.368A7.207,7.207,0,0,1,102.068,158.007Zm-5.641-2.677c0,2.627.825,4.547,2.1,5.186s2.122-.573,2.122-3.149-.657-4.445-2.1-5.186-2.122.4-2.122,3.166Z" transform="translate(64.958 103.18)" fill="#333"/>
        <path id="Path_1196" data-name="Path 1196" d="M106.948,160.447c0,3.368-1.313,4.681-3.62,3.536-2.038-1.01-3.368-3.553-3.368-6.921s1.5-4.513,3.62-3.368A7.207,7.207,0,0,1,106.948,160.447Zm-5.658-2.677c0,2.627.825,4.547,2.1,5.186s2.122-.573,2.122-3.149-.657-4.446-2.1-5.186-2.122.4-2.122,3.166Z" transform="translate(68.296 104.849)" fill="#333"/>
        <path id="Path_1197" data-name="Path 1197" d="M111.838,162.917c0,3.368-1.313,4.681-3.62,3.536-2.038-1.01-3.368-3.553-3.368-6.921s1.5-4.513,3.62-3.368a7.207,7.207,0,0,1,3.368,6.752ZM106.2,160.24c0,2.627.825,4.547,2.1,5.186s2.122-.573,2.122-3.149-.657-4.445-2.1-5.186-2.155.354-2.155,3.1Z" transform="translate(71.64 106.538)" fill="#333"/>
        <path id="Path_1198" data-name="Path 1198" d="M122.738,168.347c0,3.368-1.313,4.681-3.62,3.536-2.038-1.01-3.368-3.553-3.368-6.921s1.5-4.513,3.62-3.368a7.207,7.207,0,0,1,3.368,6.752ZM117.1,165.67c0,2.627.825,4.547,2.1,5.186s2.122-.573,2.122-3.149-.657-4.445-2.1-5.186S117.1,162.925,117.1,165.67Z" transform="translate(79.095 110.252)" fill="#333"/>
        <path id="Path_1199" data-name="Path 1199" d="M127.618,170.787c0,3.368-1.313,4.681-3.62,3.536-2.038-1.01-3.368-3.553-3.368-6.921s1.5-4.513,3.62-3.368a7.207,7.207,0,0,1,3.368,6.752Zm-5.641-2.677c0,2.627.825,4.547,2.1,5.186s2.122-.573,2.122-3.149-.657-4.446-2.1-5.186-2.139.4-2.139,3.149Z" transform="translate(82.432 111.92)" fill="#333"/>
        <path id="Path_1200" data-name="Path 1200" d="M132.488,173.227c0,3.368-1.313,4.681-3.62,3.536-2.038-1.01-3.368-3.553-3.368-6.921s1.5-4.513,3.62-3.368A7.207,7.207,0,0,1,132.488,173.227Zm-5.658-2.677c0,2.627.825,4.547,2.1,5.186s2.122-.573,2.122-3.149-.657-4.446-2.1-5.186-2.1.387-2.1,3.149Z" transform="translate(85.763 113.589)" fill="#333"/>
        <path id="Path_1201" data-name="Path 1201" d="M137.368,175.657c0,3.368-1.313,4.681-3.62,3.536-2.038-1.01-3.368-3.553-3.368-6.921s1.5-4.513,3.62-3.368A7.207,7.207,0,0,1,137.368,175.657Zm-5.641-2.677c0,2.627.825,4.547,2.1,5.186s2.122-.573,2.122-3.149-.657-4.446-2.1-5.186-2.139.4-2.139,3.166Z" transform="translate(89.1 115.251)" fill="#333"/>
        <path id="Path_1202" data-name="Path 1202" d="M42.031,124.479h-1.8L39.96,123.3h2.273l1.2.606v10.1l-1.364-.674Z" transform="translate(27.261 84.356)" fill="#fff"/>
        <path id="Path_1203" data-name="Path 1203" d="M44.25,134.526v-.842l1.111-.488c2.661-1.128,3.856-1.835,3.873-3.368a3.368,3.368,0,0,0-2.038-3,2.93,2.93,0,0,0-2.206-.253l-.455-1.2a4.008,4.008,0,0,1,2.947.455,5.355,5.355,0,0,1,3.082,4.53c0,1.869-1.4,2.677-3.587,3.637l-.825.337h0l4.681,2.341v1.128Z" transform="translate(30.195 85.709)" fill="#fff"/>
        <path id="Path_1204" data-name="Path 1204" d="M49.443,135.606a8.723,8.723,0,0,0,2.307,1.785c1.8.909,2.374,0,2.357-.791a4.361,4.361,0,0,0-2.694-3.368l-.791-.387v-1.027l.791.387c1.027.505,2.324.64,2.324-.556a2.879,2.879,0,0,0-1.819-2.442,3.469,3.469,0,0,0-2.088-.37l-.37-1.179a4.7,4.7,0,0,1,2.728.589,4.8,4.8,0,0,1,2.98,3.907c0,1.044-.64,1.684-1.92,1.414h0a5.052,5.052,0,0,1,2.391,3.806c0,1.684-1.3,2.391-3.789,1.145a9.683,9.683,0,0,1-2.711-2.038Z" transform="translate(33.54 87.324)" fill="#fff"/>
        <path id="Path_1205" data-name="Path 1205" d="M58.553,141.1v-2.762l-4.833-2.425V135l4.648-4.142,1.516.758V137.9l1.448.724V139.7l-1.448-.724v2.762Zm0-3.822v-4.934h0a12.9,12.9,0,0,1-.859,1.061l-2.543,2.172h0Z" transform="translate(36.672 89.526)" fill="#fff"/>
        <path id="Path_1206" data-name="Path 1206" d="M71.168,139.08l-3.974-1.987-.421,2.391a7.492,7.492,0,0,1,.842.37,7.9,7.9,0,0,1,2.24,1.684,5.052,5.052,0,0,1,1.482,3.368c0,1.97-1.684,2.644-3.873,1.515a9.212,9.212,0,0,1-2.593-1.92l.354-.859a8.421,8.421,0,0,0,2.223,1.684c1.33.657,2.458.387,2.458-.96a4.513,4.513,0,0,0-3-3.738,13.966,13.966,0,0,0-1.448-.606l.674-4.513L71.185,138Z" transform="translate(44.298 92.707)" fill="#fff"/>
        <path id="Path_1207" data-name="Path 1207" d="M75.818,140.693a6.955,6.955,0,0,0-1.061-.471c-2.206-.741-3.368.236-3.62,1.785h0a2.341,2.341,0,0,1,2.509.084,5.624,5.624,0,0,1,3.132,4.833c0,1.852-1.3,2.913-3.452,1.835a6.87,6.87,0,0,1-3.62-6.163,3.738,3.738,0,0,1,1.684-3.671,4.378,4.378,0,0,1,3.368.168,8.706,8.706,0,0,1,1.027.438Zm-.4,5.641a3.806,3.806,0,0,0-2.139-3.368,1.532,1.532,0,0,0-2.021.236.775.775,0,0,0-.152.522,4.5,4.5,0,0,0,2.29,4.041C74.605,148.355,75.413,147.782,75.413,146.334Z" transform="translate(47.579 94.865)" fill="#fff"/>
        <path id="Path_1208" data-name="Path 1208" d="M81.327,143.368v.909l-4.513,6.9-1.465-.724,4.513-6.736h0l-5.052-2.543V140Z" transform="translate(51.096 95.777)" fill="#fff"/>
        <path id="Path_1209" data-name="Path 1209" d="M79.47,149.437c0-1.28.791-1.785,2.071-1.684h0a4.58,4.58,0,0,1-1.684-3.1c0-1.684,1.4-2,3.216-1.078a5.052,5.052,0,0,1,3.031,4.008,1.409,1.409,0,0,1-1.684,1.516h0a5.271,5.271,0,0,1,2.088,3.671c0,1.684-1.549,2.172-3.536,1.179A5.776,5.776,0,0,1,79.47,149.437Zm5.607,2.745c0-1.229-.876-2.256-2.29-3.368-1.212-.269-1.869.185-1.869,1.145a3.536,3.536,0,0,0,2.088,2.964c1.246.657,2.054.3,2.054-.741ZM81.2,145.194c0,1.01.791,1.953,1.987,2.863.892.152,1.583-.118,1.583-1.044a2.947,2.947,0,0,0-1.684-2.526c-1.263-.589-1.9-.168-1.9.707Z" transform="translate(54.283 97.875)" fill="#fff"/>
        <path id="Path_1210" data-name="Path 1210" d="M91.278,156.963a8.1,8.1,0,0,0,1.145.522,3.031,3.031,0,0,0,2.172.1,2.357,2.357,0,0,0,1.381-2h0a2.374,2.374,0,0,1-2.442-.135,5.523,5.523,0,0,1-3.065-4.631c0-1.92,1.431-2.88,3.553-1.819a6.584,6.584,0,0,1,3.368,5.978c0,2.223-.775,3.368-1.785,3.856a4.041,4.041,0,0,1-3.031-.152,8.77,8.77,0,0,1-1.3-.573Zm.505-5.557a3.637,3.637,0,0,0,2,3.149c.943.471,1.684.387,2.054,0a.606.606,0,0,0,.135-.438,4.378,4.378,0,0,0-2.122-4.109c-1.229-.707-2.071-.05-2.071,1.381Z" transform="translate(61.805 101.631)" fill="#fff"/>
        <path id="Path_1211" data-name="Path 1211" d="M102.278,158.217c0,3.368-1.313,4.681-3.62,3.536-2.038-1.01-3.368-3.553-3.368-6.921s1.5-4.513,3.62-3.368A7.207,7.207,0,0,1,102.278,158.217Zm-5.641-2.677c0,2.627.825,4.547,2.1,5.186s2.122-.573,2.122-3.149-.657-4.445-2.1-5.186-2.122.4-2.122,3.166Z" transform="translate(65.102 103.324)" fill="#fff"/>
        <path id="Path_1212" data-name="Path 1212" d="M107.158,160.657c0,3.368-1.313,4.681-3.62,3.536-2.038-1.01-3.368-3.553-3.368-6.921s1.5-4.513,3.62-3.368A7.207,7.207,0,0,1,107.158,160.657Zm-5.591-2.677c0,2.627.825,4.547,2.1,5.186s2.122-.573,2.122-3.149-.657-4.445-2.1-5.186S101.568,155.235,101.568,157.98Z" transform="translate(68.439 104.992)" fill="#fff"/>
        <path id="Path_1213" data-name="Path 1213" d="M112.028,163.1c0,3.368-1.313,4.681-3.62,3.536-2.038-1.01-3.368-3.553-3.368-6.921s1.5-4.513,3.62-3.368a7.207,7.207,0,0,1,3.368,6.752Zm-5.641-2.677c0,2.627.825,4.547,2.1,5.186s2.122-.573,2.122-3.149-.657-4.445-2.1-5.186S106.387,157.742,106.387,160.42Z" transform="translate(71.77 106.661)" fill="#fff"/>
        <path id="Path_1214" data-name="Path 1214" d="M122.948,168.557c0,3.368-1.313,4.681-3.62,3.536-2.038-1.01-3.368-3.553-3.368-6.921s1.5-4.513,3.62-3.368a7.207,7.207,0,0,1,3.368,6.752Zm-5.641-2.677c0,2.627.825,4.547,2.1,5.186s2.122-.573,2.122-3.149-.657-4.446-2.1-5.186S117.307,163.135,117.307,165.88Z" transform="translate(79.238 110.395)" fill="#fff"/>
        <path id="Path_1215" data-name="Path 1215" d="M127.838,171c0,3.368-1.313,4.681-3.62,3.536-2.038-1.01-3.368-3.553-3.368-6.921s1.5-4.513,3.62-3.368A7.207,7.207,0,0,1,127.838,171ZM122.2,168.32c0,2.627.825,4.547,2.1,5.186s2.122-.573,2.122-3.149-.657-4.446-2.1-5.186-2.155.387-2.155,3.149Z" transform="translate(82.582 112.064)" fill="#fff"/>
        <path id="Path_1216" data-name="Path 1216" d="M132.7,173.427c0,3.368-1.313,4.681-3.62,3.536-2.038-1.01-3.368-3.553-3.368-6.921s1.5-4.513,3.62-3.368a7.207,7.207,0,0,1,3.368,6.752Zm-5.658-2.677c0,2.627.825,4.547,2.1,5.186s2.122-.573,2.122-3.149-.657-4.446-2.1-5.186-2.1.4-2.1,3.166Z" transform="translate(85.906 113.726)" fill="#fff"/>
        <path id="Path_1217" data-name="Path 1217" d="M137.568,175.917c0,3.368-1.313,4.681-3.62,3.536-2.038-1.01-3.368-3.553-3.368-6.921s1.5-4.513,3.62-3.368A7.207,7.207,0,0,1,137.568,175.917Zm-5.641-2.677c0,2.627.825,4.547,2.1,5.186s2.122-.573,2.122-3.149-.657-4.446-2.1-5.186-2.122.32-2.122,3.082Z" transform="translate(89.237 115.429)" fill="#fff"/>
        <path id="Path_1218" data-name="Path 1218" d="M35.54,81.11a20.813,20.813,0,0,1,3.149,1.3,9.851,9.851,0,0,1,3.654,2.8,4.648,4.648,0,0,1,1.111,2.9c0,1.28-.842,1.987-2.256,1.8h0a6.449,6.449,0,0,1,2.745,4.715,2.088,2.088,0,0,1-1.128,2.1c-.926.387-2.425,0-4.6-1.061a30.116,30.116,0,0,1-2.661-1.5Zm1.684,6.315,1.566.775c1.819.909,2.879.488,2.879-.791,0-1.566-1.179-2.762-2.93-3.637a9.176,9.176,0,0,0-1.516-.64Zm0,6.382a13.844,13.844,0,0,0,1.448.808c1.785.892,3.368,1.061,3.368-.876a5.355,5.355,0,0,0-3.368-4.294l-1.431-.707Z" transform="translate(24.239 55.502)" fill="#fff"/>
        <path id="Path_1219" data-name="Path 1219" d="M47.435,98.373l-.135-1.28h0a2.593,2.593,0,0,1-2.93,0,5.052,5.052,0,0,1-2.93-4.21c0-2.307,2.054-2.543,5.759-.674v-.2a3.536,3.536,0,0,0-2.172-3.368,4.5,4.5,0,0,0-2.492-.539l-.387-1.347a5.691,5.691,0,0,1,3.149.724A6.1,6.1,0,0,1,48.933,93.2v3.57a14.87,14.87,0,0,0,.185,2.391Zm-.253-5.052c-1.9-.994-4.058-1.684-4.058.135a2.846,2.846,0,0,0,1.684,2.475c1.246.623,2.038.236,2.307-.438a1.364,1.364,0,0,0,.1-.505Z" transform="translate(28.274 59.355)" fill="#fff"/>
        <path id="Path_1220" data-name="Path 1220" d="M47.53,91.837V89.21l1.549.775.1,1.684h0c.471-.674,1.583-1.01,3.166-.219a6.332,6.332,0,0,1,3.368,5.759v5.708l-1.684-.876V96.5a4.142,4.142,0,0,0-2.341-3.94c-1.145-.573-2.038-.2-2.324.606a2,2,0,0,0-.118.758v5.742l-1.684-.876Z" transform="translate(32.439 61.042)" fill="#fff"/>
        <path id="Path_1221" data-name="Path 1221" d="M55.771,99.556h0a9.781,9.781,0,0,1,.842-.657L59.425,97l2.088,1.044-3.637,2.172,4.21,7.729-2.122-1.061-3.368-6.23-.892.539v3.6l-1.684-.859V89.84L55.7,90.7Z" transform="translate(36.877 61.473)" fill="#fff"/>
        <path id="Path_1222" data-name="Path 1222" d="M64.918,131.189a2.138,2.138,0,0,1-.791-.724c-.438-.657-.438-1.364,0-1.583a3.267,3.267,0,0,0,1.987-3.183,11.164,11.164,0,0,0-1.97-4.967c-.455-.64-.488-1.381,0-1.684s1.128,0,1.583.707a14.987,14.987,0,0,1,2.677,6.988,4.547,4.547,0,0,1-2.644,4.53A.892.892,0,0,1,64.918,131.189Z" transform="translate(43.559 81.368)" fill="#fafafa"/>
        <path id="Path_1223" data-name="Path 1223" d="M67.158,136.338a2.139,2.139,0,0,1-.791-.724c-.438-.657-.438-1.364,0-1.583a5.54,5.54,0,0,0,3.368-5.439,18.843,18.843,0,0,0-3.368-8.521c-.455-.64-.505-1.381,0-1.684s1.128,0,1.583.707c.152.219,3.89,5.49,4.025,10.474a6.837,6.837,0,0,1-3.991,6.736A.893.893,0,0,1,67.158,136.338Z" transform="translate(45.075 80.916)" fill="#fafafa"/>
        <path id="Path_1224" data-name="Path 1224" d="M69.619,141.058a2.139,2.139,0,0,1-.791-.724c-.438-.657-.438-1.364,0-1.583a7.51,7.51,0,0,0,4.479-7.342c-.135-5.422-4.395-11.451-4.446-11.518-.455-.64-.505-1.381-.084-1.684s1.128,0,1.583.707c.2.286,5.052,7.056,5.186,13.471a8.79,8.79,0,0,1-5.136,8.723.893.893,0,0,1-.791-.05Z" transform="translate(46.772 80.793)" fill="#fafafa"/>
        <g id="Group_1374" data-name="Group 1374" transform="translate(185.452 287.862)">
          <path id="Path_1225" data-name="Path 1225" d="M129.955,195.683c-4.294,2.458-11.535-.892-16.149-7.51s-4.866-13.976-.573-16.435,11.535.892,16.149,7.51S134.265,193.224,129.955,195.683Z" transform="translate(-110.172 -170.931)" fill="#fff" opacity="0.51"/>
          <path id="Path_1226" data-name="Path 1226" d="M136.745,199.053c-4.294,2.458-11.535-.892-16.149-7.51s-4.866-13.976-.573-16.435,11.535.892,16.149,7.51S141.055,196.628,136.745,199.053Z" transform="translate(-105.528 -168.626)" fill="#fff" opacity="0.51"/>
          <path id="Path_1227" data-name="Path 1227" d="M143.535,202.473c-4.294,2.459-11.535-.892-16.149-7.51s-4.866-13.976-.573-16.435,11.535.892,16.149,7.51S147.828,200.081,143.535,202.473Z" transform="translate(-100.885 -166.287)" fill="#fff" opacity="0.51"/>
        </g>
        <path id="Path_1228" data-name="Path 1228" d="M333.584,155.386c0,20.8-16.839,29.216-37.652,18.826S258.28,138.53,258.28,117.734s16.839-29.216,37.652-18.826S333.584,134.589,333.584,155.386Z" transform="translate(176.572 64.63)" fill="#964aff" opacity="0.64"/>
        <path id="Path_1229" data-name="Path 1229" d="M333.584,265.156c0,20.8-16.839,29.216-37.652,18.826S258.28,248.3,258.28,227.5s16.839-29.216,37.652-18.826S333.584,244.376,333.584,265.156Z" transform="translate(176.572 139.702)" fill="#964aff" opacity="0.64"/>
        <g id="Group_1375" data-name="Group 1375" transform="translate(362.78 330.896)" opacity="0.51">
          <path id="Path_1230" data-name="Path 1230" d="M226.729,205.568c0,3.1-2.509,4.361-5.624,2.812a10.575,10.575,0,0,1-5.624-8.42c0-3.1,2.509-4.361,5.624-2.812a10.575,10.575,0,0,1,5.624,8.42Z" transform="translate(-215.48 -196.487)" fill="#abd1ff"/>
          <path id="Path_1231" data-name="Path 1231" d="M236.569,210.5c0,3.1-2.509,4.361-5.624,2.812a10.575,10.575,0,0,1-5.624-8.42c0-3.1,2.509-4.361,5.624-2.812a10.575,10.575,0,0,1,5.624,8.42Z" transform="translate(-208.75 -193.115)" fill="#964aff" opacity="0.64"/>
          <path id="Path_1232" data-name="Path 1232" d="M246.438,215.428c0,3.1-2.509,4.361-5.624,2.812a10.575,10.575,0,0,1-5.624-8.42c0-3.1,2.509-4.361,5.624-2.812a10.575,10.575,0,0,1,5.624,8.42Z" transform="translate(-202 -189.743)" fill="#964aff" opacity="0.64"/>
          <path id="Path_1233" data-name="Path 1233" d="M256.3,220.358c0,3.1-2.509,4.361-5.624,2.812a10.575,10.575,0,0,1-5.624-8.42c0-3.1,2.509-4.361,5.624-2.812A10.575,10.575,0,0,1,256.3,220.358Z" transform="translate(-195.257 -186.372)" fill="#964aff" opacity="0.64"/>
        </g>
        <g id="Group_1376" data-name="Group 1376" transform="translate(362.78 243.08)" opacity="0.51">
          <path id="Path_1234" data-name="Path 1234" d="M226.729,153.418c0,3.1-2.509,4.361-5.624,2.812a10.575,10.575,0,0,1-5.624-8.42c0-3.1,2.509-4.361,5.624-2.812a10.575,10.575,0,0,1,5.624,8.42Z" transform="translate(-215.48 -144.337)" fill="#abd1ff"/>
          <path id="Path_1235" data-name="Path 1235" d="M236.569,158.338c0,3.1-2.509,4.361-5.624,2.812a10.575,10.575,0,0,1-5.624-8.42c0-3.1,2.509-4.361,5.624-2.812a10.575,10.575,0,0,1,5.624,8.419Z" transform="translate(-208.75 -140.972)" fill="#964aff" opacity="0.64"/>
          <path id="Path_1236" data-name="Path 1236" d="M246.438,163.268c0,3.1-2.509,4.361-5.624,2.812a10.575,10.575,0,0,1-5.624-8.42c0-3.1,2.509-4.361,5.624-2.812a10.575,10.575,0,0,1,5.624,8.42Z" transform="translate(-202 -137.6)" fill="#964aff" opacity="0.64"/>
          <path id="Path_1237" data-name="Path 1237" d="M256.3,168.2c0,3.1-2.509,4.361-5.624,2.812a10.575,10.575,0,0,1-5.624-8.42c0-3.1,2.509-4.361,5.624-2.812A10.575,10.575,0,0,1,256.3,168.2Z" transform="translate(-195.257 -134.229)" fill="#964aff" opacity="0.64"/>
        </g>
        <g id="Group_1377" data-name="Group 1377" transform="translate(362.78 150.566)" opacity="0.51">
          <path id="Path_1238" data-name="Path 1238" d="M226.729,98.478c0,3.1-2.509,4.361-5.624,2.812a10.575,10.575,0,0,1-5.624-8.42c0-3.1,2.509-4.361,5.624-2.812a10.575,10.575,0,0,1,5.624,8.42Z" transform="translate(-215.48 -89.397)" fill="#abd1ff"/>
          <path id="Path_1239" data-name="Path 1239" d="M236.569,103.408c0,3.1-2.509,4.361-5.624,2.812a10.575,10.575,0,0,1-5.624-8.42c0-3.1,2.509-4.361,5.624-2.812a10.575,10.575,0,0,1,5.624,8.42Z" transform="translate(-208.75 -86.025)" fill="#964aff" opacity="0.64"/>
          <path id="Path_1240" data-name="Path 1240" d="M246.438,108.338c0,3.1-2.509,4.361-5.624,2.812a10.575,10.575,0,0,1-5.624-8.42c0-3.1,2.509-4.361,5.624-2.812a10.575,10.575,0,0,1,5.624,8.419Z" transform="translate(-202 -82.653)" fill="#964aff" opacity="0.64"/>
          <path id="Path_1241" data-name="Path 1241" d="M256.3,113.268c0,3.1-2.509,4.361-5.624,2.812a10.575,10.575,0,0,1-5.624-8.42c0-3.1,2.509-4.361,5.624-2.812a10.575,10.575,0,0,1,5.624,8.42Z" transform="translate(-195.257 -79.282)" fill="#964aff" opacity="0.64"/>
        </g>
        <path id="Path_1242" data-name="Path 1242" d="M282.865,79.487,142.512,9.252a7.157,7.157,0,0,0-7.005-.37h0L124.41,14.4l5.742,2.576V304.154c0,5.153,4.176,11.434,9.346,14.01l139.141,69.629-1.027,5.489,11.417-5.692h0a5.338,5.338,0,0,0,3.1-5.388V93.514C292.194,88.345,288.018,82,282.865,79.487Z" transform="translate(85.017 5.597)" fill="url(#linear-gradient-3)"/>
        <path id="Path_1243" data-name="Path 1243" d="M272.259,390.4,131.906,320.165c-5.153-2.576-9.346-8.857-9.346-14.01V17.416c0-5.153,4.176-7.258,9.346-4.664L272.259,82.97c5.153,2.576,9.346,8.857,9.346,14.01V385.719C281.588,390.889,277.429,392.977,272.259,390.4Z" transform="translate(83.752 7.991)" fill="#fff"/>
        <path id="Path_1244" data-name="Path 1244" d="M258.069,359.555,137.906,299.406c-5.153-2.576-9.346-8.857-9.346-14.01V30.436c0-5.153,4.176-7.258,9.346-4.664L258.069,85.853c5.153,2.576,9.346,8.857,9.346,14.01V354.89C267.381,360.043,263.222,362.148,258.069,359.555Z" transform="translate(87.855 16.896)" fill="url(#linear-gradient-4)"/>
        <path id="Path_1245" data-name="Path 1245" d="M210.678,62.031l-53.6-26.808A5.439,5.439,0,0,1,154.2,30.9h0c0-1.6,1.3-2.24,2.879-1.448L210.7,56.255a5.439,5.439,0,0,1,2.879,4.328h0C213.574,62.183,212.278,62.823,210.678,62.031Z" transform="translate(105.391 19.938)" fill="url(#linear-gradient-5)"/>
        <path id="Path_1246" data-name="Path 1246" d="M203.19,56.221c0,2-1.684,2.829-3.637,1.819A6.837,6.837,0,0,1,196,52.584c0-2,1.684-2.829,3.637-1.819A6.837,6.837,0,0,1,203.19,56.221Z" transform="translate(133.978 34.454)" fill="url(#linear-gradient-6)"/>
        <path id="Path_1247" data-name="Path 1247" d="M222.263,119.1l.623.556a2.8,2.8,0,0,1-4.126-2.307V87.357a6.618,6.618,0,0,1,3.5-5.254h0c1.92-.96,4.462,0,4.462,1.92l-.96,29.822A6.618,6.618,0,0,1,222.263,119.1Z" transform="translate(149.544 55.924)" fill="#3f1675"/>
        <path id="Path_1248" data-name="Path 1248" d="M222.993,119.472h0c-1.92.96-3.5.168-3.5-1.684V87.73a6.618,6.618,0,0,1,3.5-5.254h0c1.92-.96,3.5-.168,3.5,1.684v30.007A6.618,6.618,0,0,1,222.993,119.472Z" transform="translate(150.043 56.156)" fill="#793bf5"/>
        <path id="Path_1249" data-name="Path 1249" d="M222.263,145.445l.623.556a2.8,2.8,0,0,1-4.126-2.307V113.687a6.618,6.618,0,0,1,3.5-5.254h0c1.92-.96,4.462,0,4.462,1.92l-.96,29.822A6.618,6.618,0,0,1,222.263,145.445Z" transform="translate(149.544 73.931)" fill="#3f1675"/>
        <path id="Path_1250" data-name="Path 1250" d="M222.993,145.819h0c-1.92.96-3.5.168-3.5-1.684V114.06a6.618,6.618,0,0,1,3.5-5.254h0c1.92-.96,3.5-.168,3.5,1.684v30.075A6.618,6.618,0,0,1,222.993,145.819Z" transform="translate(150.043 74.163)" fill="#793bf5"/>
        <g id="Group_1378" data-name="Group 1378" transform="translate(434.852 251.82)" opacity="0.66">
          <path id="Path_1251" data-name="Path 1251" d="M333.584,210.456c0,20.8-16.839,29.216-37.652,18.826S258.28,193.6,258.28,172.8s16.839-29.216,37.652-18.826S333.584,189.676,333.584,210.456Z" transform="translate(-258.28 -149.527)" fill="#964aff" opacity="0.64"/>
        </g>
        <path id="Path_1252" data-name="Path 1252" d="M275.21,130.116h0c-4.631-2.324-8.42-7.948-8.42-12.579v-1.583c0-4.631,3.755-6.5,8.42-4.193h0Z" transform="translate(182.392 75.789)" fill="#fff"/>
        <path id="Path_1253" data-name="Path 1253" d="M290.7,120.82h0c4.631,2.324,8.42,7.948,8.42,12.579v1.583c0,4.631-3.755,6.5-8.42,4.193h0Z" transform="translate(198.744 82.66)" fill="#fff"/>
        <path id="Path_1254" data-name="Path 1254" d="M272.393,118.774l-2.913-1.684c.859-12.158,8.857-16.6,19.921-11.063s19.079,17.984,19.921,31l-2.913-1.263c-.758-11.5-7.426-22.025-17.007-26.825S273.151,108.014,272.393,118.774Z" transform="translate(184.231 70.932)" fill="#fff"/>
        <path id="Path_1255" data-name="Path 1255" d="M288.947,143.539a38.932,38.932,0,0,1-15.812-13.3,20.729,20.729,0,0,1-3.755-11.366l2.189,1.212-1.095-.606,1.095.606a17.832,17.832,0,0,0,3.183,9.5,35.041,35.041,0,0,0,14.2,11.787Z" transform="translate(184.163 81.326)" fill="#fff"/>
        <path id="Path_1256" data-name="Path 1256" d="M285.121,135.7c0,1.684-1.415,2.458-3.166,1.583a5.944,5.944,0,0,1-3.166-4.732c0-1.684,1.414-2.459,3.166-1.583A5.944,5.944,0,0,1,285.121,135.7Z" transform="translate(190.598 89.351)" fill="#fff"/>
        <path id="Path_1257" data-name="Path 1257" d="M263.3,179.913V177l2.661-1.078c4.5-1.768,6.736-3,6.736-5.372a5.405,5.405,0,0,0-3.368-4.7,6.112,6.112,0,0,0-4.412-.488l-1.364-4.142a10.255,10.255,0,0,1,6.736,1.246c4.664,2.324,7.224,6.348,7.224,10.1,0,3.452-2.509,4.968-5.49,6.129l-1.9.64h0l7.763,3.89v3.957Z" transform="translate(180.005 110.204)" fill="#fff"/>
        <path id="Path_1258" data-name="Path 1258" d="M282.517,188.617V183.7l-9.127-4.563V176l7.763-8.6,5.894,2.947V182.42l2.475,1.246v3.62l-2.475-1.246v4.917Zm0-8.521v-4.563a31.544,31.544,0,0,1,.152-3.755h-.135c-.657.993-1.212,1.936-1.9,2.879l-2.762,3.115h0Z" transform="translate(186.905 114.516)" fill="#fff"/>
        <path id="Path_1259" data-name="Path 1259" d="M283.7,191.184l6.736-19.584,3.2,1.684L286.9,192.868Z" transform="translate(193.956 117.389)" fill="#fff"/>
        <path id="Path_1260" data-name="Path 1260" d="M305.1,180.975v3.048l-8.419,13.3-5.052-2.56,8.42-12.326h0l-9.5-4.833V173.65Z" transform="translate(198.641 118.791)" fill="#fff"/>
        <path id="Path_1261" data-name="Path 1261" d="M300.249,260.332l-24.7-12.36a6.736,6.736,0,0,1-3.368-4.277l-4.765-21.689h0a2.155,2.155,0,0,1,3.368-2.593l33.846,16.923a6.735,6.735,0,0,1,2.677,2.644,4.546,4.546,0,0,1,.657,3.233l-4.378,17.125C303.246,260.719,301.865,261.208,300.249,260.332Zm-30.916-37.854,4.765,21.689a2.93,2.93,0,0,0,1.448,1.852l24.7,12.36c.707.354,1.3.168,1.448-.438l4.378-17.125a1.987,1.987,0,0,0-.286-1.415,2.9,2.9,0,0,0-1.162-1.145L270.78,221.333a.943.943,0,0,0-1.448,1.128Z" transform="translate(182.645 149.696)" fill="#fff"/>
        <path id="Path_1262" data-name="Path 1262" d="M305.1,243.411l-36.574-18.3V223.17L305.1,241.457Z" transform="translate(183.582 152.658)" fill="#fff"/>
        <path id="Path_1263" data-name="Path 1263" d="M302.313,247.08,269.78,230.8V228.86l32.533,16.267Z" transform="translate(184.436 156.549)" fill="#fff"/>
        <path id="Path_1264" data-name="Path 1264" d="M275.643,244.261,272.73,225.94l1.9.623,2.93,18.321Z" transform="translate(186.454 154.552)" fill="#fff"/>
        <path id="Path_1265" data-name="Path 1265" d="M285.33,248.716l-1.92-1.229,2.374-15.677,1.92,1.229Z" transform="translate(193.758 158.567)" fill="#fff"/>
        <path id="Path_1266" data-name="Path 1266" d="M280.8,246.736l-1.937-.96V228.92l1.937.96Z" transform="translate(190.646 156.59)" fill="#fff"/>
        <path id="Path_1267" data-name="Path 1267" d="M290.965,239.869l-.2-.118a1.684,1.684,0,0,1-.741-1.516l3.048-12.73c.1-.4.488-.522.943-.286l8.723,4.361a1.819,1.819,0,0,1,.977,1.448c0,.539-.438.758-.977.488l-7.948-3.974L291.908,239.6C291.823,239.987,291.419,240.088,290.965,239.869Z" transform="translate(198.277 153.976)" fill="#fff"/>
        <path id="Path_1268" data-name="Path 1268" d="M278.28,241.214c0,1.684-1.313,2.273-2.93,1.465a5.506,5.506,0,0,1-2.93-4.378c0-1.684,1.313-2.273,2.93-1.465A5.507,5.507,0,0,1,278.28,241.214Z" transform="translate(186.242 161.758)" fill="#fff"/>
        <path id="Path_1269" data-name="Path 1269" d="M289.51,246.834c0,1.684-1.313,2.273-2.93,1.465a5.506,5.506,0,0,1-2.93-4.378c0-1.684,1.313-2.273,2.93-1.465a5.506,5.506,0,0,1,2.93,4.378Z" transform="translate(193.922 165.602)" fill="#fff"/>
        <path id="Path_1270" data-name="Path 1270" d="M236.48,181.707c0,22.851-18.523,32.112-41.374,20.678s-41.357-39.2-41.357-62,18.523-32.112,41.374-20.678S236.48,158.907,236.48,181.707Z" transform="translate(105.083 78.554)" opacity="0" fill="url(#linear-gradient-7)"/>
        <path id="Path_1271" data-name="Path 1271" d="M234.317,183.122c0,22.851-18.523,32.112-41.374,20.678s-41.374-39.2-41.374-62.052,18.523-32.112,41.374-20.678S234.317,160.271,234.317,183.122Z" transform="translate(103.592 79.48)" opacity="0.17" fill="url(#linear-gradient-8)"/>
        <path id="Path_1272" data-name="Path 1272" d="M232.157,184.5c0,22.851-18.523,32.112-41.374,20.678s-41.374-39.2-41.374-62.052,18.523-32.112,41.374-20.678S232.157,161.651,232.157,184.5Z" transform="translate(102.115 80.424)" opacity="0.33" fill="url(#linear-gradient-9)"/>
        <path id="Path_1273" data-name="Path 1273" d="M230,185.882c0,22.851-18.523,32.112-41.373,20.678s-41.374-39.2-41.374-62.052,18.523-32.112,41.374-20.678S230,163.031,230,185.882Z" transform="translate(100.638 81.368)" opacity="0.5" fill="url(#linear-gradient-10)"/>
        <path id="Path_1274" data-name="Path 1274" d="M227.837,187.262c0,22.851-18.523,32.112-41.374,20.678s-41.374-39.2-41.374-62.052,18.523-32.112,41.374-20.678S227.837,164.411,227.837,187.262Z" transform="translate(99.16 82.312)" opacity="0.67" fill="url(#linear-gradient-11)"/>
        <path id="Path_1275" data-name="Path 1275" d="M225.667,188.642c0,22.851-18.523,32.112-41.374,20.678s-41.374-39.2-41.374-62.052,18.523-32.112,41.374-20.678S225.667,165.791,225.667,188.642Z" transform="translate(97.676 83.255)" opacity="0.83" fill="url(#linear-gradient-12)"/>
        <path id="Path_1276" data-name="Path 1276" d="M223.507,190.022c0,22.851-18.523,32.112-41.374,20.678s-41.374-39.2-41.374-62.052,18.523-32.112,41.374-20.678S223.507,167.171,223.507,190.022Z" transform="translate(96.199 84.199)" fill="url(#linear-gradient-13)"/>
        <path id="Path_1277" data-name="Path 1277" d="M171.742,178.336a7.241,7.241,0,0,1-2.711-2.492l-17.8-27.279c-1.448-2.223-1.28-4.361.084-5.287,2.576-1.684,4.749-.219,6.2,1.987L172.1,167.609l22.076-21.369c1.179-1.128,3.519-.4,5.237,1.684s2.155,4.6.993,5.725l-25.545,24.619a2.526,2.526,0,0,1-2.8.236Z" transform="translate(102.667 97.519)" fill="#fff"/>
        <path id="Path_1278" data-name="Path 1278" d="M150.261,87a70.619,70.619,0,0,1,9.127,3.94,25.612,25.612,0,0,1,9.127,6.955,14.482,14.482,0,0,1,3.183,8.42c0,2.93-.977,4.917-2.745,5.708-2.307,1.01-5.708.286-9.7-1.684a25.69,25.69,0,0,1-2.307-1.28v10.676l-6.736-3.368ZM157,103.839a16.049,16.049,0,0,0,2.256,1.313c3.587,1.8,5.809,1.095,5.809-1.97,0-2.745-1.9-5.338-5.271-7.022a14.093,14.093,0,0,0-2.8-1.128Z" transform="translate(102.662 59.53)" fill="#fff"/>
        <path id="Path_1279" data-name="Path 1279" d="M171.777,117.9l-2.122,6.6L162.65,121l9.127-25.259,8.857,4.429,9.261,34.47L182.638,131l-2.307-8.807Zm7.578-1.263-1.869-7.258c-.539-2.038-1.061-4.513-1.5-6.517H175.9c-.438,1.549-.892,3.587-1.381,5.052l-1.768,5.439Z" transform="translate(111.17 65.508)" fill="#fff"/>
        <path id="Path_1280" data-name="Path 1280" d="M186.63,134.851V122.625L177.2,100.28l7.712,3.856,3.048,8.706c.926,2.627,1.549,4.547,2.307,6.87h.084c.657-1.532,1.381-2.9,2.256-4.58l3.014-5.675,7.578,3.789-9.834,12.478v12.444Z" transform="translate(121.121 68.613)" fill="#fff"/>
        <path id="Path_1281" data-name="Path 1281" d="M145.31,46.151,57.747,2.37C46.616-3.2,37.54,1.309,37.54,12.473s9.026,24.669,20.207,30.31L145.31,86.565,165.517,103.4V76.462h0C165.466,65.264,156.44,51.725,145.31,46.151Z" transform="translate(25.606 0.018)" fill="#f6f8ff" opacity="0.35"/>
        <path id="Path_1282" data-name="Path 1282" d="M91.889,59.13,30.747,28.55c-11.131-5.574-20.207-1.061-20.207,10.1h0V65.6H25.392a32.565,32.565,0,0,0,5.3,3.368L91.889,99.425C103.02,105,112.1,100.486,112.1,89.322h0C112.046,78.225,103.02,64.619,91.889,59.13Z" transform="translate(7.141 17.923)" fill="#f6f8ff" opacity="0.35"/>
        <path id="Path_1283" data-name="Path 1283" d="M169.511,302.079l-11.4-80.339-47.368,23.676-3.5,87.816Z" transform="translate(73.275 151.68)" fill="url(#linear-gradient-14)"/>
        <path id="Path_1284" data-name="Path 1284" d="M141.758,214.28l5.405,9.16,19.735,3.4-47.368,23.676L94.39,237.956Z" transform="translate(64.486 146.578)" fill="#c7d4ff"/>
        <path id="Path_1285" data-name="Path 1285" d="M162.479,226.773l-16.974-2.93-5.153-8.723L95.83,237.381l22.716,11.366Z" transform="translate(65.471 147.152)" fill="#829dff"/>
        <path id="Path_1286" data-name="Path 1286" d="M119.52,239.768l-3.183-11.6-18.472-.286-2.745.775,23.743,11.973Z" transform="translate(64.986 155.879)" fill="#c7d4ff"/>
        <path id="Path_1287" data-name="Path 1287" d="M87.61,312.182,99.027,228.34l21.638.37,3.5,12.191-3.5,87.816-13.724-13.741Z" transform="translate(59.85 156.193)" fill="#6989ff"/>
        <path id="Path_1288" data-name="Path 1288" d="M120.665,228.71l-13.724,86.266-19.331-2.8L99.027,228.34Z" transform="translate(59.85 156.193)" fill="#a8bbff"/>
        <path id="Path_1289" data-name="Path 1289" d="M128.25,234.017c0,.859.69,1.2,1.549.775a2.913,2.913,0,0,0,1.549-2.324c0-.859-.69-1.2-1.549-.775a2.913,2.913,0,0,0-1.549,2.324Z" transform="translate(87.643 158.363)" fill="#5c6fb8"/>
        <path id="Path_1290" data-name="Path 1290" d="M117.49,238.307c0,.859.69,1.2,1.549.775a2.913,2.913,0,0,0,1.549-2.324c0-.859-.69-1.2-1.549-.775a2.913,2.913,0,0,0-1.549,2.324Z" transform="translate(80.285 161.297)" fill="#5c6fb8"/>
        <path id="Path_1291" data-name="Path 1291" d="M133.806,269.246a5.236,5.236,0,0,0,2.694-.775c9.144-5.439,2.913-32.331,2.172-35.362a1.352,1.352,0,1,0-2.627.64c1.886,7.746,5.372,28.626-.926,32.4a2.509,2.509,0,0,1-2.711,0c-6.146-3.368-11.989-23.474-12.107-25.7a1.364,1.364,0,0,0-1.414-1.3,1.347,1.347,0,0,0-1.3,1.381c0,1.768,5.776,23.76,13.471,27.953a5.657,5.657,0,0,0,2.745.758Z" transform="translate(80.353 158.749)" fill="#809aff"/>
        <path id="Path_1292" data-name="Path 1292" d="M123.522,215.12l-3.082,24.248,6.129-3.065,2.1-12.461Z" transform="translate(82.302 147.152)" fill="#577bff"/>
        <path id="Path_1293" data-name="Path 1293" d="M236.97,328.155l-16.957-119.3-70.337,35.16L144.49,374.395Z" transform="translate(98.75 142.864)" fill="url(#linear-gradient-15)"/>
        <path id="Path_1294" data-name="Path 1294" d="M195.73,197.76l8.049,13.623,29.283,5.052-70.337,35.16L125.41,232.937Z" transform="translate(85.701 135.28)" fill="#c7d4ff"/>
        <path id="Path_1295" data-name="Path 1295" d="M226.5,216.321l-25.191-4.344L193.65,199.01l-66.11,33.072,33.729,16.856Z" transform="translate(87.158 136.134)" fill="#829dff"/>
        <path id="Path_1296" data-name="Path 1296" d="M162.711,235.617,158,218.391l-27.448-.421-4.058,1.145L161.751,236.9Z" transform="translate(86.44 149.101)" fill="#c7d4ff"/>
        <path id="Path_1297" data-name="Path 1297" d="M115.34,343.158,132.3,218.65l32.129.539,5.186,18.119-5.186,130.385-20.392-20.409Z" transform="translate(78.814 149.566)" fill="#6989ff"/>
        <path id="Path_1298" data-name="Path 1298" d="M164.426,219.189,144.034,347.284l-28.694-4.126L132.3,218.65Z" transform="translate(78.814 149.566)" fill="#a8bbff"/>
        <path id="Path_1299" data-name="Path 1299" d="M175.68,227.069c0,1.263,1.027,1.785,2.29,1.145a4.327,4.327,0,0,0,2.29-3.368c0-1.263-1.027-1.785-2.29-1.145a4.328,4.328,0,0,0-2.29,3.368Z" transform="translate(120.081 152.834)" fill="#5c6fb8"/>
        <path id="Path_1300" data-name="Path 1300" d="M159.71,233.419c0,1.263,1.027,1.785,2.29,1.145a4.328,4.328,0,0,0,2.29-3.368c0-1.263-1.027-1.785-2.29-1.145A4.328,4.328,0,0,0,159.71,233.419Z" transform="translate(109.159 157.176)" fill="#5c6fb8"/>
        <path id="Path_1301" data-name="Path 1301" d="M183.92,279.421a7.779,7.779,0,0,0,4.008-1.145c13.572-8.066,4.328-48.008,3.216-52.521a2.009,2.009,0,1,0-3.907.943c2.8,11.5,7.982,42.569-1.364,48.126a3.721,3.721,0,0,1-4.008,0c-9.11-4.883-17.8-34.857-17.967-38.157a2.038,2.038,0,0,0-2.088-1.92,2,2,0,0,0-1.92,2.054c.084,2.627,8.588,35.278,20,41.525A8.42,8.42,0,0,0,183.92,279.421Z" transform="translate(109.282 153.373)" fill="#809aff"/>
        <path id="Path_1302" data-name="Path 1302" d="M168.653,199.01l-4.563,36.036,9.11-4.563,3.115-18.506Z" transform="translate(112.155 136.134)" fill="#577bff"/>
      </g>
    </g>
  </g>
</svg>
