<svg id="Asset_3" data-name="Asset 3" xmlns="http://www.w3.org/2000/svg" xmlns:xlink="http://www.w3.org/1999/xlink" width="262.03" height="287.546" viewBox="0 0 262.03 287.546">
  <defs>
    <linearGradient id="linear-gradient" x1="0.068" y1="0.106" x2="0.916" y2="0.88" gradientUnits="objectBoundingBox">
      <stop offset="0" stop-color="#3a9bd5"/>
      <stop offset="0.31" stop-color="#3a9bd5"/>
      <stop offset="0.36" stop-color="#3a9bd5"/>
      <stop offset="0.6" stop-color="#3999d4"/>
      <stop offset="0.69" stop-color="#3592cf"/>
      <stop offset="0.75" stop-color="#2f86c7"/>
      <stop offset="0.8" stop-color="#2676bc"/>
      <stop offset="0.81" stop-color="#2573ba"/>
    </linearGradient>
    <linearGradient id="linear-gradient-2" x1="6.44" y1="-1.816" x2="6.999" y2="-1.306" gradientUnits="objectBoundingBox">
      <stop offset="0" stop-color="#59bdef"/>
      <stop offset="1" stop-color="#7bdaff"/>
    </linearGradient>
    <linearGradient id="linear-gradient-3" x1="0.5" x2="0.5" y2="1" gradientUnits="objectBoundingBox">
      <stop offset="0" stop-color="#f905f5"/>
      <stop offset="1" stop-color="#17c9f2"/>
    </linearGradient>
    <linearGradient id="linear-gradient-4" x1="-11.94" y1="0.82" x2="-10.511" y2="1.178" gradientUnits="objectBoundingBox">
      <stop offset="0" stop-color="#2573ba"/>
      <stop offset="0.91" stop-color="#0364ae"/>
      <stop offset="1" stop-color="#0063ad"/>
    </linearGradient>
    <linearGradient id="linear-gradient-5" x1="-32.722" y1="0.5" x2="-31.722" y2="0.5" gradientUnits="objectBoundingBox">
      <stop offset="0" stop-color="#0063ad"/>
      <stop offset="1" stop-color="#2573ba"/>
    </linearGradient>
  </defs>
  <g id="Ñëîé_1" data-name="Ñëîé 1" transform="translate(0 0)">
    <path id="Path_1506" data-name="Path 1506" d="M259.177,227.908,182.239,272.33c-3.432,1.988-8.64,2.221-11.616.478L2.01,175.469c-2.976-1.721-2.6-4.72.833-6.663l76.938-44.421c3.432-1.988,8.64-2.221,11.616-.478L260.01,221.2C262.986,222.922,262.619,225.921,259.177,227.908Z" transform="translate(0 13.566)" fill="#13247a" opacity="0.5"/>
    <path id="Path_1507" data-name="Path 1507" d="M262.02,201.606l-15.847-2.754L91.386,109.476c-2.976-1.721-8.174-1.5-11.616.478l-71.7,41.423L0,149.966v8.2H0a3.432,3.432,0,0,0,2,2.932l168.624,97.361c2.976,1.721,8.174,1.5,11.616-.478l76.938-44.421c1.91-1.111,2.865-2.521,2.843-3.854h0Z" transform="translate(0 11.972)" fill="url(#linear-gradient)"/>
    <path id="Path_1508" data-name="Path 1508" d="M259.177,206.2,182.239,250.62c-3.432,1.988-8.64,2.221-11.616.478L2.01,153.759c-2.976-1.721-2.6-4.72.833-6.663l76.938-44.421c3.432-1.988,8.64-2.221,11.616-.478l168.624,97.361C262.986,201.212,262.619,204.211,259.177,206.2Z" transform="translate(0 11.166)" fill="url(#linear-gradient-2)"/>
    <path id="Path_1509" data-name="Path 1509" d="M259.174,200.246l-76.938,44.421c-3.432,1.988-8.64,2.221-11.616.478L2.007,147.807A3.709,3.709,0,0,1,.053,145.43a3.265,3.265,0,0,0,1.955,3.42l168.624,97.361c2.976,1.721,8.174,1.5,11.616-.478l76.938-44.421c2.143-1.233,3.087-2.865,2.787-4.331a5.2,5.2,0,0,1-2.8,3.265Z" transform="translate(0.003 16.075)" fill="#fff"/>
    <path id="Path_1510" data-name="Path 1510" d="M259.027,198.928l-89.376,51.618L2.46,154.018,91.836,102.4Z" transform="translate(0.272 11.318)" fill="#0f65b2"/>
    <path id="Path_1511" data-name="Path 1511" d="M48.977,120.725l-11.872,6.852a1.932,1.932,0,0,1-1.744.067l-.122-.067c-.444-.255-.389-.711.122-1.011l11.861-6.852a1.932,1.932,0,0,1,1.744-.078l.122.067C49.555,119.97,49.444,120.426,48.977,120.725Z" transform="translate(3.862 13.205)" fill="#0063ad"/>
    <path id="Path_1512" data-name="Path 1512" d="M22.562,149.844l-1.5.866-3.543-2.054,1.488-.866Z" transform="translate(1.937 16.335)" fill="#fff"/>
    <path id="Path_1513" data-name="Path 1513" d="M25.053,148.415l-1.5.855L20,147.226l1.5-.866Z" transform="translate(2.211 16.177)" fill="#fff"/>
    <path id="Path_1514" data-name="Path 1514" d="M27.532,146.975l-1.5.866-3.543-2.055,1.5-.866Z" transform="translate(2.486 16.018)" fill="#fff"/>
    <path id="Path_1515" data-name="Path 1515" d="M30.023,145.533l-1.5.866-3.554-2.043,1.5-.866Z" transform="translate(2.76 15.86)" fill="#fff"/>
    <circle id="Ellipse_3042" data-name="Ellipse 3042" cx="5.286" cy="5.286" r="5.286" transform="translate(78.248 12.582)" fill="#fff"/>
    <circle id="Ellipse_3043" data-name="Ellipse 3043" cx="5.286" cy="5.286" r="5.286" transform="translate(61.191 12.582)" fill="#7bdaff"/>
    <circle id="Ellipse_3044" data-name="Ellipse 3044" cx="5.286" cy="5.286" r="5.286" transform="translate(44.144 12.582)" fill="#7bdaff" opacity="0.5"/>
    <circle id="Ellipse_3045" data-name="Ellipse 3045" cx="5.286" cy="5.286" r="5.286" transform="translate(27.086 12.582)" fill="#7bdaff" opacity="0.1"/>
    <path id="Path_1516" data-name="Path 1516" d="M125.84,172.556c-11.672,6.741-30.584,6.741-42.2,0s-11.672-17.658,0-24.432,30.584-6.741,42.2,0S137.511,165.815,125.84,172.556Z" transform="translate(8.28 15.812)" fill="#041860" opacity="0.6"/>
    <path id="Path_1517" data-name="Path 1517" d="M106.378,188.313c-11.872,0-23.754-2.61-32.794-7.829-8.884-5.1-13.7-11.9-13.7-19.168s4.864-14.026,13.7-19.157c18.08-10.439,47.5-10.439,65.588,0,8.884,5.1,13.7,11.9,13.7,19.168s-4.864,14.059-13.7,19.157C130.121,185.7,118.25,188.313,106.378,188.313Zm0-53.206c-11.727,0-23.466,2.576-32.394,7.774-8.573,4.953-13.326,11.516-13.326,18.468s4.72,13.515,13.326,18.468c17.857,10.317,46.931,10.317,64.789,0,8.573-4.953,13.326-11.516,13.326-18.468s-4.72-13.515-13.326-18.468c-8.94-5.186-20.667-7.807-32.394-7.807Z" transform="translate(6.619 14.848)" fill="#fff"/>
    <path id="Path_1518" data-name="Path 1518" d="M223.787,74.506,95.564.477A2.554,2.554,0,0,0,92.943.266h0L91,1.377l.877.122a5.1,5.1,0,0,0-.366,2V91.841c0,2.943,1.788,6.363,4,7.64L223.731,173.51a3.907,3.907,0,0,0,.711.322v1l1.921-1.111h0a3.532,3.532,0,0,0,1.388-3.232V82.18C227.785,79.2,226,75.783,223.787,74.506Z" transform="translate(10.059 -0.001)" fill="#fff"/>
    <path id="Path_1519" data-name="Path 1519" d="M222.061,174.49,93.828,100.462c-2.221-1.277-4-4.7-4-7.64V4.479c0-2.943,1.788-4.3,4-3.021L222.061,75.486c2.221,1.277,4,4.7,4,7.64V171.47C226.059,174.413,224.271,175.768,222.061,174.49Z" transform="translate(9.929 0.107)" fill="url(#linear-gradient-3)"/>
    <path id="Path_1520" data-name="Path 1520" d="M174.47,73.456V60.84l2.676,1.544a8.707,8.707,0,0,1,1.322.922,6.052,6.052,0,0,1,1,1.111,4.565,4.565,0,0,1,.666,1.388,5.809,5.809,0,0,1,.222,1.666q0,2.332-1.61,1.677a4.942,4.942,0,0,1,1.444,1.81,5.808,5.808,0,0,1,.489,2.432q0,1.8-.777,2.277t-2.288-.389Zm1.988-6.319.622.355q.877.5,1.21.267t.333-1.266a3.5,3.5,0,0,0-.111-.922,1.922,1.922,0,0,0-.366-.711,3.242,3.242,0,0,0-.566-.544,8.953,8.953,0,0,0-.833-.533l-.278-.155Zm0,5.853.733.422q.888.511,1.233.233t.344-1.388a4.031,4.031,0,0,0-.389-1.877,3.22,3.22,0,0,0-1.3-1.255l-.622-.366Z" transform="translate(19.285 6.724)" fill="#fff"/>
    <path id="Path_1521" data-name="Path 1521" d="M180.69,76.917l2.221-11.327,2.077,1.2,2.221,13.893-1.855-1.111-.444-3.187-1.888-1.111-.444,2.665Zm2.565-2.965,1.466.844-.733-5.553Z" transform="translate(19.973 7.249)" fill="#fff"/>
    <path id="Path_1522" data-name="Path 1522" d="M187.52,80.985V68.38l1.366.788,2.676,8.684V70.712l1.644.955v12.6l-1.3-.766-2.743-9.051v7.507Z" transform="translate(20.728 7.558)" fill="#fff"/>
    <path id="Path_1523" data-name="Path 1523" d="M194.11,84.795V72.19L196.1,73.3v5.475l2.143-4.242,1.9,1.111-2.088,4.442,2.31,8.3-1.988-1.111-1.888-7.019-.4.589V85.95Z" transform="translate(21.456 7.979)" fill="#fff"/>
    <path id="Path_1524" data-name="Path 1524" d="M124.133,92.113,99.79,78.054V74.8l24.343,14.059Z" transform="translate(11.03 8.267)" fill="#fff"/>
    <path id="Path_1525" data-name="Path 1525" d="M151.073,107.662,126.73,93.614V90.36l24.343,14.048Z" transform="translate(14.008 9.987)" fill="#fff"/>
    <path id="Path_1526" data-name="Path 1526" d="M178.012,123.223,153.68,109.164V105.91l24.332,14.059Z" transform="translate(16.987 11.706)" fill="#fff"/>
    <path id="Path_1527" data-name="Path 1527" d="M204.963,138.772,180.62,124.724V121.47l24.343,14.048Z" transform="translate(19.965 13.426)" fill="#fff"/>
    <path id="Path_1528" data-name="Path 1528" d="M118.674,32.942,89.8,30.61V89.546c0,2.943,1.788,6.363,4,7.64l55.527,32.039C163.662,108.9,160.43,77.763,160.43,77.763Z" transform="translate(9.926 3.383)" fill="#041860" opacity="0.2"/>
    <path id="Path_1529" data-name="Path 1529" d="M152.851,84.053,111.106,39.232,69.361,35.9S62.7,92.537,111.106,152.506C159.559,148.4,152.851,84.053,152.851,84.053Z" transform="translate(7.633 3.968)" fill="url(#linear-gradient-4)"/>
    <path id="Path_1530" data-name="Path 1530" d="M70.265,35.86l-9.4,5.419,41.745,3.376,9.4-5.419Z" transform="translate(6.728 3.963)" fill="url(#linear-gradient-5)"/>
    <path id="Path_1531" data-name="Path 1531" d="M144.391,88.948,102.646,44.116,85.477,42.384,60.9,40.74s-6.663,56.637,41.745,116.606C151.1,153.282,144.391,88.948,144.391,88.948Z" transform="translate(6.697 4.503)" fill="url(#linear-gradient-3)"/>
    <path id="Path_1532" data-name="Path 1532" d="M144.36,89.011,102.615,44.179,60.87,40.847l1.177-.677,42.278,3.376L146.07,88.367s5.553,53.783-30.484,66.11C149.779,141.04,144.36,89.011,144.36,89.011Z" transform="translate(6.728 4.44)" fill="#fff"/>
    <path id="Path_1533" data-name="Path 1533" d="M138.99,89.083l-37.536-40.3L86.018,47.227l-22.1-1.477S57.888,96.635,101.454,150.6C145.021,146.931,138.99,89.083,138.99,89.083Z" transform="translate(7.034 5.056)" fill="#fff" opacity="0.2"/>
    <rect id="Rectangle_2668" data-name="Rectangle 2668" width="2.088" height="2.088" transform="translate(80.444 64.588) rotate(45)" fill="#fff"/>
    <rect id="Rectangle_2669" data-name="Rectangle 2669" width="2.088" height="2.088" transform="translate(85.784 64.566) rotate(45)" fill="#fff"/>
    <rect id="Rectangle_2670" data-name="Rectangle 2670" width="2.088" height="2.088" transform="translate(83.118 61.911) rotate(45)" fill="#fff"/>
    <rect id="Rectangle_2671" data-name="Rectangle 2671" width="2.088" height="2.088" transform="translate(83.109 67.242) rotate(45)" fill="#fff"/>
    <path id="Path_1534" data-name="Path 1534" d="M212.3,54.458l-3.043-3.043,7.3-7.3-7.3-7.3L212.3,33.78l10.339,10.339Zm-1.821-3.043,1.821,1.832,9.129-9.129L212.3,34.99l-1.821,1.821,7.3,7.3Z" transform="translate(23.131 3.733)" fill="#fff"/>
    <path id="Path_1535" data-name="Path 1535" d="M202.051,34.33l-2.421,2.432,7.3,7.3-7.3,7.3,2.421,2.432,7.307-7.3,2.432-2.432Z" transform="translate(22.066 3.794)" fill="#7bdaff" opacity="0.5"/>
    <path id="Path_1536" data-name="Path 1536" d="M158.3,213.22a.589.589,0,0,1,0-1.111,60.136,60.136,0,0,0,24.82-7.529c7.774-4.509,12.494-9.006,13.9-13.326a.589.589,0,0,1,1.111.366c-1.51,4.631-6.363,9.34-14.437,14a61.323,61.323,0,0,1-25.354,7.6Z" transform="translate(17.454 21.102)" fill="#fff"/>
    <path id="Path_1537" data-name="Path 1537" d="M198.615,190.55a.589.589,0,0,1-.577-.566c-.122-3.465-2.643-6.663-7.285-9.384-10.261-5.919-23.643-5.9-37.68.089a.6.6,0,1,1-.455-1.111c14.437-6.13,28.13-6.141,38.713,0,5.009,2.887,7.774,6.474,7.863,10.35a.589.589,0,0,1-.566.6Z" transform="translate(16.828 19.34)" fill="#fff"/>
    <path id="Path_1538" data-name="Path 1538" d="M152.145,214.7h0a31.1,31.1,0,0,1-12.494-3.576c-3.62-2.088-5.875-4.909-6.519-8.162a1.51,1.51,0,0,1,.378-1.3,3.576,3.576,0,0,1,2.865-.966,2.787,2.787,0,0,1,2.687,1.566,9.851,9.851,0,0,0,4.931,5.686c9.118,5.264,26.653,3.687,39.113-3.5,8.04-4.642,12.283-9.373,12.283-13.682,0-3.032-2.154-5.875-6.219-8.229-10.506-6.064-24.754-4.786-39.113,3.5-5.175,2.987-8.884,6.663-10.461,10.317a2.7,2.7,0,0,1-2.5,1.3,3.054,3.054,0,0,1-2.632-1.111,1.322,1.322,0,0,1-.078-1.333c2.11-4.287,6.386-8.373,12.338-11.805a.589.589,0,1,1,.589,1.011c-5.753,3.332-9.862,7.23-11.872,11.316a.155.155,0,0,0,0,.178,2.021,2.021,0,0,0,1.621.544,1.71,1.71,0,0,0,1.455-.589c1.666-3.9,5.553-7.774,10.95-10.872,14.726-8.507,29.407-9.784,40.279-3.5,4.442,2.565,6.808,5.764,6.808,9.24,0,4.82-4.331,9.762-12.871,14.692-12.782,7.374-30.851,8.951-40.279,3.5a11.105,11.105,0,0,1-5.475-6.386c-.089-.311-.733-.666-1.621-.722a2.488,2.488,0,0,0-1.91.566c-.133.155-.122.267-.111.3.577,2.91,2.643,5.464,5.952,7.385a29.874,29.874,0,0,0,11.96,3.52.589.589,0,0,1,0,1.111Z" transform="translate(14.713 19.625)" fill="#fff"/>
    <path id="Path_1539" data-name="Path 1539" d="M163.761,207.927a3.209,3.209,0,0,1-2.332-.855,1.377,1.377,0,0,1-.322-1.377,2.221,2.221,0,0,1,1.8-1.31,37.237,37.237,0,0,0,11.105-4.131c5.4-3.109,8.451-6.23,8.884-9a4.442,4.442,0,0,0-1.421-3.842,1.466,1.466,0,0,1-.422-1.388,2.221,2.221,0,0,1,1.521-1.421,4.053,4.053,0,0,1,4.02.689,7.085,7.085,0,0,1,2.221,5.553c-.222,2.887-2.31,5.864-6.2,8.884a.589.589,0,1,1-.711-.922c3.62-2.787,5.553-5.5,5.753-8.029a5.964,5.964,0,0,0-1.855-4.642,2.987,2.987,0,0,0-2.787-.389c-.511.178-.733.433-.766.589s0,.144.122.3a5.553,5.553,0,0,1,1.744,4.82c-.444,3.187-3.609,6.5-9.406,9.85a38.447,38.447,0,0,1-11.45,4.276c-.555.111-.866.355-.922.533s0,.1.089.233a2.388,2.388,0,0,0,2.055.411A43.878,43.878,0,0,0,177.065,202a.589.589,0,1,1,.589,1.011,45.054,45.054,0,0,1-12.916,4.886A4.031,4.031,0,0,1,163.761,207.927Z" transform="translate(17.801 20.377)" fill="#fff"/>
    <path id="Path_1540" data-name="Path 1540" d="M156.708,209.3h-.178a23.066,23.066,0,0,1-10.694-2.6c-3.065-1.766-4.675-4.242-4.675-7.152,0-4.442,3.876-9.306,10.361-13.049,10.284-5.941,20.556-7.84,28.929-5.375a2.332,2.332,0,0,1,1.71,1.421,1.466,1.466,0,0,1-.344,1.4h0a3.987,3.987,0,0,1-3.887.788c-5.986-1.8-13.537-.522-21.267,3.576-.289.155-.4.311-.4.411s.133.255.333.366a2.8,2.8,0,0,0,2.4,0c7.685-4.065,14.859-4.809,19.656-2.032,1.932,1.111,2.954,2.576,2.954,4.231,0,2.71-2.665,5.619-7.907,8.651-7.2,4.153-16.658,5.442-21.1,2.865a4.6,4.6,0,0,1-2.443-3.332c-.267-1.766.555-3.754,2.4-5.741.111-.111.089-.178.089-.2a1.2,1.2,0,0,0-.533-.444,2.6,2.6,0,0,0-2.5.278c-2.021,2.221-2.976,4.442-2.687,6.408a5.442,5.442,0,0,0,2.976,3.865,16.014,16.014,0,0,0,6.985,1.8c1.488.089,2.565.822,2.61,1.81a1.488,1.488,0,0,1-.455,1.111A3.332,3.332,0,0,1,156.708,209.3ZM172.9,181.236c-6.441,0-13.582,2.132-20.745,6.275-6.13,3.532-9.784,8.04-9.784,12.038,0,2.476,1.41,4.6,4.1,6.141a21.922,21.922,0,0,0,10.139,2.432,2.221,2.221,0,0,0,1.588-.478.367.367,0,0,0,.122-.244c0-.3-.6-.689-1.51-.744a17.169,17.169,0,0,1-7.5-1.955,6.663,6.663,0,0,1-3.543-4.7c-.344-2.3.711-4.92,2.976-7.374a3.687,3.687,0,0,1,3.8-.566,1.888,1.888,0,0,1,1.233,1.266,1.366,1.366,0,0,1-.366,1.244c-1.566,1.7-2.31,3.387-2.1,4.775a3.443,3.443,0,0,0,1.877,2.443c4.142,2.388,13.1,1.111,19.99-2.865,4.731-2.732,7.33-5.442,7.33-7.641,0-1.222-.8-2.31-2.377-3.221-4.442-2.565-11.194-1.821-18.524,2.054a3.931,3.931,0,0,1-3.52,0,1.621,1.621,0,0,1-.922-1.4,1.7,1.7,0,0,1,1.022-1.422c8.007-4.242,15.87-5.553,22.144-3.665a2.887,2.887,0,0,0,2.676-.433h0c.144-.167.111-.267.1-.311a1.817,1.817,0,0,0-.922-.633,25.609,25.609,0,0,0-7.285-1.022Zm8.518,2.332Z" transform="translate(15.603 19.904)" fill="#fff"/>
    <path id="Path_1541" data-name="Path 1541" d="M158.146,200.774a6.985,6.985,0,0,1-3.454-.733,2.61,2.61,0,0,1-1.433-2.321c0-2.088,2.221-4.631,6.008-6.808,6.108-3.532,11.45-4.442,14.648-2.643a2.932,2.932,0,0,1,1.7,2.476c0,1.7-1.544,3.62-4.709,5.686a3.887,3.887,0,0,1-3.709.067,1.655,1.655,0,0,1-.922-1.344,1.555,1.555,0,0,1,.8-1.333c2.543-1.655,2.543-2.332,2.543-2.332-.711-.411-2.854-.056-6.752,2.221-2.7,1.555-3.809,2.887-3.809,3.265a.589.589,0,0,1-.578.589h0a.589.589,0,0,1-.589-.578c0-1.61,3.332-3.687,4.442-4.275,2.665-1.544,6.2-3.176,7.863-2.221a1.177,1.177,0,0,1,.633,1.011c0,.577-.289,1.544-3.076,3.332-.167.111-.267.233-.267.322s.089.222.333.366a2.743,2.743,0,0,0,2.488,0c3.687-2.4,4.209-3.965,4.187-4.675a1.866,1.866,0,0,0-1.111-1.5c-1.333-.766-5.331-2.055-13.482,2.643-3.332,1.9-5.431,4.176-5.431,5.8a1.466,1.466,0,0,0,.844,1.31c1.421.822,4.209.777,7.452-.122a.589.589,0,1,1,.311,1.111,18.791,18.791,0,0,1-4.931.689Z" transform="translate(16.941 20.71)" fill="#fff"/>
    <path id="Path_1542" data-name="Path 1542" d="M150.567,182.313a.377.377,0,0,1-.189,0l-15.37-8.884a.371.371,0,0,1,.366-.644l15.37,8.884a.366.366,0,0,1-.189.689Z" transform="translate(14.903 19.093)" fill="#fff"/>
  </g>
</svg>
