<svg id="terms-and-conditions" xmlns="http://www.w3.org/2000/svg" xmlns:xlink="http://www.w3.org/1999/xlink" width="51.432" height="51.2" viewBox="0 0 51.432 51.2">
  <defs>
    <linearGradient id="linear-gradient" x1="1.132" y1="-3.312" x2="-0.379" y2="15.457" gradientUnits="objectBoundingBox">
      <stop offset="0" stop-color="#fc6076"/>
      <stop offset="1" stop-color="#ff9a44"/>
    </linearGradient>
  </defs>
  <g id="Group_77" data-name="Group 77" transform="translate(0 0)">
    <path id="Path_910" data-name="Path 910" d="M208.421,188.659H168.667a1.839,1.839,0,1,1,0-3.678H208.42a1.839,1.839,0,0,1,0,3.678Zm0,0" transform="translate(-158.829 -184.98)" fill="url(#linear-gradient)"/>
    <path id="Path_911" data-name="Path 911" d="M208.421,236.862H168.667a1.839,1.839,0,1,1,0-3.678H208.42a1.839,1.839,0,0,1,0,3.678Zm0,0" transform="translate(-158.829 -223.544)" fill="url(#linear-gradient)"/>
    <path id="Path_912" data-name="Path 912" d="M208.421,285.062H168.667a1.84,1.84,0,1,1,0-3.679H208.42a1.84,1.84,0,0,1,0,3.679Zm0,0" transform="translate(-158.829 -262.105)" fill="url(#linear-gradient)"/>
    <path id="Path_913" data-name="Path 913" d="M208.421,333.264H168.667a1.839,1.839,0,1,1,0-3.678H208.42a1.839,1.839,0,1,1,0,3.678Zm0,0" transform="translate(-158.829 -300.669)" fill="url(#linear-gradient)"/>
    <path id="Path_914" data-name="Path 914" d="M130.507,186.816a1.84,1.84,0,1,1-1.84-1.84A1.84,1.84,0,0,1,130.507,186.816Zm0,0" transform="translate(-126.828 -184.977)" fill="url(#linear-gradient)"/>
    <path id="Path_915" data-name="Path 915" d="M130.507,235.019a1.84,1.84,0,1,1-1.84-1.84A1.84,1.84,0,0,1,130.507,235.019Zm0,0" transform="translate(-126.828 -223.541)" fill="url(#linear-gradient)"/>
    <path id="Path_916" data-name="Path 916" d="M130.507,283.222a1.84,1.84,0,1,1-1.84-1.839A1.84,1.84,0,0,1,130.507,283.222Zm0,0" transform="translate(-126.828 -262.105)" fill="url(#linear-gradient)"/>
    <path id="Path_917" data-name="Path 917" d="M130.507,331.425a1.84,1.84,0,1,1-1.84-1.84A1.84,1.84,0,0,1,130.507,331.425Zm0,0" transform="translate(-126.828 -300.669)" fill="url(#linear-gradient)"/>
  </g>
  <path id="Path_922" data-name="Path 922" d="M141.529,409.639a1.537,1.537,0,0,1-.954-.332l-1.9-1.5a1.539,1.539,0,0,1,1.909-2.414l.708.559,2.925-3.59a1.539,1.539,0,0,1,2.386,1.945l-3.883,4.766A1.537,1.537,0,0,1,141.529,409.639Zm0,0" transform="translate(-135.841 -358.439)" fill="url(#linear-gradient)"/>
  <path id="Path_923" data-name="Path 923" d="M251.811,417.35H222.9a1.839,1.839,0,1,1,0-3.678h28.909a1.839,1.839,0,1,1,0,3.678Zm0,0" transform="translate(-202.219 -367.941)" fill="url(#linear-gradient)"/>
</svg>
