<svg xmlns="http://www.w3.org/2000/svg" xmlns:xlink="http://www.w3.org/1999/xlink" width="816.301" height="465.632" viewBox="0 0 816.301 465.632">
  <defs>
    <linearGradient id="linear-gradient" x1="0.007" y1="0.5" x2="1.003" y2="0.5" gradientUnits="objectBoundingBox">
      <stop offset="0" stop-color="#4d4d4d"/>
      <stop offset="0.02" stop-color="#646565"/>
      <stop offset="0.05" stop-color="#838484"/>
      <stop offset="0.08" stop-color="#9e9ea0"/>
      <stop offset="0.12" stop-color="#b3b4b6"/>
      <stop offset="0.16" stop-color="#c4c5c7"/>
      <stop offset="0.21" stop-color="#d0d0d2"/>
      <stop offset="0.29" stop-color="#d6d7d9"/>
      <stop offset="0.5" stop-color="#d8d9db"/>
      <stop offset="0.71" stop-color="#d6d7d9"/>
      <stop offset="0.78" stop-color="#d0d0d2"/>
      <stop offset="0.84" stop-color="#c4c5c7"/>
      <stop offset="0.88" stop-color="#b3b4b6"/>
      <stop offset="0.92" stop-color="#9e9ea0"/>
      <stop offset="0.95" stop-color="#838484"/>
      <stop offset="0.98" stop-color="#646565"/>
      <stop offset="0.99" stop-color="#4d4d4d"/>
    </linearGradient>
    <filter id="Oval" x="475.061" y="348.01" width="18.611" height="18.611" filterUnits="userSpaceOnUse">
      <feOffset dy="4" input="SourceAlpha"/>
      <feGaussianBlur stdDeviation="2" result="blur"/>
      <feFlood flood-opacity="0.078"/>
      <feComposite operator="in" in2="blur"/>
      <feComposite in="SourceGraphic"/>
    </filter>
    <filter id="Oval-2" x="512.08" y="311.872" width="18.611" height="18.611" filterUnits="userSpaceOnUse">
      <feOffset dy="4" input="SourceAlpha"/>
      <feGaussianBlur stdDeviation="2" result="blur-2"/>
      <feFlood flood-opacity="0.078"/>
      <feComposite operator="in" in2="blur-2"/>
      <feComposite in="SourceGraphic"/>
    </filter>
    <filter id="Oval-3" x="552.186" y="276.615" width="18.611" height="18.611" filterUnits="userSpaceOnUse">
      <feOffset dy="4" input="SourceAlpha"/>
      <feGaussianBlur stdDeviation="2" result="blur-3"/>
      <feFlood flood-opacity="0.078"/>
      <feComposite operator="in" in2="blur-3"/>
      <feComposite in="SourceGraphic"/>
    </filter>
    <filter id="Oval-4" x="587.441" y="240.918" width="18.611" height="18.611" filterUnits="userSpaceOnUse">
      <feOffset dy="4" input="SourceAlpha"/>
      <feGaussianBlur stdDeviation="2" result="blur-4"/>
      <feFlood flood-opacity="0.078"/>
      <feComposite operator="in" in2="blur-4"/>
      <feComposite in="SourceGraphic"/>
    </filter>
    <filter id="Oval-5" x="624.902" y="205.661" width="18.611" height="18.611" filterUnits="userSpaceOnUse">
      <feOffset dy="4" input="SourceAlpha"/>
      <feGaussianBlur stdDeviation="2" result="blur-5"/>
      <feFlood flood-opacity="0.078"/>
      <feComposite operator="in" in2="blur-5"/>
      <feComposite in="SourceGraphic"/>
    </filter>
  </defs>
  <g id="Group_1298" data-name="Group 1298" transform="translate(-2841 -989)">
    <g id="Desktop" transform="translate(2841 989)">
      <g id="Layer_1" data-name="Layer 1">
        <rect id="Rectangle_2409" data-name="Rectangle 2409" width="657.13" height="454.692" rx="18.46" transform="translate(82.143)" fill="#e0e0e0"/>
        <path id="Path_966" data-name="Path 966" d="M90.122,1.7H702.8a20.184,20.184,0,0,1,20.184,20.184V432.128A20.172,20.172,0,0,1,702.816,452.3H90.122A20.172,20.172,0,0,1,69.95,432.128V21.872A20.172,20.172,0,0,1,90.122,1.7Z" transform="translate(14.239 0.346)" fill="#eaeaea"/>
        <rect id="Rectangle_2410" data-name="Rectangle 2410" width="518.348" height="15.309" transform="translate(147.448 431.114)" fill="#e2e2e2"/>
        <path id="Path_967" data-name="Path 967" d="M90.122,1.7H702.8a20.184,20.184,0,0,1,20.184,20.184V411.728A20.172,20.172,0,0,1,702.816,431.9H90.122A20.172,20.172,0,0,1,69.95,411.728V21.872A20.172,20.172,0,0,1,90.122,1.7Z" transform="translate(14.239 0.346)" fill="#e2e2e2"/>
        <rect id="Rectangle_2411" data-name="Rectangle 2411" width="648.958" height="426.119" rx="15.07" transform="translate(86.223 4.08)" fill="#f2f3f4"/>
        <path id="Path_968" data-name="Path 968" d="M816.3,379.14c0,8.569-21.664,9.315-33.158,9.315H33.158C21.664,388.456,0,387.721,0,379.14Z" transform="translate(0 77.176)" fill="#eaeaea"/>
        <rect id="Rectangle_2412" data-name="Rectangle 2412" width="406.61" height="14.286" transform="translate(0 441.14)" fill="#f2f3f4"/>
        <rect id="Rectangle_2413" data-name="Rectangle 2413" width="409.691" height="14.286" transform="translate(406.61 441.14)" fill="#f2f3f4"/>
        <path id="Path_969" data-name="Path 969" d="M346.424,366.53H295.67a13.925,13.925,0,0,0,12.168,7.149h82.817a13.926,13.926,0,0,0,12.169-7.151Z" transform="translate(60.186 74.609)" fill="url(#linear-gradient)"/>
        <rect id="Rectangle_2414" data-name="Rectangle 2414" width="617.328" height="390.867" transform="translate(101.532 21.375)" fill="#fff"/>
      </g>
    </g>
    <g id="Main" transform="translate(2954.068 1041.972)">
      <rect id="Rectangle-path" width="589.229" height="319.514" rx="4" fill="#fff" stroke="#f0f3f4" stroke-miterlimit="10" stroke-width="1"/>
      <path id="Lines" d="M589.229,142.79H0v-.441H589.229v.44Zm0-35.256H0v-.441H589.229v.441Zm0-35.7H0v-.441H589.229v.44Zm0-35.7H0V35.7H589.229v.44Zm0-35.7H0V0H589.229V.44Z" transform="translate(0 138.824)" fill="#e9eff4"/>
      <g id="Internship_Students" data-name="Internship Students" transform="translate(18.51 294.614)">
        <g id="Amount" transform="translate(81.311 0)">
          <path id="Shape" d="M3.085,11.458a1.322,1.322,0,0,1-1.322-1.322V7.2L0,5.729,1.763,4.26V1.322A1.322,1.322,0,0,1,3.085,0H35.7A1.322,1.322,0,0,1,37.02,1.322v8.814A1.322,1.322,0,0,1,35.7,11.458Z" transform="translate(0 0)" fill="#969ba1"/>
          <text id="_9633.17" data-name="$ 9633.17" transform="translate(14.756 5.295)" fill="#fff" font-size="1" font-family="Lato-Bold, Lato" font-weight="700" letter-spacing="0.042em"><tspan x="-2.437" y="0">$ 9633.17</tspan></text>
        </g>
        <text id="Internship_Students-2" data-name="Internship Students" transform="translate(0 5.47)" fill="#323c47" font-size="2" font-family="Lato-Regular, Lato"><tspan x="0" y="0">Internship Students</tspan></text>
        <g id="Gray_bar" data-name="Gray bar" transform="translate(343.313 2.424)">
          <rect id="Rectangle_" data-name="Rectangle " width="205.811" height="3.526" rx="1.763" transform="translate(0 1.763)" fill="#e9eff4"/>
          <rect id="Rectangle_2" data-name="Rectangle " width="10.136" height="3.526" rx="1.763" transform="translate(0 1.763)" fill="#969ba1"/>
          <g transform="matrix(1, 0, 0, 1, -474.89, -350.01)" filter="url(#Oval)">
            <circle id="Oval-6" data-name="Oval" cx="3.305" cy="3.305" r="3.305" transform="translate(481.06 350.01)" fill="#fff"/>
          </g>
          <circle id="Oval_" data-name="Oval " cx="1.983" cy="1.983" r="1.983" transform="translate(7.492 1.322)" fill="#969ba1"/>
        </g>
      </g>
      <g id="Public_Relations" data-name="Public Relations" transform="translate(18.51 258.476)">
        <g id="Amount-2" data-name="Amount" transform="translate(67.649 0)">
          <path id="Shape-2" data-name="Shape" d="M3.085,11.458a1.322,1.322,0,0,1-1.322-1.322V7.2L0,5.729,1.763,4.26V1.322A1.322,1.322,0,0,1,3.085,0h35.7A1.322,1.322,0,0,1,40.1,1.322v8.814a1.322,1.322,0,0,1-1.322,1.322Z" transform="translate(0 0)" fill="#fc8650"/>
          <text id="_11420.51" data-name="$ 11420.51" transform="translate(16.125 5.295)" fill="#fff" font-size="1" font-family="Lato-Bold, Lato" font-weight="700" letter-spacing="0.042em"><tspan x="-2.748" y="0">$ 11420.51</tspan></text>
        </g>
        <text id="Public_Relations-2" data-name="Public Relations" transform="translate(0 5.47)" fill="#323c47" font-size="2" font-family="Lato-Regular, Lato"><tspan x="0" y="0">Public Relations</tspan></text>
        <g id="Red_bar" data-name="Red bar" transform="translate(343.313 2.424)">
          <rect id="Rectangle_3" data-name="Rectangle " width="205.811" height="3.526" rx="1.763" transform="translate(0 1.763)" fill="#e9eff4"/>
          <rect id="Rectangle_4" data-name="Rectangle " width="46.274" height="3.526" rx="1.763" transform="translate(0 1.763)" fill="#fc8650"/>
          <g transform="matrix(1, 0, 0, 1, -474.89, -313.87)" filter="url(#Oval-2)">
            <circle id="Oval-7" data-name="Oval" cx="3.305" cy="3.305" r="3.305" transform="translate(518.08 313.87)" fill="#fff"/>
          </g>
          <circle id="Oval_2" data-name="Oval " cx="1.983" cy="1.983" r="1.983" transform="translate(44.512 1.322)" fill="#fc8650"/>
        </g>
      </g>
      <g id="Management_Directory" data-name="Management Directory" transform="translate(18.51 223.219)">
        <g id="Amount-3" data-name="Amount" transform="translate(94.973 0)">
          <path id="Shape-3" data-name="Shape" d="M3.085,11.458a1.322,1.322,0,0,1-1.322-1.322V7.2L0,5.729,1.763,4.26V1.322A1.322,1.322,0,0,1,3.085,0h35.7A1.322,1.322,0,0,1,40.1,1.322v8.814a1.322,1.322,0,0,1-1.322,1.322Z" transform="translate(0 0)" fill="#fdcf2f"/>
          <text id="_12379.69" data-name="$ 12379.69" transform="translate(15.685 5.736)" fill="#fff" font-size="1" font-family="Lato-Bold, Lato" font-weight="700" letter-spacing="0.042em"><tspan x="-2.748" y="0">$ 12379.69</tspan></text>
        </g>
        <text id="Management_Directory-2" data-name="Management Directory" transform="translate(0 5.47)" fill="#323c47" font-size="2" font-family="Lato-Regular, Lato"><tspan x="0" y="0">Management Directory</tspan></text>
        <g id="Yellow_bar" data-name="Yellow bar" transform="translate(343.313 2.424)">
          <rect id="Rectangle_5" data-name="Rectangle " width="205.811" height="3.526" rx="1.763" transform="translate(0 1.763)" fill="#e9eff4"/>
          <rect id="Rectangle_6" data-name="Rectangle " width="86.82" height="3.526" rx="1.763" transform="translate(0 1.763)" fill="#fdcf2f"/>
          <g transform="matrix(1, 0, 0, 1, -474.89, -278.62)" filter="url(#Oval-3)">
            <circle id="Oval-8" data-name="Oval" cx="3.305" cy="3.305" r="3.305" transform="translate(558.18 278.62)" fill="#fff"/>
          </g>
          <circle id="Oval_3" data-name="Oval " cx="1.983" cy="1.983" r="1.983" transform="translate(84.616 1.322)" fill="#fdcf2f"/>
        </g>
      </g>
      <g id="Marketing_Campaign" data-name="Marketing Campaign" transform="translate(18.51 187.522)">
        <g id="Amount-4" data-name="Amount" transform="translate(85.277 0)">
          <path id="Shape-4" data-name="Shape" d="M3.085,11.458a1.322,1.322,0,0,1-1.322-1.322V7.2L0,5.729,1.763,4.26V1.322A1.322,1.322,0,0,1,3.085,0H37.9a1.322,1.322,0,0,1,1.322,1.322v8.814A1.322,1.322,0,0,1,37.9,11.458Z" transform="translate(0 0)" fill="#7ed321"/>
          <text id="_23605.11" data-name="$ 23605.11" transform="translate(15.244 5.736)" fill="#fff" font-size="1" font-family="Lato-Bold, Lato" font-weight="700" letter-spacing="0.042em"><tspan x="-2.748" y="0">$ 23605.11</tspan></text>
        </g>
        <text id="Marketing_Campaign-2" data-name="Marketing Campaign" transform="translate(0 5.47)" fill="#323c47" font-size="2" font-family="Lato-Regular, Lato"><tspan x="0" y="0">Marketing Campaign</tspan></text>
        <g id="Green_bar" data-name="Green bar" transform="translate(343.313 2.424)">
          <rect id="Rectangle_7" data-name="Rectangle " width="205.811" height="3.526" rx="1.763" transform="translate(0 1.763)" fill="#e9eff4"/>
          <rect id="Rectangle_8" data-name="Rectangle " width="120.314" height="3.526" rx="1.763" transform="translate(0 1.763)" fill="#7ed321"/>
          <g transform="matrix(1, 0, 0, 1, -474.89, -242.92)" filter="url(#Oval-4)">
            <circle id="Oval-9" data-name="Oval" cx="3.305" cy="3.305" r="3.305" transform="translate(593.44 242.92)" fill="#fff"/>
          </g>
          <circle id="Oval_4" data-name="Oval " cx="1.983" cy="1.983" r="1.983" transform="translate(119.873 1.322)" fill="#7ed321"/>
        </g>
      </g>
      <g id="User_Experience_Design" data-name="User Experience Design" transform="translate(18.951 152.265)">
        <text id="User_Experience_Desi" data-name="User Experience Desi" transform="translate(0 5.03)" fill="#323c47" font-size="2" font-family="Lato-Regular, Lato"><tspan x="0" y="0">User Experience Design</tspan></text>
        <g id="Blue_bar" data-name="Blue bar" transform="translate(342.872 2.424)">
          <rect id="Rectangle_9" data-name="Rectangle " width="205.811" height="3.526" rx="1.763" transform="translate(0 1.763)" fill="#e9eff4"/>
          <rect id="Rectangle_10" data-name="Rectangle " width="159.096" height="3.526" rx="1.763" transform="translate(0 1.763)" fill="#56a2fd"/>
          <g transform="matrix(1, 0, 0, 1, -474.89, -207.66)" filter="url(#Oval-5)">
            <circle id="Oval-10" data-name="Oval" cx="3.305" cy="3.305" r="3.305" transform="translate(630.9 207.66)" fill="#fff"/>
          </g>
          <circle id="Oval_5" data-name="Oval " cx="1.983" cy="1.983" r="1.983" transform="translate(157.333 1.322)" fill="#56a2fd"/>
        </g>
        <g id="Amount-5" data-name="Amount" transform="translate(95.854 0)">
          <path id="Shape-5" data-name="Shape" d="M39.223,11.458H3.085a1.322,1.322,0,0,1-1.322-1.322V7.2L0,5.729,1.763,4.26V1.322A1.322,1.322,0,0,1,3.085,0H39.223a1.322,1.322,0,0,1,1.322,1.322v8.814a1.322,1.322,0,0,1-1.322,1.322Z" transform="translate(0 0)" fill="#4da1ff"/>
          <text id="_81033.61" data-name="$ 81033.61" transform="translate(15.685 5.736)" fill="#fff" font-size="1" font-family="Lato-Bold, Lato" font-weight="700" letter-spacing="0.042em"><tspan x="-2.748" y="0">$ 81033.61</tspan></text>
        </g>
      </g>
      <g id="Analytics" transform="translate(361.822 25.12)">
        <g id="Labels" transform="translate(6.959 80.999)">
          <text id="Aug" transform="translate(186.959 2.081)" fill="#939eab" font-size="1" font-family="Lato-Regular, Lato"><tspan x="-0.871" y="0">Aug</tspan></text>
          <text id="Jul" transform="translate(159.015 1)" fill="#939eab" font-size="1" font-family="Lato-Regular, Lato"><tspan x="-0.601" y="0">Jul</tspan></text>
          <text id="Jun" transform="translate(133.213 1)" fill="#939eab" font-size="1" font-family="Lato-Regular, Lato"><tspan x="-0.762" y="0">Jun</tspan></text>
          <text id="May" transform="translate(108.292 2.081)" fill="#939eab" font-size="1" font-family="Lato-Regular, Lato"><tspan x="-0.957" y="0">May</tspan></text>
          <text id="Apr" transform="translate(80.548 2.081)" fill="#939eab" font-size="1" font-family="Lato-Regular, Lato"><tspan x="-0.8" y="0">Apr</tspan></text>
          <text id="Mar" transform="translate(55.407 2.081)" fill="#939eab" font-size="1" font-family="Lato-Regular, Lato"><tspan x="-0.887" y="0">Mar</tspan></text>
          <text id="Feb" transform="translate(28.324 2.081)" fill="#939eab" font-size="1" font-family="Lato-Regular, Lato"><tspan x="-0.805" y="0">Feb</tspan></text>
          <text id="Jan" transform="translate(1 2.081)" fill="#939eab" font-size="1" font-family="Lato-Regular, Lato"><tspan x="-0.729" y="0">Jan</tspan></text>
        </g>
        <path id="Graph" d="M204.048,53.326a1.214,1.214,0,0,1-1.322-1.06V22.938a1.354,1.354,0,0,1,2.644,0V52.266A1.214,1.214,0,0,1,204.048,53.326Zm-8.814,0a1.214,1.214,0,0,1-1.322-1.06V32.3a1.354,1.354,0,0,1,2.643,0V52.266A1.214,1.214,0,0,1,195.234,53.326Zm-8.814,0a1.214,1.214,0,0,1-1.322-1.06v-12.2a1.354,1.354,0,0,1,2.644,0v12.2A1.214,1.214,0,0,1,186.42,53.326Zm-8.814,0a1.214,1.214,0,0,1-1.322-1.06V10.4a1.354,1.354,0,0,1,2.644,0V52.266A1.214,1.214,0,0,1,177.606,53.326Zm-8.814,0a1.214,1.214,0,0,1-1.322-1.06V5.457a1.354,1.354,0,0,1,2.644,0V52.266A1.214,1.214,0,0,1,168.792,53.326Zm-8.814,0a1.214,1.214,0,0,1-1.322-1.06V1.059a1.354,1.354,0,0,1,2.644,0V52.266A1.214,1.214,0,0,1,159.977,53.326Zm-8.814,0a1.214,1.214,0,0,1-1.322-1.06V12.343a1.354,1.354,0,0,1,2.643,0V52.266A1.214,1.214,0,0,1,151.163,53.326Zm-8.814,0a1.214,1.214,0,0,1-1.322-1.06V16.052a1.354,1.354,0,0,1,2.644,0V52.266A1.214,1.214,0,0,1,142.349,53.326Zm-8.815,0a1.214,1.214,0,0,1-1.322-1.06V19.583a1.354,1.354,0,0,1,2.644,0V52.266A1.214,1.214,0,0,1,133.535,53.326Zm-8.814,0a1.214,1.214,0,0,1-1.322-1.06V27.706a1.354,1.354,0,0,1,2.644,0v24.56A1.214,1.214,0,0,1,124.721,53.326Zm-8.814,0a1.214,1.214,0,0,1-1.322-1.06V17.1a1.354,1.354,0,0,1,2.643,0v35.17A1.214,1.214,0,0,1,115.907,53.326Zm-8.814,0a1.214,1.214,0,0,1-1.322-1.06V13.918a1.354,1.354,0,0,1,2.644,0V52.266A1.214,1.214,0,0,1,107.092,53.326Zm-8.815,0a1.214,1.214,0,0,1-1.322-1.06V19.216a1.354,1.354,0,0,1,2.644,0v33.05A1.214,1.214,0,0,1,98.278,53.326Zm-8.814,0a1.214,1.214,0,0,1-1.322-1.06v-33.4a1.354,1.354,0,0,1,2.644,0v33.4A1.214,1.214,0,0,1,89.463,53.326Zm-8.814,0a1.214,1.214,0,0,1-1.322-1.06V21.687a1.355,1.355,0,0,1,2.644,0V52.266A1.215,1.215,0,0,1,80.649,53.326Zm-8.814,0a1.214,1.214,0,0,1-1.322-1.06V28.4a1.354,1.354,0,0,1,2.643,0V52.266A1.214,1.214,0,0,1,71.835,53.326Zm-8.814,0a1.214,1.214,0,0,1-1.322-1.06V25.233a1.354,1.354,0,0,1,2.643,0V52.266A1.214,1.214,0,0,1,63.021,53.326Zm-8.814,0a1.214,1.214,0,0,1-1.322-1.06V24.5a1.354,1.354,0,0,1,2.644,0V52.266A1.214,1.214,0,0,1,54.207,53.326Zm-8.815,0a1.214,1.214,0,0,1-1.322-1.06V24.5a1.354,1.354,0,0,1,2.644,0V52.266A1.214,1.214,0,0,1,45.393,53.326Zm-8.814,0a1.214,1.214,0,0,1-1.322-1.06V27.5a1.354,1.354,0,0,1,2.643,0V52.266A1.214,1.214,0,0,1,36.578,53.326Zm-8.814,0a1.214,1.214,0,0,1-1.322-1.06V28.559a1.354,1.354,0,0,1,2.644,0V52.266A1.214,1.214,0,0,1,27.764,53.326Zm-8.814,0a1.215,1.215,0,0,1-1.322-1.06V35.976a1.214,1.214,0,0,1,1.322-1.059,1.214,1.214,0,0,1,1.322,1.059v16.29A1.214,1.214,0,0,1,18.95,53.326Zm-8.814,0a1.214,1.214,0,0,1-1.322-1.06V24.88a1.214,1.214,0,0,1,1.322-1.059,1.214,1.214,0,0,1,1.322,1.059V52.266A1.214,1.214,0,0,1,10.136,53.326Zm-8.814,0A1.214,1.214,0,0,1,0,52.266V37.417a1.214,1.214,0,0,1,1.322-1.059,1.214,1.214,0,0,1,1.322,1.059V52.266A1.214,1.214,0,0,1,1.322,53.326Z" transform="translate(0 21.154)" fill="#4da1ff"/>
        <text id="Year_2021" data-name="Year 2021" transform="translate(177.165 4.193)" fill="#939eab" font-size="1" font-family="Lato-Regular, Lato"><tspan x="0" y="0">Year 2021</tspan></text>
        <g id="New" transform="translate(48.919 0)">
          <rect id="Rectangle" width="20.273" height="9.696" rx="4.848" fill="#fc8650"/>
          <text id="NEW-2" data-name="NEW" transform="translate(5.756 3.552)" fill="#fff" font-size="1" font-family="Lato-Bold, Lato" font-weight="700" letter-spacing="0.042em"><tspan x="-1.24" y="0">NEW</tspan></text>
        </g>
        <text id="Analytics-2" data-name="Analytics" transform="translate(0 4.077)" fill="#323c47" font-size="2" font-family="Lato-Regular, Lato"><tspan x="0" y="0">Analytics</tspan></text>
      </g>
      <g id="Left_Area" data-name="Left Area" transform="translate(18.939 45.393)">
        <g id="Components_Button_Basic" data-name="Components / Button / Basic" transform="translate(0 41.058)">
          <rect id="Components_Button_Basic_background" data-name="Components / Button / Basic background" width="89.103" height="15.75" transform="translate(0 10.027)" fill="rgba(0,0,0,0)"/>
          <g id="Cta" transform="translate(0)">
            <rect id="Rectangle-2" data-name="Rectangle" width="89.103" height="22.532" rx="4" fill="#4da1ff"/>
            <text id="CONTINUE_TO_STEP_4" data-name="CONTINUE TO STEP 4" transform="translate(4.429 4.652)" fill="#fff" font-size="10" font-family="Lato-Bold, Lato" font-weight="700" letter-spacing="0.042em"><tspan x="7.918" y="10">DOWNLOAD </tspan></text>
          </g>
        </g>
        <text id="The_initial_results" data-name="The initial results" transform="translate(0.893 0)" fill="#939eab" font-size="12" font-family="Lato-Regular, Lato"><tspan x="0" y="12">The initial results of using these models to </tspan><tspan x="0" y="27">estimate.</tspan></text>
      </g>
    </g>
  </g>
</svg>
