<svg xmlns="http://www.w3.org/2000/svg" width="92.803" height="92.742" viewBox="0 0 92.803 92.742">
  <g id="merchant" transform="translate(0 0)">
    <path id="Path_27" data-name="Path 27" d="M195.314,143.7v4.972a1.657,1.657,0,0,1-1.657,1.657H192v19.886h13.258V150.332H203.6a1.657,1.657,0,0,1-1.657-1.657V143.7Zm0,0" transform="translate(-152.227 -113.935)" fill="#fff"/>
    <path id="Path_28" data-name="Path 28" d="M56,175.7h3.314v26.515H56Zm0,0" transform="translate(-44.4 -139.306)" fill="#fff"/>
    <path id="Path_29" data-name="Path 29" d="M49.943,143.7H40v3.314h9.943Zm0,0" transform="translate(-31.714 -113.935)" fill="#fff"/>
    <path id="Path_30" data-name="Path 30" d="M272,175.7h3.314v19.886H272Zm0,0" transform="translate(-215.655 -139.306)" fill="#fff"/>
    <path id="Path_31" data-name="Path 31" d="M96.286,183.476V178.5a1.657,1.657,0,0,1,1.657-1.657H99.6V150.332H97.943a1.657,1.657,0,0,1-1.657-1.657V143.7H91.314v4.972a1.657,1.657,0,0,1-1.657,1.657H88v26.515h1.657a1.657,1.657,0,0,1,1.657,1.657v4.972Zm0,0" transform="translate(-69.771 -113.935)" fill="#fff"/>
    <path id="Path_32" data-name="Path 32" d="M49.943,319.7H40v3.314h9.943Zm0,0" transform="translate(-31.714 -253.476)" fill="#fff"/>
    <path id="Path_33" data-name="Path 33" d="M315.6,150.332h-1.657a1.657,1.657,0,0,1-1.657-1.657V143.7h-4.972v4.972a1.657,1.657,0,0,1-1.657,1.657H304v19.886h11.6Zm0,0" transform="translate(-241.026 -113.935)" fill="#fff"/>
    <path id="Path_34" data-name="Path 34" d="M376,175.7h3.314v19.886H376Zm0,0" transform="translate(-298.111 -139.306)" fill="#fff"/>
    <path id="Path_35" data-name="Path 35" d="M369.943,147.017V143.7H360v3.314Zm0,0" transform="translate(-285.426 -113.935)" fill="#fff"/>
    <path id="Path_36" data-name="Path 36" d="M219.314,57.36a1.657,1.657,0,1,1-1.657-1.657,1.657,1.657,0,0,1,1.657,1.657Zm0,0" transform="translate(-171.256 -44.164)" fill="#fff"/>
    <path id="Path_37" data-name="Path 37" d="M0,12.8V26.454H92.8V12.8L46.4,0Zm88.273,2.187a1.657,1.657,0,0,1,1.216,1.6v4.9a1.657,1.657,0,0,1-1.657,1.657H4.972a1.657,1.657,0,0,1-1.657-1.657v-4.9a1.657,1.657,0,0,1,1.216-1.6L45.961,3.555a1.633,1.633,0,0,1,.882,0Zm0,0" transform="translate(0 0)" fill="#fff"/>
    <path id="Path_38" data-name="Path 38" d="M265.943,147.017V143.7H256v3.314Zm0,0" transform="translate(-202.97 -113.935)" fill="#fff"/>
    <path id="Path_39" data-name="Path 39" d="M32,44.172v1.975h79.546V44.172L71.773,33.2Zm44.744-4.654a4.972,4.972,0,1,1-4.972-4.972A4.972,4.972,0,0,1,76.744,39.518Zm0,0" transform="translate(-25.371 -26.322)" fill="#fff"/>
    <path id="Path_40" data-name="Path 40" d="M160,175.7h3.314v26.515H160Zm0,0" transform="translate(-126.856 -139.306)" fill="#fff"/>
    <path id="Path_41" data-name="Path 41" d="M245.03,351.7H192v19.886h53.03Zm-44.744,13.258h-3.314a1.657,1.657,0,0,1,0-3.314h3.314a1.657,1.657,0,1,1,0,3.314Zm19.886,0H206.915a1.657,1.657,0,0,1,0-3.314h13.258a1.657,1.657,0,0,1,0,3.314Zm16.572,3.314a4.942,4.942,0,0,1-3.314-1.292,4.972,4.972,0,1,1,0-7.358,4.971,4.971,0,1,1,3.314,8.65Zm0,0" transform="translate(-152.227 -278.848)" fill="#fff"/>
    <path id="Path_42" data-name="Path 42" d="M371.314,401.36a1.657,1.657,0,1,1-1.657-1.657A1.657,1.657,0,0,1,371.314,401.36Zm0,0" transform="translate(-291.769 -316.904)" fill="#fff"/>
    <path id="Path_43" data-name="Path 43" d="M403.314,401.36a1.657,1.657,0,1,1-1.657-1.657A1.657,1.657,0,0,1,403.314,401.36Zm0,0" transform="translate(-317.14 -316.904)" fill="#fff"/>
    <path id="Path_44" data-name="Path 44" d="M192,287.7h53.03v3.314H192Zm0,0" transform="translate(-152.227 -228.105)" fill="#fff"/>
    <path id="Path_45" data-name="Path 45" d="M192,319.7h53.03v3.314H192Zm0,0" transform="translate(-152.227 -253.476)" fill="#fff"/>
    <path id="Path_46" data-name="Path 46" d="M16,351.7H49.144v3.314H16Zm0,0" transform="translate(-12.686 -278.848)" fill="#fff"/>
    <path id="Path_47" data-name="Path 47" d="M150.629,319.7H144v3.314h6.629Zm0,0" transform="translate(-114.17 -253.476)" fill="#fff"/>
    <path id="Path_48" data-name="Path 48" d="M0,383.7H36.458v3.314H0Zm0,0" transform="translate(0 -304.219)" fill="#fff"/>
    <path id="Path_49" data-name="Path 49" d="M153.943,147.017V143.7H144v3.314Zm0,0" transform="translate(-114.17 -113.935)" fill="#fff"/>
  </g>
</svg>
