<svg xmlns="http://www.w3.org/2000/svg" width="32.314" height="32.314" viewBox="0 0 32.314 32.314">
  <g id="statistics" transform="translate(0 0)">
    <path id="Path_71" data-name="Path 71" d="M33.84,15.147a2.826,2.826,0,0,0,1.966-.8l2.8,1.4a2.781,2.781,0,0,0-.035.344,2.84,2.84,0,0,0,5.68,0,2.806,2.806,0,0,0-.285-1.217l3.8-3.8a2.806,2.806,0,0,0,1.217.285,2.843,2.843,0,0,0,2.84-2.84,2.8,2.8,0,0,0-.142-.841l3.3-2.477A2.838,2.838,0,1,0,53.721,2.84a2.8,2.8,0,0,0,.142.841l-3.3,2.477a2.828,2.828,0,0,0-4.128,3.579l-3.8,3.8a2.791,2.791,0,0,0-3.183.514l-2.8-1.4a2.781,2.781,0,0,0,.035-.344,2.84,2.84,0,1,0-2.84,2.84Zm0,0" transform="translate(-29.043 0)" fill="#071828"/>
    <path id="Path_72" data-name="Path 72" d="M31.368,170.954h-1.01V150.947a.946.946,0,0,0-.947-.947H25.624a.946.946,0,0,0-.947.947v20.007H22.784V156.627a.946.946,0,0,0-.947-.947H18.051a.946.946,0,0,0-.947.947v14.327H15.211V164.2a.946.946,0,0,0-.947-.947H10.477a.946.946,0,0,0-.947.947v6.753H7.637v-10.54a.946.946,0,0,0-.947-.947H2.9a.946.946,0,0,0-.947.947v10.54H.947a.947.947,0,0,0,0,1.893H31.368a.947.947,0,0,0,0-1.893Zm0,0" transform="translate(0 -140.533)" fill="#071828"/>
  </g>
</svg>
