<svg xmlns="http://www.w3.org/2000/svg" xmlns:xlink="http://www.w3.org/1999/xlink" width="689" height="689" viewBox="0 0 689 689">
  <defs>
    <filter id="Path_965" x="0" y="0" width="689" height="689" filterUnits="userSpaceOnUse">
      <feOffset dy="5" input="SourceAlpha"/>
      <feGaussianBlur stdDeviation="6.5" result="blur"/>
      <feFlood flood-color="#1c1c1c" flood-opacity="0.749"/>
      <feComposite operator="in" in2="blur"/>
      <feComposite in="SourceGraphic"/>
    </filter>
  </defs>
  <g transform="matrix(1, 0, 0, 1, 0, 0)" filter="url(#Path_965)">
    <g id="Path_965-2" data-name="Path 965" transform="translate(19.5 14.5)" fill="none">
      <path d="M325,0C504.493,0,650,145.507,650,325S504.493,650,325,650,0,504.493,0,325,145.507,0,325,0Z" stroke="none"/>
      <path d="M 325 150 C 228.5047607421875 150 150 228.5047607421875 150 325 C 150 421.4952392578125 228.5047607421875 500 325 500 C 421.4952392578125 500 500 421.4952392578125 500 325 C 500 228.5047607421875 421.4952392578125 150 325 150 M 325 0 C 504.4924926757813 0 650 145.5075073242188 650 325 C 650 504.4924926757813 504.4924926757813 650 325 650 C 145.5075073242188 650 0 504.4924926757813 0 325 C 0 145.5075073242188 145.5075073242188 0 325 0 Z" stroke="none" fill="#091723"/>
    </g>
  </g>
</svg>
