<svg xmlns="http://www.w3.org/2000/svg" xmlns:xlink="http://www.w3.org/1999/xlink" width="1366" height="530" viewBox="0 0 1366 530">
  <defs>
    <linearGradient id="linear-gradient" x1="-0.135" y1="-0.21" x2="2.179" y2="2.309" gradientUnits="objectBoundingBox">
      <stop offset="0" stop-color="#53f"/>
      <stop offset="0.444" stop-color="#05d5ff"/>
      <stop offset="1" stop-color="#a6ffcb"/>
    </linearGradient>
    <filter id="Ellipse_61" x="205" y="333" width="34" height="34" filterUnits="userSpaceOnUse">
      <feOffset dy="3" input="SourceAlpha"/>
      <feGaussianBlur stdDeviation="3" result="blur"/>
      <feFlood flood-opacity="0.161"/>
      <feComposite operator="in" in2="blur"/>
      <feComposite in="SourceGraphic"/>
    </filter>
    <filter id="Ellipse_62" x="480" y="159" width="27" height="27" filterUnits="userSpaceOnUse">
      <feOffset dy="3" input="SourceAlpha"/>
      <feGaussianBlur stdDeviation="3" result="blur-2"/>
      <feFlood flood-opacity="0.161"/>
      <feComposite operator="in" in2="blur-2"/>
      <feComposite in="SourceGraphic"/>
    </filter>
    <filter id="Ellipse_63" x="1113" y="159" width="37" height="36" filterUnits="userSpaceOnUse">
      <feOffset dy="3" input="SourceAlpha"/>
      <feGaussianBlur stdDeviation="3" result="blur-3"/>
      <feFlood flood-opacity="0.161"/>
      <feComposite operator="in" in2="blur-3"/>
      <feComposite in="SourceGraphic"/>
    </filter>
    <filter id="Ellipse_60" x="937" y="341" width="36" height="36" filterUnits="userSpaceOnUse">
      <feOffset dy="3" input="SourceAlpha"/>
      <feGaussianBlur stdDeviation="3" result="blur-4"/>
      <feFlood flood-opacity="0.161"/>
      <feComposite operator="in" in2="blur-4"/>
      <feComposite in="SourceGraphic"/>
    </filter>
    <filter id="Ellipse_66" x="427" y="305" width="27" height="28" filterUnits="userSpaceOnUse">
      <feOffset dy="3" input="SourceAlpha"/>
      <feGaussianBlur stdDeviation="3" result="blur-5"/>
      <feFlood flood-opacity="0.161"/>
      <feComposite operator="in" in2="blur-5"/>
      <feComposite in="SourceGraphic"/>
    </filter>
  </defs>
  <g id="Group_1946" data-name="Group 1946" transform="translate(0 -2589)">
    <rect id="Rectangle_288" data-name="Rectangle 288" width="1166" height="309" rx="34" transform="translate(100 2700)" opacity="0.8" fill="url(#linear-gradient)"/>
    <g id="Layer_2" data-name="Layer 2" transform="translate(248.952 2829.375) rotate(-135)">
      <g id="Layer_1" data-name="Layer 1" transform="translate(0 0)">
        <path id="Path_1235" data-name="Path 1235" d="M9.215,15.223A1.963,1.963,0,0,1,6.879,16.7l-5.3-1.05A1.914,1.914,0,0,1,.037,13.388L2.55,1.519A1.963,1.963,0,0,1,4.886.047l5.3,1.045A1.919,1.919,0,0,1,11.733,3.35Z" transform="translate(94.692 99.882)" fill="#b94444"/>
        <path id="Path_1236" data-name="Path 1236" d="M3.5,1.016V0c-.545.049-1.08.113-1.62.172L.037,8.884a1.914,1.914,0,0,0,1.541,2.258l1.428.285h0l3.868.766A1.963,1.963,0,0,0,9.215,10.72L9.407,9.8A9.591,9.591,0,0,1,3.5,1.016Z" transform="translate(94.694 104.405)" fill="#a53232"/>
        <path id="Path_1237" data-name="Path 1237" d="M37.519,0S27.393,51.449,19.545,56.7c0,0-7.755,5.89-19.545,1.276,0,0,12.894-47.689,12.5-57.737Z" transform="translate(91.235 83.186)" fill="#ff7171"/>
        <path id="Path_1238" data-name="Path 1238" d="M6.253,59.391C8.153,52.3,18.47,13.253,19.506,0l-7,.064C12.894,10.111,0,57.8,0,57.8A25.764,25.764,0,0,0,6.253,59.391Z" transform="translate(91.248 82.705)" fill="#e55c5c"/>
        <path id="Path_1239" data-name="Path 1239" d="M0,0V7.628a8.768,8.768,0,0,0,8.914,8.614H27.884A8.778,8.778,0,0,0,36.8,7.628V0Z" transform="translate(95.844 79.657)" fill="#b94444"/>
        <path id="Path_1240" data-name="Path 1240" d="M29.587,2.749H7.186A10.69,10.69,0,0,1,0,0V.771A8.768,8.768,0,0,0,8.914,9.385H27.86A8.778,8.778,0,0,0,36.773.771V0A10.7,10.7,0,0,1,29.587,2.749Z" transform="translate(95.869 86.514)" fill="#a53232"/>
        <path id="Path_1241" data-name="Path 1241" d="M0,0V46.413c12.855-.574,23.069-10.744,23.069-23.207S12.84.574,0,0Z" transform="translate(128.73 39.36)" fill="#b94444"/>
        <rect id="Rectangle_289" data-name="Rectangle 289" width="20.63" height="46.452" transform="translate(108.106 39.326)" fill="#f905f5"/>
        <path id="Path_1242" data-name="Path 1242" d="M0,0C2.827,7.048,4.908,32.4,4.908,62.562S2.817,118.026,0,125.109c10.131-11.647,44.5-39.316,93.936-39.316V39.326C44.5,39.326,10.121,11.643,0,0Z" transform="translate(14.259 0)" fill="#fff"/>
        <path id="Path_1243" data-name="Path 1243" d="M13.027,62.557c0,34.545-2.916,62.552-6.513,62.552S0,97.1,0,62.557,2.92,0,6.513,0C7.294,0,13.027,28.007,13.027,62.557Z" transform="translate(7.745 0)" fill="#8e048c"/>
        <path id="Path_1244" data-name="Path 1244" d="M22.7,19.147v-.034c-.108-.56-.236-1.109-.383-1.654l-.1-.378c-.147-.491-.314-1.021-.491-1.522-.054-.147-.1-.29-.162-.432-.187-.491-.388-.982-.609-1.428-.069-.152-.142-.294-.211-.442q-.339-.692-.722-1.355c-.083-.142-.172-.275-.255-.412-.265-.442-.545-.879-.839-1.3L18.7,9.876a23.507,23.507,0,0,0-3.436-3.76c-.128-.113-.245-.231-.373-.339-.3-.255-.623-.491-.937-.736s-.491-.383-.746-.56-.6-.4-.9-.6-.594-.378-.9-.56-.6-.329-.9-.491a11.085,11.085,0,0,0-1.026-.491c-.348-.142-.594-.275-.893-.4s-.751-.3-1.139-.447c-.29-.1-.584-.211-.883-.309C6.15,1.055,5.723.937,5.3.825c-.28-.074-.56-.152-.844-.216C3.961.5,3.47.412,2.979.334,2.739.29,2.489.241,2.258.206,1.517.108.785.034,0,0V12.614H6.052v.034a27.521,27.521,0,0,1,16.649,6.5Z" transform="translate(128.71 39.38)" fill="#8e048c"/>
        <path id="Path_1245" data-name="Path 1245" d="M0,12.6c1.222.029,2.454.049,3.691.049H20.644V0H.029Z" transform="translate(108.106 39.326)" fill="#d504d2"/>
        <path id="Path_1246" data-name="Path 1246" d="M93.946,39.326h0c-1.4,0-2.783-.029-4.157-.074L88.522,39.2q-1.472-.069-2.916-.152l-1.32-.088q-1.6-.118-3.171-.275l-.839-.079c-1.306-.137-2.606-.294-3.887-.491-.344-.044-.677-.1-1.016-.147q-1.443-.206-2.857-.442c-.422-.069-.844-.137-1.261-.216-.913-.157-1.816-.329-2.709-.491l-1.075-.206c-1.217-.255-2.42-.515-3.613-.8l-.594-.147q-1.5-.363-2.945-.751L59.141,34.6c-.8-.221-1.6-.452-2.39-.682l-1.158-.344q-1.409-.427-2.783-.883l-.584-.187q-1.62-.545-3.2-1.114l-1.1-.407c-.707-.265-1.414-.53-2.106-.8l-1.207-.491c-.687-.275-1.36-.555-2.032-.839-.353-.147-.707-.29-1.055-.442q-1.423-.609-2.8-1.242l-1.09-.491c-.594-.28-1.183-.555-1.757-.839-.432-.206-.854-.417-1.276-.628-.491-.25-.982-.491-1.5-.761l-1.276-.658c-.491-.27-1.026-.55-1.531-.825q-1.08-.584-2.125-1.173l-1.242-.687c-.491-.275-.938-.55-1.4-.83l-.982-.584c-.491-.294-.982-.584-1.423-.879l-.751-.491q-2.582-1.634-4.908-3.269l-.383-.265-1.541-1.1-.25-.187A94.914,94.914,0,0,1,0,0H0C1.2,2.994,2.273,9.326,3.1,17.866c.535.452,1.08.9,1.649,1.355a149.939,149.939,0,0,0,89.194,32.7Z" transform="translate(14.259 0)" fill="#fafafa"/>
        <path id="Path_1247" data-name="Path 1247" d="M0,.28H0V0A1.066,1.066,0,0,1,0,.28Z" transform="translate(0.069 64.176)" fill="#00568b"/>
        <path id="Path_1248" data-name="Path 1248" d="M19.182,0C8.491.55,0,9.071,0,19.53S8.491,38.506,19.182,39.056Z" transform="translate(0 46.428)" fill="#d20cd9"/>
        <path id="Path_1249" data-name="Path 1249" d="M2.749,15.628c.545-.083,1.08-.187,1.61-.3l.6-.142c.54-.133,1.075-.29,1.6-.456.152-.049.309-.093.461-.147a24.444,24.444,0,0,0,3.853-1.708c.167-.088.329-.187.491-.285.432-.25.859-.515,1.271-.79.191-.123.378-.255.564-.383.393-.28.771-.569,1.144-.869l.491-.4q.736-.633,1.472-1.325c.133-.128.245-.265.368-.393.334-.348.663-.7.982-1.07.187-.221.363-.447.54-.672s.456-.594.653-.9.353-.491.525-.766.388-.623.574-.937.314-.52.452-.785c.275-.491.53-1.031.766-1.566.123-.29.236-.584.348-.879s.216-.569.319-.854A31.139,31.139,0,0,1,10.175,2.822H0v13.1c.746-.034,1.472-.1,2.209-.2C2.381,15.692,2.562,15.658,2.749,15.628Z" transform="translate(128.73 69.855)" fill="#a53232"/>
        <path id="Path_1250" data-name="Path 1250" d="M5.051,0V.025C3.352.025,1.669.059,0,.113V13.1H20.644V0Z" transform="translate(108.106 72.678)" fill="#e55c5c"/>
        <path id="Path_1251" data-name="Path 1251" d="M3.475,30.186C2.6,40.916,1.389,48.838,0,52.313H0C5.227,46.305,16.909,36.037,33.794,27.5l.265-.133c.726-.368,1.473-.726,2.2-1.09l.319-.147q3.259-1.561,6.764-3.014c.3-.123.6-.25.9-.368.638-.26,1.286-.515,1.963-.771l1.129-.432c.633-.241,1.271-.491,1.914-.712l1.291-.452q1.576-.545,3.186-1.065c.54-.172,1.08-.348,1.625-.491l1.718-.491,1.738-.491c.56-.157,1.119-.314,1.684-.461.692-.182,1.394-.353,2.1-.53.491-.123,1.011-.25,1.517-.368q1.615-.378,3.249-.717l1.473-.29c.751-.147,1.507-.29,2.268-.422.515-.093,1.036-.182,1.556-.265.815-.137,1.639-.26,2.454-.383.452-.064.893-.133,1.345-.191q1.865-.25,3.76-.452c.353-.039.712-.069,1.065-.1q1.472-.147,2.945-.255l1.433-.1q1.394-.083,2.808-.142L89.8,13.12q2.017-.064,4.079-.074h.054V0A167.98,167.98,0,0,0,3.475,30.186Z" transform="translate(14.264 72.791)" fill="#fafafa"/>
        <path id="Path_1252" data-name="Path 1252" d="M0,0C2.827,7.048,4.908,32.4,4.908,62.562S2.817,118.026,0,125.109a85.406,85.406,0,0,1,10.6-9.939,232.257,232.257,0,0,0,0-105.225A85.86,85.86,0,0,1,0,0Z" transform="translate(14.259)" fill="#f905f5"/>
        <path id="Path_1253" data-name="Path 1253" d="M10.6,9.944A85.86,85.86,0,0,1,0,0H0C1.2,2.994,2.273,9.326,3.1,17.866c.535.452,1.08.9,1.649,1.355,2.655,2.145,5.645,4.378,8.943,6.626C12.845,20.522,11.829,15.216,10.6,9.944Z" transform="translate(14.259 0)" fill="#d504d2"/>
        <path id="Path_1254" data-name="Path 1254" d="M0,29.008a85.9,85.9,0,0,1,10.6-9.934Q12.806,9.591,14.2,0C10.342,2.277,6.764,4.589,3.475,6.872,2.6,17.6,1.389,25.523,0,29Z" transform="translate(14.259 96.095)" fill="#d504d2"/>
        <path id="Path_1255" data-name="Path 1255" d="M10.8,9.115c0,5.036-2.405,9.12-5.4,9.12S0,14.151,0,9.115,2.41,0,5.4,0,10.8,4.079,10.8,9.115Z" transform="translate(1.865 56.092)" fill="#f905f5"/>
      </g>
    </g>
    <g id="Polygon_3" data-name="Polygon 3" transform="translate(200.828 2825.603) rotate(120)" fill="none">
      <path d="M11.317,7.474a5,5,0,0,1,8.654,0l6.972,12.042a5,5,0,0,1-4.327,7.505H8.672a5,5,0,0,1-4.327-7.505Z" stroke="none"/>
      <path d="M 15.64393520355225 8.979318618774414 C 15.38091564178467 8.979318618774414 15.01726531982422 9.065877914428711 14.77850532531738 9.478288650512695 L 7.806816101074219 21.52029800415039 C 7.567554473876953 21.93355751037598 7.674264907836914 22.29248809814453 7.805915832519531 22.52081680297852 C 7.937555313110352 22.7491569519043 8.194725036621094 23.02133750915527 8.672235488891602 23.02133750915527 L 22.61562538146973 23.02134704589844 C 23.0931453704834 23.02134704589844 23.35030555725098 22.7491569519043 23.48195457458496 22.52081680297852 C 23.61360549926758 22.29248809814453 23.72031402587891 21.93355751037598 23.48106575012207 21.52030754089355 L 16.50936508178711 9.478288650512695 C 16.27060508728027 9.065887451171875 15.90695476531982 8.979318618774414 15.64393520355225 8.979318618774414 M 15.64393138885498 4.979314804077148 C 17.32604026794434 4.979314804077148 19.00815010070801 5.810922622680664 19.97106552124023 7.474138259887695 L 26.94276428222656 19.51615905761719 C 28.87258529663086 22.8494873046875 26.46729469299316 27.02133750915527 22.61563491821289 27.02134704589844 L 8.672235488891602 27.02133750915527 C 4.820575714111328 27.02133750915527 2.415285110473633 22.8494873046875 4.34510612487793 19.51615905761719 L 11.31680488586426 7.474138259887695 C 12.27971458435059 5.810922622680664 13.96182250976563 4.979314804077148 15.64393138885498 4.979314804077148 Z" stroke="none" fill="rgba(255,255,255,0.31)"/>
    </g>
    <g id="Polygon_5" data-name="Polygon 5" transform="translate(1002.289 2762.966) rotate(132)" fill="none">
      <path d="M7.387,7.638a5,5,0,0,1,8.692,0l3.135,5.511a5,5,0,0,1-4.346,7.473H8.6a5,5,0,0,1-4.346-7.473Z" stroke="none"/>
      <path d="M 11.73295116424561 9.110730171203613 C 11.46764087677002 9.110730171203613 11.10149097442627 9.198430061340332 10.8637809753418 9.616209983825684 L 7.728321075439453 15.12701988220215 C 7.49320125579834 15.54026985168457 7.60111141204834 15.89743041992188 7.733040809631348 16.1242790222168 C 7.864971160888672 16.35113143920898 8.122031211853027 16.62154960632324 8.597480773925781 16.62154960632324 L 14.86842155456543 16.62154960632324 C 15.34387111663818 16.62154960632324 15.60093116760254 16.35113143920898 15.73286056518555 16.1242790222168 C 15.86479187011719 15.89743041992188 15.97270107269287 15.54026985168457 15.73759078979492 15.12703037261963 L 12.60211086273193 9.61620044708252 C 12.36441135406494 9.198430061340332 11.99826145172119 9.110730171203613 11.73295116424561 9.110730171203613 M 11.73295116424561 5.110729217529297 C 13.4265308380127 5.110729217529297 15.1201114654541 5.953189849853516 16.07877159118652 7.63810920715332 L 19.21424102783203 13.14892959594727 C 21.11073112487793 16.48217010498047 18.70341110229492 20.62154960632324 14.86842155456543 20.62154960632324 L 8.597480773925781 20.62154960632324 C 4.762491226196289 20.62154960632324 2.355171203613281 16.48217010498047 4.25166130065918 13.14892959594727 L 7.387130737304688 7.63810920715332 C 8.345790863037109 5.953189849853516 10.03937149047852 5.110729217529297 11.73295116424561 5.110729217529297 Z" stroke="none" fill="rgba(255,255,255,0.31)"/>
    </g>
    <g id="Polygon_4" data-name="Polygon 4" transform="translate(798.925 2948.957) rotate(45)" fill="none">
      <path d="M8.125,7.4a5,5,0,0,1,8.638,0L20.5,13.813a5,5,0,0,1-4.319,7.519H8.705a5,5,0,0,1-4.319-7.519Z" stroke="none"/>
      <path d="M 12.44403076171875 8.923175811767578 C 12.18201065063477 8.923175811767578 11.81945037841797 9.009246826171875 11.58026027679443 9.419296264648438 L 7.841400146484375 15.82877635955811 C 7.600339889526367 16.24201583862305 7.706520080566406 16.60171508789063 7.838039398193359 16.83069610595703 C 7.969560623168945 17.05967712402344 8.226760864257813 17.3326358795166 8.705181121826172 17.3326358795166 L 16.18289947509766 17.3326358795166 C 16.66131019592285 17.3326358795166 16.91851997375488 17.05967712402344 17.05004119873047 16.83069610595703 C 17.18156051635742 16.60171508789063 17.2877311706543 16.24201583862305 17.04667091369629 15.82877635955811 L 13.30782032012939 9.419305801391602 C 13.0686206817627 9.009246826171875 12.7060604095459 8.923175811767578 12.44403076171875 8.923175811767578 M 12.44403553009033 4.923175811767578 C 14.12113571166992 4.923175811767578 15.7982349395752 5.750055313110352 16.76292991638184 7.403816223144531 L 20.50179100036621 13.81328582763672 C 22.44620132446289 17.14656639099121 20.04185104370117 21.3326358795166 16.18289947509766 21.3326358795166 L 8.705181121826172 21.3326358795166 C 4.846229553222656 21.3326358795166 2.441869735717773 17.14656639099121 4.386289596557617 13.81328582763672 L 8.125141143798828 7.403816223144531 C 9.089835166931152 5.750055313110352 10.76693534851074 4.923175811767578 12.44403553009033 4.923175811767578 Z" stroke="none" fill="rgba(255,255,255,0.31)"/>
    </g>
    <g transform="matrix(1, 0, 0, 1, 0, 2589)" filter="url(#Ellipse_61)">
      <circle id="Ellipse_61-2" data-name="Ellipse 61" cx="8" cy="8" r="8" transform="translate(214 339)" fill="rgba(255,255,255,0.31)"/>
    </g>
    <g transform="matrix(1, 0, 0, 1, 0, 2589)" filter="url(#Ellipse_62)">
      <circle id="Ellipse_62-2" data-name="Ellipse 62" cx="4.5" cy="4.5" r="4.5" transform="translate(489 165)" fill="rgba(255,255,255,0.31)"/>
    </g>
    <g transform="matrix(1, 0, 0, 1, 0, 2589)" filter="url(#Ellipse_63)">
      <ellipse id="Ellipse_63-2" data-name="Ellipse 63" cx="9.5" cy="9" rx="9.5" ry="9" transform="translate(1122 165)" fill="rgba(255,255,255,0.31)"/>
    </g>
    <g transform="matrix(1, 0, 0, 1, 0, 2589)" filter="url(#Ellipse_60)">
      <circle id="Ellipse_60-2" data-name="Ellipse 60" cx="9" cy="9" r="9" transform="translate(946 347)" fill="rgba(255,255,255,0.31)"/>
    </g>
    <g transform="matrix(1, 0, 0, 1, 0, 2589)" filter="url(#Ellipse_66)">
      <ellipse id="Ellipse_66-2" data-name="Ellipse 66" cx="4.5" cy="5" rx="4.5" ry="5" transform="translate(436 311)" fill="rgba(255,255,255,0.31)"/>
    </g>
    <g id="Ellipse_64" data-name="Ellipse 64" transform="translate(306 2964)" fill="none" stroke="rgba(255,255,255,0.31)" stroke-width="1">
      <circle cx="9.5" cy="9.5" r="9.5" stroke="none"/>
      <circle cx="9.5" cy="9.5" r="9" fill="none"/>
    </g>
    <g id="Ellipse_65" data-name="Ellipse 65" transform="translate(1189 2790)" fill="none" stroke="rgba(255,255,255,0.31)" stroke-width="1">
      <ellipse cx="9" cy="9.5" rx="9" ry="9.5" stroke="none"/>
      <ellipse cx="9" cy="9.5" rx="8.5" ry="9" fill="none"/>
    </g>
    <g id="Layer_2-2" data-name="Layer 2" transform="translate(1138.809 2854.304) rotate(30)">
      <g id="Layer_1-2" data-name="Layer 1" transform="translate(0 0)">
        <path id="Path_1235-2" data-name="Path 1235" d="M9.215,15.223A1.963,1.963,0,0,1,6.879,16.7l-5.3-1.05A1.914,1.914,0,0,1,.037,13.388L2.55,1.519A1.963,1.963,0,0,1,4.886.047l5.3,1.045A1.919,1.919,0,0,1,11.733,3.35Z" transform="translate(94.692 99.882)" fill="#d504d2"/>
        <path id="Path_1236-2" data-name="Path 1236" d="M3.5,1.016V0c-.545.049-1.08.113-1.62.172L.037,8.884a1.914,1.914,0,0,0,1.541,2.258l1.428.285h0l3.868.766A1.963,1.963,0,0,0,9.215,10.72L9.407,9.8A9.591,9.591,0,0,1,3.5,1.016Z" transform="translate(94.694 104.405)" fill="#8e048c"/>
        <path id="Path_1237-2" data-name="Path 1237" d="M37.519,0S27.393,51.449,19.545,56.7c0,0-7.755,5.89-19.545,1.276,0,0,12.894-47.689,12.5-57.737Z" transform="translate(91.235 83.186)" fill="#f905f5"/>
        <path id="Path_1238-2" data-name="Path 1238" d="M6.253,59.391C8.153,52.3,18.47,13.253,19.506,0l-7,.064C12.894,10.111,0,57.8,0,57.8A25.764,25.764,0,0,0,6.253,59.391Z" transform="translate(91.248 82.705)" fill="#d504d2"/>
        <path id="Path_1239-2" data-name="Path 1239" d="M0,0V7.628a8.768,8.768,0,0,0,8.914,8.614H27.884A8.778,8.778,0,0,0,36.8,7.628V0Z" transform="translate(95.844 79.657)" fill="#d20cd9"/>
        <path id="Path_1240-2" data-name="Path 1240" d="M29.587,2.749H7.186A10.69,10.69,0,0,1,0,0V.771A8.768,8.768,0,0,0,8.914,9.385H27.86A8.778,8.778,0,0,0,36.773.771V0A10.7,10.7,0,0,1,29.587,2.749Z" transform="translate(95.869 86.514)" fill="#8e048c"/>
        <path id="Path_1241-2" data-name="Path 1241" d="M0,0V46.413c12.855-.574,23.069-10.744,23.069-23.207S12.84.574,0,0Z" transform="translate(128.73 39.36)" fill="#d504d2"/>
        <path id="Path_2028" data-name="Path 2028" d="M0,0H20.63V46.452H0Z" transform="translate(108.106 39.326)" fill="#f905f5"/>
        <path id="Path_1242-2" data-name="Path 1242" d="M0,0C2.827,7.048,4.908,32.4,4.908,62.562S2.817,118.026,0,125.109c10.131-11.647,44.5-39.316,93.936-39.316V39.326C44.5,39.326,10.121,11.643,0,0Z" transform="translate(14.259 0)" fill="#fff"/>
        <path id="Path_1243-2" data-name="Path 1243" d="M13.027,62.557c0,34.545-2.916,62.552-6.513,62.552S0,97.1,0,62.557,2.92,0,6.513,0C7.294,0,13.027,28.007,13.027,62.557Z" transform="translate(7.745 0)" fill="#8e048c"/>
        <path id="Path_1244-2" data-name="Path 1244" d="M22.7,19.147v-.034c-.108-.56-.236-1.109-.383-1.654l-.1-.378c-.147-.491-.314-1.021-.491-1.522-.054-.147-.1-.29-.162-.432-.187-.491-.388-.982-.609-1.428-.069-.152-.142-.294-.211-.442q-.339-.692-.722-1.355c-.083-.142-.172-.275-.255-.412-.265-.442-.545-.879-.839-1.3L18.7,9.876a23.507,23.507,0,0,0-3.436-3.76c-.128-.113-.245-.231-.373-.339-.3-.255-.623-.491-.937-.736s-.491-.383-.746-.56-.6-.4-.9-.6-.594-.378-.9-.56-.6-.329-.9-.491a11.085,11.085,0,0,0-1.026-.491c-.348-.142-.594-.275-.893-.4s-.751-.3-1.139-.447c-.29-.1-.584-.211-.883-.309C6.15,1.055,5.723.937,5.3.825c-.28-.074-.56-.152-.844-.216C3.961.5,3.47.412,2.979.334,2.739.29,2.489.241,2.258.206,1.517.108.785.034,0,0V12.614H6.052v.034a27.521,27.521,0,0,1,16.649,6.5Z" transform="translate(128.71 39.38)" fill="#8e048c"/>
        <path id="Path_1245-2" data-name="Path 1245" d="M0,12.6c1.222.029,2.454.049,3.691.049H20.644V0H.029Z" transform="translate(108.106 39.326)" fill="#d504d2"/>
        <path id="Path_1246-2" data-name="Path 1246" d="M93.946,39.326h0c-1.4,0-2.783-.029-4.157-.074L88.522,39.2q-1.472-.069-2.916-.152l-1.32-.088q-1.6-.118-3.171-.275l-.839-.079c-1.306-.137-2.606-.294-3.887-.491-.344-.044-.677-.1-1.016-.147q-1.443-.206-2.857-.442c-.422-.069-.844-.137-1.261-.216-.913-.157-1.816-.329-2.709-.491l-1.075-.206c-1.217-.255-2.42-.515-3.613-.8l-.594-.147q-1.5-.363-2.945-.751L59.141,34.6c-.8-.221-1.6-.452-2.39-.682l-1.158-.344q-1.409-.427-2.783-.883l-.584-.187q-1.62-.545-3.2-1.114l-1.1-.407c-.707-.265-1.414-.53-2.106-.8l-1.207-.491c-.687-.275-1.36-.555-2.032-.839-.353-.147-.707-.29-1.055-.442q-1.423-.609-2.8-1.242l-1.09-.491c-.594-.28-1.183-.555-1.757-.839-.432-.206-.854-.417-1.276-.628-.491-.25-.982-.491-1.5-.761l-1.276-.658c-.491-.27-1.026-.55-1.531-.825q-1.08-.584-2.125-1.173l-1.242-.687c-.491-.275-.938-.55-1.4-.83l-.982-.584c-.491-.294-.982-.584-1.423-.879l-.751-.491q-2.582-1.634-4.908-3.269l-.383-.265-1.541-1.1-.25-.187A94.914,94.914,0,0,1,0,0H0C1.2,2.994,2.273,9.326,3.1,17.866c.535.452,1.08.9,1.649,1.355a149.939,149.939,0,0,0,89.194,32.7Z" transform="translate(14.259 0)" fill="#fafafa"/>
        <path id="Path_1247-2" data-name="Path 1247" d="M0,.28H0V0A1.066,1.066,0,0,1,0,.28Z" transform="translate(0.069 64.176)" fill="#00568b"/>
        <path id="Path_1248-2" data-name="Path 1248" d="M19.182,0C8.491.55,0,9.071,0,19.53S8.491,38.506,19.182,39.056Z" transform="translate(0 46.428)" fill="#d20cd9"/>
        <path id="Path_1249-2" data-name="Path 1249" d="M2.749,15.628c.545-.083,1.08-.187,1.61-.3l.6-.142c.54-.133,1.075-.29,1.6-.456.152-.049.309-.093.461-.147a24.444,24.444,0,0,0,3.853-1.708c.167-.088.329-.187.491-.285.432-.25.859-.515,1.271-.79.191-.123.378-.255.564-.383.393-.28.771-.569,1.144-.869l.491-.4q.736-.633,1.472-1.325c.133-.128.245-.265.368-.393.334-.348.663-.7.982-1.07.187-.221.363-.447.54-.672s.456-.594.653-.9.353-.491.525-.766.388-.623.574-.937.314-.52.452-.785c.275-.491.53-1.031.766-1.566.123-.29.236-.584.348-.879s.216-.569.319-.854A31.139,31.139,0,0,1,10.175,2.822H0v13.1c.746-.034,1.472-.1,2.209-.2C2.381,15.692,2.562,15.658,2.749,15.628Z" transform="translate(128.73 69.855)" fill="#8e048c"/>
        <path id="Path_1250-2" data-name="Path 1250" d="M5.051,0V.025C3.352.025,1.669.059,0,.113V13.1H20.644V0Z" transform="translate(108.106 72.678)" fill="#d504d2"/>
        <path id="Path_1251-2" data-name="Path 1251" d="M3.475,30.186C2.6,40.916,1.389,48.838,0,52.313H0C5.227,46.305,16.909,36.037,33.794,27.5l.265-.133c.726-.368,1.473-.726,2.2-1.09l.319-.147q3.259-1.561,6.764-3.014c.3-.123.6-.25.9-.368.638-.26,1.286-.515,1.963-.771l1.129-.432c.633-.241,1.271-.491,1.914-.712l1.291-.452q1.576-.545,3.186-1.065c.54-.172,1.08-.348,1.625-.491l1.718-.491,1.738-.491c.56-.157,1.119-.314,1.684-.461.692-.182,1.394-.353,2.1-.53.491-.123,1.011-.25,1.517-.368q1.615-.378,3.249-.717l1.473-.29c.751-.147,1.507-.29,2.268-.422.515-.093,1.036-.182,1.556-.265.815-.137,1.639-.26,2.454-.383.452-.064.893-.133,1.345-.191q1.865-.25,3.76-.452c.353-.039.712-.069,1.065-.1q1.472-.147,2.945-.255l1.433-.1q1.394-.083,2.808-.142L89.8,13.12q2.017-.064,4.079-.074h.054V0A167.98,167.98,0,0,0,3.475,30.186Z" transform="translate(14.264 72.791)" fill="#fafafa"/>
        <path id="Path_1252-2" data-name="Path 1252" d="M0,0C2.827,7.048,4.908,32.4,4.908,62.562S2.817,118.026,0,125.109a85.406,85.406,0,0,1,10.6-9.939,232.257,232.257,0,0,0,0-105.225A85.86,85.86,0,0,1,0,0Z" transform="translate(14.259 0)" fill="#f905f5"/>
        <path id="Path_1253-2" data-name="Path 1253" d="M10.6,9.944A85.86,85.86,0,0,1,0,0H0C1.2,2.994,2.273,9.326,3.1,17.866c.535.452,1.08.9,1.649,1.355,2.655,2.145,5.645,4.378,8.943,6.626C12.845,20.522,11.829,15.216,10.6,9.944Z" transform="translate(14.259 0)" fill="#d504d2"/>
        <path id="Path_1254-2" data-name="Path 1254" d="M0,29.008a85.9,85.9,0,0,1,10.6-9.934Q12.806,9.591,14.2,0C10.342,2.277,6.764,4.589,3.475,6.872,2.6,17.6,1.389,25.523,0,29Z" transform="translate(14.259 96.095)" fill="#d504d2"/>
        <path id="Path_1255-2" data-name="Path 1255" d="M10.8,9.115c0,5.036-2.405,9.12-5.4,9.12S0,14.151,0,9.115,2.41,0,5.4,0,10.8,4.079,10.8,9.115Z" transform="translate(1.865 56.092)" fill="#f905f5"/>
      </g>
    </g>
    <rect id="Rectangle_290" data-name="Rectangle 290" width="1365" height="111" transform="translate(1 2589)" fill="#fff"/>
    <rect id="Rectangle_291" data-name="Rectangle 291" width="1365" height="110" transform="translate(0 3009)" fill="#fff"/>
  </g>
</svg>
