<svg xmlns="http://www.w3.org/2000/svg" xmlns:xlink="http://www.w3.org/1999/xlink" width="413" height="420" viewBox="0 0 413 420">
  <defs>
    <linearGradient id="linear-gradient" x1="-0.578" y1="-0.383" x2="1.105" y2="1.33" gradientUnits="objectBoundingBox">
      <stop offset="0" stop-color="#f905f5"/>
      <stop offset="1" stop-color="#4da1ff"/>
    </linearGradient>
    <filter id="Rectangle_2828" x="0" y="0" width="413" height="420" filterUnits="userSpaceOnUse">
      <feOffset dy="12" input="SourceAlpha"/>
      <feGaussianBlur stdDeviation="15" result="blur"/>
      <feFlood flood-opacity="0.161"/>
      <feComposite operator="in" in2="blur"/>
      <feComposite in="SourceGraphic"/>
    </filter>
  </defs>
  <g id="Group_1593" data-name="Group 1593" transform="translate(-477 -2974)">
    <g transform="matrix(1, 0, 0, 1, 477, 2974)" filter="url(#Rectangle_2828)">
      <rect id="Rectangle_2828-2" data-name="Rectangle 2828" width="323" height="330" rx="16" transform="translate(45 33)" opacity="0.8" fill="url(#linear-gradient)"/>
    </g>
    <path id="Path_2601" data-name="Path 2601" d="M10.88,3.688h1.7l1.392,3.856,1.408-3.856h1.68L15.12,8.744l1.7,4.176,3.536-9.28H22.32L17.632,15H16.1L13.984,9.912,11.856,15H10.32L5.632,3.64H7.584l3.552,9.28,1.7-4.176Zm15.3,11.472a4.348,4.348,0,0,1-1.784-.352,4.1,4.1,0,0,1-2.216-2.328,4.662,4.662,0,0,1,0-3.312,4.1,4.1,0,0,1,.872-1.384,4.258,4.258,0,0,1,1.36-.944,4.616,4.616,0,0,1,3.536,0,4.258,4.258,0,0,1,1.36.944,4.1,4.1,0,0,1,.872,1.384,4.662,4.662,0,0,1,0,3.312,4.1,4.1,0,0,1-.872,1.384,4.258,4.258,0,0,1-1.36.944A4.307,4.307,0,0,1,26.176,15.16Zm-2.5-4.32a3.166,3.166,0,0,0,.192,1.12,2.784,2.784,0,0,0,.528.888,2.469,2.469,0,0,0,.792.592,2.349,2.349,0,0,0,1.968,0,2.418,2.418,0,0,0,.792-.6,2.883,2.883,0,0,0,.528-.9,3.339,3.339,0,0,0,0-2.232,2.863,2.863,0,0,0-.528-.9,2.418,2.418,0,0,0-.792-.6,2.269,2.269,0,0,0-.984-.216,2.167,2.167,0,0,0-.968.224,2.517,2.517,0,0,0-.792.608,2.985,2.985,0,0,0-.536.9A3.071,3.071,0,0,0,23.68,10.84ZM36.752,8.152a3.937,3.937,0,0,0-1.816.472A2.487,2.487,0,0,0,33.808,9.88V15h-1.76V6.632H33.68V8.5A3.827,3.827,0,0,1,34.808,7.12a2.736,2.736,0,0,1,1.5-.568h.264a.945.945,0,0,1,.184.016Zm1.3-4.832h1.76v9.264a1.042,1.042,0,0,0,.24.728.862.862,0,0,0,.672.264,1.561,1.561,0,0,0,.408-.064q.232-.064.44-.144l.256,1.376a4.1,4.1,0,0,1-.912.28,4.941,4.941,0,0,1-.944.1,1.933,1.933,0,0,1-1.416-.5,1.887,1.887,0,0,1-.5-1.408Zm8.208,11.84a3.59,3.59,0,0,1-1.568-.344,3.919,3.919,0,0,1-1.248-.936,4.337,4.337,0,0,1-.824-1.384,5.045,5.045,0,0,1-.016-3.36,4.384,4.384,0,0,1,.784-1.368,3.788,3.788,0,0,1,1.184-.936,3.453,3.453,0,0,1,3.272.144,3.555,3.555,0,0,1,1.2,1.24V3.32H50.8v9.6a.694.694,0,0,0,.1.432.5.5,0,0,0,.376.144V15q-.272.048-.44.064t-.28.016a1.33,1.33,0,0,1-.864-.272.961.961,0,0,1-.368-.7L49.3,13.48a3.338,3.338,0,0,1-1.264,1.232A3.572,3.572,0,0,1,46.256,15.16Zm.432-1.5a2.416,2.416,0,0,0,.768-.128,2.72,2.72,0,0,0,.7-.352,2.474,2.474,0,0,0,.552-.528,1.9,1.9,0,0,0,.328-.656V9.8a2.621,2.621,0,0,0-.408-.736,2.919,2.919,0,0,0-.6-.576,2.74,2.74,0,0,0-.712-.368,2.344,2.344,0,0,0-.76-.128,1.988,1.988,0,0,0-.968.24,2.5,2.5,0,0,0-.76.64,3.155,3.155,0,0,0-.5.912,3.1,3.1,0,0,0-.184,1.056,2.963,2.963,0,0,0,.2,1.088,2.841,2.841,0,0,0,.552.9,2.709,2.709,0,0,0,.808.608A2.2,2.2,0,0,0,46.688,13.656ZM57.216,15V3.64h4.768a3.154,3.154,0,0,1,1.416.32,3.624,3.624,0,0,1,1.112.84,3.96,3.96,0,0,1,.728,1.184A3.631,3.631,0,0,1,65.5,7.336a3.923,3.923,0,0,1-.248,1.384,3.874,3.874,0,0,1-.7,1.184,3.389,3.389,0,0,1-1.08.832,3.119,3.119,0,0,1-1.4.312H59.008V15Zm1.792-5.536h2.96a1.5,1.5,0,0,0,.7-.16,1.6,1.6,0,0,0,.536-.448,2.235,2.235,0,0,0,.352-.672,2.669,2.669,0,0,0,.128-.848,2.446,2.446,0,0,0-.144-.864,2.026,2.026,0,0,0-.4-.664,1.829,1.829,0,0,0-.584-.432,1.6,1.6,0,0,0-.68-.152H59.008Zm10.1,5.7a3.116,3.116,0,0,1-1.128-.2,2.726,2.726,0,0,1-.9-.552,2.574,2.574,0,0,1-.592-.832,2.5,2.5,0,0,1-.216-1.04,2.242,2.242,0,0,1,.256-1.072,2.505,2.505,0,0,1,.728-.832,3.534,3.534,0,0,1,1.12-.544A5.028,5.028,0,0,1,69.808,9.9a6.56,6.56,0,0,1,1.168.1,5.882,5.882,0,0,1,1.04.28V9.7a1.94,1.94,0,0,0-.528-1.448,2.076,2.076,0,0,0-1.52-.52,3.665,3.665,0,0,0-1.32.248,6.678,6.678,0,0,0-1.336.712l-.544-1.12a5.933,5.933,0,0,1,3.36-1.088,3.832,3.832,0,0,1,2.688.88,3.257,3.257,0,0,1,.96,2.528V12.92q0,.56.464.576V15q-.256.048-.44.064t-.36.016a1.132,1.132,0,0,1-.792-.256,1.1,1.1,0,0,1-.344-.656l-.048-.528a3.731,3.731,0,0,1-1.384,1.128A4.063,4.063,0,0,1,69.1,15.16Zm.48-1.3a3.164,3.164,0,0,0,1.208-.232,2.083,2.083,0,0,0,.888-.648.812.812,0,0,0,.336-.608v-1.1A5.32,5.32,0,0,0,71.064,11a5.253,5.253,0,0,0-.984-.1,2.691,2.691,0,0,0-1.544.408,1.25,1.25,0,0,0-.6,1.08A1.363,1.363,0,0,0,68.4,13.44,1.687,1.687,0,0,0,69.584,13.864Zm6.4,3.1q.24.048.472.08a2.877,2.877,0,0,0,.376.032.706.706,0,0,0,.36-.088,1.073,1.073,0,0,0,.312-.312,3.229,3.229,0,0,0,.328-.632Q78,15.64,78.224,15l-3.44-8.368h1.808l2.592,6.816,2.3-6.816h1.664l-3.792,10.3a2.607,2.607,0,0,1-.888,1.208,2.581,2.581,0,0,1-1.624.488,3.492,3.492,0,0,1-.4-.024,2.557,2.557,0,0,1-.464-.1ZM97.248,15h-1.76V10.312A3.01,3.01,0,0,0,95.1,8.6a1.285,1.285,0,0,0-1.12-.544,2,2,0,0,0-1.368.552,3.107,3.107,0,0,0-.888,1.432V15h-1.76V10.312a3,3,0,0,0-.384-1.72,1.275,1.275,0,0,0-1.1-.536A2.047,2.047,0,0,0,87.1,8.6a3.025,3.025,0,0,0-.9,1.424V15h-1.76V6.632h1.6v1.68a3.536,3.536,0,0,1,1.3-1.352A3.6,3.6,0,0,1,89.2,6.488a2.238,2.238,0,0,1,2.384,1.9,3.831,3.831,0,0,1,1.328-1.416,3.432,3.432,0,0,1,1.824-.488,2.431,2.431,0,0,1,1.224.28,2.164,2.164,0,0,1,.776.744,3.068,3.068,0,0,1,.4,1.08,7.284,7.284,0,0,1,.112,1.3Zm5.824.16a4.451,4.451,0,0,1-1.776-.344,4.133,4.133,0,0,1-1.368-.936,4.22,4.22,0,0,1-.88-1.376,4.458,4.458,0,0,1-.312-1.664,4.52,4.52,0,0,1,.312-1.672,4.291,4.291,0,0,1,.88-1.392,4.075,4.075,0,0,1,1.368-.944,4.493,4.493,0,0,1,1.792-.344,4.307,4.307,0,0,1,1.768.352,4.227,4.227,0,0,1,1.352.936,4,4,0,0,1,.856,1.36,4.518,4.518,0,0,1,.3,1.624q0,.192-.016.36t-.032.28h-6.7a2.865,2.865,0,0,0,.264,1.008,2.653,2.653,0,0,0,.56.776,2.459,2.459,0,0,0,1.7.68,2.8,2.8,0,0,0,.7-.088,2.454,2.454,0,0,0,.632-.256,2.24,2.24,0,0,0,.512-.408,1.9,1.9,0,0,0,.352-.528l1.5.432A3.487,3.487,0,0,1,105.4,14.56,4.437,4.437,0,0,1,103.072,15.16Zm2.544-4.976a2.814,2.814,0,0,0-.264-.976,2.513,2.513,0,0,0-.552-.76,2.463,2.463,0,0,0-.784-.488,2.558,2.558,0,0,0-.944-.176,2.5,2.5,0,0,0-1.712.664,2.406,2.406,0,0,0-.544.76,2.929,2.929,0,0,0-.256.976ZM116.3,15h-1.76V10.312a3.056,3.056,0,0,0-.376-1.72,1.271,1.271,0,0,0-1.112-.536,2.174,2.174,0,0,0-.768.144,2.69,2.69,0,0,0-.72.408,3.178,3.178,0,0,0-.6.624,2.859,2.859,0,0,0-.408.792V15H108.8V6.632h1.6v1.68a3.4,3.4,0,0,1,1.392-1.336,4.2,4.2,0,0,1,2.016-.488,2.479,2.479,0,0,1,1.232.272,2.035,2.035,0,0,1,.76.744,3.255,3.255,0,0,1,.392,1.088,7.284,7.284,0,0,1,.112,1.3Zm6.624-.432a8.821,8.821,0,0,1-.928.36,3.923,3.923,0,0,1-1.264.2,2.679,2.679,0,0,1-.784-.112,1.921,1.921,0,0,1-.648-.336,1.526,1.526,0,0,1-.44-.584,2.14,2.14,0,0,1-.16-.872V7.992h-1.1V6.632h1.1V3.88h1.76V6.632h1.824v1.36s-1.368-1.168-1.824,0,0,4.672,0,4.672a.869.869,0,0,0,.28.648.95.95,0,0,0,.616.2,1.961,1.961,0,0,0,.7-.128q.336-.128.5-.208Zm4.256.592a6.409,6.409,0,0,1-2.008-.328,5.092,5.092,0,0,1-1.72-.936l.7-1.12a6.5,6.5,0,0,0,1.488.824,4.2,4.2,0,0,0,1.5.28,2.21,2.21,0,0,0,1.24-.3.978.978,0,0,0,.456-.864.8.8,0,0,0-.512-.768,10.245,10.245,0,0,0-1.6-.528q-.784-.208-1.344-.4a3.459,3.459,0,0,1-.912-.448,1.573,1.573,0,0,1-.512-.592,1.887,1.887,0,0,1-.16-.816,2.507,2.507,0,0,1,.248-1.136,2.438,2.438,0,0,1,.688-.84,3.082,3.082,0,0,1,1.032-.52,4.473,4.473,0,0,1,1.28-.176,5.251,5.251,0,0,1,1.76.288,4.58,4.58,0,0,1,1.456.832l-.752,1.056a3.923,3.923,0,0,0-2.48-.928,2.119,2.119,0,0,0-1.128.28.965.965,0,0,0-.456.888.892.892,0,0,0,.1.432.815.815,0,0,0,.312.3,2.57,2.57,0,0,0,.56.232q.344.1.856.232.848.208,1.464.416a4.009,4.009,0,0,1,1.016.488,1.81,1.81,0,0,1,.592.656,1.967,1.967,0,0,1,.192.9,2.264,2.264,0,0,1-.9,1.9A3.929,3.929,0,0,1,127.184,15.16Zm13.5-.592a8.822,8.822,0,0,1-.928.36,3.923,3.923,0,0,1-1.264.2,2.679,2.679,0,0,1-.784-.112,1.92,1.92,0,0,1-.648-.336,1.526,1.526,0,0,1-.44-.584,2.14,2.14,0,0,1-.16-.872V7.992h-1.1V6.632h1.1V3.88h1.76V6.632h1.824v1.36h-1.824v4.672a.869.869,0,0,0,.28.648.95.95,0,0,0,.616.2,1.961,1.961,0,0,0,.7-.128q.336-.128.5-.208Zm4.8.592a4.451,4.451,0,0,1-1.776-.344,4.134,4.134,0,0,1-1.368-.936,4.22,4.22,0,0,1-.88-1.376,4.458,4.458,0,0,1-.312-1.664,4.52,4.52,0,0,1,.312-1.672,4.291,4.291,0,0,1,.88-1.392,4.075,4.075,0,0,1,1.368-.944,4.493,4.493,0,0,1,1.792-.344,4.307,4.307,0,0,1,1.768.352,4.227,4.227,0,0,1,1.352.936,4,4,0,0,1,.856,1.36,4.518,4.518,0,0,1,.3,1.624q0,.192-.016.36t-.032.28h-6.7a2.865,2.865,0,0,0,.264,1.008,2.653,2.653,0,0,0,.56.776,2.459,2.459,0,0,0,1.7.68,2.8,2.8,0,0,0,.7-.088,2.454,2.454,0,0,0,.632-.256,2.24,2.24,0,0,0,.512-.408,1.9,1.9,0,0,0,.352-.528l1.5.432a3.487,3.487,0,0,1-1.432,1.544A4.437,4.437,0,0,1,145.488,15.16Zm2.544-4.976a2.814,2.814,0,0,0-.264-.976,2.513,2.513,0,0,0-.552-.76,2.463,2.463,0,0,0-.784-.488,2.558,2.558,0,0,0-.944-.176,2.5,2.5,0,0,0-1.712.664,2.406,2.406,0,0,0-.544.76,2.929,2.929,0,0,0-.256.976Zm2.64.624a4.562,4.562,0,0,1,.3-1.664,4.077,4.077,0,0,1,2.24-2.312,4.493,4.493,0,0,1,1.792-.344,4.221,4.221,0,0,1,2.232.568,3.6,3.6,0,0,1,1.4,1.512l-1.712.544a2.2,2.2,0,0,0-.816-.824,2.229,2.229,0,0,0-1.136-.3,2.343,2.343,0,0,0-.984.208,2.371,2.371,0,0,0-.792.584,2.784,2.784,0,0,0-.528.888,3.214,3.214,0,0,0-.192,1.136,3.116,3.116,0,0,0,.2,1.128,2.9,2.9,0,0,0,.544.9,2.505,2.505,0,0,0,.8.6,2.233,2.233,0,0,0,.968.216,2.4,2.4,0,0,0,.64-.088,2.288,2.288,0,0,0,1.048-.616,1.393,1.393,0,0,0,.3-.448l1.728.512a3.422,3.422,0,0,1-1.392,1.544,4.312,4.312,0,0,1-2.3.6,4.363,4.363,0,0,1-1.776-.352,4.174,4.174,0,0,1-1.368-.952,4.312,4.312,0,0,1-.88-1.384A4.458,4.458,0,0,1,150.672,10.808ZM167.664,15H165.9V10.312a2.875,2.875,0,0,0-.408-1.7,1.373,1.373,0,0,0-1.176-.552,2.007,2.007,0,0,0-.736.144,2.645,2.645,0,0,0-.7.408,3.1,3.1,0,0,0-.584.624,2.661,2.661,0,0,0-.384.792V15h-1.76V3.32h1.76V8.312a3.473,3.473,0,0,1,1.3-1.344,3.513,3.513,0,0,1,1.8-.48,2.633,2.633,0,0,1,1.288.28,2.261,2.261,0,0,1,.808.744,2.993,2.993,0,0,1,.424,1.08,6.812,6.812,0,0,1,.12,1.3Zm9.552,0h-1.76V10.312a3.056,3.056,0,0,0-.376-1.72,1.271,1.271,0,0,0-1.112-.536,2.174,2.174,0,0,0-.768.144,2.69,2.69,0,0,0-.72.408,3.178,3.178,0,0,0-.6.624,2.86,2.86,0,0,0-.408.792V15h-1.76V6.632h1.6v1.68A3.4,3.4,0,0,1,172.7,6.976a4.2,4.2,0,0,1,2.016-.488,2.479,2.479,0,0,1,1.232.272,2.035,2.035,0,0,1,.76.744,3.255,3.255,0,0,1,.392,1.088,7.285,7.285,0,0,1,.112,1.3Zm5.808.16a4.348,4.348,0,0,1-1.784-.352,4.1,4.1,0,0,1-2.216-2.328,4.662,4.662,0,0,1,0-3.312,4.1,4.1,0,0,1,.872-1.384,4.258,4.258,0,0,1,1.36-.944,4.616,4.616,0,0,1,3.536,0,4.258,4.258,0,0,1,1.36.944,4.1,4.1,0,0,1,.872,1.384,4.662,4.662,0,0,1,0,3.312,4.1,4.1,0,0,1-.872,1.384,4.258,4.258,0,0,1-1.36.944A4.307,4.307,0,0,1,183.024,15.16Zm-2.5-4.32a3.166,3.166,0,0,0,.192,1.12,2.784,2.784,0,0,0,.528.888,2.469,2.469,0,0,0,.792.592,2.349,2.349,0,0,0,1.968,0,2.418,2.418,0,0,0,.792-.6,2.884,2.884,0,0,0,.528-.9,3.339,3.339,0,0,0,0-2.232,2.863,2.863,0,0,0-.528-.9,2.418,2.418,0,0,0-.792-.6,2.269,2.269,0,0,0-.984-.216,2.167,2.167,0,0,0-.968.224,2.517,2.517,0,0,0-.792.608,2.985,2.985,0,0,0-.536.9A3.071,3.071,0,0,0,180.528,10.84Zm8.384-7.52h1.76v9.264a1.042,1.042,0,0,0,.24.728.862.862,0,0,0,.672.264,1.56,1.56,0,0,0,.408-.064q.232-.064.44-.144l.256,1.376a4.1,4.1,0,0,1-.912.28,4.941,4.941,0,0,1-.944.1,1.933,1.933,0,0,1-1.416-.5,1.887,1.887,0,0,1-.5-1.408Zm8.56,11.84a4.348,4.348,0,0,1-1.784-.352,4.1,4.1,0,0,1-2.216-2.328,4.662,4.662,0,0,1,0-3.312,4.1,4.1,0,0,1,.872-1.384,4.258,4.258,0,0,1,1.36-.944,4.616,4.616,0,0,1,3.536,0,4.258,4.258,0,0,1,1.36.944,4.1,4.1,0,0,1,.872,1.384,4.662,4.662,0,0,1,0,3.312,4.1,4.1,0,0,1-.872,1.384,4.258,4.258,0,0,1-1.36.944A4.307,4.307,0,0,1,197.472,15.16Zm-2.5-4.32a3.166,3.166,0,0,0,.192,1.12,2.784,2.784,0,0,0,.528.888,2.469,2.469,0,0,0,.792.592,2.349,2.349,0,0,0,1.968,0,2.418,2.418,0,0,0,.792-.6,2.884,2.884,0,0,0,.528-.9,3.339,3.339,0,0,0,0-2.232,2.863,2.863,0,0,0-.528-.9,2.418,2.418,0,0,0-.792-.6,2.269,2.269,0,0,0-.984-.216,2.167,2.167,0,0,0-.968.224,2.517,2.517,0,0,0-.792.608,2.985,2.985,0,0,0-.536.9A3.071,3.071,0,0,0,194.976,10.84Zm11.68,4.24a3.487,3.487,0,0,1-1.552-.344A3.706,3.706,0,0,1,203.9,13.8a4.4,4.4,0,0,1-.784-1.36,4.681,4.681,0,0,1-.28-1.616,4.9,4.9,0,0,1,.288-1.688,4.283,4.283,0,0,1,.8-1.376,3.819,3.819,0,0,1,1.224-.928,3.575,3.575,0,0,1,1.576-.344,3.24,3.24,0,0,1,1.768.48,4.064,4.064,0,0,1,1.256,1.248V6.632H211.3V14.76a3.709,3.709,0,0,1-.336,1.616,3.41,3.41,0,0,1-.936,1.192,4.218,4.218,0,0,1-1.416.744,5.85,5.85,0,0,1-1.76.256,5.039,5.039,0,0,1-2.312-.472,4.375,4.375,0,0,1-1.544-1.32l.992-.928a3.1,3.1,0,0,0,1.24,1.024,3.817,3.817,0,0,0,1.624.352,3.628,3.628,0,0,0,1.032-.144,2.388,2.388,0,0,0,.856-.448,2.163,2.163,0,0,0,.584-.768,2.6,2.6,0,0,0,.216-1.1V13.48a3.061,3.061,0,0,1-1.232,1.184A3.468,3.468,0,0,1,206.656,15.08Zm.576-1.424A2.2,2.2,0,0,0,208,13.52a2.7,2.7,0,0,0,.68-.368,2.65,2.65,0,0,0,.536-.528,1.913,1.913,0,0,0,.32-.632V9.8a2.96,2.96,0,0,0-1-1.3,2.845,2.845,0,0,0-.7-.376,2.179,2.179,0,0,0-1.768.112,2.485,2.485,0,0,0-.776.656,3.123,3.123,0,0,0-.5.92,3.226,3.226,0,0,0-.176,1.056,2.9,2.9,0,0,0,.2,1.08,2.766,2.766,0,0,0,.552.88,2.709,2.709,0,0,0,.824.6A2.376,2.376,0,0,0,207.232,13.656Zm6.464,3.312q.24.048.472.08a2.877,2.877,0,0,0,.376.032.706.706,0,0,0,.36-.088,1.073,1.073,0,0,0,.312-.312,3.229,3.229,0,0,0,.328-.632q.168-.408.392-1.048L212.5,6.632H214.3l2.592,6.816,2.3-6.816h1.664l-3.792,10.3a2.607,2.607,0,0,1-.888,1.208,2.581,2.581,0,0,1-1.624.488,3.492,3.492,0,0,1-.4-.024,2.557,2.557,0,0,1-.464-.1ZM225.68,15V6.632h1.76V15Zm0-9.744V3.32h1.76V5.256Zm6.912,9.9a6.409,6.409,0,0,1-2.008-.328,5.092,5.092,0,0,1-1.72-.936l.7-1.12a6.5,6.5,0,0,0,1.488.824,4.2,4.2,0,0,0,1.5.28,2.21,2.21,0,0,0,1.24-.3.978.978,0,0,0,.456-.864.8.8,0,0,0-.512-.768,10.246,10.246,0,0,0-1.6-.528q-.784-.208-1.344-.4a3.459,3.459,0,0,1-.912-.448,1.573,1.573,0,0,1-.512-.592,1.887,1.887,0,0,1-.16-.816,2.507,2.507,0,0,1,.248-1.136,2.438,2.438,0,0,1,.688-.84,3.082,3.082,0,0,1,1.032-.52,4.473,4.473,0,0,1,1.28-.176,5.251,5.251,0,0,1,1.76.288,4.58,4.58,0,0,1,1.456.832l-.752,1.056a3.923,3.923,0,0,0-2.48-.928,2.119,2.119,0,0,0-1.128.28.965.965,0,0,0-.456.888.892.892,0,0,0,.1.432.815.815,0,0,0,.312.3,2.57,2.57,0,0,0,.56.232q.344.1.856.232.848.208,1.464.416a4.008,4.008,0,0,1,1.016.488,1.81,1.81,0,0,1,.592.656,1.967,1.967,0,0,1,.192.9,2.264,2.264,0,0,1-.9,1.9A3.929,3.929,0,0,1,232.592,15.16Zm-222.6,24a3.375,3.375,0,0,1-2.96-1.68V39H5.48V27.32H7.24v4.9a3.852,3.852,0,0,1,1.24-1.264,3.242,3.242,0,0,1,1.752-.464,3.228,3.228,0,0,1,1.52.36,3.728,3.728,0,0,1,1.176.96A4.375,4.375,0,0,1,13.68,33.2a5.2,5.2,0,0,1,.264,1.656,4.606,4.606,0,0,1-.3,1.68,4.376,4.376,0,0,1-.832,1.368,3.848,3.848,0,0,1-1.256.92A3.678,3.678,0,0,1,9.992,39.16Zm-.464-1.5a2.394,2.394,0,0,0,1.056-.232,2.63,2.63,0,0,0,.824-.616,2.823,2.823,0,0,0,.536-.888,2.963,2.963,0,0,0,.192-1.064,3.214,3.214,0,0,0-.184-1.08,2.928,2.928,0,0,0-.512-.912,2.577,2.577,0,0,0-.784-.632,2.114,2.114,0,0,0-1-.24,2.194,2.194,0,0,0-1.448.528A3.515,3.515,0,0,0,7.24,33.8v2.208a1.74,1.74,0,0,0,.336.664,2.737,2.737,0,0,0,.56.52,2.6,2.6,0,0,0,.688.344A2.27,2.27,0,0,0,9.528,37.656Zm8.576,1.5A2.369,2.369,0,0,1,16.12,38.3a4.083,4.083,0,0,1-.672-2.552v-5.12h1.76V35.4q0,2.256,1.6,2.256a2.464,2.464,0,0,0,1.424-.464,2.974,2.974,0,0,0,1.04-1.344V30.632h1.76V36.92a.694.694,0,0,0,.1.432.5.5,0,0,0,.376.144V39q-.272.048-.448.064t-.336.016a1.28,1.28,0,0,1-.816-.264.872.872,0,0,1-.352-.68l-.032-.832a3.734,3.734,0,0,1-1.456,1.384A4.157,4.157,0,0,1,18.1,39.16ZM25.272,39V30.632h1.76V39Zm0-9.744V27.32h1.76v1.936ZM29.16,27.32h1.76v9.264a1.042,1.042,0,0,0,.24.728.862.862,0,0,0,.672.264,1.561,1.561,0,0,0,.408-.064q.232-.064.44-.144l.256,1.376a4.1,4.1,0,0,1-.912.28,4.941,4.941,0,0,1-.944.1,1.933,1.933,0,0,1-1.416-.5,1.887,1.887,0,0,1-.5-1.408Zm9.456,11.248a8.822,8.822,0,0,1-.928.36,3.923,3.923,0,0,1-1.264.2,2.679,2.679,0,0,1-.784-.112,1.921,1.921,0,0,1-.648-.336,1.526,1.526,0,0,1-.44-.584,2.14,2.14,0,0,1-.16-.872V31.992h-1.1v-1.36h1.1V27.88h1.76v2.752h1.824v1.36H36.152v4.672a.869.869,0,0,0,.28.648.95.95,0,0,0,.616.2,1.961,1.961,0,0,0,.7-.128q.336-.128.5-.208ZM43.784,39V30.632h1.76V39Zm0-9.744V27.32h1.76v1.936ZM55.16,39H53.4V34.312a3.056,3.056,0,0,0-.376-1.72,1.271,1.271,0,0,0-1.112-.536,2.174,2.174,0,0,0-.768.144,2.69,2.69,0,0,0-.72.408,3.178,3.178,0,0,0-.6.624,2.859,2.859,0,0,0-.408.792V39h-1.76V30.632h1.6v1.68a3.4,3.4,0,0,1,1.392-1.336,4.2,4.2,0,0,1,2.016-.488,2.479,2.479,0,0,1,1.232.272,2.035,2.035,0,0,1,.76.744,3.255,3.255,0,0,1,.392,1.088,7.284,7.284,0,0,1,.112,1.3Zm8.224.16a3.116,3.116,0,0,1-1.128-.2,2.727,2.727,0,0,1-.9-.552,2.574,2.574,0,0,1-.592-.832,2.5,2.5,0,0,1-.216-1.04,2.242,2.242,0,0,1,.256-1.072,2.505,2.505,0,0,1,.728-.832,3.534,3.534,0,0,1,1.12-.544,5.028,5.028,0,0,1,1.432-.192,6.561,6.561,0,0,1,1.168.1,5.882,5.882,0,0,1,1.04.28V33.7a1.94,1.94,0,0,0-.528-1.448,2.076,2.076,0,0,0-1.52-.52,3.665,3.665,0,0,0-1.32.248,6.678,6.678,0,0,0-1.336.712l-.544-1.12a5.933,5.933,0,0,1,3.36-1.088,3.832,3.832,0,0,1,2.688.88,3.257,3.257,0,0,1,.96,2.528V36.92q0,.56.464.576V39q-.256.048-.44.064t-.36.016a1.132,1.132,0,0,1-.792-.256,1.1,1.1,0,0,1-.344-.656l-.048-.528a3.732,3.732,0,0,1-1.384,1.128A4.063,4.063,0,0,1,63.384,39.16Zm.48-1.3a3.164,3.164,0,0,0,1.208-.232,2.083,2.083,0,0,0,.888-.648.812.812,0,0,0,.336-.608v-1.1A5.32,5.32,0,0,0,65.344,35a5.253,5.253,0,0,0-.984-.1,2.691,2.691,0,0,0-1.544.408,1.25,1.25,0,0,0-.6,1.08,1.363,1.363,0,0,0,.464,1.048A1.687,1.687,0,0,0,63.864,37.864Zm20.272-7.232h1.68L82.3,39H80.84l-1.552-3.888L77.736,39H76.28l-3.536-8.368h1.68l2.7,6.672,1.216-3.1-1.456-3.552h1.44l.96,2.624.944-2.624h1.44L80.232,34.2l1.216,3.1ZM89,39.16a3.116,3.116,0,0,1-1.128-.2,2.727,2.727,0,0,1-.9-.552,2.574,2.574,0,0,1-.592-.832,2.5,2.5,0,0,1-.216-1.04,2.242,2.242,0,0,1,.256-1.072,2.505,2.505,0,0,1,.728-.832,3.534,3.534,0,0,1,1.12-.544A5.028,5.028,0,0,1,89.7,33.9a6.56,6.56,0,0,1,1.168.1,5.882,5.882,0,0,1,1.04.28V33.7a1.94,1.94,0,0,0-.528-1.448,2.076,2.076,0,0,0-1.52-.52,3.665,3.665,0,0,0-1.32.248,6.678,6.678,0,0,0-1.336.712l-.544-1.12a5.933,5.933,0,0,1,3.36-1.088,3.832,3.832,0,0,1,2.688.88,3.257,3.257,0,0,1,.96,2.528V36.92q0,.56.464.576V39q-.256.048-.44.064t-.36.016a1.132,1.132,0,0,1-.792-.256,1.1,1.1,0,0,1-.344-.656l-.048-.528a3.731,3.731,0,0,1-1.384,1.128A4.063,4.063,0,0,1,89,39.16Zm.48-1.3a3.164,3.164,0,0,0,1.208-.232,2.083,2.083,0,0,0,.888-.648.812.812,0,0,0,.336-.608v-1.1A5.32,5.32,0,0,0,90.96,35a5.253,5.253,0,0,0-.984-.1,2.691,2.691,0,0,0-1.544.408,1.25,1.25,0,0,0-.6,1.08A1.363,1.363,0,0,0,88.3,37.44,1.687,1.687,0,0,0,89.48,37.864Zm6.4,3.1q.24.048.472.08a2.876,2.876,0,0,0,.376.032.706.706,0,0,0,.36-.088,1.073,1.073,0,0,0,.312-.312,3.229,3.229,0,0,0,.328-.632Q97.9,39.64,98.12,39l-3.44-8.368h1.808l2.592,6.816,2.3-6.816h1.664l-3.792,10.3a2.607,2.607,0,0,1-.888,1.208,2.581,2.581,0,0,1-1.624.488,3.492,3.492,0,0,1-.4-.024,2.557,2.557,0,0,1-.464-.1Zm16.64-2.4a8.822,8.822,0,0,1-.928.36,3.923,3.923,0,0,1-1.264.2,2.679,2.679,0,0,1-.784-.112,1.921,1.921,0,0,1-.648-.336,1.526,1.526,0,0,1-.44-.584,2.14,2.14,0,0,1-.16-.872V31.992h-1.1v-1.36h1.1V27.88h1.76v2.752h1.824v1.36h-1.824v4.672a.869.869,0,0,0,.28.648.95.95,0,0,0,.616.2,1.961,1.961,0,0,0,.7-.128q.336-.128.5-.208Zm8.72.432h-1.76V34.312a2.875,2.875,0,0,0-.408-1.7,1.373,1.373,0,0,0-1.176-.552,2.007,2.007,0,0,0-.736.144,2.645,2.645,0,0,0-.7.408,3.105,3.105,0,0,0-.584.624,2.661,2.661,0,0,0-.384.792V39h-1.76V27.32h1.76v4.992a3.473,3.473,0,0,1,1.3-1.344,3.513,3.513,0,0,1,1.8-.48,2.633,2.633,0,0,1,1.288.28,2.261,2.261,0,0,1,.808.744,2.993,2.993,0,0,1,.424,1.08,6.812,6.812,0,0,1,.12,1.3Zm4.272.16a3.116,3.116,0,0,1-1.128-.2,2.727,2.727,0,0,1-.9-.552,2.574,2.574,0,0,1-.592-.832,2.5,2.5,0,0,1-.216-1.04,2.242,2.242,0,0,1,.256-1.072,2.505,2.505,0,0,1,.728-.832,3.534,3.534,0,0,1,1.12-.544,5.028,5.028,0,0,1,1.432-.192,6.56,6.56,0,0,1,1.168.1,5.882,5.882,0,0,1,1.04.28V33.7a1.94,1.94,0,0,0-.528-1.448,2.076,2.076,0,0,0-1.52-.52,3.665,3.665,0,0,0-1.32.248,6.678,6.678,0,0,0-1.336.712l-.544-1.12a5.933,5.933,0,0,1,3.36-1.088,3.832,3.832,0,0,1,2.688.88,3.257,3.257,0,0,1,.96,2.528V36.92q0,.56.464.576V39q-.256.048-.44.064t-.36.016a1.132,1.132,0,0,1-.792-.256,1.1,1.1,0,0,1-.344-.656l-.048-.528a3.732,3.732,0,0,1-1.384,1.128A4.063,4.063,0,0,1,125.512,39.16Zm.48-1.3a3.164,3.164,0,0,0,1.208-.232,2.083,2.083,0,0,0,.888-.648.812.812,0,0,0,.336-.608v-1.1a5.32,5.32,0,0,0-.952-.272,5.253,5.253,0,0,0-.984-.1,2.691,2.691,0,0,0-1.544.408,1.25,1.25,0,0,0-.6,1.08,1.363,1.363,0,0,0,.464,1.048A1.687,1.687,0,0,0,125.992,37.864Zm10.912.7a8.822,8.822,0,0,1-.928.36,3.923,3.923,0,0,1-1.264.2,2.679,2.679,0,0,1-.784-.112,1.92,1.92,0,0,1-.648-.336,1.526,1.526,0,0,1-.44-.584,2.14,2.14,0,0,1-.16-.872V31.992h-1.1v-1.36h1.1V27.88h1.76v2.752h1.824v1.36H134.44v4.672a.869.869,0,0,0,.28.648.95.95,0,0,0,.616.2,1.961,1.961,0,0,0,.7-.128q.336-.128.5-.208Zm15.168-7.936h1.68L150.232,39h-1.456l-1.552-3.888L145.672,39h-1.456l-3.536-8.368h1.68l2.7,6.672,1.216-3.1-1.456-3.552h1.44l.96,2.624.944-2.624h1.44l-1.44,3.552,1.216,3.1Zm6.336,8.528a4.451,4.451,0,0,1-1.776-.344,4.134,4.134,0,0,1-1.368-.936,4.22,4.22,0,0,1-.88-1.376,4.458,4.458,0,0,1-.312-1.664,4.52,4.52,0,0,1,.312-1.672,4.291,4.291,0,0,1,.88-1.392,4.075,4.075,0,0,1,1.368-.944,4.493,4.493,0,0,1,1.792-.344,4.307,4.307,0,0,1,1.768.352,4.227,4.227,0,0,1,1.352.936,4,4,0,0,1,.856,1.36,4.518,4.518,0,0,1,.3,1.624q0,.192-.016.36t-.032.28h-6.7a2.865,2.865,0,0,0,.264,1.008,2.653,2.653,0,0,0,.56.776,2.459,2.459,0,0,0,1.7.68,2.8,2.8,0,0,0,.7-.088,2.454,2.454,0,0,0,.632-.256,2.24,2.24,0,0,0,.512-.408,1.9,1.9,0,0,0,.352-.528l1.5.432a3.487,3.487,0,0,1-1.432,1.544A4.437,4.437,0,0,1,158.408,39.16Zm2.544-4.976a2.814,2.814,0,0,0-.264-.976,2.513,2.513,0,0,0-.552-.76,2.463,2.463,0,0,0-.784-.488,2.558,2.558,0,0,0-.944-.176,2.5,2.5,0,0,0-1.712.664,2.406,2.406,0,0,0-.544.76,2.929,2.929,0,0,0-.256.976Zm6.592.624a4.562,4.562,0,0,1,.3-1.664,4.077,4.077,0,0,1,2.24-2.312,4.493,4.493,0,0,1,1.792-.344,4.221,4.221,0,0,1,2.232.568,3.6,3.6,0,0,1,1.4,1.512l-1.712.544a2.2,2.2,0,0,0-.816-.824,2.229,2.229,0,0,0-1.136-.3,2.343,2.343,0,0,0-.984.208,2.371,2.371,0,0,0-.792.584,2.784,2.784,0,0,0-.528.888,3.214,3.214,0,0,0-.192,1.136,3.116,3.116,0,0,0,.2,1.128,2.9,2.9,0,0,0,.544.9,2.505,2.505,0,0,0,.8.6,2.233,2.233,0,0,0,.968.216,2.4,2.4,0,0,0,.64-.088,2.288,2.288,0,0,0,1.048-.616,1.393,1.393,0,0,0,.3-.448l1.728.512a3.422,3.422,0,0,1-1.392,1.544,4.312,4.312,0,0,1-2.3.6,4.363,4.363,0,0,1-1.776-.352,4.174,4.174,0,0,1-1.368-.952,4.312,4.312,0,0,1-.88-1.384A4.458,4.458,0,0,1,167.544,34.808Zm11.712,4.352a3.116,3.116,0,0,1-1.128-.2,2.727,2.727,0,0,1-.9-.552,2.574,2.574,0,0,1-.592-.832,2.5,2.5,0,0,1-.216-1.04,2.242,2.242,0,0,1,.256-1.072,2.506,2.506,0,0,1,.728-.832,3.534,3.534,0,0,1,1.12-.544,5.028,5.028,0,0,1,1.432-.192,6.561,6.561,0,0,1,1.168.1,5.883,5.883,0,0,1,1.04.28V33.7a1.94,1.94,0,0,0-.528-1.448,2.076,2.076,0,0,0-1.52-.52,3.665,3.665,0,0,0-1.32.248,6.678,6.678,0,0,0-1.336.712l-.544-1.12a5.933,5.933,0,0,1,3.36-1.088,3.832,3.832,0,0,1,2.688.88,3.257,3.257,0,0,1,.96,2.528V36.92q0,.56.464.576V39q-.256.048-.44.064t-.36.016a1.132,1.132,0,0,1-.792-.256,1.1,1.1,0,0,1-.344-.656l-.048-.528a3.732,3.732,0,0,1-1.384,1.128A4.063,4.063,0,0,1,179.256,39.16Zm.48-1.3a3.164,3.164,0,0,0,1.208-.232,2.083,2.083,0,0,0,.888-.648.812.812,0,0,0,.336-.608v-1.1a5.32,5.32,0,0,0-.952-.272,5.254,5.254,0,0,0-.984-.1,2.691,2.691,0,0,0-1.544.408,1.25,1.25,0,0,0-.6,1.08,1.363,1.363,0,0,0,.464,1.048A1.687,1.687,0,0,0,179.736,37.864ZM193.56,39H191.8V34.312a3.056,3.056,0,0,0-.376-1.72,1.271,1.271,0,0,0-1.112-.536,2.174,2.174,0,0,0-.768.144,2.69,2.69,0,0,0-.72.408,3.178,3.178,0,0,0-.6.624,2.86,2.86,0,0,0-.408.792V39h-1.76V30.632h1.6v1.68a3.4,3.4,0,0,1,1.392-1.336,4.2,4.2,0,0,1,2.016-.488,2.479,2.479,0,0,1,1.232.272,2.035,2.035,0,0,1,.76.744,3.255,3.255,0,0,1,.392,1.088,7.285,7.285,0,0,1,.112,1.3Zm5.456-4.192a4.562,4.562,0,0,1,.3-1.664,4.077,4.077,0,0,1,2.24-2.312,4.493,4.493,0,0,1,1.792-.344,4.221,4.221,0,0,1,2.232.568,3.6,3.6,0,0,1,1.4,1.512l-1.712.544a2.2,2.2,0,0,0-.816-.824,2.229,2.229,0,0,0-1.136-.3,2.343,2.343,0,0,0-.984.208,2.371,2.371,0,0,0-.792.584,2.784,2.784,0,0,0-.528.888,3.214,3.214,0,0,0-.192,1.136,3.116,3.116,0,0,0,.2,1.128,2.9,2.9,0,0,0,.544.9,2.505,2.505,0,0,0,.8.6,2.233,2.233,0,0,0,.968.216,2.4,2.4,0,0,0,.64-.088,2.288,2.288,0,0,0,1.048-.616,1.393,1.393,0,0,0,.3-.448l1.728.512a3.422,3.422,0,0,1-1.392,1.544,4.312,4.312,0,0,1-2.3.6,4.363,4.363,0,0,1-1.776-.352,4.174,4.174,0,0,1-1.368-.952,4.312,4.312,0,0,1-.88-1.384A4.458,4.458,0,0,1,199.016,34.808Zm11.712,4.352a3.116,3.116,0,0,1-1.128-.2,2.727,2.727,0,0,1-.9-.552,2.574,2.574,0,0,1-.592-.832,2.5,2.5,0,0,1-.216-1.04,2.242,2.242,0,0,1,.256-1.072,2.506,2.506,0,0,1,.728-.832,3.534,3.534,0,0,1,1.12-.544,5.028,5.028,0,0,1,1.432-.192,6.561,6.561,0,0,1,1.168.1,5.883,5.883,0,0,1,1.04.28V33.7a1.94,1.94,0,0,0-.528-1.448,2.076,2.076,0,0,0-1.52-.52,3.665,3.665,0,0,0-1.32.248,6.678,6.678,0,0,0-1.336.712l-.544-1.12a5.933,5.933,0,0,1,3.36-1.088,3.832,3.832,0,0,1,2.688.88,3.257,3.257,0,0,1,.96,2.528V36.92q0,.56.464.576V39q-.256.048-.44.064t-.36.016a1.132,1.132,0,0,1-.792-.256,1.1,1.1,0,0,1-.344-.656l-.048-.528a3.732,3.732,0,0,1-1.384,1.128A4.063,4.063,0,0,1,210.728,39.16Zm.48-1.3a3.164,3.164,0,0,0,1.208-.232,2.083,2.083,0,0,0,.888-.648.812.812,0,0,0,.336-.608v-1.1a5.32,5.32,0,0,0-.952-.272,5.254,5.254,0,0,0-.984-.1,2.691,2.691,0,0,0-1.544.408,1.25,1.25,0,0,0-.6,1.08,1.363,1.363,0,0,0,.464,1.048A1.687,1.687,0,0,0,211.208,37.864Zm10.912.7a8.822,8.822,0,0,1-.928.36,3.923,3.923,0,0,1-1.264.2,2.679,2.679,0,0,1-.784-.112,1.92,1.92,0,0,1-.648-.336,1.526,1.526,0,0,1-.44-.584,2.14,2.14,0,0,1-.16-.872V31.992h-1.1v-1.36h1.1V27.88h1.76v2.752h1.824v1.36h-1.824v4.672a.869.869,0,0,0,.28.648.95.95,0,0,0,.616.2,1.961,1.961,0,0,0,.7-.128q.336-.128.5-.208Zm4.8.592a4.451,4.451,0,0,1-1.776-.344,4.134,4.134,0,0,1-1.368-.936,4.22,4.22,0,0,1-.88-1.376,4.458,4.458,0,0,1-.312-1.664,4.52,4.52,0,0,1,.312-1.672,4.291,4.291,0,0,1,.88-1.392,4.075,4.075,0,0,1,1.368-.944,4.493,4.493,0,0,1,1.792-.344,4.307,4.307,0,0,1,1.768.352,4.227,4.227,0,0,1,1.352.936,4,4,0,0,1,.856,1.36,4.518,4.518,0,0,1,.3,1.624q0,.192-.016.36t-.032.28h-6.7a2.865,2.865,0,0,0,.264,1.008,2.653,2.653,0,0,0,.56.776,2.459,2.459,0,0,0,1.7.68,2.8,2.8,0,0,0,.7-.088,2.454,2.454,0,0,0,.632-.256,2.24,2.24,0,0,0,.512-.408,1.9,1.9,0,0,0,.352-.528l1.5.432a3.487,3.487,0,0,1-1.432,1.544A4.437,4.437,0,0,1,226.92,39.16Zm2.544-4.976a2.814,2.814,0,0,0-.264-.976,2.513,2.513,0,0,0-.552-.76,2.463,2.463,0,0,0-.784-.488,2.558,2.558,0,0,0-.944-.176,2.5,2.5,0,0,0-1.712.664,2.406,2.406,0,0,0-.544.76,2.929,2.929,0,0,0-.256.976Zm7.888-2.032a3.936,3.936,0,0,0-1.816.472,2.487,2.487,0,0,0-1.128,1.256V39h-1.76V30.632h1.632V32.5a3.827,3.827,0,0,1,1.128-1.384,2.736,2.736,0,0,1,1.5-.568h.264a.945.945,0,0,1,.184.016ZM25.48,62.568a8.822,8.822,0,0,1-.928.36,3.923,3.923,0,0,1-1.264.2,2.679,2.679,0,0,1-.784-.112,1.921,1.921,0,0,1-.648-.336,1.526,1.526,0,0,1-.44-.584,2.14,2.14,0,0,1-.16-.872V55.992h-1.1v-1.36h1.1V51.88h1.76v2.752H24.84v1.36H23.016v4.672a.869.869,0,0,0,.28.648.95.95,0,0,0,.616.2,1.961,1.961,0,0,0,.7-.128q.336-.128.5-.208Zm4.768.592a4.348,4.348,0,0,1-1.784-.352,4.1,4.1,0,0,1-2.216-2.328,4.662,4.662,0,0,1,0-3.312,4.1,4.1,0,0,1,.872-1.384,4.258,4.258,0,0,1,1.36-.944,4.616,4.616,0,0,1,3.536,0,4.258,4.258,0,0,1,1.36.944,4.1,4.1,0,0,1,.872,1.384,4.662,4.662,0,0,1,0,3.312,4.1,4.1,0,0,1-.872,1.384,4.258,4.258,0,0,1-1.36.944A4.307,4.307,0,0,1,30.248,63.16Zm-2.5-4.32a3.166,3.166,0,0,0,.192,1.12,2.784,2.784,0,0,0,.528.888,2.469,2.469,0,0,0,.792.592,2.349,2.349,0,0,0,1.968,0,2.418,2.418,0,0,0,.792-.6,2.883,2.883,0,0,0,.528-.9,3.339,3.339,0,0,0,0-2.232,2.863,2.863,0,0,0-.528-.9,2.418,2.418,0,0,0-.792-.6,2.269,2.269,0,0,0-.984-.216,2.167,2.167,0,0,0-.968.224,2.518,2.518,0,0,0-.792.608,2.985,2.985,0,0,0-.536.9A3.071,3.071,0,0,0,27.752,58.84ZM42.3,63.16a3.116,3.116,0,0,1-1.128-.2,2.727,2.727,0,0,1-.9-.552,2.574,2.574,0,0,1-.592-.832,2.5,2.5,0,0,1-.216-1.04,2.242,2.242,0,0,1,.256-1.072,2.505,2.505,0,0,1,.728-.832,3.534,3.534,0,0,1,1.12-.544A5.028,5.028,0,0,1,43,57.9a6.56,6.56,0,0,1,1.168.1,5.882,5.882,0,0,1,1.04.28V57.7a1.94,1.94,0,0,0-.528-1.448,2.076,2.076,0,0,0-1.52-.52,3.665,3.665,0,0,0-1.32.248A6.678,6.678,0,0,0,40.5,56.7l-.544-1.12a5.933,5.933,0,0,1,3.36-1.088,3.832,3.832,0,0,1,2.688.88,3.257,3.257,0,0,1,.96,2.528V60.92q0,.56.464.576V63q-.256.048-.44.064t-.36.016a1.132,1.132,0,0,1-.792-.256,1.1,1.1,0,0,1-.344-.656l-.048-.528a3.731,3.731,0,0,1-1.384,1.128A4.063,4.063,0,0,1,42.3,63.16Zm.48-1.3a3.164,3.164,0,0,0,1.208-.232,2.083,2.083,0,0,0,.888-.648.812.812,0,0,0,.336-.608v-1.1A5.32,5.32,0,0,0,44.256,59a5.253,5.253,0,0,0-.984-.1,2.691,2.691,0,0,0-1.544.408,1.25,1.25,0,0,0-.6,1.08,1.363,1.363,0,0,0,.464,1.048A1.687,1.687,0,0,0,42.776,61.864ZM56.6,63H54.84V58.312a3.056,3.056,0,0,0-.376-1.72,1.271,1.271,0,0,0-1.112-.536,2.174,2.174,0,0,0-.768.144,2.69,2.69,0,0,0-.72.408,3.178,3.178,0,0,0-.6.624,2.859,2.859,0,0,0-.408.792V63H49.1V54.632h1.6v1.68a3.4,3.4,0,0,1,1.392-1.336,4.2,4.2,0,0,1,2.016-.488,2.479,2.479,0,0,1,1.232.272,2.035,2.035,0,0,1,.76.744,3.255,3.255,0,0,1,.392,1.088,7.284,7.284,0,0,1,.112,1.3Zm2.144,1.968q.24.048.472.08a2.876,2.876,0,0,0,.376.032.706.706,0,0,0,.36-.088,1.073,1.073,0,0,0,.312-.312,3.229,3.229,0,0,0,.328-.632q.168-.408.392-1.048l-3.44-8.368h1.808l2.592,6.816,2.3-6.816h1.664l-3.792,10.3a2.607,2.607,0,0,1-.888,1.208,2.581,2.581,0,0,1-1.624.488,3.493,3.493,0,0,1-.4-.024,2.556,2.556,0,0,1-.464-.1ZM75.48,63.16a3.281,3.281,0,0,1-1.776-.48,3.583,3.583,0,0,1-1.216-1.248v4.976h-1.76V54.632H72.28v1.5a3.655,3.655,0,0,1,1.24-1.2,3.323,3.323,0,0,1,1.72-.448,3.557,3.557,0,0,1,1.584.352,4.023,4.023,0,0,1,1.248.944A4.357,4.357,0,0,1,78.9,57.16a4.627,4.627,0,0,1,.3,1.648,5.212,5.212,0,0,1-.272,1.7,4.216,4.216,0,0,1-.768,1.376,3.749,3.749,0,0,1-1.176.928A3.266,3.266,0,0,1,75.48,63.16Zm-.576-1.5a2.148,2.148,0,0,0,1.016-.24,2.525,2.525,0,0,0,.784-.64,2.923,2.923,0,0,0,.5-.912,3.226,3.226,0,0,0,.176-1.056,2.963,2.963,0,0,0-.2-1.088,2.922,2.922,0,0,0-.544-.9,2.529,2.529,0,0,0-.824-.608,2.429,2.429,0,0,0-1.04-.224,2.142,2.142,0,0,0-.7.128,2.8,2.8,0,0,0-.688.352,2.737,2.737,0,0,0-.56.52,1.753,1.753,0,0,0-.336.648v2.192a3.24,3.24,0,0,0,.416.72,3.062,3.062,0,0,0,.568.576,2.758,2.758,0,0,0,.68.384A2.047,2.047,0,0,0,74.9,61.656Zm8.1,1.5a3.116,3.116,0,0,1-1.128-.2,2.727,2.727,0,0,1-.9-.552,2.574,2.574,0,0,1-.592-.832,2.5,2.5,0,0,1-.216-1.04,2.242,2.242,0,0,1,.256-1.072,2.505,2.505,0,0,1,.728-.832,3.534,3.534,0,0,1,1.12-.544A5.028,5.028,0,0,1,83.7,57.9a6.56,6.56,0,0,1,1.168.1,5.882,5.882,0,0,1,1.04.28V57.7a1.94,1.94,0,0,0-.528-1.448,2.076,2.076,0,0,0-1.52-.52,3.665,3.665,0,0,0-1.32.248,6.678,6.678,0,0,0-1.336.712l-.544-1.12a5.933,5.933,0,0,1,3.36-1.088,3.832,3.832,0,0,1,2.688.88,3.257,3.257,0,0,1,.96,2.528V60.92q0,.56.464.576V63q-.256.048-.44.064t-.36.016a1.132,1.132,0,0,1-.792-.256,1.1,1.1,0,0,1-.344-.656l-.048-.528a3.731,3.731,0,0,1-1.384,1.128A4.063,4.063,0,0,1,83,63.16Zm.48-1.3a3.164,3.164,0,0,0,1.208-.232,2.083,2.083,0,0,0,.888-.648.812.812,0,0,0,.336-.608v-1.1A5.32,5.32,0,0,0,84.96,59a5.253,5.253,0,0,0-.984-.1,2.691,2.691,0,0,0-1.544.408,1.25,1.25,0,0,0-.6,1.08A1.363,1.363,0,0,0,82.3,61.44,1.687,1.687,0,0,0,83.48,61.864Zm6.4,3.1q.24.048.472.08a2.876,2.876,0,0,0,.376.032.706.706,0,0,0,.36-.088,1.073,1.073,0,0,0,.312-.312,3.229,3.229,0,0,0,.328-.632Q91.9,63.64,92.12,63l-3.44-8.368h1.808l2.592,6.816,2.3-6.816h1.664l-3.792,10.3a2.607,2.607,0,0,1-.888,1.208,2.581,2.581,0,0,1-1.624.488,3.493,3.493,0,0,1-.4-.024,2.556,2.556,0,0,1-.464-.1ZM111.144,63h-1.76V58.312A3.01,3.01,0,0,0,109,56.6a1.285,1.285,0,0,0-1.12-.544,2,2,0,0,0-1.368.552,3.107,3.107,0,0,0-.888,1.432V63h-1.76V58.312a3,3,0,0,0-.384-1.72,1.275,1.275,0,0,0-1.1-.536A2.047,2.047,0,0,0,101,56.6a3.025,3.025,0,0,0-.9,1.424V63h-1.76V54.632h1.6v1.68a3.536,3.536,0,0,1,1.3-1.352,3.6,3.6,0,0,1,1.848-.472,2.238,2.238,0,0,1,2.384,1.9,3.831,3.831,0,0,1,1.328-1.416,3.432,3.432,0,0,1,1.824-.488,2.431,2.431,0,0,1,1.224.28,2.164,2.164,0,0,1,.776.744,3.068,3.068,0,0,1,.4,1.08,7.284,7.284,0,0,1,.112,1.3Zm5.824.16a4.451,4.451,0,0,1-1.776-.344,4.134,4.134,0,0,1-1.368-.936,4.22,4.22,0,0,1-.88-1.376,4.459,4.459,0,0,1-.312-1.664,4.52,4.52,0,0,1,.312-1.672,4.291,4.291,0,0,1,.88-1.392,4.075,4.075,0,0,1,1.368-.944,4.493,4.493,0,0,1,1.792-.344,4.307,4.307,0,0,1,1.768.352,4.227,4.227,0,0,1,1.352.936,4,4,0,0,1,.856,1.36,4.518,4.518,0,0,1,.3,1.624q0,.192-.016.36t-.032.28h-6.7a2.865,2.865,0,0,0,.264,1.008,2.653,2.653,0,0,0,.56.776,2.459,2.459,0,0,0,1.7.68,2.8,2.8,0,0,0,.7-.088,2.454,2.454,0,0,0,.632-.256,2.24,2.24,0,0,0,.512-.408,1.9,1.9,0,0,0,.352-.528l1.5.432A3.487,3.487,0,0,1,119.3,62.56,4.437,4.437,0,0,1,116.968,63.16Zm2.544-4.976a2.814,2.814,0,0,0-.264-.976,2.513,2.513,0,0,0-.552-.76,2.463,2.463,0,0,0-.784-.488,2.558,2.558,0,0,0-.944-.176,2.5,2.5,0,0,0-1.712.664,2.406,2.406,0,0,0-.544.76,2.929,2.929,0,0,0-.256.976ZM130.2,63h-1.76V58.312a3.056,3.056,0,0,0-.376-1.72,1.271,1.271,0,0,0-1.112-.536,2.174,2.174,0,0,0-.768.144,2.69,2.69,0,0,0-.72.408,3.178,3.178,0,0,0-.6.624,2.859,2.859,0,0,0-.408.792V63H122.7V54.632h1.6v1.68a3.4,3.4,0,0,1,1.392-1.336,4.2,4.2,0,0,1,2.016-.488,2.479,2.479,0,0,1,1.232.272,2.035,2.035,0,0,1,.76.744,3.255,3.255,0,0,1,.392,1.088,7.285,7.285,0,0,1,.112,1.3Zm6.624-.432a8.822,8.822,0,0,1-.928.36,3.923,3.923,0,0,1-1.264.2,2.679,2.679,0,0,1-.784-.112,1.92,1.92,0,0,1-.648-.336,1.526,1.526,0,0,1-.44-.584,2.14,2.14,0,0,1-.16-.872V55.992h-1.1v-1.36h1.1V51.88h1.76v2.752h1.824v1.36H134.36v4.672a.869.869,0,0,0,.28.648.95.95,0,0,0,.616.2,1.961,1.961,0,0,0,.7-.128q.336-.128.5-.208Zm5.168.432V54.632h1.76V63Zm0-9.744V51.32h1.76v1.936ZM153.368,63h-1.76V58.312a3.056,3.056,0,0,0-.376-1.72,1.271,1.271,0,0,0-1.112-.536,2.174,2.174,0,0,0-.768.144,2.69,2.69,0,0,0-.72.408,3.178,3.178,0,0,0-.6.624,2.86,2.86,0,0,0-.408.792V63h-1.76V54.632h1.6v1.68a3.4,3.4,0,0,1,1.392-1.336,4.2,4.2,0,0,1,2.016-.488,2.479,2.479,0,0,1,1.232.272,2.035,2.035,0,0,1,.76.744,3.255,3.255,0,0,1,.392,1.088,7.285,7.285,0,0,1,.112,1.3Zm6.624-.432a8.822,8.822,0,0,1-.928.36,3.923,3.923,0,0,1-1.264.2,2.679,2.679,0,0,1-.784-.112,1.92,1.92,0,0,1-.648-.336,1.526,1.526,0,0,1-.44-.584,2.14,2.14,0,0,1-.16-.872V55.992h-1.1v-1.36h1.1V51.88h1.76v2.752h1.824v1.36h-1.824v4.672a.869.869,0,0,0,.28.648.95.95,0,0,0,.616.2,1.961,1.961,0,0,0,.7-.128q.336-.128.5-.208Zm4.8.592a4.451,4.451,0,0,1-1.776-.344,4.134,4.134,0,0,1-1.368-.936,4.22,4.22,0,0,1-.88-1.376,4.458,4.458,0,0,1-.312-1.664,4.52,4.52,0,0,1,.312-1.672,4.291,4.291,0,0,1,.88-1.392,4.075,4.075,0,0,1,1.368-.944,4.493,4.493,0,0,1,1.792-.344,4.307,4.307,0,0,1,1.768.352,4.227,4.227,0,0,1,1.352.936,4,4,0,0,1,.856,1.36,4.518,4.518,0,0,1,.3,1.624q0,.192-.016.36t-.032.28h-6.7a2.865,2.865,0,0,0,.264,1.008,2.653,2.653,0,0,0,.56.776,2.459,2.459,0,0,0,1.7.68,2.8,2.8,0,0,0,.7-.088,2.454,2.454,0,0,0,.632-.256,2.24,2.24,0,0,0,.512-.408,1.9,1.9,0,0,0,.352-.528l1.5.432a3.487,3.487,0,0,1-1.432,1.544A4.437,4.437,0,0,1,164.792,63.16Zm2.544-4.976a2.814,2.814,0,0,0-.264-.976,2.513,2.513,0,0,0-.552-.76,2.463,2.463,0,0,0-.784-.488,2.558,2.558,0,0,0-.944-.176,2.5,2.5,0,0,0-1.712.664,2.406,2.406,0,0,0-.544.76,2.929,2.929,0,0,0-.256.976Zm7.888-2.032a3.936,3.936,0,0,0-1.816.472,2.487,2.487,0,0,0-1.128,1.256V63h-1.76V54.632h1.632V56.5a3.827,3.827,0,0,1,1.128-1.384,2.736,2.736,0,0,1,1.5-.568h.264a.945.945,0,0,1,.184.016Zm3.392,7.008a3.116,3.116,0,0,1-1.128-.2,2.727,2.727,0,0,1-.9-.552,2.574,2.574,0,0,1-.592-.832,2.5,2.5,0,0,1-.216-1.04,2.242,2.242,0,0,1,.256-1.072,2.506,2.506,0,0,1,.728-.832,3.534,3.534,0,0,1,1.12-.544,5.028,5.028,0,0,1,1.432-.192,6.56,6.56,0,0,1,1.168.1,5.882,5.882,0,0,1,1.04.28V57.7A1.94,1.94,0,0,0,181,56.256a2.076,2.076,0,0,0-1.52-.52,3.665,3.665,0,0,0-1.32.248,6.678,6.678,0,0,0-1.336.712l-.544-1.12a5.933,5.933,0,0,1,3.36-1.088,3.832,3.832,0,0,1,2.688.88,3.257,3.257,0,0,1,.96,2.528V60.92q0,.56.464.576V63q-.256.048-.44.064t-.36.016a1.132,1.132,0,0,1-.792-.256,1.1,1.1,0,0,1-.344-.656l-.048-.528a3.732,3.732,0,0,1-1.384,1.128A4.063,4.063,0,0,1,178.616,63.16Zm.48-1.3a3.164,3.164,0,0,0,1.208-.232,2.083,2.083,0,0,0,.888-.648.812.812,0,0,0,.336-.608v-1.1a5.32,5.32,0,0,0-.952-.272,5.254,5.254,0,0,0-.984-.1,2.691,2.691,0,0,0-1.544.408,1.25,1.25,0,0,0-.6,1.08,1.363,1.363,0,0,0,.464,1.048A1.687,1.687,0,0,0,179.1,61.864Zm5.776-3.056a4.562,4.562,0,0,1,.3-1.664,4.077,4.077,0,0,1,2.24-2.312,4.493,4.493,0,0,1,1.792-.344,4.221,4.221,0,0,1,2.232.568,3.6,3.6,0,0,1,1.4,1.512l-1.712.544a2.2,2.2,0,0,0-.816-.824,2.229,2.229,0,0,0-1.136-.3,2.343,2.343,0,0,0-.984.208,2.371,2.371,0,0,0-.792.584,2.784,2.784,0,0,0-.528.888,3.214,3.214,0,0,0-.192,1.136,3.116,3.116,0,0,0,.2,1.128,2.9,2.9,0,0,0,.544.9,2.505,2.505,0,0,0,.8.6,2.233,2.233,0,0,0,.968.216,2.4,2.4,0,0,0,.64-.088,2.288,2.288,0,0,0,1.048-.616,1.393,1.393,0,0,0,.3-.448l1.728.512a3.422,3.422,0,0,1-1.392,1.544,4.312,4.312,0,0,1-2.3.6,4.363,4.363,0,0,1-1.776-.352,4.174,4.174,0,0,1-1.368-.952,4.312,4.312,0,0,1-.88-1.384A4.458,4.458,0,0,1,184.872,58.808Zm14.144,3.76a8.822,8.822,0,0,1-.928.36,3.923,3.923,0,0,1-1.264.2,2.679,2.679,0,0,1-.784-.112,1.92,1.92,0,0,1-.648-.336,1.526,1.526,0,0,1-.44-.584,2.14,2.14,0,0,1-.16-.872V55.992h-1.1v-1.36h1.1V51.88h1.76v2.752h1.824v1.36h-1.824v4.672a.869.869,0,0,0,.28.648.95.95,0,0,0,.616.2,1.961,1.961,0,0,0,.7-.128q.336-.128.5-.208Zm1.216.432V54.632h1.76V63Zm0-9.744V51.32h1.76v1.936Zm7.632,9.9a4.348,4.348,0,0,1-1.784-.352,4.1,4.1,0,0,1-2.216-2.328,4.662,4.662,0,0,1,0-3.312,4.1,4.1,0,0,1,.872-1.384,4.258,4.258,0,0,1,1.36-.944,4.616,4.616,0,0,1,3.536,0,4.258,4.258,0,0,1,1.36.944,4.1,4.1,0,0,1,.872,1.384,4.662,4.662,0,0,1,0,3.312,4.1,4.1,0,0,1-.872,1.384,4.258,4.258,0,0,1-1.36.944A4.307,4.307,0,0,1,207.864,63.16Zm-2.5-4.32a3.166,3.166,0,0,0,.192,1.12,2.784,2.784,0,0,0,.528.888,2.469,2.469,0,0,0,.792.592,2.349,2.349,0,0,0,1.968,0,2.418,2.418,0,0,0,.792-.6,2.884,2.884,0,0,0,.528-.9,3.339,3.339,0,0,0,0-2.232,2.863,2.863,0,0,0-.528-.9,2.418,2.418,0,0,0-.792-.6,2.269,2.269,0,0,0-.984-.216,2.167,2.167,0,0,0-.968.224,2.517,2.517,0,0,0-.792.608,2.985,2.985,0,0,0-.536.9A3.071,3.071,0,0,0,205.368,58.84ZM221.24,63h-1.76V58.312a3.056,3.056,0,0,0-.376-1.72,1.271,1.271,0,0,0-1.112-.536,2.174,2.174,0,0,0-.768.144,2.69,2.69,0,0,0-.72.408,3.178,3.178,0,0,0-.6.624,2.86,2.86,0,0,0-.408.792V63h-1.76V54.632h1.6v1.68a3.4,3.4,0,0,1,1.392-1.336,4.2,4.2,0,0,1,2.016-.488,2.479,2.479,0,0,1,1.232.272,2.035,2.035,0,0,1,.76.744,3.255,3.255,0,0,1,.392,1.088,7.285,7.285,0,0,1,.112,1.3ZM93.2,87.16a3.281,3.281,0,0,1-1.776-.48,3.583,3.583,0,0,1-1.216-1.248v4.976h-1.76V78.632H90v1.5a3.655,3.655,0,0,1,1.24-1.2,3.323,3.323,0,0,1,1.72-.448,3.558,3.558,0,0,1,1.584.352,4.023,4.023,0,0,1,1.248.944,4.357,4.357,0,0,1,.824,1.376,4.627,4.627,0,0,1,.3,1.648,5.212,5.212,0,0,1-.272,1.7,4.216,4.216,0,0,1-.768,1.376,3.749,3.749,0,0,1-1.176.928A3.266,3.266,0,0,1,93.2,87.16Zm-.576-1.5a2.148,2.148,0,0,0,1.016-.24,2.525,2.525,0,0,0,.784-.64,2.923,2.923,0,0,0,.5-.912,3.226,3.226,0,0,0,.176-1.056,2.963,2.963,0,0,0-.2-1.088,2.922,2.922,0,0,0-.544-.9,2.529,2.529,0,0,0-.824-.608,2.429,2.429,0,0,0-1.04-.224,2.142,2.142,0,0,0-.7.128,2.8,2.8,0,0,0-.688.352,2.737,2.737,0,0,0-.56.52,1.753,1.753,0,0,0-.336.648v2.192a3.24,3.24,0,0,0,.416.72,3.062,3.062,0,0,0,.568.576,2.758,2.758,0,0,0,.68.384A2.047,2.047,0,0,0,92.624,85.656Zm9.632,1.5a4.347,4.347,0,0,1-1.784-.352,4.1,4.1,0,0,1-2.216-2.328,4.662,4.662,0,0,1,0-3.312,4.1,4.1,0,0,1,.872-1.384,4.258,4.258,0,0,1,1.36-.944,4.616,4.616,0,0,1,3.536,0,4.258,4.258,0,0,1,1.36.944,4.1,4.1,0,0,1,.872,1.384,4.662,4.662,0,0,1,0,3.312,4.1,4.1,0,0,1-.872,1.384,4.258,4.258,0,0,1-1.36.944A4.307,4.307,0,0,1,102.256,87.16Zm-2.5-4.32a3.166,3.166,0,0,0,.192,1.12,2.784,2.784,0,0,0,.528.888,2.469,2.469,0,0,0,.792.592,2.349,2.349,0,0,0,1.968,0,2.418,2.418,0,0,0,.792-.6,2.883,2.883,0,0,0,.528-.9,3.339,3.339,0,0,0,0-2.232,2.863,2.863,0,0,0-.528-.9,2.418,2.418,0,0,0-.792-.6,2.269,2.269,0,0,0-.984-.216,2.167,2.167,0,0,0-.968.224,2.517,2.517,0,0,0-.792.608,2.986,2.986,0,0,0-.536.9A3.071,3.071,0,0,0,99.76,82.84Zm11.408,4.32a6.409,6.409,0,0,1-2.008-.328,5.092,5.092,0,0,1-1.72-.936l.7-1.12a6.5,6.5,0,0,0,1.488.824,4.2,4.2,0,0,0,1.5.28,2.21,2.21,0,0,0,1.24-.3.978.978,0,0,0,.456-.864.8.8,0,0,0-.512-.768,10.246,10.246,0,0,0-1.6-.528q-.784-.208-1.344-.4a3.459,3.459,0,0,1-.912-.448,1.573,1.573,0,0,1-.512-.592,1.887,1.887,0,0,1-.16-.816,2.507,2.507,0,0,1,.248-1.136,2.438,2.438,0,0,1,.688-.84,3.082,3.082,0,0,1,1.032-.52,4.473,4.473,0,0,1,1.28-.176,5.251,5.251,0,0,1,1.76.288,4.58,4.58,0,0,1,1.456.832l-.752,1.056a3.923,3.923,0,0,0-2.48-.928,2.119,2.119,0,0,0-1.128.28.965.965,0,0,0-.456.888.892.892,0,0,0,.1.432.815.815,0,0,0,.312.3,2.57,2.57,0,0,0,.56.232q.344.1.856.232.848.208,1.464.416a4.008,4.008,0,0,1,1.016.488,1.81,1.81,0,0,1,.592.656,1.967,1.967,0,0,1,.192.9,2.264,2.264,0,0,1-.9,1.9A3.929,3.929,0,0,1,111.168,87.16Zm7.936,0a6.409,6.409,0,0,1-2.008-.328,5.092,5.092,0,0,1-1.72-.936l.7-1.12a6.5,6.5,0,0,0,1.488.824,4.2,4.2,0,0,0,1.5.28,2.21,2.21,0,0,0,1.24-.3.978.978,0,0,0,.456-.864.8.8,0,0,0-.512-.768,10.246,10.246,0,0,0-1.6-.528q-.784-.208-1.344-.4a3.459,3.459,0,0,1-.912-.448,1.573,1.573,0,0,1-.512-.592,1.887,1.887,0,0,1-.16-.816,2.507,2.507,0,0,1,.248-1.136,2.438,2.438,0,0,1,.688-.84,3.082,3.082,0,0,1,1.032-.52,4.473,4.473,0,0,1,1.28-.176,5.251,5.251,0,0,1,1.76.288,4.58,4.58,0,0,1,1.456.832l-.752,1.056a3.923,3.923,0,0,0-2.48-.928,2.119,2.119,0,0,0-1.128.28.965.965,0,0,0-.456.888.892.892,0,0,0,.1.432.815.815,0,0,0,.312.3,2.57,2.57,0,0,0,.56.232q.344.1.856.232.848.208,1.464.416a4.008,4.008,0,0,1,1.016.488,1.81,1.81,0,0,1,.592.656,1.967,1.967,0,0,1,.192.9,2.264,2.264,0,0,1-.9,1.9A3.929,3.929,0,0,1,119.1,87.16ZM124,87V78.632h1.76V87Zm0-9.744V75.32h1.76v1.936Zm8.384,9.9a3.375,3.375,0,0,1-2.96-1.68V87h-1.552V75.32h1.76v4.9a3.852,3.852,0,0,1,1.24-1.264,3.469,3.469,0,0,1,3.272-.1,3.728,3.728,0,0,1,1.176.96,4.375,4.375,0,0,1,.752,1.392,5.2,5.2,0,0,1,.264,1.656,4.606,4.606,0,0,1-.3,1.68A4.376,4.376,0,0,1,135.2,85.9a3.848,3.848,0,0,1-1.256.92A3.677,3.677,0,0,1,132.384,87.16Zm-.464-1.5a2.394,2.394,0,0,0,1.056-.232,2.63,2.63,0,0,0,.824-.616,2.823,2.823,0,0,0,.536-.888,2.963,2.963,0,0,0,.192-1.064,3.214,3.214,0,0,0-.184-1.08,2.928,2.928,0,0,0-.512-.912,2.577,2.577,0,0,0-.784-.632,2.114,2.114,0,0,0-1-.24,2.194,2.194,0,0,0-1.448.528,3.515,3.515,0,0,0-.968,1.28v2.208a1.74,1.74,0,0,0,.336.664,2.737,2.737,0,0,0,.56.52,2.6,2.6,0,0,0,.688.344A2.27,2.27,0,0,0,131.92,85.656Zm6.016-10.336h1.76v9.264a1.042,1.042,0,0,0,.24.728.862.862,0,0,0,.672.264,1.561,1.561,0,0,0,.408-.064q.232-.064.44-.144l.256,1.376a4.1,4.1,0,0,1-.912.28,4.941,4.941,0,0,1-.944.1,1.933,1.933,0,0,1-1.416-.5,1.887,1.887,0,0,1-.5-1.408Zm8.592,11.84a4.451,4.451,0,0,1-1.776-.344,4.133,4.133,0,0,1-1.368-.936,4.22,4.22,0,0,1-.88-1.376,4.458,4.458,0,0,1-.312-1.664,4.52,4.52,0,0,1,.312-1.672,4.291,4.291,0,0,1,.88-1.392,4.075,4.075,0,0,1,1.368-.944,4.493,4.493,0,0,1,1.792-.344,4.307,4.307,0,0,1,1.768.352,4.227,4.227,0,0,1,1.352.936,4,4,0,0,1,.856,1.36,4.518,4.518,0,0,1,.3,1.624q0,.192-.016.36t-.032.28h-6.7a2.865,2.865,0,0,0,.264,1.008,2.653,2.653,0,0,0,.56.776,2.459,2.459,0,0,0,1.7.68,2.8,2.8,0,0,0,.7-.088,2.454,2.454,0,0,0,.632-.256,2.24,2.24,0,0,0,.512-.408,1.9,1.9,0,0,0,.352-.528l1.5.432a3.487,3.487,0,0,1-1.432,1.544A4.437,4.437,0,0,1,146.528,87.16Zm2.544-4.976a2.814,2.814,0,0,0-.264-.976,2.513,2.513,0,0,0-.552-.76,2.463,2.463,0,0,0-.784-.488,2.559,2.559,0,0,0-.944-.176,2.5,2.5,0,0,0-1.712.664,2.406,2.406,0,0,0-.544.76,2.929,2.929,0,0,0-.256.976Zm3.1,4.816V84.952h1.456V87Z" transform="translate(562 3178.942)" fill="#fff"/>
    <path id="Path_2606" data-name="Path 2606" d="M.84-8.4A8.26,8.26,0,0,0,9.336.144,7.866,7.866,0,0,0,17.208-5.28H13.344A4.206,4.206,0,0,1,9.312-2.856C6.384-2.856,4.3-5.016,4.3-8.4c0-3.408,2.088-5.544,5.016-5.544a4.224,4.224,0,0,1,4.032,2.4h3.864a7.894,7.894,0,0,0-7.872-5.424A8.28,8.28,0,0,0,.84-8.4Zm31.8-4.9H29.256v7.32c0,2.136-1.152,3.288-2.976,3.288-1.776,0-2.952-1.152-2.952-3.288V-13.3h-3.36v7.8C19.968-1.848,22.2.168,25.3.168a4.9,4.9,0,0,0,3.96-1.848V0H32.64Zm13.632,9.5c-.1-4.872-7.464-3.36-7.464-5.784,0-.768.648-1.272,1.9-1.272A1.981,1.981,0,0,1,42.936-9.12h3.216c-.192-2.64-2.136-4.392-5.352-4.392-3.288,0-5.256,1.776-5.256,3.984,0,4.872,7.512,3.36,7.512,5.736,0,.768-.72,1.368-2.04,1.368a2.207,2.207,0,0,1-2.4-1.776H35.232C35.376-1.728,37.7.216,41.04.216,44.28.216,46.272-1.512,46.272-3.792Zm3.288-.336C49.56-1.08,51.264,0,53.808,0H55.92V-2.832H54.36c-1.056,0-1.416-.384-1.416-1.272v-6.432H55.92V-13.3H52.944v-3.288H49.56V-13.3H47.976v2.76H49.56Zm21.624-2.52a6.57,6.57,0,0,0-6.84-6.864A6.57,6.57,0,0,0,57.5-6.648,6.508,6.508,0,0,0,64.248.216,6.647,6.647,0,0,0,71.184-6.648Zm-10.272,0c0-2.664,1.608-3.936,3.384-3.936s3.432,1.272,3.432,3.936c0,2.64-1.7,3.936-3.48,3.936C62.448-2.712,60.912-4.008,60.912-6.648ZM92.256,0h3.36V-7.8c0-3.672-2.256-5.688-5.448-5.688a5.264,5.264,0,0,0-4.56,2.544,5.089,5.089,0,0,0-4.68-2.544,4.841,4.841,0,0,0-3.912,1.8V-13.3h-3.36V0h3.36V-7.344c0-2.112,1.176-3.216,3-3.216,1.776,0,2.952,1.1,2.952,3.216V0h3.36V-7.344c0-2.112,1.176-3.216,2.976-3.216,1.776,0,2.952,1.1,2.952,3.216Zm6.552,0h3.36V-13.3h-3.36Zm1.7-14.88a1.985,1.985,0,0,0,2.064-1.968,1.985,1.985,0,0,0-2.064-1.968,1.97,1.97,0,0,0-2.064,1.968A1.97,1.97,0,0,0,100.512-14.88Zm13.9,1.584H104.76v2.76h5.784l-5.808,7.824V0h9.744V-2.76h-5.928l5.856-7.824Zm1.8,6.6c0,4.152,2.688,6.912,6.048,6.912a5.244,5.244,0,0,0,4.416-2.16V0h3.384V-13.3h-3.384v1.9a5.258,5.258,0,0,0-4.392-2.112C118.9-13.512,116.208-10.848,116.208-6.7Zm10.464.048a3.58,3.58,0,0,1-3.528,3.912,3.633,3.633,0,0,1-3.5-3.96,3.546,3.546,0,0,1,3.5-3.864A3.58,3.58,0,0,1,126.672-6.648Zm7.2,2.52c0,3.048,1.7,4.128,4.248,4.128h2.112V-2.832h-1.56c-1.056,0-1.416-.384-1.416-1.272v-6.432h2.976V-13.3h-2.976v-3.288h-3.384V-13.3h-1.584v2.76h1.584ZM142.656,0h3.36V-13.3h-3.36Zm1.7-14.88a1.985,1.985,0,0,0,2.064-1.968,1.985,1.985,0,0,0-2.064-1.968,1.97,1.97,0,0,0-2.064,1.968A1.97,1.97,0,0,0,144.36-14.88Zm17.808,8.232a6.57,6.57,0,0,0-6.84-6.864,6.57,6.57,0,0,0-6.84,6.864A6.508,6.508,0,0,0,155.232.216,6.647,6.647,0,0,0,162.168-6.648Zm-10.272,0c0-2.664,1.608-3.936,3.384-3.936s3.432,1.272,3.432,3.936c0,2.64-1.7,3.936-3.48,3.936C153.432-2.712,151.9-4.008,151.9-6.648ZM173.952,0h3.36V-7.8c0-3.672-2.208-5.688-5.3-5.688A4.966,4.966,0,0,0,168-11.64V-13.3h-3.36V0H168V-7.344c0-2.136,1.176-3.288,3-3.288,1.776,0,2.952,1.152,2.952,3.288Z" transform="translate(594 3160)" fill="#fff"/>
    <g id="support" transform="translate(652.71 3056)">
      <path id="Path_2560" data-name="Path 2560" d="M.442,5.57l4,7a1,1,0,0,0,.625.474l3.73.933L21.588,26.767,23,25.353,10.008,12.36a1,1,0,0,0-.464-.263L5.96,11.2l-3.4-5.96L5.475,2.319l5.963,3.407.9,3.584a1,1,0,0,0,.263.465L25.594,22.769l1.413-1.414L14.213,8.562l-.933-3.728a1,1,0,0,0-.474-.626l-7-4a1,1,0,0,0-1.2.161l-4,4a1,1,0,0,0-.171,1.2Zm0,0" transform="translate(-0.036 -0.071)" fill="#fff"/>
      <path id="Path_2561" data-name="Path 2561" d="M197.384,175.133l-21.989,21.989-1.414-1.414,21.989-21.989Zm0,0" transform="translate(-155.423 -155.434)" fill="#fff"/>
      <path id="Path_2562" data-name="Path 2562" d="M58.6,399.32a1,1,0,0,0-.857-.485h-6a1,1,0,0,0-.856.485l-3,5a1,1,0,0,0,0,1.03l3,5a1,1,0,0,0,.856.485h6a1,1,0,0,0,.857-.485l3-5a1,1,0,0,0,0-1.03Zm-1.422,9.51H52.317l-2.4-4,2.4-4h4.866l2.4,4Zm0,0" transform="translate(-42.482 -356.854)" fill="#fff"/>
      <path id="Path_2563" data-name="Path 2563" d="M48.25,23.99A11.953,11.953,0,0,0,59.876,9.1,1,1,0,0,0,58.2,8.632l-6.222,6.218L47.042,13.2,45.4,8.269l6.222-6.223A1,1,0,0,0,51.149.369,11.957,11.957,0,0,0,36.256,12a11.731,11.731,0,0,0,.243,2.342L14.609,36.227a11.791,11.791,0,0,0-2.342-.243A11.994,11.994,0,1,0,24.262,47.978a11.762,11.762,0,0,0-.243-2.342l5.24-5.24,2.292,2.292a1,1,0,0,0,1.414,0l.5-.5a1.121,1.121,0,0,1,1.587,1.583l0,0-.5.5a1,1,0,0,0,0,1.413L46.473,57.609a8.067,8.067,0,1,0,11.46-11.357l-.051-.052L45.958,34.278a1,1,0,0,0-1.413,0l-.5.5a1.121,1.121,0,0,1-1.588-1.583l0,0,.5-.5a1,1,0,0,0,0-1.413l-2.292-2.292,5.24-5.24a11.761,11.761,0,0,0,2.342.243Zm3.927,33.983a6.074,6.074,0,0,1-2.126-.388l7.806-7.806a6.061,6.061,0,0,1-5.68,8.194ZM40.854,32a3.119,3.119,0,0,0,4.4,4.392L56.468,47.614c.122.122.236.251.346.382l-8.546,8.546c-.131-.11-.26-.224-.382-.346L36.661,44.97a3.12,3.12,0,0,0-4.4-4.392l-1.6-1.6L39.254,30.4ZM44.89,21.943,22.216,44.613a1,1,0,0,0-.264.95,10.062,10.062,0,1,1-7.268-7.269,1.008,1.008,0,0,0,.95-.264L38.3,15.36a1,1,0,0,0,.263-.949A9.946,9.946,0,0,1,48.818,2.017L43.545,7.292A1,1,0,0,0,43.3,8.314l2,6a1,1,0,0,0,.633.632l6,2a1,1,0,0,0,1.022-.241l5.272-5.272c.012.191.018.38.018.567A9.944,9.944,0,0,1,45.834,21.68a1,1,0,0,0-.95.263h.005Zm0,0" transform="translate(0 0)" fill="#fff"/>
      <path id="Path_2564" data-name="Path 2564" d="M394.3,392.62l-1.414,1.414-9.995-9.995,1.413-1.414Zm0,0" transform="translate(-342.343 -342.35)" fill="#fff"/>
    </g>
  </g>
</svg>
