<svg xmlns="http://www.w3.org/2000/svg" xmlns:xlink="http://www.w3.org/1999/xlink" width="413" height="420" viewBox="0 0 413 420">
  <defs>
    <linearGradient id="linear-gradient" x1="-0.052" y1="-0.037" x2="2.191" y2="2.461" gradientUnits="objectBoundingBox">
      <stop offset="0" stop-color="#53f"/>
      <stop offset="0.477" stop-color="#05d5ff"/>
      <stop offset="1" stop-color="#a6ffcb"/>
    </linearGradient>
    <filter id="Rectangle_2826" x="0" y="0" width="413" height="420" filterUnits="userSpaceOnUse">
      <feOffset dy="12" input="SourceAlpha"/>
      <feGaussianBlur stdDeviation="15" result="blur"/>
      <feFlood flood-opacity="0.161"/>
      <feComposite operator="in" in2="blur"/>
      <feComposite in="SourceGraphic"/>
    </filter>
  </defs>
  <g id="Group_1622" data-name="Group 1622" transform="translate(-118 -2974)">
    <g transform="matrix(1, 0, 0, 1, 118, 2974)" filter="url(#Rectangle_2826)">
      <rect id="Rectangle_2826-2" data-name="Rectangle 2826" width="323" height="330" rx="16" transform="translate(45 33)" opacity="0.8" fill="url(#linear-gradient)"/>
    </g>
    <path id="Path_2604" data-name="Path 2604" d="M1.656,0h3.36V-7.08h5.352V-9.744H5.016v-4.3H12v-2.712H1.656ZM13.512-6.7C13.512-2.544,16.2.216,19.56.216a5.244,5.244,0,0,0,4.416-2.16V0H27.36V-13.3H23.976v1.9a5.258,5.258,0,0,0-4.392-2.112C16.2-13.512,13.512-10.848,13.512-6.7Zm10.464.048a3.58,3.58,0,0,1-3.528,3.912,3.633,3.633,0,0,1-3.5-3.96,3.546,3.546,0,0,1,3.5-3.864A3.58,3.58,0,0,1,23.976-6.648ZM40.968-3.792c-.1-4.872-7.464-3.36-7.464-5.784,0-.768.648-1.272,1.9-1.272A1.981,1.981,0,0,1,37.632-9.12h3.216c-.192-2.64-2.136-4.392-5.352-4.392-3.288,0-5.256,1.776-5.256,3.984,0,4.872,7.512,3.36,7.512,5.736,0,.768-.72,1.368-2.04,1.368a2.207,2.207,0,0,1-2.4-1.776H29.928C30.072-1.728,32.4.216,35.736.216,38.976.216,40.968-1.512,40.968-3.792Zm3.288-.336C44.256-1.08,45.96,0,48.5,0h2.112V-2.832h-1.56C48-2.832,47.64-3.216,47.64-4.1v-6.432h2.976V-13.3H47.64v-3.288H44.256V-13.3H42.672v2.76h1.584ZM58.752,0h3.36V-16.752h-3.36ZM74.736,0H78.1V-7.8c0-3.672-2.208-5.688-5.3-5.688a4.966,4.966,0,0,0-4.008,1.848V-13.3h-3.36V0h3.36V-7.344c0-2.136,1.176-3.288,3-3.288,1.776,0,2.952,1.152,2.952,3.288Zm7.08-4.128C81.816-1.08,83.52,0,86.064,0h2.112V-2.832h-1.56C85.56-2.832,85.2-3.216,85.2-4.1v-6.432h2.976V-13.3H85.2v-3.288H81.816V-13.3H80.232v2.76h1.584Zm14.5-6.624A2.954,2.954,0,0,1,99.48-7.9H93.168A3.088,3.088,0,0,1,96.312-10.752Zm6.312,6.576H99a2.74,2.74,0,0,1-2.664,1.608A3.111,3.111,0,0,1,93.144-5.64h9.72a7.853,7.853,0,0,0,.1-1.3,6.242,6.242,0,0,0-6.552-6.576c-3.936,0-6.672,2.664-6.672,6.864,0,4.176,2.808,6.864,6.672,6.864A6.18,6.18,0,0,0,102.624-4.176Zm1.92-2.52c0,4.152,2.688,6.912,6.072,6.912a5.244,5.244,0,0,0,4.392-2.184V.1c0,2.472-1.44,3.528-3.288,3.528-1.68,0-2.928-.792-3.264-1.992H105.12c.336,3.048,2.952,4.92,6.7,4.92,4.368,0,6.576-2.856,6.576-6.456V-13.3h-3.384v1.9a5.2,5.2,0,0,0-4.392-2.112C107.232-13.512,104.544-10.848,104.544-6.7Zm10.464.048a3.58,3.58,0,0,1-3.528,3.912,3.633,3.633,0,0,1-3.5-3.96,3.546,3.546,0,0,1,3.5-3.864A3.58,3.58,0,0,1,115.008-6.648Zm10.032.024c0-2.568,1.2-3.336,3.192-3.336h.888v-3.528a4.611,4.611,0,0,0-4.08,2.256V-13.3h-3.36V0h3.36Zm5.472-.072c0,4.152,2.688,6.912,6.048,6.912a5.244,5.244,0,0,0,4.416-2.16V0h3.384V-13.3h-3.384v1.9a5.258,5.258,0,0,0-4.392-2.112C133.2-13.512,130.512-10.848,130.512-6.7Zm10.464.048a3.58,3.58,0,0,1-3.528,3.912,3.633,3.633,0,0,1-3.5-3.96,3.546,3.546,0,0,1,3.5-3.864A3.58,3.58,0,0,1,140.976-6.648Zm7.2,2.52c0,3.048,1.7,4.128,4.248,4.128h2.112V-2.832h-1.56c-1.056,0-1.416-.384-1.416-1.272v-6.432h2.976V-13.3H151.56v-3.288h-3.384V-13.3h-1.584v2.76h1.584ZM156.96,0h3.36V-13.3h-3.36Zm1.7-14.88a1.985,1.985,0,0,0,2.064-1.968,1.985,1.985,0,0,0-2.064-1.968,1.97,1.97,0,0,0-2.064,1.968A1.97,1.97,0,0,0,158.664-14.88Zm17.808,8.232a6.57,6.57,0,0,0-6.84-6.864,6.57,6.57,0,0,0-6.84,6.864A6.508,6.508,0,0,0,169.536.216,6.647,6.647,0,0,0,176.472-6.648Zm-10.272,0c0-2.664,1.608-3.936,3.384-3.936s3.432,1.272,3.432,3.936c0,2.64-1.7,3.936-3.48,3.936C167.736-2.712,166.2-4.008,166.2-6.648ZM188.256,0h3.36V-7.8c0-3.672-2.208-5.688-5.3-5.688A4.966,4.966,0,0,0,182.3-11.64V-13.3h-3.36V0h3.36V-7.344c0-2.136,1.176-3.288,3-3.288,1.776,0,2.952,1.152,2.952,3.288Z" transform="translate(228 3160)" fill="#fff"/>
    <path id="Path_2603" data-name="Path 2603" d="M18.752,3.688h1.7L21.84,7.544l1.408-3.856h1.68L22.992,8.744l1.7,4.176,3.536-9.28h1.968L25.5,15H23.968L21.856,9.912,19.728,15H18.192L13.5,3.64h1.952l3.552,9.28,1.7-4.176Zm15.3,11.472a4.348,4.348,0,0,1-1.784-.352,4.1,4.1,0,0,1-2.216-2.328,4.662,4.662,0,0,1,0-3.312,4.1,4.1,0,0,1,.872-1.384,4.258,4.258,0,0,1,1.36-.944,4.616,4.616,0,0,1,3.536,0,4.258,4.258,0,0,1,1.36.944,4.1,4.1,0,0,1,.872,1.384,4.662,4.662,0,0,1,0,3.312,4.1,4.1,0,0,1-.872,1.384,4.258,4.258,0,0,1-1.36.944A4.307,4.307,0,0,1,34.048,15.16Zm-2.5-4.32a3.166,3.166,0,0,0,.192,1.12,2.784,2.784,0,0,0,.528.888,2.469,2.469,0,0,0,.792.592,2.349,2.349,0,0,0,1.968,0,2.418,2.418,0,0,0,.792-.6,2.883,2.883,0,0,0,.528-.9,3.339,3.339,0,0,0,0-2.232,2.863,2.863,0,0,0-.528-.9,2.418,2.418,0,0,0-.792-.6,2.269,2.269,0,0,0-.984-.216,2.167,2.167,0,0,0-.968.224,2.517,2.517,0,0,0-.792.608,2.985,2.985,0,0,0-.536.9A3.071,3.071,0,0,0,31.552,10.84ZM44.624,8.152a3.937,3.937,0,0,0-1.816.472A2.487,2.487,0,0,0,41.68,9.88V15H39.92V6.632h1.632V8.5A3.827,3.827,0,0,1,42.68,7.12a2.736,2.736,0,0,1,1.5-.568h.264a.945.945,0,0,1,.184.016Zm1.3-4.832h1.76v9.264a1.042,1.042,0,0,0,.24.728.862.862,0,0,0,.672.264A1.561,1.561,0,0,0,49,13.512q.232-.064.44-.144l.256,1.376a4.1,4.1,0,0,1-.912.28,4.941,4.941,0,0,1-.944.1,1.933,1.933,0,0,1-1.416-.5,1.887,1.887,0,0,1-.5-1.408Zm8.208,11.84a3.59,3.59,0,0,1-1.568-.344,3.919,3.919,0,0,1-1.248-.936,4.337,4.337,0,0,1-.824-1.384,5.045,5.045,0,0,1-.016-3.36,4.384,4.384,0,0,1,.784-1.368,3.788,3.788,0,0,1,1.184-.936,3.453,3.453,0,0,1,3.272.144,3.555,3.555,0,0,1,1.2,1.24V3.32h1.76v9.6a.694.694,0,0,0,.1.432.5.5,0,0,0,.376.144V15q-.272.048-.44.064t-.28.016a1.33,1.33,0,0,1-.864-.272.961.961,0,0,1-.368-.7l-.032-.624A3.338,3.338,0,0,1,55.9,14.712,3.572,3.572,0,0,1,54.128,15.16Zm.432-1.5a2.416,2.416,0,0,0,.768-.128,2.72,2.72,0,0,0,.7-.352,2.474,2.474,0,0,0,.552-.528,1.9,1.9,0,0,0,.328-.656V9.8a2.621,2.621,0,0,0-.408-.736,2.919,2.919,0,0,0-.6-.576,2.74,2.74,0,0,0-.712-.368,2.344,2.344,0,0,0-.76-.128,1.988,1.988,0,0,0-.968.24,2.5,2.5,0,0,0-.76.64,3.155,3.155,0,0,0-.5.912,3.1,3.1,0,0,0-.184,1.056,2.963,2.963,0,0,0,.2,1.088,2.841,2.841,0,0,0,.552.9,2.709,2.709,0,0,0,.808.608A2.2,2.2,0,0,0,54.56,13.656Zm11.1,1.5a3.28,3.28,0,0,1-1.776-.48,3.583,3.583,0,0,1-1.216-1.248v4.976h-1.76V6.632h1.552v1.5a3.655,3.655,0,0,1,1.24-1.2,3.323,3.323,0,0,1,1.72-.448,3.558,3.558,0,0,1,1.584.352,4.023,4.023,0,0,1,1.248.944A4.357,4.357,0,0,1,69.08,9.16a4.627,4.627,0,0,1,.3,1.648,5.212,5.212,0,0,1-.272,1.7,4.216,4.216,0,0,1-.768,1.376,3.749,3.749,0,0,1-1.176.928A3.266,3.266,0,0,1,65.664,15.16Zm-.576-1.5a2.148,2.148,0,0,0,1.016-.24,2.525,2.525,0,0,0,.784-.64,2.923,2.923,0,0,0,.5-.912,3.226,3.226,0,0,0,.176-1.056,2.963,2.963,0,0,0-.2-1.088,2.922,2.922,0,0,0-.544-.9A2.529,2.529,0,0,0,66,8.216a2.429,2.429,0,0,0-1.04-.224,2.142,2.142,0,0,0-.7.128,2.8,2.8,0,0,0-.688.352,2.737,2.737,0,0,0-.56.52,1.753,1.753,0,0,0-.336.648v2.192a3.24,3.24,0,0,0,.416.72,3.062,3.062,0,0,0,.568.576,2.758,2.758,0,0,0,.68.384A2.047,2.047,0,0,0,65.088,13.656Zm8.1,1.5a3.116,3.116,0,0,1-1.128-.2,2.727,2.727,0,0,1-.9-.552,2.574,2.574,0,0,1-.592-.832,2.5,2.5,0,0,1-.216-1.04,2.242,2.242,0,0,1,.256-1.072,2.505,2.505,0,0,1,.728-.832,3.534,3.534,0,0,1,1.12-.544A5.028,5.028,0,0,1,73.888,9.9a6.56,6.56,0,0,1,1.168.1,5.882,5.882,0,0,1,1.04.28V9.7a1.94,1.94,0,0,0-.528-1.448,2.076,2.076,0,0,0-1.52-.52,3.665,3.665,0,0,0-1.32.248,6.678,6.678,0,0,0-1.336.712l-.544-1.12a5.933,5.933,0,0,1,3.36-1.088,3.832,3.832,0,0,1,2.688.88,3.257,3.257,0,0,1,.96,2.528V12.92q0,.56.464.576V15q-.256.048-.44.064t-.36.016a1.132,1.132,0,0,1-.792-.256,1.1,1.1,0,0,1-.344-.656l-.048-.528a3.731,3.731,0,0,1-1.384,1.128A4.063,4.063,0,0,1,73.184,15.16Zm.48-1.3a3.164,3.164,0,0,0,1.208-.232,2.083,2.083,0,0,0,.888-.648.812.812,0,0,0,.336-.608v-1.1A5.32,5.32,0,0,0,75.144,11a5.253,5.253,0,0,0-.984-.1,2.691,2.691,0,0,0-1.544.408,1.25,1.25,0,0,0-.6,1.08,1.363,1.363,0,0,0,.464,1.048A1.687,1.687,0,0,0,73.664,13.864Zm6.4,3.1q.24.048.472.08a2.877,2.877,0,0,0,.376.032.706.706,0,0,0,.36-.088,1.073,1.073,0,0,0,.312-.312,3.229,3.229,0,0,0,.328-.632Q82.08,15.64,82.3,15l-3.44-8.368h1.808l2.592,6.816,2.3-6.816h1.664l-3.792,10.3a2.607,2.607,0,0,1-.888,1.208,2.581,2.581,0,0,1-1.624.488,3.492,3.492,0,0,1-.4-.024,2.557,2.557,0,0,1-.464-.1ZM101.328,15h-1.76V10.312A3.01,3.01,0,0,0,99.184,8.6a1.285,1.285,0,0,0-1.12-.544,2,2,0,0,0-1.368.552,3.107,3.107,0,0,0-.888,1.432V15h-1.76V10.312a3,3,0,0,0-.384-1.72,1.275,1.275,0,0,0-1.1-.536,2.047,2.047,0,0,0-1.376.544,3.025,3.025,0,0,0-.9,1.424V15h-1.76V6.632h1.6v1.68a3.536,3.536,0,0,1,1.3-1.352,3.6,3.6,0,0,1,1.848-.472,2.238,2.238,0,0,1,2.384,1.9,3.831,3.831,0,0,1,1.328-1.416,3.432,3.432,0,0,1,1.824-.488,2.431,2.431,0,0,1,1.224.28,2.164,2.164,0,0,1,.776.744,3.068,3.068,0,0,1,.4,1.08,7.286,7.286,0,0,1,.112,1.3Zm5.824.16a4.451,4.451,0,0,1-1.776-.344,4.133,4.133,0,0,1-1.368-.936,4.22,4.22,0,0,1-.88-1.376,4.458,4.458,0,0,1-.312-1.664,4.52,4.52,0,0,1,.312-1.672,4.291,4.291,0,0,1,.88-1.392,4.075,4.075,0,0,1,1.368-.944,4.493,4.493,0,0,1,1.792-.344,4.307,4.307,0,0,1,1.768.352,4.227,4.227,0,0,1,1.352.936,4,4,0,0,1,.856,1.36,4.518,4.518,0,0,1,.3,1.624q0,.192-.016.36t-.032.28h-6.7a2.865,2.865,0,0,0,.264,1.008,2.653,2.653,0,0,0,.56.776,2.459,2.459,0,0,0,1.7.68,2.8,2.8,0,0,0,.7-.088,2.454,2.454,0,0,0,.632-.256,2.24,2.24,0,0,0,.512-.408,1.9,1.9,0,0,0,.352-.528l1.5.432a3.487,3.487,0,0,1-1.432,1.544A4.437,4.437,0,0,1,107.152,15.16Zm2.544-4.976a2.814,2.814,0,0,0-.264-.976,2.513,2.513,0,0,0-.552-.76,2.463,2.463,0,0,0-.784-.488,2.558,2.558,0,0,0-.944-.176,2.5,2.5,0,0,0-1.712.664,2.406,2.406,0,0,0-.544.76,2.929,2.929,0,0,0-.256.976ZM120.384,15h-1.76V10.312a3.056,3.056,0,0,0-.376-1.72,1.271,1.271,0,0,0-1.112-.536,2.174,2.174,0,0,0-.768.144,2.69,2.69,0,0,0-.72.408,3.178,3.178,0,0,0-.6.624,2.859,2.859,0,0,0-.408.792V15h-1.76V6.632h1.6v1.68a3.4,3.4,0,0,1,1.392-1.336,4.2,4.2,0,0,1,2.016-.488,2.479,2.479,0,0,1,1.232.272,2.035,2.035,0,0,1,.76.744,3.255,3.255,0,0,1,.392,1.088,7.284,7.284,0,0,1,.112,1.3Zm6.624-.432a8.821,8.821,0,0,1-.928.36,3.923,3.923,0,0,1-1.264.2,2.679,2.679,0,0,1-.784-.112,1.921,1.921,0,0,1-.648-.336,1.526,1.526,0,0,1-.44-.584,2.14,2.14,0,0,1-.16-.872V7.992h-1.1V6.632h1.1V3.88h1.76V6.632h1.824v1.36h-1.824v4.672a.869.869,0,0,0,.28.648.95.95,0,0,0,.616.2,1.961,1.961,0,0,0,.7-.128q.336-.128.5-.208ZM128.192,7V3.464h1.5V7Zm6.448,8.16a6.409,6.409,0,0,1-2.008-.328,5.092,5.092,0,0,1-1.72-.936l.7-1.12a6.5,6.5,0,0,0,1.488.824,4.2,4.2,0,0,0,1.5.28,2.21,2.21,0,0,0,1.24-.3.978.978,0,0,0,.456-.864.8.8,0,0,0-.512-.768,10.245,10.245,0,0,0-1.6-.528q-.784-.208-1.344-.4a3.459,3.459,0,0,1-.912-.448,1.573,1.573,0,0,1-.512-.592,1.887,1.887,0,0,1-.16-.816,2.507,2.507,0,0,1,.248-1.136,2.438,2.438,0,0,1,.688-.84,3.082,3.082,0,0,1,1.032-.52,4.473,4.473,0,0,1,1.28-.176,5.251,5.251,0,0,1,1.76.288,4.58,4.58,0,0,1,1.456.832l-.752,1.056a3.923,3.923,0,0,0-2.48-.928,2.119,2.119,0,0,0-1.128.28.965.965,0,0,0-.456.888.892.892,0,0,0,.1.432.815.815,0,0,0,.312.3,2.57,2.57,0,0,0,.56.232q.344.1.856.232.848.208,1.464.416a4.008,4.008,0,0,1,1.016.488,1.81,1.81,0,0,1,.592.656,1.967,1.967,0,0,1,.192.9,2.264,2.264,0,0,1-.9,1.9A3.929,3.929,0,0,1,134.64,15.16Zm13.5-.592a8.822,8.822,0,0,1-.928.36,3.923,3.923,0,0,1-1.264.2,2.679,2.679,0,0,1-.784-.112,1.92,1.92,0,0,1-.648-.336,1.526,1.526,0,0,1-.44-.584,2.14,2.14,0,0,1-.16-.872V7.992h-1.1V6.632h1.1V3.88h1.76V6.632H147.5v1.36H145.68v4.672a.869.869,0,0,0,.28.648.95.95,0,0,0,.616.2,1.961,1.961,0,0,0,.7-.128q.336-.128.5-.208Zm4.8.592a4.451,4.451,0,0,1-1.776-.344,4.134,4.134,0,0,1-1.368-.936,4.22,4.22,0,0,1-.88-1.376,4.458,4.458,0,0,1-.312-1.664,4.52,4.52,0,0,1,.312-1.672,4.291,4.291,0,0,1,.88-1.392,4.075,4.075,0,0,1,1.368-.944,4.493,4.493,0,0,1,1.792-.344,4.307,4.307,0,0,1,1.768.352,4.227,4.227,0,0,1,1.352.936,4,4,0,0,1,.856,1.36,4.518,4.518,0,0,1,.3,1.624q0,.192-.016.36t-.032.28h-6.7a2.865,2.865,0,0,0,.264,1.008,2.653,2.653,0,0,0,.56.776,2.459,2.459,0,0,0,1.7.68,2.8,2.8,0,0,0,.7-.088,2.454,2.454,0,0,0,.632-.256,2.24,2.24,0,0,0,.512-.408,1.9,1.9,0,0,0,.352-.528l1.5.432a3.487,3.487,0,0,1-1.432,1.544A4.437,4.437,0,0,1,152.944,15.16Zm2.544-4.976a2.814,2.814,0,0,0-.264-.976,2.513,2.513,0,0,0-.552-.76,2.463,2.463,0,0,0-.784-.488,2.558,2.558,0,0,0-.944-.176,2.5,2.5,0,0,0-1.712.664,2.406,2.406,0,0,0-.544.76,2.929,2.929,0,0,0-.256.976Zm2.64.624a4.562,4.562,0,0,1,.3-1.664,4.077,4.077,0,0,1,2.24-2.312,4.493,4.493,0,0,1,1.792-.344,4.221,4.221,0,0,1,2.232.568,3.6,3.6,0,0,1,1.4,1.512l-1.712.544a2.2,2.2,0,0,0-.816-.824,2.229,2.229,0,0,0-1.136-.3,2.343,2.343,0,0,0-.984.208,2.371,2.371,0,0,0-.792.584,2.784,2.784,0,0,0-.528.888,3.214,3.214,0,0,0-.192,1.136,3.116,3.116,0,0,0,.2,1.128,2.9,2.9,0,0,0,.544.9,2.505,2.505,0,0,0,.8.6,2.233,2.233,0,0,0,.968.216,2.4,2.4,0,0,0,.64-.088,2.288,2.288,0,0,0,1.048-.616,1.393,1.393,0,0,0,.3-.448l1.728.512a3.422,3.422,0,0,1-1.392,1.544,4.312,4.312,0,0,1-2.3.6,4.363,4.363,0,0,1-1.776-.352,4.174,4.174,0,0,1-1.368-.952,4.312,4.312,0,0,1-.88-1.384A4.458,4.458,0,0,1,158.128,10.808ZM175.12,15h-1.76V10.312a2.875,2.875,0,0,0-.408-1.7,1.373,1.373,0,0,0-1.176-.552,2.007,2.007,0,0,0-.736.144,2.645,2.645,0,0,0-.7.408,3.1,3.1,0,0,0-.584.624,2.661,2.661,0,0,0-.384.792V15h-1.76V3.32h1.76V8.312a3.473,3.473,0,0,1,1.3-1.344,3.513,3.513,0,0,1,1.8-.48,2.633,2.633,0,0,1,1.288.28,2.261,2.261,0,0,1,.808.744A2.993,2.993,0,0,1,175,8.592a6.812,6.812,0,0,1,.12,1.3Zm9.552,0h-1.76V10.312a3.056,3.056,0,0,0-.376-1.72,1.271,1.271,0,0,0-1.112-.536,2.174,2.174,0,0,0-.768.144,2.69,2.69,0,0,0-.72.408,3.178,3.178,0,0,0-.6.624,2.86,2.86,0,0,0-.408.792V15h-1.76V6.632h1.6v1.68a3.4,3.4,0,0,1,1.392-1.336,4.2,4.2,0,0,1,2.016-.488,2.479,2.479,0,0,1,1.232.272,2.035,2.035,0,0,1,.76.744,3.255,3.255,0,0,1,.392,1.088,7.285,7.285,0,0,1,.112,1.3Zm5.808.16a4.348,4.348,0,0,1-1.784-.352,4.1,4.1,0,0,1-2.216-2.328,4.662,4.662,0,0,1,0-3.312,4.1,4.1,0,0,1,.872-1.384,4.258,4.258,0,0,1,1.36-.944,4.616,4.616,0,0,1,3.536,0,4.258,4.258,0,0,1,1.36.944,4.1,4.1,0,0,1,.872,1.384,4.662,4.662,0,0,1,0,3.312,4.1,4.1,0,0,1-.872,1.384,4.258,4.258,0,0,1-1.36.944A4.307,4.307,0,0,1,190.48,15.16Zm-2.5-4.32a3.166,3.166,0,0,0,.192,1.12,2.784,2.784,0,0,0,.528.888,2.469,2.469,0,0,0,.792.592,2.349,2.349,0,0,0,1.968,0,2.418,2.418,0,0,0,.792-.6,2.884,2.884,0,0,0,.528-.9,3.339,3.339,0,0,0,0-2.232,2.863,2.863,0,0,0-.528-.9,2.418,2.418,0,0,0-.792-.6,2.269,2.269,0,0,0-.984-.216,2.167,2.167,0,0,0-.968.224,2.517,2.517,0,0,0-.792.608,2.985,2.985,0,0,0-.536.9A3.071,3.071,0,0,0,187.984,10.84Zm8.384-7.52h1.76v9.264a1.042,1.042,0,0,0,.24.728.862.862,0,0,0,.672.264,1.56,1.56,0,0,0,.408-.064q.232-.064.44-.144l.256,1.376a4.1,4.1,0,0,1-.912.28,4.941,4.941,0,0,1-.944.1,1.933,1.933,0,0,1-1.416-.5,1.887,1.887,0,0,1-.5-1.408Zm8.56,11.84a4.348,4.348,0,0,1-1.784-.352,4.1,4.1,0,0,1-2.216-2.328,4.662,4.662,0,0,1,0-3.312,4.1,4.1,0,0,1,.872-1.384,4.258,4.258,0,0,1,1.36-.944,4.616,4.616,0,0,1,3.536,0,4.258,4.258,0,0,1,1.36.944,4.1,4.1,0,0,1,.872,1.384,4.662,4.662,0,0,1,0,3.312,4.1,4.1,0,0,1-.872,1.384,4.258,4.258,0,0,1-1.36.944A4.307,4.307,0,0,1,204.928,15.16Zm-2.5-4.32a3.166,3.166,0,0,0,.192,1.12,2.784,2.784,0,0,0,.528.888,2.469,2.469,0,0,0,.792.592,2.349,2.349,0,0,0,1.968,0,2.418,2.418,0,0,0,.792-.6,2.884,2.884,0,0,0,.528-.9,3.339,3.339,0,0,0,0-2.232,2.863,2.863,0,0,0-.528-.9,2.418,2.418,0,0,0-.792-.6,2.269,2.269,0,0,0-.984-.216,2.167,2.167,0,0,0-.968.224,2.517,2.517,0,0,0-.792.608,2.985,2.985,0,0,0-.536.9A3.071,3.071,0,0,0,202.432,10.84Zm11.68,4.24a3.487,3.487,0,0,1-1.552-.344,3.706,3.706,0,0,1-1.208-.936,4.4,4.4,0,0,1-.784-1.36,4.681,4.681,0,0,1-.28-1.616,4.9,4.9,0,0,1,.288-1.688,4.283,4.283,0,0,1,.8-1.376,3.819,3.819,0,0,1,1.224-.928,3.575,3.575,0,0,1,1.576-.344,3.24,3.24,0,0,1,1.768.48A4.064,4.064,0,0,1,217.2,8.216V6.632h1.552V14.76a3.709,3.709,0,0,1-.336,1.616,3.41,3.41,0,0,1-.936,1.192,4.218,4.218,0,0,1-1.416.744,5.85,5.85,0,0,1-1.76.256,5.039,5.039,0,0,1-2.312-.472,4.375,4.375,0,0,1-1.544-1.32l.992-.928a3.1,3.1,0,0,0,1.24,1.024,3.817,3.817,0,0,0,1.624.352,3.628,3.628,0,0,0,1.032-.144,2.388,2.388,0,0,0,.856-.448,2.163,2.163,0,0,0,.584-.768,2.6,2.6,0,0,0,.216-1.1V13.48a3.061,3.061,0,0,1-1.232,1.184A3.468,3.468,0,0,1,214.112,15.08Zm.576-1.424a2.2,2.2,0,0,0,.768-.136,2.7,2.7,0,0,0,.68-.368,2.65,2.65,0,0,0,.536-.528,1.913,1.913,0,0,0,.32-.632V9.8a2.96,2.96,0,0,0-1-1.3,2.845,2.845,0,0,0-.7-.376,2.179,2.179,0,0,0-1.768.112,2.485,2.485,0,0,0-.776.656,3.123,3.123,0,0,0-.5.92,3.226,3.226,0,0,0-.176,1.056,2.9,2.9,0,0,0,.2,1.08,2.766,2.766,0,0,0,.552.88,2.709,2.709,0,0,0,.824.6A2.376,2.376,0,0,0,214.688,13.656Zm6.464,3.312q.24.048.472.08a2.877,2.877,0,0,0,.376.032.706.706,0,0,0,.36-.088,1.073,1.073,0,0,0,.312-.312,3.229,3.229,0,0,0,.328-.632q.168-.408.392-1.048l-3.44-8.368h1.808l2.592,6.816,2.3-6.816h1.664l-3.792,10.3a2.607,2.607,0,0,1-.888,1.208,2.581,2.581,0,0,1-1.624.488,3.492,3.492,0,0,1-.4-.024,2.557,2.557,0,0,1-.464-.1ZM22.7,39.16a3.116,3.116,0,0,1-1.128-.2,2.727,2.727,0,0,1-.9-.552,2.574,2.574,0,0,1-.592-.832,2.5,2.5,0,0,1-.216-1.04,2.242,2.242,0,0,1,.256-1.072,2.505,2.505,0,0,1,.728-.832,3.534,3.534,0,0,1,1.12-.544,5.028,5.028,0,0,1,1.432-.192,6.56,6.56,0,0,1,1.168.1,5.882,5.882,0,0,1,1.04.28V33.7a1.94,1.94,0,0,0-.528-1.448,2.076,2.076,0,0,0-1.52-.52,3.665,3.665,0,0,0-1.32.248,6.678,6.678,0,0,0-1.336.712l-.544-1.12a5.933,5.933,0,0,1,3.36-1.088,3.832,3.832,0,0,1,2.688.88,3.257,3.257,0,0,1,.96,2.528V36.92q0,.56.464.576V39q-.256.048-.44.064t-.36.016a1.132,1.132,0,0,1-.792-.256,1.1,1.1,0,0,1-.344-.656l-.048-.528a3.732,3.732,0,0,1-1.384,1.128A4.063,4.063,0,0,1,22.7,39.16Zm.48-1.3a3.164,3.164,0,0,0,1.208-.232,2.083,2.083,0,0,0,.888-.648.812.812,0,0,0,.336-.608v-1.1A5.32,5.32,0,0,0,24.664,35a5.253,5.253,0,0,0-.984-.1,2.691,2.691,0,0,0-1.544.408,1.25,1.25,0,0,0-.6,1.08A1.363,1.363,0,0,0,22,37.44,1.687,1.687,0,0,0,23.184,37.864ZM29.52,27.32h1.76v9.264a1.042,1.042,0,0,0,.24.728.862.862,0,0,0,.672.264,1.561,1.561,0,0,0,.408-.064q.232-.064.44-.144l.256,1.376a4.1,4.1,0,0,1-.912.28,4.941,4.941,0,0,1-.944.1,1.933,1.933,0,0,1-1.416-.5,1.887,1.887,0,0,1-.5-1.408Zm4.816,0H36.1v9.264a1.042,1.042,0,0,0,.24.728.862.862,0,0,0,.672.264,1.56,1.56,0,0,0,.408-.064q.232-.064.44-.144l.256,1.376a4.1,4.1,0,0,1-.912.28,4.941,4.941,0,0,1-.944.1,1.933,1.933,0,0,1-1.416-.5,1.887,1.887,0,0,1-.5-1.408ZM42.9,39.16a4.348,4.348,0,0,1-1.784-.352A4.1,4.1,0,0,1,38.9,36.48a4.662,4.662,0,0,1,0-3.312,4.1,4.1,0,0,1,.872-1.384,4.258,4.258,0,0,1,1.36-.944,4.616,4.616,0,0,1,3.536,0,4.258,4.258,0,0,1,1.36.944,4.1,4.1,0,0,1,.872,1.384,4.662,4.662,0,0,1,0,3.312,4.1,4.1,0,0,1-.872,1.384,4.258,4.258,0,0,1-1.36.944A4.307,4.307,0,0,1,42.9,39.16Zm-2.5-4.32a3.166,3.166,0,0,0,.192,1.12,2.784,2.784,0,0,0,.528.888,2.469,2.469,0,0,0,.792.592,2.349,2.349,0,0,0,1.968,0,2.418,2.418,0,0,0,.792-.6,2.883,2.883,0,0,0,.528-.9,3.339,3.339,0,0,0,0-2.232,2.863,2.863,0,0,0-.528-.9,2.418,2.418,0,0,0-.792-.6,2.269,2.269,0,0,0-.984-.216,2.167,2.167,0,0,0-.968.224,2.517,2.517,0,0,0-.792.608,2.985,2.985,0,0,0-.536.9A3.071,3.071,0,0,0,40.4,34.84Zm18.5-4.208h1.68L57.056,39H55.6l-1.552-3.888L52.5,39H51.04L47.5,30.632h1.68l2.7,6.672L53.1,34.2l-1.456-3.552h1.44l.96,2.624.944-2.624h1.44L54.992,34.2l1.216,3.1ZM65.744,39V32.2h-1.12V30.84h1.12V30.5a3.8,3.8,0,0,1,.72-2.448,2.372,2.372,0,0,1,1.952-.9,3.8,3.8,0,0,1,1.008.136,4.528,4.528,0,0,1,.944.376l-.384,1.312a2.427,2.427,0,0,0-.568-.24,2.247,2.247,0,0,0-.632-.1,1.093,1.093,0,0,0-.952.464,2.315,2.315,0,0,0-.328,1.344v.384h2.144V32.2H67.5V39Zm8.56.16a4.348,4.348,0,0,1-1.784-.352A4.1,4.1,0,0,1,70.3,36.48a4.662,4.662,0,0,1,0-3.312,4.1,4.1,0,0,1,.872-1.384,4.258,4.258,0,0,1,1.36-.944,4.616,4.616,0,0,1,3.536,0,4.258,4.258,0,0,1,1.36.944,4.1,4.1,0,0,1,.872,1.384,4.662,4.662,0,0,1,0,3.312,4.1,4.1,0,0,1-.872,1.384,4.258,4.258,0,0,1-1.36.944A4.307,4.307,0,0,1,74.3,39.16Zm-2.5-4.32A3.166,3.166,0,0,0,72,35.96a2.784,2.784,0,0,0,.528.888,2.469,2.469,0,0,0,.792.592,2.349,2.349,0,0,0,1.968,0,2.418,2.418,0,0,0,.792-.6,2.883,2.883,0,0,0,.528-.9,3.339,3.339,0,0,0,0-2.232,2.863,2.863,0,0,0-.528-.9,2.418,2.418,0,0,0-.792-.6,2.269,2.269,0,0,0-.984-.216,2.167,2.167,0,0,0-.968.224,2.517,2.517,0,0,0-.792.608,2.986,2.986,0,0,0-.536.9A3.071,3.071,0,0,0,71.808,34.84ZM84.88,32.152a3.936,3.936,0,0,0-1.816.472,2.487,2.487,0,0,0-1.128,1.256V39h-1.76V30.632h1.632V32.5a3.827,3.827,0,0,1,1.128-1.384,2.736,2.736,0,0,1,1.5-.568H84.7a.945.945,0,0,1,.184.016Zm9.5,6.416a8.822,8.822,0,0,1-.928.36,3.923,3.923,0,0,1-1.264.2,2.679,2.679,0,0,1-.784-.112,1.921,1.921,0,0,1-.648-.336,1.526,1.526,0,0,1-.44-.584,2.14,2.14,0,0,1-.16-.872V31.992h-1.1v-1.36h1.1V27.88h1.76v2.752h1.824v1.36H91.92v4.672a.869.869,0,0,0,.28.648.95.95,0,0,0,.616.2,1.961,1.961,0,0,0,.7-.128q.336-.128.5-.208ZM103.1,39h-1.76V34.312a2.875,2.875,0,0,0-.408-1.7,1.373,1.373,0,0,0-1.176-.552,2.007,2.007,0,0,0-.736.144,2.645,2.645,0,0,0-.7.408,3.105,3.105,0,0,0-.584.624,2.661,2.661,0,0,0-.384.792V39H95.6V27.32h1.76v4.992a3.473,3.473,0,0,1,1.3-1.344,3.513,3.513,0,0,1,1.8-.48,2.633,2.633,0,0,1,1.288.28,2.261,2.261,0,0,1,.808.744,2.993,2.993,0,0,1,.424,1.08,6.812,6.812,0,0,1,.12,1.3Zm5.84.16a4.451,4.451,0,0,1-1.776-.344,4.134,4.134,0,0,1-1.368-.936,4.22,4.22,0,0,1-.88-1.376,4.459,4.459,0,0,1-.312-1.664,4.52,4.52,0,0,1,.312-1.672,4.291,4.291,0,0,1,.88-1.392,4.075,4.075,0,0,1,1.368-.944,4.493,4.493,0,0,1,1.792-.344,4.307,4.307,0,0,1,1.768.352,4.227,4.227,0,0,1,1.352.936,4,4,0,0,1,.856,1.36,4.518,4.518,0,0,1,.3,1.624q0,.192-.016.36t-.032.28h-6.7a2.865,2.865,0,0,0,.264,1.008,2.653,2.653,0,0,0,.56.776,2.459,2.459,0,0,0,1.7.68,2.8,2.8,0,0,0,.7-.088,2.454,2.454,0,0,0,.632-.256,2.24,2.24,0,0,0,.512-.408,1.9,1.9,0,0,0,.352-.528l1.5.432a3.487,3.487,0,0,1-1.432,1.544A4.437,4.437,0,0,1,108.944,39.16Zm2.544-4.976a2.814,2.814,0,0,0-.264-.976,2.513,2.513,0,0,0-.552-.76,2.463,2.463,0,0,0-.784-.488,2.558,2.558,0,0,0-.944-.176,2.5,2.5,0,0,0-1.712.664,2.406,2.406,0,0,0-.544.76,2.929,2.929,0,0,0-.256.976ZM131.424,39h-1.76V34.312a3.01,3.01,0,0,0-.384-1.712,1.285,1.285,0,0,0-1.12-.544,2,2,0,0,0-1.368.552,3.107,3.107,0,0,0-.888,1.432V39h-1.76V34.312a3,3,0,0,0-.384-1.72,1.275,1.275,0,0,0-1.1-.536,2.047,2.047,0,0,0-1.376.544,3.025,3.025,0,0,0-.9,1.424V39h-1.76V30.632h1.6v1.68a3.536,3.536,0,0,1,1.3-1.352,3.6,3.6,0,0,1,1.848-.472,2.238,2.238,0,0,1,2.384,1.9,3.831,3.831,0,0,1,1.328-1.416,3.432,3.432,0,0,1,1.824-.488,2.431,2.431,0,0,1,1.224.28,2.164,2.164,0,0,1,.776.744,3.068,3.068,0,0,1,.4,1.08,7.285,7.285,0,0,1,.112,1.3Zm5.792.16a4.348,4.348,0,0,1-1.784-.352,4.1,4.1,0,0,1-2.216-2.328,4.662,4.662,0,0,1,0-3.312,4.1,4.1,0,0,1,.872-1.384,4.258,4.258,0,0,1,1.36-.944,4.616,4.616,0,0,1,3.536,0,4.258,4.258,0,0,1,1.36.944,4.1,4.1,0,0,1,.872,1.384,4.662,4.662,0,0,1,0,3.312,4.1,4.1,0,0,1-.872,1.384,4.258,4.258,0,0,1-1.36.944A4.307,4.307,0,0,1,137.216,39.16Zm-2.5-4.32a3.166,3.166,0,0,0,.192,1.12,2.784,2.784,0,0,0,.528.888,2.469,2.469,0,0,0,.792.592,2.349,2.349,0,0,0,1.968,0,2.418,2.418,0,0,0,.792-.6,2.884,2.884,0,0,0,.528-.9,3.339,3.339,0,0,0,0-2.232,2.863,2.863,0,0,0-.528-.9,2.418,2.418,0,0,0-.792-.6,2.269,2.269,0,0,0-.984-.216,2.167,2.167,0,0,0-.968.224,2.517,2.517,0,0,0-.792.608,2.985,2.985,0,0,0-.536.9A3.071,3.071,0,0,0,134.72,34.84Zm11.408,4.32a6.409,6.409,0,0,1-2.008-.328,5.092,5.092,0,0,1-1.72-.936l.7-1.12a6.5,6.5,0,0,0,1.488.824,4.2,4.2,0,0,0,1.5.28,2.21,2.21,0,0,0,1.24-.3.978.978,0,0,0,.456-.864.8.8,0,0,0-.512-.768,10.246,10.246,0,0,0-1.6-.528q-.784-.208-1.344-.4a3.459,3.459,0,0,1-.912-.448,1.572,1.572,0,0,1-.512-.592,1.887,1.887,0,0,1-.16-.816A2.507,2.507,0,0,1,143,32.024a2.438,2.438,0,0,1,.688-.84,3.082,3.082,0,0,1,1.032-.52,4.473,4.473,0,0,1,1.28-.176,5.251,5.251,0,0,1,1.76.288,4.58,4.58,0,0,1,1.456.832l-.752,1.056a3.923,3.923,0,0,0-2.48-.928,2.119,2.119,0,0,0-1.128.28.965.965,0,0,0-.456.888.892.892,0,0,0,.1.432.815.815,0,0,0,.312.3,2.57,2.57,0,0,0,.56.232q.344.1.856.232.848.208,1.464.416a4.009,4.009,0,0,1,1.016.488,1.81,1.81,0,0,1,.592.656,1.967,1.967,0,0,1,.192.9,2.264,2.264,0,0,1-.9,1.9A3.929,3.929,0,0,1,146.128,39.16Zm9.552-.592a8.822,8.822,0,0,1-.928.36,3.923,3.923,0,0,1-1.264.2,2.679,2.679,0,0,1-.784-.112,1.92,1.92,0,0,1-.648-.336,1.526,1.526,0,0,1-.44-.584,2.14,2.14,0,0,1-.16-.872V31.992h-1.1v-1.36h1.1V27.88h1.76v2.752h1.824v1.36h-1.824v4.672a.869.869,0,0,0,.28.648.95.95,0,0,0,.616.2,1.961,1.961,0,0,0,.7-.128q.336-.128.5-.208Zm9.872-6.416a3.936,3.936,0,0,0-1.816.472,2.487,2.487,0,0,0-1.128,1.256V39h-1.76V30.632h1.632V32.5a3.827,3.827,0,0,1,1.128-1.384,2.736,2.736,0,0,1,1.5-.568h.264a.945.945,0,0,1,.184.016Zm3.392,7.008a3.116,3.116,0,0,1-1.128-.2,2.727,2.727,0,0,1-.9-.552,2.574,2.574,0,0,1-.592-.832,2.5,2.5,0,0,1-.216-1.04,2.242,2.242,0,0,1,.256-1.072,2.506,2.506,0,0,1,.728-.832,3.534,3.534,0,0,1,1.12-.544,5.028,5.028,0,0,1,1.432-.192,6.561,6.561,0,0,1,1.168.1,5.883,5.883,0,0,1,1.04.28V33.7a1.94,1.94,0,0,0-.528-1.448,2.076,2.076,0,0,0-1.52-.52,3.665,3.665,0,0,0-1.32.248,6.678,6.678,0,0,0-1.336.712l-.544-1.12a5.933,5.933,0,0,1,3.36-1.088,3.832,3.832,0,0,1,2.688.88,3.257,3.257,0,0,1,.96,2.528V36.92q0,.56.464.576V39q-.256.048-.44.064t-.36.016a1.132,1.132,0,0,1-.792-.256,1.1,1.1,0,0,1-.344-.656l-.048-.528a3.732,3.732,0,0,1-1.384,1.128A4.063,4.063,0,0,1,168.944,39.16Zm.48-1.3a3.164,3.164,0,0,0,1.208-.232,2.083,2.083,0,0,0,.888-.648.812.812,0,0,0,.336-.608v-1.1A5.32,5.32,0,0,0,170.9,35a5.254,5.254,0,0,0-.984-.1,2.691,2.691,0,0,0-1.544.408,1.25,1.25,0,0,0-.6,1.08,1.363,1.363,0,0,0,.464,1.048A1.687,1.687,0,0,0,169.424,37.864Zm11.072,1.3a3.281,3.281,0,0,1-1.776-.48,3.583,3.583,0,0,1-1.216-1.248v4.976h-1.76V30.632H177.3v1.5a3.655,3.655,0,0,1,1.24-1.2,3.323,3.323,0,0,1,1.72-.448,3.558,3.558,0,0,1,1.584.352,4.023,4.023,0,0,1,1.248.944,4.357,4.357,0,0,1,.824,1.376,4.626,4.626,0,0,1,.3,1.648,5.212,5.212,0,0,1-.272,1.7,4.216,4.216,0,0,1-.768,1.376,3.749,3.749,0,0,1-1.176.928A3.266,3.266,0,0,1,180.5,39.16Zm-.576-1.5a2.148,2.148,0,0,0,1.016-.24,2.525,2.525,0,0,0,.784-.64,2.923,2.923,0,0,0,.5-.912,3.226,3.226,0,0,0,.176-1.056,2.963,2.963,0,0,0-.2-1.088,2.922,2.922,0,0,0-.544-.9,2.529,2.529,0,0,0-.824-.608,2.429,2.429,0,0,0-1.04-.224,2.142,2.142,0,0,0-.7.128,2.8,2.8,0,0,0-.688.352,2.737,2.737,0,0,0-.56.52,1.753,1.753,0,0,0-.336.648v2.192a3.24,3.24,0,0,0,.416.72,3.063,3.063,0,0,0,.568.576,2.758,2.758,0,0,0,.68.384A2.047,2.047,0,0,0,179.92,37.656ZM185.792,39V30.632h1.76V39Zm0-9.744V27.32h1.76v1.936Zm7.28,9.9a3.59,3.59,0,0,1-1.568-.344,3.919,3.919,0,0,1-1.248-.936,4.337,4.337,0,0,1-.824-1.384,5.045,5.045,0,0,1-.016-3.36,4.383,4.383,0,0,1,.784-1.368,3.788,3.788,0,0,1,1.184-.936,3.453,3.453,0,0,1,3.272.144,3.555,3.555,0,0,1,1.2,1.24v-4.9h1.76v9.6a.694.694,0,0,0,.1.432.5.5,0,0,0,.376.144V39q-.272.048-.44.064t-.28.016a1.33,1.33,0,0,1-.864-.272.961.961,0,0,1-.368-.7l-.032-.624a3.338,3.338,0,0,1-1.264,1.232A3.572,3.572,0,0,1,193.072,39.16Zm.432-1.5a2.416,2.416,0,0,0,.768-.128,2.72,2.72,0,0,0,.7-.352,2.474,2.474,0,0,0,.552-.528,1.9,1.9,0,0,0,.328-.656V33.8a2.62,2.62,0,0,0-.408-.736,2.918,2.918,0,0,0-.6-.576,2.74,2.74,0,0,0-.712-.368,2.344,2.344,0,0,0-.76-.128,1.988,1.988,0,0,0-.968.24,2.5,2.5,0,0,0-.76.64,3.155,3.155,0,0,0-.5.912,3.1,3.1,0,0,0-.184,1.056,2.963,2.963,0,0,0,.2,1.088,2.841,2.841,0,0,0,.552.9,2.709,2.709,0,0,0,.808.608A2.2,2.2,0,0,0,193.5,37.656Zm14.064,1.5a4.348,4.348,0,0,1-1.784-.352,4.1,4.1,0,0,1-2.216-2.328,4.662,4.662,0,0,1,0-3.312,4.1,4.1,0,0,1,.872-1.384,4.258,4.258,0,0,1,1.36-.944,4.616,4.616,0,0,1,3.536,0,4.258,4.258,0,0,1,1.36.944,4.1,4.1,0,0,1,.872,1.384,4.662,4.662,0,0,1,0,3.312,4.1,4.1,0,0,1-.872,1.384,4.258,4.258,0,0,1-1.36.944A4.307,4.307,0,0,1,207.568,39.16Zm-2.5-4.32a3.166,3.166,0,0,0,.192,1.12,2.784,2.784,0,0,0,.528.888,2.469,2.469,0,0,0,.792.592,2.349,2.349,0,0,0,1.968,0,2.418,2.418,0,0,0,.792-.6,2.884,2.884,0,0,0,.528-.9,3.339,3.339,0,0,0,0-2.232,2.863,2.863,0,0,0-.528-.9,2.418,2.418,0,0,0-.792-.6,2.269,2.269,0,0,0-.984-.216,2.167,2.167,0,0,0-.968.224,2.517,2.517,0,0,0-.792.608,2.985,2.985,0,0,0-.536.9A3.071,3.071,0,0,0,205.072,34.84Zm11.776,4.32a3.59,3.59,0,0,1-1.568-.344,3.919,3.919,0,0,1-1.248-.936,4.337,4.337,0,0,1-.824-1.384,5.045,5.045,0,0,1-.016-3.36,4.383,4.383,0,0,1,.784-1.368,3.788,3.788,0,0,1,1.184-.936,3.453,3.453,0,0,1,3.272.144,3.555,3.555,0,0,1,1.2,1.24v-4.9h1.76v9.6a.694.694,0,0,0,.1.432.5.5,0,0,0,.376.144V39q-.272.048-.44.064t-.28.016a1.33,1.33,0,0,1-.864-.272.961.961,0,0,1-.368-.7l-.032-.624a3.338,3.338,0,0,1-1.264,1.232A3.572,3.572,0,0,1,216.848,39.16Zm.432-1.5a2.416,2.416,0,0,0,.768-.128,2.72,2.72,0,0,0,.7-.352,2.474,2.474,0,0,0,.552-.528,1.9,1.9,0,0,0,.328-.656V33.8a2.62,2.62,0,0,0-.408-.736,2.918,2.918,0,0,0-.6-.576,2.74,2.74,0,0,0-.712-.368,2.344,2.344,0,0,0-.76-.128,1.988,1.988,0,0,0-.968.24,2.5,2.5,0,0,0-.76.64,3.155,3.155,0,0,0-.5.912,3.1,3.1,0,0,0-.184,1.056,2.963,2.963,0,0,0,.2,1.088,2.841,2.841,0,0,0,.552.9,2.709,2.709,0,0,0,.808.608A2.2,2.2,0,0,0,217.28,37.656ZM18.736,63.16a3.59,3.59,0,0,1-1.568-.344,3.919,3.919,0,0,1-1.248-.936A4.337,4.337,0,0,1,15.1,60.5a5.045,5.045,0,0,1-.016-3.36,4.384,4.384,0,0,1,.784-1.368,3.788,3.788,0,0,1,1.184-.936,3.453,3.453,0,0,1,3.272.144,3.555,3.555,0,0,1,1.2,1.24v-4.9h1.76v9.6a.694.694,0,0,0,.1.432.5.5,0,0,0,.376.144V63q-.272.048-.44.064t-.28.016a1.33,1.33,0,0,1-.864-.272.961.961,0,0,1-.368-.7l-.032-.624a3.338,3.338,0,0,1-1.264,1.232A3.572,3.572,0,0,1,18.736,63.16Zm.432-1.5a2.416,2.416,0,0,0,.768-.128,2.72,2.72,0,0,0,.7-.352,2.474,2.474,0,0,0,.552-.528,1.9,1.9,0,0,0,.328-.656V57.8a2.621,2.621,0,0,0-.408-.736,2.918,2.918,0,0,0-.6-.576,2.74,2.74,0,0,0-.712-.368,2.344,2.344,0,0,0-.76-.128,1.988,1.988,0,0,0-.968.24,2.5,2.5,0,0,0-.76.64,3.155,3.155,0,0,0-.5.912,3.1,3.1,0,0,0-.184,1.056,2.963,2.963,0,0,0,.2,1.088,2.841,2.841,0,0,0,.552.9,2.709,2.709,0,0,0,.808.608A2.2,2.2,0,0,0,19.168,61.656Zm10.144,1.5a4.451,4.451,0,0,1-1.776-.344,4.133,4.133,0,0,1-1.368-.936,4.22,4.22,0,0,1-.88-1.376,4.459,4.459,0,0,1-.312-1.664,4.52,4.52,0,0,1,.312-1.672,4.291,4.291,0,0,1,.88-1.392,4.075,4.075,0,0,1,1.368-.944,4.493,4.493,0,0,1,1.792-.344,4.307,4.307,0,0,1,1.768.352,4.227,4.227,0,0,1,1.352.936,4,4,0,0,1,.856,1.36,4.518,4.518,0,0,1,.3,1.624q0,.192-.016.36t-.032.28h-6.7a2.865,2.865,0,0,0,.264,1.008,2.653,2.653,0,0,0,.56.776,2.459,2.459,0,0,0,1.7.68,2.8,2.8,0,0,0,.7-.088,2.454,2.454,0,0,0,.632-.256,2.24,2.24,0,0,0,.512-.408,1.9,1.9,0,0,0,.352-.528l1.5.432A3.487,3.487,0,0,1,31.64,62.56,4.437,4.437,0,0,1,29.312,63.16Zm2.544-4.976a2.814,2.814,0,0,0-.264-.976,2.513,2.513,0,0,0-.552-.76,2.463,2.463,0,0,0-.784-.488,2.558,2.558,0,0,0-.944-.176,2.5,2.5,0,0,0-1.712.664,2.406,2.406,0,0,0-.544.76,2.929,2.929,0,0,0-.256.976Zm7.936,4.976a3.28,3.28,0,0,1-1.776-.48A3.583,3.583,0,0,1,36.8,61.432v4.976H35.04V54.632h1.552v1.5a3.655,3.655,0,0,1,1.24-1.2,3.323,3.323,0,0,1,1.72-.448,3.557,3.557,0,0,1,1.584.352,4.023,4.023,0,0,1,1.248.944,4.357,4.357,0,0,1,.824,1.376,4.627,4.627,0,0,1,.3,1.648,5.212,5.212,0,0,1-.272,1.7,4.216,4.216,0,0,1-.768,1.376,3.749,3.749,0,0,1-1.176.928A3.266,3.266,0,0,1,39.792,63.16Zm-.576-1.5a2.148,2.148,0,0,0,1.016-.24,2.525,2.525,0,0,0,.784-.64,2.923,2.923,0,0,0,.5-.912,3.226,3.226,0,0,0,.176-1.056,2.963,2.963,0,0,0-.2-1.088,2.922,2.922,0,0,0-.544-.9,2.529,2.529,0,0,0-.824-.608,2.429,2.429,0,0,0-1.04-.224,2.142,2.142,0,0,0-.7.128,2.8,2.8,0,0,0-.688.352,2.737,2.737,0,0,0-.56.52,1.753,1.753,0,0,0-.336.648v2.192a3.24,3.24,0,0,0,.416.72,3.062,3.062,0,0,0,.568.576,2.758,2.758,0,0,0,.68.384A2.047,2.047,0,0,0,39.216,61.656ZM45.1,51.32h1.76v9.264a1.042,1.042,0,0,0,.24.728.862.862,0,0,0,.672.264,1.561,1.561,0,0,0,.408-.064q.232-.064.44-.144l.256,1.376a4.1,4.1,0,0,1-.912.28,4.941,4.941,0,0,1-.944.1,1.933,1.933,0,0,1-1.416-.5,1.887,1.887,0,0,1-.5-1.408Zm8.56,11.84a4.348,4.348,0,0,1-1.784-.352,4.1,4.1,0,0,1-2.216-2.328,4.662,4.662,0,0,1,0-3.312,4.1,4.1,0,0,1,.872-1.384,4.258,4.258,0,0,1,1.36-.944,4.616,4.616,0,0,1,3.536,0,4.258,4.258,0,0,1,1.36.944,4.1,4.1,0,0,1,.872,1.384,4.662,4.662,0,0,1,0,3.312,4.1,4.1,0,0,1-.872,1.384,4.258,4.258,0,0,1-1.36.944A4.307,4.307,0,0,1,53.664,63.16Zm-2.5-4.32a3.166,3.166,0,0,0,.192,1.12,2.784,2.784,0,0,0,.528.888,2.469,2.469,0,0,0,.792.592,2.349,2.349,0,0,0,1.968,0,2.418,2.418,0,0,0,.792-.6,2.883,2.883,0,0,0,.528-.9,3.339,3.339,0,0,0,0-2.232,2.863,2.863,0,0,0-.528-.9,2.418,2.418,0,0,0-.792-.6,2.269,2.269,0,0,0-.984-.216,2.167,2.167,0,0,0-.968.224,2.517,2.517,0,0,0-.792.608,2.985,2.985,0,0,0-.536.9A3.071,3.071,0,0,0,51.168,58.84Zm8.368,6.128q.24.048.472.08a2.876,2.876,0,0,0,.376.032.706.706,0,0,0,.36-.088,1.073,1.073,0,0,0,.312-.312,3.229,3.229,0,0,0,.328-.632q.168-.408.392-1.048l-3.44-8.368h1.808l2.592,6.816,2.3-6.816H66.7l-3.792,10.3a2.607,2.607,0,0,1-.888,1.208,2.581,2.581,0,0,1-1.624.488,3.493,3.493,0,0,1-.4-.024,2.556,2.556,0,0,1-.464-.1ZM80.8,63H79.04V58.312a3.01,3.01,0,0,0-.384-1.712,1.285,1.285,0,0,0-1.12-.544,2,2,0,0,0-1.368.552,3.107,3.107,0,0,0-.888,1.432V63H73.52V58.312a3,3,0,0,0-.384-1.72,1.275,1.275,0,0,0-1.1-.536,2.047,2.047,0,0,0-1.376.544,3.025,3.025,0,0,0-.9,1.424V63H68V54.632h1.6v1.68a3.536,3.536,0,0,1,1.3-1.352,3.6,3.6,0,0,1,1.848-.472,2.238,2.238,0,0,1,2.384,1.9,3.831,3.831,0,0,1,1.328-1.416,3.432,3.432,0,0,1,1.824-.488,2.431,2.431,0,0,1,1.224.28,2.164,2.164,0,0,1,.776.744,3.068,3.068,0,0,1,.4,1.08,7.286,7.286,0,0,1,.112,1.3Zm5.824.16a4.451,4.451,0,0,1-1.776-.344,4.134,4.134,0,0,1-1.368-.936A4.22,4.22,0,0,1,82.6,60.5a4.459,4.459,0,0,1-.312-1.664,4.52,4.52,0,0,1,.312-1.672,4.291,4.291,0,0,1,.88-1.392,4.075,4.075,0,0,1,1.368-.944,4.493,4.493,0,0,1,1.792-.344,4.307,4.307,0,0,1,1.768.352,4.227,4.227,0,0,1,1.352.936,4,4,0,0,1,.856,1.36,4.518,4.518,0,0,1,.3,1.624q0,.192-.016.36t-.032.28h-6.7a2.865,2.865,0,0,0,.264,1.008,2.653,2.653,0,0,0,.56.776,2.459,2.459,0,0,0,1.7.68,2.8,2.8,0,0,0,.7-.088,2.454,2.454,0,0,0,.632-.256,2.24,2.24,0,0,0,.512-.408,1.9,1.9,0,0,0,.352-.528l1.5.432a3.487,3.487,0,0,1-1.432,1.544A4.437,4.437,0,0,1,86.624,63.16Zm2.544-4.976a2.814,2.814,0,0,0-.264-.976,2.513,2.513,0,0,0-.552-.76,2.463,2.463,0,0,0-.784-.488,2.558,2.558,0,0,0-.944-.176,2.5,2.5,0,0,0-1.712.664,2.406,2.406,0,0,0-.544.76,2.929,2.929,0,0,0-.256.976ZM99.856,63H98.1V58.312a3.056,3.056,0,0,0-.376-1.72,1.271,1.271,0,0,0-1.112-.536,2.174,2.174,0,0,0-.768.144,2.69,2.69,0,0,0-.72.408,3.178,3.178,0,0,0-.6.624,2.859,2.859,0,0,0-.408.792V63h-1.76V54.632h1.6v1.68a3.4,3.4,0,0,1,1.392-1.336,4.2,4.2,0,0,1,2.016-.488,2.479,2.479,0,0,1,1.232.272,2.035,2.035,0,0,1,.76.744,3.255,3.255,0,0,1,.392,1.088,7.284,7.284,0,0,1,.112,1.3Zm6.624-.432a8.821,8.821,0,0,1-.928.36,3.923,3.923,0,0,1-1.264.2,2.679,2.679,0,0,1-.784-.112,1.921,1.921,0,0,1-.648-.336,1.526,1.526,0,0,1-.44-.584,2.14,2.14,0,0,1-.16-.872V55.992h-1.1v-1.36h1.1V51.88h1.76v2.752h1.824v1.36h-1.824v4.672a.869.869,0,0,0,.28.648.95.95,0,0,0,.616.2,1.961,1.961,0,0,0,.7-.128q.336-.128.5-.208Zm1.136.432V60.952h1.456V63Zm7.664,0V51.64h1.792V63Zm11.632,0h-1.76V58.312a3.056,3.056,0,0,0-.376-1.72,1.271,1.271,0,0,0-1.112-.536,2.174,2.174,0,0,0-.768.144,2.69,2.69,0,0,0-.72.408,3.178,3.178,0,0,0-.6.624,2.859,2.859,0,0,0-.408.792V63h-1.76V54.632h1.6v1.68a3.4,3.4,0,0,1,1.392-1.336,4.2,4.2,0,0,1,2.016-.488,2.479,2.479,0,0,1,1.232.272,2.035,2.035,0,0,1,.76.744,3.255,3.255,0,0,1,.392,1.088,7.284,7.284,0,0,1,.112,1.3Zm6.624-.432a8.822,8.822,0,0,1-.928.36,3.923,3.923,0,0,1-1.264.2,2.679,2.679,0,0,1-.784-.112,1.92,1.92,0,0,1-.648-.336,1.526,1.526,0,0,1-.44-.584,2.14,2.14,0,0,1-.16-.872V55.992h-1.1v-1.36h1.1V51.88h1.76v2.752H132.9v1.36h-1.824v4.672a.869.869,0,0,0,.28.648.95.95,0,0,0,.616.2,1.961,1.961,0,0,0,.7-.128q.336-.128.5-.208Zm4.8.592a4.451,4.451,0,0,1-1.776-.344,4.134,4.134,0,0,1-1.368-.936,4.22,4.22,0,0,1-.88-1.376A4.458,4.458,0,0,1,134,58.84a4.52,4.52,0,0,1,.312-1.672,4.291,4.291,0,0,1,.88-1.392,4.075,4.075,0,0,1,1.368-.944,4.493,4.493,0,0,1,1.792-.344,4.307,4.307,0,0,1,1.768.352,4.227,4.227,0,0,1,1.352.936,4,4,0,0,1,.856,1.36,4.518,4.518,0,0,1,.3,1.624q0,.192-.016.36t-.032.28h-6.7a2.865,2.865,0,0,0,.264,1.008,2.653,2.653,0,0,0,.56.776,2.459,2.459,0,0,0,1.7.68,2.8,2.8,0,0,0,.7-.088,2.454,2.454,0,0,0,.632-.256,2.24,2.24,0,0,0,.512-.408,1.9,1.9,0,0,0,.352-.528l1.5.432a3.487,3.487,0,0,1-1.432,1.544A4.437,4.437,0,0,1,138.336,63.16Zm2.544-4.976a2.814,2.814,0,0,0-.264-.976,2.513,2.513,0,0,0-.552-.76,2.463,2.463,0,0,0-.784-.488,2.558,2.558,0,0,0-.944-.176,2.5,2.5,0,0,0-1.712.664,2.406,2.406,0,0,0-.544.76,2.929,2.929,0,0,0-.256.976Zm6.5,4.9a3.487,3.487,0,0,1-1.552-.344,3.706,3.706,0,0,1-1.208-.936,4.4,4.4,0,0,1-.784-1.36,4.681,4.681,0,0,1-.28-1.616,4.9,4.9,0,0,1,.288-1.688,4.283,4.283,0,0,1,.8-1.376,3.819,3.819,0,0,1,1.224-.928,3.575,3.575,0,0,1,1.576-.344,3.24,3.24,0,0,1,1.768.48,4.064,4.064,0,0,1,1.256,1.248V54.632h1.552V62.76a3.709,3.709,0,0,1-.336,1.616,3.41,3.41,0,0,1-.936,1.192,4.218,4.218,0,0,1-1.416.744,5.85,5.85,0,0,1-1.76.256,5.039,5.039,0,0,1-2.312-.472,4.375,4.375,0,0,1-1.544-1.32l.992-.928a3.1,3.1,0,0,0,1.24,1.024,3.817,3.817,0,0,0,1.624.352,3.628,3.628,0,0,0,1.032-.144,2.388,2.388,0,0,0,.856-.448,2.163,2.163,0,0,0,.584-.768,2.6,2.6,0,0,0,.216-1.1V61.48a3.061,3.061,0,0,1-1.232,1.184A3.468,3.468,0,0,1,147.376,63.08Zm.576-1.424a2.2,2.2,0,0,0,.768-.136,2.7,2.7,0,0,0,.68-.368,2.65,2.65,0,0,0,.536-.528,1.913,1.913,0,0,0,.32-.632V57.8a2.96,2.96,0,0,0-1-1.3,2.845,2.845,0,0,0-.7-.376,2.179,2.179,0,0,0-1.768.112,2.485,2.485,0,0,0-.776.656,3.123,3.123,0,0,0-.5.92,3.226,3.226,0,0,0-.176,1.056,2.9,2.9,0,0,0,.2,1.08,2.766,2.766,0,0,0,.552.88,2.709,2.709,0,0,0,.824.6A2.376,2.376,0,0,0,147.952,61.656Zm10.88-5.5a3.936,3.936,0,0,0-1.816.472,2.487,2.487,0,0,0-1.128,1.256V63h-1.76V54.632h1.632V56.5a3.827,3.827,0,0,1,1.128-1.384,2.736,2.736,0,0,1,1.5-.568h.264a.945.945,0,0,1,.184.016Zm3.392,7.008a3.116,3.116,0,0,1-1.128-.2,2.727,2.727,0,0,1-.9-.552,2.574,2.574,0,0,1-.592-.832,2.5,2.5,0,0,1-.216-1.04,2.242,2.242,0,0,1,.256-1.072,2.506,2.506,0,0,1,.728-.832,3.534,3.534,0,0,1,1.12-.544,5.028,5.028,0,0,1,1.432-.192,6.561,6.561,0,0,1,1.168.1,5.883,5.883,0,0,1,1.04.28V57.7a1.94,1.94,0,0,0-.528-1.448,2.076,2.076,0,0,0-1.52-.52,3.665,3.665,0,0,0-1.32.248,6.678,6.678,0,0,0-1.336.712l-.544-1.12a5.933,5.933,0,0,1,3.36-1.088,3.832,3.832,0,0,1,2.688.88,3.257,3.257,0,0,1,.96,2.528V60.92q0,.56.464.576V63q-.256.048-.44.064t-.36.016a1.132,1.132,0,0,1-.792-.256,1.1,1.1,0,0,1-.344-.656l-.048-.528a3.732,3.732,0,0,1-1.384,1.128A4.063,4.063,0,0,1,162.224,63.16Zm.48-1.3a3.164,3.164,0,0,0,1.208-.232,2.083,2.083,0,0,0,.888-.648.812.812,0,0,0,.336-.608v-1.1a5.32,5.32,0,0,0-.952-.272,5.254,5.254,0,0,0-.984-.1,2.691,2.691,0,0,0-1.544.408,1.25,1.25,0,0,0-.6,1.08,1.363,1.363,0,0,0,.464,1.048A1.687,1.687,0,0,0,162.7,61.864Zm10.912.7a8.822,8.822,0,0,1-.928.36,3.923,3.923,0,0,1-1.264.2,2.679,2.679,0,0,1-.784-.112,1.92,1.92,0,0,1-.648-.336,1.526,1.526,0,0,1-.44-.584,2.14,2.14,0,0,1-.16-.872V55.992h-1.1v-1.36h1.1V51.88h1.76v2.752h1.824v1.36h-1.824v4.672a.869.869,0,0,0,.28.648.95.95,0,0,0,.616.2,1.961,1.961,0,0,0,.7-.128q.336-.128.5-.208Zm1.216.432V54.632h1.76V63Zm0-9.744V51.32h1.76v1.936ZM186.208,63h-1.76V58.312a3.056,3.056,0,0,0-.376-1.72,1.271,1.271,0,0,0-1.112-.536,2.174,2.174,0,0,0-.768.144,2.69,2.69,0,0,0-.72.408,3.178,3.178,0,0,0-.6.624,2.86,2.86,0,0,0-.408.792V63H178.7V54.632h1.6v1.68a3.4,3.4,0,0,1,1.392-1.336,4.2,4.2,0,0,1,2.016-.488,2.479,2.479,0,0,1,1.232.272,2.035,2.035,0,0,1,.76.744,3.255,3.255,0,0,1,.392,1.088,7.285,7.285,0,0,1,.112,1.3Zm5.36.08a3.487,3.487,0,0,1-1.552-.344,3.706,3.706,0,0,1-1.208-.936,4.4,4.4,0,0,1-.784-1.36,4.681,4.681,0,0,1-.28-1.616,4.9,4.9,0,0,1,.288-1.688,4.283,4.283,0,0,1,.8-1.376,3.819,3.819,0,0,1,1.224-.928,3.575,3.575,0,0,1,1.576-.344,3.24,3.24,0,0,1,1.768.48,4.064,4.064,0,0,1,1.256,1.248V54.632h1.552V62.76a3.709,3.709,0,0,1-.336,1.616,3.41,3.41,0,0,1-.936,1.192,4.218,4.218,0,0,1-1.416.744,5.85,5.85,0,0,1-1.76.256,5.039,5.039,0,0,1-2.312-.472,4.375,4.375,0,0,1-1.544-1.32l.992-.928a3.1,3.1,0,0,0,1.24,1.024,3.817,3.817,0,0,0,1.624.352,3.628,3.628,0,0,0,1.032-.144,2.388,2.388,0,0,0,.856-.448,2.163,2.163,0,0,0,.584-.768,2.6,2.6,0,0,0,.216-1.1V61.48a3.061,3.061,0,0,1-1.232,1.184A3.468,3.468,0,0,1,191.568,63.08Zm.576-1.424a2.2,2.2,0,0,0,.768-.136,2.7,2.7,0,0,0,.68-.368,2.65,2.65,0,0,0,.536-.528,1.913,1.913,0,0,0,.32-.632V57.8a2.96,2.96,0,0,0-1-1.3,2.845,2.845,0,0,0-.7-.376,2.179,2.179,0,0,0-1.768.112,2.485,2.485,0,0,0-.776.656,3.123,3.123,0,0,0-.5.92,3.226,3.226,0,0,0-.176,1.056,2.9,2.9,0,0,0,.2,1.08,2.766,2.766,0,0,0,.552.88,2.709,2.709,0,0,0,.824.6A2.376,2.376,0,0,0,192.144,61.656ZM209.776,63h-1.76V58.312a2.875,2.875,0,0,0-.408-1.7,1.373,1.373,0,0,0-1.176-.552,2.007,2.007,0,0,0-.736.144,2.645,2.645,0,0,0-.7.408,3.1,3.1,0,0,0-.584.624,2.661,2.661,0,0,0-.384.792V63h-1.76V51.32h1.76v4.992a3.473,3.473,0,0,1,1.3-1.344,3.513,3.513,0,0,1,1.8-.48,2.633,2.633,0,0,1,1.288.28,2.261,2.261,0,0,1,.808.744,2.993,2.993,0,0,1,.424,1.08,6.812,6.812,0,0,1,.12,1.3Zm4.272.16a3.116,3.116,0,0,1-1.128-.2,2.727,2.727,0,0,1-.9-.552,2.574,2.574,0,0,1-.592-.832,2.5,2.5,0,0,1-.216-1.04,2.242,2.242,0,0,1,.256-1.072,2.506,2.506,0,0,1,.728-.832,3.534,3.534,0,0,1,1.12-.544,5.028,5.028,0,0,1,1.432-.192,6.56,6.56,0,0,1,1.168.1,5.882,5.882,0,0,1,1.04.28V57.7a1.94,1.94,0,0,0-.528-1.448,2.076,2.076,0,0,0-1.52-.52,3.665,3.665,0,0,0-1.32.248,6.678,6.678,0,0,0-1.336.712l-.544-1.12a5.933,5.933,0,0,1,3.36-1.088,3.832,3.832,0,0,1,2.688.88,3.257,3.257,0,0,1,.96,2.528V60.92q0,.56.464.576V63q-.256.048-.44.064t-.36.016a1.132,1.132,0,0,1-.792-.256,1.1,1.1,0,0,1-.344-.656l-.048-.528a3.732,3.732,0,0,1-1.384,1.128A4.063,4.063,0,0,1,214.048,63.16Zm.48-1.3a3.164,3.164,0,0,0,1.208-.232,2.083,2.083,0,0,0,.888-.648.812.812,0,0,0,.336-.608v-1.1a5.32,5.32,0,0,0-.952-.272,5.254,5.254,0,0,0-.984-.1,2.691,2.691,0,0,0-1.544.408,1.25,1.25,0,0,0-.6,1.08,1.363,1.363,0,0,0,.464,1.048A1.687,1.687,0,0,0,214.528,61.864Zm9.36,1.3a6.409,6.409,0,0,1-2.008-.328,5.092,5.092,0,0,1-1.72-.936l.7-1.12a6.5,6.5,0,0,0,1.488.824,4.2,4.2,0,0,0,1.5.28,2.21,2.21,0,0,0,1.24-.3.978.978,0,0,0,.456-.864.8.8,0,0,0-.512-.768,10.246,10.246,0,0,0-1.6-.528q-.784-.208-1.344-.4a3.459,3.459,0,0,1-.912-.448,1.572,1.572,0,0,1-.512-.592,1.887,1.887,0,0,1-.16-.816,2.507,2.507,0,0,1,.248-1.136,2.438,2.438,0,0,1,.688-.84,3.082,3.082,0,0,1,1.032-.52,4.473,4.473,0,0,1,1.28-.176,5.251,5.251,0,0,1,1.76.288,4.58,4.58,0,0,1,1.456.832l-.752,1.056a3.923,3.923,0,0,0-2.48-.928,2.119,2.119,0,0,0-1.128.28.965.965,0,0,0-.456.888.892.892,0,0,0,.1.432.815.815,0,0,0,.312.3,2.57,2.57,0,0,0,.56.232q.344.1.856.232.848.208,1.464.416a4.009,4.009,0,0,1,1.016.488,1.81,1.81,0,0,1,.592.656,1.967,1.967,0,0,1,.192.9,2.264,2.264,0,0,1-.9,1.9A3.929,3.929,0,0,1,223.888,63.16ZM27.616,87h-1.76V82.312a3.056,3.056,0,0,0-.376-1.72,1.271,1.271,0,0,0-1.112-.536,2.174,2.174,0,0,0-.768.144,2.69,2.69,0,0,0-.72.408,3.178,3.178,0,0,0-.6.624,2.859,2.859,0,0,0-.408.792V87h-1.76V78.632h1.6v1.68A3.4,3.4,0,0,1,23.1,78.976a4.2,4.2,0,0,1,2.016-.488,2.479,2.479,0,0,1,1.232.272,2.035,2.035,0,0,1,.76.744,3.255,3.255,0,0,1,.392,1.088,7.284,7.284,0,0,1,.112,1.3Zm5.84.16a4.451,4.451,0,0,1-1.776-.344,4.133,4.133,0,0,1-1.368-.936,4.22,4.22,0,0,1-.88-1.376,4.458,4.458,0,0,1-.312-1.664,4.52,4.52,0,0,1,.312-1.672,4.291,4.291,0,0,1,.88-1.392,4.075,4.075,0,0,1,1.368-.944,4.493,4.493,0,0,1,1.792-.344,4.307,4.307,0,0,1,1.768.352,4.227,4.227,0,0,1,1.352.936,4,4,0,0,1,.856,1.36,4.518,4.518,0,0,1,.3,1.624q0,.192-.016.36t-.032.28h-6.7a2.865,2.865,0,0,0,.264,1.008,2.653,2.653,0,0,0,.56.776,2.459,2.459,0,0,0,1.7.68,2.8,2.8,0,0,0,.7-.088,2.454,2.454,0,0,0,.632-.256,2.24,2.24,0,0,0,.512-.408,1.9,1.9,0,0,0,.352-.528l1.5.432a3.487,3.487,0,0,1-1.432,1.544A4.437,4.437,0,0,1,33.456,87.16ZM36,82.184a2.814,2.814,0,0,0-.264-.976,2.513,2.513,0,0,0-.552-.76,2.463,2.463,0,0,0-.784-.488,2.558,2.558,0,0,0-.944-.176,2.5,2.5,0,0,0-1.712.664,2.406,2.406,0,0,0-.544.76,2.929,2.929,0,0,0-.256.976ZM41.312,87l-3.2-8.368H39.92l2.4,6.88,2.416-6.88H46.4L43.2,87Zm9.84.16a4.451,4.451,0,0,1-1.776-.344,4.133,4.133,0,0,1-1.368-.936,4.22,4.22,0,0,1-.88-1.376,4.458,4.458,0,0,1-.312-1.664,4.52,4.52,0,0,1,.312-1.672,4.291,4.291,0,0,1,.88-1.392,4.075,4.075,0,0,1,1.368-.944,4.493,4.493,0,0,1,1.792-.344,4.307,4.307,0,0,1,1.768.352,4.227,4.227,0,0,1,1.352.936,4,4,0,0,1,.856,1.36,4.518,4.518,0,0,1,.3,1.624q0,.192-.016.36t-.032.28h-6.7a2.865,2.865,0,0,0,.264,1.008,2.653,2.653,0,0,0,.56.776,2.459,2.459,0,0,0,1.7.68,2.8,2.8,0,0,0,.7-.088,2.454,2.454,0,0,0,.632-.256,2.24,2.24,0,0,0,.512-.408,1.9,1.9,0,0,0,.352-.528l1.5.432A3.487,3.487,0,0,1,53.48,86.56,4.437,4.437,0,0,1,51.152,87.16ZM53.7,82.184a2.814,2.814,0,0,0-.264-.976,2.513,2.513,0,0,0-.552-.76,2.463,2.463,0,0,0-.784-.488,2.558,2.558,0,0,0-.944-.176,2.5,2.5,0,0,0-1.712.664,2.406,2.406,0,0,0-.544.76,2.929,2.929,0,0,0-.256.976Zm7.888-2.032a3.936,3.936,0,0,0-1.816.472A2.487,2.487,0,0,0,58.64,81.88V87H56.88V78.632h1.632V80.5A3.827,3.827,0,0,1,59.64,79.12a2.736,2.736,0,0,1,1.5-.568H61.4a.945.945,0,0,1,.184.016Zm9.36,7.008a3.375,3.375,0,0,1-2.96-1.68V87H66.432V75.32h1.76v4.9a3.852,3.852,0,0,1,1.24-1.264,3.469,3.469,0,0,1,3.272-.1,3.728,3.728,0,0,1,1.176.96,4.375,4.375,0,0,1,.752,1.392,5.2,5.2,0,0,1,.264,1.656,4.606,4.606,0,0,1-.3,1.68A4.376,4.376,0,0,1,73.76,85.9a3.848,3.848,0,0,1-1.256.92A3.677,3.677,0,0,1,70.944,87.16Zm-.464-1.5a2.394,2.394,0,0,0,1.056-.232,2.63,2.63,0,0,0,.824-.616,2.823,2.823,0,0,0,.536-.888,2.963,2.963,0,0,0,.192-1.064,3.214,3.214,0,0,0-.184-1.08,2.928,2.928,0,0,0-.512-.912,2.577,2.577,0,0,0-.784-.632,2.114,2.114,0,0,0-1-.24,2.194,2.194,0,0,0-1.448.528,3.515,3.515,0,0,0-.968,1.28v2.208a1.74,1.74,0,0,0,.336.664,2.737,2.737,0,0,0,.56.52,2.6,2.6,0,0,0,.688.344A2.27,2.27,0,0,0,70.48,85.656Zm9.792,1.5a4.451,4.451,0,0,1-1.776-.344,4.133,4.133,0,0,1-1.368-.936,4.22,4.22,0,0,1-.88-1.376,4.458,4.458,0,0,1-.312-1.664,4.52,4.52,0,0,1,.312-1.672,4.291,4.291,0,0,1,.88-1.392,4.075,4.075,0,0,1,1.368-.944,4.493,4.493,0,0,1,1.792-.344,4.307,4.307,0,0,1,1.768.352,4.227,4.227,0,0,1,1.352.936,4,4,0,0,1,.856,1.36,4.518,4.518,0,0,1,.3,1.624q0,.192-.016.36t-.032.28h-6.7a2.865,2.865,0,0,0,.264,1.008,2.653,2.653,0,0,0,.56.776,2.459,2.459,0,0,0,1.7.68,2.8,2.8,0,0,0,.7-.088,2.454,2.454,0,0,0,.632-.256,2.24,2.24,0,0,0,.512-.408,1.9,1.9,0,0,0,.352-.528l1.5.432A3.487,3.487,0,0,1,82.6,86.56,4.437,4.437,0,0,1,80.272,87.16Zm2.544-4.976a2.814,2.814,0,0,0-.264-.976,2.513,2.513,0,0,0-.552-.76,2.463,2.463,0,0,0-.784-.488,2.558,2.558,0,0,0-.944-.176,2.5,2.5,0,0,0-1.712.664,2.406,2.406,0,0,0-.544.76,2.929,2.929,0,0,0-.256.976Zm6.976,4.976a4.451,4.451,0,0,1-1.776-.344,4.133,4.133,0,0,1-1.368-.936,4.22,4.22,0,0,1-.88-1.376,4.458,4.458,0,0,1-.312-1.664,4.52,4.52,0,0,1,.312-1.672,4.291,4.291,0,0,1,.88-1.392,4.075,4.075,0,0,1,1.368-.944,4.493,4.493,0,0,1,1.792-.344,4.307,4.307,0,0,1,1.768.352,4.228,4.228,0,0,1,1.352.936,4,4,0,0,1,.856,1.36,4.518,4.518,0,0,1,.3,1.624q0,.192-.016.36t-.032.28h-6.7a2.865,2.865,0,0,0,.264,1.008,2.653,2.653,0,0,0,.56.776,2.459,2.459,0,0,0,1.7.68,2.8,2.8,0,0,0,.7-.088,2.454,2.454,0,0,0,.632-.256,2.24,2.24,0,0,0,.512-.408,1.9,1.9,0,0,0,.352-.528l1.5.432A3.487,3.487,0,0,1,92.12,86.56,4.437,4.437,0,0,1,89.792,87.16Zm2.544-4.976a2.814,2.814,0,0,0-.264-.976,2.513,2.513,0,0,0-.552-.76,2.463,2.463,0,0,0-.784-.488,2.558,2.558,0,0,0-.944-.176,2.5,2.5,0,0,0-1.712.664,2.406,2.406,0,0,0-.544.76,2.929,2.929,0,0,0-.256.976ZM103.024,87h-1.76V82.312a3.056,3.056,0,0,0-.376-1.72,1.271,1.271,0,0,0-1.112-.536,2.174,2.174,0,0,0-.768.144,2.69,2.69,0,0,0-.72.408,3.178,3.178,0,0,0-.6.624,2.859,2.859,0,0,0-.408.792V87H95.52V78.632h1.6v1.68a3.4,3.4,0,0,1,1.392-1.336,4.2,4.2,0,0,1,2.016-.488,2.479,2.479,0,0,1,1.232.272,2.035,2.035,0,0,1,.76.744,3.255,3.255,0,0,1,.392,1.088,7.284,7.284,0,0,1,.112,1.3Zm9.792.16a4.451,4.451,0,0,1-1.776-.344,4.133,4.133,0,0,1-1.368-.936,4.22,4.22,0,0,1-.88-1.376,4.458,4.458,0,0,1-.312-1.664,4.52,4.52,0,0,1,.312-1.672,4.291,4.291,0,0,1,.88-1.392,4.075,4.075,0,0,1,1.368-.944,4.493,4.493,0,0,1,1.792-.344,4.307,4.307,0,0,1,1.768.352,4.227,4.227,0,0,1,1.352.936,4,4,0,0,1,.856,1.36,4.518,4.518,0,0,1,.3,1.624q0,.192-.016.36t-.032.28h-6.7a2.865,2.865,0,0,0,.264,1.008,2.653,2.653,0,0,0,.56.776,2.459,2.459,0,0,0,1.7.68,2.8,2.8,0,0,0,.7-.088,2.454,2.454,0,0,0,.632-.256,2.24,2.24,0,0,0,.512-.408,1.9,1.9,0,0,0,.352-.528l1.5.432a3.487,3.487,0,0,1-1.432,1.544A4.437,4.437,0,0,1,112.816,87.16Zm2.544-4.976a2.814,2.814,0,0,0-.264-.976,2.513,2.513,0,0,0-.552-.76,2.463,2.463,0,0,0-.784-.488,2.558,2.558,0,0,0-.944-.176,2.5,2.5,0,0,0-1.712.664,2.406,2.406,0,0,0-.544.76,2.929,2.929,0,0,0-.256.976Zm5.408,4.976a3.116,3.116,0,0,1-1.128-.2,2.726,2.726,0,0,1-.9-.552,2.574,2.574,0,0,1-.592-.832,2.5,2.5,0,0,1-.216-1.04,2.242,2.242,0,0,1,.256-1.072,2.505,2.505,0,0,1,.728-.832,3.534,3.534,0,0,1,1.12-.544,5.028,5.028,0,0,1,1.432-.192,6.56,6.56,0,0,1,1.168.1,5.882,5.882,0,0,1,1.04.28V81.7a1.94,1.94,0,0,0-.528-1.448,2.076,2.076,0,0,0-1.52-.52,3.665,3.665,0,0,0-1.32.248,6.678,6.678,0,0,0-1.336.712l-.544-1.12a5.933,5.933,0,0,1,3.36-1.088,3.832,3.832,0,0,1,2.688.88,3.257,3.257,0,0,1,.96,2.528V84.92q0,.56.464.576V87q-.256.048-.44.064t-.36.016a1.132,1.132,0,0,1-.792-.256,1.094,1.094,0,0,1-.344-.656l-.048-.528a3.731,3.731,0,0,1-1.384,1.128A4.063,4.063,0,0,1,120.768,87.16Zm.48-1.3a3.164,3.164,0,0,0,1.208-.232,2.083,2.083,0,0,0,.888-.648.812.812,0,0,0,.336-.608v-1.1a5.32,5.32,0,0,0-.952-.272,5.253,5.253,0,0,0-.984-.1,2.691,2.691,0,0,0-1.544.408,1.25,1.25,0,0,0-.6,1.08,1.363,1.363,0,0,0,.464,1.048A1.687,1.687,0,0,0,121.248,85.864Zm9.36,1.3a6.409,6.409,0,0,1-2.008-.328,5.092,5.092,0,0,1-1.72-.936l.7-1.12a6.5,6.5,0,0,0,1.488.824,4.2,4.2,0,0,0,1.5.28,2.21,2.21,0,0,0,1.24-.3.978.978,0,0,0,.456-.864.8.8,0,0,0-.512-.768,10.246,10.246,0,0,0-1.6-.528q-.784-.208-1.344-.4a3.459,3.459,0,0,1-.912-.448,1.573,1.573,0,0,1-.512-.592,1.887,1.887,0,0,1-.16-.816,2.507,2.507,0,0,1,.248-1.136,2.438,2.438,0,0,1,.688-.84,3.082,3.082,0,0,1,1.032-.52,4.473,4.473,0,0,1,1.28-.176,5.251,5.251,0,0,1,1.76.288,4.58,4.58,0,0,1,1.456.832l-.752,1.056a3.923,3.923,0,0,0-2.48-.928,2.119,2.119,0,0,0-1.128.28.965.965,0,0,0-.456.888.892.892,0,0,0,.1.432.815.815,0,0,0,.312.3,2.57,2.57,0,0,0,.56.232q.344.1.856.232.848.208,1.464.416a4.008,4.008,0,0,1,1.016.488,1.81,1.81,0,0,1,.592.656,1.967,1.967,0,0,1,.192.9,2.264,2.264,0,0,1-.9,1.9A3.929,3.929,0,0,1,130.608,87.16Zm4.9-.16V78.632h1.76V87Zm0-9.744V75.32h1.76v1.936Zm7.664,9.9a4.451,4.451,0,0,1-1.776-.344,4.133,4.133,0,0,1-1.368-.936,4.22,4.22,0,0,1-.88-1.376,4.458,4.458,0,0,1-.312-1.664,4.52,4.52,0,0,1,.312-1.672,4.291,4.291,0,0,1,.88-1.392,4.075,4.075,0,0,1,1.368-.944,4.493,4.493,0,0,1,1.792-.344,4.307,4.307,0,0,1,1.768.352,4.227,4.227,0,0,1,1.352.936,4,4,0,0,1,.856,1.36,4.518,4.518,0,0,1,.3,1.624q0,.192-.016.36t-.032.28h-6.7a2.865,2.865,0,0,0,.264,1.008,2.653,2.653,0,0,0,.56.776,2.459,2.459,0,0,0,1.7.68,2.8,2.8,0,0,0,.7-.088,2.454,2.454,0,0,0,.632-.256,2.24,2.24,0,0,0,.512-.408,1.9,1.9,0,0,0,.352-.528l1.5.432A3.487,3.487,0,0,1,145.5,86.56,4.437,4.437,0,0,1,143.168,87.16Zm2.544-4.976a2.814,2.814,0,0,0-.264-.976,2.513,2.513,0,0,0-.552-.76,2.463,2.463,0,0,0-.784-.488,2.559,2.559,0,0,0-.944-.176,2.5,2.5,0,0,0-1.712.664,2.406,2.406,0,0,0-.544.76,2.929,2.929,0,0,0-.256.976Zm7.888-2.032a3.936,3.936,0,0,0-1.816.472,2.487,2.487,0,0,0-1.128,1.256V87H148.9V78.632h1.632V80.5a3.827,3.827,0,0,1,1.128-1.384,2.736,2.736,0,0,1,1.5-.568h.264a.945.945,0,0,1,.184.016Zm8.608,7.008a4.347,4.347,0,0,1-1.784-.352,4.1,4.1,0,0,1-2.216-2.328,4.662,4.662,0,0,1,0-3.312,4.1,4.1,0,0,1,.872-1.384,4.258,4.258,0,0,1,1.36-.944,4.616,4.616,0,0,1,3.536,0,4.258,4.258,0,0,1,1.36.944,4.1,4.1,0,0,1,.872,1.384,4.662,4.662,0,0,1,0,3.312,4.1,4.1,0,0,1-.872,1.384,4.258,4.258,0,0,1-1.36.944A4.307,4.307,0,0,1,162.208,87.16Zm-2.5-4.32a3.166,3.166,0,0,0,.192,1.12,2.784,2.784,0,0,0,.528.888,2.47,2.47,0,0,0,.792.592,2.349,2.349,0,0,0,1.968,0,2.418,2.418,0,0,0,.792-.6,2.884,2.884,0,0,0,.528-.9,3.339,3.339,0,0,0,0-2.232,2.863,2.863,0,0,0-.528-.9,2.418,2.418,0,0,0-.792-.6,2.269,2.269,0,0,0-.984-.216,2.167,2.167,0,0,0-.968.224,2.517,2.517,0,0,0-.792.608,2.985,2.985,0,0,0-.536.9A3.071,3.071,0,0,0,159.712,82.84Zm13.072-2.688a3.936,3.936,0,0,0-1.816.472,2.487,2.487,0,0,0-1.128,1.256V87h-1.76V78.632h1.632V80.5a3.827,3.827,0,0,1,1.128-1.384,2.736,2.736,0,0,1,1.5-.568h.264a.945.945,0,0,1,.184.016ZM178.112,87V80.2h-1.12V78.84h1.12V78.5a3.8,3.8,0,0,1,.72-2.448,2.372,2.372,0,0,1,1.952-.9,3.8,3.8,0,0,1,1.008.136,4.528,4.528,0,0,1,.944.376l-.384,1.312a2.426,2.426,0,0,0-.568-.24,2.247,2.247,0,0,0-.632-.1,1.093,1.093,0,0,0-.952.464,2.315,2.315,0,0,0-.328,1.344v.384h2.144V80.2h-2.144V87Zm7.312.16a3.116,3.116,0,0,1-1.128-.2,2.726,2.726,0,0,1-.9-.552,2.574,2.574,0,0,1-.592-.832,2.5,2.5,0,0,1-.216-1.04,2.242,2.242,0,0,1,.256-1.072,2.506,2.506,0,0,1,.728-.832,3.534,3.534,0,0,1,1.12-.544,5.028,5.028,0,0,1,1.432-.192,6.56,6.56,0,0,1,1.168.1,5.882,5.882,0,0,1,1.04.28V81.7a1.94,1.94,0,0,0-.528-1.448,2.076,2.076,0,0,0-1.52-.52,3.665,3.665,0,0,0-1.32.248,6.678,6.678,0,0,0-1.336.712l-.544-1.12a5.933,5.933,0,0,1,3.36-1.088,3.832,3.832,0,0,1,2.688.88,3.257,3.257,0,0,1,.96,2.528V84.92q0,.56.464.576V87q-.256.048-.44.064t-.36.016a1.132,1.132,0,0,1-.792-.256,1.1,1.1,0,0,1-.344-.656l-.048-.528a3.731,3.731,0,0,1-1.384,1.128A4.063,4.063,0,0,1,185.424,87.16Zm.48-1.3a3.164,3.164,0,0,0,1.208-.232,2.083,2.083,0,0,0,.888-.648.812.812,0,0,0,.336-.608v-1.1a5.32,5.32,0,0,0-.952-.272,5.253,5.253,0,0,0-.984-.1,2.691,2.691,0,0,0-1.544.408,1.25,1.25,0,0,0-.6,1.08,1.363,1.363,0,0,0,.464,1.048A1.687,1.687,0,0,0,185.9,85.864Zm9.36,1.3a6.409,6.409,0,0,1-2.008-.328,5.092,5.092,0,0,1-1.72-.936l.7-1.12a6.5,6.5,0,0,0,1.488.824,4.2,4.2,0,0,0,1.5.28,2.21,2.21,0,0,0,1.24-.3.978.978,0,0,0,.456-.864.8.8,0,0,0-.512-.768,10.246,10.246,0,0,0-1.6-.528q-.784-.208-1.344-.4a3.459,3.459,0,0,1-.912-.448,1.573,1.573,0,0,1-.512-.592,1.887,1.887,0,0,1-.16-.816,2.507,2.507,0,0,1,.248-1.136,2.438,2.438,0,0,1,.688-.84,3.082,3.082,0,0,1,1.032-.52,4.473,4.473,0,0,1,1.28-.176,5.251,5.251,0,0,1,1.76.288,4.58,4.58,0,0,1,1.456.832l-.752,1.056a3.923,3.923,0,0,0-2.48-.928,2.119,2.119,0,0,0-1.128.28.965.965,0,0,0-.456.888.892.892,0,0,0,.1.432.815.815,0,0,0,.312.3,2.57,2.57,0,0,0,.56.232q.344.1.856.232.848.208,1.464.416a4.008,4.008,0,0,1,1.016.488,1.81,1.81,0,0,1,.592.656,1.967,1.967,0,0,1,.192.9,2.264,2.264,0,0,1-.9,1.9A3.929,3.929,0,0,1,195.264,87.16Zm9.552-.592a8.823,8.823,0,0,1-.928.36,3.923,3.923,0,0,1-1.264.2,2.679,2.679,0,0,1-.784-.112,1.921,1.921,0,0,1-.648-.336,1.526,1.526,0,0,1-.44-.584,2.14,2.14,0,0,1-.16-.872V79.992h-1.1v-1.36h1.1V75.88h1.76v2.752h1.824v1.36h-1.824v4.672a.869.869,0,0,0,.28.648.95.95,0,0,0,.616.2,1.961,1.961,0,0,0,.7-.128q.336-.128.5-.208Zm4.8.592a4.451,4.451,0,0,1-1.776-.344,4.133,4.133,0,0,1-1.368-.936,4.22,4.22,0,0,1-.88-1.376,4.458,4.458,0,0,1-.312-1.664,4.52,4.52,0,0,1,.312-1.672,4.291,4.291,0,0,1,.88-1.392,4.075,4.075,0,0,1,1.368-.944,4.493,4.493,0,0,1,1.792-.344,4.307,4.307,0,0,1,1.768.352,4.227,4.227,0,0,1,1.352.936,4,4,0,0,1,.856,1.36,4.518,4.518,0,0,1,.3,1.624q0,.192-.016.36t-.032.28h-6.7a2.865,2.865,0,0,0,.264,1.008,2.653,2.653,0,0,0,.56.776,2.459,2.459,0,0,0,1.7.68,2.8,2.8,0,0,0,.7-.088,2.454,2.454,0,0,0,.632-.256,2.24,2.24,0,0,0,.512-.408,1.9,1.9,0,0,0,.352-.528l1.5.432a3.487,3.487,0,0,1-1.432,1.544A4.437,4.437,0,0,1,209.616,87.16Zm2.544-4.976a2.814,2.814,0,0,0-.264-.976,2.513,2.513,0,0,0-.552-.76,2.463,2.463,0,0,0-.784-.488,2.559,2.559,0,0,0-.944-.176,2.5,2.5,0,0,0-1.712.664,2.406,2.406,0,0,0-.544.76,2.929,2.929,0,0,0-.256.976Zm7.888-2.032a3.936,3.936,0,0,0-1.816.472A2.487,2.487,0,0,0,217.1,81.88V87h-1.76V78.632h1.632V80.5A3.827,3.827,0,0,1,218.1,79.12a2.736,2.736,0,0,1,1.5-.568h.264a.945.945,0,0,1,.184.016ZM220.512,87V84.952h1.456V87Z" transform="translate(204 3178.942)" fill="#fff"/>
    <g id="integration" transform="translate(111.973 3055.951)">
      <g id="Group_85" data-name="Group 85" transform="translate(194.249 22.272)">
        <g id="Group_84" data-name="Group 84" transform="translate(0)">
          <path id="Path_801" data-name="Path 801" d="M241.361,160.049H226.916a1.111,1.111,0,0,0-1.111,1.111V165.6a1.111,1.111,0,0,0,1.111,1.111h3.333a2.222,2.222,0,1,1,0,4.445h-3.333a1.111,1.111,0,0,0-1.111,1.111v5.556H209.138a1.111,1.111,0,0,0-1.111,1.111v14.445a4.445,4.445,0,0,0,4.445,4.445h28.89a4.445,4.445,0,0,0,4.445-4.445V164.494A4.445,4.445,0,0,0,241.361,160.049Zm-15.556,35.556H212.472a2.222,2.222,0,0,1-2.222-2.222V180.049h15.556v2.222h-2.222a4.445,4.445,0,1,0,0,8.889h2.222Zm17.778-2.222a2.222,2.222,0,0,1-2.222,2.222H228.027V190.05a1.111,1.111,0,0,0-1.111-1.111h-3.333a2.222,2.222,0,1,1,0-4.445h3.333a1.111,1.111,0,0,0,1.111-1.111v-3.333h3.333v2.222a4.445,4.445,0,0,0,8.889,0v-2.222h3.333Zm0-15.556h-4.445a1.111,1.111,0,0,0-1.111,1.111v3.333a2.222,2.222,0,0,1-4.445,0v-3.333a1.111,1.111,0,0,0-1.111-1.111h-4.445v-4.445h2.222a4.445,4.445,0,1,0,0-8.889h-2.222v-2.222h13.334a2.222,2.222,0,0,1,2.222,2.222Z" transform="translate(-208.027 -160.049)" fill="#fff"/>
        </g>
      </g>
      <g id="Group_87" data-name="Group 87" transform="translate(192.027 0.049)">
        <g id="Group_86" data-name="Group 86" transform="translate(0 0)">
          <path id="Path_802" data-name="Path 802" d="M214.25,4.494h-2.222V1.16A1.111,1.111,0,0,0,210.916.049H196.472a4.445,4.445,0,0,0-4.445,4.445l.012,15.556h18.877a1.111,1.111,0,0,0,1.111-1.111V13.383h2.222a4.445,4.445,0,1,0,0-8.889Zm0,6.667h-3.333a1.111,1.111,0,0,0-1.111,1.111v5.556H199.3a4.152,4.152,0,0,0-5.055-1.931V4.494a2.222,2.222,0,0,1,2.222-2.222h13.334V5.6a1.111,1.111,0,0,0,1.111,1.111h3.333a2.222,2.222,0,1,1,0,4.445Z" transform="translate(-192.027 -0.049)" fill="#fff"/>
        </g>
      </g>
      <g id="Group_89" data-name="Group 89" transform="translate(194.575 26.716)">
        <g id="Group_88" data-name="Group 88">
          <path id="Path_803" data-name="Path 803" d="M225.927,194.6l-3.659,3.659v-6.207h-2.222v8.429l-1.111,1.111-1.111-1.111v-3.985H215.6v1.762l-3.659-3.659-1.571,1.571,7.778,7.778a1.111,1.111,0,0,0,1.571,0l7.778-7.778Z" transform="translate(-210.371 -192.049)" fill="#fff"/>
        </g>
      </g>
      <g id="Group_91" data-name="Group 91" transform="translate(199.805 26.716)">
        <g id="Group_90" data-name="Group 90" transform="translate(0)">
          <rect id="Rectangle_167" data-name="Rectangle 167" width="2.222" height="2.222" fill="#fff"/>
        </g>
      </g>
      <g id="Group_93" data-name="Group 93" transform="translate(199.805 22.272)">
        <g id="Group_92" data-name="Group 92" transform="translate(0)">
          <rect id="Rectangle_168" data-name="Rectangle 168" width="2.222" height="2.222" fill="#fff"/>
        </g>
      </g>
      <g id="Group_95" data-name="Group 95" transform="translate(204.249 22.272)">
        <g id="Group_94" data-name="Group 94" transform="translate(0)">
          <rect id="Rectangle_169" data-name="Rectangle 169" width="2.222" height="2.222" fill="#fff"/>
        </g>
      </g>
    </g>
  </g>
</svg>
