<svg xmlns="http://www.w3.org/2000/svg" xmlns:xlink="http://www.w3.org/1999/xlink" width="413" height="420" viewBox="0 0 413 420">
  <defs>
    <linearGradient id="linear-gradient" x1="-0.578" y1="-0.383" x2="1.105" y2="1.33" gradientUnits="objectBoundingBox">
      <stop offset="0" stop-color="#f905f5"/>
      <stop offset="1" stop-color="#4da1ff"/>
    </linearGradient>
    <filter id="Rectangle_2827" x="0" y="0" width="413" height="420" filterUnits="userSpaceOnUse">
      <feOffset dy="12" input="SourceAlpha"/>
      <feGaussianBlur stdDeviation="15" result="blur"/>
      <feFlood flood-opacity="0.161"/>
      <feComposite operator="in" in2="blur"/>
      <feComposite in="SourceGraphic"/>
    </filter>
  </defs>
  <g id="Group_1593" data-name="Group 1593" transform="translate(-835 -2974)">
    <g transform="matrix(1, 0, 0, 1, 835, 2974)" filter="url(#Rectangle_2827)">
      <rect id="Rectangle_2827-2" data-name="Rectangle 2827" width="323" height="330" rx="16" transform="translate(45 33)" opacity="0.8" fill="url(#linear-gradient)"/>
    </g>
    <text id="We_will_be_that_flexibility_layer_for_you._Tell_u_what_you_need_and_we_will_provide._" data-name="We will be that flexibility layer for you. Tell u what you need 
and we will provide. " transform="translate(921 3180.942)" fill="#fff" font-size="16" font-family="Raleway-Regular, Raleway"><tspan x="11.616" y="15">We will be that flexibility layer </tspan><tspan x="16.192" y="39">for you. Tell u what you need </tspan><tspan x="48.576" y="63">and we will provide. </tspan></text>
    <text id="Flexibilty" transform="translate(988 3160)" fill="#fff" font-size="24" font-family="Poppins-SemiBold, Poppins" font-weight="600"><tspan x="0" y="0">Flexibilty</tspan></text>
    <path id="hula-hoop" d="M44.935,15.58A23.1,23.1,0,1,0,15.568,44.923,23.1,23.1,0,1,0,44.935,15.58Zm.728,12.554a12.383,12.383,0,0,1,4.2,9.208A12.694,12.694,0,0,1,37.342,49.868a12.33,12.33,0,0,1-9.255-4.193A23.054,23.054,0,0,0,45.664,28.134ZM27.39,24.883l-2.5-2.5a19.344,19.344,0,0,1,9.6-4.331,12.515,12.515,0,0,1,.97,3.448,15.878,15.878,0,0,0-8.07,3.383Zm8.03.2A12.438,12.438,0,0,1,25.083,35.42,12.438,12.438,0,0,1,35.42,25.083ZM33.113,35.62l2.5,2.5a19.344,19.344,0,0,1-9.6,4.331A12.514,12.514,0,0,1,25.043,39,15.878,15.878,0,0,0,33.113,35.62ZM23.161,3.545A19.539,19.539,0,0,1,38.116,35.61l-2.5-2.5a15.875,15.875,0,0,0,3.494-9.952A16.061,16.061,0,0,0,23.161,7.09a15.873,15.873,0,0,0-9.948,3.5L10.671,8.046a19.527,19.527,0,0,1,12.49-4.5ZM3.545,23.161a19.527,19.527,0,0,1,4.61-12.618l2.538,2.538a15.841,15.841,0,0,0,3.624,23.352c-.012.3-.019.6-.019.907a23.366,23.366,0,0,0,.237,3.313A19.675,19.675,0,0,1,3.545,23.161Zm11.294,9.208a12.383,12.383,0,0,1-4.2-9.208A12.694,12.694,0,0,1,23.161,10.635a12.33,12.33,0,0,1,9.255,4.193A23.054,23.054,0,0,0,14.839,32.369Zm22.5,24.589A19.539,19.539,0,0,1,22.387,24.893l2.5,2.5a15.875,15.875,0,0,0-3.494,9.952A16.061,16.061,0,0,0,37.342,53.413a15.873,15.873,0,0,0,9.948-3.5l2.541,2.541a19.527,19.527,0,0,1-12.49,4.5Zm15.006-7L49.81,47.421a15.841,15.841,0,0,0-3.624-23.352c.012-.3.019-.6.019-.907a23.365,23.365,0,0,0-.237-3.313,19.475,19.475,0,0,1,6.38,30.111Z" transform="translate(1011.497 3055)" fill="#fff"/>
  </g>
</svg>
