<svg xmlns="http://www.w3.org/2000/svg" xmlns:xlink="http://www.w3.org/1999/xlink" width="413" height="420" viewBox="0 0 413 420">
  <defs>
    <linearGradient id="linear-gradient" x1="-0.578" y1="-0.383" x2="1.105" y2="1.33" gradientUnits="objectBoundingBox">
      <stop offset="0" stop-color="#f905f5"/>
      <stop offset="1" stop-color="#4da1ff"/>
    </linearGradient>
    <filter id="Rectangle_2827" x="0" y="0" width="413" height="420" filterUnits="userSpaceOnUse">
      <feOffset dy="12" input="SourceAlpha"/>
      <feGaussianBlur stdDeviation="15" result="blur"/>
      <feFlood flood-opacity="0.161"/>
      <feComposite operator="in" in2="blur"/>
      <feComposite in="SourceGraphic"/>
    </filter>
  </defs>
  <g id="Group_1594" data-name="Group 1594" transform="translate(-835 -2974)">
    <g transform="matrix(1, 0, 0, 1, 835, 2974)" filter="url(#Rectangle_2827)">
      <rect id="Rectangle_2827-2" data-name="Rectangle 2827" width="323" height="330" rx="16" transform="translate(45 33)" opacity="0.8" fill="url(#linear-gradient)"/>
    </g>
    <path id="Path_2602" data-name="Path 2602" d="M12.976,3.688h1.7l1.392,3.856,1.408-3.856h1.68L17.216,8.744l1.7,4.176,3.536-9.28h1.968L19.728,15H18.192L16.08,9.912,13.952,15H12.416L7.728,3.64H9.68l3.552,9.28,1.7-4.176ZM28.3,15.16a4.451,4.451,0,0,1-1.776-.344,4.133,4.133,0,0,1-1.368-.936,4.22,4.22,0,0,1-.88-1.376,4.459,4.459,0,0,1-.312-1.664,4.52,4.52,0,0,1,.312-1.672,4.291,4.291,0,0,1,.88-1.392,4.075,4.075,0,0,1,1.368-.944,4.493,4.493,0,0,1,1.792-.344,4.307,4.307,0,0,1,1.768.352,4.227,4.227,0,0,1,1.352.936,4,4,0,0,1,.856,1.36,4.518,4.518,0,0,1,.3,1.624q0,.192-.016.36t-.032.28h-6.7a2.865,2.865,0,0,0,.264,1.008,2.653,2.653,0,0,0,.56.776,2.459,2.459,0,0,0,1.7.68,2.8,2.8,0,0,0,.7-.088,2.454,2.454,0,0,0,.632-.256,2.24,2.24,0,0,0,.512-.408,1.9,1.9,0,0,0,.352-.528l1.5.432a3.487,3.487,0,0,1-1.432,1.544A4.437,4.437,0,0,1,28.3,15.16Zm2.544-4.976a2.814,2.814,0,0,0-.264-.976,2.513,2.513,0,0,0-.552-.76,2.463,2.463,0,0,0-.784-.488,2.558,2.558,0,0,0-.944-.176,2.5,2.5,0,0,0-1.712.664,2.406,2.406,0,0,0-.544.76,2.929,2.929,0,0,0-.256.976ZM47.984,6.632h1.68L46.144,15H44.688l-1.552-3.888L41.584,15H40.128L36.592,6.632h1.68l2.7,6.672,1.216-3.1L40.736,6.648h1.44l.96,2.624.944-2.624h1.44L44.08,10.2,45.3,13.3ZM50.832,15V6.632h1.76V15Zm0-9.744V3.32h1.76V5.256ZM54.72,3.32h1.76v9.264a1.042,1.042,0,0,0,.24.728.862.862,0,0,0,.672.264,1.561,1.561,0,0,0,.408-.064q.232-.064.44-.144l.256,1.376a4.1,4.1,0,0,1-.912.28,4.941,4.941,0,0,1-.944.1,1.933,1.933,0,0,1-1.416-.5,1.887,1.887,0,0,1-.5-1.408Zm4.816,0H61.3v9.264a1.042,1.042,0,0,0,.24.728.862.862,0,0,0,.672.264,1.561,1.561,0,0,0,.408-.064q.232-.064.44-.144l.256,1.376a4.1,4.1,0,0,1-.912.28,4.941,4.941,0,0,1-.944.1,1.933,1.933,0,0,1-1.416-.5,1.887,1.887,0,0,1-.5-1.408ZM72.3,15.16a3.375,3.375,0,0,1-2.96-1.68V15H67.792V3.32h1.76v4.9a3.852,3.852,0,0,1,1.24-1.264,3.469,3.469,0,0,1,3.272-.1,3.728,3.728,0,0,1,1.176.96A4.375,4.375,0,0,1,75.992,9.2a5.2,5.2,0,0,1,.264,1.656,4.606,4.606,0,0,1-.3,1.68A4.376,4.376,0,0,1,75.12,13.9a3.848,3.848,0,0,1-1.256.92A3.678,3.678,0,0,1,72.3,15.16Zm-.464-1.5a2.394,2.394,0,0,0,1.056-.232,2.63,2.63,0,0,0,.824-.616,2.823,2.823,0,0,0,.536-.888,2.963,2.963,0,0,0,.192-1.064,3.214,3.214,0,0,0-.184-1.08,2.928,2.928,0,0,0-.512-.912,2.577,2.577,0,0,0-.784-.632,2.114,2.114,0,0,0-1-.24,2.194,2.194,0,0,0-1.448.528,3.515,3.515,0,0,0-.968,1.28v2.208a1.74,1.74,0,0,0,.336.664,2.737,2.737,0,0,0,.56.52,2.6,2.6,0,0,0,.688.344A2.27,2.27,0,0,0,71.84,13.656Zm9.792,1.5a4.451,4.451,0,0,1-1.776-.344,4.133,4.133,0,0,1-1.368-.936,4.22,4.22,0,0,1-.88-1.376A4.458,4.458,0,0,1,77.3,10.84a4.52,4.52,0,0,1,.312-1.672,4.291,4.291,0,0,1,.88-1.392,4.075,4.075,0,0,1,1.368-.944,4.493,4.493,0,0,1,1.792-.344,4.307,4.307,0,0,1,1.768.352,4.227,4.227,0,0,1,1.352.936,4,4,0,0,1,.856,1.36,4.518,4.518,0,0,1,.3,1.624q0,.192-.016.36t-.032.28h-6.7a2.865,2.865,0,0,0,.264,1.008,2.653,2.653,0,0,0,.56.776,2.459,2.459,0,0,0,1.7.68,2.8,2.8,0,0,0,.7-.088,2.454,2.454,0,0,0,.632-.256,2.24,2.24,0,0,0,.512-.408,1.9,1.9,0,0,0,.352-.528l1.5.432A3.487,3.487,0,0,1,83.96,14.56,4.437,4.437,0,0,1,81.632,15.16Zm2.544-4.976a2.814,2.814,0,0,0-.264-.976,2.513,2.513,0,0,0-.552-.76,2.463,2.463,0,0,0-.784-.488,2.558,2.558,0,0,0-.944-.176,2.5,2.5,0,0,0-1.712.664,2.406,2.406,0,0,0-.544.76,2.929,2.929,0,0,0-.256.976Zm11.792,4.384a8.822,8.822,0,0,1-.928.36,3.923,3.923,0,0,1-1.264.2,2.679,2.679,0,0,1-.784-.112,1.921,1.921,0,0,1-.648-.336,1.526,1.526,0,0,1-.44-.584,2.14,2.14,0,0,1-.16-.872V7.992h-1.1V6.632h1.1V3.88H93.5V6.632h1.824v1.36H93.5v4.672a.869.869,0,0,0,.28.648.95.95,0,0,0,.616.2,1.961,1.961,0,0,0,.7-.128q.336-.128.5-.208Zm8.72.432h-1.76V10.312a2.875,2.875,0,0,0-.408-1.7,1.373,1.373,0,0,0-1.176-.552,2.007,2.007,0,0,0-.736.144,2.644,2.644,0,0,0-.7.408,3.105,3.105,0,0,0-.584.624,2.661,2.661,0,0,0-.384.792V15h-1.76V3.32h1.76V8.312a3.473,3.473,0,0,1,1.3-1.344,3.513,3.513,0,0,1,1.8-.48,2.633,2.633,0,0,1,1.288.28,2.261,2.261,0,0,1,.808.744,2.993,2.993,0,0,1,.424,1.08,6.812,6.812,0,0,1,.12,1.3Zm4.272.16a3.116,3.116,0,0,1-1.128-.2,2.727,2.727,0,0,1-.9-.552,2.574,2.574,0,0,1-.592-.832,2.5,2.5,0,0,1-.216-1.04,2.242,2.242,0,0,1,.256-1.072,2.505,2.505,0,0,1,.728-.832,3.534,3.534,0,0,1,1.12-.544,5.028,5.028,0,0,1,1.432-.192,6.56,6.56,0,0,1,1.168.1,5.882,5.882,0,0,1,1.04.28V9.7a1.94,1.94,0,0,0-.528-1.448,2.076,2.076,0,0,0-1.52-.52,3.665,3.665,0,0,0-1.32.248,6.678,6.678,0,0,0-1.336.712l-.544-1.12a5.933,5.933,0,0,1,3.36-1.088,3.832,3.832,0,0,1,2.688.88,3.257,3.257,0,0,1,.96,2.528V12.92q0,.56.464.576V15q-.256.048-.44.064t-.36.016a1.132,1.132,0,0,1-.792-.256,1.1,1.1,0,0,1-.344-.656l-.048-.528a3.731,3.731,0,0,1-1.384,1.128A4.063,4.063,0,0,1,108.96,15.16Zm.48-1.3a3.164,3.164,0,0,0,1.208-.232,2.083,2.083,0,0,0,.888-.648.812.812,0,0,0,.336-.608v-1.1A5.32,5.32,0,0,0,110.92,11a5.253,5.253,0,0,0-.984-.1,2.691,2.691,0,0,0-1.544.408,1.25,1.25,0,0,0-.6,1.08,1.363,1.363,0,0,0,.464,1.048A1.687,1.687,0,0,0,109.44,13.864Zm10.912.7a8.822,8.822,0,0,1-.928.36,3.923,3.923,0,0,1-1.264.2,2.679,2.679,0,0,1-.784-.112,1.921,1.921,0,0,1-.648-.336,1.526,1.526,0,0,1-.44-.584,2.14,2.14,0,0,1-.16-.872V7.992h-1.1V6.632h1.1V3.88h1.76V6.632h1.824v1.36h-1.824v4.672a.869.869,0,0,0,.28.648.95.95,0,0,0,.616.2,1.961,1.961,0,0,0,.7-.128q.336-.128.5-.208Zm14.24.192a.878.878,0,0,1-.176.072q-.16.056-.424.12t-.584.112a4.417,4.417,0,0,1-.656.048,1.961,1.961,0,0,1-1.424-.5,1.591,1.591,0,0,1-.512-1.184V6.424a2.874,2.874,0,0,0-.072-.648,1.65,1.65,0,0,0-.24-.56,1.234,1.234,0,0,0-.456-.4,1.57,1.57,0,0,0-.736-.152,1.279,1.279,0,0,0-1.168.552,2.79,2.79,0,0,0-.384,1.416V6.84H129.3V8.2H127.76V15H126V8.2h-1.12V6.84H126V6.36a3.179,3.179,0,0,1,.848-2.352,3.291,3.291,0,0,1,2.432-.848,4.609,4.609,0,0,1,1.456.208,2.748,2.748,0,0,1,1.032.592,2.4,2.4,0,0,1,.608.92,3.339,3.339,0,0,1,.2,1.176v6.528a1.191,1.191,0,0,0,.048.328,1,1,0,0,0,.152.312.819.819,0,0,0,.256.232.706.706,0,0,0,.36.088,1.552,1.552,0,0,0,.3-.032q.16-.032.3-.072t.232-.072l.1-.032Zm4.8.4a4.451,4.451,0,0,1-1.776-.344,4.134,4.134,0,0,1-1.368-.936,4.22,4.22,0,0,1-.88-1.376,4.458,4.458,0,0,1-.312-1.664,4.52,4.52,0,0,1,.312-1.672,4.291,4.291,0,0,1,.88-1.392,4.075,4.075,0,0,1,1.368-.944,4.493,4.493,0,0,1,1.792-.344,4.307,4.307,0,0,1,1.768.352,4.227,4.227,0,0,1,1.352.936,4,4,0,0,1,.856,1.36,4.518,4.518,0,0,1,.3,1.624q0,.192-.016.36t-.032.28h-6.7a2.865,2.865,0,0,0,.264,1.008,2.653,2.653,0,0,0,.56.776,2.459,2.459,0,0,0,1.7.68,2.8,2.8,0,0,0,.7-.088,2.454,2.454,0,0,0,.632-.256,2.24,2.24,0,0,0,.512-.408,1.9,1.9,0,0,0,.352-.528l1.5.432a3.487,3.487,0,0,1-1.432,1.544A4.437,4.437,0,0,1,139.392,15.16Zm2.544-4.976a2.814,2.814,0,0,0-.264-.976,2.513,2.513,0,0,0-.552-.76,2.463,2.463,0,0,0-.784-.488,2.558,2.558,0,0,0-.944-.176,2.5,2.5,0,0,0-1.712.664,2.406,2.406,0,0,0-.544.76,2.929,2.929,0,0,0-.256.976Zm3.808-3.552L147.792,9.5l.144.272.144-.272,2.032-2.864h1.84L148.9,10.824,151.984,15h-1.84l-2.064-2.848-.144-.256-.144.256L145.728,15h-1.84l3.088-4.176L143.92,6.632ZM153.168,15V6.632h1.76V15Zm0-9.744V3.32h1.76V5.256Zm8.384,9.9a3.375,3.375,0,0,1-2.96-1.68V15H157.04V3.32h1.76v4.9a3.852,3.852,0,0,1,1.24-1.264,3.469,3.469,0,0,1,3.272-.1,3.728,3.728,0,0,1,1.176.96A4.375,4.375,0,0,1,165.24,9.2a5.2,5.2,0,0,1,.264,1.656,4.606,4.606,0,0,1-.3,1.68,4.376,4.376,0,0,1-.832,1.368,3.848,3.848,0,0,1-1.256.92A3.678,3.678,0,0,1,161.552,15.16Zm-.464-1.5a2.394,2.394,0,0,0,1.056-.232,2.63,2.63,0,0,0,.824-.616,2.823,2.823,0,0,0,.536-.888,2.963,2.963,0,0,0,.192-1.064,3.214,3.214,0,0,0-.184-1.08A2.928,2.928,0,0,0,163,8.864a2.577,2.577,0,0,0-.784-.632,2.114,2.114,0,0,0-1-.24,2.194,2.194,0,0,0-1.448.528A3.515,3.515,0,0,0,158.8,9.8v2.208a1.74,1.74,0,0,0,.336.664,2.737,2.737,0,0,0,.56.52,2.6,2.6,0,0,0,.688.344A2.27,2.27,0,0,0,161.088,13.656Zm6,1.344V6.632h1.76V15Zm0-9.744V3.32h1.76V5.256Zm3.888-1.936h1.76v9.264a1.042,1.042,0,0,0,.24.728.862.862,0,0,0,.672.264,1.56,1.56,0,0,0,.408-.064q.232-.064.44-.144l.256,1.376a4.1,4.1,0,0,1-.912.28,4.941,4.941,0,0,1-.944.1,1.933,1.933,0,0,1-1.416-.5,1.887,1.887,0,0,1-.5-1.408Zm4.8,11.68V6.632h1.76V15Zm0-9.744V3.32h1.76V5.256Zm8.528,9.312a8.822,8.822,0,0,1-.928.36,3.923,3.923,0,0,1-1.264.2,2.679,2.679,0,0,1-.784-.112,1.92,1.92,0,0,1-.648-.336,1.526,1.526,0,0,1-.44-.584,2.14,2.14,0,0,1-.16-.872V7.992h-1.1V6.632h1.1V3.88h1.76V6.632h1.824v1.36H181.84v4.672a.869.869,0,0,0,.28.648.95.95,0,0,0,.616.2,1.961,1.961,0,0,0,.7-.128q.336-.128.5-.208Zm1.5,2.4q.24.048.472.08a2.877,2.877,0,0,0,.376.032.706.706,0,0,0,.36-.088,1.073,1.073,0,0,0,.312-.312,3.229,3.229,0,0,0,.328-.632q.168-.408.392-1.048l-3.44-8.368h1.808l2.592,6.816,2.3-6.816h1.664l-3.792,10.3a2.607,2.607,0,0,1-.888,1.208,2.581,2.581,0,0,1-1.624.488,3.492,3.492,0,0,1-.4-.024,2.557,2.557,0,0,1-.464-.1Zm12-13.648h1.76v9.264a1.042,1.042,0,0,0,.24.728.862.862,0,0,0,.672.264,1.561,1.561,0,0,0,.408-.064q.232-.064.44-.144l.256,1.376a4.1,4.1,0,0,1-.912.28,4.941,4.941,0,0,1-.944.1,1.933,1.933,0,0,1-1.416-.5,1.887,1.887,0,0,1-.5-1.408Zm7.024,11.84a3.116,3.116,0,0,1-1.128-.2,2.727,2.727,0,0,1-.9-.552,2.574,2.574,0,0,1-.592-.832,2.5,2.5,0,0,1-.216-1.04,2.242,2.242,0,0,1,.256-1.072,2.506,2.506,0,0,1,.728-.832,3.534,3.534,0,0,1,1.12-.544,5.028,5.028,0,0,1,1.432-.192,6.56,6.56,0,0,1,1.168.1,5.882,5.882,0,0,1,1.04.28V9.7a1.94,1.94,0,0,0-.528-1.448,2.076,2.076,0,0,0-1.52-.52,3.665,3.665,0,0,0-1.32.248,6.678,6.678,0,0,0-1.336.712l-.544-1.12a5.933,5.933,0,0,1,3.36-1.088,3.832,3.832,0,0,1,2.688.88A3.257,3.257,0,0,1,209.5,9.9V12.92q0,.56.464.576V15q-.256.048-.44.064t-.36.016a1.132,1.132,0,0,1-.792-.256,1.1,1.1,0,0,1-.344-.656l-.048-.528a3.732,3.732,0,0,1-1.384,1.128A4.063,4.063,0,0,1,204.832,15.16Zm.48-1.3a3.164,3.164,0,0,0,1.208-.232,2.083,2.083,0,0,0,.888-.648.812.812,0,0,0,.336-.608v-1.1a5.32,5.32,0,0,0-.952-.272,5.253,5.253,0,0,0-.984-.1,2.691,2.691,0,0,0-1.544.408,1.25,1.25,0,0,0-.6,1.08,1.363,1.363,0,0,0,.464,1.048A1.687,1.687,0,0,0,205.312,13.864Zm6.4,3.1q.24.048.472.08a2.877,2.877,0,0,0,.376.032.706.706,0,0,0,.36-.088,1.073,1.073,0,0,0,.312-.312,3.229,3.229,0,0,0,.328-.632q.168-.408.392-1.048l-3.44-8.368h1.808l2.592,6.816,2.3-6.816h1.664l-3.792,10.3a2.607,2.607,0,0,1-.888,1.208,2.581,2.581,0,0,1-1.624.488,3.492,3.492,0,0,1-.4-.024,2.557,2.557,0,0,1-.464-.1ZM223.68,15.16a4.451,4.451,0,0,1-1.776-.344,4.134,4.134,0,0,1-1.368-.936,4.22,4.22,0,0,1-.88-1.376,4.458,4.458,0,0,1-.312-1.664,4.52,4.52,0,0,1,.312-1.672,4.291,4.291,0,0,1,.88-1.392,4.075,4.075,0,0,1,1.368-.944,4.493,4.493,0,0,1,1.792-.344,4.307,4.307,0,0,1,1.768.352,4.227,4.227,0,0,1,1.352.936,4,4,0,0,1,.856,1.36,4.518,4.518,0,0,1,.3,1.624q0,.192-.016.36t-.032.28h-6.7a2.865,2.865,0,0,0,.264,1.008,2.653,2.653,0,0,0,.56.776,2.459,2.459,0,0,0,1.7.68,2.8,2.8,0,0,0,.7-.088,2.454,2.454,0,0,0,.632-.256,2.24,2.24,0,0,0,.512-.408,1.9,1.9,0,0,0,.352-.528l1.5.432a3.487,3.487,0,0,1-1.432,1.544A4.437,4.437,0,0,1,223.68,15.16Zm2.544-4.976a2.814,2.814,0,0,0-.264-.976,2.513,2.513,0,0,0-.552-.76,2.463,2.463,0,0,0-.784-.488,2.558,2.558,0,0,0-.944-.176,2.5,2.5,0,0,0-1.712.664,2.406,2.406,0,0,0-.544.76,2.929,2.929,0,0,0-.256.976Zm7.888-2.032a3.937,3.937,0,0,0-1.816.472,2.487,2.487,0,0,0-1.128,1.256V15h-1.76V6.632h1.632V8.5a3.827,3.827,0,0,1,1.128-1.384,2.736,2.736,0,0,1,1.5-.568h.264a.945.945,0,0,1,.184.016ZM15.328,39V32.2h-1.12V30.84h1.12V30.5a3.8,3.8,0,0,1,.72-2.448A2.372,2.372,0,0,1,18,27.16a3.8,3.8,0,0,1,1.008.136,4.528,4.528,0,0,1,.944.376l-.384,1.312a2.427,2.427,0,0,0-.568-.24,2.247,2.247,0,0,0-.632-.1,1.093,1.093,0,0,0-.952.464,2.315,2.315,0,0,0-.328,1.344v.384h2.144V32.2H17.088V39Zm8.56.16a4.348,4.348,0,0,1-1.784-.352,4.1,4.1,0,0,1-2.216-2.328,4.662,4.662,0,0,1,0-3.312,4.1,4.1,0,0,1,.872-1.384,4.258,4.258,0,0,1,1.36-.944,4.616,4.616,0,0,1,3.536,0,4.258,4.258,0,0,1,1.36.944,4.1,4.1,0,0,1,.872,1.384,4.662,4.662,0,0,1,0,3.312,4.1,4.1,0,0,1-.872,1.384,4.258,4.258,0,0,1-1.36.944A4.307,4.307,0,0,1,23.888,39.16Zm-2.5-4.32a3.166,3.166,0,0,0,.192,1.12,2.784,2.784,0,0,0,.528.888,2.469,2.469,0,0,0,.792.592,2.349,2.349,0,0,0,1.968,0,2.418,2.418,0,0,0,.792-.6,2.883,2.883,0,0,0,.528-.9,3.339,3.339,0,0,0,0-2.232,2.863,2.863,0,0,0-.528-.9,2.418,2.418,0,0,0-.792-.6,2.269,2.269,0,0,0-.984-.216,2.167,2.167,0,0,0-.968.224,2.518,2.518,0,0,0-.792.608,2.985,2.985,0,0,0-.536.9A3.071,3.071,0,0,0,21.392,34.84Zm13.072-2.688a3.936,3.936,0,0,0-1.816.472A2.487,2.487,0,0,0,31.52,33.88V39H29.76V30.632h1.632V32.5A3.827,3.827,0,0,1,32.52,31.12a2.736,2.736,0,0,1,1.5-.568h.264a.945.945,0,0,1,.184.016Zm4.688,8.816q.24.048.472.08A2.876,2.876,0,0,0,40,41.08a.706.706,0,0,0,.36-.088,1.073,1.073,0,0,0,.312-.312A3.229,3.229,0,0,0,41,40.048q.168-.408.392-1.048l-3.44-8.368H39.76l2.592,6.816,2.3-6.816H46.32l-3.792,10.3a2.607,2.607,0,0,1-.888,1.208,2.581,2.581,0,0,1-1.624.488,3.492,3.492,0,0,1-.4-.024,2.557,2.557,0,0,1-.464-.1ZM51.088,39.16a4.348,4.348,0,0,1-1.784-.352,4.1,4.1,0,0,1-2.216-2.328,4.662,4.662,0,0,1,0-3.312,4.1,4.1,0,0,1,.872-1.384,4.258,4.258,0,0,1,1.36-.944,4.616,4.616,0,0,1,3.536,0,4.258,4.258,0,0,1,1.36.944,4.1,4.1,0,0,1,.872,1.384,4.662,4.662,0,0,1,0,3.312,4.1,4.1,0,0,1-.872,1.384,4.258,4.258,0,0,1-1.36.944A4.307,4.307,0,0,1,51.088,39.16Zm-2.5-4.32a3.166,3.166,0,0,0,.192,1.12,2.784,2.784,0,0,0,.528.888,2.469,2.469,0,0,0,.792.592,2.349,2.349,0,0,0,1.968,0,2.418,2.418,0,0,0,.792-.6,2.883,2.883,0,0,0,.528-.9,3.339,3.339,0,0,0,0-2.232,2.863,2.863,0,0,0-.528-.9,2.418,2.418,0,0,0-.792-.6,2.269,2.269,0,0,0-.984-.216,2.167,2.167,0,0,0-.968.224,2.517,2.517,0,0,0-.792.608,2.985,2.985,0,0,0-.536.9A3.071,3.071,0,0,0,48.592,34.84Zm10.944,4.32a2.369,2.369,0,0,1-1.984-.856,4.083,4.083,0,0,1-.672-2.552v-5.12h1.76V35.4q0,2.256,1.6,2.256a2.464,2.464,0,0,0,1.424-.464,2.974,2.974,0,0,0,1.04-1.344V30.632h1.76V36.92a.694.694,0,0,0,.1.432.5.5,0,0,0,.376.144V39q-.272.048-.448.064t-.336.016a1.28,1.28,0,0,1-.816-.264.872.872,0,0,1-.352-.68L62.96,37.3A3.734,3.734,0,0,1,61.5,38.688,4.157,4.157,0,0,1,59.536,39.16ZM66.624,39V36.952H68.08V39Zm15.552-9.776H78.4V39H76.592V29.224H72.8V27.64h9.376ZM85.44,39.16a4.451,4.451,0,0,1-1.776-.344A4.134,4.134,0,0,1,82.3,37.88a4.22,4.22,0,0,1-.88-1.376A4.459,4.459,0,0,1,81.1,34.84a4.52,4.52,0,0,1,.312-1.672,4.291,4.291,0,0,1,.88-1.392,4.075,4.075,0,0,1,1.368-.944,4.493,4.493,0,0,1,1.792-.344,4.307,4.307,0,0,1,1.768.352,4.227,4.227,0,0,1,1.352.936,4,4,0,0,1,.856,1.36,4.518,4.518,0,0,1,.3,1.624q0,.192-.016.36t-.032.28h-6.7a2.865,2.865,0,0,0,.264,1.008,2.653,2.653,0,0,0,.56.776,2.459,2.459,0,0,0,1.7.68,2.8,2.8,0,0,0,.7-.088,2.454,2.454,0,0,0,.632-.256,2.24,2.24,0,0,0,.512-.408,1.9,1.9,0,0,0,.352-.528l1.5.432a3.487,3.487,0,0,1-1.432,1.544A4.437,4.437,0,0,1,85.44,39.16Zm2.544-4.976a2.814,2.814,0,0,0-.264-.976,2.513,2.513,0,0,0-.552-.76,2.463,2.463,0,0,0-.784-.488,2.558,2.558,0,0,0-.944-.176,2.5,2.5,0,0,0-1.712.664,2.406,2.406,0,0,0-.544.76,2.929,2.929,0,0,0-.256.976Zm3.2-6.864h1.76v9.264a1.042,1.042,0,0,0,.24.728.862.862,0,0,0,.672.264,1.561,1.561,0,0,0,.408-.064q.232-.064.44-.144l.256,1.376a4.1,4.1,0,0,1-.912.28,4.941,4.941,0,0,1-.944.1,1.933,1.933,0,0,1-1.416-.5,1.887,1.887,0,0,1-.5-1.408Zm4.816,0h1.76v9.264a1.042,1.042,0,0,0,.24.728.862.862,0,0,0,.672.264,1.561,1.561,0,0,0,.408-.064q.232-.064.44-.144l.256,1.376a4.1,4.1,0,0,1-.912.28,4.941,4.941,0,0,1-.944.1,1.933,1.933,0,0,1-1.416-.5,1.887,1.887,0,0,1-.5-1.408Zm10.832,11.84a2.369,2.369,0,0,1-1.984-.856,4.083,4.083,0,0,1-.672-2.552v-5.12h1.76V35.4q0,2.256,1.6,2.256a2.464,2.464,0,0,0,1.424-.464A2.974,2.974,0,0,0,110,35.848V30.632h1.76V36.92a.694.694,0,0,0,.1.432.5.5,0,0,0,.376.144V39q-.272.048-.448.064t-.336.016a1.28,1.28,0,0,1-.816-.264.872.872,0,0,1-.352-.68l-.032-.832a3.734,3.734,0,0,1-1.456,1.384A4.157,4.157,0,0,1,106.832,39.16Zm21.12-8.528h1.68L126.112,39h-1.456L123.1,35.112,121.552,39H120.1l-3.536-8.368h1.68l2.7,6.672,1.216-3.1L120.7,30.648h1.44l.96,2.624.944-2.624h1.44l-1.44,3.552,1.216,3.1ZM138.3,39h-1.76V34.312a2.875,2.875,0,0,0-.408-1.7,1.373,1.373,0,0,0-1.176-.552,2.007,2.007,0,0,0-.736.144,2.645,2.645,0,0,0-.7.408,3.1,3.1,0,0,0-.584.624,2.661,2.661,0,0,0-.384.792V39H130.8V27.32h1.76v4.992a3.473,3.473,0,0,1,1.3-1.344,3.513,3.513,0,0,1,1.8-.48,2.633,2.633,0,0,1,1.288.28,2.261,2.261,0,0,1,.808.744,2.993,2.993,0,0,1,.424,1.08,6.812,6.812,0,0,1,.12,1.3Zm4.272.16a3.116,3.116,0,0,1-1.128-.2,2.727,2.727,0,0,1-.9-.552,2.574,2.574,0,0,1-.592-.832,2.5,2.5,0,0,1-.216-1.04A2.242,2.242,0,0,1,140,35.464a2.506,2.506,0,0,1,.728-.832,3.534,3.534,0,0,1,1.12-.544,5.028,5.028,0,0,1,1.432-.192,6.561,6.561,0,0,1,1.168.1,5.883,5.883,0,0,1,1.04.28V33.7a1.94,1.94,0,0,0-.528-1.448,2.076,2.076,0,0,0-1.52-.52,3.665,3.665,0,0,0-1.32.248,6.678,6.678,0,0,0-1.336.712l-.544-1.12a5.933,5.933,0,0,1,3.36-1.088,3.832,3.832,0,0,1,2.688.88,3.257,3.257,0,0,1,.96,2.528V36.92q0,.56.464.576V39q-.256.048-.44.064t-.36.016a1.132,1.132,0,0,1-.792-.256,1.1,1.1,0,0,1-.344-.656l-.048-.528a3.732,3.732,0,0,1-1.384,1.128A4.063,4.063,0,0,1,142.576,39.16Zm.48-1.3a3.164,3.164,0,0,0,1.208-.232,2.083,2.083,0,0,0,.888-.648.812.812,0,0,0,.336-.608v-1.1a5.32,5.32,0,0,0-.952-.272,5.254,5.254,0,0,0-.984-.1,2.691,2.691,0,0,0-1.544.408,1.25,1.25,0,0,0-.6,1.08,1.363,1.363,0,0,0,.464,1.048A1.687,1.687,0,0,0,143.056,37.864Zm10.912.7a8.822,8.822,0,0,1-.928.36,3.923,3.923,0,0,1-1.264.2,2.679,2.679,0,0,1-.784-.112,1.92,1.92,0,0,1-.648-.336,1.526,1.526,0,0,1-.44-.584,2.14,2.14,0,0,1-.16-.872V31.992h-1.1v-1.36h1.1V27.88h1.76v2.752h1.824v1.36H151.5v4.672a.869.869,0,0,0,.28.648.95.95,0,0,0,.616.2,1.961,1.961,0,0,0,.7-.128q.336-.128.5-.208Zm5.008,2.4q.24.048.472.08a2.877,2.877,0,0,0,.376.032.706.706,0,0,0,.36-.088,1.073,1.073,0,0,0,.312-.312,3.229,3.229,0,0,0,.328-.632q.168-.408.392-1.048l-3.44-8.368h1.808l2.592,6.816,2.3-6.816h1.664l-3.792,10.3a2.607,2.607,0,0,1-.888,1.208,2.581,2.581,0,0,1-1.624.488,3.493,3.493,0,0,1-.4-.024,2.557,2.557,0,0,1-.464-.1Zm11.936-1.808a4.348,4.348,0,0,1-1.784-.352,4.1,4.1,0,0,1-2.216-2.328,4.662,4.662,0,0,1,0-3.312,4.1,4.1,0,0,1,.872-1.384,4.258,4.258,0,0,1,1.36-.944,4.616,4.616,0,0,1,3.536,0,4.258,4.258,0,0,1,1.36.944,4.1,4.1,0,0,1,.872,1.384,4.662,4.662,0,0,1,0,3.312,4.1,4.1,0,0,1-.872,1.384,4.258,4.258,0,0,1-1.36.944A4.307,4.307,0,0,1,170.912,39.16Zm-2.5-4.32a3.166,3.166,0,0,0,.192,1.12,2.784,2.784,0,0,0,.528.888,2.469,2.469,0,0,0,.792.592,2.349,2.349,0,0,0,1.968,0,2.418,2.418,0,0,0,.792-.6,2.884,2.884,0,0,0,.528-.9,3.339,3.339,0,0,0,0-2.232,2.863,2.863,0,0,0-.528-.9,2.418,2.418,0,0,0-.792-.6,2.269,2.269,0,0,0-.984-.216,2.167,2.167,0,0,0-.968.224,2.517,2.517,0,0,0-.792.608,2.985,2.985,0,0,0-.536.9A3.071,3.071,0,0,0,168.416,34.84Zm10.944,4.32a2.369,2.369,0,0,1-1.984-.856,4.083,4.083,0,0,1-.672-2.552v-5.12h1.76V35.4q0,2.256,1.6,2.256a2.464,2.464,0,0,0,1.424-.464,2.974,2.974,0,0,0,1.04-1.344V30.632h1.76V36.92a.694.694,0,0,0,.1.432.5.5,0,0,0,.376.144V39q-.272.048-.448.064t-.336.016a1.28,1.28,0,0,1-.816-.264.872.872,0,0,1-.352-.68l-.032-.832a3.734,3.734,0,0,1-1.456,1.384A4.157,4.157,0,0,1,179.36,39.16ZM197.984,39h-1.76V34.312a3.056,3.056,0,0,0-.376-1.72,1.271,1.271,0,0,0-1.112-.536,2.174,2.174,0,0,0-.768.144,2.69,2.69,0,0,0-.72.408,3.178,3.178,0,0,0-.6.624,2.86,2.86,0,0,0-.408.792V39h-1.76V30.632h1.6v1.68a3.4,3.4,0,0,1,1.392-1.336,4.2,4.2,0,0,1,2.016-.488,2.479,2.479,0,0,1,1.232.272,2.035,2.035,0,0,1,.76.744,3.255,3.255,0,0,1,.392,1.088,7.285,7.285,0,0,1,.112,1.3Zm5.84.16a4.451,4.451,0,0,1-1.776-.344,4.134,4.134,0,0,1-1.368-.936,4.22,4.22,0,0,1-.88-1.376,4.458,4.458,0,0,1-.312-1.664,4.52,4.52,0,0,1,.312-1.672,4.291,4.291,0,0,1,.88-1.392,4.075,4.075,0,0,1,1.368-.944,4.493,4.493,0,0,1,1.792-.344,4.307,4.307,0,0,1,1.768.352,4.227,4.227,0,0,1,1.352.936,4,4,0,0,1,.856,1.36,4.518,4.518,0,0,1,.3,1.624q0,.192-.016.36t-.032.28h-6.7a2.865,2.865,0,0,0,.264,1.008,2.653,2.653,0,0,0,.56.776,2.459,2.459,0,0,0,1.7.68,2.8,2.8,0,0,0,.7-.088,2.454,2.454,0,0,0,.632-.256,2.24,2.24,0,0,0,.512-.408,1.9,1.9,0,0,0,.352-.528l1.5.432a3.487,3.487,0,0,1-1.432,1.544A4.437,4.437,0,0,1,203.824,39.16Zm2.544-4.976a2.814,2.814,0,0,0-.264-.976,2.513,2.513,0,0,0-.552-.76,2.463,2.463,0,0,0-.784-.488,2.558,2.558,0,0,0-.944-.176,2.5,2.5,0,0,0-1.712.664,2.406,2.406,0,0,0-.544.76,2.929,2.929,0,0,0-.256.976Zm6.976,4.976a4.451,4.451,0,0,1-1.776-.344,4.134,4.134,0,0,1-1.368-.936,4.22,4.22,0,0,1-.88-1.376,4.458,4.458,0,0,1-.312-1.664,4.52,4.52,0,0,1,.312-1.672,4.291,4.291,0,0,1,.88-1.392,4.075,4.075,0,0,1,1.368-.944,4.493,4.493,0,0,1,1.792-.344,4.307,4.307,0,0,1,1.768.352,4.227,4.227,0,0,1,1.352.936,4,4,0,0,1,.856,1.36,4.518,4.518,0,0,1,.3,1.624q0,.192-.016.36t-.032.28h-6.7a2.865,2.865,0,0,0,.264,1.008,2.653,2.653,0,0,0,.56.776,2.459,2.459,0,0,0,1.7.68,2.8,2.8,0,0,0,.7-.088,2.454,2.454,0,0,0,.632-.256,2.24,2.24,0,0,0,.512-.408,1.9,1.9,0,0,0,.352-.528l1.5.432a3.487,3.487,0,0,1-1.432,1.544A4.437,4.437,0,0,1,213.344,39.16Zm2.544-4.976a2.814,2.814,0,0,0-.264-.976,2.513,2.513,0,0,0-.552-.76,2.463,2.463,0,0,0-.784-.488,2.558,2.558,0,0,0-.944-.176,2.5,2.5,0,0,0-1.712.664,2.406,2.406,0,0,0-.544.76,2.929,2.929,0,0,0-.256.976Zm6.592,4.976a3.59,3.59,0,0,1-1.568-.344,3.919,3.919,0,0,1-1.248-.936,4.337,4.337,0,0,1-.824-1.384,5.045,5.045,0,0,1-.016-3.36,4.383,4.383,0,0,1,.784-1.368,3.788,3.788,0,0,1,1.184-.936,3.453,3.453,0,0,1,3.272.144,3.555,3.555,0,0,1,1.2,1.24v-4.9h1.76v9.6a.694.694,0,0,0,.1.432.5.5,0,0,0,.376.144V39q-.272.048-.44.064t-.28.016a1.33,1.33,0,0,1-.864-.272.961.961,0,0,1-.368-.7l-.032-.624a3.338,3.338,0,0,1-1.264,1.232A3.572,3.572,0,0,1,222.48,39.16Zm.432-1.5a2.416,2.416,0,0,0,.768-.128,2.72,2.72,0,0,0,.7-.352,2.474,2.474,0,0,0,.552-.528,1.9,1.9,0,0,0,.328-.656V33.8a2.62,2.62,0,0,0-.408-.736,2.918,2.918,0,0,0-.6-.576,2.74,2.74,0,0,0-.712-.368,2.344,2.344,0,0,0-.76-.128,1.988,1.988,0,0,0-.968.24,2.5,2.5,0,0,0-.76.64,3.155,3.155,0,0,0-.5.912,3.1,3.1,0,0,0-.184,1.056,2.963,2.963,0,0,0,.2,1.088,2.841,2.841,0,0,0,.552.9,2.709,2.709,0,0,0,.808.608A2.2,2.2,0,0,0,222.912,37.656ZM49.7,63.16a3.116,3.116,0,0,1-1.128-.2,2.727,2.727,0,0,1-.9-.552,2.574,2.574,0,0,1-.592-.832,2.5,2.5,0,0,1-.216-1.04,2.242,2.242,0,0,1,.256-1.072,2.505,2.505,0,0,1,.728-.832,3.534,3.534,0,0,1,1.12-.544A5.028,5.028,0,0,1,50.4,57.9a6.56,6.56,0,0,1,1.168.1,5.882,5.882,0,0,1,1.04.28V57.7a1.94,1.94,0,0,0-.528-1.448,2.076,2.076,0,0,0-1.52-.52,3.665,3.665,0,0,0-1.32.248A6.678,6.678,0,0,0,47.9,56.7l-.544-1.12a5.933,5.933,0,0,1,3.36-1.088,3.832,3.832,0,0,1,2.688.88,3.257,3.257,0,0,1,.96,2.528V60.92q0,.56.464.576V63q-.256.048-.44.064t-.36.016a1.132,1.132,0,0,1-.792-.256,1.1,1.1,0,0,1-.344-.656l-.048-.528a3.731,3.731,0,0,1-1.384,1.128A4.063,4.063,0,0,1,49.7,63.16Zm.48-1.3a3.164,3.164,0,0,0,1.208-.232,2.083,2.083,0,0,0,.888-.648.812.812,0,0,0,.336-.608v-1.1A5.32,5.32,0,0,0,51.656,59a5.253,5.253,0,0,0-.984-.1,2.691,2.691,0,0,0-1.544.408,1.25,1.25,0,0,0-.6,1.08,1.363,1.363,0,0,0,.464,1.048A1.687,1.687,0,0,0,50.176,61.864ZM64,63H62.24V58.312a3.056,3.056,0,0,0-.376-1.72,1.271,1.271,0,0,0-1.112-.536,2.174,2.174,0,0,0-.768.144,2.69,2.69,0,0,0-.72.408,3.178,3.178,0,0,0-.6.624,2.859,2.859,0,0,0-.408.792V63H56.5V54.632h1.6v1.68a3.4,3.4,0,0,1,1.392-1.336,4.2,4.2,0,0,1,2.016-.488,2.479,2.479,0,0,1,1.232.272,2.035,2.035,0,0,1,.76.744,3.255,3.255,0,0,1,.392,1.088A7.284,7.284,0,0,1,64,57.9Zm5.456.16a3.59,3.59,0,0,1-1.568-.344,3.919,3.919,0,0,1-1.248-.936,4.337,4.337,0,0,1-.824-1.384,5.045,5.045,0,0,1-.016-3.36,4.383,4.383,0,0,1,.784-1.368,3.788,3.788,0,0,1,1.184-.936,3.453,3.453,0,0,1,3.272.144,3.555,3.555,0,0,1,1.2,1.24v-4.9H74v9.6a.694.694,0,0,0,.1.432.5.5,0,0,0,.376.144V63q-.272.048-.44.064t-.28.016a1.33,1.33,0,0,1-.864-.272.961.961,0,0,1-.368-.7L72.5,61.48a3.338,3.338,0,0,1-1.264,1.232A3.572,3.572,0,0,1,69.456,63.16Zm.432-1.5a2.416,2.416,0,0,0,.768-.128,2.72,2.72,0,0,0,.7-.352,2.474,2.474,0,0,0,.552-.528,1.9,1.9,0,0,0,.328-.656V57.8a2.621,2.621,0,0,0-.408-.736,2.918,2.918,0,0,0-.6-.576,2.74,2.74,0,0,0-.712-.368,2.344,2.344,0,0,0-.76-.128,1.988,1.988,0,0,0-.968.24,2.5,2.5,0,0,0-.76.64,3.155,3.155,0,0,0-.5.912,3.1,3.1,0,0,0-.184,1.056,2.963,2.963,0,0,0,.2,1.088,2.841,2.841,0,0,0,.552.9,2.709,2.709,0,0,0,.808.608A2.2,2.2,0,0,0,69.888,61.656Zm20.3-7.024h1.68L88.352,63H86.9l-1.552-3.888L83.792,63H82.336L78.8,54.632h1.68l2.7,6.672L84.4,58.2l-1.456-3.552h1.44l.96,2.624.944-2.624h1.44L86.288,58.2,87.5,61.3Zm6.336,8.528a4.451,4.451,0,0,1-1.776-.344,4.134,4.134,0,0,1-1.368-.936A4.22,4.22,0,0,1,92.5,60.5a4.459,4.459,0,0,1-.312-1.664,4.52,4.52,0,0,1,.312-1.672,4.291,4.291,0,0,1,.88-1.392,4.075,4.075,0,0,1,1.368-.944,4.493,4.493,0,0,1,1.792-.344,4.307,4.307,0,0,1,1.768.352,4.227,4.227,0,0,1,1.352.936,4,4,0,0,1,.856,1.36,4.518,4.518,0,0,1,.3,1.624q0,.192-.016.36t-.032.28h-6.7a2.865,2.865,0,0,0,.264,1.008,2.653,2.653,0,0,0,.56.776,2.459,2.459,0,0,0,1.7.68,2.8,2.8,0,0,0,.7-.088,2.454,2.454,0,0,0,.632-.256,2.24,2.24,0,0,0,.512-.408,1.9,1.9,0,0,0,.352-.528l1.5.432a3.487,3.487,0,0,1-1.432,1.544A4.437,4.437,0,0,1,96.528,63.16Zm2.544-4.976a2.814,2.814,0,0,0-.264-.976,2.513,2.513,0,0,0-.552-.76,2.463,2.463,0,0,0-.784-.488,2.558,2.558,0,0,0-.944-.176,2.5,2.5,0,0,0-1.712.664,2.406,2.406,0,0,0-.544.76,2.929,2.929,0,0,0-.256.976Zm17.136-3.552h1.68L114.368,63h-1.456l-1.552-3.888L109.808,63h-1.456l-3.536-8.368h1.68l2.7,6.672,1.216-3.1-1.456-3.552h1.44l.96,2.624.944-2.624h1.44L112.3,58.2l1.216,3.1ZM119.056,63V54.632h1.76V63Zm0-9.744V51.32h1.76v1.936Zm3.888-1.936h1.76v9.264a1.042,1.042,0,0,0,.24.728.862.862,0,0,0,.672.264,1.561,1.561,0,0,0,.408-.064q.232-.064.44-.144l.256,1.376a4.1,4.1,0,0,1-.912.28,4.941,4.941,0,0,1-.944.1,1.933,1.933,0,0,1-1.416-.5,1.887,1.887,0,0,1-.5-1.408Zm4.816,0h1.76v9.264a1.042,1.042,0,0,0,.24.728.862.862,0,0,0,.672.264,1.56,1.56,0,0,0,.408-.064q.232-.064.44-.144l.256,1.376a4.1,4.1,0,0,1-.912.28,4.941,4.941,0,0,1-.944.1,1.933,1.933,0,0,1-1.416-.5,1.887,1.887,0,0,1-.5-1.408Zm13.008,11.84a3.281,3.281,0,0,1-1.776-.48,3.583,3.583,0,0,1-1.216-1.248v4.976h-1.76V54.632h1.552v1.5a3.655,3.655,0,0,1,1.24-1.2,3.323,3.323,0,0,1,1.72-.448,3.557,3.557,0,0,1,1.584.352,4.023,4.023,0,0,1,1.248.944,4.357,4.357,0,0,1,.824,1.376,4.626,4.626,0,0,1,.3,1.648,5.212,5.212,0,0,1-.272,1.7,4.216,4.216,0,0,1-.768,1.376,3.749,3.749,0,0,1-1.176.928A3.266,3.266,0,0,1,140.768,63.16Zm-.576-1.5a2.148,2.148,0,0,0,1.016-.24,2.525,2.525,0,0,0,.784-.64,2.923,2.923,0,0,0,.5-.912,3.226,3.226,0,0,0,.176-1.056,2.963,2.963,0,0,0-.2-1.088,2.922,2.922,0,0,0-.544-.9,2.529,2.529,0,0,0-.824-.608,2.429,2.429,0,0,0-1.04-.224,2.142,2.142,0,0,0-.7.128,2.8,2.8,0,0,0-.688.352,2.737,2.737,0,0,0-.56.52,1.753,1.753,0,0,0-.336.648v2.192a3.24,3.24,0,0,0,.416.72,3.063,3.063,0,0,0,.568.576,2.758,2.758,0,0,0,.68.384A2.047,2.047,0,0,0,140.192,61.656Zm10.576-5.5a3.936,3.936,0,0,0-1.816.472,2.487,2.487,0,0,0-1.128,1.256V63h-1.76V54.632H147.7V56.5a3.827,3.827,0,0,1,1.128-1.384,2.736,2.736,0,0,1,1.5-.568h.264a.945.945,0,0,1,.184.016Zm4.624,7.008a4.348,4.348,0,0,1-1.784-.352,4.1,4.1,0,0,1-2.216-2.328,4.662,4.662,0,0,1,0-3.312,4.1,4.1,0,0,1,.872-1.384,4.258,4.258,0,0,1,1.36-.944,4.616,4.616,0,0,1,3.536,0,4.258,4.258,0,0,1,1.36.944,4.1,4.1,0,0,1,.872,1.384,4.662,4.662,0,0,1,0,3.312,4.1,4.1,0,0,1-.872,1.384,4.258,4.258,0,0,1-1.36.944A4.307,4.307,0,0,1,155.392,63.16Zm-2.5-4.32a3.166,3.166,0,0,0,.192,1.12,2.784,2.784,0,0,0,.528.888,2.469,2.469,0,0,0,.792.592,2.349,2.349,0,0,0,1.968,0,2.418,2.418,0,0,0,.792-.6,2.884,2.884,0,0,0,.528-.9,3.339,3.339,0,0,0,0-2.232,2.863,2.863,0,0,0-.528-.9,2.418,2.418,0,0,0-.792-.6,2.269,2.269,0,0,0-.984-.216,2.167,2.167,0,0,0-.968.224,2.517,2.517,0,0,0-.792.608,2.985,2.985,0,0,0-.536.9A3.071,3.071,0,0,0,152.9,58.84ZM163.312,63l-3.2-8.368h1.808l2.4,6.88,2.416-6.88H168.4L165.2,63Zm6.336,0V54.632h1.76V63Zm0-9.744V51.32h1.76v1.936Zm7.28,9.9a3.59,3.59,0,0,1-1.568-.344,3.919,3.919,0,0,1-1.248-.936,4.337,4.337,0,0,1-.824-1.384,5.045,5.045,0,0,1-.016-3.36,4.383,4.383,0,0,1,.784-1.368,3.788,3.788,0,0,1,1.184-.936,3.453,3.453,0,0,1,3.272.144,3.555,3.555,0,0,1,1.2,1.24v-4.9h1.76v9.6a.694.694,0,0,0,.1.432.5.5,0,0,0,.376.144V63q-.272.048-.44.064t-.28.016a1.33,1.33,0,0,1-.864-.272.961.961,0,0,1-.368-.7l-.032-.624a3.338,3.338,0,0,1-1.264,1.232A3.572,3.572,0,0,1,176.928,63.16Zm.432-1.5a2.416,2.416,0,0,0,.768-.128,2.72,2.72,0,0,0,.7-.352,2.474,2.474,0,0,0,.552-.528,1.9,1.9,0,0,0,.328-.656V57.8a2.62,2.62,0,0,0-.408-.736,2.918,2.918,0,0,0-.6-.576,2.74,2.74,0,0,0-.712-.368,2.344,2.344,0,0,0-.76-.128,1.988,1.988,0,0,0-.968.24,2.5,2.5,0,0,0-.76.64,3.155,3.155,0,0,0-.5.912,3.1,3.1,0,0,0-.184,1.056,2.963,2.963,0,0,0,.2,1.088,2.841,2.841,0,0,0,.552.9,2.709,2.709,0,0,0,.808.608A2.2,2.2,0,0,0,177.36,61.656Zm10.144,1.5a4.451,4.451,0,0,1-1.776-.344,4.134,4.134,0,0,1-1.368-.936,4.22,4.22,0,0,1-.88-1.376,4.458,4.458,0,0,1-.312-1.664,4.52,4.52,0,0,1,.312-1.672,4.291,4.291,0,0,1,.88-1.392,4.075,4.075,0,0,1,1.368-.944,4.493,4.493,0,0,1,1.792-.344,4.307,4.307,0,0,1,1.768.352,4.227,4.227,0,0,1,1.352.936,4,4,0,0,1,.856,1.36,4.518,4.518,0,0,1,.3,1.624q0,.192-.016.36t-.032.28h-6.7a2.865,2.865,0,0,0,.264,1.008,2.653,2.653,0,0,0,.56.776,2.459,2.459,0,0,0,1.7.68,2.8,2.8,0,0,0,.7-.088,2.454,2.454,0,0,0,.632-.256,2.24,2.24,0,0,0,.512-.408,1.9,1.9,0,0,0,.352-.528l1.5.432a3.487,3.487,0,0,1-1.432,1.544A4.437,4.437,0,0,1,187.5,63.16Zm2.544-4.976a2.814,2.814,0,0,0-.264-.976,2.513,2.513,0,0,0-.552-.76,2.463,2.463,0,0,0-.784-.488,2.558,2.558,0,0,0-.944-.176,2.5,2.5,0,0,0-1.712.664,2.406,2.406,0,0,0-.544.76,2.929,2.929,0,0,0-.256.976Zm3.1,4.816V60.952h1.456V63Z" transform="translate(921 3180.942)" fill="#fff"/>
    <path id="Path_2605" data-name="Path 2605" d="M1.656,0h3.36V-7.08h5.352V-9.744H5.016v-4.3H12v-2.712H1.656Zm12.72,0h3.36V-17.76h-3.36ZM26.76-10.752A2.954,2.954,0,0,1,29.928-7.9H23.616A3.088,3.088,0,0,1,26.76-10.752Zm6.312,6.576H29.448a2.74,2.74,0,0,1-2.664,1.608A3.111,3.111,0,0,1,23.592-5.64h9.72a7.853,7.853,0,0,0,.1-1.3,6.242,6.242,0,0,0-6.552-6.576c-3.936,0-6.672,2.664-6.672,6.864,0,4.176,2.808,6.864,6.672,6.864A6.18,6.18,0,0,0,33.072-4.176ZM43.2,0h3.792L42.576-6.672,46.944-13.3h-3.6L40.9-9.192l-2.712-4.1H34.392l4.392,6.624L34.44,0h3.6l2.424-4.128Zm5.616,0h3.36V-13.3h-3.36Zm1.7-14.88a1.985,1.985,0,0,0,2.064-1.968,1.985,1.985,0,0,0-2.064-1.968,1.97,1.97,0,0,0-2.064,1.968A1.97,1.97,0,0,0,50.52-14.88Zm8.328,3.528V-17.76h-3.36V0h3.36V-1.9A5.235,5.235,0,0,0,63.24.216c3.408,0,6.072-2.76,6.072-6.912s-2.664-6.816-6.072-6.816A5.181,5.181,0,0,0,58.848-11.352ZM65.88-6.7a3.637,3.637,0,0,1-3.528,3.96,3.589,3.589,0,0,1-3.5-3.912,3.589,3.589,0,0,1,3.5-3.912A3.55,3.55,0,0,1,65.88-6.7ZM71.76,0h3.36V-13.3H71.76Zm1.7-14.88a1.985,1.985,0,0,0,2.064-1.968,1.985,1.985,0,0,0-2.064-1.968A1.97,1.97,0,0,0,71.4-16.848,1.97,1.97,0,0,0,73.464-14.88ZM78.432,0h3.36V-17.76h-3.36Zm7.2-4.128C85.632-1.08,87.336,0,89.88,0h2.112V-2.832h-1.56c-1.056,0-1.416-.384-1.416-1.272v-6.432h2.976V-13.3H89.016v-3.288H85.632V-13.3H84.048v2.76h1.584Zm14.448.12L96.648-13.3H92.88L98.208-.336l-2.88,6.624H98.9L107.136-13.3H103.56Z" transform="translate(988 3160)" fill="#fff"/>
    <path id="hula-hoop" d="M44.935,15.58A23.1,23.1,0,1,0,15.568,44.923,23.1,23.1,0,1,0,44.935,15.58Zm.728,12.554a12.383,12.383,0,0,1,4.2,9.208A12.694,12.694,0,0,1,37.342,49.868a12.33,12.33,0,0,1-9.255-4.193A23.054,23.054,0,0,0,45.664,28.134ZM27.39,24.883l-2.5-2.5a19.344,19.344,0,0,1,9.6-4.331,12.515,12.515,0,0,1,.97,3.448,15.878,15.878,0,0,0-8.07,3.383Zm8.03.2A12.438,12.438,0,0,1,25.083,35.42,12.438,12.438,0,0,1,35.42,25.083ZM33.113,35.62l2.5,2.5a19.344,19.344,0,0,1-9.6,4.331A12.514,12.514,0,0,1,25.043,39,15.878,15.878,0,0,0,33.113,35.62ZM23.161,3.545A19.539,19.539,0,0,1,38.116,35.61l-2.5-2.5a15.875,15.875,0,0,0,3.494-9.952A16.061,16.061,0,0,0,23.161,7.09a15.873,15.873,0,0,0-9.948,3.5L10.671,8.046a19.527,19.527,0,0,1,12.49-4.5ZM3.545,23.161a19.527,19.527,0,0,1,4.61-12.618l2.538,2.538a15.841,15.841,0,0,0,3.624,23.352c-.012.3-.019.6-.019.907a23.366,23.366,0,0,0,.237,3.313A19.675,19.675,0,0,1,3.545,23.161Zm11.294,9.208a12.383,12.383,0,0,1-4.2-9.208A12.694,12.694,0,0,1,23.161,10.635a12.33,12.33,0,0,1,9.255,4.193A23.054,23.054,0,0,0,14.839,32.369Zm22.5,24.589A19.539,19.539,0,0,1,22.387,24.893l2.5,2.5a15.875,15.875,0,0,0-3.494,9.952A16.061,16.061,0,0,0,37.342,53.413a15.873,15.873,0,0,0,9.948-3.5l2.541,2.541a19.527,19.527,0,0,1-12.49,4.5Zm15.006-7L49.81,47.421a15.841,15.841,0,0,0-3.624-23.352c.012-.3.019-.6.019-.907a23.365,23.365,0,0,0-.237-3.313,19.475,19.475,0,0,1,6.38,30.111Z" transform="translate(1011.497 3055)" fill="#fff"/>
  </g>
</svg>
