<svg xmlns="http://www.w3.org/2000/svg" xmlns:xlink="http://www.w3.org/1999/xlink" width="1366.001" height="772.55" viewBox="0 0 1366.001 772.55">
  <defs>
    <linearGradient id="linear-gradient" x1="-0.018" x2="1.099" y2="1.141" gradientUnits="objectBoundingBox">
      <stop offset="0" stop-color="#53f"/>
      <stop offset="0.669" stop-color="#05d5ff"/>
      <stop offset="1" stop-color="#a6ffcb"/>
    </linearGradient>
  </defs>
  <path id="Subtraction_65" data-name="Subtraction 65" d="M-1663.223,801.55a92.562,92.562,0,0,1-18.14-1.794,92.021,92.021,0,0,1-17.015-5.161,93.5,93.5,0,0,1-15.534-8.2,94.644,94.644,0,0,1-13.689-10.918,95.338,95.338,0,0,1-11.488-13.3,95.455,95.455,0,0,1-8.93-15.359,95.791,95.791,0,0,1-6.011-17.086,97.376,97.376,0,0,1-2.733-18.487L-1758,687.034V29.147l.094-.089.061-.058H-392V682.466a96.469,96.469,0,0,1-4.75,9.1,96.154,96.154,0,0,1-10.722,14.7,95.093,95.093,0,0,1-13.275,12.37,93.629,93.629,0,0,1-15.468,9.635,92.434,92.434,0,0,1-17.306,6.493A93.365,93.365,0,0,1-472.3,737.71l-1185.883,63.7C-1659.873,801.5-1661.567,801.55-1663.223,801.55Z" transform="translate(1758.001 -29)" fill="url(#linear-gradient)"/>
</svg>
