<svg xmlns="http://www.w3.org/2000/svg" xmlns:xlink="http://www.w3.org/1999/xlink" width="376" height="433.458" viewBox="0 0 376 433.458">
  <defs>
    <linearGradient id="linear-gradient" x2="1.161" y2="1.062" gradientUnits="objectBoundingBox">
      <stop offset="0" stop-color="#53f"/>
      <stop offset="0.718" stop-color="#05d5ff"/>
      <stop offset="1" stop-color="#a6ffcb"/>
    </linearGradient>
  </defs>
  <g id="Group_1947" data-name="Group 1947" transform="translate(1 0)">
    <path id="Subtraction_57" data-name="Subtraction 57" d="M-6848.912-493a13.224,13.224,0,0,1-4.993-1,17.747,17.747,0,0,1-4.684-2.878,27.554,27.554,0,0,1-4.275-4.575,42.009,42.009,0,0,1-3.768-6.089,59.8,59.8,0,0,1-3.163-7.418,78.188,78.188,0,0,1-2.458-8.566,94.858,94.858,0,0,1-1.655-9.529c-.412-3.354-.665-6.822-.752-10.31l-.341-13.5V-923.784c.4-.768.814-1.514,1.231-2.216H-6499v366.584c-.39,1.733-.83,3.439-1.308,5.072a68.692,68.692,0,0,1-2.951,8.2,49.292,49.292,0,0,1-3.654,6.9,32.45,32.45,0,0,1-4.258,5.373,20.448,20.448,0,0,1-4.763,3.621,14.215,14.215,0,0,1-5.17,1.644l-326.422,35.528A12.835,12.835,0,0,1-6848.912-493Z" transform="translate(6874 926.459)" fill="url(#linear-gradient)"/>
    <path id="Subtraction_64" data-name="Subtraction 64" d="M-3762,507.772h0c-10.486-5.891-20.844-12.284-30.786-19a443.813,443.813,0,0,1-65.192-53.79A444.816,444.816,0,0,1-3900.274,386H-3762Z" transform="translate(4137 -386)" fill="rgba(255,255,255,0.31)"/>
  </g>
</svg>
