<svg xmlns="http://www.w3.org/2000/svg" xmlns:xlink="http://www.w3.org/1999/xlink" width="413" height="420" viewBox="0 0 413 420">
  <defs>
    <linearGradient id="linear-gradient" x1="-0.578" y1="-0.383" x2="1.105" y2="1.33" gradientUnits="objectBoundingBox">
      <stop offset="0" stop-color="#f905f5"/>
      <stop offset="1" stop-color="#4da1ff"/>
    </linearGradient>
    <filter id="Rectangle_2829" x="0" y="0" width="413" height="420" filterUnits="userSpaceOnUse">
      <feOffset dy="12" input="SourceAlpha"/>
      <feGaussianBlur stdDeviation="15" result="blur"/>
      <feFlood flood-opacity="0.161"/>
      <feComposite operator="in" in2="blur"/>
      <feComposite in="SourceGraphic"/>
    </filter>
  </defs>
  <g id="Group_1594" data-name="Group 1594" transform="translate(-298 -3347)">
    <g transform="matrix(1, 0, 0, 1, 298, 3347)" filter="url(#Rectangle_2829)">
      <rect id="Rectangle_2829-2" data-name="Rectangle 2829" width="323" height="330" rx="16" transform="translate(45 33)" opacity="0.8" fill="url(#linear-gradient)"/>
    </g>
    <text id="The_latest_world_in_payment_technology._We_aim_to_be_your_backbone_to_be_the_support_system_you_need_to_maximize_your_potential._" data-name="The latest world in payment technology. We aim to be your backbone, to be the support system you need to maximize your potential. " transform="translate(384 3551.942)" fill="#fff" font-size="16" font-family="Raleway-Regular, Raleway"><tspan x="18.104" y="15">The latest world in payment </tspan><tspan x="8.712" y="39">technology. We aim to be your </tspan><tspan x="16.28" y="63">backbone, to be the support </tspan><tspan x="9.272" y="87">system you need to maximize </tspan><tspan x="68.632" y="111">your potential. </tspan></text>
    <text id="Innovation" transform="translate(439 3526.442)" fill="#fff" font-size="24" font-family="Poppins-SemiBold, Poppins" font-weight="600"><tspan x="0" y="0">Innovation</tspan></text>
    <g id="gear" transform="translate(422.959 3415)">
      <g id="Group_1562" data-name="Group 1562" transform="translate(65.29 14.098)">
        <g id="Group_1561" data-name="Group 1561">
          <path id="Path_2571" data-name="Path 2571" d="M177.4,108.1h-3.353a11.664,11.664,0,0,0-.779-1.883l2.371-2.371a1.569,1.569,0,0,0,0-2.219l-2.79-2.79a1.571,1.571,0,0,0-2.219,0l-2.371,2.371a11.655,11.655,0,0,0-1.883-.779V97.074a1.571,1.571,0,0,0-1.569-1.569h-3.946a1.571,1.571,0,0,0-1.569,1.569v3.353a11.671,11.671,0,0,0-1.883.779l-2.371-2.371a1.571,1.571,0,0,0-2.219,0l-2.79,2.79a1.569,1.569,0,0,0,0,2.219l2.371,2.371a11.655,11.655,0,0,0-.779,1.883h-3.353a1.571,1.571,0,0,0-1.569,1.569v3.946a1.571,1.571,0,0,0,1.569,1.569h3.353a11.662,11.662,0,0,0,.779,1.883l-2.371,2.371a1.571,1.571,0,0,0,0,2.219l2.79,2.79a1.571,1.571,0,0,0,2.219,0l2.371-2.371a11.656,11.656,0,0,0,1.883.779v3.353a1.571,1.571,0,0,0,1.569,1.569H164.8a1.571,1.571,0,0,0,1.569-1.569v-3.353a11.66,11.66,0,0,0,1.883-.779l2.371,2.371a1.571,1.571,0,0,0,2.219,0l2.79-2.79a1.569,1.569,0,0,0,0-2.219l-2.371-2.371a11.655,11.655,0,0,0,.779-1.883H177.4a1.571,1.571,0,0,0,1.569-1.569v-3.946A1.571,1.571,0,0,0,177.4,108.1Zm-.645,4.869H173.2a1.107,1.107,0,0,0-1.078.855,9.466,9.466,0,0,1-1.178,2.844,1.107,1.107,0,0,0,.158,1.367l2.511,2.511-1.877,1.877-2.511-2.511a1.107,1.107,0,0,0-1.367-.158,9.475,9.475,0,0,1-2.844,1.178,1.107,1.107,0,0,0-.855,1.078v3.552H161.5v-3.552a1.107,1.107,0,0,0-.855-1.078,9.462,9.462,0,0,1-2.844-1.178,1.108,1.108,0,0,0-1.367.158l-2.511,2.511-1.877-1.877,2.511-2.511a1.107,1.107,0,0,0,.158-1.367,9.47,9.47,0,0,1-1.178-2.844,1.107,1.107,0,0,0-1.078-.855h-3.551v-2.655h3.551a1.107,1.107,0,0,0,1.078-.855,9.469,9.469,0,0,1,1.178-2.844,1.107,1.107,0,0,0-.158-1.367l-2.511-2.511,1.877-1.877,2.511,2.511a1.107,1.107,0,0,0,1.367.158,9.466,9.466,0,0,1,2.844-1.178,1.107,1.107,0,0,0,.855-1.078V97.719h2.655v3.552a1.107,1.107,0,0,0,.855,1.078,9.471,9.471,0,0,1,2.844,1.178,1.108,1.108,0,0,0,1.367-.158l2.511-2.511,1.877,1.877-2.511,2.511a1.107,1.107,0,0,0-.158,1.367,9.471,9.471,0,0,1,1.178,2.844,1.107,1.107,0,0,0,1.078.855h3.551Z" transform="translate(-146.697 -95.505)" fill="#fff"/>
        </g>
      </g>
      <g id="Group_1564" data-name="Group 1564" transform="translate(75.494 24.302)">
        <g id="Group_1563" data-name="Group 1563" transform="translate(0)">
          <path id="Path_2572" data-name="Path 2572" d="M221.751,164.628a5.931,5.931,0,1,0,5.931,5.931A5.938,5.938,0,0,0,221.751,164.628Zm0,9.648a3.717,3.717,0,1,1,3.717-3.717A3.721,3.721,0,0,1,221.751,174.276Z" transform="translate(-215.82 -164.628)" fill="#fff"/>
        </g>
      </g>
      <g id="Group_1566" data-name="Group 1566" transform="translate(51.192 29.126)">
        <g id="Group_1565" data-name="Group 1565" transform="translate(0)">
          <path id="Path_2573" data-name="Path 2573" d="M55.972,197.308H52.3a1.107,1.107,0,1,0,0,2.214h3.673a1.107,1.107,0,1,0,0-2.214Z" transform="translate(-51.192 -197.308)" fill="#fff"/>
        </g>
      </g>
      <g id="Group_1568" data-name="Group 1568" transform="translate(105.77 29.126)">
        <g id="Group_1567" data-name="Group 1567">
          <path id="Path_2574" data-name="Path 2574" d="M425.707,197.308h-3.673a1.107,1.107,0,0,0,0,2.214h3.673a1.107,1.107,0,0,0,0-2.214Z" transform="translate(-420.927 -197.308)" fill="#fff"/>
        </g>
      </g>
      <g id="Group_1570" data-name="Group 1570" transform="translate(59.723 47.123)">
        <g id="Group_1569" data-name="Group 1569">
          <path id="Path_2575" data-name="Path 2575" d="M113.468,319.557a1.107,1.107,0,0,0-1.566,0l-2.6,2.6a1.107,1.107,0,0,0,1.566,1.566l2.6-2.6A1.107,1.107,0,0,0,113.468,319.557Z" transform="translate(-108.981 -319.232)" fill="#fff"/>
        </g>
      </g>
      <g id="Group_1572" data-name="Group 1572" transform="translate(98.315 8.531)">
        <g id="Group_1571" data-name="Group 1571" transform="translate(0)">
          <path id="Path_2576" data-name="Path 2576" d="M374.911,58.116a1.107,1.107,0,0,0-1.566,0l-2.6,2.6a1.107,1.107,0,1,0,1.566,1.566l2.6-2.6A1.107,1.107,0,0,0,374.911,58.116Z" transform="translate(-370.423 -57.791)" fill="#fff"/>
        </g>
      </g>
      <g id="Group_1574" data-name="Group 1574" transform="translate(80.318)">
        <g id="Group_1573" data-name="Group 1573">
          <path id="Path_2577" data-name="Path 2577" d="M249.608,0A1.107,1.107,0,0,0,248.5,1.107V4.78a1.107,1.107,0,0,0,2.214,0V1.107A1.107,1.107,0,0,0,249.608,0Z" transform="translate(-248.501)" fill="#fff"/>
        </g>
      </g>
      <g id="Group_1576" data-name="Group 1576" transform="translate(98.315 47.123)">
        <g id="Group_1575" data-name="Group 1575" transform="translate(0)">
          <path id="Path_2578" data-name="Path 2578" d="M374.911,322.154l-2.6-2.6a1.107,1.107,0,1,0-1.566,1.566l2.6,2.6a1.107,1.107,0,0,0,1.566-1.566Z" transform="translate(-370.423 -319.232)" fill="#fff"/>
        </g>
      </g>
      <g id="Group_1578" data-name="Group 1578" transform="translate(59.723 8.531)">
        <g id="Group_1577" data-name="Group 1577">
          <path id="Path_2579" data-name="Path 2579" d="M113.468,60.713l-2.6-2.6a1.107,1.107,0,1,0-1.566,1.566l2.6,2.6a1.107,1.107,0,0,0,1.566-1.566Z" transform="translate(-108.981 -57.791)" fill="#fff"/>
        </g>
      </g>
      <g id="Group_1580" data-name="Group 1580" transform="translate(82.901 8.052)">
        <g id="Group_1579" data-name="Group 1579" transform="translate(0)">
          <path id="Path_2580" data-name="Path 2580" d="M286.611,74.014a22.266,22.266,0,0,0-19.37-19.461,1.107,1.107,0,1,0-.268,2.2,19.941,19.941,0,0,1,17.439,17.52,1.107,1.107,0,0,0,1.1.978,1.145,1.145,0,0,0,.13-.008A1.107,1.107,0,0,0,286.611,74.014Z" transform="translate(-265.999 -54.545)" fill="#fff"/>
        </g>
      </g>
      <g id="Group_1582" data-name="Group 1582" transform="translate(59.183 8.053)">
        <g id="Group_1581" data-name="Group 1581" transform="translate(0)">
          <path id="Path_2581" data-name="Path 2581" d="M148.673,78.22a1.106,1.106,0,0,0-1.237.959A19.951,19.951,0,0,1,138.2,93.612a7.448,7.448,0,0,0-3.52,6.335V104.5H120.456V99.847a7.291,7.291,0,0,0-3.411-6.167,20.029,20.029,0,0,1,8.077-36.918,1.107,1.107,0,0,0-.272-2.2,22.241,22.241,0,0,0-8.971,41,5.061,5.061,0,0,1,2.362,4.284v4.819a2.882,2.882,0,0,0-1.937,2.717v1.578a2.862,2.862,0,0,0,.614,1.772,2.861,2.861,0,0,0-.614,1.772v1.578a2.882,2.882,0,0,0,2.879,2.879h3.481v2.5a2.621,2.621,0,0,0,2.618,2.618h4.576a2.621,2.621,0,0,0,2.618-2.618v-2.5h3.481a2.882,2.882,0,0,0,2.879-2.879V112.5a2.862,2.862,0,0,0-.614-1.772,2.861,2.861,0,0,0,.614-1.772v-1.578a2.881,2.881,0,0,0-1.937-2.717V99.947a5.246,5.246,0,0,1,2.483-4.46,22.157,22.157,0,0,0,10.251-16.03A1.106,1.106,0,0,0,148.673,78.22Zm-18.412,41.243a.409.409,0,0,1-.4.4h-4.576a.409.409,0,0,1-.4-.4v-2.5h5.383Zm6.36-5.381a.673.673,0,0,1-.664.664H119.183a.673.673,0,0,1-.664-.664V112.5a.673.673,0,0,1,.664-.664h16.774a.673.673,0,0,1,.664.664Zm0-5.121a.673.673,0,0,1-.664.664H119.183a.673.673,0,0,1-.664-.664v-1.578a.673.673,0,0,1,.664-.664h16.774a.673.673,0,0,1,.664.664Z" transform="translate(-105.328 -54.556)" fill="#fff"/>
        </g>
      </g>
    </g>
  </g>
</svg>
