<svg xmlns="http://www.w3.org/2000/svg" xmlns:xlink="http://www.w3.org/1999/xlink" width="413" height="420" viewBox="0 0 413 420">
  <defs>
    <linearGradient id="linear-gradient" x1="-0.578" y1="-0.383" x2="1.105" y2="1.33" gradientUnits="objectBoundingBox">
      <stop offset="0" stop-color="#f905f5"/>
      <stop offset="1" stop-color="#4da1ff"/>
    </linearGradient>
    <filter id="Rectangle_2829" x="0" y="0" width="413" height="420" filterUnits="userSpaceOnUse">
      <feOffset dy="12" input="SourceAlpha"/>
      <feGaussianBlur stdDeviation="15" result="blur"/>
      <feFlood flood-opacity="0.161"/>
      <feComposite operator="in" in2="blur"/>
      <feComposite in="SourceGraphic"/>
    </filter>
  </defs>
  <g id="Group_1596" data-name="Group 1596" transform="translate(-298 -3347)">
    <g transform="matrix(1, 0, 0, 1, 298, 3347)" filter="url(#Rectangle_2829)">
      <rect id="Rectangle_2829-2" data-name="Rectangle 2829" width="323" height="330" rx="16" transform="translate(45 33)" opacity="0.8" fill="url(#linear-gradient)"/>
    </g>
    <path id="Path_2603" data-name="Path 2603" d="M24.912,5.224H21.136V15H19.328V5.224H15.536V3.64h9.376ZM33.712,15h-1.76V10.312a2.875,2.875,0,0,0-.408-1.7,1.373,1.373,0,0,0-1.176-.552,2.007,2.007,0,0,0-.736.144,2.645,2.645,0,0,0-.7.408,3.1,3.1,0,0,0-.584.624,2.661,2.661,0,0,0-.384.792V15h-1.76V3.32h1.76V8.312a3.473,3.473,0,0,1,1.3-1.344,3.513,3.513,0,0,1,1.8-.48,2.633,2.633,0,0,1,1.288.28,2.261,2.261,0,0,1,.808.744,2.993,2.993,0,0,1,.424,1.08,6.812,6.812,0,0,1,.12,1.3Zm5.84.16a4.451,4.451,0,0,1-1.776-.344,4.133,4.133,0,0,1-1.368-.936,4.22,4.22,0,0,1-.88-1.376,4.458,4.458,0,0,1-.312-1.664,4.52,4.52,0,0,1,.312-1.672,4.291,4.291,0,0,1,.88-1.392,4.075,4.075,0,0,1,1.368-.944,4.493,4.493,0,0,1,1.792-.344,4.307,4.307,0,0,1,1.768.352,4.227,4.227,0,0,1,1.352.936,4,4,0,0,1,.856,1.36,4.518,4.518,0,0,1,.3,1.624q0,.192-.016.36t-.032.28h-6.7a2.865,2.865,0,0,0,.264,1.008,2.653,2.653,0,0,0,.56.776,2.459,2.459,0,0,0,1.7.68,2.8,2.8,0,0,0,.7-.088,2.454,2.454,0,0,0,.632-.256,2.24,2.24,0,0,0,.512-.408,1.9,1.9,0,0,0,.352-.528l1.5.432A3.487,3.487,0,0,1,41.88,14.56,4.437,4.437,0,0,1,39.552,15.16ZM42.1,10.184a2.814,2.814,0,0,0-.264-.976,2.513,2.513,0,0,0-.552-.76A2.463,2.463,0,0,0,40.5,7.96a2.558,2.558,0,0,0-.944-.176,2.5,2.5,0,0,0-1.712.664,2.406,2.406,0,0,0-.544.76,2.929,2.929,0,0,0-.256.976ZM49.248,3.32h1.76v9.264a1.042,1.042,0,0,0,.24.728.862.862,0,0,0,.672.264,1.561,1.561,0,0,0,.408-.064q.232-.064.44-.144l.256,1.376a4.1,4.1,0,0,1-.912.28,4.941,4.941,0,0,1-.944.1,1.933,1.933,0,0,1-1.416-.5,1.887,1.887,0,0,1-.5-1.408Zm7.024,11.84a3.116,3.116,0,0,1-1.128-.2,2.727,2.727,0,0,1-.9-.552,2.574,2.574,0,0,1-.592-.832,2.5,2.5,0,0,1-.216-1.04,2.242,2.242,0,0,1,.256-1.072,2.505,2.505,0,0,1,.728-.832,3.534,3.534,0,0,1,1.12-.544A5.028,5.028,0,0,1,56.976,9.9a6.56,6.56,0,0,1,1.168.1,5.882,5.882,0,0,1,1.04.28V9.7a1.94,1.94,0,0,0-.528-1.448,2.076,2.076,0,0,0-1.52-.52,3.665,3.665,0,0,0-1.32.248A6.678,6.678,0,0,0,54.48,8.7l-.544-1.12A5.933,5.933,0,0,1,57.3,6.488a3.832,3.832,0,0,1,2.688.88,3.257,3.257,0,0,1,.96,2.528V12.92q0,.56.464.576V15q-.256.048-.44.064t-.36.016a1.132,1.132,0,0,1-.792-.256,1.1,1.1,0,0,1-.344-.656l-.048-.528a3.731,3.731,0,0,1-1.384,1.128A4.063,4.063,0,0,1,56.272,15.16Zm.48-1.3a3.164,3.164,0,0,0,1.208-.232,2.083,2.083,0,0,0,.888-.648.812.812,0,0,0,.336-.608v-1.1A5.32,5.32,0,0,0,58.232,11a5.253,5.253,0,0,0-.984-.1,2.691,2.691,0,0,0-1.544.408,1.25,1.25,0,0,0-.6,1.08,1.363,1.363,0,0,0,.464,1.048A1.687,1.687,0,0,0,56.752,13.864Zm10.912.7a8.821,8.821,0,0,1-.928.36,3.923,3.923,0,0,1-1.264.2,2.679,2.679,0,0,1-.784-.112,1.921,1.921,0,0,1-.648-.336,1.526,1.526,0,0,1-.44-.584,2.14,2.14,0,0,1-.16-.872V7.992h-1.1V6.632h1.1V3.88H65.2V6.632h1.824v1.36H65.2v4.672a.869.869,0,0,0,.28.648.95.95,0,0,0,.616.2,1.961,1.961,0,0,0,.7-.128q.336-.128.5-.208Zm4.8.592a4.451,4.451,0,0,1-1.776-.344,4.133,4.133,0,0,1-1.368-.936,4.22,4.22,0,0,1-.88-1.376,4.458,4.458,0,0,1-.312-1.664,4.52,4.52,0,0,1,.312-1.672,4.291,4.291,0,0,1,.88-1.392,4.075,4.075,0,0,1,1.368-.944,4.493,4.493,0,0,1,1.792-.344,4.307,4.307,0,0,1,1.768.352,4.227,4.227,0,0,1,1.352.936,4,4,0,0,1,.856,1.36,4.518,4.518,0,0,1,.3,1.624q0,.192-.016.36t-.032.28H70a2.865,2.865,0,0,0,.264,1.008,2.653,2.653,0,0,0,.56.776,2.459,2.459,0,0,0,1.7.68,2.8,2.8,0,0,0,.7-.088,2.454,2.454,0,0,0,.632-.256,2.24,2.24,0,0,0,.512-.408,1.9,1.9,0,0,0,.352-.528l1.5.432a3.487,3.487,0,0,1-1.432,1.544A4.437,4.437,0,0,1,72.464,15.16Zm2.544-4.976a2.814,2.814,0,0,0-.264-.976,2.513,2.513,0,0,0-.552-.76,2.463,2.463,0,0,0-.784-.488,2.558,2.558,0,0,0-.944-.176,2.5,2.5,0,0,0-1.712.664,2.406,2.406,0,0,0-.544.76,2.929,2.929,0,0,0-.256.976Zm6.224,4.976a6.409,6.409,0,0,1-2.008-.328A5.092,5.092,0,0,1,77.5,13.9l.7-1.12A6.5,6.5,0,0,0,79.7,13.6a4.2,4.2,0,0,0,1.5.28,2.21,2.21,0,0,0,1.24-.3.978.978,0,0,0,.456-.864.8.8,0,0,0-.512-.768,10.245,10.245,0,0,0-1.6-.528q-.784-.208-1.344-.4a3.459,3.459,0,0,1-.912-.448,1.573,1.573,0,0,1-.512-.592,1.887,1.887,0,0,1-.16-.816A2.507,2.507,0,0,1,78.1,8.024a2.438,2.438,0,0,1,.688-.84,3.082,3.082,0,0,1,1.032-.52,4.473,4.473,0,0,1,1.28-.176,5.251,5.251,0,0,1,1.76.288,4.58,4.58,0,0,1,1.456.832l-.752,1.056a3.923,3.923,0,0,0-2.48-.928,2.119,2.119,0,0,0-1.128.28A.965.965,0,0,0,79.5,8.9a.892.892,0,0,0,.1.432.815.815,0,0,0,.312.3,2.57,2.57,0,0,0,.56.232q.344.1.856.232.848.208,1.464.416a4.008,4.008,0,0,1,1.016.488,1.81,1.81,0,0,1,.592.656,1.967,1.967,0,0,1,.192.9,2.264,2.264,0,0,1-.9,1.9A3.929,3.929,0,0,1,81.232,15.16Zm9.552-.592a8.822,8.822,0,0,1-.928.36,3.923,3.923,0,0,1-1.264.2,2.679,2.679,0,0,1-.784-.112,1.921,1.921,0,0,1-.648-.336,1.526,1.526,0,0,1-.44-.584,2.14,2.14,0,0,1-.16-.872V7.992h-1.1V6.632h1.1V3.88h1.76V6.632h1.824v1.36H88.32v4.672a.869.869,0,0,0,.28.648.95.95,0,0,0,.616.2,1.961,1.961,0,0,0,.7-.128q.336-.128.5-.208Zm15.168-7.936h1.68L104.112,15h-1.456L101.1,11.112,99.552,15H98.1L94.56,6.632h1.68l2.7,6.672,1.216-3.1L98.7,6.648h1.44l.96,2.624.944-2.624h1.44l-1.44,3.552,1.216,3.1Zm6.3,8.528a4.348,4.348,0,0,1-1.784-.352,4.1,4.1,0,0,1-2.216-2.328,4.662,4.662,0,0,1,0-3.312,4.1,4.1,0,0,1,.872-1.384,4.258,4.258,0,0,1,1.36-.944,4.616,4.616,0,0,1,3.536,0,4.258,4.258,0,0,1,1.36.944,4.1,4.1,0,0,1,.872,1.384,4.662,4.662,0,0,1,0,3.312,4.1,4.1,0,0,1-.872,1.384,4.258,4.258,0,0,1-1.36.944A4.307,4.307,0,0,1,112.256,15.16Zm-2.5-4.32a3.166,3.166,0,0,0,.192,1.12,2.784,2.784,0,0,0,.528.888,2.469,2.469,0,0,0,.792.592,2.349,2.349,0,0,0,1.968,0,2.418,2.418,0,0,0,.792-.6,2.883,2.883,0,0,0,.528-.9,3.339,3.339,0,0,0,0-2.232,2.863,2.863,0,0,0-.528-.9,2.418,2.418,0,0,0-.792-.6,2.269,2.269,0,0,0-.984-.216,2.167,2.167,0,0,0-.968.224,2.517,2.517,0,0,0-.792.608,2.986,2.986,0,0,0-.536.9A3.071,3.071,0,0,0,109.76,10.84Zm13.072-2.688a3.937,3.937,0,0,0-1.816.472,2.487,2.487,0,0,0-1.128,1.256V15h-1.76V6.632h1.632V8.5a3.827,3.827,0,0,1,1.128-1.384,2.736,2.736,0,0,1,1.5-.568h.264a.945.945,0,0,1,.184.016Zm1.3-4.832h1.76v9.264a1.042,1.042,0,0,0,.24.728.862.862,0,0,0,.672.264,1.561,1.561,0,0,0,.408-.064q.232-.064.44-.144l.256,1.376a4.1,4.1,0,0,1-.912.28,4.941,4.941,0,0,1-.944.1,1.933,1.933,0,0,1-1.416-.5,1.887,1.887,0,0,1-.5-1.408Zm8.208,11.84a3.59,3.59,0,0,1-1.568-.344,3.919,3.919,0,0,1-1.248-.936A4.337,4.337,0,0,1,128.7,12.5a5.045,5.045,0,0,1-.016-3.36,4.383,4.383,0,0,1,.784-1.368,3.788,3.788,0,0,1,1.184-.936,3.453,3.453,0,0,1,3.272.144,3.555,3.555,0,0,1,1.2,1.24V3.32h1.76v9.6a.694.694,0,0,0,.1.432.5.5,0,0,0,.376.144V15q-.272.048-.44.064t-.28.016a1.33,1.33,0,0,1-.864-.272.961.961,0,0,1-.368-.7l-.032-.624a3.338,3.338,0,0,1-1.264,1.232A3.572,3.572,0,0,1,132.336,15.16Zm.432-1.5a2.416,2.416,0,0,0,.768-.128,2.72,2.72,0,0,0,.7-.352,2.474,2.474,0,0,0,.552-.528,1.9,1.9,0,0,0,.328-.656V9.8a2.621,2.621,0,0,0-.408-.736,2.919,2.919,0,0,0-.6-.576,2.74,2.74,0,0,0-.712-.368,2.344,2.344,0,0,0-.76-.128,1.988,1.988,0,0,0-.968.24,2.5,2.5,0,0,0-.76.64,3.155,3.155,0,0,0-.5.912,3.1,3.1,0,0,0-.184,1.056,2.963,2.963,0,0,0,.2,1.088,2.842,2.842,0,0,0,.552.9,2.709,2.709,0,0,0,.808.608A2.2,2.2,0,0,0,132.768,13.656ZM143.072,15V6.632h1.76V15Zm0-9.744V3.32h1.76V5.256ZM154.448,15h-1.76V10.312a3.056,3.056,0,0,0-.376-1.72,1.271,1.271,0,0,0-1.112-.536,2.174,2.174,0,0,0-.768.144,2.69,2.69,0,0,0-.72.408,3.178,3.178,0,0,0-.6.624,2.86,2.86,0,0,0-.408.792V15h-1.76V6.632h1.6v1.68a3.4,3.4,0,0,1,1.392-1.336,4.2,4.2,0,0,1,2.016-.488,2.479,2.479,0,0,1,1.232.272,2.035,2.035,0,0,1,.76.744,3.255,3.255,0,0,1,.392,1.088,7.285,7.285,0,0,1,.112,1.3Zm10.752.16a3.281,3.281,0,0,1-1.776-.48,3.583,3.583,0,0,1-1.216-1.248v4.976h-1.76V6.632H162v1.5a3.655,3.655,0,0,1,1.24-1.2,3.323,3.323,0,0,1,1.72-.448,3.558,3.558,0,0,1,1.584.352,4.023,4.023,0,0,1,1.248.944,4.357,4.357,0,0,1,.824,1.376,4.626,4.626,0,0,1,.3,1.648,5.212,5.212,0,0,1-.272,1.7,4.216,4.216,0,0,1-.768,1.376,3.749,3.749,0,0,1-1.176.928A3.266,3.266,0,0,1,165.2,15.16Zm-.576-1.5a2.148,2.148,0,0,0,1.016-.24,2.525,2.525,0,0,0,.784-.64,2.923,2.923,0,0,0,.5-.912,3.226,3.226,0,0,0,.176-1.056,2.963,2.963,0,0,0-.2-1.088,2.922,2.922,0,0,0-.544-.9,2.529,2.529,0,0,0-.824-.608,2.429,2.429,0,0,0-1.04-.224,2.142,2.142,0,0,0-.7.128,2.8,2.8,0,0,0-.688.352,2.737,2.737,0,0,0-.56.52,1.754,1.754,0,0,0-.336.648v2.192a3.241,3.241,0,0,0,.416.72,3.063,3.063,0,0,0,.568.576,2.758,2.758,0,0,0,.68.384A2.047,2.047,0,0,0,164.624,13.656Zm8.1,1.5a3.116,3.116,0,0,1-1.128-.2,2.727,2.727,0,0,1-.9-.552,2.574,2.574,0,0,1-.592-.832,2.5,2.5,0,0,1-.216-1.04,2.242,2.242,0,0,1,.256-1.072,2.506,2.506,0,0,1,.728-.832,3.534,3.534,0,0,1,1.12-.544,5.028,5.028,0,0,1,1.432-.192,6.561,6.561,0,0,1,1.168.1,5.883,5.883,0,0,1,1.04.28V9.7a1.94,1.94,0,0,0-.528-1.448,2.076,2.076,0,0,0-1.52-.52,3.665,3.665,0,0,0-1.32.248,6.678,6.678,0,0,0-1.336.712l-.544-1.12a5.933,5.933,0,0,1,3.36-1.088,3.832,3.832,0,0,1,2.688.88,3.257,3.257,0,0,1,.96,2.528V12.92q0,.56.464.576V15q-.256.048-.44.064t-.36.016a1.132,1.132,0,0,1-.792-.256,1.1,1.1,0,0,1-.344-.656l-.048-.528a3.732,3.732,0,0,1-1.384,1.128A4.063,4.063,0,0,1,172.72,15.16Zm.48-1.3a3.164,3.164,0,0,0,1.208-.232,2.083,2.083,0,0,0,.888-.648.812.812,0,0,0,.336-.608v-1.1A5.32,5.32,0,0,0,174.68,11a5.253,5.253,0,0,0-.984-.1,2.691,2.691,0,0,0-1.544.408,1.25,1.25,0,0,0-.6,1.08,1.363,1.363,0,0,0,.464,1.048A1.687,1.687,0,0,0,173.2,13.864Zm6.4,3.1q.24.048.472.08a2.877,2.877,0,0,0,.376.032.706.706,0,0,0,.36-.088,1.073,1.073,0,0,0,.312-.312,3.229,3.229,0,0,0,.328-.632q.168-.408.392-1.048L178.4,6.632h1.808l2.592,6.816,2.3-6.816h1.664l-3.792,10.3a2.607,2.607,0,0,1-.888,1.208,2.581,2.581,0,0,1-1.624.488,3.492,3.492,0,0,1-.4-.024,2.557,2.557,0,0,1-.464-.1ZM200.864,15H199.1V10.312A3.01,3.01,0,0,0,198.72,8.6a1.285,1.285,0,0,0-1.12-.544,2,2,0,0,0-1.368.552,3.107,3.107,0,0,0-.888,1.432V15h-1.76V10.312a3,3,0,0,0-.384-1.72,1.275,1.275,0,0,0-1.1-.536,2.047,2.047,0,0,0-1.376.544,3.025,3.025,0,0,0-.9,1.424V15h-1.76V6.632h1.6v1.68a3.536,3.536,0,0,1,1.3-1.352,3.6,3.6,0,0,1,1.848-.472,2.238,2.238,0,0,1,2.384,1.9,3.831,3.831,0,0,1,1.328-1.416,3.432,3.432,0,0,1,1.824-.488,2.431,2.431,0,0,1,1.224.28,2.164,2.164,0,0,1,.776.744,3.068,3.068,0,0,1,.4,1.08,7.285,7.285,0,0,1,.112,1.3Zm5.824.16a4.451,4.451,0,0,1-1.776-.344,4.134,4.134,0,0,1-1.368-.936,4.22,4.22,0,0,1-.88-1.376,4.458,4.458,0,0,1-.312-1.664,4.52,4.52,0,0,1,.312-1.672,4.291,4.291,0,0,1,.88-1.392,4.075,4.075,0,0,1,1.368-.944,4.493,4.493,0,0,1,1.792-.344,4.307,4.307,0,0,1,1.768.352,4.227,4.227,0,0,1,1.352.936,4,4,0,0,1,.856,1.36,4.518,4.518,0,0,1,.3,1.624q0,.192-.016.36t-.032.28h-6.7a2.865,2.865,0,0,0,.264,1.008,2.653,2.653,0,0,0,.56.776,2.459,2.459,0,0,0,1.7.68,2.8,2.8,0,0,0,.7-.088,2.454,2.454,0,0,0,.632-.256,2.24,2.24,0,0,0,.512-.408,1.9,1.9,0,0,0,.352-.528l1.5.432a3.487,3.487,0,0,1-1.432,1.544A4.437,4.437,0,0,1,206.688,15.16Zm2.544-4.976a2.814,2.814,0,0,0-.264-.976,2.513,2.513,0,0,0-.552-.76,2.463,2.463,0,0,0-.784-.488,2.558,2.558,0,0,0-.944-.176,2.5,2.5,0,0,0-1.712.664,2.406,2.406,0,0,0-.544.76,2.929,2.929,0,0,0-.256.976ZM219.92,15h-1.76V10.312a3.056,3.056,0,0,0-.376-1.72,1.271,1.271,0,0,0-1.112-.536,2.174,2.174,0,0,0-.768.144,2.69,2.69,0,0,0-.72.408,3.178,3.178,0,0,0-.6.624,2.86,2.86,0,0,0-.408.792V15h-1.76V6.632h1.6v1.68a3.4,3.4,0,0,1,1.392-1.336,4.2,4.2,0,0,1,2.016-.488,2.479,2.479,0,0,1,1.232.272,2.035,2.035,0,0,1,.76.744,3.255,3.255,0,0,1,.392,1.088,7.285,7.285,0,0,1,.112,1.3Zm6.624-.432a8.822,8.822,0,0,1-.928.36,3.923,3.923,0,0,1-1.264.2,2.679,2.679,0,0,1-.784-.112,1.921,1.921,0,0,1-.648-.336,1.526,1.526,0,0,1-.44-.584,2.14,2.14,0,0,1-.16-.872V7.992h-1.1V6.632h1.1V3.88h1.76V6.632H225.9v1.36H224.08v4.672a.869.869,0,0,0,.28.648.95.95,0,0,0,.616.2,1.961,1.961,0,0,0,.7-.128q.336-.128.5-.208Zm-214.464,24a8.822,8.822,0,0,1-.928.36,3.923,3.923,0,0,1-1.264.2,2.679,2.679,0,0,1-.784-.112,1.921,1.921,0,0,1-.648-.336,1.526,1.526,0,0,1-.44-.584,2.14,2.14,0,0,1-.16-.872V31.992h-1.1v-1.36h1.1V27.88h1.76v2.752H11.44v1.36H9.616v4.672a.869.869,0,0,0,.28.648.95.95,0,0,0,.616.2,1.961,1.961,0,0,0,.7-.128q.336-.128.5-.208Zm4.8.592a4.451,4.451,0,0,1-1.776-.344,4.133,4.133,0,0,1-1.368-.936,4.22,4.22,0,0,1-.88-1.376,4.459,4.459,0,0,1-.312-1.664,4.52,4.52,0,0,1,.312-1.672,4.291,4.291,0,0,1,.88-1.392,4.075,4.075,0,0,1,1.368-.944,4.493,4.493,0,0,1,1.792-.344,4.307,4.307,0,0,1,1.768.352,4.227,4.227,0,0,1,1.352.936,4,4,0,0,1,.856,1.36,4.518,4.518,0,0,1,.3,1.624q0,.192-.016.36t-.032.28h-6.7a2.865,2.865,0,0,0,.264,1.008,2.653,2.653,0,0,0,.56.776,2.459,2.459,0,0,0,1.7.68,2.8,2.8,0,0,0,.7-.088,2.454,2.454,0,0,0,.632-.256,2.24,2.24,0,0,0,.512-.408,1.9,1.9,0,0,0,.352-.528l1.5.432a3.487,3.487,0,0,1-1.432,1.544A4.437,4.437,0,0,1,16.88,39.16Zm2.544-4.976a2.814,2.814,0,0,0-.264-.976,2.513,2.513,0,0,0-.552-.76,2.463,2.463,0,0,0-.784-.488,2.558,2.558,0,0,0-.944-.176,2.5,2.5,0,0,0-1.712.664,2.406,2.406,0,0,0-.544.76,2.929,2.929,0,0,0-.256.976Zm2.64.624a4.562,4.562,0,0,1,.3-1.664,4.076,4.076,0,0,1,2.24-2.312,4.493,4.493,0,0,1,1.792-.344,4.221,4.221,0,0,1,2.232.568,3.6,3.6,0,0,1,1.4,1.512l-1.712.544a2.2,2.2,0,0,0-.816-.824,2.229,2.229,0,0,0-1.136-.3,2.343,2.343,0,0,0-.984.208,2.371,2.371,0,0,0-.792.584,2.784,2.784,0,0,0-.528.888,3.213,3.213,0,0,0-.192,1.136,3.116,3.116,0,0,0,.2,1.128,2.9,2.9,0,0,0,.544.9,2.505,2.505,0,0,0,.8.6,2.233,2.233,0,0,0,.968.216,2.4,2.4,0,0,0,.64-.088,2.288,2.288,0,0,0,1.048-.616,1.393,1.393,0,0,0,.3-.448l1.728.512A3.422,3.422,0,0,1,28.7,38.56a4.312,4.312,0,0,1-2.3.6,4.363,4.363,0,0,1-1.776-.352,4.174,4.174,0,0,1-1.368-.952,4.312,4.312,0,0,1-.88-1.384A4.459,4.459,0,0,1,22.064,34.808ZM39.056,39H37.3V34.312a2.875,2.875,0,0,0-.408-1.7,1.373,1.373,0,0,0-1.176-.552,2.007,2.007,0,0,0-.736.144,2.645,2.645,0,0,0-.7.408,3.1,3.1,0,0,0-.584.624,2.661,2.661,0,0,0-.384.792V39h-1.76V27.32h1.76v4.992a3.473,3.473,0,0,1,1.3-1.344,3.513,3.513,0,0,1,1.8-.48,2.633,2.633,0,0,1,1.288.28,2.261,2.261,0,0,1,.808.744,2.993,2.993,0,0,1,.424,1.08,6.812,6.812,0,0,1,.12,1.3Zm9.552,0h-1.76V34.312a3.056,3.056,0,0,0-.376-1.72,1.271,1.271,0,0,0-1.112-.536,2.174,2.174,0,0,0-.768.144,2.69,2.69,0,0,0-.72.408,3.178,3.178,0,0,0-.6.624,2.859,2.859,0,0,0-.408.792V39H41.1V30.632h1.6v1.68A3.4,3.4,0,0,1,44.1,30.976a4.2,4.2,0,0,1,2.016-.488,2.479,2.479,0,0,1,1.232.272,2.035,2.035,0,0,1,.76.744,3.255,3.255,0,0,1,.392,1.088,7.284,7.284,0,0,1,.112,1.3Zm5.808.16a4.348,4.348,0,0,1-1.784-.352,4.1,4.1,0,0,1-2.216-2.328,4.662,4.662,0,0,1,0-3.312,4.1,4.1,0,0,1,.872-1.384,4.258,4.258,0,0,1,1.36-.944,4.616,4.616,0,0,1,3.536,0,4.258,4.258,0,0,1,1.36.944,4.1,4.1,0,0,1,.872,1.384,4.662,4.662,0,0,1,0,3.312,4.1,4.1,0,0,1-.872,1.384,4.258,4.258,0,0,1-1.36.944A4.307,4.307,0,0,1,54.416,39.16Zm-2.5-4.32a3.166,3.166,0,0,0,.192,1.12,2.784,2.784,0,0,0,.528.888,2.469,2.469,0,0,0,.792.592,2.349,2.349,0,0,0,1.968,0,2.418,2.418,0,0,0,.792-.6,2.883,2.883,0,0,0,.528-.9,3.339,3.339,0,0,0,0-2.232,2.863,2.863,0,0,0-.528-.9,2.418,2.418,0,0,0-.792-.6,2.269,2.269,0,0,0-.984-.216,2.167,2.167,0,0,0-.968.224,2.517,2.517,0,0,0-.792.608,2.985,2.985,0,0,0-.536.9A3.071,3.071,0,0,0,51.92,34.84ZM60.3,27.32h1.76v9.264a1.042,1.042,0,0,0,.24.728.862.862,0,0,0,.672.264,1.56,1.56,0,0,0,.408-.064q.232-.064.44-.144l.256,1.376a4.1,4.1,0,0,1-.912.28,4.941,4.941,0,0,1-.944.1,1.933,1.933,0,0,1-1.416-.5,1.887,1.887,0,0,1-.5-1.408Zm8.56,11.84a4.348,4.348,0,0,1-1.784-.352,4.1,4.1,0,0,1-2.216-2.328,4.662,4.662,0,0,1,0-3.312,4.1,4.1,0,0,1,.872-1.384,4.258,4.258,0,0,1,1.36-.944,4.616,4.616,0,0,1,3.536,0,4.258,4.258,0,0,1,1.36.944,4.1,4.1,0,0,1,.872,1.384,4.662,4.662,0,0,1,0,3.312,4.1,4.1,0,0,1-.872,1.384,4.258,4.258,0,0,1-1.36.944A4.307,4.307,0,0,1,68.864,39.16Zm-2.5-4.32a3.166,3.166,0,0,0,.192,1.12,2.784,2.784,0,0,0,.528.888,2.469,2.469,0,0,0,.792.592,2.349,2.349,0,0,0,1.968,0,2.418,2.418,0,0,0,.792-.6,2.883,2.883,0,0,0,.528-.9,3.339,3.339,0,0,0,0-2.232,2.863,2.863,0,0,0-.528-.9,2.418,2.418,0,0,0-.792-.6,2.269,2.269,0,0,0-.984-.216,2.167,2.167,0,0,0-.968.224,2.517,2.517,0,0,0-.792.608,2.986,2.986,0,0,0-.536.9A3.071,3.071,0,0,0,66.368,34.84Zm11.68,4.24a3.487,3.487,0,0,1-1.552-.344,3.706,3.706,0,0,1-1.208-.936,4.4,4.4,0,0,1-.784-1.36,4.681,4.681,0,0,1-.28-1.616,4.9,4.9,0,0,1,.288-1.688,4.283,4.283,0,0,1,.8-1.376,3.819,3.819,0,0,1,1.224-.928,3.575,3.575,0,0,1,1.576-.344,3.24,3.24,0,0,1,1.768.48,4.064,4.064,0,0,1,1.256,1.248V30.632h1.552V38.76a3.709,3.709,0,0,1-.336,1.616,3.41,3.41,0,0,1-.936,1.192A4.218,4.218,0,0,1,80,42.312a5.85,5.85,0,0,1-1.76.256,5.039,5.039,0,0,1-2.312-.472,4.375,4.375,0,0,1-1.544-1.32l.992-.928a3.1,3.1,0,0,0,1.24,1.024,3.817,3.817,0,0,0,1.624.352,3.629,3.629,0,0,0,1.032-.144,2.388,2.388,0,0,0,.856-.448,2.163,2.163,0,0,0,.584-.768,2.6,2.6,0,0,0,.216-1.1V37.48A3.061,3.061,0,0,1,79.7,38.664,3.468,3.468,0,0,1,78.048,39.08Zm.576-1.424a2.2,2.2,0,0,0,.768-.136,2.7,2.7,0,0,0,.68-.368,2.65,2.65,0,0,0,.536-.528,1.913,1.913,0,0,0,.32-.632V33.8a2.96,2.96,0,0,0-1-1.3,2.845,2.845,0,0,0-.7-.376,2.179,2.179,0,0,0-1.768.112,2.485,2.485,0,0,0-.776.656,3.123,3.123,0,0,0-.5.92,3.226,3.226,0,0,0-.176,1.056,2.9,2.9,0,0,0,.2,1.08,2.766,2.766,0,0,0,.552.88,2.709,2.709,0,0,0,.824.6A2.376,2.376,0,0,0,78.624,37.656Zm6.464,3.312q.24.048.472.08a2.876,2.876,0,0,0,.376.032.706.706,0,0,0,.36-.088,1.073,1.073,0,0,0,.312-.312,3.229,3.229,0,0,0,.328-.632q.168-.408.392-1.048l-3.44-8.368H85.7l2.592,6.816,2.3-6.816h1.664l-3.792,10.3a2.607,2.607,0,0,1-.888,1.208,2.581,2.581,0,0,1-1.624.488,3.492,3.492,0,0,1-.4-.024,2.557,2.557,0,0,1-.464-.1ZM92.7,39V36.952H94.16V39Zm11.152-11.312h1.7l1.392,3.856,1.408-3.856h1.68L108.1,32.744l1.7,4.176,3.536-9.28H115.3L110.608,39h-1.536l-2.112-5.088L104.832,39H103.3L98.608,27.64h1.952l3.552,9.28,1.7-4.176ZM119.184,39.16a4.451,4.451,0,0,1-1.776-.344,4.134,4.134,0,0,1-1.368-.936,4.22,4.22,0,0,1-.88-1.376,4.459,4.459,0,0,1-.312-1.664,4.52,4.52,0,0,1,.312-1.672,4.291,4.291,0,0,1,.88-1.392,4.075,4.075,0,0,1,1.368-.944,4.493,4.493,0,0,1,1.792-.344,4.307,4.307,0,0,1,1.768.352,4.227,4.227,0,0,1,1.352.936,4,4,0,0,1,.856,1.36,4.518,4.518,0,0,1,.3,1.624q0,.192-.016.36t-.032.28h-6.7a2.865,2.865,0,0,0,.264,1.008,2.653,2.653,0,0,0,.56.776,2.459,2.459,0,0,0,1.7.68,2.8,2.8,0,0,0,.7-.088,2.454,2.454,0,0,0,.632-.256,2.24,2.24,0,0,0,.512-.408,1.9,1.9,0,0,0,.352-.528l1.5.432a3.487,3.487,0,0,1-1.432,1.544A4.437,4.437,0,0,1,119.184,39.16Zm2.544-4.976a2.814,2.814,0,0,0-.264-.976,2.513,2.513,0,0,0-.552-.76,2.463,2.463,0,0,0-.784-.488,2.558,2.558,0,0,0-.944-.176,2.5,2.5,0,0,0-1.712.664,2.406,2.406,0,0,0-.544.76,2.929,2.929,0,0,0-.256.976Zm9.36,4.976a3.116,3.116,0,0,1-1.128-.2,2.727,2.727,0,0,1-.9-.552,2.574,2.574,0,0,1-.592-.832,2.5,2.5,0,0,1-.216-1.04,2.242,2.242,0,0,1,.256-1.072,2.506,2.506,0,0,1,.728-.832,3.534,3.534,0,0,1,1.12-.544,5.028,5.028,0,0,1,1.432-.192,6.56,6.56,0,0,1,1.168.1,5.882,5.882,0,0,1,1.04.28V33.7a1.94,1.94,0,0,0-.528-1.448,2.076,2.076,0,0,0-1.52-.52,3.665,3.665,0,0,0-1.32.248,6.678,6.678,0,0,0-1.336.712l-.544-1.12a5.933,5.933,0,0,1,3.36-1.088,3.832,3.832,0,0,1,2.688.88,3.257,3.257,0,0,1,.96,2.528V36.92q0,.56.464.576V39q-.256.048-.44.064t-.36.016a1.132,1.132,0,0,1-.792-.256,1.1,1.1,0,0,1-.344-.656l-.048-.528a3.732,3.732,0,0,1-1.384,1.128A4.063,4.063,0,0,1,131.088,39.16Zm.48-1.3a3.164,3.164,0,0,0,1.208-.232,2.083,2.083,0,0,0,.888-.648.812.812,0,0,0,.336-.608v-1.1a5.32,5.32,0,0,0-.952-.272,5.254,5.254,0,0,0-.984-.1,2.691,2.691,0,0,0-1.544.408,1.25,1.25,0,0,0-.6,1.08,1.363,1.363,0,0,0,.464,1.048A1.687,1.687,0,0,0,131.568,37.864ZM137.888,39V30.632h1.76V39Zm0-9.744V27.32h1.76v1.936ZM154.56,39H152.8V34.312a3.01,3.01,0,0,0-.384-1.712,1.285,1.285,0,0,0-1.12-.544,2,2,0,0,0-1.368.552,3.107,3.107,0,0,0-.888,1.432V39h-1.76V34.312a3,3,0,0,0-.384-1.72,1.275,1.275,0,0,0-1.1-.536,2.047,2.047,0,0,0-1.376.544,3.025,3.025,0,0,0-.9,1.424V39h-1.76V30.632h1.6v1.68a3.536,3.536,0,0,1,1.3-1.352,3.6,3.6,0,0,1,1.848-.472,2.238,2.238,0,0,1,2.384,1.9,3.831,3.831,0,0,1,1.328-1.416,3.432,3.432,0,0,1,1.824-.488,2.431,2.431,0,0,1,1.224.28,2.164,2.164,0,0,1,.776.744,3.068,3.068,0,0,1,.4,1.08,7.285,7.285,0,0,1,.112,1.3Zm10.64-.432a8.822,8.822,0,0,1-.928.36,3.923,3.923,0,0,1-1.264.2,2.679,2.679,0,0,1-.784-.112,1.92,1.92,0,0,1-.648-.336,1.526,1.526,0,0,1-.44-.584,2.14,2.14,0,0,1-.16-.872V31.992h-1.1v-1.36h1.1V27.88h1.76v2.752h1.824v1.36h-1.824v4.672a.869.869,0,0,0,.28.648.95.95,0,0,0,.616.2,1.961,1.961,0,0,0,.7-.128q.336-.128.5-.208Zm4.768.592a4.348,4.348,0,0,1-1.784-.352,4.1,4.1,0,0,1-2.216-2.328,4.662,4.662,0,0,1,0-3.312,4.1,4.1,0,0,1,.872-1.384,4.258,4.258,0,0,1,1.36-.944,4.616,4.616,0,0,1,3.536,0,4.258,4.258,0,0,1,1.36.944,4.1,4.1,0,0,1,.872,1.384,4.662,4.662,0,0,1,0,3.312,4.1,4.1,0,0,1-.872,1.384,4.258,4.258,0,0,1-1.36.944A4.307,4.307,0,0,1,169.968,39.16Zm-2.5-4.32a3.166,3.166,0,0,0,.192,1.12,2.784,2.784,0,0,0,.528.888,2.469,2.469,0,0,0,.792.592,2.349,2.349,0,0,0,1.968,0,2.418,2.418,0,0,0,.792-.6,2.884,2.884,0,0,0,.528-.9,3.339,3.339,0,0,0,0-2.232,2.863,2.863,0,0,0-.528-.9,2.418,2.418,0,0,0-.792-.6,2.269,2.269,0,0,0-.984-.216,2.167,2.167,0,0,0-.968.224,2.517,2.517,0,0,0-.792.608,2.985,2.985,0,0,0-.536.9A3.071,3.071,0,0,0,167.472,34.84ZM184.3,39.16a3.375,3.375,0,0,1-2.96-1.68V39h-1.552V27.32h1.76v4.9a3.852,3.852,0,0,1,1.24-1.264,3.469,3.469,0,0,1,3.272-.1,3.728,3.728,0,0,1,1.176.96,4.375,4.375,0,0,1,.752,1.392,5.2,5.2,0,0,1,.264,1.656,4.606,4.606,0,0,1-.3,1.68,4.376,4.376,0,0,1-.832,1.368,3.848,3.848,0,0,1-1.256.92A3.678,3.678,0,0,1,184.3,39.16Zm-.464-1.5a2.394,2.394,0,0,0,1.056-.232,2.63,2.63,0,0,0,.824-.616,2.823,2.823,0,0,0,.536-.888,2.963,2.963,0,0,0,.192-1.064,3.214,3.214,0,0,0-.184-1.08,2.928,2.928,0,0,0-.512-.912,2.577,2.577,0,0,0-.784-.632,2.114,2.114,0,0,0-1-.24,2.194,2.194,0,0,0-1.448.528,3.515,3.515,0,0,0-.968,1.28v2.208a1.74,1.74,0,0,0,.336.664,2.738,2.738,0,0,0,.56.52,2.6,2.6,0,0,0,.688.344A2.27,2.27,0,0,0,183.84,37.656Zm9.792,1.5a4.451,4.451,0,0,1-1.776-.344,4.134,4.134,0,0,1-1.368-.936,4.22,4.22,0,0,1-.88-1.376,4.458,4.458,0,0,1-.312-1.664,4.52,4.52,0,0,1,.312-1.672,4.291,4.291,0,0,1,.88-1.392,4.075,4.075,0,0,1,1.368-.944,4.493,4.493,0,0,1,1.792-.344,4.307,4.307,0,0,1,1.768.352,4.227,4.227,0,0,1,1.352.936,4,4,0,0,1,.856,1.36,4.518,4.518,0,0,1,.3,1.624q0,.192-.016.36t-.032.28h-6.7a2.865,2.865,0,0,0,.264,1.008,2.653,2.653,0,0,0,.56.776,2.459,2.459,0,0,0,1.7.68,2.8,2.8,0,0,0,.7-.088,2.454,2.454,0,0,0,.632-.256,2.24,2.24,0,0,0,.512-.408,1.9,1.9,0,0,0,.352-.528l1.5.432a3.487,3.487,0,0,1-1.432,1.544A4.437,4.437,0,0,1,193.632,39.16Zm2.544-4.976a2.814,2.814,0,0,0-.264-.976,2.513,2.513,0,0,0-.552-.76,2.463,2.463,0,0,0-.784-.488,2.558,2.558,0,0,0-.944-.176,2.5,2.5,0,0,0-1.712.664,2.406,2.406,0,0,0-.544.76,2.929,2.929,0,0,0-.256.976Zm6.976,6.784q.24.048.472.08a2.877,2.877,0,0,0,.376.032.706.706,0,0,0,.36-.088,1.073,1.073,0,0,0,.312-.312,3.229,3.229,0,0,0,.328-.632q.168-.408.392-1.048l-3.44-8.368h1.808l2.592,6.816,2.3-6.816h1.664l-3.792,10.3a2.607,2.607,0,0,1-.888,1.208,2.581,2.581,0,0,1-1.624.488,3.493,3.493,0,0,1-.4-.024,2.557,2.557,0,0,1-.464-.1Zm11.936-1.808a4.348,4.348,0,0,1-1.784-.352,4.1,4.1,0,0,1-2.216-2.328,4.662,4.662,0,0,1,0-3.312,4.1,4.1,0,0,1,.872-1.384,4.258,4.258,0,0,1,1.36-.944,4.616,4.616,0,0,1,3.536,0,4.258,4.258,0,0,1,1.36.944,4.1,4.1,0,0,1,.872,1.384,4.662,4.662,0,0,1,0,3.312,4.1,4.1,0,0,1-.872,1.384,4.258,4.258,0,0,1-1.36.944A4.307,4.307,0,0,1,215.088,39.16Zm-2.5-4.32a3.166,3.166,0,0,0,.192,1.12,2.784,2.784,0,0,0,.528.888,2.469,2.469,0,0,0,.792.592,2.349,2.349,0,0,0,1.968,0,2.418,2.418,0,0,0,.792-.6,2.884,2.884,0,0,0,.528-.9,3.339,3.339,0,0,0,0-2.232,2.863,2.863,0,0,0-.528-.9,2.418,2.418,0,0,0-.792-.6,2.269,2.269,0,0,0-.984-.216,2.167,2.167,0,0,0-.968.224,2.517,2.517,0,0,0-.792.608,2.985,2.985,0,0,0-.536.9A3.071,3.071,0,0,0,212.592,34.84Zm10.944,4.32a2.369,2.369,0,0,1-1.984-.856,4.083,4.083,0,0,1-.672-2.552v-5.12h1.76V35.4q0,2.256,1.6,2.256a2.464,2.464,0,0,0,1.424-.464,2.974,2.974,0,0,0,1.04-1.344V30.632h1.76V36.92a.694.694,0,0,0,.1.432.5.5,0,0,0,.376.144V39q-.272.048-.448.064t-.336.016a1.28,1.28,0,0,1-.816-.264.872.872,0,0,1-.352-.68l-.032-.832a3.734,3.734,0,0,1-1.456,1.384A4.157,4.157,0,0,1,223.536,39.16Zm11.872-7.008a3.936,3.936,0,0,0-1.816.472,2.487,2.487,0,0,0-1.128,1.256V39H230.7V30.632h1.632V32.5a3.827,3.827,0,0,1,1.128-1.384,2.736,2.736,0,0,1,1.5-.568h.264a.945.945,0,0,1,.184.016ZM19.592,63.16a3.375,3.375,0,0,1-2.96-1.68V63H15.08V51.32h1.76v4.9a3.852,3.852,0,0,1,1.24-1.264,3.469,3.469,0,0,1,3.272-.1,3.728,3.728,0,0,1,1.176.96A4.375,4.375,0,0,1,23.28,57.2a5.2,5.2,0,0,1,.264,1.656,4.606,4.606,0,0,1-.3,1.68,4.376,4.376,0,0,1-.832,1.368,3.848,3.848,0,0,1-1.256.92A3.678,3.678,0,0,1,19.592,63.16Zm-.464-1.5a2.394,2.394,0,0,0,1.056-.232,2.63,2.63,0,0,0,.824-.616,2.823,2.823,0,0,0,.536-.888,2.963,2.963,0,0,0,.192-1.064,3.214,3.214,0,0,0-.184-1.08,2.928,2.928,0,0,0-.512-.912,2.577,2.577,0,0,0-.784-.632,2.114,2.114,0,0,0-1-.24,2.194,2.194,0,0,0-1.448.528,3.515,3.515,0,0,0-.968,1.28v2.208a1.74,1.74,0,0,0,.336.664,2.737,2.737,0,0,0,.56.52,2.6,2.6,0,0,0,.688.344A2.27,2.27,0,0,0,19.128,61.656Zm8.224,1.5a3.116,3.116,0,0,1-1.128-.2,2.727,2.727,0,0,1-.9-.552,2.574,2.574,0,0,1-.592-.832,2.5,2.5,0,0,1-.216-1.04,2.242,2.242,0,0,1,.256-1.072,2.505,2.505,0,0,1,.728-.832,3.534,3.534,0,0,1,1.12-.544,5.028,5.028,0,0,1,1.432-.192,6.56,6.56,0,0,1,1.168.1,5.882,5.882,0,0,1,1.04.28V57.7a1.94,1.94,0,0,0-.528-1.448,2.076,2.076,0,0,0-1.52-.52,3.665,3.665,0,0,0-1.32.248,6.678,6.678,0,0,0-1.336.712l-.544-1.12a5.933,5.933,0,0,1,3.36-1.088,3.832,3.832,0,0,1,2.688.88,3.257,3.257,0,0,1,.96,2.528V60.92q0,.56.464.576V63q-.256.048-.44.064t-.36.016a1.132,1.132,0,0,1-.792-.256,1.1,1.1,0,0,1-.344-.656L30.5,61.64a3.732,3.732,0,0,1-1.384,1.128A4.063,4.063,0,0,1,27.352,63.16Zm.48-1.3a3.164,3.164,0,0,0,1.208-.232,2.083,2.083,0,0,0,.888-.648.812.812,0,0,0,.336-.608v-1.1A5.32,5.32,0,0,0,29.312,59a5.253,5.253,0,0,0-.984-.1,2.691,2.691,0,0,0-1.544.408,1.25,1.25,0,0,0-.6,1.08,1.363,1.363,0,0,0,.464,1.048A1.687,1.687,0,0,0,27.832,61.864Zm5.776-3.056a4.562,4.562,0,0,1,.3-1.664,4.076,4.076,0,0,1,2.24-2.312,4.493,4.493,0,0,1,1.792-.344,4.221,4.221,0,0,1,2.232.568,3.6,3.6,0,0,1,1.4,1.512l-1.712.544a2.2,2.2,0,0,0-.816-.824,2.229,2.229,0,0,0-1.136-.3,2.343,2.343,0,0,0-.984.208,2.371,2.371,0,0,0-.792.584,2.784,2.784,0,0,0-.528.888,3.213,3.213,0,0,0-.192,1.136,3.116,3.116,0,0,0,.2,1.128,2.9,2.9,0,0,0,.544.9,2.505,2.505,0,0,0,.8.6,2.233,2.233,0,0,0,.968.216,2.4,2.4,0,0,0,.64-.088,2.288,2.288,0,0,0,1.048-.616,1.393,1.393,0,0,0,.3-.448l1.728.512a3.422,3.422,0,0,1-1.392,1.544,4.312,4.312,0,0,1-2.3.6,4.363,4.363,0,0,1-1.776-.352,4.174,4.174,0,0,1-1.368-.952,4.312,4.312,0,0,1-.88-1.384A4.459,4.459,0,0,1,33.608,58.808ZM48.92,63l-2.672-3.856-1.392,1.312V63H43.1V51.32h1.76v7.408l3.84-4.08h1.92l-3.248,3.5L50.792,63Zm7.456.16a3.375,3.375,0,0,1-2.96-1.68V63H51.864V51.32h1.76v4.9a3.852,3.852,0,0,1,1.24-1.264,3.469,3.469,0,0,1,3.272-.1,3.728,3.728,0,0,1,1.176.96,4.375,4.375,0,0,1,.752,1.392,5.2,5.2,0,0,1,.264,1.656,4.606,4.606,0,0,1-.3,1.68,4.376,4.376,0,0,1-.832,1.368,3.848,3.848,0,0,1-1.256.92A3.678,3.678,0,0,1,56.376,63.16Zm-.464-1.5a2.394,2.394,0,0,0,1.056-.232,2.63,2.63,0,0,0,.824-.616,2.823,2.823,0,0,0,.536-.888,2.963,2.963,0,0,0,.192-1.064,3.214,3.214,0,0,0-.184-1.08,2.928,2.928,0,0,0-.512-.912,2.577,2.577,0,0,0-.784-.632,2.114,2.114,0,0,0-1-.24,2.194,2.194,0,0,0-1.448.528,3.515,3.515,0,0,0-.968,1.28v2.208a1.74,1.74,0,0,0,.336.664,2.737,2.737,0,0,0,.56.52,2.6,2.6,0,0,0,.688.344A2.27,2.27,0,0,0,55.912,61.656Zm9.76,1.5a4.347,4.347,0,0,1-1.784-.352,4.1,4.1,0,0,1-2.216-2.328,4.662,4.662,0,0,1,0-3.312,4.1,4.1,0,0,1,.872-1.384,4.258,4.258,0,0,1,1.36-.944,4.616,4.616,0,0,1,3.536,0,4.258,4.258,0,0,1,1.36.944,4.1,4.1,0,0,1,.872,1.384,4.662,4.662,0,0,1,0,3.312,4.1,4.1,0,0,1-.872,1.384,4.258,4.258,0,0,1-1.36.944A4.307,4.307,0,0,1,65.672,63.16Zm-2.5-4.32a3.166,3.166,0,0,0,.192,1.12,2.784,2.784,0,0,0,.528.888,2.469,2.469,0,0,0,.792.592,2.349,2.349,0,0,0,1.968,0,2.418,2.418,0,0,0,.792-.6,2.883,2.883,0,0,0,.528-.9,3.339,3.339,0,0,0,0-2.232,2.863,2.863,0,0,0-.528-.9,2.418,2.418,0,0,0-.792-.6,2.269,2.269,0,0,0-.984-.216,2.167,2.167,0,0,0-.968.224,2.517,2.517,0,0,0-.792.608,2.985,2.985,0,0,0-.536.9A3.071,3.071,0,0,0,63.176,58.84ZM79.048,63h-1.76V58.312a3.056,3.056,0,0,0-.376-1.72,1.271,1.271,0,0,0-1.112-.536,2.174,2.174,0,0,0-.768.144,2.69,2.69,0,0,0-.72.408,3.178,3.178,0,0,0-.6.624,2.859,2.859,0,0,0-.408.792V63h-1.76V54.632h1.6v1.68a3.4,3.4,0,0,1,1.392-1.336,4.2,4.2,0,0,1,2.016-.488,2.479,2.479,0,0,1,1.232.272,2.035,2.035,0,0,1,.76.744,3.255,3.255,0,0,1,.392,1.088,7.284,7.284,0,0,1,.112,1.3Zm5.84.16a4.451,4.451,0,0,1-1.776-.344,4.134,4.134,0,0,1-1.368-.936,4.22,4.22,0,0,1-.88-1.376,4.459,4.459,0,0,1-.312-1.664,4.52,4.52,0,0,1,.312-1.672,4.291,4.291,0,0,1,.88-1.392,4.075,4.075,0,0,1,1.368-.944,4.493,4.493,0,0,1,1.792-.344,4.307,4.307,0,0,1,1.768.352,4.227,4.227,0,0,1,1.352.936,4,4,0,0,1,.856,1.36,4.518,4.518,0,0,1,.3,1.624q0,.192-.016.36t-.032.28h-6.7a2.865,2.865,0,0,0,.264,1.008,2.653,2.653,0,0,0,.56.776,2.459,2.459,0,0,0,1.7.68,2.8,2.8,0,0,0,.7-.088,2.454,2.454,0,0,0,.632-.256,2.24,2.24,0,0,0,.512-.408,1.9,1.9,0,0,0,.352-.528l1.5.432a3.487,3.487,0,0,1-1.432,1.544A4.437,4.437,0,0,1,84.888,63.16Zm2.544-4.976a2.814,2.814,0,0,0-.264-.976,2.513,2.513,0,0,0-.552-.76,2.463,2.463,0,0,0-.784-.488,2.558,2.558,0,0,0-.944-.176,2.5,2.5,0,0,0-1.712.664,2.406,2.406,0,0,0-.544.76,2.929,2.929,0,0,0-.256.976Zm3.3,6.368.384-1.648h-.576V60.952H92.12V62.9l-.56,1.648Zm12.032-1.984a8.821,8.821,0,0,1-.928.36,3.923,3.923,0,0,1-1.264.2,2.679,2.679,0,0,1-.784-.112,1.921,1.921,0,0,1-.648-.336,1.526,1.526,0,0,1-.44-.584,2.14,2.14,0,0,1-.16-.872V55.992h-1.1v-1.36h1.1V51.88h1.76v2.752h1.824v1.36H100.3v4.672a.869.869,0,0,0,.28.648.95.95,0,0,0,.616.2,1.961,1.961,0,0,0,.7-.128q.336-.128.5-.208Zm4.768.592a4.348,4.348,0,0,1-1.784-.352,4.1,4.1,0,0,1-2.216-2.328,4.662,4.662,0,0,1,0-3.312,4.1,4.1,0,0,1,.872-1.384,4.258,4.258,0,0,1,1.36-.944,4.616,4.616,0,0,1,3.536,0,4.258,4.258,0,0,1,1.36.944,4.1,4.1,0,0,1,.872,1.384,4.662,4.662,0,0,1,0,3.312,4.1,4.1,0,0,1-.872,1.384,4.258,4.258,0,0,1-1.36.944A4.307,4.307,0,0,1,107.528,63.16Zm-2.5-4.32a3.166,3.166,0,0,0,.192,1.12,2.784,2.784,0,0,0,.528.888,2.469,2.469,0,0,0,.792.592,2.349,2.349,0,0,0,1.968,0,2.418,2.418,0,0,0,.792-.6,2.883,2.883,0,0,0,.528-.9,3.339,3.339,0,0,0,0-2.232,2.863,2.863,0,0,0-.528-.9,2.418,2.418,0,0,0-.792-.6,2.269,2.269,0,0,0-.984-.216,2.167,2.167,0,0,0-.968.224,2.517,2.517,0,0,0-.792.608,2.986,2.986,0,0,0-.536.9A3.071,3.071,0,0,0,105.032,58.84Zm16.832,4.32a3.375,3.375,0,0,1-2.96-1.68V63h-1.552V51.32h1.76v4.9a3.852,3.852,0,0,1,1.24-1.264,3.469,3.469,0,0,1,3.272-.1,3.728,3.728,0,0,1,1.176.96,4.375,4.375,0,0,1,.752,1.392,5.2,5.2,0,0,1,.264,1.656,4.606,4.606,0,0,1-.3,1.68,4.376,4.376,0,0,1-.832,1.368,3.848,3.848,0,0,1-1.256.92A3.678,3.678,0,0,1,121.864,63.16Zm-.464-1.5a2.394,2.394,0,0,0,1.056-.232,2.63,2.63,0,0,0,.824-.616,2.823,2.823,0,0,0,.536-.888,2.963,2.963,0,0,0,.192-1.064,3.214,3.214,0,0,0-.184-1.08,2.928,2.928,0,0,0-.512-.912,2.577,2.577,0,0,0-.784-.632,2.114,2.114,0,0,0-1-.24,2.194,2.194,0,0,0-1.448.528,3.515,3.515,0,0,0-.968,1.28v2.208a1.74,1.74,0,0,0,.336.664,2.737,2.737,0,0,0,.56.52,2.6,2.6,0,0,0,.688.344A2.27,2.27,0,0,0,121.4,61.656Zm9.792,1.5a4.451,4.451,0,0,1-1.776-.344,4.134,4.134,0,0,1-1.368-.936,4.22,4.22,0,0,1-.88-1.376,4.459,4.459,0,0,1-.312-1.664,4.52,4.52,0,0,1,.312-1.672,4.291,4.291,0,0,1,.88-1.392,4.075,4.075,0,0,1,1.368-.944,4.493,4.493,0,0,1,1.792-.344,4.307,4.307,0,0,1,1.768.352,4.227,4.227,0,0,1,1.352.936,4,4,0,0,1,.856,1.36,4.518,4.518,0,0,1,.3,1.624q0,.192-.016.36t-.032.28h-6.7a2.865,2.865,0,0,0,.264,1.008,2.653,2.653,0,0,0,.56.776,2.459,2.459,0,0,0,1.7.68,2.8,2.8,0,0,0,.7-.088,2.454,2.454,0,0,0,.632-.256,2.24,2.24,0,0,0,.512-.408,1.9,1.9,0,0,0,.352-.528l1.5.432a3.487,3.487,0,0,1-1.432,1.544A4.437,4.437,0,0,1,131.192,63.16Zm2.544-4.976a2.814,2.814,0,0,0-.264-.976,2.513,2.513,0,0,0-.552-.76,2.463,2.463,0,0,0-.784-.488,2.558,2.558,0,0,0-.944-.176,2.5,2.5,0,0,0-1.712.664,2.406,2.406,0,0,0-.544.76,2.929,2.929,0,0,0-.256.976Zm11.792,4.384a8.822,8.822,0,0,1-.928.36,3.923,3.923,0,0,1-1.264.2,2.679,2.679,0,0,1-.784-.112,1.92,1.92,0,0,1-.648-.336,1.526,1.526,0,0,1-.44-.584,2.14,2.14,0,0,1-.16-.872V55.992h-1.1v-1.36h1.1V51.88h1.76v2.752h1.824v1.36h-1.824v4.672a.869.869,0,0,0,.28.648.95.95,0,0,0,.616.2,1.961,1.961,0,0,0,.7-.128q.336-.128.5-.208Zm8.72.432h-1.76V58.312a2.875,2.875,0,0,0-.408-1.7,1.373,1.373,0,0,0-1.176-.552,2.007,2.007,0,0,0-.736.144,2.645,2.645,0,0,0-.7.408,3.1,3.1,0,0,0-.584.624,2.661,2.661,0,0,0-.384.792V63h-1.76V51.32h1.76v4.992a3.473,3.473,0,0,1,1.3-1.344,3.513,3.513,0,0,1,1.8-.48,2.633,2.633,0,0,1,1.288.28,2.261,2.261,0,0,1,.808.744,2.993,2.993,0,0,1,.424,1.08,6.812,6.812,0,0,1,.12,1.3Zm5.84.16a4.451,4.451,0,0,1-1.776-.344,4.134,4.134,0,0,1-1.368-.936,4.22,4.22,0,0,1-.88-1.376,4.458,4.458,0,0,1-.312-1.664,4.52,4.52,0,0,1,.312-1.672,4.291,4.291,0,0,1,.88-1.392,4.075,4.075,0,0,1,1.368-.944,4.493,4.493,0,0,1,1.792-.344,4.307,4.307,0,0,1,1.768.352,4.227,4.227,0,0,1,1.352.936,4,4,0,0,1,.856,1.36,4.518,4.518,0,0,1,.3,1.624q0,.192-.016.36t-.032.28h-6.7a2.865,2.865,0,0,0,.264,1.008,2.653,2.653,0,0,0,.56.776,2.459,2.459,0,0,0,1.7.68,2.8,2.8,0,0,0,.7-.088,2.454,2.454,0,0,0,.632-.256,2.24,2.24,0,0,0,.512-.408,1.9,1.9,0,0,0,.352-.528l1.5.432a3.487,3.487,0,0,1-1.432,1.544A4.437,4.437,0,0,1,160.088,63.16Zm2.544-4.976a2.814,2.814,0,0,0-.264-.976,2.513,2.513,0,0,0-.552-.76,2.463,2.463,0,0,0-.784-.488,2.558,2.558,0,0,0-.944-.176,2.5,2.5,0,0,0-1.712.664,2.406,2.406,0,0,0-.544.76,2.929,2.929,0,0,0-.256.976Zm10.176,4.976a6.409,6.409,0,0,1-2.008-.328,5.092,5.092,0,0,1-1.72-.936l.7-1.12a6.5,6.5,0,0,0,1.488.824,4.2,4.2,0,0,0,1.5.28,2.21,2.21,0,0,0,1.24-.3.978.978,0,0,0,.456-.864.8.8,0,0,0-.512-.768,10.246,10.246,0,0,0-1.6-.528q-.784-.208-1.344-.4a3.459,3.459,0,0,1-.912-.448,1.572,1.572,0,0,1-.512-.592,1.887,1.887,0,0,1-.16-.816,2.507,2.507,0,0,1,.248-1.136,2.438,2.438,0,0,1,.688-.84,3.082,3.082,0,0,1,1.032-.52,4.473,4.473,0,0,1,1.28-.176,5.251,5.251,0,0,1,1.76.288,4.58,4.58,0,0,1,1.456.832l-.752,1.056a3.923,3.923,0,0,0-2.48-.928,2.119,2.119,0,0,0-1.128.28.965.965,0,0,0-.456.888.892.892,0,0,0,.1.432.815.815,0,0,0,.312.3,2.57,2.57,0,0,0,.56.232q.344.1.856.232.848.208,1.464.416a4.009,4.009,0,0,1,1.016.488,1.81,1.81,0,0,1,.592.656,1.967,1.967,0,0,1,.192.9,2.264,2.264,0,0,1-.9,1.9A3.929,3.929,0,0,1,172.808,63.16Zm7.472,0A2.369,2.369,0,0,1,178.3,62.3a4.083,4.083,0,0,1-.672-2.552v-5.12h1.76V59.4q0,2.256,1.6,2.256a2.464,2.464,0,0,0,1.424-.464,2.974,2.974,0,0,0,1.04-1.344V54.632h1.76V60.92a.694.694,0,0,0,.1.432.5.5,0,0,0,.376.144V63q-.272.048-.448.064t-.336.016a1.28,1.28,0,0,1-.816-.264.872.872,0,0,1-.352-.68L183.7,61.3a3.734,3.734,0,0,1-1.456,1.384A4.157,4.157,0,0,1,180.28,63.16Zm11.92,0a3.281,3.281,0,0,1-1.776-.48,3.583,3.583,0,0,1-1.216-1.248v4.976h-1.76V54.632H189v1.5a3.655,3.655,0,0,1,1.24-1.2,3.323,3.323,0,0,1,1.72-.448,3.557,3.557,0,0,1,1.584.352,4.023,4.023,0,0,1,1.248.944,4.357,4.357,0,0,1,.824,1.376,4.626,4.626,0,0,1,.3,1.648,5.212,5.212,0,0,1-.272,1.7,4.216,4.216,0,0,1-.768,1.376,3.749,3.749,0,0,1-1.176.928A3.266,3.266,0,0,1,192.2,63.16Zm-.576-1.5a2.148,2.148,0,0,0,1.016-.24,2.525,2.525,0,0,0,.784-.64,2.923,2.923,0,0,0,.5-.912,3.226,3.226,0,0,0,.176-1.056,2.963,2.963,0,0,0-.2-1.088,2.922,2.922,0,0,0-.544-.9,2.529,2.529,0,0,0-.824-.608,2.429,2.429,0,0,0-1.04-.224,2.142,2.142,0,0,0-.7.128,2.8,2.8,0,0,0-.688.352,2.737,2.737,0,0,0-.56.52,1.753,1.753,0,0,0-.336.648v2.192a3.24,3.24,0,0,0,.416.72,3.063,3.063,0,0,0,.568.576,2.758,2.758,0,0,0,.68.384A2.047,2.047,0,0,0,191.624,61.656Zm10.624,1.5a3.281,3.281,0,0,1-1.776-.48,3.583,3.583,0,0,1-1.216-1.248v4.976H197.5V54.632h1.552v1.5a3.655,3.655,0,0,1,1.24-1.2,3.323,3.323,0,0,1,1.72-.448,3.557,3.557,0,0,1,1.584.352,4.023,4.023,0,0,1,1.248.944,4.357,4.357,0,0,1,.824,1.376,4.626,4.626,0,0,1,.3,1.648,5.212,5.212,0,0,1-.272,1.7,4.216,4.216,0,0,1-.768,1.376,3.749,3.749,0,0,1-1.176.928A3.266,3.266,0,0,1,202.248,63.16Zm-.576-1.5a2.148,2.148,0,0,0,1.016-.24,2.525,2.525,0,0,0,.784-.64,2.923,2.923,0,0,0,.5-.912,3.226,3.226,0,0,0,.176-1.056,2.963,2.963,0,0,0-.2-1.088,2.922,2.922,0,0,0-.544-.9,2.529,2.529,0,0,0-.824-.608,2.429,2.429,0,0,0-1.04-.224,2.142,2.142,0,0,0-.7.128,2.8,2.8,0,0,0-.688.352,2.737,2.737,0,0,0-.56.52,1.753,1.753,0,0,0-.336.648v2.192a3.24,3.24,0,0,0,.416.72,3.063,3.063,0,0,0,.568.576,2.758,2.758,0,0,0,.68.384A2.047,2.047,0,0,0,201.672,61.656Zm9.632,1.5a4.348,4.348,0,0,1-1.784-.352A4.1,4.1,0,0,1,207.3,60.48a4.662,4.662,0,0,1,0-3.312,4.1,4.1,0,0,1,.872-1.384,4.258,4.258,0,0,1,1.36-.944,4.616,4.616,0,0,1,3.536,0,4.258,4.258,0,0,1,1.36.944,4.1,4.1,0,0,1,.872,1.384,4.662,4.662,0,0,1,0,3.312,4.1,4.1,0,0,1-.872,1.384,4.258,4.258,0,0,1-1.36.944A4.307,4.307,0,0,1,211.3,63.16Zm-2.5-4.32A3.166,3.166,0,0,0,209,59.96a2.784,2.784,0,0,0,.528.888,2.469,2.469,0,0,0,.792.592,2.349,2.349,0,0,0,1.968,0,2.418,2.418,0,0,0,.792-.6,2.884,2.884,0,0,0,.528-.9,3.339,3.339,0,0,0,0-2.232,2.863,2.863,0,0,0-.528-.9,2.418,2.418,0,0,0-.792-.6,2.269,2.269,0,0,0-.984-.216,2.167,2.167,0,0,0-.968.224,2.517,2.517,0,0,0-.792.608,2.985,2.985,0,0,0-.536.9A3.071,3.071,0,0,0,208.808,58.84Zm13.072-2.688a3.936,3.936,0,0,0-1.816.472,2.487,2.487,0,0,0-1.128,1.256V63h-1.76V54.632h1.632V56.5a3.827,3.827,0,0,1,1.128-1.384,2.736,2.736,0,0,1,1.5-.568h.264a.945.945,0,0,1,.184.016Zm5.936,6.416a8.822,8.822,0,0,1-.928.36,3.923,3.923,0,0,1-1.264.2,2.679,2.679,0,0,1-.784-.112,1.92,1.92,0,0,1-.648-.336,1.526,1.526,0,0,1-.44-.584,2.14,2.14,0,0,1-.16-.872V55.992h-1.1v-1.36h1.1V51.88h1.76v2.752h1.824v1.36h-1.824v4.672a.869.869,0,0,0,.28.648.95.95,0,0,0,.616.2,1.961,1.961,0,0,0,.7-.128q.336-.128.5-.208ZM11.352,87.16a6.409,6.409,0,0,1-2.008-.328,5.092,5.092,0,0,1-1.72-.936l.7-1.12a6.5,6.5,0,0,0,1.488.824,4.2,4.2,0,0,0,1.5.28,2.21,2.21,0,0,0,1.24-.3.978.978,0,0,0,.456-.864.8.8,0,0,0-.512-.768,10.246,10.246,0,0,0-1.6-.528q-.784-.208-1.344-.4a3.459,3.459,0,0,1-.912-.448,1.573,1.573,0,0,1-.512-.592,1.887,1.887,0,0,1-.16-.816,2.507,2.507,0,0,1,.248-1.136,2.438,2.438,0,0,1,.688-.84,3.082,3.082,0,0,1,1.032-.52,4.473,4.473,0,0,1,1.28-.176,5.251,5.251,0,0,1,1.76.288,4.58,4.58,0,0,1,1.456.832l-.752,1.056a3.923,3.923,0,0,0-2.48-.928,2.119,2.119,0,0,0-1.128.28.965.965,0,0,0-.456.888.892.892,0,0,0,.1.432.815.815,0,0,0,.312.3,2.57,2.57,0,0,0,.56.232q.344.1.856.232.848.208,1.464.416a4.008,4.008,0,0,1,1.016.488,1.81,1.81,0,0,1,.592.656,1.967,1.967,0,0,1,.192.9,2.264,2.264,0,0,1-.9,1.9A3.929,3.929,0,0,1,11.352,87.16Zm5.024,1.808q.24.048.472.08a2.876,2.876,0,0,0,.376.032.706.706,0,0,0,.36-.088,1.073,1.073,0,0,0,.312-.312,3.229,3.229,0,0,0,.328-.632q.168-.408.392-1.048l-3.44-8.368h1.808l2.592,6.816,2.3-6.816h1.664l-3.792,10.3a2.607,2.607,0,0,1-.888,1.208,2.581,2.581,0,0,1-1.624.488,3.492,3.492,0,0,1-.4-.024,2.556,2.556,0,0,1-.464-.1ZM27.688,87.16a6.409,6.409,0,0,1-2.008-.328,5.092,5.092,0,0,1-1.72-.936l.7-1.12a6.5,6.5,0,0,0,1.488.824,4.2,4.2,0,0,0,1.5.28,2.21,2.21,0,0,0,1.24-.3.978.978,0,0,0,.456-.864.8.8,0,0,0-.512-.768,10.246,10.246,0,0,0-1.6-.528q-.784-.208-1.344-.4a3.459,3.459,0,0,1-.912-.448,1.573,1.573,0,0,1-.512-.592,1.887,1.887,0,0,1-.16-.816,2.507,2.507,0,0,1,.248-1.136,2.438,2.438,0,0,1,.688-.84,3.082,3.082,0,0,1,1.032-.52,4.473,4.473,0,0,1,1.28-.176,5.251,5.251,0,0,1,1.76.288,4.58,4.58,0,0,1,1.456.832l-.752,1.056a3.923,3.923,0,0,0-2.48-.928,2.119,2.119,0,0,0-1.128.28.965.965,0,0,0-.456.888.892.892,0,0,0,.1.432.815.815,0,0,0,.312.3,2.57,2.57,0,0,0,.56.232q.344.1.856.232.848.208,1.464.416a4.008,4.008,0,0,1,1.016.488,1.81,1.81,0,0,1,.592.656,1.967,1.967,0,0,1,.192.9,2.264,2.264,0,0,1-.9,1.9A3.929,3.929,0,0,1,27.688,87.16Zm9.552-.592a8.822,8.822,0,0,1-.928.36,3.923,3.923,0,0,1-1.264.2,2.679,2.679,0,0,1-.784-.112,1.921,1.921,0,0,1-.648-.336,1.526,1.526,0,0,1-.44-.584,2.14,2.14,0,0,1-.16-.872V79.992h-1.1v-1.36h1.1V75.88h1.76v2.752H36.6v1.36H34.776v4.672a.869.869,0,0,0,.28.648.95.95,0,0,0,.616.2,1.961,1.961,0,0,0,.7-.128q.336-.128.5-.208Zm4.8.592a4.451,4.451,0,0,1-1.776-.344A4.133,4.133,0,0,1,38.9,85.88a4.22,4.22,0,0,1-.88-1.376A4.458,4.458,0,0,1,37.7,82.84a4.52,4.52,0,0,1,.312-1.672,4.291,4.291,0,0,1,.88-1.392,4.075,4.075,0,0,1,1.368-.944,4.493,4.493,0,0,1,1.792-.344,4.307,4.307,0,0,1,1.768.352,4.227,4.227,0,0,1,1.352.936,4,4,0,0,1,.856,1.36,4.518,4.518,0,0,1,.3,1.624q0,.192-.016.36t-.032.28h-6.7a2.865,2.865,0,0,0,.264,1.008,2.653,2.653,0,0,0,.56.776,2.459,2.459,0,0,0,1.7.68,2.8,2.8,0,0,0,.7-.088,2.454,2.454,0,0,0,.632-.256,2.24,2.24,0,0,0,.512-.408,1.9,1.9,0,0,0,.352-.528l1.5.432a3.487,3.487,0,0,1-1.432,1.544A4.437,4.437,0,0,1,42.04,87.16Zm2.544-4.976a2.814,2.814,0,0,0-.264-.976,2.513,2.513,0,0,0-.552-.76,2.463,2.463,0,0,0-.784-.488,2.558,2.558,0,0,0-.944-.176,2.5,2.5,0,0,0-1.712.664,2.406,2.406,0,0,0-.544.76,2.929,2.929,0,0,0-.256.976ZM60.568,87h-1.76V82.312a3.01,3.01,0,0,0-.384-1.712,1.285,1.285,0,0,0-1.12-.544,2,2,0,0,0-1.368.552,3.107,3.107,0,0,0-.888,1.432V87h-1.76V82.312a3,3,0,0,0-.384-1.72,1.275,1.275,0,0,0-1.1-.536,2.047,2.047,0,0,0-1.376.544,3.025,3.025,0,0,0-.9,1.424V87h-1.76V78.632h1.6v1.68a3.536,3.536,0,0,1,1.3-1.352,3.6,3.6,0,0,1,1.848-.472,2.238,2.238,0,0,1,2.384,1.9,3.831,3.831,0,0,1,1.328-1.416,3.432,3.432,0,0,1,1.824-.488,2.431,2.431,0,0,1,1.224.28,2.164,2.164,0,0,1,.776.744,3.068,3.068,0,0,1,.4,1.08,7.285,7.285,0,0,1,.112,1.3Zm5.824,1.968q.24.048.472.08a2.876,2.876,0,0,0,.376.032.706.706,0,0,0,.36-.088,1.073,1.073,0,0,0,.312-.312,3.229,3.229,0,0,0,.328-.632q.168-.408.392-1.048l-3.44-8.368H67l2.592,6.816,2.3-6.816H73.56l-3.792,10.3a2.607,2.607,0,0,1-.888,1.208,2.581,2.581,0,0,1-1.624.488,3.493,3.493,0,0,1-.4-.024,2.556,2.556,0,0,1-.464-.1ZM78.328,87.16a4.347,4.347,0,0,1-1.784-.352,4.1,4.1,0,0,1-2.216-2.328,4.662,4.662,0,0,1,0-3.312,4.1,4.1,0,0,1,.872-1.384,4.258,4.258,0,0,1,1.36-.944,4.616,4.616,0,0,1,3.536,0,4.258,4.258,0,0,1,1.36.944,4.1,4.1,0,0,1,.872,1.384,4.662,4.662,0,0,1,0,3.312,4.1,4.1,0,0,1-.872,1.384,4.258,4.258,0,0,1-1.36.944A4.307,4.307,0,0,1,78.328,87.16Zm-2.5-4.32a3.166,3.166,0,0,0,.192,1.12,2.784,2.784,0,0,0,.528.888,2.469,2.469,0,0,0,.792.592,2.349,2.349,0,0,0,1.968,0,2.418,2.418,0,0,0,.792-.6,2.883,2.883,0,0,0,.528-.9,3.339,3.339,0,0,0,0-2.232,2.863,2.863,0,0,0-.528-.9,2.418,2.418,0,0,0-.792-.6,2.269,2.269,0,0,0-.984-.216,2.167,2.167,0,0,0-.968.224,2.517,2.517,0,0,0-.792.608,2.986,2.986,0,0,0-.536.9A3.071,3.071,0,0,0,75.832,82.84Zm10.944,4.32a2.369,2.369,0,0,1-1.984-.856,4.083,4.083,0,0,1-.672-2.552v-5.12h1.76V83.4q0,2.256,1.6,2.256a2.464,2.464,0,0,0,1.424-.464,2.974,2.974,0,0,0,1.04-1.344V78.632H91.7V84.92a.694.694,0,0,0,.1.432.5.5,0,0,0,.376.144V87q-.272.048-.448.064t-.336.016a1.28,1.28,0,0,1-.816-.264.872.872,0,0,1-.352-.68L90.2,85.3a3.734,3.734,0,0,1-1.456,1.384A4.157,4.157,0,0,1,86.776,87.16ZM105.4,87h-1.76V82.312a3.056,3.056,0,0,0-.376-1.72,1.271,1.271,0,0,0-1.112-.536,2.174,2.174,0,0,0-.768.144,2.689,2.689,0,0,0-.72.408,3.178,3.178,0,0,0-.6.624,2.859,2.859,0,0,0-.408.792V87H97.9V78.632h1.6v1.68a3.4,3.4,0,0,1,1.392-1.336,4.2,4.2,0,0,1,2.016-.488,2.479,2.479,0,0,1,1.232.272,2.035,2.035,0,0,1,.76.744,3.255,3.255,0,0,1,.392,1.088,7.284,7.284,0,0,1,.112,1.3Zm5.84.16a4.451,4.451,0,0,1-1.776-.344,4.133,4.133,0,0,1-1.368-.936,4.22,4.22,0,0,1-.88-1.376,4.458,4.458,0,0,1-.312-1.664,4.52,4.52,0,0,1,.312-1.672,4.291,4.291,0,0,1,.88-1.392,4.075,4.075,0,0,1,1.368-.944,4.493,4.493,0,0,1,1.792-.344,4.307,4.307,0,0,1,1.768.352,4.227,4.227,0,0,1,1.352.936,4,4,0,0,1,.856,1.36,4.518,4.518,0,0,1,.3,1.624q0,.192-.016.36t-.032.28h-6.7a2.865,2.865,0,0,0,.264,1.008,2.653,2.653,0,0,0,.56.776,2.459,2.459,0,0,0,1.7.68,2.8,2.8,0,0,0,.7-.088,2.454,2.454,0,0,0,.632-.256,2.24,2.24,0,0,0,.512-.408,1.9,1.9,0,0,0,.352-.528l1.5.432a3.487,3.487,0,0,1-1.432,1.544A4.437,4.437,0,0,1,111.24,87.16Zm2.544-4.976a2.814,2.814,0,0,0-.264-.976,2.513,2.513,0,0,0-.552-.76,2.463,2.463,0,0,0-.784-.488,2.558,2.558,0,0,0-.944-.176,2.5,2.5,0,0,0-1.712.664,2.406,2.406,0,0,0-.544.76,2.929,2.929,0,0,0-.256.976Zm6.976,4.976a4.451,4.451,0,0,1-1.776-.344,4.133,4.133,0,0,1-1.368-.936,4.22,4.22,0,0,1-.88-1.376,4.458,4.458,0,0,1-.312-1.664,4.52,4.52,0,0,1,.312-1.672,4.291,4.291,0,0,1,.88-1.392,4.075,4.075,0,0,1,1.368-.944,4.493,4.493,0,0,1,1.792-.344,4.307,4.307,0,0,1,1.768.352,4.227,4.227,0,0,1,1.352.936,4,4,0,0,1,.856,1.36,4.518,4.518,0,0,1,.3,1.624q0,.192-.016.36T125,83.4h-6.7a2.865,2.865,0,0,0,.264,1.008,2.653,2.653,0,0,0,.56.776,2.459,2.459,0,0,0,1.7.68,2.8,2.8,0,0,0,.7-.088,2.454,2.454,0,0,0,.632-.256,2.24,2.24,0,0,0,.512-.408,1.9,1.9,0,0,0,.352-.528l1.5.432a3.487,3.487,0,0,1-1.432,1.544A4.437,4.437,0,0,1,120.76,87.16Zm2.544-4.976a2.814,2.814,0,0,0-.264-.976,2.513,2.513,0,0,0-.552-.76,2.463,2.463,0,0,0-.784-.488,2.558,2.558,0,0,0-.944-.176,2.5,2.5,0,0,0-1.712.664,2.406,2.406,0,0,0-.544.76,2.929,2.929,0,0,0-.256.976ZM129.9,87.16a3.59,3.59,0,0,1-1.568-.344,3.919,3.919,0,0,1-1.248-.936,4.337,4.337,0,0,1-.824-1.384,5.045,5.045,0,0,1-.016-3.36,4.383,4.383,0,0,1,.784-1.368,3.788,3.788,0,0,1,1.184-.936,3.453,3.453,0,0,1,3.272.144,3.555,3.555,0,0,1,1.2,1.24v-4.9h1.76v9.6a.694.694,0,0,0,.1.432.5.5,0,0,0,.376.144V87q-.272.048-.44.064t-.28.016a1.33,1.33,0,0,1-.864-.272.961.961,0,0,1-.368-.7l-.032-.624a3.338,3.338,0,0,1-1.264,1.232A3.572,3.572,0,0,1,129.9,87.16Zm.432-1.5a2.416,2.416,0,0,0,.768-.128,2.72,2.72,0,0,0,.7-.352,2.474,2.474,0,0,0,.552-.528,1.9,1.9,0,0,0,.328-.656V81.8a2.621,2.621,0,0,0-.408-.736,2.919,2.919,0,0,0-.6-.576,2.74,2.74,0,0,0-.712-.368,2.344,2.344,0,0,0-.76-.128,1.988,1.988,0,0,0-.968.24,2.5,2.5,0,0,0-.76.64,3.155,3.155,0,0,0-.5.912,3.1,3.1,0,0,0-.184,1.056,2.963,2.963,0,0,0,.2,1.088,2.842,2.842,0,0,0,.552.9,2.709,2.709,0,0,0,.808.608A2.2,2.2,0,0,0,130.328,85.656Zm14.96.912a8.823,8.823,0,0,1-.928.36,3.923,3.923,0,0,1-1.264.2,2.679,2.679,0,0,1-.784-.112,1.921,1.921,0,0,1-.648-.336,1.526,1.526,0,0,1-.44-.584,2.14,2.14,0,0,1-.16-.872V79.992h-1.1v-1.36h1.1V75.88h1.76v2.752h1.824v1.36h-1.824v4.672a.869.869,0,0,0,.28.648.95.95,0,0,0,.616.2,1.961,1.961,0,0,0,.7-.128q.336-.128.5-.208Zm4.768.592a4.347,4.347,0,0,1-1.784-.352,4.1,4.1,0,0,1-2.216-2.328,4.662,4.662,0,0,1,0-3.312,4.1,4.1,0,0,1,.872-1.384,4.258,4.258,0,0,1,1.36-.944,4.616,4.616,0,0,1,3.536,0,4.258,4.258,0,0,1,1.36.944,4.1,4.1,0,0,1,.872,1.384,4.662,4.662,0,0,1,0,3.312,4.1,4.1,0,0,1-.872,1.384,4.258,4.258,0,0,1-1.36.944A4.307,4.307,0,0,1,150.056,87.16Zm-2.5-4.32a3.166,3.166,0,0,0,.192,1.12,2.784,2.784,0,0,0,.528.888,2.47,2.47,0,0,0,.792.592,2.349,2.349,0,0,0,1.968,0,2.418,2.418,0,0,0,.792-.6,2.884,2.884,0,0,0,.528-.9,3.339,3.339,0,0,0,0-2.232,2.863,2.863,0,0,0-.528-.9,2.418,2.418,0,0,0-.792-.6,2.269,2.269,0,0,0-.984-.216,2.167,2.167,0,0,0-.968.224,2.517,2.517,0,0,0-.792.608,2.985,2.985,0,0,0-.536.9A3.071,3.071,0,0,0,147.56,82.84ZM172.68,87h-1.76V82.312a3.01,3.01,0,0,0-.384-1.712,1.285,1.285,0,0,0-1.12-.544,2,2,0,0,0-1.368.552,3.107,3.107,0,0,0-.888,1.432V87H165.4V82.312a3,3,0,0,0-.384-1.72,1.275,1.275,0,0,0-1.1-.536,2.047,2.047,0,0,0-1.376.544,3.025,3.025,0,0,0-.9,1.424V87h-1.76V78.632h1.6v1.68a3.536,3.536,0,0,1,1.3-1.352,3.6,3.6,0,0,1,1.848-.472,2.238,2.238,0,0,1,2.384,1.9,3.831,3.831,0,0,1,1.328-1.416,3.432,3.432,0,0,1,1.824-.488,2.431,2.431,0,0,1,1.224.28,2.164,2.164,0,0,1,.776.744,3.068,3.068,0,0,1,.4,1.08,7.285,7.285,0,0,1,.112,1.3Zm4.256.16a3.116,3.116,0,0,1-1.128-.2,2.726,2.726,0,0,1-.9-.552,2.574,2.574,0,0,1-.592-.832,2.5,2.5,0,0,1-.216-1.04,2.242,2.242,0,0,1,.256-1.072,2.506,2.506,0,0,1,.728-.832,3.534,3.534,0,0,1,1.12-.544,5.028,5.028,0,0,1,1.432-.192,6.56,6.56,0,0,1,1.168.1,5.882,5.882,0,0,1,1.04.28V81.7a1.94,1.94,0,0,0-.528-1.448,2.076,2.076,0,0,0-1.52-.52,3.665,3.665,0,0,0-1.32.248,6.678,6.678,0,0,0-1.336.712l-.544-1.12a5.933,5.933,0,0,1,3.36-1.088,3.832,3.832,0,0,1,2.688.88,3.257,3.257,0,0,1,.96,2.528V84.92q0,.56.464.576V87q-.256.048-.44.064t-.36.016a1.132,1.132,0,0,1-.792-.256,1.1,1.1,0,0,1-.344-.656l-.048-.528a3.731,3.731,0,0,1-1.384,1.128A4.063,4.063,0,0,1,176.936,87.16Zm.48-1.3a3.164,3.164,0,0,0,1.208-.232,2.083,2.083,0,0,0,.888-.648.812.812,0,0,0,.336-.608v-1.1A5.32,5.32,0,0,0,178.9,83a5.253,5.253,0,0,0-.984-.1,2.691,2.691,0,0,0-1.544.408,1.25,1.25,0,0,0-.6,1.08,1.363,1.363,0,0,0,.464,1.048A1.687,1.687,0,0,0,177.416,85.864Zm7.248-7.232,2.048,2.864.144.272L187,81.5l2.032-2.864h1.84l-3.056,4.192L190.9,87h-1.84L187,84.152l-.144-.256-.144.256L184.648,87h-1.84l3.088-4.176-3.056-4.192ZM192.088,87V78.632h1.76V87Zm0-9.744V75.32h1.76v1.936ZM208.76,87H207V82.312a3.01,3.01,0,0,0-.384-1.712,1.285,1.285,0,0,0-1.12-.544,2,2,0,0,0-1.368.552,3.107,3.107,0,0,0-.888,1.432V87h-1.76V82.312a3,3,0,0,0-.384-1.72,1.275,1.275,0,0,0-1.1-.536,2.047,2.047,0,0,0-1.376.544,3.025,3.025,0,0,0-.9,1.424V87h-1.76V78.632h1.6v1.68a3.536,3.536,0,0,1,1.3-1.352,3.6,3.6,0,0,1,1.848-.472,2.238,2.238,0,0,1,2.384,1.9,3.831,3.831,0,0,1,1.328-1.416,3.432,3.432,0,0,1,1.824-.488,2.431,2.431,0,0,1,1.224.28,2.164,2.164,0,0,1,.776.744,3.068,3.068,0,0,1,.4,1.08,7.285,7.285,0,0,1,.112,1.3Zm2.032,0V78.632h1.76V87Zm0-9.744V75.32h1.76v1.936Zm3.264,8.64,5.024-6.016h-4.848V78.632h6.7v1.1l-4.992,6.016h5.04V87h-6.928ZM226.12,87.16a4.451,4.451,0,0,1-1.776-.344,4.133,4.133,0,0,1-1.368-.936,4.22,4.22,0,0,1-.88-1.376,4.458,4.458,0,0,1-.312-1.664,4.52,4.52,0,0,1,.312-1.672,4.291,4.291,0,0,1,.88-1.392,4.075,4.075,0,0,1,1.368-.944,4.493,4.493,0,0,1,1.792-.344,4.307,4.307,0,0,1,1.768.352,4.227,4.227,0,0,1,1.352.936,4,4,0,0,1,.856,1.36,4.518,4.518,0,0,1,.3,1.624q0,.192-.016.36t-.032.28h-6.7a2.865,2.865,0,0,0,.264,1.008,2.653,2.653,0,0,0,.56.776,2.459,2.459,0,0,0,1.7.68,2.8,2.8,0,0,0,.7-.088,2.454,2.454,0,0,0,.632-.256,2.24,2.24,0,0,0,.512-.408,1.9,1.9,0,0,0,.352-.528l1.5.432a3.487,3.487,0,0,1-1.432,1.544A4.437,4.437,0,0,1,226.12,87.16Zm2.544-4.976a2.814,2.814,0,0,0-.264-.976,2.513,2.513,0,0,0-.552-.76,2.463,2.463,0,0,0-.784-.488,2.559,2.559,0,0,0-.944-.176,2.5,2.5,0,0,0-1.712.664,2.406,2.406,0,0,0-.544.76,2.929,2.929,0,0,0-.256.976ZM68.04,112.968q.24.048.472.08a2.876,2.876,0,0,0,.376.032.706.706,0,0,0,.36-.088,1.073,1.073,0,0,0,.312-.312,3.229,3.229,0,0,0,.328-.632q.168-.408.392-1.048l-3.44-8.368h1.808l2.592,6.816,2.3-6.816h1.664l-3.792,10.3a2.607,2.607,0,0,1-.888,1.208,2.581,2.581,0,0,1-1.624.488,3.493,3.493,0,0,1-.4-.024,2.556,2.556,0,0,1-.464-.1Zm11.936-1.808a4.347,4.347,0,0,1-1.784-.352,4.1,4.1,0,0,1-2.216-2.328,4.662,4.662,0,0,1,0-3.312,4.1,4.1,0,0,1,.872-1.384,4.258,4.258,0,0,1,1.36-.944,4.616,4.616,0,0,1,3.536,0,4.258,4.258,0,0,1,1.36.944,4.1,4.1,0,0,1,.872,1.384,4.662,4.662,0,0,1,0,3.312,4.1,4.1,0,0,1-.872,1.384,4.258,4.258,0,0,1-1.36.944A4.307,4.307,0,0,1,79.976,111.16Zm-2.5-4.32a3.166,3.166,0,0,0,.192,1.12,2.784,2.784,0,0,0,.528.888,2.469,2.469,0,0,0,.792.592,2.349,2.349,0,0,0,1.968,0,2.418,2.418,0,0,0,.792-.6,2.883,2.883,0,0,0,.528-.9,3.339,3.339,0,0,0,0-2.232,2.863,2.863,0,0,0-.528-.9,2.418,2.418,0,0,0-.792-.6,2.269,2.269,0,0,0-.984-.216,2.167,2.167,0,0,0-.968.224,2.517,2.517,0,0,0-.792.608,2.986,2.986,0,0,0-.536.9A3.071,3.071,0,0,0,77.48,106.84Zm10.944,4.32a2.369,2.369,0,0,1-1.984-.856,4.083,4.083,0,0,1-.672-2.552v-5.12h1.76V107.4q0,2.256,1.6,2.256a2.464,2.464,0,0,0,1.424-.464,2.974,2.974,0,0,0,1.04-1.344v-5.216h1.76v6.288a.694.694,0,0,0,.1.432.5.5,0,0,0,.376.144V111q-.272.048-.448.064t-.336.016a1.28,1.28,0,0,1-.816-.264.872.872,0,0,1-.352-.68l-.032-.832a3.734,3.734,0,0,1-1.456,1.384A4.157,4.157,0,0,1,88.424,111.16Zm11.872-7.008a3.936,3.936,0,0,0-1.816.472,2.487,2.487,0,0,0-1.128,1.256V111h-1.76v-8.368h1.632V104.5a3.827,3.827,0,0,1,1.128-1.384,2.736,2.736,0,0,1,1.5-.568h.264a.945.945,0,0,1,.184.016Zm9.6,7.008a3.281,3.281,0,0,1-1.776-.48,3.583,3.583,0,0,1-1.216-1.248v4.976h-1.76V102.632H106.7v1.5a3.655,3.655,0,0,1,1.24-1.2,3.323,3.323,0,0,1,1.72-.448,3.558,3.558,0,0,1,1.584.352,4.023,4.023,0,0,1,1.248.944,4.357,4.357,0,0,1,.824,1.376,4.627,4.627,0,0,1,.3,1.648,5.212,5.212,0,0,1-.272,1.7,4.216,4.216,0,0,1-.768,1.376,3.749,3.749,0,0,1-1.176.928A3.266,3.266,0,0,1,109.9,111.16Zm-.576-1.5a2.148,2.148,0,0,0,1.016-.24,2.525,2.525,0,0,0,.784-.64,2.923,2.923,0,0,0,.5-.912,3.226,3.226,0,0,0,.176-1.056,2.963,2.963,0,0,0-.2-1.088,2.922,2.922,0,0,0-.544-.9,2.529,2.529,0,0,0-.824-.608,2.429,2.429,0,0,0-1.04-.224,2.142,2.142,0,0,0-.7.128,2.8,2.8,0,0,0-.688.352,2.737,2.737,0,0,0-.56.52,1.753,1.753,0,0,0-.336.648v2.192a3.24,3.24,0,0,0,.416.72,3.062,3.062,0,0,0,.568.576,2.758,2.758,0,0,0,.68.384A2.047,2.047,0,0,0,109.32,109.656Zm9.632,1.5a4.347,4.347,0,0,1-1.784-.352,4.1,4.1,0,0,1-2.216-2.328,4.662,4.662,0,0,1,0-3.312,4.1,4.1,0,0,1,.872-1.384,4.258,4.258,0,0,1,1.36-.944,4.616,4.616,0,0,1,3.536,0,4.258,4.258,0,0,1,1.36.944,4.1,4.1,0,0,1,.872,1.384,4.662,4.662,0,0,1,0,3.312,4.1,4.1,0,0,1-.872,1.384,4.258,4.258,0,0,1-1.36.944A4.307,4.307,0,0,1,118.952,111.16Zm-2.5-4.32a3.166,3.166,0,0,0,.192,1.12,2.784,2.784,0,0,0,.528.888,2.469,2.469,0,0,0,.792.592,2.349,2.349,0,0,0,1.968,0,2.418,2.418,0,0,0,.792-.6,2.883,2.883,0,0,0,.528-.9,3.339,3.339,0,0,0,0-2.232,2.863,2.863,0,0,0-.528-.9,2.418,2.418,0,0,0-.792-.6,2.269,2.269,0,0,0-.984-.216,2.167,2.167,0,0,0-.968.224,2.517,2.517,0,0,0-.792.608,2.986,2.986,0,0,0-.536.9A3.071,3.071,0,0,0,116.456,106.84Zm12.912,3.728a8.823,8.823,0,0,1-.928.36,3.923,3.923,0,0,1-1.264.2,2.679,2.679,0,0,1-.784-.112,1.921,1.921,0,0,1-.648-.336,1.526,1.526,0,0,1-.44-.584,2.14,2.14,0,0,1-.16-.872v-5.232h-1.1v-1.36h1.1V99.88h1.76v2.752h1.824v1.36H126.9v4.672a.869.869,0,0,0,.28.648.95.95,0,0,0,.616.2,1.961,1.961,0,0,0,.7-.128q.336-.128.5-.208Zm4.8.592a4.451,4.451,0,0,1-1.776-.344,4.133,4.133,0,0,1-1.368-.936,4.22,4.22,0,0,1-.88-1.376,4.458,4.458,0,0,1-.312-1.664,4.52,4.52,0,0,1,.312-1.672,4.291,4.291,0,0,1,.88-1.392,4.075,4.075,0,0,1,1.368-.944,4.493,4.493,0,0,1,1.792-.344,4.307,4.307,0,0,1,1.768.352,4.227,4.227,0,0,1,1.352.936,4,4,0,0,1,.856,1.36,4.518,4.518,0,0,1,.3,1.624q0,.192-.016.36t-.032.28h-6.7a2.865,2.865,0,0,0,.264,1.008,2.653,2.653,0,0,0,.56.776,2.459,2.459,0,0,0,1.7.68,2.8,2.8,0,0,0,.7-.088,2.454,2.454,0,0,0,.632-.256,2.24,2.24,0,0,0,.512-.408,1.9,1.9,0,0,0,.352-.528l1.5.432a3.487,3.487,0,0,1-1.432,1.544A4.437,4.437,0,0,1,134.168,111.16Zm2.544-4.976a2.814,2.814,0,0,0-.264-.976,2.513,2.513,0,0,0-.552-.76,2.463,2.463,0,0,0-.784-.488,2.559,2.559,0,0,0-.944-.176,2.5,2.5,0,0,0-1.712.664,2.406,2.406,0,0,0-.544.76,2.929,2.929,0,0,0-.256.976ZM147.4,111h-1.76v-4.688a3.056,3.056,0,0,0-.376-1.72,1.271,1.271,0,0,0-1.112-.536,2.174,2.174,0,0,0-.768.144,2.69,2.69,0,0,0-.72.408,3.178,3.178,0,0,0-.6.624,2.86,2.86,0,0,0-.408.792V111H139.9v-8.368h1.6v1.68a3.4,3.4,0,0,1,1.392-1.336,4.2,4.2,0,0,1,2.016-.488,2.479,2.479,0,0,1,1.232.272,2.035,2.035,0,0,1,.76.744,3.255,3.255,0,0,1,.392,1.088,7.285,7.285,0,0,1,.112,1.3Zm6.624-.432a8.823,8.823,0,0,1-.928.36,3.923,3.923,0,0,1-1.264.2,2.679,2.679,0,0,1-.784-.112,1.921,1.921,0,0,1-.648-.336,1.526,1.526,0,0,1-.44-.584,2.14,2.14,0,0,1-.16-.872v-5.232h-1.1v-1.36h1.1V99.88h1.76v2.752h1.824v1.36H151.56v4.672a.869.869,0,0,0,.28.648.95.95,0,0,0,.616.2,1.961,1.961,0,0,0,.7-.128q.336-.128.5-.208Zm1.216.432v-8.368H157V111Zm0-9.744V99.32H157v1.936Zm6.1,9.9a3.116,3.116,0,0,1-1.128-.2,2.726,2.726,0,0,1-.9-.552,2.574,2.574,0,0,1-.592-.832,2.5,2.5,0,0,1-.216-1.04,2.242,2.242,0,0,1,.256-1.072,2.506,2.506,0,0,1,.728-.832,3.534,3.534,0,0,1,1.12-.544,5.028,5.028,0,0,1,1.432-.192,6.56,6.56,0,0,1,1.168.1,5.882,5.882,0,0,1,1.04.28V105.7a1.94,1.94,0,0,0-.528-1.448,2.076,2.076,0,0,0-1.52-.52,3.665,3.665,0,0,0-1.32.248,6.678,6.678,0,0,0-1.336.712l-.544-1.12a5.933,5.933,0,0,1,3.36-1.088,3.832,3.832,0,0,1,2.688.88,3.257,3.257,0,0,1,.96,2.528v3.024q0,.56.464.576V111q-.256.048-.44.064t-.36.016a1.132,1.132,0,0,1-.792-.256,1.1,1.1,0,0,1-.344-.656l-.048-.528a3.731,3.731,0,0,1-1.384,1.128A4.063,4.063,0,0,1,161.336,111.16Zm.48-1.3a3.164,3.164,0,0,0,1.208-.232,2.083,2.083,0,0,0,.888-.648.812.812,0,0,0,.336-.608v-1.1A5.32,5.32,0,0,0,163.3,107a5.253,5.253,0,0,0-.984-.1,2.691,2.691,0,0,0-1.544.408,1.25,1.25,0,0,0-.6,1.08,1.363,1.363,0,0,0,.464,1.048A1.687,1.687,0,0,0,161.816,109.864Zm6.336-10.544h1.76v9.264a1.042,1.042,0,0,0,.24.728.862.862,0,0,0,.672.264,1.561,1.561,0,0,0,.408-.064q.232-.064.44-.144l.256,1.376a4.1,4.1,0,0,1-.912.28,4.941,4.941,0,0,1-.944.1,1.933,1.933,0,0,1-1.416-.5,1.887,1.887,0,0,1-.5-1.408Zm4.72,11.68v-2.048h1.456V111Z" transform="translate(384 3551.942)" fill="#fff"/>
    <path id="Path_2608" data-name="Path 2608" d="M1.656,0h3.36V-16.752H1.656ZM17.64,0H21V-7.8c0-3.672-2.208-5.688-5.3-5.688a4.966,4.966,0,0,0-4.008,1.848V-13.3H8.328V0h3.36V-7.344c0-2.136,1.176-3.288,3-3.288,1.776,0,2.952,1.152,2.952,3.288ZM33.5,0h3.36V-7.8c0-3.672-2.208-5.688-5.3-5.688a4.966,4.966,0,0,0-4.008,1.848V-13.3h-3.36V0h3.36V-7.344c0-2.136,1.176-3.288,3-3.288,1.776,0,2.952,1.152,2.952,3.288ZM52.9-6.648a6.57,6.57,0,0,0-6.84-6.864,6.57,6.57,0,0,0-6.84,6.864A6.508,6.508,0,0,0,45.96.216,6.647,6.647,0,0,0,52.9-6.648Zm-10.272,0c0-2.664,1.608-3.936,3.384-3.936S49.44-9.312,49.44-6.648c0,2.64-1.7,3.936-3.48,3.936C44.16-2.712,42.624-4.008,42.624-6.648ZM53.952-13.3,58.848,0h4.08l4.92-13.3H64.272L60.912-3.1l-3.36-10.2ZM68.88-6.7c0,4.152,2.688,6.912,6.048,6.912a5.244,5.244,0,0,0,4.416-2.16V0h3.384V-13.3H79.344v1.9a5.258,5.258,0,0,0-4.392-2.112C71.568-13.512,68.88-10.848,68.88-6.7Zm10.464.048a3.58,3.58,0,0,1-3.528,3.912,3.633,3.633,0,0,1-3.5-3.96,3.546,3.546,0,0,1,3.5-3.864A3.58,3.58,0,0,1,79.344-6.648Zm7.2,2.52C86.544-1.08,88.248,0,90.792,0H92.9V-2.832h-1.56c-1.056,0-1.416-.384-1.416-1.272v-6.432H92.9V-13.3H89.928v-3.288H86.544V-13.3H84.96v2.76h1.584ZM95.328,0h3.36V-13.3h-3.36Zm1.7-14.88A1.985,1.985,0,0,0,99.1-16.848a1.985,1.985,0,0,0-2.064-1.968,1.97,1.97,0,0,0-2.064,1.968A1.97,1.97,0,0,0,97.032-14.88ZM114.84-6.648A6.57,6.57,0,0,0,108-13.512a6.57,6.57,0,0,0-6.84,6.864A6.508,6.508,0,0,0,107.9.216,6.647,6.647,0,0,0,114.84-6.648Zm-10.272,0c0-2.664,1.608-3.936,3.384-3.936s3.432,1.272,3.432,3.936c0,2.64-1.7,3.936-3.48,3.936C106.1-2.712,104.568-4.008,104.568-6.648ZM126.624,0h3.36V-7.8c0-3.672-2.208-5.688-5.3-5.688a4.966,4.966,0,0,0-4.008,1.848V-13.3h-3.36V0h3.36V-7.344c0-2.136,1.176-3.288,3-3.288,1.776,0,2.952,1.152,2.952,3.288Z" transform="translate(439 3530.442)" fill="#fff"/>
    <g id="gear" transform="translate(422.959 3415)">
      <g id="Group_1562" data-name="Group 1562" transform="translate(65.29 14.098)">
        <g id="Group_1561" data-name="Group 1561">
          <path id="Path_2571" data-name="Path 2571" d="M177.4,108.1h-3.353a11.664,11.664,0,0,0-.779-1.883l2.371-2.371a1.569,1.569,0,0,0,0-2.219l-2.79-2.79a1.571,1.571,0,0,0-2.219,0l-2.371,2.371a11.655,11.655,0,0,0-1.883-.779V97.074a1.571,1.571,0,0,0-1.569-1.569h-3.946a1.571,1.571,0,0,0-1.569,1.569v3.353a11.671,11.671,0,0,0-1.883.779l-2.371-2.371a1.571,1.571,0,0,0-2.219,0l-2.79,2.79a1.569,1.569,0,0,0,0,2.219l2.371,2.371a11.655,11.655,0,0,0-.779,1.883h-3.353a1.571,1.571,0,0,0-1.569,1.569v3.946a1.571,1.571,0,0,0,1.569,1.569h3.353a11.662,11.662,0,0,0,.779,1.883l-2.371,2.371a1.571,1.571,0,0,0,0,2.219l2.79,2.79a1.571,1.571,0,0,0,2.219,0l2.371-2.371a11.656,11.656,0,0,0,1.883.779v3.353a1.571,1.571,0,0,0,1.569,1.569H164.8a1.571,1.571,0,0,0,1.569-1.569v-3.353a11.66,11.66,0,0,0,1.883-.779l2.371,2.371a1.571,1.571,0,0,0,2.219,0l2.79-2.79a1.569,1.569,0,0,0,0-2.219l-2.371-2.371a11.655,11.655,0,0,0,.779-1.883H177.4a1.571,1.571,0,0,0,1.569-1.569v-3.946A1.571,1.571,0,0,0,177.4,108.1Zm-.645,4.869H173.2a1.107,1.107,0,0,0-1.078.855,9.466,9.466,0,0,1-1.178,2.844,1.107,1.107,0,0,0,.158,1.367l2.511,2.511-1.877,1.877-2.511-2.511a1.107,1.107,0,0,0-1.367-.158,9.475,9.475,0,0,1-2.844,1.178,1.107,1.107,0,0,0-.855,1.078v3.552H161.5v-3.552a1.107,1.107,0,0,0-.855-1.078,9.462,9.462,0,0,1-2.844-1.178,1.108,1.108,0,0,0-1.367.158l-2.511,2.511-1.877-1.877,2.511-2.511a1.107,1.107,0,0,0,.158-1.367,9.47,9.47,0,0,1-1.178-2.844,1.107,1.107,0,0,0-1.078-.855h-3.551v-2.655h3.551a1.107,1.107,0,0,0,1.078-.855,9.469,9.469,0,0,1,1.178-2.844,1.107,1.107,0,0,0-.158-1.367l-2.511-2.511,1.877-1.877,2.511,2.511a1.107,1.107,0,0,0,1.367.158,9.466,9.466,0,0,1,2.844-1.178,1.107,1.107,0,0,0,.855-1.078V97.719h2.655v3.552a1.107,1.107,0,0,0,.855,1.078,9.471,9.471,0,0,1,2.844,1.178,1.108,1.108,0,0,0,1.367-.158l2.511-2.511,1.877,1.877-2.511,2.511a1.107,1.107,0,0,0-.158,1.367,9.471,9.471,0,0,1,1.178,2.844,1.107,1.107,0,0,0,1.078.855h3.551Z" transform="translate(-146.697 -95.505)" fill="#fff"/>
        </g>
      </g>
      <g id="Group_1564" data-name="Group 1564" transform="translate(75.494 24.302)">
        <g id="Group_1563" data-name="Group 1563" transform="translate(0)">
          <path id="Path_2572" data-name="Path 2572" d="M221.751,164.628a5.931,5.931,0,1,0,5.931,5.931A5.938,5.938,0,0,0,221.751,164.628Zm0,9.648a3.717,3.717,0,1,1,3.717-3.717A3.721,3.721,0,0,1,221.751,174.276Z" transform="translate(-215.82 -164.628)" fill="#fff"/>
        </g>
      </g>
      <g id="Group_1566" data-name="Group 1566" transform="translate(51.192 29.126)">
        <g id="Group_1565" data-name="Group 1565" transform="translate(0)">
          <path id="Path_2573" data-name="Path 2573" d="M55.972,197.308H52.3a1.107,1.107,0,1,0,0,2.214h3.673a1.107,1.107,0,1,0,0-2.214Z" transform="translate(-51.192 -197.308)" fill="#fff"/>
        </g>
      </g>
      <g id="Group_1568" data-name="Group 1568" transform="translate(105.77 29.126)">
        <g id="Group_1567" data-name="Group 1567">
          <path id="Path_2574" data-name="Path 2574" d="M425.707,197.308h-3.673a1.107,1.107,0,0,0,0,2.214h3.673a1.107,1.107,0,0,0,0-2.214Z" transform="translate(-420.927 -197.308)" fill="#fff"/>
        </g>
      </g>
      <g id="Group_1570" data-name="Group 1570" transform="translate(59.723 47.123)">
        <g id="Group_1569" data-name="Group 1569">
          <path id="Path_2575" data-name="Path 2575" d="M113.468,319.557a1.107,1.107,0,0,0-1.566,0l-2.6,2.6a1.107,1.107,0,0,0,1.566,1.566l2.6-2.6A1.107,1.107,0,0,0,113.468,319.557Z" transform="translate(-108.981 -319.232)" fill="#fff"/>
        </g>
      </g>
      <g id="Group_1572" data-name="Group 1572" transform="translate(98.315 8.531)">
        <g id="Group_1571" data-name="Group 1571" transform="translate(0)">
          <path id="Path_2576" data-name="Path 2576" d="M374.911,58.116a1.107,1.107,0,0,0-1.566,0l-2.6,2.6a1.107,1.107,0,1,0,1.566,1.566l2.6-2.6A1.107,1.107,0,0,0,374.911,58.116Z" transform="translate(-370.423 -57.791)" fill="#fff"/>
        </g>
      </g>
      <g id="Group_1574" data-name="Group 1574" transform="translate(80.318)">
        <g id="Group_1573" data-name="Group 1573">
          <path id="Path_2577" data-name="Path 2577" d="M249.608,0A1.107,1.107,0,0,0,248.5,1.107V4.78a1.107,1.107,0,0,0,2.214,0V1.107A1.107,1.107,0,0,0,249.608,0Z" transform="translate(-248.501)" fill="#fff"/>
        </g>
      </g>
      <g id="Group_1576" data-name="Group 1576" transform="translate(98.315 47.123)">
        <g id="Group_1575" data-name="Group 1575" transform="translate(0)">
          <path id="Path_2578" data-name="Path 2578" d="M374.911,322.154l-2.6-2.6a1.107,1.107,0,1,0-1.566,1.566l2.6,2.6a1.107,1.107,0,0,0,1.566-1.566Z" transform="translate(-370.423 -319.232)" fill="#fff"/>
        </g>
      </g>
      <g id="Group_1578" data-name="Group 1578" transform="translate(59.723 8.531)">
        <g id="Group_1577" data-name="Group 1577">
          <path id="Path_2579" data-name="Path 2579" d="M113.468,60.713l-2.6-2.6a1.107,1.107,0,1,0-1.566,1.566l2.6,2.6a1.107,1.107,0,0,0,1.566-1.566Z" transform="translate(-108.981 -57.791)" fill="#fff"/>
        </g>
      </g>
      <g id="Group_1580" data-name="Group 1580" transform="translate(82.901 8.052)">
        <g id="Group_1579" data-name="Group 1579" transform="translate(0)">
          <path id="Path_2580" data-name="Path 2580" d="M286.611,74.014a22.266,22.266,0,0,0-19.37-19.461,1.107,1.107,0,1,0-.268,2.2,19.941,19.941,0,0,1,17.439,17.52,1.107,1.107,0,0,0,1.1.978,1.145,1.145,0,0,0,.13-.008A1.107,1.107,0,0,0,286.611,74.014Z" transform="translate(-265.999 -54.545)" fill="#fff"/>
        </g>
      </g>
      <g id="Group_1582" data-name="Group 1582" transform="translate(59.183 8.053)">
        <g id="Group_1581" data-name="Group 1581" transform="translate(0)">
          <path id="Path_2581" data-name="Path 2581" d="M148.673,78.22a1.106,1.106,0,0,0-1.237.959A19.951,19.951,0,0,1,138.2,93.612a7.448,7.448,0,0,0-3.52,6.335V104.5H120.456V99.847a7.291,7.291,0,0,0-3.411-6.167,20.029,20.029,0,0,1,8.077-36.918,1.107,1.107,0,0,0-.272-2.2,22.241,22.241,0,0,0-8.971,41,5.061,5.061,0,0,1,2.362,4.284v4.819a2.882,2.882,0,0,0-1.937,2.717v1.578a2.862,2.862,0,0,0,.614,1.772,2.861,2.861,0,0,0-.614,1.772v1.578a2.882,2.882,0,0,0,2.879,2.879h3.481v2.5a2.621,2.621,0,0,0,2.618,2.618h4.576a2.621,2.621,0,0,0,2.618-2.618v-2.5h3.481a2.882,2.882,0,0,0,2.879-2.879V112.5a2.862,2.862,0,0,0-.614-1.772,2.861,2.861,0,0,0,.614-1.772v-1.578a2.881,2.881,0,0,0-1.937-2.717V99.947a5.246,5.246,0,0,1,2.483-4.46,22.157,22.157,0,0,0,10.251-16.03A1.106,1.106,0,0,0,148.673,78.22Zm-18.412,41.243a.409.409,0,0,1-.4.4h-4.576a.409.409,0,0,1-.4-.4v-2.5h5.383Zm6.36-5.381a.673.673,0,0,1-.664.664H119.183a.673.673,0,0,1-.664-.664V112.5a.673.673,0,0,1,.664-.664h16.774a.673.673,0,0,1,.664.664Zm0-5.121a.673.673,0,0,1-.664.664H119.183a.673.673,0,0,1-.664-.664v-1.578a.673.673,0,0,1,.664-.664h16.774a.673.673,0,0,1,.664.664Z" transform="translate(-105.328 -54.556)" fill="#fff"/>
        </g>
      </g>
    </g>
  </g>
</svg>
