<svg xmlns="http://www.w3.org/2000/svg" xmlns:xlink="http://www.w3.org/1999/xlink" width="413" height="420" viewBox="0 0 413 420">
  <defs>
    <filter id="Path_2593" x="0" y="0" width="413" height="420" filterUnits="userSpaceOnUse">
      <feOffset dy="12" input="SourceAlpha"/>
      <feGaussianBlur stdDeviation="15" result="blur"/>
      <feFlood flood-opacity="0.161"/>
      <feComposite operator="in" in2="blur"/>
      <feComposite in="SourceGraphic"/>
    </filter>
    <linearGradient id="linear-gradient" x1="-0.344" y1="-0.384" x2="1.244" y2="1.765" gradientUnits="objectBoundingBox">
      <stop offset="0" stop-color="#f905f5"/>
      <stop offset="1" stop-color="#4da1ff"/>
    </linearGradient>
    <linearGradient id="linear-gradient-2" x1="0.554" y1="0.573" x2="-0.237" y2="-0.486" gradientUnits="objectBoundingBox">
      <stop offset="0" stop-color="#59bdef"/>
      <stop offset="1" stop-color="#7bdaff"/>
    </linearGradient>
    <linearGradient id="linear-gradient-3" y1="0.5" x2="1" y2="0.5" gradientUnits="objectBoundingBox">
      <stop offset="0" stop-color="#2573ba"/>
      <stop offset="1" stop-color="#0063ad"/>
    </linearGradient>
    <linearGradient id="linear-gradient-4" y1="0.5" x2="1" y2="0.5" gradientUnits="objectBoundingBox">
      <stop offset="0" stop-color="#3a9bd5"/>
      <stop offset="1" stop-color="#2573ba"/>
    </linearGradient>
    <linearGradient id="linear-gradient-5" x1="0" y1="0.5" y2="0.5" xlink:href="#linear-gradient-3"/>
    <linearGradient id="linear-gradient-8" y1="0.5" x2="2.597" y2="0.5" gradientUnits="objectBoundingBox">
      <stop offset="0" stop-color="#3a9bd5"/>
      <stop offset="0.52" stop-color="#3088c8"/>
      <stop offset="1" stop-color="#297bbf"/>
    </linearGradient>
    <linearGradient id="linear-gradient-9" x1="-1.774" y1="3.037" x2="-0.169" y2="3.344" xlink:href="#linear-gradient-2"/>
    <radialGradient id="radial-gradient" cx="2.011" cy="-18.558" r="0.969" gradientTransform="matrix(0.517, -0.783, 0.65, 0.622, 9.73, -3.981)" gradientUnits="objectBoundingBox">
      <stop offset="0" stop-color="#fce586"/>
      <stop offset="0.23" stop-color="#fcdb7b"/>
      <stop offset="0.62" stop-color="#fcd06f"/>
      <stop offset="1" stop-color="#fccc6b"/>
    </radialGradient>
    <radialGradient id="radial-gradient-2" cx="75.398" cy="-47.579" r="2.749" gradientTransform="translate(13.073 0) scale(0.828 1)" xlink:href="#radial-gradient"/>
    <linearGradient id="linear-gradient-10" x1="0.5" x2="0.5" y2="1" gradientUnits="objectBoundingBox">
      <stop offset="0" stop-color="#f905f5"/>
      <stop offset="1" stop-color="#17c9f2"/>
    </linearGradient>
    <radialGradient id="radial-gradient-3" cx="-1.335" cy="-21.976" r="1.236" gradientTransform="matrix(0.553, -0.294, 0.17, 0.956, 2.369, -0.999)" xlink:href="#radial-gradient"/>
    <radialGradient id="radial-gradient-4" cx="-1.232" cy="-25.5" r="3.504" gradientTransform="matrix(0.552, -0.294, 0.169, 0.956, 2.871, -1.039)" xlink:href="#radial-gradient"/>
    <radialGradient id="radial-gradient-5" cx="-1.543" cy="-21.727" r="1.236" gradientTransform="matrix(0.553, -0.294, 0.17, 0.956, 2.268, -1.037)" xlink:href="#radial-gradient"/>
    <radialGradient id="radial-gradient-6" cx="-1.472" cy="-25.176" r="3.503" gradientTransform="matrix(0.552, -0.294, 0.17, 0.956, 2.751, -1.082)" xlink:href="#radial-gradient"/>
    <radialGradient id="radial-gradient-7" cx="-2.237" cy="-24.105" r="1.236" gradientTransform="matrix(0.553, -0.294, 0.17, 0.956, 2.338, -1.268)" xlink:href="#radial-gradient"/>
    <radialGradient id="radial-gradient-8" cx="-2.307" cy="-28.033" r="3.504" gradientTransform="matrix(0.552, -0.294, 0.169, 0.956, 2.832, -1.36)" xlink:href="#radial-gradient"/>
    <radialGradient id="radial-gradient-9" cx="-0.548" cy="-23.553" r="1.236" gradientTransform="matrix(0.553, -0.294, 0.17, 0.956, 2.835, -0.877)" xlink:href="#radial-gradient"/>
    <radialGradient id="radial-gradient-10" cx="-0.295" cy="-27.391" r="3.507" gradientTransform="matrix(0.552, -0.294, 0.17, 0.956, 3.43, -0.895)" xlink:href="#radial-gradient"/>
    <radialGradient id="radial-gradient-11" cx="-1.406" cy="-23.529" r="1.236" gradientTransform="matrix(0.553, -0.294, 0.17, 0.956, 2.544, -1.066)" xlink:href="#radial-gradient"/>
    <radialGradient id="radial-gradient-12" cx="-1.319" cy="-27.352" r="3.504" gradientTransform="matrix(0.552, -0.294, 0.169, 0.956, 3.078, -1.119)" xlink:href="#radial-gradient"/>
    <radialGradient id="radial-gradient-13" cx="-1.669" cy="-23.385" r="1.236" gradientTransform="matrix(0.553, -0.294, 0.17, 0.956, 2.437, -1.119)" xlink:href="#radial-gradient"/>
    <radialGradient id="radial-gradient-14" cx="-1.632" cy="-27.177" r="3.504" gradientTransform="matrix(0.552, -0.294, 0.169, 0.956, 2.95, -1.183)" xlink:href="#radial-gradient"/>
    <radialGradient id="radial-gradient-15" cx="-1.886" cy="-22.912" r="1.236" gradientTransform="matrix(0.553, -0.294, 0.17, 0.956, 2.305, -1.151)" xlink:href="#radial-gradient"/>
    <radialGradient id="radial-gradient-16" cx="-1.892" cy="-26.621" r="3.504" gradientTransform="matrix(0.552, -0.294, 0.169, 0.956, 2.792, -1.222)" xlink:href="#radial-gradient"/>
    <radialGradient id="radial-gradient-17" cx="-4.316" cy="-17.248" r="1.186" gradientTransform="matrix(0.608, -0.092, 0.056, 0.996, -0.522, -0.346)" xlink:href="#radial-gradient"/>
    <radialGradient id="radial-gradient-18" cx="-4.931" cy="-19.86" r="3.377" gradientTransform="matrix(0.605, -0.092, 0.056, 0.996, -0.581, -0.385)" xlink:href="#radial-gradient"/>
    <radialGradient id="radial-gradient-19" cx="-5.976" cy="-2.756" r="1.017" gradientTransform="matrix(0.752, 0.219, -0.169, 0.976, -1.436, 0.911)" xlink:href="#radial-gradient"/>
    <radialGradient id="radial-gradient-20" cx="-7.054" cy="-2.222" r="2.877" gradientTransform="matrix(0.752, 0.219, -0.169, 0.976, -1.51, 1.092)" xlink:href="#radial-gradient"/>
    <radialGradient id="radial-gradient-21" cx="6.087" cy="-23.512" r="1.017" gradientTransform="matrix(0.526, -0.727, 0.557, 0.687, 11.952, -2.111)" xlink:href="#radial-gradient"/>
    <radialGradient id="radial-gradient-22" cx="7.918" cy="-28.167" r="2.883" gradientTransform="matrix(0.526, -0.727, 0.557, 0.687, 14.616, -2.016)" xlink:href="#radial-gradient"/>
    <linearGradient id="linear-gradient-11" x1="-14.27" y1="1.875" x2="-12.842" y2="2.233" gradientUnits="objectBoundingBox">
      <stop offset="0" stop-color="#2573ba"/>
      <stop offset="0.91" stop-color="#0364ae"/>
      <stop offset="1" stop-color="#0063ad"/>
    </linearGradient>
    <linearGradient id="linear-gradient-12" x1="-27.925" y1="0.5" x2="-26.926" y2="0.5" gradientUnits="objectBoundingBox">
      <stop offset="0" stop-color="#0063ad"/>
      <stop offset="1" stop-color="#2573ba"/>
    </linearGradient>
  </defs>
  <g id="Group_1588" data-name="Group 1588" transform="translate(-118 -1441)">
    <g transform="matrix(1, 0, 0, 1, 118, 1441)" filter="url(#Path_2593)">
      <path id="Path_2593-2" data-name="Path 2593" d="M16,0H307a16,16,0,0,1,16,16V314a16,16,0,0,1-16,16H16A16,16,0,0,1,0,314V16A16,16,0,0,1,16,0Z" transform="translate(45 33)" fill="#fff"/>
    </g>
    <path id="Path_2584" data-name="Path 2584" d="M16,0H307c8.837,0,16,6.678,16,14.916V151.955c0,8.238-.122,18.759,0,18.528L16,197c-8.837,0-16-9.472-16-17.71V14.916C0,6.678,7.163,0,16,0Z" transform="translate(163 1474)" opacity="0.8" fill="url(#linear-gradient)"/>
    <path id="Path_2594" data-name="Path 2594" d="M-51.2,0h2.28V-13.9H-51.2Zm13.1,0h2.26V-6.5c0-3.08-1.94-4.7-4.52-4.7a4.239,4.239,0,0,0-3.28,1.44v-1.26h-2.28V0h2.28V-6.16c0-2.02,1.1-3.06,2.78-3.06,1.66,0,2.76,1.04,2.76,3.06Zm5.52-3.06C-32.58-.82-31.36,0-29.4,0h1.8V-1.9H-29c-.96,0-1.28-.34-1.28-1.16v-6.1h2.68v-1.86h-2.68v-2.74h-2.3v2.74h-1.3v1.86h1.3Zm11.72-6.22A2.862,2.862,0,0,1-17.78-6.5h-6.1A3,3,0,0,1-20.86-9.28Zm5.16,6h-2.46a2.668,2.668,0,0,1-2.6,1.54A3.031,3.031,0,0,1-23.9-4.66h8.42a7.033,7.033,0,0,0,.08-1.12,5.139,5.139,0,0,0-5.36-5.42c-3.26,0-5.5,2.22-5.5,5.68a5.346,5.346,0,0,0,5.5,5.7A5.035,5.035,0,0,0-15.7-3.28ZM-13.16,0h2.28V-14.8h-2.28Zm5.28,0H-5.6V-14.8H-7.88ZM-2.6,0H-.32V-11.02H-2.6Zm1.16-12.48A1.439,1.439,0,0,0,0-13.94,1.439,1.439,0,0,0-1.44-15.4,1.443,1.443,0,0,0-2.9-13.94,1.443,1.443,0,0,0-1.44-12.48ZM1.92-5.56c0,3.4,2.3,5.74,5.2,5.74a4.731,4.731,0,0,0,3.82-1.84V.18A2.936,2.936,0,0,1,7.86,3.46,3.072,3.072,0,0,1,4.72,1.54H2.46c.28,2.44,2.46,3.9,5.4,3.9A5,5,0,0,0,13.24.18v-11.2h-2.3v1.6A4.668,4.668,0,0,0,7.12-11.2C4.22-11.2,1.92-8.96,1.92-5.56Zm9.02.04A3.424,3.424,0,0,1,7.6-1.8,3.472,3.472,0,0,1,4.26-5.56,3.381,3.381,0,0,1,7.6-9.22,3.417,3.417,0,0,1,10.94-5.52Zm9.94-3.76A2.862,2.862,0,0,1,23.96-6.5h-6.1A3,3,0,0,1,20.88-9.28Zm5.16,6H23.58a2.668,2.668,0,0,1-2.6,1.54,3.031,3.031,0,0,1-3.14-2.92h8.42a7.033,7.033,0,0,0,.08-1.12,5.139,5.139,0,0,0-5.36-5.42c-3.26,0-5.5,2.22-5.5,5.68a5.346,5.346,0,0,0,5.5,5.7A5.035,5.035,0,0,0,26.04-3.28ZM36.4,0h2.26V-6.5c0-3.08-1.94-4.7-4.52-4.7a4.239,4.239,0,0,0-3.28,1.44v-1.26H28.58V0h2.28V-6.16c0-2.02,1.1-3.06,2.78-3.06,1.66,0,2.76,1.04,2.76,3.06Zm5.52-3.06C41.92-.82,43.14,0,45.1,0h1.8V-1.9H45.5c-.96,0-1.28-.34-1.28-1.16v-6.1H46.9v-1.86H44.22v-2.74h-2.3v2.74h-1.3v1.86h1.3ZM-82.15,20.26c0,1.38-.8,2.36-2.58,2.36h-2.52V17.96h2.52C-82.95,17.96-82.15,18.86-82.15,20.26Zm-7.38-4.16V30h2.28V24.44h1.74l3.2,5.56h2.72l-3.44-5.76a3.956,3.956,0,0,0,3.22-3.98c0-2.26-1.62-4.16-4.92-4.16ZM-76.89,30h2.28V18.98h-2.28Zm1.16-12.48a1.439,1.439,0,0,0,1.44-1.46,1.439,1.439,0,0,0-1.44-1.46,1.443,1.443,0,0,0-1.46,1.46A1.443,1.443,0,0,0-75.73,17.52Zm12.34,9.4c-.12-3.98-6.34-2.74-6.34-4.96,0-.74.64-1.24,1.86-1.24a1.823,1.823,0,0,1,2.06,1.62h2.28c-.12-2.2-1.76-3.54-4.26-3.54-2.6,0-4.24,1.42-4.24,3.18,0,4.04,6.4,2.8,6.4,4.96,0,.76-.7,1.32-2.02,1.32a2.011,2.011,0,0,1-2.2-1.64h-2.36c.1,2,1.96,3.56,4.6,3.56C-65.01,30.18-63.39,28.78-63.39,26.92ZM-60.93,30h2.28V25.26L-54.57,30h3.08l-5.08-5.5,5.08-5.52h-3.16l-4,4.82V15.2h-2.28Zm16.28,0h2.28V20.48L-38.11,30h1.58l4.24-9.52V30h2.28V16.1h-2.44L-37.31,27l-4.88-10.9h-2.46Zm16.88-5.56c0,3.4,2.3,5.74,5.16,5.74a4.743,4.743,0,0,0,3.86-1.82V30h2.3V18.98h-2.3v1.6a4.691,4.691,0,0,0-3.82-1.78C-25.47,18.8-27.77,21.04-27.77,24.44Zm9.02.04a3.424,3.424,0,0,1-3.34,3.72,3.472,3.472,0,0,1-3.34-3.76,3.381,3.381,0,0,1,3.34-3.66A3.417,3.417,0,0,1-18.75,24.48ZM-5.63,30h2.26V23.5c0-3.08-1.94-4.7-4.52-4.7a4.239,4.239,0,0,0-3.28,1.44V18.98h-2.28V30h2.28V23.84c0-2.02,1.1-3.06,2.78-3.06,1.66,0,2.76,1.04,2.76,3.06Zm4.4-5.56c0,3.4,2.3,5.74,5.16,5.74a4.743,4.743,0,0,0,3.86-1.82V30h2.3V18.98H7.79v1.6A4.691,4.691,0,0,0,3.97,18.8C1.07,18.8-1.23,21.04-1.23,24.44Zm9.02.04A3.424,3.424,0,0,1,4.45,28.2a3.472,3.472,0,0,1-3.34-3.76,3.381,3.381,0,0,1,3.34-3.66A3.417,3.417,0,0,1,7.79,24.48Zm4.54-.04c0,3.4,2.3,5.74,5.2,5.74a4.731,4.731,0,0,0,3.82-1.84v1.84a2.936,2.936,0,0,1-3.08,3.28,3.072,3.072,0,0,1-3.14-1.92H12.87c.28,2.44,2.46,3.9,5.4,3.9a5,5,0,0,0,5.38-5.26V18.98h-2.3v1.6a4.668,4.668,0,0,0-3.82-1.78C14.63,18.8,12.33,21.04,12.33,24.44Zm9.02.04a3.424,3.424,0,0,1-3.34,3.72,3.472,3.472,0,0,1-3.34-3.76,3.381,3.381,0,0,1,3.34-3.66A3.417,3.417,0,0,1,21.35,24.48Zm9.94-3.76a2.862,2.862,0,0,1,3.08,2.78h-6.1A3,3,0,0,1,31.29,20.72Zm5.16,6H33.99a2.668,2.668,0,0,1-2.6,1.54,3.031,3.031,0,0,1-3.14-2.92h8.42a7.033,7.033,0,0,0,.08-1.12,5.139,5.139,0,0,0-5.36-5.42c-3.26,0-5.5,2.22-5.5,5.68a5.346,5.346,0,0,0,5.5,5.7A5.035,5.035,0,0,0,36.45,26.72ZM54.61,30h2.26V23.5a4.518,4.518,0,0,0-8.38-2.52,4.251,4.251,0,0,0-3.96-2.18,4.2,4.2,0,0,0-3.26,1.44V18.98H38.99V30h2.28V23.84c0-2.02,1.1-3.06,2.78-3.06,1.66,0,2.76,1.04,2.76,3.06V30h2.26V23.84c0-2.02,1.1-3.06,2.78-3.06,1.66,0,2.76,1.04,2.76,3.06Zm9.8-9.28a2.862,2.862,0,0,1,3.08,2.78h-6.1A3,3,0,0,1,64.41,20.72Zm5.16,6H67.11a2.668,2.668,0,0,1-2.6,1.54,3.031,3.031,0,0,1-3.14-2.92h8.42a7.033,7.033,0,0,0,.08-1.12,5.139,5.139,0,0,0-5.36-5.42c-3.26,0-5.5,2.22-5.5,5.68a5.346,5.346,0,0,0,5.5,5.7A5.035,5.035,0,0,0,69.57,26.72ZM79.93,30h2.26V23.5c0-3.08-1.94-4.7-4.52-4.7a4.239,4.239,0,0,0-3.28,1.44V18.98H72.11V30h2.28V23.84c0-2.02,1.1-3.06,2.78-3.06,1.66,0,2.76,1.04,2.76,3.06Zm5.52-3.06c0,2.24,1.22,3.06,3.18,3.06h1.8V28.1h-1.4c-.96,0-1.28-.34-1.28-1.16v-6.1h2.68V18.98H87.75V16.24h-2.3v2.74h-1.3v1.86h1.3Z" transform="translate(325 1707)" fill="#585858"/>
    <g id="Asset_2" data-name="Asset 2" transform="translate(247 1487)">
      <g id="Ñëîé_1" data-name="Ñëîé 1" transform="translate(0 0)">
        <path id="Path_1384" data-name="Path 1384" d="M37.16,120.046l-12.84-7.417,10.2-5.889,12.84,7.41Z" transform="translate(-8.397 -36.748)" fill="#041860" opacity="0.6"/>
        <path id="Path_1385" data-name="Path 1385" d="M35.146,121.37,17,110.878l14.532-8.388L49.7,112.983Zm-17.3-10.493,17.3,9.988L48.8,113l-17.3-10Z" transform="translate(-5.877 -35.285)" fill="#fff"/>
        <path id="Path_1386" data-name="Path 1386" d="M37.16,93.9l-12.84-7.41,10.2-5.9,12.84,7.417Z" transform="translate(-8.397 -27.747)" fill="url(#linear-gradient-2)"/>
        <path id="Path_1387" data-name="Path 1387" d="M54.1,99.855V91.9L43.9,97.789v7.955Z" transform="translate(-15.136 -31.64)" fill="url(#linear-gradient-3)"/>
        <path id="Path_1388" data-name="Path 1388" d="M24.32,89.58v7.955l12.84,7.41V96.99Z" transform="translate(-8.397 -30.841)" fill="url(#linear-gradient-4)"/>
        <path id="Path_1389" data-name="Path 1389" d="M33.441,86.74,27.88,89.953v1.718l1.653.951V90.9l5.561-3.213Z" transform="translate(-9.622 -29.864)" fill="#fff"/>
        <path id="Path_1390" data-name="Path 1390" d="M38.831,89.85,33.27,93.063v1.718l1.646.951V94.014L40.477,90.8Z" transform="translate(-11.477 -30.934)" fill="#fff"/>
        <path id="Path_1391" data-name="Path 1391" d="M44.221,92.96,38.66,96.173v1.718l1.653.951V97.124l5.555-3.207Z" transform="translate(-13.332 -32.005)" fill="#fff"/>
        <path id="Path_1392" data-name="Path 1392" d="M36.36,86.74v.7l1.062.6.59-.348Z" transform="translate(-12.541 -29.864)" fill="#a9ebff"/>
        <path id="Path_1393" data-name="Path 1393" d="M28.483,93.72l-.6.354,1.653.951V94.31Z" transform="translate(-9.622 -32.266)" fill="#a9ebff"/>
        <path id="Path_1394" data-name="Path 1394" d="M33.441,86.74,27.88,89.953v1.718l.6-.354V90.3l4.964-2.866Z" transform="translate(-9.622 -29.864)" fill="url(#linear-gradient-5)"/>
        <path id="Path_1395" data-name="Path 1395" d="M41.75,89.85v.7l1.056.6.59-.341Z" transform="translate(-14.396 -30.934)" fill="#a9ebff"/>
        <path id="Path_1396" data-name="Path 1396" d="M33.867,96.83l-.6.354,1.646.951V97.42Z" transform="translate(-11.477 -33.337)" fill="#a9ebff"/>
        <path id="Path_1397" data-name="Path 1397" d="M38.831,89.85,33.27,93.063v1.718l.6-.354V93.411l4.964-2.866Z" transform="translate(-11.477 -30.934)" fill="url(#linear-gradient-5)"/>
        <path id="Path_1398" data-name="Path 1398" d="M47.14,92.96v.7l1.056.6.59-.334Z" transform="translate(-16.251 -32.005)" fill="#a9ebff"/>
        <path id="Path_1399" data-name="Path 1399" d="M39.257,99.94l-.6.354,1.653.951v-.715Z" transform="translate(-13.332 -34.407)" fill="#a9ebff"/>
        <path id="Path_1400" data-name="Path 1400" d="M44.221,92.96,38.66,96.173v1.718l.6-.354V96.521l4.964-2.866Z" transform="translate(-13.332 -32.005)" fill="url(#linear-gradient-5)"/>
        <path id="Path_1401" data-name="Path 1401" d="M114.674,198.476c-15.083,0-30.121-3.279-41.59-9.929-11.148-6.44-17.293-15.011-17.293-24.14s6.138-17.706,17.293-24.14c22.953-13.24,60.241-13.24,83.174,0,11.148,6.44,17.293,15.011,17.293,24.14s-6.138,17.7-17.287,24.14h0C144.794,195.164,129.731,198.469,114.674,198.476Zm0-67.7c-14.985,0-29.963,3.279-41.367,9.876C62.3,147,56.256,155.443,56.256,164.408s6.06,17.4,17.051,23.759c22.808,13.168,59.926,13.168,82.735,0h0c11.011-6.355,17.051-14.795,17.051-23.759s-6.066-17.4-17.051-23.759C144.637,134.051,129.652,130.772,114.674,130.772Z" transform="translate(-19.229 -44.87)" fill="#fff"/>
        <path id="Path_1402" data-name="Path 1402" d="M153.245,186.714c-16.395,9.483-43.053,9.483-59.474,0s-16.395-24.854,0-34.337,43.053-9.483,59.474,0S169.692,177.225,153.245,186.714Z" transform="translate(-28.066 -50.008)" fill="#13247a" opacity="0.5"/>
        <path id="Path_1403" data-name="Path 1403" d="M161.334,25.225,118.275.345a1.83,1.83,0,0,0-1.81-.171L113.54,1.879l1.908,1.154v100.88a6.806,6.806,0,0,0,2.833,5.417l42.554,24.592-.61,2.158,2.945-1.712h0a2.5,2.5,0,0,0,1-2.3V30.642A6.787,6.787,0,0,0,161.334,25.225Z" transform="translate(-39.107 -0.011)" fill="url(#linear-gradient-8)"/>
        <path id="Path_1404" data-name="Path 1404" d="M157.772,136.858l-43.059-24.881a6.788,6.788,0,0,1-2.833-5.417V5.136c0-2.085,1.272-3.049,2.833-2.144l43.053,24.881a6.788,6.788,0,0,1,2.833,5.417V134.694C160.605,136.806,159.34,137.763,157.772,136.858Z" transform="translate(-38.535 -0.92)" fill="url(#linear-gradient-9)"/>
        <path id="Path_1405" data-name="Path 1405" d="M160.605,136.052,111.88,107.9V6.33l48.725,28.153Z" transform="translate(-38.535 -2.186)" fill="#0f65b2"/>
        <path id="Path_1406" data-name="Path 1406" d="M150.109,140.472l-43.486-25.123A5.246,5.246,0,0,1,104,110.758v-95.5a1.731,1.731,0,0,1,2.623-1.5l43.453,25.123a5.246,5.246,0,0,1,2.623,4.591v95.5a1.731,1.731,0,0,1-2.59,1.5Z" transform="translate(-35.823 -4.658)" fill="#fff" opacity="0.4"/>
        <path id="Path_1407" data-name="Path 1407" d="M150.878,140.813a1.915,1.915,0,0,1-.964-.262l-43.486-25.13a5.482,5.482,0,0,1-2.728-4.735V15.17a1.928,1.928,0,0,1,2.892-1.666l43.479,25.156A5.482,5.482,0,0,1,152.8,43.4v95.483a1.967,1.967,0,0,1-1.928,1.928ZM105.628,13.629a1.548,1.548,0,0,0-1.541,1.548v95.516a5.1,5.1,0,0,0,2.538,4.4l43.486,25.13a1.541,1.541,0,0,0,2.315-1.312V43.363a5.1,5.1,0,0,0-2.538-4.4l-43.5-25.13a1.541,1.541,0,0,0-.767-.21Z" transform="translate(-35.72 -4.566)" fill="#fff"/>
        <path id="Path_1408" data-name="Path 1408" d="M150.353,26.114l-6.44-3.692a.951.951,0,0,1-.393-.754h0c0-.289.177-.426.393-.3l6.44,3.679a.951.951,0,0,1,.393.754h0C150.747,26.107,150.57,26.238,150.353,26.114Z" transform="translate(-49.426 -7.345)" fill="#0063ad"/>
        <path id="Path_1409" data-name="Path 1409" d="M139.406,85.1c.879.512,1.594,0,1.594-1.207V48.622a3.823,3.823,0,0,0-1.594-3.049L104.118,25.21a6.014,6.014,0,0,0-.138,1.272v38.18Z" transform="translate(-35.816 -8.684)" fill="#041860" opacity="0.2"/>
        <path id="Path_1410" data-name="Path 1410" d="M109.85,96.61v.879A5.738,5.738,0,0,0,107,97.063a13.867,13.867,0,0,0-10.381,7.05,5.8,5.8,0,0,0-.656,2.735l-.807-.269.872,1.312h0c.721,1.121,2.19,1.751,4.223,1.6a13.867,13.867,0,0,0,10.381-7.05c.872-1.8.853-3.371.111-4.459h0Z" transform="translate(-32.78 -33.261)" fill="#f4a856"/>
        <path id="Path_1411" data-name="Path 1411" d="M109.447,100.243a13.873,13.873,0,0,1-10.381,7.05c-3.987.289-5.817-2.394-4.072-5.994a13.873,13.873,0,0,1,10.381-7.05C109.362,93.96,111.165,96.642,109.447,100.243Z" transform="translate(-32.495 -32.441)" fill="#fccc6b"/>
        <path id="Path_1412" data-name="Path 1412" d="M109.447,100.243a13.873,13.873,0,0,1-10.381,7.05c-3.987.289-5.817-2.394-4.072-5.994a13.873,13.873,0,0,1,10.381-7.05C109.362,93.96,111.165,96.642,109.447,100.243Z" transform="translate(-32.495 -32.441)" fill="url(#radial-gradient)"/>
        <path id="Path_1413" data-name="Path 1413" d="M105.345,104.883a10.88,10.88,0,0,1-5.148,1.967,3.8,3.8,0,0,1-3.581-1.312,3.7,3.7,0,0,1,.092-3.817,11.727,11.727,0,0,1,8.781-5.961,3.8,3.8,0,0,1,3.581,1.312,3.7,3.7,0,0,1-.092,3.817,10.827,10.827,0,0,1-3.633,3.994Zm-4.925-7.05a10.67,10.67,0,0,0-3.581,3.935,3.137,3.137,0,0,0,3.345,4.925,11.581,11.581,0,0,0,8.656-5.9,3.137,3.137,0,0,0-3.345-4.925A10.729,10.729,0,0,0,100.42,97.833Z" transform="translate(-33.115 -32.962)" fill="#f4a856"/>
        <path id="Path_1414" data-name="Path 1414" d="M108.951,100.881a11.647,11.647,0,0,1-8.715,5.9c-3.351.243-4.879-2.007-3.417-5.03a11.647,11.647,0,0,1,8.715-5.9C108.885,95.608,110.413,97.857,108.951,100.881Z" transform="translate(-33.16 -32.993)" fill="url(#radial-gradient-2)"/>
        <path id="Path_1415" data-name="Path 1415" d="M97.015,102.077a11.647,11.647,0,0,1,8.715-5.9,3.807,3.807,0,0,1,3.41,1.148c-.584-1-1.843-1.574-3.607-1.443a11.647,11.647,0,0,0-8.715,5.9c-.774,1.594-.708,2.971,0,3.889A3.862,3.862,0,0,1,97.015,102.077Z" transform="translate(-33.16 -33.003)" fill="#f4a856"/>
        <path id="Path_1416" data-name="Path 1416" d="M109.5,100.735a13.873,13.873,0,0,1-10.381,7.05,4.5,4.5,0,0,1-4.086-1.4c.7,1.174,2.2,1.836,4.276,1.679a13.867,13.867,0,0,0,10.381-7.05c.912-1.882.846-3.508,0-4.591C110.349,97.456,110.33,99,109.5,100.735Z" transform="translate(-32.735 -33.196)" fill="#fce586"/>
        <path id="Path_1417" data-name="Path 1417" d="M110.474,104.5a11.148,11.148,0,0,0,2.125-2.918c.872-1.8.853-3.371.111-4.459l-.912-1.312-.039-.052-.059-.085h0a4.463,4.463,0,0,0-4.1-1.43,13.234,13.234,0,0,0-6.761,2.813l7.214,7.443Z" transform="translate(-34.735 -32.44)" fill="#f4a856"/>
        <path id="Path_1418" data-name="Path 1418" d="M123.188,45.087,72,15.53a1.016,1.016,0,0,0-1.043-.085h0l-.761.446.354.052a2.033,2.033,0,0,0-.144.8V52.012A3.823,3.823,0,0,0,72,55.061l51.185,29.57a1.56,1.56,0,0,0,.282.125v.4l.767-.446h0a1.41,1.41,0,0,0,.551-1.312V48.136a3.823,3.823,0,0,0-1.6-3.049Z" transform="translate(-24.189 -5.287)" fill="#fff"/>
        <path id="Path_1419" data-name="Path 1419" d="M122.175,85.277,70.984,55.72a3.823,3.823,0,0,1-1.594-3.049V17.4c0-1.174.715-1.718,1.594-1.207l51.191,29.557a3.823,3.823,0,0,1,1.594,3.043V84.07C123.768,85.244,123.053,85.782,122.175,85.277Z" transform="translate(-23.91 -5.513)" fill="url(#linear-gradient-10)"/>
        <path id="Path_1420" data-name="Path 1420" d="M126.61,61.51V56.48l1.069.616a3.567,3.567,0,0,1,.525.367,2.439,2.439,0,0,1,.4.439,1.823,1.823,0,0,1,.262.551,2.335,2.335,0,0,1,.085.656q0,.931-.656.656a1.967,1.967,0,0,1,.577.721,2.315,2.315,0,0,1,.2.971q0,.715-.308.912t-.912-.157Zm.794-2.525.249.144q.348.2.479.1t.131-.5a1.4,1.4,0,0,0-.046-.367.767.767,0,0,0-.144-.282,1.311,1.311,0,0,0-.23-.216,3.4,3.4,0,0,0-.334-.216l-.111-.066Zm0,2.335.289.171q.354.2.492.092c.092-.072.138-.262.138-.551a1.6,1.6,0,0,0-.157-.748,1.312,1.312,0,0,0-.518-.5l-.249-.144Z" transform="translate(-43.606 -19.448)" fill="#fff"/>
        <path id="Path_1421" data-name="Path 1421" d="M130.82,64.2l.885-4.525.826.479.885,5.548-.741-.426-.177-1.272-.754-.433-.151,1.062Zm1.01-1.18.584.334-.289-2.236Z" transform="translate(-45.055 -20.549)" fill="#fff"/>
        <path id="Path_1422" data-name="Path 1422" d="M135.43,66.606V61.57l.544.315,1.069,3.469V62.508l.656.38v5.036l-.518-.3L136.105,64v3Z" transform="translate(-46.641 -21.2)" fill="#fff"/>
        <path id="Path_1423" data-name="Path 1423" d="M139.89,69.176V64.14l.794.459v2.184l.859-1.692.761.439-.839,1.8.925,3.279-.794-.459-.754-2.82-.157.236V69.6Z" transform="translate(-48.177 -22.084)" fill="#fff"/>
        <path id="Path_1424" data-name="Path 1424" d="M85.839,72.825,76.12,67.212V65.92l9.719,5.607Z" transform="translate(-26.227 -22.697)" fill="#fff"/>
        <path id="Path_1425" data-name="Path 1425" d="M104.049,83.342,94.33,77.728v-1.3l9.719,5.614Z" transform="translate(-32.495 -26.315)" fill="#fff"/>
        <path id="Path_1426" data-name="Path 1426" d="M122.262,93.855l-9.712-5.607v-1.3l9.712,5.607Z" transform="translate(-38.766 -29.936)" fill="#fff"/>
        <path id="Path_1427" data-name="Path 1427" d="M140.479,104.372l-9.719-5.614v-1.3l9.719,5.614Z" transform="translate(-45.034 -33.554)" fill="#fff"/>
        <path id="Path_1428" data-name="Path 1428" d="M122.175,45.743,70.984,16.186c-.879-.512-1.594,0-1.594,1.207V52.668a3.371,3.371,0,0,0,.072.656c2.722-1.967,13.772-8.06,34.954,3.613,7.7,4.25,14.139,3.686,19.359.9V48.786A3.823,3.823,0,0,0,122.175,45.743Z" transform="translate(-23.91 -5.511)" fill="#fff" opacity="0.2"/>
        <path id="Path_1430" data-name="Path 1430" d="M110.138,187.327l-.492.728a5.738,5.738,0,0,0-2.105-1.967,13.878,13.878,0,0,0-12.552-.059,5.791,5.791,0,0,0-2.092,1.889l-.518-.656v1.521h0c-.039,1.312.82,2.682,2.577,3.712a13.878,13.878,0,0,0,12.552.059c1.738-.99,2.623-2.3,2.623-3.613h0Z" transform="translate(-31.823 -63.533)" fill="#f4a856"/>
        <path id="Path_1431" data-name="Path 1431" d="M107.524,189.678a13.9,13.9,0,0,1-12.552-.059c-3.456-2.026-3.443-5.246,0-7.247a13.8,13.8,0,0,1,12.552.059C110.98,184.458,111,187.691,107.524,189.678Z" transform="translate(-31.825 -62.272)" fill="#fccc6b"/>
        <path id="Path_1432" data-name="Path 1432" d="M107.524,189.678a13.9,13.9,0,0,1-12.552-.059c-3.456-2.026-3.443-5.246,0-7.247a13.8,13.8,0,0,1,12.552.059C110.98,184.458,111,187.691,107.524,189.678Z" transform="translate(-31.825 -62.272)" fill="url(#radial-gradient-3)"/>
        <path id="Path_1433" data-name="Path 1433" d="M102.031,190.789a10.879,10.879,0,0,1-5.358-1.312,3.282,3.282,0,0,1,.033-6.21,11.745,11.745,0,0,1,10.611.046,3.282,3.282,0,0,1-.033,6.21A10.827,10.827,0,0,1,102.031,190.789Zm-.079-8.6a10.669,10.669,0,0,0-5.181,1.226,3.135,3.135,0,0,0-.026,5.948,11.581,11.581,0,0,0,10.493.046,3.135,3.135,0,0,0,.026-5.948,10.729,10.729,0,0,0-5.318-1.272Z" transform="translate(-32.543 -62.661)" fill="#f4a856"/>
        <path id="Path_1434" data-name="Path 1434" d="M107.268,189.532a11.647,11.647,0,0,1-10.539-.046c-2.905-1.692-2.892-4.42,0-6.086a11.647,11.647,0,0,1,10.539.046C110.2,185.138,110.186,187.867,107.268,189.532Z" transform="translate(-32.572 -62.709)" fill="url(#radial-gradient-4)"/>
        <path id="Path_1435" data-name="Path 1435" d="M96.757,183.743a11.647,11.647,0,0,1,10.539.046,3.818,3.818,0,0,1,2.164,2.872c.085-1.161-.656-2.335-2.158-3.233a11.647,11.647,0,0,0-10.545-.072c-1.535.879-2.269,2.053-2.19,3.213A3.844,3.844,0,0,1,96.757,183.743Z" transform="translate(-32.574 -62.698)" fill="#f4a856"/>
        <path id="Path_1436" data-name="Path 1436" d="M107.536,191.928a13.9,13.9,0,0,1-12.552-.059,4.508,4.508,0,0,1-2.577-3.469c-.085,1.364.774,2.754,2.577,3.8a13.878,13.878,0,0,0,12.552.059c1.81-1.036,2.682-2.413,2.623-3.784A4.592,4.592,0,0,1,107.536,191.928Z" transform="translate(-31.831 -64.856)" fill="#fce586"/>
        <path id="Path_1437" data-name="Path 1437" d="M112.468,184.017l-.492.728a5.738,5.738,0,0,0-2.105-1.967,13.878,13.878,0,0,0-12.552-.059,5.791,5.791,0,0,0-2.092,1.889l-.518-.656V185.5h0c-.039,1.312.82,2.682,2.577,3.712a13.878,13.878,0,0,0,12.552.059c1.738-.99,2.623-2.3,2.623-3.613h0Z" transform="translate(-32.625 -62.394)" fill="#f4a856"/>
        <path id="Path_1438" data-name="Path 1438" d="M109.854,186.388a13.9,13.9,0,0,1-12.552-.059c-3.456-2.026-3.443-5.246,0-7.246a13.8,13.8,0,0,1,12.552.059C113.31,181.168,113.33,184.388,109.854,186.388Z" transform="translate(-32.627 -61.139)" fill="#fccc6b"/>
        <path id="Path_1439" data-name="Path 1439" d="M109.854,186.388a13.9,13.9,0,0,1-12.552-.059c-3.456-2.026-3.443-5.246,0-7.246a13.8,13.8,0,0,1,12.552.059C113.31,181.168,113.33,184.388,109.854,186.388Z" transform="translate(-32.627 -61.139)" fill="url(#radial-gradient-5)"/>
        <path id="Path_1440" data-name="Path 1440" d="M104.341,187.479a10.88,10.88,0,0,1-5.358-1.312,3.282,3.282,0,0,1,.033-6.21,11.745,11.745,0,0,1,10.611.046,3.282,3.282,0,0,1-.033,6.21A10.827,10.827,0,0,1,104.341,187.479Zm-.079-8.578a10.67,10.67,0,0,0-5.181,1.226,3.532,3.532,0,0,0-2.158,2.945,3.637,3.637,0,0,0,2.131,2.984,11.581,11.581,0,0,0,10.493.046,3.135,3.135,0,0,0,.026-5.948,10.729,10.729,0,0,0-5.312-1.253Z" transform="translate(-33.338 -61.522)" fill="#f4a856"/>
        <path id="Path_1441" data-name="Path 1441" d="M109.591,186.209a11.647,11.647,0,0,1-10.532-.052c-2.905-1.692-2.892-4.42,0-6.086a11.647,11.647,0,0,1,10.539.046C112.522,181.822,112.509,184.543,109.591,186.209Z" transform="translate(-33.374 -61.563)" fill="url(#radial-gradient-6)"/>
        <path id="Path_1442" data-name="Path 1442" d="M99.081,180.441a11.647,11.647,0,0,1,10.539.046,3.818,3.818,0,0,1,2.164,2.872c.085-1.161-.656-2.335-2.158-3.233a11.647,11.647,0,0,0-10.539-.046c-1.535.879-2.269,2.053-2.19,3.213A3.73,3.73,0,0,1,99.081,180.441Z" transform="translate(-33.376 -61.566)" fill="#f4a856"/>
        <path id="Path_1443" data-name="Path 1443" d="M109.856,188.608a13.9,13.9,0,0,1-12.552-.059,4.508,4.508,0,0,1-2.577-3.469c-.085,1.364.774,2.754,2.577,3.8a13.878,13.878,0,0,0,12.552.059c1.81-1.036,2.682-2.413,2.623-3.784A4.587,4.587,0,0,1,109.856,188.608Z" transform="translate(-32.629 -63.713)" fill="#fce586"/>
        <path id="Path_1444" data-name="Path 1444" d="M130.3,200.5l-.492.728a5.738,5.738,0,0,0-2.105-1.967,13.878,13.878,0,0,0-12.552-.059,5.791,5.791,0,0,0-2.092,1.889l-.518-.656v1.548h0c-.039,1.312.82,2.682,2.577,3.712a13.878,13.878,0,0,0,12.552.059c1.738-.99,2.623-2.3,2.623-3.613h0Z" transform="translate(-38.762 -68.066)" fill="#f4a856"/>
        <path id="Path_1445" data-name="Path 1445" d="M127.684,202.848a13.9,13.9,0,0,1-12.552-.059c-3.456-2.026-3.443-5.246,0-7.247a13.8,13.8,0,0,1,12.552.059C131.14,197.628,131.16,200.861,127.684,202.848Z" transform="translate(-38.764 -66.805)" fill="#fccc6b"/>
        <path id="Path_1446" data-name="Path 1446" d="M127.684,202.848a13.9,13.9,0,0,1-12.552-.059c-3.456-2.026-3.443-5.246,0-7.247a13.8,13.8,0,0,1,12.552.059C131.14,197.628,131.16,200.861,127.684,202.848Z" transform="translate(-38.764 -66.805)" fill="url(#radial-gradient-7)"/>
        <path id="Path_1447" data-name="Path 1447" d="M122.181,203.959a10.88,10.88,0,0,1-5.358-1.312,3.282,3.282,0,0,1,.033-6.21,11.745,11.745,0,0,1,10.611.046,3.282,3.282,0,0,1-.033,6.21A10.827,10.827,0,0,1,122.181,203.959Zm-.1-8.6a10.663,10.663,0,0,0-5.181,1.226,3.135,3.135,0,0,0-.026,5.948,11.581,11.581,0,0,0,10.493.046,3.135,3.135,0,0,0,.026-5.948A10.729,10.729,0,0,0,122.083,195.355Z" transform="translate(-39.479 -67.194)" fill="#f4a856"/>
        <path id="Path_1448" data-name="Path 1448" d="M127.428,202.692a11.647,11.647,0,0,1-10.539-.046c-2.905-1.692-2.892-4.42,0-6.086a11.647,11.647,0,0,1,10.539.046C130.359,198.3,130.346,201.013,127.428,202.692Z" transform="translate(-39.511 -67.239)" fill="url(#radial-gradient-8)"/>
        <path id="Path_1449" data-name="Path 1449" d="M116.921,196.921a11.647,11.647,0,0,1,10.539.046,3.818,3.818,0,0,1,2.164,2.872c.085-1.161-.656-2.335-2.158-3.233a11.647,11.647,0,0,0-10.539-.046c-1.535.879-2.269,2.053-2.19,3.213A3.874,3.874,0,0,1,116.921,196.921Z" transform="translate(-39.517 -67.239)" fill="#f4a856"/>
        <path id="Path_1450" data-name="Path 1450" d="M127.686,205.088a13.9,13.9,0,0,1-12.552-.059,4.508,4.508,0,0,1-2.577-3.469c-.085,1.364.774,2.754,2.577,3.8a13.878,13.878,0,0,0,12.552.059c1.81-1.036,2.682-2.413,2.623-3.784A4.562,4.562,0,0,1,127.686,205.088Z" transform="translate(-38.766 -69.386)" fill="#fce586"/>
        <path id="Path_1451" data-name="Path 1451" d="M103.238,205.187l-.492.728a5.738,5.738,0,0,0-2.105-1.967,13.878,13.878,0,0,0-12.552-.059A5.791,5.791,0,0,0,86,205.777l-.518-.656v1.548h0c-.039,1.312.82,2.682,2.577,3.712a13.878,13.878,0,0,0,12.552.059c1.738-.99,2.623-2.3,2.623-3.613h0Z" transform="translate(-29.448 -69.681)" fill="#f4a856"/>
        <path id="Path_1452" data-name="Path 1452" d="M100.624,207.538a13.9,13.9,0,0,1-12.552-.059c-3.456-2.026-3.443-5.246,0-7.246a13.8,13.8,0,0,1,12.552.059C104.08,202.318,104.1,205.551,100.624,207.538Z" transform="translate(-29.45 -68.419)" fill="#fccc6b"/>
        <path id="Path_1453" data-name="Path 1453" d="M100.624,207.538a13.9,13.9,0,0,1-12.552-.059c-3.456-2.026-3.443-5.246,0-7.246a13.8,13.8,0,0,1,12.552.059C104.08,202.318,104.1,205.551,100.624,207.538Z" transform="translate(-29.45 -68.419)" fill="url(#radial-gradient-9)"/>
        <path id="Path_1454" data-name="Path 1454" d="M95.111,208.649a10.88,10.88,0,0,1-5.358-1.312,3.282,3.282,0,0,1,.033-6.21,11.745,11.745,0,0,1,10.611.046,3.282,3.282,0,0,1-.033,6.21A10.827,10.827,0,0,1,95.111,208.649Zm-.052-8.6a10.67,10.67,0,0,0-5.181,1.226,3.135,3.135,0,0,0-.026,5.948,11.581,11.581,0,0,0,10.493.046,3.135,3.135,0,0,0,.026-5.948,10.729,10.729,0,0,0-5.312-1.272Z" transform="translate(-30.161 -68.809)" fill="#f4a856"/>
        <path id="Path_1455" data-name="Path 1455" d="M100.352,207.389a11.647,11.647,0,0,1-10.493-.052c-2.905-1.692-2.892-4.42,0-6.086a11.647,11.647,0,0,1,10.539.046C103.3,202.995,103.29,205.717,100.352,207.389Z" transform="translate(-30.207 -68.853)" fill="url(#radial-gradient-10)"/>
        <path id="Path_1456" data-name="Path 1456" d="M89.847,201.612a11.647,11.647,0,0,1,10.539.046,3.818,3.818,0,0,1,2.164,2.872c.085-1.161-.656-2.335-2.158-3.233a11.647,11.647,0,0,0-10.545-.039c-1.535.879-2.269,2.053-2.19,3.213A3.835,3.835,0,0,1,89.847,201.612Z" transform="translate(-30.196 -68.854)" fill="#f4a856"/>
        <path id="Path_1457" data-name="Path 1457" d="M100.626,209.778a13.9,13.9,0,0,1-12.552-.059A4.508,4.508,0,0,1,85.5,206.25c-.085,1.364.774,2.754,2.577,3.8a13.878,13.878,0,0,0,12.552.059c1.81-1.036,2.682-2.413,2.623-3.784A4.556,4.556,0,0,1,100.626,209.778Z" transform="translate(-29.452 -71)" fill="#fce586"/>
        <path id="Path_1458" data-name="Path 1458" d="M116.038,200.217l-.492.728a5.739,5.739,0,0,0-2.105-1.967,13.878,13.878,0,0,0-12.552-.059,5.791,5.791,0,0,0-2.092,1.889l-.518-.656V201.7h0c-.039,1.312.82,2.682,2.577,3.712a13.878,13.878,0,0,0,12.552.059c1.738-.99,2.623-2.3,2.623-3.613h0Z" transform="translate(-33.853 -67.97)" fill="#f4a856"/>
        <path id="Path_1459" data-name="Path 1459" d="M113.424,202.558a13.9,13.9,0,0,1-12.552-.059c-3.456-2.026-3.443-5.246,0-7.246a13.8,13.8,0,0,1,12.552.059C116.88,197.338,116.9,200.578,113.424,202.558Z" transform="translate(-33.856 -66.705)" fill="#fccc6b"/>
        <path id="Path_1460" data-name="Path 1460" d="M113.424,202.558a13.9,13.9,0,0,1-12.552-.059c-3.456-2.026-3.443-5.246,0-7.246a13.8,13.8,0,0,1,12.552.059C116.88,197.338,116.9,200.578,113.424,202.558Z" transform="translate(-33.856 -66.705)" fill="url(#radial-gradient-11)"/>
        <path id="Path_1461" data-name="Path 1461" d="M107.921,203.679a10.879,10.879,0,0,1-5.358-1.312,3.282,3.282,0,0,1,.033-6.21,11.745,11.745,0,0,1,10.611.046,3.282,3.282,0,0,1-.033,6.21,10.827,10.827,0,0,1-5.253,1.266Zm-.079-8.6a10.67,10.67,0,0,0-5.181,1.226,3.135,3.135,0,0,0-.026,5.948,11.581,11.581,0,0,0,10.493.046,3.135,3.135,0,0,0,.026-5.948,10.729,10.729,0,0,0-5.312-1.279Z" transform="translate(-34.57 -67.098)" fill="#f4a856"/>
        <path id="Path_1462" data-name="Path 1462" d="M113.168,202.412a11.647,11.647,0,0,1-10.539-.046c-2.905-1.692-2.892-4.42,0-6.086a11.647,11.647,0,0,1,10.539.046C116.1,198.018,116.086,200.747,113.168,202.412Z" transform="translate(-34.603 -67.142)" fill="url(#radial-gradient-12)"/>
        <path id="Path_1463" data-name="Path 1463" d="M102.661,196.631a11.647,11.647,0,0,1,10.539.046,3.818,3.818,0,0,1,2.164,2.872c.085-1.161-.656-2.335-2.158-3.233a11.647,11.647,0,0,0-10.539-.046c-1.535.879-2.269,2.053-2.19,3.213A3.806,3.806,0,0,1,102.661,196.631Z" transform="translate(-34.608 -67.139)" fill="#f4a856"/>
        <path id="Path_1464" data-name="Path 1464" d="M113.426,204.808a13.9,13.9,0,0,1-12.552-.059A4.508,4.508,0,0,1,98.3,201.28c-.085,1.364.774,2.754,2.577,3.8a13.878,13.878,0,0,0,12.552.059c1.81-1.036,2.682-2.413,2.623-3.784A4.561,4.561,0,0,1,113.426,204.808Z" transform="translate(-33.858 -69.289)" fill="#fce586"/>
        <path id="Path_1465" data-name="Path 1465" d="M119.538,197.547l-.492.728a5.738,5.738,0,0,0-2.105-1.967,13.878,13.878,0,0,0-12.552-.059,5.791,5.791,0,0,0-2.092,1.889l-.518-.656v1.548h0c-.039,1.312.82,2.682,2.577,3.712a13.878,13.878,0,0,0,12.552.059c1.738-.99,2.623-2.3,2.623-3.613h0Z" transform="translate(-35.058 -67.051)" fill="#f4a856"/>
        <path id="Path_1466" data-name="Path 1466" d="M116.924,199.858a13.9,13.9,0,0,1-12.552-.059c-3.456-2.026-3.443-5.246,0-7.247a13.8,13.8,0,0,1,12.552.059C120.38,194.638,120.4,197.871,116.924,199.858Z" transform="translate(-35.061 -65.776)" fill="#fccc6b"/>
        <path id="Path_1467" data-name="Path 1467" d="M116.924,199.858a13.9,13.9,0,0,1-12.552-.059c-3.456-2.026-3.443-5.246,0-7.247a13.8,13.8,0,0,1,12.552.059C120.38,194.638,120.4,197.871,116.924,199.858Z" transform="translate(-35.061 -65.776)" fill="url(#radial-gradient-13)"/>
        <path id="Path_1468" data-name="Path 1468" d="M111.421,200.969a10.88,10.88,0,0,1-5.358-1.312,3.282,3.282,0,0,1,.033-6.21,11.745,11.745,0,0,1,10.611.046,3.282,3.282,0,0,1-.033,6.21,10.828,10.828,0,0,1-5.253,1.266Zm-.079-8.6a10.67,10.67,0,0,0-5.181,1.226,3.135,3.135,0,0,0-.026,5.948,11.581,11.581,0,0,0,10.493.046,3.135,3.135,0,0,0,.026-5.948,10.729,10.729,0,0,0-5.312-1.272Z" transform="translate(-35.775 -66.165)" fill="#f4a856"/>
        <path id="Path_1469" data-name="Path 1469" d="M116.668,199.7a11.647,11.647,0,0,1-10.539-.046c-2.905-1.692-2.892-4.42,0-6.086a11.647,11.647,0,0,1,10.539.046C119.6,195.315,119.586,198.017,116.668,199.7Z" transform="translate(-35.808 -66.21)" fill="url(#radial-gradient-14)"/>
        <path id="Path_1470" data-name="Path 1470" d="M106.161,193.931a11.647,11.647,0,0,1,10.539.046,3.818,3.818,0,0,1,2.164,2.872c.085-1.161-.656-2.335-2.158-3.233a11.647,11.647,0,0,0-10.539-.046c-1.535.879-2.269,2.053-2.19,3.213A3.816,3.816,0,0,1,106.161,193.931Z" transform="translate(-35.813 -66.21)" fill="#f4a856"/>
        <path id="Path_1471" data-name="Path 1471" d="M116.926,202.148a13.9,13.9,0,0,1-12.552-.059,4.508,4.508,0,0,1-2.577-3.469c-.085,1.364.774,2.754,2.577,3.8a13.878,13.878,0,0,0,12.552.059c1.81-1.036,2.682-2.413,2.623-3.784A4.656,4.656,0,0,1,116.926,202.148Z" transform="translate(-35.063 -68.374)" fill="#fce586"/>
        <path id="Path_1472" data-name="Path 1472" d="M121.388,192.307l-.492.728a5.738,5.738,0,0,0-2.105-1.967,13.878,13.878,0,0,0-12.552-.059,5.8,5.8,0,0,0-2.092,1.889l-.518-.656v1.535h0c-.039,1.312.82,2.682,2.577,3.712a13.878,13.878,0,0,0,12.552.059c1.738-.99,2.623-2.3,2.623-3.613h0Z" transform="translate(-35.695 -65.247)" fill="#f4a856"/>
        <path id="Path_1473" data-name="Path 1473" d="M118.784,194.658a13.9,13.9,0,0,1-12.552-.059c-3.456-2.026-3.443-5.246,0-7.247a13.8,13.8,0,0,1,12.552.059C122.24,189.438,122.24,192.671,118.784,194.658Z" transform="translate(-35.701 -63.986)" fill="#fccc6b"/>
        <path id="Path_1474" data-name="Path 1474" d="M118.784,194.658a13.9,13.9,0,0,1-12.552-.059c-3.456-2.026-3.443-5.246,0-7.247a13.8,13.8,0,0,1,12.552.059C122.24,189.438,122.24,192.671,118.784,194.658Z" transform="translate(-35.701 -63.986)" fill="url(#radial-gradient-15)"/>
        <path id="Path_1475" data-name="Path 1475" d="M113.271,195.769a10.88,10.88,0,0,1-5.358-1.312,3.282,3.282,0,0,1,.033-6.21,11.745,11.745,0,0,1,10.611.046,3.282,3.282,0,0,1-.033,6.21A10.827,10.827,0,0,1,113.271,195.769Zm-.079-8.6a10.67,10.67,0,0,0-5.181,1.226,3.135,3.135,0,0,0-.026,5.948,11.581,11.581,0,0,0,10.493.046,3.135,3.135,0,0,0,.026-5.948,10.729,10.729,0,0,0-5.312-1.279Z" transform="translate(-36.412 -64.375)" fill="#f4a856"/>
        <path id="Path_1476" data-name="Path 1476" d="M118.518,194.5a11.647,11.647,0,0,1-10.539-.046c-2.905-1.692-2.892-4.42,0-6.086a11.647,11.647,0,0,1,10.539.046C121.449,190.115,121.436,192.837,118.518,194.5Z" transform="translate(-36.444 -64.42)" fill="url(#radial-gradient-16)"/>
        <path id="Path_1477" data-name="Path 1477" d="M108.011,188.731a11.647,11.647,0,0,1,10.539.046,3.818,3.818,0,0,1,2.164,2.872c.085-1.161-.656-2.335-2.158-3.233a11.647,11.647,0,0,0-10.539-.046c-1.535.879-2.269,2.053-2.19,3.213A3.8,3.8,0,0,1,108.011,188.731Z" transform="translate(-36.45 -64.42)" fill="#f4a856"/>
        <path id="Path_1478" data-name="Path 1478" d="M118.786,196.9a13.9,13.9,0,0,1-12.552-.059,4.508,4.508,0,0,1-2.577-3.469c-.085,1.364.774,2.754,2.577,3.8a13.878,13.878,0,0,0,12.552.059c1.81-1.036,2.682-2.413,2.623-3.784A4.577,4.577,0,0,1,118.786,196.9Z" transform="translate(-35.703 -66.567)" fill="#fce586"/>
        <path id="Path_1479" data-name="Path 1479" d="M130.729,193.364l-.656.61a5.738,5.738,0,0,0-1.659-2.348A13.87,13.87,0,0,0,116.137,189a5.791,5.791,0,0,0-2.433,1.417l-.367-.767-.321,1.515h0c-.315,1.312.249,2.794,1.764,4.158a13.87,13.87,0,0,0,12.276,2.623c1.9-.616,3.023-1.718,3.279-3h0Z" transform="translate(-38.897 -64.895)" fill="#f4a856"/>
        <path id="Path_1480" data-name="Path 1480" d="M127.585,195.135a13.87,13.87,0,0,1-12.276-2.623c-2.971-2.682-2.3-5.856,1.515-7.089a13.87,13.87,0,0,1,12.276,2.623C132.07,190.728,131.414,193.9,127.585,195.135Z" transform="translate(-39.078 -63.662)" fill="#fccc6b"/>
        <path id="Path_1481" data-name="Path 1481" d="M127.585,195.135a13.87,13.87,0,0,1-12.276-2.623c-2.971-2.682-2.3-5.856,1.515-7.089a13.87,13.87,0,0,1,12.276,2.623C132.07,190.728,131.414,193.9,127.585,195.135Z" transform="translate(-39.078 -63.662)" fill="url(#radial-gradient-17)"/>
        <path id="Path_1482" data-name="Path 1482" d="M122.076,194.973a10.879,10.879,0,0,1-4.984-2.361,3.286,3.286,0,0,1,1.3-6.079,11.75,11.75,0,0,1,10.381,2.217,3.286,3.286,0,0,1-1.3,6.079A10.827,10.827,0,0,1,122.076,194.973Zm1.685-8.433a10.67,10.67,0,0,0-5.305.157,3.134,3.134,0,0,0-1.246,5.817,11.581,11.581,0,0,0,10.23,2.19,3.139,3.139,0,0,0,1.246-5.823,10.729,10.729,0,0,0-4.925-2.341Z" transform="translate(-39.786 -64.071)" fill="#f4a856"/>
        <path id="Path_1483" data-name="Path 1483" d="M127.493,194.818a11.647,11.647,0,0,1-10.309-2.2c-2.492-2.249-1.928-4.912,1.272-5.948a11.647,11.647,0,0,1,10.3,2.2C131.258,191.119,130.687,193.782,127.493,194.818Z" transform="translate(-39.826 -64.126)" fill="url(#radial-gradient-18)"/>
        <path id="Path_1484" data-name="Path 1484" d="M118.4,187.025a11.647,11.647,0,0,1,10.3,2.2,3.822,3.822,0,0,1,1.528,3.279c.321-1.115-.138-2.42-1.456-3.607a11.647,11.647,0,0,0-10.3-2.2c-1.685.544-2.623,1.541-2.8,2.7A3.789,3.789,0,0,1,118.4,187.025Z" transform="translate(-39.84 -64.136)" fill="#f4a856"/>
        <path id="Path_1485" data-name="Path 1485" d="M127.687,196.558a13.87,13.87,0,0,1-12.276-2.623c-1.423-1.312-2.007-2.676-1.817-3.935-.361,1.312.19,2.853,1.744,4.25a13.87,13.87,0,0,0,12.276,2.623c1.967-.656,3.115-1.817,3.325-3.167A4.531,4.531,0,0,1,127.687,196.558Z" transform="translate(-39.089 -65.407)" fill="#fce586"/>
        <path id="Path_1486" data-name="Path 1486" d="M110.7,134.377l-.78.393a5.738,5.738,0,0,0-.866-2.741,13.863,13.863,0,0,0-10.9-6.23,5.791,5.791,0,0,0-2.748.616l-.118-.846-.767,1.344h0c-.7,1.141-.61,2.735.42,4.5a13.863,13.863,0,0,0,10.9,6.23c2,0,3.4-.715,4.053-1.856h0Z" transform="translate(-32.406 -43.229)" fill="#f4a856"/>
        <path id="Path_1487" data-name="Path 1487" d="M107.072,135.209a13.936,13.936,0,0,1-10.9-6.23c-2.02-3.456-.407-6.276,3.594-6.289a13.9,13.9,0,0,1,10.9,6.23C112.686,132.376,111.072,135.189,107.072,135.209Z" transform="translate(-32.829 -42.238)" fill="#fccc6b"/>
        <path id="Path_1488" data-name="Path 1488" d="M107.072,135.209a13.936,13.936,0,0,1-10.9-6.23c-2.02-3.456-.407-6.276,3.594-6.289a13.9,13.9,0,0,1,10.9,6.23C112.686,132.376,111.072,135.189,107.072,135.209Z" transform="translate(-32.829 -42.238)" fill="url(#radial-gradient-19)"/>
        <path id="Path_1489" data-name="Path 1489" d="M101.947,133.265A10.879,10.879,0,0,1,97.92,129.5,3.281,3.281,0,0,1,101,124.11a11.715,11.715,0,0,1,9.181,5.246,3.281,3.281,0,0,1-3.082,5.391A10.827,10.827,0,0,1,101.947,133.265Zm4.164-7.522A10.663,10.663,0,0,0,101,124.261a3.137,3.137,0,0,0-2.951,5.168,11.581,11.581,0,0,0,9.083,5.194,3.137,3.137,0,0,0,2.951-5.168A10.729,10.729,0,0,0,106.111,125.743Z" transform="translate(-33.475 -42.727)" fill="#f4a856"/>
        <path id="Path_1490" data-name="Path 1490" d="M107.158,134.725a11.647,11.647,0,0,1-9.181-5.246c-1.692-2.905-.341-5.246,3.017-5.279a11.647,11.647,0,0,1,9.181,5.246C111.867,132.345,110.516,134.712,107.158,134.725Z" transform="translate(-33.499 -42.758)" fill="url(#radial-gradient-20)"/>
        <path id="Path_1491" data-name="Path 1491" d="M101,124.528a11.647,11.647,0,0,1,9.181,5.246,3.81,3.81,0,0,1,.466,3.568c.656-.964.6-2.348-.289-3.876a11.647,11.647,0,0,0-9.181-5.246c-1.771,0-2.984.656-3.489,1.718A3.806,3.806,0,0,1,101,124.528Z" transform="translate(-33.651 -42.765)" fill="#f4a856"/>
        <path id="Path_1492" data-name="Path 1492" d="M107.239,135.809a13.936,13.936,0,0,1-10.9-6.23,4.525,4.525,0,0,1-.538-4.289c-.748,1.148-.656,2.774.367,4.591a13.863,13.863,0,0,0,10.9,6.23c2.085,0,3.522-.78,4.131-2.007A4.493,4.493,0,0,1,107.239,135.809Z" transform="translate(-32.832 -43.133)" fill="#fce586"/>
        <path id="Path_1493" data-name="Path 1493" d="M108.7,162.63l-.066.872a5.738,5.738,0,0,0-2.794-.656A13.866,13.866,0,0,0,94.9,168.985a5.791,5.791,0,0,0-.885,2.669l-.78-.334.761,1.351h0c.656,1.18,2.033,1.928,4.072,1.967a13.866,13.866,0,0,0,10.945-6.138c1.023-1.718,1.135-3.279.492-4.433h0Z" transform="translate(-32.116 -55.986)" fill="#f4a856"/>
        <path id="Path_1494" data-name="Path 1494" d="M107.986,166.071a13.859,13.859,0,0,1-10.945,6.138c-4-.052-5.587-2.879-3.548-6.322a13.849,13.849,0,0,1,10.945-6.138C108.439,159.8,110.032,162.629,107.986,166.071Z" transform="translate(-31.9 -54.994)" fill="#fccc6b"/>
        <path id="Path_1495" data-name="Path 1495" d="M107.986,166.071a13.859,13.859,0,0,1-10.945,6.138c-4-.052-5.587-2.879-3.548-6.322a13.849,13.849,0,0,1,10.945-6.138C108.439,159.8,110.032,162.629,107.986,166.071Z" transform="translate(-31.9 -54.994)" fill="url(#radial-gradient-21)"/>
        <path id="Path_1496" data-name="Path 1496" d="M103.574,170.225a10.88,10.88,0,0,1-5.3,1.521,3.727,3.727,0,0,1-3.456-1.626,3.769,3.769,0,0,1,.42-3.8,11.755,11.755,0,0,1,9.26-5.194,3.727,3.727,0,0,1,3.456,1.626,3.769,3.769,0,0,1-.42,3.8,10.827,10.827,0,0,1-3.961,3.672Zm-4.309-7.443a10.67,10.67,0,0,0-3.9,3.62,3.139,3.139,0,0,0,2.912,5.194,11.581,11.581,0,0,0,9.129-5.115,3.139,3.139,0,0,0-2.912-5.194,10.729,10.729,0,0,0-5.227,1.508Z" transform="translate(-32.544 -55.469)" fill="#f4a856"/>
        <path id="Path_1497" data-name="Path 1497" d="M107.515,166.575a11.647,11.647,0,0,1-9.181,5.155c-3.358-.039-4.7-2.42-2.977-5.305a11.647,11.647,0,0,1,9.181-5.155C107.9,161.316,109.233,163.716,107.515,166.575Z" transform="translate(-32.59 -55.517)" fill="url(#radial-gradient-22)"/>
        <path id="Path_1498" data-name="Path 1498" d="M95.507,166.743a11.647,11.647,0,0,1,9.181-5.155,3.7,3.7,0,0,1,3.279,1.436c-.492-1.049-1.7-1.725-3.469-1.744a11.647,11.647,0,0,0-9.181,5.155c-.9,1.521-.964,2.9-.321,3.876A3.9,3.9,0,0,1,95.507,166.743Z" transform="translate(-32.576 -55.521)" fill="#f4a856"/>
        <path id="Path_1499" data-name="Path 1499" d="M108,166.685a13.859,13.859,0,0,1-10.945,6.138c-1.915,0-3.279-.656-3.935-1.744.6,1.233,2.026,2.013,4.118,2.04a13.866,13.866,0,0,0,10.945-6.138c1.069-1.8,1.141-3.423.407-4.591A4.605,4.605,0,0,1,108,166.685Z" transform="translate(-32.078 -55.903)" fill="#fce586"/>
        <path id="Path_1500" data-name="Path 1500" d="M24.074,149.063a1.744,1.744,0,0,1-.872-.236L.249,135.56a.42.42,0,0,1,0-.728L20.579,123.1l.2.354L.453,135.186l22.953,13.286a1.312,1.312,0,0,0,1.312,0L38.423,140.6a1.751,1.751,0,0,1,1.751,0l5.614,3.279-.2.354-5.614-3.279a1.312,1.312,0,0,0-1.312,0l-13.706,7.869A1.744,1.744,0,0,1,24.074,149.063Z" transform="translate(-0.039 -42.379)" fill="#fff"/>
        <path id="Path_1501" data-name="Path 1501" d="M170.719,119.9,149.327,96.951,127.915,95.2s-3.436,29,21.392,59.756C174.162,152.87,170.719,119.9,170.719,119.9Z" transform="translate(-43.999 -32.776)" fill="url(#linear-gradient-11)"/>
        <path id="Path_1502" data-name="Path 1502" d="M125.513,95.2,120.7,97.981l21.392,1.731,4.814-2.781Z" transform="translate(-41.571 -32.776)" fill="url(#linear-gradient-12)"/>
        <path id="Path_1503" data-name="Path 1503" d="M163.4,124.144l-21.392-22.953-8.794-.892-12.6-.859s-3.436,29,21.392,59.756C166.835,157.11,163.4,124.144,163.4,124.144Z" transform="translate(-41.487 -34.235)" fill="url(#linear-gradient-10)"/>
        <path id="Path_1504" data-name="Path 1504" d="M163.484,123.961l-21.392-22.953L120.7,99.258l.6-.348,21.674,1.751,21.392,22.953s2.872,27.543-15.621,33.878C166.258,150.626,163.484,123.961,163.484,123.961Z" transform="translate(-41.571 -34.053)" fill="#fff"/>
        <path id="Path_1505" data-name="Path 1505" d="M161.733,126,142.5,105.344l-7.909-.8-11.326-.754s-3.089,26.074,19.234,53.729C164.808,155.637,161.733,126,161.733,126Z" transform="translate(-42.404 -35.732)" fill="#e4e4e4" opacity="0.2"/>
      </g>
    </g>
  </g>
</svg>
