<svg xmlns="http://www.w3.org/2000/svg" xmlns:xlink="http://www.w3.org/1999/xlink" width="413" height="420" viewBox="0 0 413 420">
  <defs>
    <filter id="Rectangle_2676" x="0" y="0" width="413" height="420" filterUnits="userSpaceOnUse">
      <feOffset dy="12" input="SourceAlpha"/>
      <feGaussianBlur stdDeviation="15" result="blur"/>
      <feFlood flood-opacity="0.161"/>
      <feComposite operator="in" in2="blur"/>
      <feComposite in="SourceGraphic"/>
    </filter>
    <linearGradient id="linear-gradient" x1="-0.344" y1="-0.384" x2="1.244" y2="1.765" gradientUnits="objectBoundingBox">
      <stop offset="0" stop-color="#f905f5"/>
      <stop offset="1" stop-color="#4da1ff"/>
    </linearGradient>
    <linearGradient id="linear-gradient-2" x1="-0.163" y1="-0.041" x2="0.949" y2="1" xlink:href="#linear-gradient"/>
  </defs>
  <g id="Group_1585" data-name="Group 1585" transform="translate(-118 -1061)">
    <g id="Group_1584" data-name="Group 1584">
      <g transform="matrix(1, 0, 0, 1, 118, 1061)" filter="url(#Rectangle_2676)">
        <rect id="Rectangle_2676-2" data-name="Rectangle 2676" width="323" height="330" rx="16" transform="translate(45 33)" fill="#fff"/>
      </g>
      <path id="Path_2582" data-name="Path 2582" d="M16,0H307c8.837,0,16,6.678,16,14.916V151.955c0,8.238-.122,18.759,0,18.528L16,197c-8.837,0-16-9.472-16-17.71V14.916C0,6.678,7.163,0,16,0Z" transform="translate(163 1094)" opacity="0.8" fill="url(#linear-gradient)"/>
      <g id="Layer_2" data-name="Layer 2" transform="translate(239 1074.208)">
        <g id="OBJECTS" transform="translate(0 39.57)">
          <path id="Path_2317" data-name="Path 2317" d="M37.319,99.923a5.994,5.994,0,0,0-1.559.534l-1.637-1.82-2,1.8,1.559,1.742a5.869,5.869,0,0,0-.85,1.559l-2.728-.144L30,106.237l2.525.133a6.025,6.025,0,0,0,.627,2.179l-1.816,1.641,1.793,1.992,1.742-1.559a5.955,5.955,0,0,0,1.855.955l-.117,2.272,2.677.14.113-2.194a6.053,6.053,0,0,0,2.264-.818l1.559,1.742L45.2,110.91l-1.641-1.82a6.08,6.08,0,0,0,.694-1.477l2.584.136.14-2.677-2.51-.133a6.006,6.006,0,0,0-.815-2.264l1.738-1.559-1.8-1.992-1.816,1.637a5.987,5.987,0,0,0-1.789-.779l.144-2.522-2.677-.14Zm3.017,4.26a1.739,1.739,0,1,1,0-.016Z" transform="translate(-18.308 -74.813)" fill="rgba(255,255,255,0.23)"/>
          <path id="Path_2319" data-name="Path 2319" d="M17.126,146.985a3.325,3.325,0,0,0-.842.292l-.9-.994-1.087.982.857.951a3.2,3.2,0,0,0-.464.846l-1.5-.078-.078,1.462,1.38.074a3.328,3.328,0,0,0,.343,1.169l-.99.916.982,1.087.951-.857a3.3,3.3,0,0,0,1.013.522l-.062,1.243,1.462.074.062-1.2a3.371,3.371,0,0,0,1.239-.448l.857.951L21.445,153l-.9-.994a3.235,3.235,0,0,0,.39-.807l1.415.074.078-1.465-1.372-.07a3.258,3.258,0,0,0-.448-1.235l.951-.857-.982-1.091-.994.9a3.266,3.266,0,0,0-.978-.429l.074-1.372-1.465-.078Zm1.652,2.338a.951.951,0,1,1,0-.008Z" transform="translate(-8.007 -104.258)" fill="rgba(255,255,255,0.23)"/>
          <ellipse id="Ellipse_3067" data-name="Ellipse 3067" cx="85.5" cy="6.337" rx="85.5" ry="6.337" transform="translate(0 126.052)" fill="rgba(255,255,255,0.23)"/>
          <path id="Path_2320" data-name="Path 2320" d="M358.774,155.527a2.307,2.307,0,1,1-2.307-2.307A2.307,2.307,0,0,1,358.774,155.527Zm-.725,0a1.576,1.576,0,1,1-.012,0Z" transform="translate(-216.132 -108.927)" fill="rgba(255,255,255,0.23)"/>
          <path id="Path_2326" data-name="Path 2326" d="M356.1,135a.362.362,0,0,0-.362.359v1.59a.362.362,0,1,0,.725,0v-1.6A.362.362,0,0,0,356.1,135Z" transform="translate(-217.096 -97.808)" fill="rgba(255,255,255,0.23)"/>
          <path id="Path_2327" data-name="Path 2327" d="M356.1,127.81a.362.362,0,0,0-.362.362v1.594a.362.362,0,1,0,.725,0v-1.594a.362.362,0,0,0-.362-.362Z" transform="translate(-217.096 -93.42)" fill="rgba(255,255,255,0.23)"/>
          <path id="Path_2328" data-name="Path 2328" d="M359.607,133.44h-1.434a.362.362,0,1,0,0,.725h1.434a.362.362,0,0,0,0-.725Z" transform="translate(-218.359 -96.856)" fill="rgba(255,255,255,0.23)"/>
          <path id="Path_2329" data-name="Path 2329" d="M351.787,133.44h-1.434a.362.362,0,1,0,0,.725h1.434a.362.362,0,1,0,0-.725Z" transform="translate(-213.587 -96.856)" fill="rgba(255,255,255,0.23)"/>
          <path id="Path_2330" data-name="Path 2330" d="M95.9,49.234A2.307,2.307,0,1,1,98.2,46.927,2.307,2.307,0,0,1,95.9,49.234Zm0-.721a1.586,1.586,0,1,0-1.582-1.586A1.586,1.586,0,0,0,95.9,48.513Z" transform="translate(-57.115 -42.652)" fill="rgba(255,255,255,0.23)"/>
          <path id="Path_2331" data-name="Path 2331" d="M112.821,68.774a2.307,2.307,0,1,1,2.3-2.307A2.307,2.307,0,0,1,112.821,68.774Zm0-.725a.656.656,0,1,0,0,.008Z" transform="translate(-67.44 -54.576)" fill="rgba(255,255,255,0.23)"/>
          <path id="Path_2332" data-name="Path 2332" d="M127.869,45.672a.362.362,0,0,0-.359-.362h-1.6a.362.362,0,1,0,0,.725h1.6a.359.359,0,0,0,.359-.362Z" transform="translate(-76.619 -43.073)" fill="rgba(255,255,255,0.23)"/>
          <path id="Path_2333" data-name="Path 2333" d="M135.039,45.672a.362.362,0,0,0-.362-.362h-1.594a.362.362,0,1,0,0,.725h1.594A.362.362,0,0,0,135.039,45.672Z" transform="translate(-80.994 -43.073)" fill="rgba(255,255,255,0.23)"/>
          <path id="Path_2334" data-name="Path 2334" d="M131.865,49.181V47.742a.362.362,0,0,0-.725,0v1.438a.362.362,0,1,0,.725,0Z" transform="translate(-80.03 -44.336)" fill="rgba(255,255,255,0.23)"/>
          <path id="Path_2335" data-name="Path 2335" d="M131.865,41.363v-1.43a.362.362,0,0,0-.725,0v1.43a.362.362,0,1,0,.725,0Z" transform="translate(-80.03 -39.57)" fill="rgba(255,255,255,0.23)"/>
          <path id="Path_2336" data-name="Path 2336" d="M81.381,80.272a.362.362,0,0,0-.362-.362H79.432a.362.362,0,1,0,0,.725h1.594A.362.362,0,0,0,81.381,80.272Z" transform="translate(-48.254 -64.188)" fill="rgba(255,255,255,0.23)"/>
          <path id="Path_2337" data-name="Path 2337" d="M88.533,80.272a.362.362,0,0,0-.362-.362h-1.6a.362.362,0,1,0,0,.725h1.6a.362.362,0,0,0,.362-.362Z" transform="translate(-52.611 -64.188)" fill="rgba(255,255,255,0.23)"/>
          <path id="Path_2338" data-name="Path 2338" d="M85.4,83.777V82.342a.362.362,0,1,0-.725,0v1.434a.362.362,0,0,0,.725,0Z" transform="translate(-51.677 -65.451)" fill="rgba(255,255,255,0.23)"/>
          <path id="Path_2339" data-name="Path 2339" d="M85.4,75.957V74.522a.362.362,0,0,0-.725,0v1.434a.362.362,0,0,0,.725,0Z" transform="translate(-51.677 -60.679)" fill="rgba(255,255,255,0.23)"/>
          <path id="Path_2361" data-name="Path 2361" d="M130.325,162.927s-1.282,3.765-7.795,1.251C122.51,164.178,126.108,158.971,130.325,162.927Z" transform="translate(-74.776 -113.945)" fill="#cae6fe"/>
          <path id="Path_2362" data-name="Path 2362" d="M220.809,66.87v111.2a6.31,6.31,0,0,1-6.31,6.314H159.114a6.322,6.322,0,0,1-6.314-6.314V66.87a6.31,6.31,0,0,1,6.314-6.31H214.5A6.31,6.31,0,0,1,220.809,66.87Z" transform="translate(-93.249 -52.379)" fill="#fff"/>
          <path id="Path_2363" data-name="Path 2363" d="M214.8,66.87v111.2a6.31,6.31,0,0,1-6.31,6.314H153.114a6.314,6.314,0,0,1-6.314-6.314V66.87a6.31,6.31,0,0,1,6.314-6.31h55.374A6.31,6.31,0,0,1,214.8,66.87Z" transform="translate(-89.587 -52.379)" fill="#d6d6d6"/>
          <path id="Path_2364" data-name="Path 2364" d="M324.34,115h.873a1.473,1.473,0,0,0,1.473-1.473v-7.093a1.477,1.477,0,0,0-1.473-1.477h-.873Z" transform="translate(-197.933 -79.475)" fill="#d6d6d6"/>
          <path id="Path_2365" data-name="Path 2365" d="M143.867,114.985h-.7A1.169,1.169,0,0,1,142,113.816V106.1a1.169,1.169,0,0,1,1.169-1.169h.682Z" transform="translate(-86.658 -79.457)" fill="#fff"/>
          <path id="Path_2366" data-name="Path 2366" d="M143.867,148.8h-.7A1.169,1.169,0,0,1,142,147.626v-7.717a1.169,1.169,0,0,1,1.169-1.169h.682Z" transform="translate(-86.658 -100.09)" fill="#fff"/>
          <path id="Path_2367" data-name="Path 2367" d="M216.567,71.413V183.38a2.779,2.779,0,0,1-2.783,2.779H157.643a2.779,2.779,0,0,1-2.561-1.691,2.728,2.728,0,0,1-.222-1.087V71.413a2.783,2.783,0,0,1,2.783-2.783h56.122a2.989,2.989,0,0,1,.534.051,3.02,3.02,0,0,1,.561.171,2.794,2.794,0,0,1,1.649,2.1,2.514,2.514,0,0,1,.058.456Z" transform="translate(-94.506 -57.304)" fill="#fff"/>
          <path id="Path_2368" data-name="Path 2368" d="M226.749,315.42v10.047a1.286,1.286,0,0,1-1.333,1.232H195.683a1.286,1.286,0,0,1-1.333-1.232V315.42a1.282,1.282,0,0,1,1.333-1.232h29.733a1.282,1.282,0,0,1,1.333,1.232Z" transform="translate(-118.605 -207.159)" fill="#f905f5"/>
          <text id="PAY" transform="translate(82.3 116.678)" fill="#c203bf" font-size="9" font-family="SegoeUIBlack, Segoe UI"><tspan x="0" y="0" letter-spacing="-0.08em">PA</tspan><tspan y="0">Y</tspan></text>
          <text id="PAY-2" data-name="PAY" transform="translate(81.708 116.678)" fill="#fff" font-size="9" font-family="SegoeUIBlack, Segoe UI"><tspan x="0" y="0" letter-spacing="-0.08em">PA</tspan><tspan y="0">Y</tspan></text>
          <rect id="Rectangle_2833" data-name="Rectangle 2833" width="28.088" height="49.703" transform="translate(60.537 45.864)" fill="#e9e2e8"/>
          <path id="Path_2369" data-name="Path 2369" d="M232.9,138.837v51.648a5.417,5.417,0,1,1-10.835,0V138.837a5.433,5.433,0,0,1,5.417-5.417,5.3,5.3,0,0,1,1.707.281,5.456,5.456,0,0,1,3.71,5.137Z" transform="translate(-135.522 -96.843)" fill="#c203bf"/>
          <path id="Path_2370" data-name="Path 2370" d="M238.251,139.277v51.648a5.456,5.456,0,0,1-3.71,5.129,5.456,5.456,0,0,1-3.71-5.141V139.277a5.429,5.429,0,0,1,3.71-5.137A5.456,5.456,0,0,1,238.251,139.277Z" transform="translate(-140.868 -97.283)" fill="#f905f5"/>
          <path id="Path_2371" data-name="Path 2371" d="M216.573,71.413V82.925h-61.7V71.413a2.783,2.783,0,0,1,2.779-2.783h56.122a2.989,2.989,0,0,1,.534.051,3.02,3.02,0,0,1,.561.171,2.794,2.794,0,0,1,1.649,2.1,2.512,2.512,0,0,1,.058.456Z" transform="translate(-94.512 -57.304)" fill="#e9e2e8"/>
          <path id="Path_2372" data-name="Path 2372" d="M132.675,83.311h-.019v3.851a5.788,5.788,0,0,1-11.54.647,5.943,5.943,0,0,1-.035-.647V83.389l14.132-14.108a2.2,2.2,0,0,1,1.559-.651h10.34Z" transform="translate(-73.891 -57.304)" fill="#4da1ff"/>
          <path id="Path_2373" data-name="Path 2373" d="M132.655,106.319v3.851a5.788,5.788,0,0,1-11.54.647l-.035-4.42,11.591-.1Z" transform="translate(-73.891 -80.293)" fill="#005ec9"/>
          <path id="Path_2374" data-name="Path 2374" d="M206.51,68.63,192.055,83.085v4.1a5.788,5.788,0,1,1-11.575,0V83.218L194.935,68.63Z" transform="translate(-110.141 -57.304)" fill="#4da1ff"/>
          <path id="Path_2375" data-name="Path 2375" d="M192.055,105.81v4.061a5.788,5.788,0,1,1-11.575,0v-3.964Z" transform="translate(-110.141 -79.994)" fill="#005ec9"/>
          <path id="Path_2376" data-name="Path 2376" d="M251.776,82.925v4.256a5.788,5.788,0,0,1-5.788,5.788,6.1,6.1,0,0,1-6.138-5.788l.027-4.1.062-.062L254.329,68.63h11.926Z" transform="translate(-146.372 -57.304)" fill="#4da1ff"/>
          <path id="Path_2377" data-name="Path 2377" d="M251.786,109.566A5.788,5.788,0,0,1,246,115.353a6.1,6.1,0,0,1-6.138-5.788l.027-4.1.062-.062,11.832-.1Z" transform="translate(-146.378 -79.689)" fill="#005ec9"/>
          <path id="Path_2378" data-name="Path 2378" d="M282.025,82.911h0v4.349a5.788,5.788,0,0,1-11.575,0V83L284.87,68.76a3.02,3.02,0,0,1,.561.171,2.794,2.794,0,0,1,1.649,2.1,2.515,2.515,0,0,1,.039.456v6.427Z" transform="translate(-165.046 -57.384)" fill="#f905f5"/>
          <path id="Path_2379" data-name="Path 2379" d="M282.025,109.419a5.788,5.788,0,1,1-11.575,0v-4.256l11.575-.094Z" transform="translate(-165.046 -79.542)" fill="#c203bf"/>
          <path id="Path_2380" data-name="Path 2380" d="M176.8,68.63,162.348,83.218v3.964a5.788,5.788,0,1,1-11.571,0V83.331h.019l14.42-14.681Z" transform="translate(-92.013 -57.304)" fill="#f905f5"/>
          <path id="Path_2381" data-name="Path 2381" d="M162.348,106.06v3.964a5.788,5.788,0,1,1-11.571,0v-3.851h.019Z" transform="translate(-92.013 -80.147)" fill="#c203bf"/>
          <path id="Path_2382" data-name="Path 2382" d="M236.243,68.63,221.788,83.085v4.1a5.788,5.788,0,1,1-11.571,0v-4.1L224.676,68.63Z" transform="translate(-128.287 -57.304)" fill="#f905f5"/>
          <path id="Path_2383" data-name="Path 2383" d="M221.781,105.56l-.062.062v4.1a5.788,5.788,0,1,1-11.571,0v-4.061Z" transform="translate(-128.244 -79.841)" fill="#c203bf"/>
          <path id="Path_2384" data-name="Path 2384" d="M119.483,153.39v42.742a3.48,3.48,0,0,1-3.484,3.48H43.41a3.476,3.476,0,0,1-3.48-3.48V153.39a3.48,3.48,0,0,1,3.48-3.48H116a3.48,3.48,0,0,1,3.484,3.48Z" transform="translate(-24.368 -106.907)" fill="url(#linear-gradient-2)"/>
          <rect id="Rectangle_2834" data-name="Rectangle 2834" width="79.549" height="9.474" transform="translate(15.562 51.792)" fill="#4da1ff"/>
          <rect id="Rectangle_2835" data-name="Rectangle 2835" width="18.711" height="6.555" rx="3.278" transform="translate(70.655 79.732)" fill="#009ef3"/>
          <rect id="Rectangle_2836" data-name="Rectangle 2836" width="6.08" height="3.574" rx="1.07" transform="translate(20.18 68.928)" fill="#009ef3"/>
          <rect id="Rectangle_2837" data-name="Rectangle 2837" width="6.08" height="3.574" rx="1.07" transform="translate(30.886 68.928)" fill="#009ef3"/>
          <rect id="Rectangle_2838" data-name="Rectangle 2838" width="6.08" height="3.574" rx="1.07" transform="translate(41.592 68.928)" fill="#009ef3"/>
          <rect id="Rectangle_2839" data-name="Rectangle 2839" width="6.08" height="3.574" rx="1.07" transform="translate(52.299 68.928)" fill="#009ef3"/>
          <rect id="Rectangle_2840" data-name="Rectangle 2840" width="6.08" height="3.574" rx="1.07" transform="translate(63.005 68.928)" fill="#009ef3"/>
          <rect id="Rectangle_2841" data-name="Rectangle 2841" width="6.08" height="3.574" rx="1.07" transform="translate(73.711 68.928)" fill="#009ef3"/>
          <rect id="Rectangle_2842" data-name="Rectangle 2842" width="6.08" height="3.574" rx="1.07" transform="translate(84.42 68.928)" fill="#009ef3"/>
          <rect id="Rectangle_2843" data-name="Rectangle 2843" width="79.549" height="1.816" transform="translate(15.562 46.772)" fill="#009ef3"/>
          <rect id="Rectangle_2844" data-name="Rectangle 2844" width="10.706" height="10.706" rx="5.353" transform="translate(20.18 76.513)" fill="#009ef3"/>
          <rect id="Rectangle_2845" data-name="Rectangle 2845" width="34.659" height="2.95" rx="1.475" transform="translate(33.439 81.533)" fill="#009ef3"/>
          <path id="Path_2385" data-name="Path 2385" d="M89.983,149.886,41.1,198.751a3.484,3.484,0,0,1-1.212-2.642V181.1L71.119,149.87Z" transform="translate(-24.343 -106.882)" fill="#fff" opacity="0.2"/>
          <path id="Path_2386" data-name="Path 2386" d="M142.464,149.91l-49.7,49.7H83.54l49.7-49.7Z" transform="translate(-50.982 -106.907)" fill="#fff" opacity="0.2"/>
          <path id="Path_2389" data-name="Path 2389" d="M51.224,368.739v.043a2.112,2.112,0,0,1-.807,1.516c-.129.117-.273.23-.425.343a8.686,8.686,0,0,1-1.614.889l-.429.175a13.711,13.711,0,0,1-1.613.542c-.136.039-.281.082-.425.117-.511.136-1.048.265-1.614.39l-.425.086c-.518.1-1.056.187-1.614.265l-.429.058c-.522.066-1.06.129-1.61.179l-.429.035c-.526.043-1.064.078-1.613.1l-.425.019q-.779.027-1.614.035h-.425c-.546,0-1.083,0-1.614-.031h-.429c-.39,0-.779-.039-1.193-.066l-.421-.031-.425-.035q-.826-.074-1.614-.175l-.425-.055-.982-.148-.631-.113-.425-.078c-.565-.113-1.1-.238-1.614-.39l-.3-.078-.129-.039c-.23-.062-.456-.129-.67-.2-.331-.105-.643-.214-.943-.327l-.425-.172a9.379,9.379,0,0,1-1.43-.729l-.183-.117-.214-.152c-.074-.055-.144-.113-.21-.168a2.219,2.219,0,0,1-.951-1.649v-3.4H51.221v3.36Z" transform="translate(-12.504 -238.4)" fill="#f4a856"/>
          <path id="Path_2390" data-name="Path 2390" d="M23.335,365.336v5.371l-.214-.152c-.074-.055-.144-.113-.21-.168V365.32Z" transform="translate(-13.981 -238.364)" fill="#fccc6b"/>
          <path id="Path_2391" data-name="Path 2391" d="M28.585,365.326v6.392l-.425-.171V365.31Z" transform="translate(-17.185 -238.358)" fill="#fccc6b"/>
          <path id="Path_2392" data-name="Path 2392" d="M33.819,365.34v7.039l-.3-.078-.129-.039V365.34Z" transform="translate(-20.377 -238.376)" fill="#fccc6b"/>
          <path id="Path_2393" data-name="Path 2393" d="M39.055,365.33v7.491l-.425-.078v-7.4Z" transform="translate(-23.575 -238.37)" fill="#fccc6b"/>
          <path id="Path_2394" data-name="Path 2394" d="M44.335,365.33v7.795l-.425-.055v-7.74Z" transform="translate(-26.797 -238.37)" fill="#fccc6b"/>
          <path id="Path_2395" data-name="Path 2395" d="M49.515,365.32v8.021l-.425-.035V365.32Z" transform="translate(-29.958 -238.364)" fill="#fccc6b"/>
          <path id="Path_2396" data-name="Path 2396" d="M54.749,365.31v8.138H54.32V365.31Z" transform="translate(-33.15 -238.358)" fill="#fccc6b"/>
          <path id="Path_2397" data-name="Path 2397" d="M59.985,365.3v8.184H59.56V365.3Z" transform="translate(-36.347 -238.352)" fill="#fccc6b"/>
          <path id="Path_2398" data-name="Path 2398" d="M65.215,365.3v8.118l-.425.019V365.3Z" transform="translate(-39.539 -238.352)" fill="#fccc6b"/>
          <path id="Path_2399" data-name="Path 2399" d="M70.449,365.29v7.986l-.429.035V365.29Z" transform="translate(-42.731 -238.346)" fill="#fccc6b"/>
          <path id="Path_2400" data-name="Path 2400" d="M75.679,365.28v7.752l-.429.058V365.3Z" transform="translate(-45.922 -238.34)" fill="#fccc6b"/>
          <path id="Path_2401" data-name="Path 2401" d="M80.915,365.27v7.4l-.425.086V365.27Z" transform="translate(-49.12 -238.333)" fill="#fccc6b"/>
          <path id="Path_2402" data-name="Path 2402" d="M86.145,365.26v6.914c-.136.039-.281.082-.425.117v-7.015Z" transform="translate(-52.312 -238.327)" fill="#fccc6b"/>
          <path id="Path_2403" data-name="Path 2403" d="M91.379,365.26v6.2l-.429.175V365.26Z" transform="translate(-55.504 -238.327)" fill="#007ce6"/>
          <path id="Path_2404" data-name="Path 2404" d="M96.615,365.25v4.969c-.129.117-.273.23-.425.343V365.25Z" transform="translate(-58.701 -238.321)" fill="#007ce6"/>
          <path id="Path_2405" data-name="Path 2405" d="M51.253,358.552c0,2.412-6.875,4.365-15.363,4.365-1.169,0-2.288-.039-3.375-.105-1.364-.09-2.662-.226-3.862-.39-1.072-.164-2.069-.362-2.97-.589-.277-.07-.542-.144-.779-.218a12.8,12.8,0,0,1-2.8-1.126,4.489,4.489,0,0,1-.39-.249,2.183,2.183,0,0,1-1.169-1.668,1.1,1.1,0,0,1,0-.16c.3-2.338,7.058-4.2,15.352-4.2a51.406,51.406,0,0,1,5.772.316l1.013.133a30.468,30.468,0,0,1,3.9.779c.253.066.5.14.733.214a12.732,12.732,0,0,1,2.151.873,4.564,4.564,0,0,1,1.384,1.048,1.617,1.617,0,0,1,.39.834,1.1,1.1,0,0,1,.016.144Z" transform="translate(-12.536 -231.584)" fill="#fccc6b"/>
          <path id="Path_2406" data-name="Path 2406" d="M63.549,361.189l-18.337,5.254c-1.364-.09-2.662-.226-3.862-.39l20.816-5.893A4.563,4.563,0,0,1,63.549,361.189Z" transform="translate(-25.234 -235.215)" fill="#fff" opacity="0.3"/>
          <path id="Path_2407" data-name="Path 2407" d="M44.479,355.121l-20.59,5.846a4.489,4.489,0,0,1-.39-.249L43.466,355Z" transform="translate(-14.341 -232.066)" fill="#fff" opacity="0.3"/>
          <path id="Path_2408" data-name="Path 2408" d="M54.144,357.534l-21.634,6.177c-.277-.07-.542-.144-.779-.218l21.7-6.173C53.66,357.386,53.91,357.46,54.144,357.534Z" transform="translate(-19.364 -233.482)" fill="#fff" opacity="0.3"/>
          <path id="Path_2409" data-name="Path 2409" d="M53.009,359.858a1.064,1.064,0,0,1,0,.16c-.3,1.851-5.686,3.328-12.269,3.328s-11.969-1.477-12.265-3.328a1.056,1.056,0,0,1,0-.16c0-1.921,5.511-3.508,12.281-3.508S53.009,357.936,53.009,359.858Z" transform="translate(-17.376 -232.89)" fill="#007ce6"/>
          <path id="Path_2410" data-name="Path 2410" d="M52.972,360.579c-.3,1.851-5.686,3.328-12.269,3.328h-.437a39.6,39.6,0,0,1-4.166-.249,27.631,27.631,0,0,1-3.508-.62c-.261-.066-.514-.133-.756-.207a8.723,8.723,0,0,1-2.568-1.142,3.183,3.183,0,0,1-.39-.316,1.458,1.458,0,0,1-.448-.78c.3-1.847,5.682-3.324,12.265-3.324.834,0,1.649.023,2.436.066.39.023.779.051,1.169.086a30.062,30.062,0,0,1,4.264.663c.269.062.526.129.779.2a10.364,10.364,0,0,1,2.377.939,2.619,2.619,0,0,1,1.169,1.107A1.106,1.106,0,0,1,52.972,360.579Z" transform="translate(-17.35 -233.451)" fill="#f4a856"/>
          <path id="Path_2411" data-name="Path 2411" d="M64.9,363.357l-12.627,3.586a39.589,39.589,0,0,1-4.166-.249l15.64-4.443A2.619,2.619,0,0,1,64.9,363.357Z" transform="translate(-29.36 -236.49)" fill="#fff" opacity="0.2"/>
          <path id="Path_2412" data-name="Path 2412" d="M45.013,357.486,29.95,361.773a3.18,3.18,0,0,1-.39-.316L43.828,357.4C44.23,357.423,44.623,357.451,45.013,357.486Z" transform="translate(-18.039 -233.531)" fill="#fff" opacity="0.2"/>
          <path id="Path_2413" data-name="Path 2413" d="M54.715,359.523l-16.759,4.763c-.261-.066-.514-.133-.756-.207l16.759-4.759C54.208,359.382,54.465,359.449,54.715,359.523Z" transform="translate(-22.702 -234.702)" fill="#fff" opacity="0.2"/>
          <path id="Path_2414" data-name="Path 2414" d="M52.845,363.656v.581H50.254v-.553a34.238,34.238,0,0,1-4.724-.366l1.4-.9a27.747,27.747,0,0,0,4.244.331c1.232,0,1.672-.07,1.672-.2,0-.46-7.113-.086-7.113-1.45,0-.589,1.508-1.087,4.521-1.2v-.569h2.592v.557a29.642,29.642,0,0,1,3.734.3l-1.306.892a25.153,25.153,0,0,0-3.586-.273c-1.267,0-1.672.105-1.672.23,0,.436,7.113.074,7.113,1.419C57.129,363.025,55.694,363.516,52.845,363.656Z" transform="translate(-27.785 -234.708)" fill="#007ce6"/>
          <path id="Path_2415" data-name="Path 2415" d="M52.655,363.156v.581H50.064v-.553a33.582,33.582,0,0,1-4.724-.366l1.4-.9a27.823,27.823,0,0,0,4.248.335c1.232,0,1.672-.074,1.672-.2,0-.46-7.113-.09-7.113-1.45,0-.592,1.508-1.087,4.521-1.208v-.569h2.592v.557a30.265,30.265,0,0,1,3.73.3l-1.3.893a25.12,25.12,0,0,0-3.586-.269c-1.271,0-1.672.1-1.672.226,0,.44,7.113.074,7.113,1.423C56.939,362.525,55.5,363.016,52.655,363.156Z" transform="translate(-27.669 -234.403)" fill="#61c2ff"/>
          <path id="Path_2416" data-name="Path 2416" d="M53.717,354.91v.043a2.112,2.112,0,0,1-.807,1.524,5,5,0,0,1-.429.343,8.688,8.688,0,0,1-1.614.889l-.425.175a14.739,14.739,0,0,1-1.614.542c-.14.039-.281.082-.425.117-.511.136-1.048.265-1.614.39l-.429.086c-.514.1-1.056.187-1.61.265l-.429.058c-.522.066-1.06.129-1.613.175l-.425.039c-.526.043-1.064.078-1.614.1l-.425.019q-.779.031-1.613.035h-.44c-.546,0-1.083,0-1.617-.031h-.425c-.39,0-.8-.039-1.2-.066l-.417-.031-.409-.062c-.55-.051-1.091-.109-1.614-.175l-.425-.055-.982-.16-.631-.113c-.144-.023-.288-.051-.429-.082-.561-.109-1.1-.234-1.614-.366l-.3-.082-.129-.035c-.23-.062-.456-.129-.674-.2-.327-.105-.643-.214-.939-.327l-.425-.171a9.382,9.382,0,0,1-1.419-.717l-.183-.117-.214-.152c-.074-.055-.144-.113-.21-.168a2.225,2.225,0,0,1-.955-1.649v-3.4H53.713v3.4Z" transform="translate(-14.03 -229.961)" fill="#f4a856"/>
          <path id="Path_2417" data-name="Path 2417" d="M25.835,351.526V356.9l-.214-.152c-.074-.055-.144-.113-.21-.168V351.51Z" transform="translate(-15.507 -229.936)" fill="#fccc6b"/>
          <path id="Path_2418" data-name="Path 2418" d="M31.065,351.516v6.392l-.425-.171V351.5Z" transform="translate(-18.699 -229.93)" fill="#fccc6b"/>
          <path id="Path_2419" data-name="Path 2419" d="M36.335,351.53v7.039l-.3-.082-.129-.035V351.53Z" transform="translate(-21.915 -229.948)" fill="#fccc6b"/>
          <path id="Path_2420" data-name="Path 2420" d="M41.529,351.52v7.491c-.144-.023-.288-.051-.429-.082v-7.4Z" transform="translate(-25.082 -229.942)" fill="#fccc6b"/>
          <path id="Path_2421" data-name="Path 2421" d="M46.765,351.52v7.795l-.425-.055v-7.74Z" transform="translate(-28.28 -229.942)" fill="#fccc6b"/>
          <path id="Path_2422" data-name="Path 2422" d="M51.995,351.51v8.021l-.425-.035V351.51Z" transform="translate(-31.471 -229.936)" fill="#fccc6b"/>
          <path id="Path_2423" data-name="Path 2423" d="M57.225,351.5v8.138H56.8V351.5Z" transform="translate(-34.663 -229.93)" fill="#fccc6b"/>
          <path id="Path_2424" data-name="Path 2424" d="M62.44,351.49v8.184H62V351.49Z" transform="translate(-37.836 -229.924)" fill="#fccc6b"/>
          <path id="Path_2425" data-name="Path 2425" d="M67.695,351.49v8.118l-.425.019V351.49Z" transform="translate(-41.053 -229.924)" fill="#fccc6b"/>
          <path id="Path_2426" data-name="Path 2426" d="M72.925,351.48v8l-.425.039V351.48Z" transform="translate(-44.244 -229.918)" fill="#fccc6b"/>
          <path id="Path_2427" data-name="Path 2427" d="M78.159,351.47v7.752l-.429.058v-7.795Z" transform="translate(-47.436 -229.912)" fill="#fccc6b"/>
          <path id="Path_2428" data-name="Path 2428" d="M83.389,351.46v7.4l-.429.086V351.46Z" transform="translate(-50.628 -229.906)" fill="#fccc6b"/>
          <path id="Path_2429" data-name="Path 2429" d="M88.625,351.45v6.914c-.14.039-.281.082-.425.117v-7.015Z" transform="translate(-53.825 -229.9)" fill="#fccc6b"/>
          <path id="Path_2430" data-name="Path 2430" d="M93.855,351.45v6.2l-.425.175V351.45Z" transform="translate(-57.017 -229.9)" fill="#007ce6"/>
          <path id="Path_2431" data-name="Path 2431" d="M99.089,351.44v4.969a5,5,0,0,1-.429.343V351.44Z" transform="translate(-60.209 -229.893)" fill="#007ce6"/>
          <path id="Path_2432" data-name="Path 2432" d="M53.714,344.711c0,2.409-6.879,4.365-15.363,4.365-1.169,0-2.288-.039-3.375-.105-1.364-.09-2.662-.226-3.862-.409-1.076-.164-2.069-.362-2.97-.589-.277-.07-.546-.144-.8-.218a12.8,12.8,0,0,1-2.79-1.126,4.5,4.5,0,0,1-.39-.249A2.183,2.183,0,0,1,23,344.711a1.1,1.1,0,0,1,0-.16c.3-2.338,7.058-4.2,15.352-4.2a51.344,51.344,0,0,1,5.768.316l1.013.129a31.793,31.793,0,0,1,3.9.779c.253.07.495.144.733.218a13.015,13.015,0,0,1,2.151.873,4.541,4.541,0,0,1,1.38,1.048,1.625,1.625,0,0,1,.39.834A1.1,1.1,0,0,1,53.714,344.711Z" transform="translate(-14.032 -223.125)" fill="#fccc6b"/>
          <path id="Path_2433" data-name="Path 2433" d="M66.05,347.352l-18.318,5.254c-1.364-.09-2.662-.226-3.862-.409l20.8-5.9a4.54,4.54,0,0,1,1.38,1.052Z" transform="translate(-26.772 -226.757)" fill="#fff" opacity="0.3"/>
          <path id="Path_2434" data-name="Path 2434" d="M46.968,341.289,26.39,347.123a4.5,4.5,0,0,1-.39-.249l19.954-5.714Z" transform="translate(-15.867 -223.62)" fill="#fff" opacity="0.3"/>
          <path id="Path_2435" data-name="Path 2435" d="M56.593,343.718,34.959,349.9c-.277-.07-.546-.144-.8-.218l21.7-6.177C56.114,343.57,56.355,343.644,56.593,343.718Z" transform="translate(-20.847 -225.048)" fill="#fff" opacity="0.3"/>
          <path id="Path_2436" data-name="Path 2436" d="M55.469,346.078v.16c-.3,1.851-5.686,3.328-12.269,3.328s-11.984-1.477-12.281-3.309v-.16c0-1.921,5.511-3.508,12.281-3.508S55.469,344.157,55.469,346.078Z" transform="translate(-18.869 -224.493)" fill="#007ce6"/>
          <path id="Path_2437" data-name="Path 2437" d="M55.409,346.776c-.3,1.851-5.686,3.328-12.269,3.328H42.7a39.7,39.7,0,0,1-4.166-.249,27.67,27.67,0,0,1-3.508-.62c-.261-.066-.514-.133-.756-.207a8.676,8.676,0,0,1-2.588-1.165,3.174,3.174,0,0,1-.39-.316,1.492,1.492,0,0,1-.452-.779c.3-1.847,5.686-3.328,12.269-3.328.834,0,1.645.027,2.436.07.39.023.779.051,1.169.086a30.036,30.036,0,0,1,4.268.663c.269.062.526.129.779.2a10.522,10.522,0,0,1,2.377.939,2.619,2.619,0,0,1,1.169,1.107A1.107,1.107,0,0,1,55.409,346.776Z" transform="translate(-18.821 -225.011)" fill="#f4a856"/>
          <path id="Path_2438" data-name="Path 2438" d="M67.378,349.547l-12.631,3.586a39.729,39.729,0,0,1-4.166-.249l15.644-4.443A2.619,2.619,0,0,1,67.378,349.547Z" transform="translate(-30.867 -228.063)" fill="#fff" opacity="0.2"/>
          <path id="Path_2439" data-name="Path 2439" d="M47.465,343.676,32.39,347.955a3.174,3.174,0,0,1-.39-.316l14.253-4.049C46.685,343.613,47.079,343.641,47.465,343.676Z" transform="translate(-19.528 -225.103)" fill="#fff" opacity="0.2"/>
          <path id="Path_2440" data-name="Path 2440" d="M57.164,345.7l-16.778,4.774c-.261-.066-.514-.133-.756-.207l16.759-4.759C56.658,345.572,56.923,345.639,57.164,345.7Z" transform="translate(-24.185 -226.275)" fill="#fff" opacity="0.2"/>
          <path id="Path_2441" data-name="Path 2441" d="M55.319,349.846v.581H52.727v-.553A34.237,34.237,0,0,1,48,349.507l1.4-.9a27.242,27.242,0,0,0,4.244.335c1.232,0,1.672-.074,1.672-.2,0-.46-7.113-.086-7.113-1.45,0-.589,1.508-1.087,4.521-1.2v-.569h2.592v.577a29.512,29.512,0,0,1,3.73.3l-1.3.865a25.153,25.153,0,0,0-3.586-.273c-1.267,0-1.672.105-1.672.23,0,.436,7.113.074,7.113,1.419C59.6,349.215,58.168,349.706,55.319,349.846Z" transform="translate(-29.293 -226.281)" fill="#007ce6"/>
          <path id="Path_2442" data-name="Path 2442" d="M55.135,349.334v.581H52.544v-.553a33.587,33.587,0,0,1-4.724-.366l1.4-.877a27.738,27.738,0,0,0,4.248.335c1.232,0,1.672-.074,1.672-.2,0-.46-7.113-.09-7.113-1.45,0-.592,1.5-1.087,4.521-1.208V345h2.592v.557a30.325,30.325,0,0,1,3.73.3l-1.306.892a25.07,25.07,0,0,0-3.582-.269c-1.271,0-1.676.1-1.676.226,0,.44,7.117.074,7.117,1.423C59.419,348.7,57.984,349.194,55.135,349.334Z" transform="translate(-29.183 -225.963)" fill="#61c2ff"/>
          <path id="Path_2443" data-name="Path 2443" d="M53.314,341.1v.043a2.1,2.1,0,0,1-.811,1.524,4.394,4.394,0,0,1-.425.343,8.688,8.688,0,0,1-1.614.889l-.425.175a14.745,14.745,0,0,1-1.614.542l-.425.117c-.511.136-1.048.265-1.614.39l-.429.086c-.518.1-1.056.187-1.614.265l-.425.058c-.522.066-1.06.129-1.614.175l-.425.039c-.526.043-1.068.078-1.614.1l-.425.019q-.779.027-1.614.035H37.8c-.546,0-1.083,0-1.614-.031h-.425c-.39,0-.8-.039-1.2-.066l-.417-.031-.425-.035q-.83-.074-1.613-.175l-.417-.082-.982-.148-.631-.113c-.144-.023-.288-.051-.429-.082-.565-.109-1.1-.234-1.614-.366l-.3-.082a.5.5,0,0,1-.125-.035c-.23-.062-.456-.129-.674-.2-.327-.105-.643-.214-.939-.327-.148-.055-.288-.113-.425-.171a9.385,9.385,0,0,1-1.43-.729l-.183-.117-.214-.152-.238-.168a2.231,2.231,0,0,1-.951-1.649v-3.4H53.283v3.4Z" transform="translate(-13.768 -221.533)" fill="#f4a856"/>
          <path id="Path_2444" data-name="Path 2444" d="M25.444,337.716v5.371l-.214-.152-.23-.168V337.7Z" transform="translate(-15.257 -221.508)" fill="#fccc6b"/>
          <path id="Path_2445" data-name="Path 2445" d="M30.7,337.706V344.1c-.148-.055-.288-.113-.425-.171V337.69Z" transform="translate(-18.479 -221.502)" fill="#fccc6b"/>
          <path id="Path_2446" data-name="Path 2446" d="M35.935,337.72v7.039l-.3-.082a.5.5,0,0,1-.125-.035V337.72Z" transform="translate(-21.671 -221.521)" fill="#fccc6b"/>
          <path id="Path_2447" data-name="Path 2447" d="M41.169,337.71V345.2c-.144-.023-.288-.051-.429-.082v-7.4Z" transform="translate(-24.862 -221.514)" fill="#fccc6b"/>
          <path id="Path_2448" data-name="Path 2448" d="M46.417,337.71V345.5L46,345.462V337.71Z" transform="translate(-28.072 -221.514)" fill="#fccc6b"/>
          <path id="Path_2449" data-name="Path 2449" d="M51.635,337.7v8.021l-.425-.035V337.7Z" transform="translate(-31.252 -221.508)" fill="#fccc6b"/>
          <path id="Path_2450" data-name="Path 2450" d="M56.865,337.69v8.138H56.44V337.69Z" transform="translate(-34.443 -221.502)" fill="#fccc6b"/>
          <path id="Path_2451" data-name="Path 2451" d="M62.1,337.68v8.184H61.67V337.68Z" transform="translate(-37.635 -221.496)" fill="#fccc6b"/>
          <path id="Path_2452" data-name="Path 2452" d="M67.335,337.68V345.8l-.425.019V337.68Z" transform="translate(-40.833 -221.496)" fill="#fccc6b"/>
          <path id="Path_2453" data-name="Path 2453" d="M72.565,337.67v7.982l-.425.039V337.67Z" transform="translate(-44.025 -221.49)" fill="#fccc6b"/>
          <path id="Path_2454" data-name="Path 2454" d="M77.795,337.66v7.752l-.425.058v-7.795Z" transform="translate(-47.216 -221.484)" fill="#fccc6b"/>
          <path id="Path_2455" data-name="Path 2455" d="M83.029,337.65v7.4l-.429.086V337.65Z" transform="translate(-50.408 -221.478)" fill="#fccc6b"/>
          <path id="Path_2456" data-name="Path 2456" d="M88.265,337.64v6.914l-.425.117v-7.015Z" transform="translate(-53.606 -221.472)" fill="#fccc6b"/>
          <path id="Path_2457" data-name="Path 2457" d="M93.495,337.64v6.2l-.425.175V337.64Z" transform="translate(-56.797 -221.472)" fill="#fccc6b"/>
          <path id="Path_2458" data-name="Path 2458" d="M98.725,337.63V342.6a4.4,4.4,0,0,1-.425.343V337.63Z" transform="translate(-59.989 -221.466)" fill="#fccc6b"/>
          <path id="Path_2459" data-name="Path 2459" d="M53.342,330.9c0,2.409-6.879,4.365-15.363,4.365-1.169,0-2.292-.039-3.375-.105-1.368-.09-2.662-.226-3.866-.409-1.072-.164-2.066-.362-2.97-.589-.273-.07-.542-.144-.8-.218a12.687,12.687,0,0,1-2.794-1.126,4.489,4.489,0,0,1-.39-.249,2.193,2.193,0,0,1-1.169-1.668,1.064,1.064,0,0,1,0-.16c.3-2.338,7.058-4.2,15.352-4.2a51.4,51.4,0,0,1,5.768.316c.347.039.682.086,1.013.129a31.076,31.076,0,0,1,3.9.779c.253.07.495.144.733.218a13.009,13.009,0,0,1,2.151.873,4.65,4.65,0,0,1,1.38,1.044,1.684,1.684,0,0,1,.39.838,1.063,1.063,0,0,1,.043.164Z" transform="translate(-13.799 -214.698)" fill="#fccc6b"/>
          <path id="Path_2460" data-name="Path 2460" d="M65.684,333.535l-18.318,5.258c-1.368-.09-2.662-.226-3.866-.409l20.82-5.893A4.649,4.649,0,0,1,65.684,333.535Z" transform="translate(-26.547 -218.329)" fill="#fff" opacity="0.3"/>
          <path id="Path_2461" data-name="Path 2461" d="M46.6,327.5,26.01,333.343a4.5,4.5,0,0,1-.39-.249l19.97-5.714C45.929,327.407,46.264,327.454,46.6,327.5Z" transform="translate(-15.635 -215.21)" fill="#fff" opacity="0.3"/>
          <path id="Path_2462" data-name="Path 2462" d="M56.227,329.908l-21.638,6.177c-.273-.07-.542-.144-.8-.218l21.7-6.177C55.748,329.76,55.989,329.834,56.227,329.908Z" transform="translate(-20.621 -216.62)" fill="#fff" opacity="0.3"/>
          <path id="Path_2463" data-name="Path 2463" d="M55.129,332.238a1.056,1.056,0,0,1,0,.16c-.3,1.851-5.682,3.328-12.265,3.328S30.891,334.249,30.6,332.4a1.064,1.064,0,0,1,0-.16c0-1.921,5.507-3.508,12.281-3.508S55.129,330.316,55.129,332.238Z" transform="translate(-18.669 -216.034)" fill="#007ce6"/>
          <path id="Path_2464" data-name="Path 2464" d="M55.069,332.959c-.3,1.851-5.682,3.328-12.265,3.328h-.44a39.647,39.647,0,0,1-4.166-.265,28.4,28.4,0,0,1-3.508-.62c-.261-.066-.514-.133-.756-.207a8.628,8.628,0,0,1-2.572-1.122,3.177,3.177,0,0,1-.39-.316,1.493,1.493,0,0,1-.452-.779c.3-1.847,5.686-3.328,12.269-3.328.83,0,1.645.027,2.432.07.39.023.779.051,1.169.086a30.026,30.026,0,0,1,4.287.663c.269.062.526.129.779.2a10.4,10.4,0,0,1,2.373.939A2.611,2.611,0,0,1,55,332.717,1.1,1.1,0,0,1,55.069,332.959Z" transform="translate(-18.625 -216.596)" fill="#f4a856"/>
          <path id="Path_2465" data-name="Path 2465" d="M67.018,335.719,54.386,339.3a39.645,39.645,0,0,1-4.166-.261L65.86,334.6A2.611,2.611,0,0,1,67.018,335.719Z" transform="translate(-30.648 -219.617)" fill="#fff" opacity="0.2"/>
          <path id="Path_2466" data-name="Path 2466" d="M47.129,329.878,32.07,334.165a3.177,3.177,0,0,1-.39-.316L45.929,329.8C46.346,329.816,46.743,329.843,47.129,329.878Z" transform="translate(-19.333 -216.687)" fill="#fff" opacity="0.2"/>
          <path id="Path_2467" data-name="Path 2467" d="M56.8,331.9l-16.778,4.763c-.261-.066-.514-.133-.756-.207L56.029,331.7A6.8,6.8,0,0,1,56.8,331.9Z" transform="translate(-23.965 -217.847)" fill="#fff" opacity="0.2"/>
          <path id="Path_2468" data-name="Path 2468" d="M54.965,336.036v.581H52.374v-.553a34.186,34.186,0,0,1-4.724-.366l1.4-.9a27.337,27.337,0,0,0,4.248.335c1.232,0,1.672-.074,1.672-.2,0-.46-7.113-.086-7.113-1.45,0-.589,1.508-1.087,4.521-1.2v-.569h2.592v.557a29.517,29.517,0,0,1,3.73.3l-1.306.892a25.059,25.059,0,0,0-3.582-.273c-1.271,0-1.672.105-1.672.23,0,.436,7.113.074,7.113,1.419C59.249,335.4,57.814,335.9,54.965,336.036Z" transform="translate(-29.079 -217.853)" fill="#007ce6"/>
          <path id="Path_2469" data-name="Path 2469" d="M54.775,335.536v.581H52.184v-.553a33.582,33.582,0,0,1-4.724-.366l1.4-.9a27.734,27.734,0,0,0,4.244.335c1.232,0,1.676-.074,1.676-.2,0-.46-7.113-.09-7.113-1.454,0-.589,1.5-1.083,4.521-1.2v-.569h2.592v.557a30.325,30.325,0,0,1,3.73.3l-1.306.892a25.08,25.08,0,0,0-3.586-.269c-1.267,0-1.672.1-1.672.226,0,.44,7.113.074,7.113,1.423C59.055,334.9,57.624,335.415,54.775,335.536Z" transform="translate(-28.963 -217.548)" fill="#61c2ff"/>
          <path id="Path_2470" data-name="Path 2470" d="M51.374,328.74a.16.16,0,0,1,0,.043,2.1,2.1,0,0,1-.807,1.516,4.923,4.923,0,0,1-.425.343,8.47,8.47,0,0,1-1.614.885c-.136.062-.281.121-.425.179a15.038,15.038,0,0,1-1.613.542l-.429.117c-.507.136-1.048.265-1.614.39-.14.027-.281.058-.425.082-.518.1-1.056.187-1.613.269l-.425.058q-.779.1-1.613.175l-.425.039c-.53.043-1.068.078-1.613.1h-.429q-.779.027-1.613.035h-.425c-.546,0-1.083,0-1.613-.031h-.425l-1.2-.066-.417-.031-.425-.039c-.553-.047-1.091-.105-1.614-.171l-.429-.055-.982-.148-.631-.113-.425-.082c-.565-.109-1.1-.234-1.614-.366l-.3-.082-.125-.035c-.23-.062-.456-.133-.674-.2-.327-.105-.643-.214-.939-.327l-.429-.171a9.745,9.745,0,0,1-1.43-.729l-.183-.117-.21-.152-.214-.168a2.219,2.219,0,0,1-.951-1.649v-3.4H51.371v3.406Z" transform="translate(-12.596 -213.99)" fill="#f4a856"/>
          <path id="Path_2471" data-name="Path 2471" d="M23.5,325.362v5.374l-.21-.152-.214-.168V325.35Z" transform="translate(-14.085 -213.972)" fill="#fccc6b"/>
          <path id="Path_2472" data-name="Path 2472" d="M28.739,325.356v6.392l-.429-.172V325.34Z" transform="translate(-17.277 -213.966)" fill="#fccc6b"/>
          <path id="Path_2473" data-name="Path 2473" d="M33.975,325.37v7.039l-.3-.082-.125-.035V325.37Z" transform="translate(-20.474 -213.984)" fill="#fccc6b"/>
          <path id="Path_2474" data-name="Path 2474" d="M39.2,325.36v7.491l-.425-.082v-7.4Z" transform="translate(-23.666 -213.978)" fill="#fccc6b"/>
          <path id="Path_2475" data-name="Path 2475" d="M44.439,325.35v7.795l-.429-.055v-7.736Z" transform="translate(-26.858 -213.972)" fill="#fccc6b"/>
          <path id="Path_2476" data-name="Path 2476" d="M49.675,325.35v8.021l-.425-.039V325.35Z" transform="translate(-30.056 -213.972)" fill="#fccc6b"/>
          <path id="Path_2477" data-name="Path 2477" d="M54.9,325.34v8.138H54.48V325.34Z" transform="translate(-33.247 -213.966)" fill="#fccc6b"/>
          <path id="Path_2478" data-name="Path 2478" d="M60.135,325.33v8.184H59.71V325.33Z" transform="translate(-36.439 -213.959)" fill="#fccc6b"/>
          <path id="Path_2479" data-name="Path 2479" d="M65.329,325.32v8.122H64.9V325.32Z" transform="translate(-39.606 -213.953)" fill="#fccc6b"/>
          <path id="Path_2480" data-name="Path 2480" d="M70.6,325.32V333.3l-.425.039V325.32Z" transform="translate(-42.828 -213.953)" fill="#fccc6b"/>
          <path id="Path_2481" data-name="Path 2481" d="M75.835,325.31v7.752l-.425.058v-7.795Z" transform="translate(-46.02 -213.947)" fill="#fccc6b"/>
          <path id="Path_2482" data-name="Path 2482" d="M81.065,325.3v7.4c-.14.027-.281.058-.425.082V325.3Z" transform="translate(-49.212 -213.941)" fill="#fccc6b"/>
          <path id="Path_2483" data-name="Path 2483" d="M86.329,325.29v6.9l-.429.117v-7.015Z" transform="translate(-52.422 -213.935)" fill="#fccc6b"/>
          <path id="Path_2484" data-name="Path 2484" d="M91.535,325.28v6.2c-.136.062-.281.121-.425.179v-6.372Z" transform="translate(-55.601 -213.929)" fill="#fccc6b"/>
          <path id="Path_2485" data-name="Path 2485" d="M96.765,325.28v4.957a4.93,4.93,0,0,1-.425.343v-5.3Z" transform="translate(-58.793 -213.929)" fill="#fccc6b"/>
          <path id="Path_2486" data-name="Path 2486" d="M51.38,318.569c0,2.409-6.879,4.365-15.363,4.365-1.169,0-2.292-.039-3.375-.109-1.368-.086-2.666-.222-3.866-.39-1.072-.164-2.069-.362-2.97-.589-.273-.07-.542-.144-.8-.218a12.862,12.862,0,0,1-2.794-1.126,3.976,3.976,0,0,1-.39-.249,2.193,2.193,0,0,1-1.169-1.668.779.779,0,0,1,0-.164c.3-2.338,7.054-4.2,15.352-4.2a50.445,50.445,0,0,1,5.768.32c.343.039.682.082,1.013.129a31.231,31.231,0,0,1,3.9.779c.249.07.495.144.729.218a12.6,12.6,0,0,1,2.155.873,4.65,4.65,0,0,1,1.38,1.044,1.672,1.672,0,0,1,.39.834,1.169,1.169,0,0,1,.043.152Z" transform="translate(-12.601 -207.179)" fill="#fccc6b"/>
          <path id="Path_2487" data-name="Path 2487" d="M63.724,321.209l-18.318,5.254c-1.368-.086-2.666-.222-3.866-.39l20.82-5.893A4.65,4.65,0,0,1,63.724,321.209Z" transform="translate(-25.35 -210.817)" fill="#fff" opacity="0.3"/>
          <path id="Path_2488" data-name="Path 2488" d="M44.636,315.129,24.05,320.975a3.965,3.965,0,0,1-.39-.249L43.622,315C43.965,315.039,44.3,315.082,44.636,315.129Z" transform="translate(-14.439 -207.655)" fill="#fff" opacity="0.3"/>
          <path id="Path_2489" data-name="Path 2489" d="M54.263,317.558l-21.634,6.177c-.273-.07-.542-.144-.8-.218l21.7-6.177C53.784,317.41,54.029,317.484,54.263,317.558Z" transform="translate(-19.425 -209.083)" fill="#fff" opacity="0.3"/>
          <path id="Path_2490" data-name="Path 2490" d="M53.159,319.918a1.064,1.064,0,0,1,0,.16c-.3,1.851-5.682,3.328-12.265,3.328s-11.973-1.477-12.269-3.328a1.064,1.064,0,0,1,0-.16c0-1.921,5.507-3.488,12.281-3.488S53.159,318,53.159,319.918Z" transform="translate(-17.467 -208.528)" fill="#f4a856"/>
          <path id="Path_2491" data-name="Path 2491" d="M53.14,320.6c-.3,1.851-5.682,3.328-12.265,3.328h-.421a40.663,40.663,0,0,1-4.166-.249,28.265,28.265,0,0,1-3.508-.62c-.265-.066-.514-.136-.779-.207a8.617,8.617,0,0,1-2.568-1.146,3.057,3.057,0,0,1-.37-.312,1.442,1.442,0,0,1-.452-.779c.3-1.847,5.686-3.328,12.269-3.328.83,0,1.645.023,2.432.07.39.023.8.051,1.169.086a30.035,30.035,0,0,1,4.287.663c.265.062.526.129.779.2a10.524,10.524,0,0,1,2.377.943,2.619,2.619,0,0,1,1.169,1.107A.951.951,0,0,1,53.14,320.6Z" transform="translate(-17.46 -209.053)" fill="#f4a856"/>
          <path id="Path_2492" data-name="Path 2492" d="M65.084,323.387l-12.608,3.586a40.671,40.671,0,0,1-4.166-.249l15.64-4.443A2.619,2.619,0,0,1,65.084,323.387Z" transform="translate(-29.482 -212.098)" fill="#fff" opacity="0.2"/>
          <path id="Path_2493" data-name="Path 2493" d="M45.194,317.534,30.13,321.821a3.055,3.055,0,0,1-.37-.312l14.249-4.049C44.41,317.472,44.808,317.5,45.194,317.534Z" transform="translate(-18.161 -209.157)" fill="#fff" opacity="0.2"/>
          <path id="Path_2494" data-name="Path 2494" d="M54.828,319.549l-16.759,4.766c-.265-.066-.514-.136-.779-.207l16.759-4.759C54.325,319.412,54.583,319.479,54.828,319.549Z" transform="translate(-22.757 -210.31)" fill="#fff" opacity="0.2"/>
          <path id="Path_2495" data-name="Path 2495" d="M53.005,323.68v.577H50.414V323.7a34.274,34.274,0,0,1-4.724-.362l1.4-.9a27.258,27.258,0,0,0,4.248.335c1.232,0,1.672-.074,1.672-.2,0-.46-7.113-.09-7.113-1.45,0-.592,1.5-1.087,4.521-1.208v-.569h2.592v.561a30.4,30.4,0,0,1,3.73.3l-1.306.892a25.649,25.649,0,0,0-3.582-.269c-1.271,0-1.676.105-1.676.23,0,.436,7.117.07,7.117,1.419C57.289,323.049,55.854,323.54,53.005,323.68Z" transform="translate(-27.883 -210.31)" fill="#f4a856"/>
          <path id="Path_2496" data-name="Path 2496" d="M52.805,323.183v.581H50.214v-.581a33.637,33.637,0,0,1-4.724-.366l1.4-.9a27.726,27.726,0,0,0,4.244.335c1.232,0,1.672-.074,1.672-.2,0-.46-7.113-.09-7.113-1.454,0-.589,1.508-1.083,4.521-1.2v-.569h2.592v.557a30.4,30.4,0,0,1,3.734.3l-1.306.893a25.149,25.149,0,0,0-3.586-.273c-1.267,0-1.672.105-1.672.23,0,.44,7.113.074,7.113,1.423C57.089,322.536,55.654,323.027,52.805,323.183Z" transform="translate(-27.761 -209.993)" fill="#fccc6b"/>
          <path id="Path_2497" data-name="Path 2497" d="M120.917,368.739v.043a2.1,2.1,0,0,1-.779,1.516,4.394,4.394,0,0,1-.425.343,8.687,8.687,0,0,1-1.613.889l-.425.175a13.957,13.957,0,0,1-1.614.542c-.14.039-.281.082-.425.117-.511.136-1.048.265-1.613.39l-.429.086c-.518.1-1.056.187-1.614.265l-.425.058c-.522.066-1.06.129-1.613.179l-.425.035c-.526.043-1.068.078-1.613.1l-.425.019q-.779.027-1.614.035h-.429c-.546,0-1.083,0-1.613-.031H103.4c-.39,0-.8-.039-1.2-.066l-.417-.031-.425-.035q-.83-.074-1.614-.175l-.425-.055-.982-.148-.631-.113-.429-.078c-.561-.113-1.1-.238-1.614-.39l-.3-.078-.125-.039c-.23-.062-.456-.129-.674-.2-.327-.105-.643-.214-.939-.327-.148-.055-.288-.113-.425-.172a9.379,9.379,0,0,1-1.43-.729l-.183-.117-.214-.152-.214-.168a2.231,2.231,0,0,1-.951-1.649v-3.4h30.707v3.36Z" transform="translate(-55.052 -238.4)" fill="#f4a856"/>
          <path id="Path_2498" data-name="Path 2498" d="M93.039,365.336v5.371l-.214-.152-.214-.168V365.32Z" transform="translate(-56.517 -238.364)" fill="#fccc6b"/>
          <path id="Path_2499" data-name="Path 2499" d="M98.275,365.326v6.392c-.148-.055-.288-.113-.425-.171V365.31Z" transform="translate(-59.714 -238.358)" fill="#fccc6b"/>
          <path id="Path_2500" data-name="Path 2500" d="M103.5,365.34v7.039l-.3-.078-.125-.039V365.34Z" transform="translate(-62.906 -238.376)" fill="#fccc6b"/>
          <path id="Path_2501" data-name="Path 2501" d="M108.739,365.33v7.491l-.429-.078v-7.4Z" transform="translate(-66.098 -238.37)" fill="#fccc6b"/>
          <path id="Path_2502" data-name="Path 2502" d="M113.975,365.33v7.795l-.425-.055v-7.74Z" transform="translate(-69.296 -238.37)" fill="#fccc6b"/>
          <path id="Path_2503" data-name="Path 2503" d="M119.2,365.32v8.021l-.425-.035V365.32Z" transform="translate(-72.487 -238.364)" fill="#fccc6b"/>
          <path id="Path_2504" data-name="Path 2504" d="M124.435,365.31v8.138h-.425V365.31Z" transform="translate(-75.679 -238.358)" fill="#fccc6b"/>
          <path id="Path_2505" data-name="Path 2505" d="M129.669,365.3v8.184h-.429V365.3Z" transform="translate(-78.871 -238.352)" fill="#fccc6b"/>
          <path id="Path_2506" data-name="Path 2506" d="M134.9,365.3v8.118l-.425.019V365.3Z" transform="translate(-82.068 -238.352)" fill="#fccc6b"/>
          <path id="Path_2507" data-name="Path 2507" d="M140.135,365.29v7.986l-.425.035V365.29Z" transform="translate(-85.26 -238.346)" fill="#fccc6b"/>
          <path id="Path_2508" data-name="Path 2508" d="M145.335,365.28v7.752l-.425.058V365.3Z" transform="translate(-88.434 -238.34)" fill="#fccc6b"/>
          <path id="Path_2509" data-name="Path 2509" d="M150.6,365.27v7.4l-.429.086V365.27Z" transform="translate(-91.644 -238.333)" fill="#fccc6b"/>
          <path id="Path_2510" data-name="Path 2510" d="M155.835,365.26v6.914c-.14.039-.281.082-.425.117v-7.015Z" transform="translate(-94.841 -238.327)" fill="#fccc6b"/>
          <path id="Path_2511" data-name="Path 2511" d="M161.065,365.26v6.2l-.425.175V365.26Z" transform="translate(-98.033 -238.327)" fill="#fccc6b"/>
          <path id="Path_2512" data-name="Path 2512" d="M166.335,365.25v4.969a4.386,4.386,0,0,1-.425.343V365.25Z" transform="translate(-101.249 -238.321)" fill="#fccc6b"/>
          <path id="Path_2513" data-name="Path 2513" d="M120.913,358.552c0,2.412-6.879,4.365-15.363,4.365-1.169,0-2.292-.039-3.375-.105-1.368-.09-2.662-.226-3.866-.39-1.072-.164-2.066-.362-2.97-.589-.273-.07-.542-.144-.779-.218a12.686,12.686,0,0,1-2.794-1.126,4.5,4.5,0,0,1-.39-.249,2.193,2.193,0,0,1-1.169-1.668,1.1,1.1,0,0,1,0-.16c.3-2.338,7.058-4.2,15.352-4.2a51.381,51.381,0,0,1,5.768.316l1.013.133a30.407,30.407,0,0,1,3.9.779c.253.066.495.14.733.214a13.012,13.012,0,0,1,2.151.873,4.591,4.591,0,0,1,1.4,1.033,1.66,1.66,0,0,1,.39.834,1.1,1.1,0,0,1,0,.16Z" transform="translate(-55.047 -231.584)" fill="#fccc6b"/>
          <path id="Path_2514" data-name="Path 2514" d="M133.264,361.189l-18.318,5.254c-1.368-.09-2.662-.226-3.866-.39l20.82-5.893A4.591,4.591,0,0,1,133.264,361.189Z" transform="translate(-67.788 -235.215)" fill="#fff" opacity="0.3"/>
          <path id="Path_2515" data-name="Path 2515" d="M114.156,355.121,93.57,360.967a4.489,4.489,0,0,1-.39-.249L113.146,355Z" transform="translate(-56.865 -232.066)" fill="#fff" opacity="0.3"/>
          <path id="Path_2516" data-name="Path 2516" d="M123.828,357.534l-21.638,6.177c-.273-.07-.542-.144-.779-.218l21.7-6.173C123.348,357.386,123.59,357.46,123.828,357.534Z" transform="translate(-61.887 -233.482)" fill="#fff" opacity="0.3"/>
          <path id="Path_2517" data-name="Path 2517" d="M122.7,359.858a1.058,1.058,0,0,1,0,.16c-.3,1.851-5.682,3.328-12.265,3.328s-11.973-1.477-12.269-3.328a1.064,1.064,0,0,1,0-.16c0-1.921,5.507-3.508,12.281-3.508S122.7,357.936,122.7,359.858Z" transform="translate(-59.905 -232.89)" fill="#007ce6"/>
          <path id="Path_2518" data-name="Path 2518" d="M122.645,360.579c-.3,1.851-5.682,3.328-12.265,3.328h-.44a39.647,39.647,0,0,1-4.166-.249,27.665,27.665,0,0,1-3.508-.62c-.261-.066-.514-.133-.756-.207a8.629,8.629,0,0,1-2.568-1.142,3.18,3.18,0,0,1-.39-.316,1.493,1.493,0,0,1-.452-.779c.3-1.847,5.686-3.324,12.269-3.324.83,0,1.645.023,2.436.066.39.023.779.051,1.169.086a30.031,30.031,0,0,1,4.287.663c.269.062.526.129.779.2a10.4,10.4,0,0,1,2.373.939,2.611,2.611,0,0,1,1.169,1.107A1.1,1.1,0,0,1,122.645,360.579Z" transform="translate(-59.867 -233.451)" fill="#f4a856"/>
          <path id="Path_2519" data-name="Path 2519" d="M134.588,363.357l-12.631,3.586a39.655,39.655,0,0,1-4.166-.249l15.64-4.443A2.611,2.611,0,0,1,134.588,363.357Z" transform="translate(-71.883 -236.49)" fill="#fff" opacity="0.2"/>
          <path id="Path_2520" data-name="Path 2520" d="M114.7,357.5,99.64,361.785a3.177,3.177,0,0,1-.39-.316L113.5,357.42C113.916,357.436,114.313,357.463,114.7,357.5Z" transform="translate(-60.569 -233.543)" fill="#fff" opacity="0.2"/>
          <path id="Path_2521" data-name="Path 2521" d="M124.374,359.523,107.6,364.285c-.261-.066-.514-.133-.756-.207L123.6,359.32C123.868,359.382,124.125,359.449,124.374,359.523Z" transform="translate(-65.201 -234.702)" fill="#fff" opacity="0.2"/>
          <path id="Path_2522" data-name="Path 2522" d="M122.545,363.656v.581h-2.592v-.553a34.181,34.181,0,0,1-4.724-.366l1.4-.9a27.837,27.837,0,0,0,4.248.331c1.232,0,1.672-.07,1.672-.2,0-.46-7.113-.086-7.113-1.45,0-.589,1.508-1.087,4.521-1.2v-.569h2.592v.557a29.574,29.574,0,0,1,3.73.3l-1.306.893a25.059,25.059,0,0,0-3.582-.273c-1.271,0-1.672.105-1.672.23,0,.436,7.113.074,7.113,1.419C126.832,363.025,125.39,363.516,122.545,363.656Z" transform="translate(-70.321 -234.708)" fill="#007ce6"/>
          <path id="Path_2523" data-name="Path 2523" d="M122.345,363.156v.581h-2.592v-.553a33.582,33.582,0,0,1-4.724-.366l1.4-.9a27.726,27.726,0,0,0,4.244.335c1.232,0,1.676-.074,1.676-.2,0-.46-7.113-.09-7.113-1.45,0-.592,1.5-1.087,4.521-1.208v-.569h2.592v.557a30.331,30.331,0,0,1,3.73.3l-1.313.893a25.084,25.084,0,0,0-3.586-.269c-1.267,0-1.672.1-1.672.226,0,.44,7.113.074,7.113,1.423C126.625,362.525,125.194,363.016,122.345,363.156Z" transform="translate(-70.199 -234.403)" fill="#61c2ff"/>
          <path id="Path_2524" data-name="Path 2524" d="M123.384,354.891v.043a2.1,2.1,0,0,1-.807,1.524,4.932,4.932,0,0,1-.425.343,8.69,8.69,0,0,1-1.614.889l-.425.175a15.024,15.024,0,0,1-1.614.542c-.14.039-.281.082-.429.117-.507.136-1.048.265-1.613.39l-.425.086c-.518.1-1.056.187-1.613.265l-.425.058c-.526.066-1.064.129-1.614.175l-.425.039c-.53.043-1.068.078-1.614.1l-.429.019q-.779.031-1.614.035h-.425c-.546,0-1.083,0-1.614-.031h-.425c-.39,0-.8-.039-1.2-.066l-.417-.031-.425-.035q-.83-.074-1.613-.175l-.429-.055-.982-.187-.631-.113c-.14-.023-.285-.051-.425-.082-.565-.109-1.1-.234-1.614-.366l-.3-.082a1.17,1.17,0,0,1-.125-.035c-.234-.062-.456-.129-.674-.2-.327-.105-.643-.214-.939-.327-.148-.055-.288-.113-.429-.171a9.744,9.744,0,0,1-1.43-.729l-.183-.117-.21-.152-.214-.168a2.219,2.219,0,0,1-.951-1.649v-3.4h30.731v3.4Z" transform="translate(-56.541 -229.942)" fill="#f4a856"/>
          <path id="Path_2525" data-name="Path 2525" d="M95.515,351.526V356.9l-.21-.152-.214-.168V351.51Z" transform="translate(-58.03 -229.936)" fill="#fccc6b"/>
          <path id="Path_2526" data-name="Path 2526" d="M100.749,351.516v6.392c-.148-.055-.288-.113-.429-.171V351.5Z" transform="translate(-61.222 -229.93)" fill="#fccc6b"/>
          <path id="Path_2527" data-name="Path 2527" d="M105.985,351.53v7.039l-.3-.082a1.176,1.176,0,0,1-.125-.035V351.53Z" transform="translate(-64.42 -229.948)" fill="#fccc6b"/>
          <path id="Path_2528" data-name="Path 2528" d="M111.215,351.52v7.491c-.14-.023-.285-.051-.425-.082v-7.4Z" transform="translate(-67.611 -229.942)" fill="#fccc6b"/>
          <path id="Path_2529" data-name="Path 2529" d="M116.449,351.52v7.795l-.429-.055v-7.74Z" transform="translate(-70.803 -229.942)" fill="#fccc6b"/>
          <path id="Path_2530" data-name="Path 2530" d="M121.685,351.51v8.021l-.425-.035V351.51Z" transform="translate(-74.001 -229.936)" fill="#fccc6b"/>
          <path id="Path_2531" data-name="Path 2531" d="M126.915,351.5v8.138h-.425V351.5Z" transform="translate(-77.192 -229.93)" fill="#fccc6b"/>
          <path id="Path_2532" data-name="Path 2532" d="M132.145,351.49v8.184h-.425V351.49Z" transform="translate(-80.384 -229.924)" fill="#fccc6b"/>
          <path id="Path_2533" data-name="Path 2533" d="M137.379,351.49v8.118l-.429.019V351.49Z" transform="translate(-83.576 -229.924)" fill="#fccc6b"/>
          <path id="Path_2534" data-name="Path 2534" d="M142.615,351.48v8l-.425.039V351.48Z" transform="translate(-86.774 -229.918)" fill="#fccc6b"/>
          <path id="Path_2535" data-name="Path 2535" d="M147.845,351.47v7.752l-.425.058v-7.795Z" transform="translate(-89.965 -229.912)" fill="#fccc6b"/>
          <path id="Path_2536" data-name="Path 2536" d="M153.075,351.46v7.4l-.425.086V351.46Z" transform="translate(-93.157 -229.906)" fill="#fccc6b"/>
          <path id="Path_2537" data-name="Path 2537" d="M158.329,351.45v6.914c-.14.039-.281.082-.429.117v-7.015Z" transform="translate(-96.361 -229.9)" fill="#fccc6b"/>
          <path id="Path_2538" data-name="Path 2538" d="M163.545,351.45v6.2l-.425.175V351.45Z" transform="translate(-99.546 -229.9)" fill="#fccc6b"/>
          <path id="Path_2539" data-name="Path 2539" d="M168.775,351.44v4.969a4.932,4.932,0,0,1-.425.343V351.44Z" transform="translate(-102.738 -229.893)" fill="#fccc6b"/>
          <path id="Path_2540" data-name="Path 2540" d="M123.42,344.711c0,2.409-6.879,4.365-15.367,4.365-1.169,0-2.288-.039-3.371-.105-1.368-.09-2.666-.226-3.866-.409-1.072-.164-2.069-.362-2.97-.589-.277-.07-.542-.144-.779-.218a12.687,12.687,0,0,1-2.794-1.126q-.2-.115-.39-.249a2.193,2.193,0,0,1-1.169-1.668.74.74,0,0,1,0-.16c.3-2.338,7.054-4.2,15.348-4.2a51.4,51.4,0,0,1,5.772.316l1.013.129a31.954,31.954,0,0,1,3.9.779c.249.07.495.144.729.218a12.919,12.919,0,0,1,2.155.873,4.591,4.591,0,0,1,1.38,1.048,1.66,1.66,0,0,1,.39.834A1.1,1.1,0,0,1,123.42,344.711Z" transform="translate(-56.577 -223.126)" fill="#fccc6b"/>
          <path id="Path_2541" data-name="Path 2541" d="M135.734,347.358l-18.318,5.254c-1.368-.09-2.666-.226-3.866-.409l20.82-5.893A4.591,4.591,0,0,1,135.734,347.358Z" transform="translate(-69.296 -226.763)" fill="#fff" opacity="0.3"/>
          <path id="Path_2542" data-name="Path 2542" d="M116.646,341.307,96.06,347.153q-.2-.115-.39-.249l19.97-5.714Z" transform="translate(-58.384 -223.638)" fill="#fff" opacity="0.3"/>
          <path id="Path_2543" data-name="Path 2543" d="M126.3,343.718,104.669,349.9c-.277-.07-.542-.144-.779-.218l21.7-6.177C125.824,343.57,126.07,343.644,126.3,343.718Z" transform="translate(-63.4 -225.048)" fill="#fff" opacity="0.3"/>
          <path id="Path_2544" data-name="Path 2544" d="M125.169,346.048a1.064,1.064,0,0,1,0,.16c-.3,1.851-5.682,3.328-12.265,3.328s-11.973-1.477-12.269-3.328a1.062,1.062,0,0,1,0-.16c0-1.921,5.507-3.508,12.281-3.508S125.169,344.126,125.169,346.048Z" transform="translate(-61.412 -224.462)" fill="#f4a856"/>
          <path id="Path_2545" data-name="Path 2545" d="M125.113,346.813c-.3,1.851-5.682,3.328-12.265,3.328h-.425a39.6,39.6,0,0,1-4.166-.249,27.438,27.438,0,0,1-3.508-.62c-.265-.066-.514-.133-.779-.207a8.722,8.722,0,0,1-2.568-1.142,3.458,3.458,0,0,1-.39-.316,1.442,1.442,0,0,1-.452-.779c.3-1.847,5.686-3.328,12.269-3.328.83,0,1.645.027,2.432.07.39.023.779.051,1.169.086a30.036,30.036,0,0,1,4.268.663c.265.062.526.129.779.2a10.363,10.363,0,0,1,2.377.939,2.619,2.619,0,0,1,1.169,1.107A.951.951,0,0,1,125.113,346.813Z" transform="translate(-61.368 -225.048)" fill="#f4a856"/>
          <path id="Path_2546" data-name="Path 2546" d="M137.064,349.547l-12.627,3.586a39.588,39.588,0,0,1-4.166-.249l15.64-4.443a2.619,2.619,0,0,1,1.154,1.107Z" transform="translate(-73.397 -228.063)" fill="#fff" opacity="0.2"/>
          <path id="Path_2547" data-name="Path 2547" d="M117.173,343.688l-15.063,4.287a3.469,3.469,0,0,1-.39-.316l14.249-4.049C116.39,343.626,116.787,343.653,117.173,343.688Z" transform="translate(-62.076 -225.115)" fill="#fff" opacity="0.2"/>
          <path id="Path_2548" data-name="Path 2548" d="M126.838,345.683l-16.759,4.763c-.265-.066-.514-.133-.779-.207l16.759-4.759C126.331,345.554,126.593,345.62,126.838,345.683Z" transform="translate(-66.702 -226.256)" fill="#fff" opacity="0.2"/>
          <path id="Path_2549" data-name="Path 2549" d="M125.015,349.846v.581h-2.592v-.553a34.186,34.186,0,0,1-4.724-.366l1.4-.9a27.254,27.254,0,0,0,4.248.335c1.232,0,1.672-.074,1.672-.2,0-.46-7.113-.086-7.113-1.45,0-.589,1.5-1.087,4.521-1.2v-.569h2.592v.577a29.574,29.574,0,0,1,3.73.3l-1.306.865a25.1,25.1,0,0,0-3.582-.273c-1.271,0-1.676.105-1.676.23,0,.436,7.117.074,7.117,1.419C129.3,349.215,127.864,349.706,125.015,349.846Z" transform="translate(-71.828 -226.281)" fill="#f4a856"/>
          <path id="Path_2550" data-name="Path 2550" d="M124.815,349.334v.581h-2.592v-.553a33.637,33.637,0,0,1-4.724-.366l1.4-.9a27.73,27.73,0,0,0,4.244.335c1.232,0,1.672-.074,1.672-.2,0-.46-7.113-.09-7.113-1.45,0-.592,1.508-1.087,4.521-1.208V345h2.592v.557a30.4,30.4,0,0,1,3.734.3l-1.306.892a25.124,25.124,0,0,0-3.586-.269c-1.267,0-1.672.1-1.672.226,0,.44,7.113.074,7.113,1.423C129.1,348.7,127.664,349.194,124.815,349.334Z" transform="translate(-71.706 -225.963)" fill="#fccc6b"/>
          <path id="Path_2551" data-name="Path 2551" d="M314.989,160.107V171.67a1.337,1.337,0,0,1-1.333,1.337H302.089a2.541,2.541,0,0,1-2.167-1.536.78.78,0,0,1-.058-.136l-.07-.21v-.055l-.023-9.128v-2.674a1.337,1.337,0,0,1,1.193-1.329h.14l11.8.047a1.062,1.062,0,0,1,.16,0h0A2.393,2.393,0,0,1,314.989,160.107Z" transform="translate(-182.939 -111.807)" fill="#005ec9"/>
          <path id="Path_2552" data-name="Path 2552" d="M314.005,159.269v11.556a1.333,1.333,0,0,1-1.337,1.333H301.1a1.333,1.333,0,0,1-1.169-.694.78.78,0,0,1-.058-.136l-.07-.21v-.055a1.2,1.2,0,0,1-.023-.238V159.269a1.337,1.337,0,0,1,1.193-1.329h11.692a1.2,1.2,0,0,1,.39.058h0A1.329,1.329,0,0,1,314.005,159.269Z" transform="translate(-182.945 -111.807)" fill="#007ce6"/>
          <path id="Path_2553" data-name="Path 2553" d="M313.717,172.781v1.169h-1.465v-1.1a6.1,6.1,0,0,1-2.662-.748l.8-1.781a4.977,4.977,0,0,0,2.393.686c.7,0,.947-.136.951-.39,0-.916-4.018-.21-4-2.923,0-1.169.869-2.151,2.576-2.377V164.18h1.465v1.115a5.359,5.359,0,0,1,2.1.62l-.748,1.769a4.486,4.486,0,0,0-2.023-.557c-.717,0-.947.2-.951.448,0,.873,4.022.179,4,2.861C316.149,171.546,315.331,172.513,313.717,172.781Z" transform="translate(-188.932 -115.615)" fill="#fff"/>
          <path id="Path_2554" data-name="Path 2554" d="M317.817,308.742l-24.647-.062v30.614l24.647.082Z" transform="translate(-178.911 -203.798)" fill="#005ec9"/>
          <path id="Path_2555" data-name="Path 2555" d="M308.7,302.236a.468.468,0,0,0,.483-.421c.144-1.539.818-6.692,3.348-8.555a3.254,3.254,0,0,1,2.338-.635c4.443.417,5.121,7.4,5.222,9.229a.46.46,0,0,0,.468.44h0a.464.464,0,0,0,.464-.487c-.1-2.023-.826-9.49-6.056-9.977a4.287,4.287,0,0,0-3.028.822c-2.818,2.069-3.508,7.4-3.675,9.073a.472.472,0,0,0,.448.511Z" transform="translate(-188.124 -193.5)" fill="#009ef3"/>
          <path id="Path_2556" data-name="Path 2556" d="M312.317,308.742l-24.647-.062v30.614l24.647.082Z" transform="translate(-175.555 -203.798)" fill="#4da1ff"/>
          <path id="Path_2557" data-name="Path 2557" d="M303.729,316.785a.885.885,0,1,1-.885-.885A.885.885,0,0,1,303.729,316.785Z" transform="translate(-184.276 -208.205)" fill="#005ec9"/>
          <path id="Path_2558" data-name="Path 2558" d="M334.229,316.785a.881.881,0,1,1-.258-.627.885.885,0,0,1,.258.627Z" transform="translate(-202.889 -208.205)" fill="#005ec9"/>
          <path id="Path_2559" data-name="Path 2559" d="M303.646,302.415a.464.464,0,0,0,.483-.421c.148-1.539.818-6.692,3.352-8.555a3.262,3.262,0,0,1,2.338-.635c4.447.417,5.121,7.4,5.222,9.233a.464.464,0,0,0,.468.436h0a.46.46,0,0,0,.464-.487c-.1-2.019-.826-9.49-6.053-9.977a4.287,4.287,0,0,0-3.032.822c-2.814,2.069-3.508,7.4-3.671,9.073a.472.472,0,0,0,.444.511Z" transform="translate(-185.042 -193.609)" fill="#61b3ff"/>
        </g>
      </g>
    </g>
    <text id="Most_Reliable_Payment_Gateway" data-name="Most Reliable 
Payment Gateway" transform="translate(325 1324)" fill="#585858" font-size="20" font-family="Poppins-Medium, Poppins" font-weight="500"><tspan x="-69.6" y="0">Most Reliable </tspan><tspan x="-93.17" y="30">Payment Gateway</tspan></text>
  </g>
</svg>
