<svg xmlns="http://www.w3.org/2000/svg" xmlns:xlink="http://www.w3.org/1999/xlink" width="413" height="420" viewBox="0 0 413 420">
  <defs>
    <filter id="Rectangle_2821" x="0" y="0" width="413" height="420" filterUnits="userSpaceOnUse">
      <feOffset dy="12" input="SourceAlpha"/>
      <feGaussianBlur stdDeviation="15" result="blur"/>
      <feFlood flood-opacity="0.161"/>
      <feComposite operator="in" in2="blur"/>
      <feComposite in="SourceGraphic"/>
    </filter>
    <linearGradient id="linear-gradient" x1="1.344" y1="-0.384" x2="-0.244" y2="1.765" gradientUnits="objectBoundingBox">
      <stop offset="0" stop-color="#f905f5"/>
      <stop offset="1" stop-color="#4da1ff"/>
    </linearGradient>
    <linearGradient id="linear-gradient-2" x1="-4.047" y1="0.5" x2="-3.047" y2="0.5" gradientUnits="objectBoundingBox">
      <stop offset="0" stop-color="#62177d"/>
      <stop offset="0.47" stop-color="#492090"/>
      <stop offset="1" stop-color="#292ba9"/>
    </linearGradient>
    <linearGradient id="linear-gradient-3" x1="0.913" y1="0.175" x2="-0.145" y2="0.797" gradientUnits="objectBoundingBox">
      <stop offset="0" stop-color="#f905f5"/>
      <stop offset="1" stop-color="#17c9f2"/>
    </linearGradient>
    <clipPath id="clip-path">
      <path id="Path_1165" data-name="Path 1165" d="M45.307,112.968l-6.385-3.193a2.676,2.676,0,0,1-1.422-2.133v-4.135c0-.783.639-1.1,1.422-.711l6.385,3.193a2.676,2.676,0,0,1,1.422,2.133v4.135C46.729,113.045,46.1,113.362,45.307,112.968Z" transform="translate(-37.5 -102.628)" fill="#fcaa37"/>
    </clipPath>
    <linearGradient id="linear-gradient-4" x1="1.292" y1="0.625" x2="-0.298" y2="0.373" gradientUnits="objectBoundingBox">
      <stop offset="0" stop-color="#6322b8"/>
      <stop offset="0.44" stop-color="#622cd1"/>
      <stop offset="1" stop-color="#603bf5"/>
    </linearGradient>
    <linearGradient id="linear-gradient-5" x1="1.161" y1="0" x2="-0.409" y2="0.899" xlink:href="#linear-gradient-3"/>
    <linearGradient id="linear-gradient-6" x1="0.479" y1="0.923" x2="0.52" y2="0.077" gradientUnits="objectBoundingBox">
      <stop offset="0" stop-color="#603bf5"/>
      <stop offset="0.56" stop-color="#622cd1"/>
      <stop offset="1" stop-color="#6322b8"/>
    </linearGradient>
    <linearGradient id="linear-gradient-7" x1="0.042" y1="-5.676" x2="0.946" y2="-6.076" xlink:href="#linear-gradient-4"/>
    <linearGradient id="linear-gradient-8" x1="0.435" y1="0.971" x2="0.565" y2="0.028" gradientUnits="objectBoundingBox">
      <stop offset="0" stop-color="#18994b"/>
      <stop offset="0.48" stop-color="#1c9f50"/>
      <stop offset="1" stop-color="#24ac5b"/>
    </linearGradient>
    <linearGradient id="linear-gradient-9" x1="0.435" y1="0.971" x2="0.565" y2="0.029" gradientUnits="objectBoundingBox">
      <stop offset="0" stop-color="#1ea353"/>
      <stop offset="0.48" stop-color="#22a958"/>
      <stop offset="1" stop-color="#2bb663"/>
    </linearGradient>
    <linearGradient id="linear-gradient-10" x1="0.435" y1="0.971" x2="0.565" y2="0.029" gradientUnits="objectBoundingBox">
      <stop offset="0" stop-color="#23ad5a"/>
      <stop offset="0.48" stop-color="#27b35f"/>
      <stop offset="1" stop-color="#31c06b"/>
    </linearGradient>
    <linearGradient id="linear-gradient-11" x1="0.435" y1="0.971" x2="0.565" y2="0.029" gradientUnits="objectBoundingBox">
      <stop offset="0" stop-color="#29b862"/>
      <stop offset="0.48" stop-color="#2ebe67"/>
      <stop offset="1" stop-color="#38cb73"/>
    </linearGradient>
    <linearGradient id="linear-gradient-12" x1="0.435" y1="0.971" x2="0.565" y2="0.029" gradientUnits="objectBoundingBox">
      <stop offset="0" stop-color="#2fc269"/>
      <stop offset="0.48" stop-color="#34c86e"/>
      <stop offset="1" stop-color="#3ed57b"/>
    </linearGradient>
    <linearGradient id="linear-gradient-13" x1="0.435" y1="0.971" x2="0.565" y2="0.029" gradientUnits="objectBoundingBox">
      <stop offset="0" stop-color="#34cc70"/>
      <stop offset="0.48" stop-color="#39d276"/>
      <stop offset="1" stop-color="#44df83"/>
    </linearGradient>
    <linearGradient id="linear-gradient-14" x1="0.435" y1="0.971" x2="0.565" y2="0.029" gradientUnits="objectBoundingBox">
      <stop offset="0" stop-color="#3ad678"/>
      <stop offset="0.48" stop-color="#3fdc7e"/>
      <stop offset="1" stop-color="#4be98b"/>
    </linearGradient>
    <linearGradient id="linear-gradient-15" x1="-5.77" y1="0.964" x2="-5.565" y2="0.034" gradientUnits="objectBoundingBox">
      <stop offset="0" stop-color="#abbcff"/>
      <stop offset="0.13" stop-color="#c0cdff"/>
      <stop offset="0.35" stop-color="#dbe3ff"/>
      <stop offset="0.56" stop-color="#eff2ff"/>
      <stop offset="0.78" stop-color="#fbfcff"/>
      <stop offset="1" stop-color="#fff"/>
    </linearGradient>
    <linearGradient id="linear-gradient-16" x1="-5.412" y1="0.964" x2="-5.208" y2="0.034" xlink:href="#linear-gradient-15"/>
  </defs>
  <g id="Group_1590" data-name="Group 1590" transform="translate(-835 -1441)">
    <g transform="matrix(1, 0, 0, 1, 835, 1441)" filter="url(#Rectangle_2821)">
      <rect id="Rectangle_2821-2" data-name="Rectangle 2821" width="323" height="330" rx="16" transform="translate(45 33)" fill="#fff"/>
    </g>
    <path id="Path_2585" data-name="Path 2585" d="M307.982,0H16.661C7.814,0,.643,6.678.643,14.916V151.955c0,8.238-.068,17.616,0,17.972L307.982,197c8.846,0,16.018-9.472,16.018-17.71V14.916C324,6.678,316.829,0,307.982,0Z" transform="translate(879.387 1474)" opacity="0.8" fill="url(#linear-gradient)"/>
    <text id="One_Stop_Shop_-_No_Need_for_Unnecessary_3rd_Party_Integrations" data-name="One Stop Shop - 
No Need for Unnecessary 
3rd Party Integrations" transform="translate(1042 1704)" fill="#585858" font-size="20" font-family="Poppins-Medium, Poppins" font-weight="500"><tspan x="-85.36" y="0">One Stop Shop - </tspan><tspan x="-129.2" y="30">No Need for Unnecessary </tspan><tspan x="-108.86" y="60">3rd Party Integrations</tspan></text>
    <g id="Telephone_Payments" data-name="Telephone Payments" transform="translate(972.96 1492.018)">
      <g id="Layer_2" data-name="Layer 2" transform="translate(0.04 -0.018)">
        <g id="Layer_1" data-name="Layer 1">
          <g id="Group_1372" data-name="Group 1372" transform="translate(0 61.618)" opacity="0.21">
            <path id="Path_1150" data-name="Path 1150" d="M32.759,169.085,1,153.195c-.58-.29-.58-.761,0-1.051l31.754-15.877a2.645,2.645,0,0,1,2.1,0l31.754,15.877c.58.29.58.761,0,1.051L34.86,169.085A2.645,2.645,0,0,1,32.759,169.085Zm-28.6-16.416L33.823,167.5l29.653-14.826L33.823,137.838Z" transform="translate(-0.33 -136.049)" fill="#fff"/>
            <path id="Path_1151" data-name="Path 1151" d="M102.1,203.742,70.335,187.865c-.58-.29-.58-.761,0-1.051L102.1,170.937a2.645,2.645,0,0,1,2.1,0l31.754,15.877c.58.29.58.761,0,1.051L104.2,203.742A2.645,2.645,0,0,1,102.1,203.742Zm-28.607-16.4,29.653,14.826L132.8,187.339l-29.653-14.826Z" transform="translate(-38.264 -155.019)" fill="#fff"/>
            <path id="Path_1152" data-name="Path 1152" d="M32.211,239.091.475,223.2c-.58-.29-.58-.761,0-1.051l31.754-15.877a2.645,2.645,0,0,1,2.1,0l31.754,15.877c.58.29.58.761,0,1.051L34.316,239.091A2.645,2.645,0,0,1,32.211,239.091Zm-28.6-16.411,29.653,14.826,29.653-14.826L33.261,207.844Z" transform="translate(-0.04 -174.355)" fill="#fff"/>
            <path id="Path_1153" data-name="Path 1153" d="M101.529,273.752,69.775,257.875c-.58-.29-.58-.761,0-1.051l31.754-15.877a2.645,2.645,0,0,1,2.1,0l31.754,15.877c.58.29.58.761,0,1.051L103.63,273.752A2.644,2.644,0,0,1,101.529,273.752Zm-28.6-16.4,29.653,14.826,29.653-14.826-29.653-14.826Z" transform="translate(-37.957 -193.325)" fill="#fff"/>
          </g>
          <path id="Path_1154" data-name="Path 1154" d="M77.4,129.778,32.057,106.117a6.085,6.085,0,0,1-3.247-4.873L27.8,74.829c0-1.811,2.464-2.835,4.257-1.938l46.218,23.1a6.085,6.085,0,0,1,3.247,4.873v26.718C81.522,129.4,79.2,130.675,77.4,129.778Z" transform="translate(-15.229 -39.693)" fill="url(#linear-gradient-2)"/>
          <path id="Path_1155" data-name="Path 1155" d="M77.268,130.233,31.077,107.119a6.085,6.085,0,0,1-3.247-4.873V75.528c0-1.811,1.454-2.522,3.247-1.626L77.268,97.012a6.085,6.085,0,0,1,3.247,4.873V128.6C80.524,130.4,79.079,131.129,77.268,130.233Z" transform="translate(-15.245 -40.216)" fill="url(#linear-gradient-3)"/>
          <path id="Path_1156" data-name="Path 1156" d="M45.307,112.968l-6.385-3.193a2.676,2.676,0,0,1-1.422-2.133v-4.135c0-.783.639-1.1,1.422-.711l6.385,3.193a2.676,2.676,0,0,1,1.422,2.133v4.135C46.729,113.045,46.1,113.362,45.307,112.968Z" transform="translate(-20.536 -56.145)" fill="#fcaa37"/>
          <g id="Group_1373" data-name="Group 1373" transform="translate(16.964 46.483)" clip-path="url(#clip-path)">
            <path id="Path_1157" data-name="Path 1157" d="M42.036,111.116l-.136-.068V101.33l.136.068Z" transform="translate(-39.907 -101.918)" fill="#8c5e1f"/>
            <path id="Path_1158" data-name="Path 1158" d="M30.308,101.51,20.59,96.651V96.52l9.718,4.859Z" transform="translate(-28.248 -99.286)" fill="#8c5e1f"/>
            <path id="Path_1159" data-name="Path 1159" d="M30.308,108.54l-9.718-4.859v-.131l9.718,4.859Z" transform="translate(-28.248 -103.132)" fill="#8c5e1f"/>
            <path id="Path_1160" data-name="Path 1160" d="M63.568,118.14l-9.718-4.859v-.131l9.718,4.859Z" transform="translate(-46.446 -108.385)" fill="#8c5e1f"/>
            <path id="Path_1161" data-name="Path 1161" d="M47.65,109.936l-2.88-1.44v-.136l2.88,1.44Z" transform="translate(-41.478 -105.764)" fill="#8c5e1f"/>
            <path id="Path_1162" data-name="Path 1162" d="M47.65,117.576l-2.88-1.44V116l2.88,1.44Z" transform="translate(-41.478 -109.945)" fill="#8c5e1f"/>
            <path id="Path_1163" data-name="Path 1163" d="M63.568,125.17l-9.718-4.859v-.131l9.718,4.859Z" transform="translate(-46.446 -112.232)" fill="#8c5e1f"/>
            <path id="Path_1164" data-name="Path 1164" d="M53.831,117.016l-.131-.068V107.23l.131.068Z" transform="translate(-46.364 -105.146)" fill="#8c5e1f"/>
          </g>
          <path id="Path_1166" data-name="Path 1166" d="M82.657,108.763a2.473,2.473,0,0,1-.946-.3,3.088,3.088,0,0,1-1.771-2.717c0-1.123.761-1.5,1.87-.946a3.288,3.288,0,0,1,.874.607l-.113.322a2.9,2.9,0,0,0-.725-.512c-.838-.421-1.4-.163-1.4.779a2.387,2.387,0,0,0,1.359,2.128,1.975,1.975,0,0,0,.756.231Z" transform="translate(-43.757 -57.193)" fill="#fff"/>
          <path id="Path_1167" data-name="Path 1167" d="M87.15,109.835v-.815l.408.2v.512h0a.453.453,0,0,1,.711-.208.816.816,0,0,1,.131.082v.453a1.108,1.108,0,0,0-.159-.1.389.389,0,0,0-.629.285,1.142,1.142,0,0,0,0,.208v1.359l-.453-.231Z" transform="translate(-47.702 -59.642)" fill="#fff"/>
          <path id="Path_1168" data-name="Path 1168" d="M90.914,112.78a1.522,1.522,0,0,0,.883,1.336,1.811,1.811,0,0,0,.711.222l.082.376a2.223,2.223,0,0,1-.856-.267,2.2,2.2,0,0,1-1.263-1.929c0-.774.453-1.159,1.2-.783a1.974,1.974,0,0,1,1.064,1.743,1.6,1.6,0,0,1,0,.208Zm1.359.353a1.2,1.2,0,0,0-.648-1.087c-.453-.235-.679.1-.715.4Z" transform="translate(-49.519 -61.047)" fill="#fff"/>
          <path id="Path_1169" data-name="Path 1169" d="M98.76,113.376v3.781l-.421-.208V116.5h0c-.145.213-.453.276-.879.068a2.147,2.147,0,0,1-1.1-1.857c0-.86.525-1.119,1.155-.806a1.685,1.685,0,0,1,.774.783h0V113.15Zm-.453,2.015a.965.965,0,0,0,0-.208,1.359,1.359,0,0,0-.675-.879c-.485-.24-.77.041-.77.607a1.476,1.476,0,0,0,.725,1.34c.312.158.6.1.684-.217a.7.7,0,0,0,0-.19Z" transform="translate(-52.741 -61.902)" fill="#fff"/>
          <path id="Path_1170" data-name="Path 1170" d="M103.83,115.564c0,.163-.113.231-.3.136a.521.521,0,0,1-.281-.43c0-.163.122-.231.294-.145A.516.516,0,0,1,103.83,115.564Zm-.521,3.034v-2.572l.453.235v2.572Z" transform="translate(-56.511 -62.962)" fill="#fff"/>
          <path id="Path_1171" data-name="Path 1171" d="M106.309,117.388v.738l.67.335v.358l-.67-.335v1.381a.666.666,0,0,0,.349.675,1.2,1.2,0,0,0,.272.1v.362a1.291,1.291,0,0,1-.417-.145,1.227,1.227,0,0,1-.5-.453,1.358,1.358,0,0,1-.181-.761v-1.4l-.4-.2v-.358l.4.2v-.616Z" transform="translate(-57.704 -64.156)" fill="#fff"/>
          <path id="Path_1172" data-name="Path 1172" d="M114.777,124.833a2.477,2.477,0,0,1-.946-.3,3.088,3.088,0,0,1-1.771-2.717c0-1.123.761-1.5,1.87-.946a3.287,3.287,0,0,1,.851.584l-.113.322a2.9,2.9,0,0,0-.725-.512c-.838-.421-1.4-.163-1.4.779a2.386,2.386,0,0,0,1.359,2.128,1.975,1.975,0,0,0,.756.231Z" transform="translate(-61.332 -65.986)" fill="#fff"/>
          <path id="Path_1173" data-name="Path 1173" d="M120.422,128.561l-.036-.344h0a.7.7,0,0,1-.788,0,1.359,1.359,0,0,1-.788-1.132c0-.62.552-.684,1.549-.181v-.054a.951.951,0,0,0-.584-.906,1.209,1.209,0,0,0-.67-.145l-.1-.362a1.535,1.535,0,0,1,.847.195,1.639,1.639,0,0,1,.978,1.54v.96a4.014,4.014,0,0,0,.041.639Zm-.068-1.359c-.512-.267-1.091-.453-1.091.032a.765.765,0,0,0,.453.666c.335.168.548.063.62-.118a.366.366,0,0,0,.027-.136Z" transform="translate(-65.025 -68.623)" fill="#fff"/>
          <path id="Path_1174" data-name="Path 1174" d="M124.88,128.705v-.815l.408.2v.512h0A.453.453,0,0,1,126,128.4a.81.81,0,0,1,.131.082v.453a1.078,1.078,0,0,0-.159-.1.389.389,0,0,0-.629.285,1.138,1.138,0,0,0,0,.208v1.359l-.453-.231Z" transform="translate(-68.346 -69.967)" fill="#fff"/>
          <path id="Path_1175" data-name="Path 1175" d="M130.61,129.3v3.781l-.421-.208v-.453h0c-.145.213-.453.276-.879.068a2.147,2.147,0,0,1-1.1-1.857c0-.86.525-1.119,1.155-.806a1.68,1.68,0,0,1,.774.779h0V129.07Zm-.453,2.015a.964.964,0,0,0,0-.208,1.359,1.359,0,0,0-.675-.879c-.485-.24-.77.041-.77.607a1.476,1.476,0,0,0,.761,1.331c.312.158.6.1.684-.213a.7.7,0,0,0,0-.19Z" transform="translate(-70.168 -70.612)" fill="#fff"/>
          <path id="Path_1176" data-name="Path 1176" d="M37.338,139.837a2.124,2.124,0,0,1-.811-.258,2.645,2.645,0,0,1-1.517-2.31c0-.96.652-1.286,1.6-.811a2.83,2.83,0,0,1,.729.5l-.1.276a2.5,2.5,0,0,0-.62-.453c-.72-.358-1.2-.14-1.2.666a2.042,2.042,0,0,0,1.177,1.811,1.685,1.685,0,0,0,.648.195Z" transform="translate(-19.174 -74.537)" fill="#fff"/>
          <path id="Path_1177" data-name="Path 1177" d="M42.171,143.03l-.032-.294h0a.6.6,0,0,1-.675,0,1.173,1.173,0,0,1-.675-.969c0-.534.453-.589,1.322-.159v-.05a.815.815,0,0,0-.5-.761,1.032,1.032,0,0,0-.575-.122l-.091-.308a1.309,1.309,0,0,1,.725.168,1.4,1.4,0,0,1,.838,1.322v.824a3.483,3.483,0,0,0,.036.548Zm-.059-1.155c-.453-.226-.933-.4-.933.032a.657.657,0,0,0,.376.571c.285.145.453.054.534-.1a.317.317,0,0,0,0-.118Z" transform="translate(-22.336 -76.792)" fill="#fff"/>
          <path id="Path_1178" data-name="Path 1178" d="M46,143.157v-.7l.349.177v.453h0a.4.4,0,0,1,.611-.177.661.661,0,0,1,.113.072v.376a.959.959,0,0,0-.136-.081.335.335,0,0,0-.539.245.96.96,0,0,0,0,.177v1.173l-.4-.2Z" transform="translate(-25.187 -77.939)" fill="#fff"/>
          <path id="Path_1179" data-name="Path 1179" d="M50.9,143.639v3.242l-.358-.181v-.394h0c-.122.186-.389.235-.752.059a1.843,1.843,0,0,1-.942-1.59c0-.734.453-.96.987-.688a1.445,1.445,0,0,1,.666.67h0V143.44Zm-.4,1.725a.838.838,0,0,0,0-.177,1.15,1.15,0,0,0-.58-.752c-.417-.208-.661.032-.661.521a1.263,1.263,0,0,0,.652,1.141c.267.136.516.082.589-.186a.6.6,0,0,0,0-.163Z" transform="translate(-26.746 -78.475)" fill="#fff"/>
          <path id="Path_1180" data-name="Path 1180" d="M57.4,146.266v1.286l1.485.756v-1.286l.4.2v3.07l-.4-.2v-1.44L57.4,147.91v1.44l-.394-.2v-3.07Z" transform="translate(-31.211 -79.919)" fill="#fff"/>
          <path id="Path_1181" data-name="Path 1181" d="M65.331,153.639c0,.815-.566.906-1.1.62A1.938,1.938,0,0,1,63.18,152.6c0-.738.485-.928,1.091-.625A1.925,1.925,0,0,1,65.331,153.639Zm-1.748-.851a1.359,1.359,0,0,0,.67,1.182c.38.19.67-.023.67-.521a1.359,1.359,0,0,0-.661-1.177C63.787,152.036,63.583,152.362,63.583,152.788Z" transform="translate(-34.587 -83.068)" fill="#fff"/>
          <path id="Path_1182" data-name="Path 1182" d="M69,151.72l.4.2v3.233l-.4-.2Z" transform="translate(-37.771 -83.005)" fill="#fff"/>
          <path id="Path_1183" data-name="Path 1183" d="M73.141,154.759V158l-.358-.181v-.394h0c-.122.186-.389.235-.752.059a1.843,1.843,0,0,1-.942-1.589c0-.734.453-.96.987-.688a1.445,1.445,0,0,1,.666.67h0V154.56Zm-.4,1.725a.833.833,0,0,0,0-.177,1.15,1.15,0,0,0-.58-.752c-.417-.208-.661.032-.661.521a1.268,1.268,0,0,0,.652,1.141c.267.136.516.082.589-.186a.6.6,0,0,0,0-.163Z" transform="translate(-38.915 -84.559)" fill="#fff"/>
          <path id="Path_1184" data-name="Path 1184" d="M77.12,159.61a1.3,1.3,0,0,0,.756,1.141,1.549,1.549,0,0,0,.611.19l.068.322a1.911,1.911,0,0,1-.734-.231,1.884,1.884,0,0,1-1.082-1.653c0-.666.389-.992,1.033-.67a1.689,1.689,0,0,1,.906,1.494,1.319,1.319,0,0,1,0,.181Zm1.173.3a1.023,1.023,0,0,0-.557-.928c-.4-.2-.584.082-.616.344Z" transform="translate(-42.006 -86.761)" fill="#fff"/>
          <path id="Path_1185" data-name="Path 1185" d="M82.13,161.157v-.7l.349.177v.453h0a.4.4,0,0,1,.611-.177.688.688,0,0,1,.113.072v.376a.964.964,0,0,0-.136-.082.335.335,0,0,0-.539.245.955.955,0,0,0,0,.177v1.173l-.394-.2Z" transform="translate(-44.955 -87.787)" fill="#fff"/>
          <path id="Path_1186" data-name="Path 1186" d="M40.327,123.4h-.485l-.072-.317h.611l.322.163v2.717l-.376-.2Z" transform="translate(-21.778 -67.335)" fill="#333"/>
          <path id="Path_1187" data-name="Path 1187" d="M44,127.561v-.226l.3-.131c.716-.3,1.037-.494,1.042-.906a.906.906,0,0,0-.539-.8.788.788,0,0,0-.593-.068l-.122-.322a1.078,1.078,0,0,1,.792.122,1.44,1.44,0,0,1,.856,1.218c0,.5-.376.72-.965.978l-.222.091h0l1.263.634v.3Z" transform="translate(-24.093 -68.428)" fill="#333"/>
          <path id="Path_1188" data-name="Path 1188" d="M49,129.571a2.346,2.346,0,0,0,.62.48c.485.245.639,0,.634-.213a1.173,1.173,0,0,0-.725-.906l-.213-.1v-.276l.213.1c.276.136.625.172.625-.149a.774.774,0,0,0-.489-.657.933.933,0,0,0-.562-.1l-.1-.317a1.263,1.263,0,0,1,.734.159,1.291,1.291,0,0,1,.8,1.051c0,.281-.172.453-.516.38h0a1.359,1.359,0,0,1,.625,1.01c0,.453-.349.643-1.019.308a2.6,2.6,0,0,1-.729-.548Z" transform="translate(-26.774 -69.714)" fill="#333"/>
          <path id="Path_1189" data-name="Path 1189" d="M54.81,133.4v-.743l-1.3-.652v-.245l1.25-1.114.408.2v1.689l.389.195v.29l-.389-.195v.743Zm0-1.028v-1.327h0a3.466,3.466,0,0,1-.231.285l-.684.584h0Z" transform="translate(-29.296 -71.477)" fill="#333"/>
          <path id="Path_1190" data-name="Path 1190" d="M66.337,136.26l-1.087-.534-.109.643a2.005,2.005,0,0,1,.226.1,2.124,2.124,0,0,1,.6.453,1.359,1.359,0,0,1,.4.906c0,.53-.453.711-1.042.408a2.477,2.477,0,0,1-.7-.516l.1-.231a2.265,2.265,0,0,0,.6.453c.358.177.661.1.661-.258a1.214,1.214,0,0,0-.806-1.005,3.763,3.763,0,0,0-.389-.163l.181-1.214,1.359.67Z" transform="translate(-35.38 -74.021)" fill="#333"/>
          <path id="Path_1191" data-name="Path 1191" d="M71.09,139.007a1.874,1.874,0,0,0-.285-.127c-.593-.2-.906.063-.974.48h0a.629.629,0,0,1,.675.023,1.513,1.513,0,0,1,.842,1.3c0,.5-.349.783-.928.494a1.848,1.848,0,0,1-.992-1.653,1,1,0,0,1,.453-.987,1.173,1.173,0,0,1,.906.045,2.34,2.34,0,0,1,.276.118Zm-.109,1.513a1.023,1.023,0,0,0-.575-.906.412.412,0,0,0-.543.063.208.208,0,0,0-.041.14,1.209,1.209,0,0,0,.616,1.087C70.764,141.067,70.981,140.913,70.981,140.519Z" transform="translate(-38 -75.753)" fill="#333"/>
          <path id="Path_1192" data-name="Path 1192" d="M76.347,140.709v.245l-1.218,1.87-.394-.195,1.214-1.811h0l-1.359-.684v-.3Z" transform="translate(-40.83 -76.5)" fill="#333"/>
          <path id="Path_1193" data-name="Path 1193" d="M79.26,144.583c0-.344.213-.48.557-.453h0a1.232,1.232,0,0,1-.453-.833c0-.453.376-.534.865-.29a1.359,1.359,0,0,1,.815,1.078.379.379,0,0,1-.453.408h0a1.417,1.417,0,0,1,.562.987c0,.453-.417.584-.951.317a1.553,1.553,0,0,1-.942-1.214Zm1.508.738c0-.331-.235-.607-.616-.906-.326-.072-.5.05-.5.308a.951.951,0,0,0,.562.8c.335.172.552.077.552-.2Zm-1.042-1.879a1.084,1.084,0,0,0,.534.77c.24.041.426-.032.426-.281a.792.792,0,0,0-.453-.679c-.335-.163-.512-.05-.512.186Z" transform="translate(-43.385 -78.164)" fill="#333"/>
          <path id="Path_1194" data-name="Path 1194" d="M90.477,150.609a2.184,2.184,0,0,0,.308.14.815.815,0,0,0,.584.027.634.634,0,0,0,.371-.539h0a.639.639,0,0,1-.657-.036,1.485,1.485,0,0,1-.824-1.245c0-.516.385-.774.956-.489a1.771,1.771,0,0,1,.906,1.608c0,.6-.208.906-.48,1.037a1.087,1.087,0,0,1-.815-.041,2.359,2.359,0,0,1-.349-.154ZM90.6,149.1a.978.978,0,0,0,.539.847c.254.127.453.1.552,0a.163.163,0,0,0,.036-.118,1.177,1.177,0,0,0-.571-1.1C90.84,148.567,90.6,148.725,90.6,149.1Z" transform="translate(-49.404 -81.161)" fill="#333"/>
          <path id="Path_1195" data-name="Path 1195" d="M96.959,152.756c0,.906-.353,1.259-.974.951a1.976,1.976,0,0,1-.906-1.861c0-.906.4-1.214.974-.906A1.938,1.938,0,0,1,96.959,152.756Zm-1.517-.72a1.508,1.508,0,0,0,.566,1.395c.344.172.571-.154.571-.847s-.177-1.2-.566-1.395-.571.109-.571.851Z" transform="translate(-52.041 -82.515)" fill="#333"/>
          <path id="Path_1196" data-name="Path 1196" d="M101.839,155.2c0,.906-.353,1.259-.974.951a1.976,1.976,0,0,1-.906-1.861c0-.906.4-1.214.974-.906A1.938,1.938,0,0,1,101.839,155.2Zm-1.522-.72a1.508,1.508,0,0,0,.566,1.395c.344.172.571-.154.571-.847s-.177-1.2-.566-1.395-.571.109-.571.851Z" transform="translate(-54.711 -83.85)" fill="#333"/>
          <path id="Path_1197" data-name="Path 1197" d="M106.729,157.666c0,.906-.353,1.259-.974.951a1.976,1.976,0,0,1-.906-1.861c0-.906.4-1.214.974-.906a1.938,1.938,0,0,1,.906,1.816Zm-1.517-.72a1.508,1.508,0,0,0,.566,1.395c.344.172.571-.154.571-.847s-.177-1.2-.566-1.395-.58.1-.58.833Z" transform="translate(-57.387 -85.202)" fill="#333"/>
          <path id="Path_1198" data-name="Path 1198" d="M117.629,163.1c0,.906-.353,1.259-.974.951a1.976,1.976,0,0,1-.906-1.861c0-.906.4-1.214.974-.906a1.938,1.938,0,0,1,.906,1.816Zm-1.517-.72a1.508,1.508,0,0,0,.566,1.395c.344.172.571-.154.571-.847s-.177-1.2-.566-1.395S116.112,161.638,116.112,162.376Z" transform="translate(-63.351 -88.173)" fill="#333"/>
          <path id="Path_1199" data-name="Path 1199" d="M122.509,165.536c0,.906-.353,1.259-.974.951a1.976,1.976,0,0,1-.906-1.861c0-.906.4-1.214.974-.906a1.938,1.938,0,0,1,.906,1.816Zm-1.517-.72a1.508,1.508,0,0,0,.566,1.395c.344.172.571-.154.571-.847s-.177-1.2-.566-1.395-.575.109-.575.847Z" transform="translate(-66.021 -89.508)" fill="#333"/>
          <path id="Path_1200" data-name="Path 1200" d="M127.379,167.976c0,.906-.353,1.259-.974.951a1.976,1.976,0,0,1-.906-1.861c0-.906.4-1.214.974-.906A1.938,1.938,0,0,1,127.379,167.976Zm-1.522-.72a1.508,1.508,0,0,0,.566,1.395c.344.172.571-.154.571-.847s-.177-1.2-.566-1.395-.566.1-.566.847Z" transform="translate(-68.685 -90.843)" fill="#333"/>
          <path id="Path_1201" data-name="Path 1201" d="M132.259,170.406c0,.906-.353,1.259-.974.951a1.976,1.976,0,0,1-.906-1.861c0-.906.4-1.214.974-.906A1.938,1.938,0,0,1,132.259,170.406Zm-1.517-.72a1.508,1.508,0,0,0,.566,1.395c.344.172.571-.154.571-.847s-.177-1.2-.566-1.395-.575.109-.575.851Z" transform="translate(-71.355 -92.172)" fill="#333"/>
          <path id="Path_1202" data-name="Path 1202" d="M40.517,123.617h-.485l-.072-.317h.611l.322.163v2.717L40.526,126Z" transform="translate(-21.882 -67.455)" fill="#fff"/>
          <path id="Path_1203" data-name="Path 1203" d="M44.25,127.765v-.226l.3-.131c.716-.3,1.037-.494,1.042-.906a.906.906,0,0,0-.548-.806.788.788,0,0,0-.593-.068l-.122-.322a1.078,1.078,0,0,1,.792.122,1.44,1.44,0,0,1,.829,1.218c0,.5-.376.72-.965.978l-.222.091h0l1.259.629v.3Z" transform="translate(-24.229 -68.538)" fill="#fff"/>
          <path id="Path_1204" data-name="Path 1204" d="M49.222,129.781a2.346,2.346,0,0,0,.62.48c.485.245.639,0,.634-.213a1.173,1.173,0,0,0-.725-.906l-.213-.1v-.276l.213.1c.276.136.625.172.625-.149a.774.774,0,0,0-.489-.657.933.933,0,0,0-.562-.1l-.1-.317a1.264,1.264,0,0,1,.734.159,1.291,1.291,0,0,1,.8,1.051c0,.281-.172.453-.516.38h0a1.358,1.358,0,0,1,.643,1.023c0,.453-.349.643-1.019.308a2.6,2.6,0,0,1-.729-.548Z" transform="translate(-26.905 -69.829)" fill="#fff"/>
          <path id="Path_1205" data-name="Path 1205" d="M55.02,133.613v-.743l-1.3-.652v-.245l1.25-1.114.408.2v1.689l.389.195v.29l-.389-.195v.743Zm0-1.028v-1.327h0a3.467,3.467,0,0,1-.231.285l-.684.584h0Z" transform="translate(-29.411 -71.592)" fill="#fff"/>
          <path id="Path_1206" data-name="Path 1206" d="M66.564,136.47l-1.069-.534-.113.643a2.012,2.012,0,0,1,.226.1,2.124,2.124,0,0,1,.6.453,1.359,1.359,0,0,1,.4.906c0,.53-.453.711-1.042.408a2.477,2.477,0,0,1-.7-.516l.1-.231a2.265,2.265,0,0,0,.6.453c.358.177.661.1.661-.258a1.214,1.214,0,0,0-.806-1.005,3.756,3.756,0,0,0-.389-.163l.181-1.214,1.359.67Z" transform="translate(-35.512 -74.136)" fill="#fff"/>
          <path id="Path_1207" data-name="Path 1207" d="M71.322,139.211a1.87,1.87,0,0,0-.285-.127c-.593-.2-.906.063-.974.48h0a.629.629,0,0,1,.675.023,1.512,1.512,0,0,1,.842,1.3c0,.5-.349.783-.928.494a1.848,1.848,0,0,1-.974-1.657,1,1,0,0,1,.453-.987,1.177,1.177,0,0,1,.906.045,2.34,2.34,0,0,1,.276.118Zm-.109,1.517a1.023,1.023,0,0,0-.575-.906.412.412,0,0,0-.543.063.208.208,0,0,0-.041.14,1.209,1.209,0,0,0,.616,1.087C71,141.272,71.213,141.118,71.213,140.729Z" transform="translate(-38.137 -75.863)" fill="#fff"/>
          <path id="Path_1208" data-name="Path 1208" d="M76.563,140.906v.245l-1.214,1.857-.394-.195L76.169,141h0l-1.359-.684V140Z" transform="translate(-40.95 -76.593)" fill="#fff"/>
          <path id="Path_1209" data-name="Path 1209" d="M79.47,144.78c0-.344.213-.48.557-.453h0a1.232,1.232,0,0,1-.453-.833c0-.453.376-.539.865-.29a1.359,1.359,0,0,1,.815,1.078.379.379,0,0,1-.453.408h0a1.417,1.417,0,0,1,.562.987c0,.453-.417.584-.951.317A1.553,1.553,0,0,1,79.47,144.78Zm1.508.738c0-.331-.235-.607-.616-.906-.326-.072-.5.05-.5.308a.951.951,0,0,0,.562.8c.335.177.552.082.552-.2Zm-1.042-1.879a1.084,1.084,0,0,0,.534.77c.24.041.426-.032.426-.281a.792.792,0,0,0-.453-.679c-.34-.159-.512-.045-.512.19Z" transform="translate(-43.5 -78.271)" fill="#fff"/>
          <path id="Path_1210" data-name="Path 1210" d="M90.687,150.819a2.176,2.176,0,0,0,.308.14.815.815,0,0,0,.584.027.634.634,0,0,0,.371-.539h0a.639.639,0,0,1-.657-.036,1.485,1.485,0,0,1-.824-1.245c0-.516.385-.774.956-.489a1.771,1.771,0,0,1,.906,1.608c0,.6-.208.906-.48,1.037a1.087,1.087,0,0,1-.815-.041,2.357,2.357,0,0,1-.349-.154Zm.136-1.494a.978.978,0,0,0,.539.847c.254.127.453.1.552,0a.163.163,0,0,0,.036-.118,1.177,1.177,0,0,0-.571-1.1c-.331-.19-.557-.014-.557.371Z" transform="translate(-49.519 -81.276)" fill="#fff"/>
          <path id="Path_1211" data-name="Path 1211" d="M97.169,152.966c0,.906-.353,1.259-.974.951a1.976,1.976,0,0,1-.906-1.861c0-.906.4-1.214.974-.906A1.938,1.938,0,0,1,97.169,152.966Zm-1.517-.72a1.508,1.508,0,0,0,.566,1.395c.344.172.571-.154.571-.847s-.177-1.2-.566-1.395-.571.109-.571.851Z" transform="translate(-52.156 -82.63)" fill="#fff"/>
          <path id="Path_1212" data-name="Path 1212" d="M102.049,155.406c0,.906-.353,1.259-.974.951a1.976,1.976,0,0,1-.906-1.861c0-.906.4-1.214.974-.906A1.938,1.938,0,0,1,102.049,155.406Zm-1.5-.72a1.508,1.508,0,0,0,.566,1.395c.344.172.571-.154.571-.847s-.177-1.2-.566-1.395S100.546,153.948,100.546,154.686Z" transform="translate(-54.826 -83.965)" fill="#fff"/>
          <path id="Path_1213" data-name="Path 1213" d="M106.919,157.846c0,.906-.353,1.259-.974.951a1.976,1.976,0,0,1-.906-1.861c0-.906.4-1.214.974-.906A1.938,1.938,0,0,1,106.919,157.846Zm-1.517-.72a1.508,1.508,0,0,0,.566,1.395c.344.172.571-.154.571-.847s-.177-1.2-.566-1.395S105.4,156.406,105.4,157.126Z" transform="translate(-57.491 -85.3)" fill="#fff"/>
          <path id="Path_1214" data-name="Path 1214" d="M117.839,163.306c0,.906-.353,1.259-.974.951a1.976,1.976,0,0,1-.906-1.861c0-.906.4-1.214.974-.906A1.938,1.938,0,0,1,117.839,163.306Zm-1.517-.72a1.508,1.508,0,0,0,.566,1.395c.344.172.571-.154.571-.847s-.177-1.2-.566-1.395S116.322,161.848,116.322,162.586Z" transform="translate(-63.465 -88.288)" fill="#fff"/>
          <path id="Path_1215" data-name="Path 1215" d="M122.729,165.746c0,.906-.353,1.259-.974.951a1.976,1.976,0,0,1-.906-1.861c0-.906.4-1.214.974-.906A1.938,1.938,0,0,1,122.729,165.746Zm-1.517-.72a1.508,1.508,0,0,0,.566,1.395c.344.172.571-.154.571-.847s-.177-1.2-.566-1.395-.58.1-.58.847Z" transform="translate(-66.141 -89.623)" fill="#fff"/>
          <path id="Path_1216" data-name="Path 1216" d="M127.589,168.176c0,.906-.353,1.259-.974.951a1.976,1.976,0,0,1-.906-1.861c0-.906.4-1.214.974-.906a1.938,1.938,0,0,1,.906,1.816Zm-1.522-.72a1.508,1.508,0,0,0,.566,1.395c.344.172.571-.154.571-.847s-.177-1.2-.566-1.395-.566.109-.566.851Z" transform="translate(-68.8 -90.952)" fill="#fff"/>
          <path id="Path_1217" data-name="Path 1217" d="M132.459,170.666c0,.906-.353,1.259-.974.951a1.976,1.976,0,0,1-.906-1.861c0-.906.4-1.214.974-.906A1.938,1.938,0,0,1,132.459,170.666Zm-1.517-.72a1.508,1.508,0,0,0,.566,1.395c.344.172.571-.154.571-.847s-.177-1.2-.566-1.395-.571.086-.571.829Z" transform="translate(-71.465 -92.315)" fill="#fff"/>
          <path id="Path_1218" data-name="Path 1218" d="M35.54,81.11a5.6,5.6,0,0,1,.847.349,2.649,2.649,0,0,1,.983.752,1.25,1.25,0,0,1,.3.779c0,.344-.226.534-.607.485h0a1.734,1.734,0,0,1,.738,1.268.562.562,0,0,1-.3.566c-.249.1-.652,0-1.236-.285a8.1,8.1,0,0,1-.716-.4Zm.453,1.7.421.208c.489.245.774.131.774-.213,0-.421-.317-.743-.788-.978a2.468,2.468,0,0,0-.408-.172Zm0,1.716a3.723,3.723,0,0,0,.389.217c.48.24.906.285.906-.235a1.44,1.44,0,0,0-.906-1.155L36,83.161Z" transform="translate(-19.464 -44.371)" fill="#fff"/>
          <path id="Path_1219" data-name="Path 1219" d="M43.052,89.871l-.036-.344h0a.7.7,0,0,1-.788,0,1.359,1.359,0,0,1-.788-1.132c0-.62.552-.684,1.549-.181v-.054a.951.951,0,0,0-.584-.906,1.209,1.209,0,0,0-.67-.145l-.1-.362a1.531,1.531,0,0,1,.847.195,1.639,1.639,0,0,1,.978,1.54v.96a4,4,0,0,0,.05.643Zm-.068-1.359c-.512-.267-1.091-.453-1.091.036a.765.765,0,0,0,.453.666c.335.168.548.063.62-.118a.367.367,0,0,0,.027-.136Z" transform="translate(-22.692 -47.453)" fill="#fff"/>
          <path id="Path_1220" data-name="Path 1220" d="M47.53,89.916V89.21l.417.208.027.453h0c.127-.181.426-.272.851-.059a1.7,1.7,0,0,1,.906,1.549V92.9l-.453-.235v-1.49a1.114,1.114,0,0,0-.629-1.06c-.308-.154-.548-.054-.625.163a.539.539,0,0,0-.032.2v1.544l-.453-.235Z" transform="translate(-26.024 -48.803)" fill="#fff"/>
          <path id="Path_1221" data-name="Path 1221" d="M54.491,92.453h0a2.63,2.63,0,0,1,.226-.177l.756-.512.562.281-.978.584,1.132,2.079-.571-.285-.906-1.676-.24.145v.969l-.453-.231V89.84l.453.231Z" transform="translate(-29.575 -49.148)" fill="#fff"/>
          <path id="Path_1222" data-name="Path 1222" d="M64.093,122.227a.575.575,0,0,1-.213-.195c-.118-.177-.118-.367,0-.426a.879.879,0,0,0,.534-.856,3,3,0,0,0-.53-1.336c-.122-.172-.131-.371,0-.453s.3,0,.426.19a4.03,4.03,0,0,1,.72,1.879,1.223,1.223,0,0,1-.711,1.218A.24.24,0,0,1,64.093,122.227Z" transform="translate(-34.921 -65.064)" fill="#fafafa"/>
          <path id="Path_1223" data-name="Path 1223" d="M66.316,123.129a.575.575,0,0,1-.213-.195c-.118-.177-.118-.367,0-.426a1.49,1.49,0,0,0,.906-1.463,5.067,5.067,0,0,0-.906-2.291c-.122-.172-.136-.371,0-.453s.3,0,.426.19a6.069,6.069,0,0,1,1.082,2.817,1.839,1.839,0,0,1-1.073,1.811A.24.24,0,0,1,66.316,123.129Z" transform="translate(-36.133 -64.703)" fill="#fafafa"/>
          <path id="Path_1224" data-name="Path 1224" d="M68.793,124.267a.575.575,0,0,1-.213-.195c-.118-.177-.118-.367,0-.426a2.02,2.02,0,0,0,1.2-1.974,6.811,6.811,0,0,0-1.2-3.1c-.122-.172-.136-.371-.023-.453s.3,0,.426.19a7.66,7.66,0,0,1,1.395,3.623,2.364,2.364,0,0,1-1.381,2.346.24.24,0,0,1-.213-.014Z" transform="translate(-37.492 -64.605)" fill="#fafafa"/>
          <g id="Group_1374" data-name="Group 1374" transform="translate(49.873 77.415)">
            <path id="Path_1225" data-name="Path 1225" d="M115.492,177.588c-1.155.661-3.1-.24-4.343-2.02s-1.309-3.759-.154-4.42,3.1.24,4.343,2.02S116.651,176.926,115.492,177.588Z" transform="translate(-110.172 -170.931)" fill="#fff" opacity="0.51"/>
            <path id="Path_1226" data-name="Path 1226" d="M122.282,180.958c-1.155.661-3.1-.24-4.343-2.02s-1.309-3.759-.154-4.42,3.1.24,4.343,2.02S123.441,180.305,122.282,180.958Z" transform="translate(-113.887 -172.775)" fill="#fff" opacity="0.51"/>
            <path id="Path_1227" data-name="Path 1227" d="M129.072,184.378c-1.155.661-3.1-.24-4.343-2.02s-1.309-3.759-.154-4.42,3.1.24,4.343,2.02S130.227,183.735,129.072,184.378Z" transform="translate(-117.602 -174.646)" fill="#fff" opacity="0.51"/>
          </g>
          <path id="Path_1228" data-name="Path 1228" d="M278.531,110.843c0,5.593-4.529,7.857-10.126,5.063s-10.126-9.6-10.126-15.189,4.529-7.857,10.126-5.063S278.531,105.25,278.531,110.843Z" transform="translate(-141.336 -51.674)" fill="#964aff" opacity="0.64"/>
          <path id="Path_1229" data-name="Path 1229" d="M278.531,220.613c0,5.593-4.529,7.857-10.126,5.063s-10.126-9.6-10.126-15.189,4.529-7.857,10.126-5.063S278.531,215.024,278.531,220.613Z" transform="translate(-141.336 -111.734)" fill="#964aff" opacity="0.64"/>
          <g id="Group_1375" data-name="Group 1375" transform="translate(97.562 88.988)" opacity="0.51">
            <path id="Path_1230" data-name="Path 1230" d="M218.505,198.929c0,.833-.675,1.173-1.513.756a2.844,2.844,0,0,1-1.513-2.264c0-.833.675-1.173,1.513-.756a2.844,2.844,0,0,1,1.513,2.264Z" transform="translate(-215.48 -196.487)" fill="#abd1ff"/>
            <path id="Path_1231" data-name="Path 1231" d="M228.345,203.859c0,.833-.675,1.173-1.513.756a2.844,2.844,0,0,1-1.513-2.264c0-.833.675-1.173,1.513-.756a2.844,2.844,0,0,1,1.513,2.264Z" transform="translate(-220.864 -199.184)" fill="#964aff" opacity="0.64"/>
            <path id="Path_1232" data-name="Path 1232" d="M238.215,208.789c0,.833-.675,1.173-1.513.756a2.844,2.844,0,0,1-1.513-2.264c0-.833.675-1.173,1.513-.756a2.844,2.844,0,0,1,1.513,2.264Z" transform="translate(-226.264 -201.882)" fill="#964aff" opacity="0.64"/>
            <path id="Path_1233" data-name="Path 1233" d="M248.075,213.719c0,.833-.675,1.173-1.513.756a2.844,2.844,0,0,1-1.513-2.264c0-.833.675-1.173,1.513-.756A2.844,2.844,0,0,1,248.075,213.719Z" transform="translate(-231.659 -204.579)" fill="#964aff" opacity="0.64"/>
          </g>
          <g id="Group_1376" data-name="Group 1376" transform="translate(97.562 65.371)" opacity="0.51">
            <path id="Path_1234" data-name="Path 1234" d="M218.505,146.779c0,.833-.675,1.173-1.513.756a2.844,2.844,0,0,1-1.513-2.264c0-.833.675-1.173,1.513-.756a2.844,2.844,0,0,1,1.513,2.264Z" transform="translate(-215.48 -144.337)" fill="#abd1ff"/>
            <path id="Path_1235" data-name="Path 1235" d="M228.345,151.7c0,.833-.675,1.173-1.513.756a2.844,2.844,0,0,1-1.513-2.264c0-.833.675-1.173,1.513-.756a2.844,2.844,0,0,1,1.513,2.264Z" transform="translate(-220.864 -147.029)" fill="#964aff" opacity="0.64"/>
            <path id="Path_1236" data-name="Path 1236" d="M238.215,156.629c0,.833-.675,1.173-1.513.756a2.844,2.844,0,0,1-1.513-2.264c0-.833.675-1.173,1.513-.756a2.844,2.844,0,0,1,1.513,2.264Z" transform="translate(-226.264 -149.726)" fill="#964aff" opacity="0.64"/>
            <path id="Path_1237" data-name="Path 1237" d="M248.075,161.559c0,.833-.675,1.173-1.513.756a2.844,2.844,0,0,1-1.513-2.264c0-.833.675-1.173,1.513-.756A2.844,2.844,0,0,1,248.075,161.559Z" transform="translate(-231.659 -152.424)" fill="#964aff" opacity="0.64"/>
          </g>
          <g id="Group_1377" data-name="Group 1377" transform="translate(97.562 40.492)" opacity="0.51">
            <path id="Path_1238" data-name="Path 1238" d="M218.505,91.839c0,.833-.675,1.173-1.513.756a2.844,2.844,0,0,1-1.513-2.264c0-.833.675-1.173,1.513-.756a2.844,2.844,0,0,1,1.513,2.264Z" transform="translate(-215.48 -89.397)" fill="#abd1ff"/>
            <path id="Path_1239" data-name="Path 1239" d="M228.345,96.769c0,.833-.675,1.173-1.513.756a2.844,2.844,0,0,1-1.513-2.264c0-.833.675-1.173,1.513-.756a2.844,2.844,0,0,1,1.513,2.264Z" transform="translate(-220.864 -92.094)" fill="#964aff" opacity="0.64"/>
            <path id="Path_1240" data-name="Path 1240" d="M238.215,101.7c0,.833-.675,1.173-1.513.756a2.844,2.844,0,0,1-1.513-2.264c0-.833.675-1.173,1.513-.756a2.844,2.844,0,0,1,1.513,2.264Z" transform="translate(-226.264 -94.792)" fill="#964aff" opacity="0.64"/>
            <path id="Path_1241" data-name="Path 1241" d="M248.075,106.629c0,.833-.675,1.173-1.513.756a2.844,2.844,0,0,1-1.513-2.264c0-.833.675-1.173,1.513-.756a2.844,2.844,0,0,1,1.513,2.264Z" transform="translate(-231.659 -97.489)" fill="#964aff" opacity="0.64"/>
          </g>
          <path id="Path_1242" data-name="Path 1242" d="M167.023,27.327,129.278,8.439a1.925,1.925,0,0,0-1.884-.1h0L124.41,9.824l1.544.693V87.746a4.722,4.722,0,0,0,2.513,3.768l37.419,18.725-.276,1.476,3.07-1.531h0a1.436,1.436,0,0,0,.833-1.449V31.1A4.64,4.64,0,0,0,167.023,27.327Z" transform="translate(-68.089 -4.445)" fill="url(#linear-gradient-4)"/>
          <path id="Path_1243" data-name="Path 1243" d="M162.818,113.5,125.073,94.612a4.732,4.732,0,0,1-2.513-3.768V13.193c0-1.386,1.123-1.952,2.513-1.254l37.745,18.884a4.732,4.732,0,0,1,2.513,3.768v77.65C165.327,113.631,164.209,114.193,162.818,113.5Z" transform="translate(-67.077 -6.361)" fill="#fff"/>
          <path id="Path_1244" data-name="Path 1244" d="M163.389,114.723,131.073,98.547a4.732,4.732,0,0,1-2.513-3.768V26.213c0-1.386,1.123-1.952,2.513-1.254l32.315,16.158a4.732,4.732,0,0,1,2.513,3.768v68.584C165.893,114.855,164.775,115.421,163.389,114.723Z" transform="translate(-70.36 -13.485)" fill="url(#linear-gradient-5)"/>
          <path id="Path_1245" data-name="Path 1245" d="M169.389,37.963l-14.414-7.209a1.463,1.463,0,0,1-.774-1.164h0c0-.43.349-.6.774-.389l14.419,7.209a1.463,1.463,0,0,1,.774,1.164h0C170.168,38,169.819,38.175,169.389,37.963Z" transform="translate(-84.388 -15.919)" fill="url(#linear-gradient-6)"/>
          <path id="Path_1246" data-name="Path 1246" d="M197.934,51.917c0,.539-.453.761-.978.489A1.839,1.839,0,0,1,196,50.939c0-.539.453-.761.978-.489A1.839,1.839,0,0,1,197.934,51.917Z" transform="translate(-107.259 -27.532)" fill="url(#linear-gradient-7)"/>
          <path id="Path_1247" data-name="Path 1247" d="M219.7,91.777l.168.149a.752.752,0,0,1-1.109-.62V83.241a1.78,1.78,0,0,1,.942-1.413h0c.516-.258,1.2,0,1.2.516l-.258,8.02A1.78,1.78,0,0,1,219.7,91.777Z" transform="translate(-119.712 -44.708)" fill="#3f1675"/>
          <path id="Path_1248" data-name="Path 1248" d="M220.432,92.126h0c-.516.258-.942.045-.942-.453V83.59a1.78,1.78,0,0,1,.942-1.413h0c.516-.258.942-.045.942.453V90.7A1.78,1.78,0,0,1,220.432,92.126Z" transform="translate(-120.112 -44.894)" fill="#793bf5"/>
          <path id="Path_1249" data-name="Path 1249" d="M219.7,118.111l.168.149a.752.752,0,0,1-1.109-.62v-8.07a1.78,1.78,0,0,1,.942-1.413h0c.516-.258,1.2,0,1.2.516l-.258,8.02A1.78,1.78,0,0,1,219.7,118.111Z" transform="translate(-119.712 -59.115)" fill="#3f1675"/>
          <path id="Path_1250" data-name="Path 1250" d="M220.432,118.46h0c-.516.258-.942.045-.942-.453V109.92a1.78,1.78,0,0,1,.942-1.413h0c.516-.258.942-.045.942.453v8.088A1.78,1.78,0,0,1,220.432,118.46Z" transform="translate(-120.112 -59.301)" fill="#793bf5"/>
          <g id="Group_1378" data-name="Group 1378" transform="translate(116.944 67.722)" opacity="0.66">
            <path id="Path_1251" data-name="Path 1251" d="M278.531,165.913c0,5.593-4.529,7.857-10.126,5.063s-10.126-9.6-10.126-15.189,4.529-7.857,10.126-5.063S278.531,160.324,278.531,165.913Z" transform="translate(-258.28 -149.527)" fill="#964aff" opacity="0.64"/>
          </g>
          <path id="Path_1252" data-name="Path 1252" d="M269.054,115.975h0a4.257,4.257,0,0,1-2.264-3.383v-.426c0-1.245,1.01-1.748,2.264-1.128h0Z" transform="translate(-145.992 -60.601)" fill="#fff"/>
          <path id="Path_1253" data-name="Path 1253" d="M290.7,120.82h0a4.257,4.257,0,0,1,2.264,3.383v.426c0,1.245-1.01,1.748-2.264,1.128h0Z" transform="translate(-159.074 -66.098)" fill="#fff"/>
          <path id="Path_1254" data-name="Path 1254" d="M270.263,107.732l-.783-.453c.231-3.27,2.382-4.465,5.357-2.975a10.265,10.265,0,0,1,5.357,8.337l-.783-.34a8.744,8.744,0,0,0-4.574-7.214C272.26,103.8,270.467,104.839,270.263,107.732Z" transform="translate(-147.464 -56.715)" fill="#fff"/>
          <path id="Path_1255" data-name="Path 1255" d="M274.642,125.5a10.47,10.47,0,0,1-4.252-3.578,5.574,5.574,0,0,1-1.01-3.057l.589.326-.294-.163.294.163a4.8,4.8,0,0,0,.856,2.554,9.423,9.423,0,0,0,3.818,3.17Z" transform="translate(-147.409 -65.031)" fill="#fff"/>
          <path id="Path_1256" data-name="Path 1256" d="M280.493,131.974c0,.453-.38.661-.851.426a1.6,1.6,0,0,1-.851-1.273c0-.453.38-.661.851-.426A1.6,1.6,0,0,1,280.493,131.974Z" transform="translate(-152.558 -71.452)" fill="#fff"/>
          <path id="Path_1257" data-name="Path 1257" d="M263.3,166.155v-.783l.715-.29c1.209-.475,1.811-.806,1.811-1.445a1.454,1.454,0,0,0-.906-1.263,1.644,1.644,0,0,0-1.186-.131l-.367-1.114a2.758,2.758,0,0,1,1.811.335,3.2,3.2,0,0,1,1.943,2.717c0,.928-.675,1.336-1.476,1.648l-.512.172h0l2.088,1.046v1.064Z" transform="translate(-144.082 -88.134)" fill="#fff"/>
          <path id="Path_1258" data-name="Path 1258" d="M275.844,173.106v-1.322l-2.454-1.227v-.842l2.088-2.314,1.585.792v3.247l.666.335v.974l-.666-.335v1.322Zm0-2.291v-1.227a8.478,8.478,0,0,1,.041-1.01h-.036c-.177.267-.326.521-.512.774l-.743.838h0Z" transform="translate(-149.603 -91.584)" fill="#fff"/>
          <path id="Path_1259" data-name="Path 1259" d="M283.7,176.867l1.811-5.267.86.453-1.811,5.267Z" transform="translate(-155.244 -93.882)" fill="#fff"/>
          <path id="Path_1260" data-name="Path 1260" d="M294.463,175.62v.82l-2.264,3.578-1.359-.688,2.264-3.315h0l-2.554-1.3V173.65Z" transform="translate(-158.992 -95.004)" fill="#fff"/>
          <path id="Path_1261" data-name="Path 1261" d="M276.059,230l-6.643-3.324a1.811,1.811,0,0,1-.906-1.15l-1.282-5.833h0a.58.58,0,0,1,.906-.7l9.1,4.551a1.811,1.811,0,0,1,.72.711,1.223,1.223,0,0,1,.177.869l-1.177,4.605C276.865,230.1,276.493,230.233,276.059,230Zm-8.314-10.18,1.282,5.833a.788.788,0,0,0,.389.5l6.643,3.324c.19.1.349.045.389-.118l1.177-4.605a.534.534,0,0,0-.077-.38.779.779,0,0,0-.312-.308l-9.1-4.551a.254.254,0,0,0-.389.3Z" transform="translate(-146.194 -119.729)" fill="#fff"/>
          <path id="Path_1262" data-name="Path 1262" d="M278.366,228.613l-9.836-4.922v-.521l9.836,4.918Z" transform="translate(-146.944 -122.099)" fill="#fff"/>
          <path id="Path_1263" data-name="Path 1263" d="M278.529,233.76l-8.749-4.379v-.521l8.749,4.375Z" transform="translate(-147.628 -125.212)" fill="#fff"/>
          <path id="Path_1264" data-name="Path 1264" d="M273.513,230.867l-.783-4.927.512.168.788,4.927Z" transform="translate(-149.242 -123.615)" fill="#fff"/>
          <path id="Path_1265" data-name="Path 1265" d="M283.926,236.357l-.516-.331.639-4.216.516.331Z" transform="translate(-155.085 -126.826)" fill="#fff"/>
          <path id="Path_1266" data-name="Path 1266" d="M279.381,233.711l-.521-.258V228.92l.521.258Z" transform="translate(-152.596 -125.245)" fill="#fff"/>
          <path id="Path_1267" data-name="Path 1267" d="M290.272,229.071l-.054-.032a.453.453,0,0,1-.2-.408l.82-3.424c.027-.109.131-.14.254-.077l2.346,1.173a.489.489,0,0,1,.263.389c0,.145-.118.2-.263.131l-2.137-1.069L290.526,229C290.5,229.1,290.395,229.13,290.272,229.071Z" transform="translate(-158.701 -123.154)" fill="#fff"/>
          <path id="Path_1268" data-name="Path 1268" d="M274,237.751c0,.453-.353.611-.788.394a1.481,1.481,0,0,1-.788-1.177c0-.453.353-.611.788-.394A1.481,1.481,0,0,1,274,237.751Z" transform="translate(-149.072 -129.38)" fill="#fff"/>
          <path id="Path_1269" data-name="Path 1269" d="M285.226,243.371c0,.453-.353.611-.788.394a1.481,1.481,0,0,1-.788-1.177c0-.453.353-.611.788-.394A1.481,1.481,0,0,1,285.226,243.371Z" transform="translate(-155.217 -132.455)" fill="#fff"/>
          <path id="Path_1270" data-name="Path 1270" d="M176,132.805c0,6.145-4.981,8.636-11.127,5.561s-11.122-10.542-11.122-16.674,4.981-8.636,11.127-5.561S176,126.673,176,132.805Z" transform="translate(-84.142 -62.813)" opacity="0" fill="url(#linear-gradient-8)"/>
          <path id="Path_1271" data-name="Path 1271" d="M173.823,134.176c0,6.145-4.981,8.636-11.127,5.561s-11.127-10.542-11.127-16.688,4.981-8.636,11.127-5.561S173.823,128.03,173.823,134.176Z" transform="translate(-82.949 -63.554)" opacity="0.17" fill="url(#linear-gradient-9)"/>
          <path id="Path_1272" data-name="Path 1272" d="M171.663,135.556c0,6.145-4.981,8.636-11.127,5.561s-11.127-10.542-11.127-16.688,4.981-8.636,11.127-5.561S171.663,129.41,171.663,135.556Z" transform="translate(-81.768 -64.309)" opacity="0.33" fill="url(#linear-gradient-10)"/>
          <path id="Path_1273" data-name="Path 1273" d="M169.5,136.936c0,6.145-4.981,8.636-11.127,5.561s-11.127-10.542-11.127-16.688,4.981-8.636,11.127-5.561S169.5,130.79,169.5,136.936Z" transform="translate(-80.586 -65.064)" opacity="0.5" fill="url(#linear-gradient-11)"/>
          <path id="Path_1274" data-name="Path 1274" d="M167.343,138.316c0,6.145-4.981,8.636-11.127,5.561s-11.127-10.542-11.127-16.688,4.981-8.636,11.127-5.561S167.343,132.17,167.343,138.316Z" transform="translate(-79.404 -65.819)" opacity="0.67" fill="url(#linear-gradient-12)"/>
          <path id="Path_1275" data-name="Path 1275" d="M165.173,139.7c0,6.145-4.981,8.636-11.127,5.561s-11.127-10.542-11.127-16.688,4.981-8.636,11.127-5.561S165.173,133.55,165.173,139.7Z" transform="translate(-78.217 -66.575)" opacity="0.83" fill="url(#linear-gradient-13)"/>
          <path id="Path_1276" data-name="Path 1276" d="M163.013,141.076c0,6.145-4.981,8.636-11.127,5.561s-11.127-10.542-11.127-16.688,4.981-8.636,11.127-5.561S163.013,134.93,163.013,141.076Z" transform="translate(-77.035 -67.33)" fill="url(#linear-gradient-14)"/>
          <path id="Path_1277" data-name="Path 1277" d="M156.006,152.171a1.947,1.947,0,0,1-.729-.67l-4.787-7.336c-.389-.6-.344-1.173.023-1.422.693-.453,1.277-.059,1.666.534l3.922,6.009,5.937-5.747c.317-.3.946-.109,1.408.453s.58,1.236.267,1.54l-6.87,6.621a.679.679,0,0,1-.752.063Z" transform="translate(-82.209 -77.986)" fill="#fff"/>
          <path id="Path_1278" data-name="Path 1278" d="M150.224,87a18.992,18.992,0,0,1,2.454,1.06,6.888,6.888,0,0,1,2.454,1.87,3.9,3.9,0,0,1,.856,2.264,1.532,1.532,0,0,1-.738,1.535,3.331,3.331,0,0,1-2.608-.453,6.907,6.907,0,0,1-.62-.344V95.8L150.21,94.9Zm1.811,4.529a4.316,4.316,0,0,0,.607.353c.965.485,1.562.294,1.562-.53a2.225,2.225,0,0,0-1.417-1.888,3.791,3.791,0,0,0-.752-.3Z" transform="translate(-82.205 -47.594)" fill="#fff"/>
          <path id="Path_1279" data-name="Path 1279" d="M165.1,101.7l-.571,1.775-1.884-.942L165.1,95.74l2.382,1.191,2.491,9.27-1.952-.978-.62-2.368Zm2.038-.34-.5-1.952c-.145-.548-.285-1.214-.4-1.753h-.023c-.118.417-.24.965-.371,1.359l-.476,1.463Z" transform="translate(-89.012 -52.376)" fill="#fff"/>
          <path id="Path_1280" data-name="Path 1280" d="M179.736,109.577v-3.288L177.2,100.28l2.074,1.037.82,2.341c.249.706.417,1.223.62,1.848h.023c.177-.412.371-.779.607-1.232l.811-1.526,2.038,1.019-2.645,3.356v3.347Z" transform="translate(-96.973 -54.86)" fill="#fff"/>
          <path id="Path_1281" data-name="Path 1281" d="M66.522,12.4,42.974.624C39.981-.875,37.54.339,37.54,3.341s2.427,6.634,5.434,8.151L66.522,23.267,71.957,27.8V20.549h0C71.943,17.538,69.516,13.9,66.522,12.4Z" transform="translate(-20.558 0.018)" fill="#f6f8ff" opacity="0.35"/>
          <path id="Path_1282" data-name="Path 1282" d="M32.417,35.028,15.974,26.8c-2.993-1.5-5.434-.285-5.434,2.717h0v7.246h3.994a8.758,8.758,0,0,0,1.426.906l16.457,8.192c2.993,1.5,5.434.285,5.434-2.717h0C37.838,40.163,35.411,36.5,32.417,35.028Z" transform="translate(-5.785 -14.306)" fill="#f6f8ff" opacity="0.35"/>
          <path id="Path_1283" data-name="Path 1283" d="M123.986,243.346l-3.066-21.606-12.739,6.367-.942,23.616Z" transform="translate(-58.694 -121.316)" fill="url(#linear-gradient-15)"/>
          <path id="Path_1284" data-name="Path 1284" d="M107.129,214.28l1.454,2.464,5.307.915-12.739,6.367-6.761-3.378Z" transform="translate(-51.663 -117.235)" fill="#c7d4ff"/>
          <path id="Path_1285" data-name="Path 1285" d="M113.754,218.254l-4.565-.788L107.8,215.12,95.83,221.107l6.109,3.057Z" transform="translate(-52.451 -117.694)" fill="#829dff"/>
          <path id="Path_1286" data-name="Path 1286" d="M101.682,231.077l-.856-3.12-4.968-.077-.738.208,6.385,3.22Z" transform="translate(-52.063 -124.676)" fill="#c7d4ff"/>
          <path id="Path_1287" data-name="Path 1287" d="M87.61,250.887l3.07-22.547,5.819.1.942,3.279L96.5,255.334l-3.691-3.7Z" transform="translate(-47.954 -124.928)" fill="#6989ff"/>
          <path id="Path_1288" data-name="Path 1288" d="M96.5,228.44l-3.691,23.2-5.2-.752,3.07-22.547Z" transform="translate(-47.954 -124.928)" fill="#a8bbff"/>
          <path id="Path_1289" data-name="Path 1289" d="M128.25,232.186c0,.231.186.322.417.208a.783.783,0,0,0,.417-.625c0-.231-.186-.322-.417-.208A.783.783,0,0,0,128.25,232.186Z" transform="translate(-70.19 -126.664)" fill="#5c6fb8"/>
          <path id="Path_1290" data-name="Path 1290" d="M117.49,236.476c0,.231.186.322.417.208a.783.783,0,0,0,.417-.625c0-.231-.186-.322-.417-.208A.783.783,0,0,0,117.49,236.476Z" transform="translate(-64.303 -129.011)" fill="#5c6fb8"/>
          <path id="Path_1291" data-name="Path 1291" d="M121.951,242.073a1.408,1.408,0,0,0,.725-.208c2.459-1.463.783-8.695.584-9.51a.364.364,0,1,0-.706.172c.507,2.083,1.445,7.7-.249,8.713a.675.675,0,0,1-.729,0c-1.653-.906-3.224-6.313-3.256-6.911a.367.367,0,0,0-.38-.349.362.362,0,0,0-.349.371c0,.475,1.553,6.39,3.623,7.517a1.522,1.522,0,0,0,.738.2Z" transform="translate(-64.357 -126.972)" fill="#809aff"/>
          <path id="Path_1292" data-name="Path 1292" d="M121.269,215.12l-.829,6.521,1.648-.824.566-3.351Z" transform="translate(-65.917 -117.694)" fill="#577bff"/>
          <path id="Path_1293" data-name="Path 1293" d="M169.361,240.935,164.8,208.85l-18.916,9.456L144.49,253.37Z" transform="translate(-79.076 -114.264)" fill="url(#linear-gradient-16)"/>
          <path id="Path_1294" data-name="Path 1294" d="M144.321,197.76l2.165,3.664,7.875,1.359-18.916,9.456L125.41,207.22Z" transform="translate(-68.636 -108.196)" fill="#c7d4ff"/>
          <path id="Path_1295" data-name="Path 1295" d="M154.154,203.665l-6.775-1.168-2.06-3.487L127.54,207.9l9.071,4.533Z" transform="translate(-69.801 -108.88)" fill="#829dff"/>
          <path id="Path_1296" data-name="Path 1296" d="M136.231,222.716l-1.268-4.633-7.381-.113-1.091.308,9.483,4.782Z" transform="translate(-69.227 -119.254)" fill="#c7d4ff"/>
          <path id="Path_1297" data-name="Path 1297" d="M115.34,252.134l4.56-33.484,8.64.145,1.395,4.873-1.395,35.064-5.484-5.489Z" transform="translate(-63.126 -119.626)" fill="#6989ff"/>
          <path id="Path_1298" data-name="Path 1298" d="M128.541,218.795l-5.484,34.448-7.717-1.109,4.56-33.484Z" transform="translate(-63.126 -119.626)" fill="#a8bbff"/>
          <path id="Path_1299" data-name="Path 1299" d="M175.68,224.407c0,.34.276.48.616.308a1.164,1.164,0,0,0,.616-.906c0-.34-.276-.48-.616-.308A1.164,1.164,0,0,0,175.68,224.407Z" transform="translate(-96.141 -122.24)" fill="#5c6fb8"/>
          <path id="Path_1300" data-name="Path 1300" d="M159.71,230.757c0,.34.276.48.616.308a1.164,1.164,0,0,0,.616-.906c0-.34-.276-.48-.616-.308A1.164,1.164,0,0,0,159.71,230.757Z" transform="translate(-87.403 -125.714)" fill="#5c6fb8"/>
          <path id="Path_1301" data-name="Path 1301" d="M166.352,239.063a2.092,2.092,0,0,0,1.078-.308c3.65-2.169,1.164-12.911.865-14.124a.54.54,0,1,0-1.051.254c.752,3.093,2.147,11.448-.367,12.942a1,1,0,0,1-1.078,0c-2.45-1.313-4.787-9.374-4.832-10.262a.548.548,0,0,0-.562-.516.539.539,0,0,0-.516.552c.023.706,2.31,9.487,5.38,11.167A2.264,2.264,0,0,0,166.352,239.063Z" transform="translate(-87.501 -122.671)" fill="#809aff"/>
          <path id="Path_1302" data-name="Path 1302" d="M165.317,199.01,164.09,208.7l2.45-1.227.838-4.977Z" transform="translate(-89.8 -108.88)" fill="#577bff"/>
        </g>
      </g>
    </g>
  </g>
</svg>
