<svg xmlns="http://www.w3.org/2000/svg" width="387" height="84" viewBox="0 0 387 84">
  <g id="Group_1914" data-name="Group 1914" transform="translate(-765 -1934)">
    <text id="Premium_Banking_Network" data-name="Premium Banking Network" transform="translate(994 1955)" fill="#585858" font-size="20" font-family="Poppins-Regular, Poppins"><tspan x="-130.93" y="0">Premium Banking Network</tspan></text>
    <text id="Authentication_standard_to_help_clients_avoid_fraudlent_activity" data-name="Authentication standard to help clients 
avoid fraudlent activity" transform="translate(863 1986)" fill="#707070" font-size="16" font-family="Raleway-Regular, Raleway"><tspan x="0" y="0">Authentication standard to help clients </tspan><tspan x="0" y="28">avoid fraudlent activity</tspan></text>
    <g id="Group_1540" data-name="Group 1540">
      <circle id="Ellipse_52" data-name="Ellipse 52" cx="34" cy="34" r="34" transform="translate(765 1934)" fill="rgba(46,126,250,0.24)"/>
      <g id="bank" transform="translate(765.177 1934.177)">
        <path id="Path_2007" data-name="Path 2007" d="M59.962,60.317a.574.574,0,0,0,1.148,0,2.756,2.756,0,0,0-2.177-2.69v-.652a.574.574,0,1,0-1.148,0v.652a2.75,2.75,0,0,0,0,5.381v3.156a1.6,1.6,0,0,1-1.028-1.492.574.574,0,0,0-1.148,0,2.756,2.756,0,0,0,2.177,2.69v.653a.574.574,0,1,0,1.148,0v-.656a2.75,2.75,0,0,0,0-5.379V58.826A1.6,1.6,0,0,1,59.962,60.317Zm-3.205,0a1.6,1.6,0,0,1,1.028-1.492v2.983A1.6,1.6,0,0,1,56.757,60.317Zm3.205,4.353a1.6,1.6,0,0,1-1.029,1.492V63.179a1.6,1.6,0,0,1,1.029,1.492Z" transform="translate(-24.511 -25.045)" fill="#2e7efa"/>
        <path id="Path_2008" data-name="Path 2008" d="M46.918,32.673a.574.574,0,0,0,.574-.574V30.641H48a.574.574,0,0,0,.574-.574v-3a.571.571,0,0,0-.31-.507v0L34.114,19.19a.574.574,0,0,0-.53,0l-14.15,7.369v0a.572.572,0,0,0-.309.506v3a.575.575,0,0,0,.574.574h.506V32.1a.574.574,0,0,0,.574.574H21.3v9.72h-.519a.574.574,0,0,0-.574.574v1.458H19.7a.575.575,0,0,0-.574.574v3a.575.575,0,0,0,.574.574H48A.574.574,0,0,0,48.573,48V45A.574.574,0,0,0,48,44.426h-.506V42.968a.574.574,0,0,0-.574-.574H46.4v-9.72Zm-.574-1.148h-4.1v-.884h4.1ZM41.669,42.393a.574.574,0,0,0-.574.574v1.458H26.6V42.968a.574.574,0,0,0-.574-.574h-.52v-9.72h.52A.575.575,0,0,0,26.6,32.1V30.641H41.094V32.1a.574.574,0,0,0,.574.574h.52v9.72Zm-21.4-12.9v-1.85H47.424v1.85Zm13.575-9.146,11.8,6.147H22.045ZM25.455,30.641v.886h-4.1v-.886Zm-3.008,2.034h1.914v9.719H22.447ZM21.353,43.542h4.1v.884h-4.1Zm26.071,3.882H20.273v-1.85H47.424Zm-5.181-3v-.884h4.1v.884Zm3.008-2.033H43.337v-9.72H45.25Z" fill="#2e7efa"/>
        <path id="Path_2009" data-name="Path 2009" d="M60.641,31.531A1.641,1.641,0,1,0,59,29.891,1.641,1.641,0,0,0,60.641,31.531Zm0-2.133a.492.492,0,1,1-.492.492A.492.492,0,0,1,60.641,29.4Z" transform="translate(-26.792 -6.131)" fill="#2e7efa"/>
      </g>
    </g>
  </g>
</svg>
