<svg xmlns="http://www.w3.org/2000/svg" width="380.24" height="83.568" viewBox="0 0 380.24 83.568">
  <g id="Group_1935" data-name="Group 1935" transform="translate(-765 -1934)">
    <path id="Path_2035" data-name="Path 2035" d="M-129.42-7.5v-4.54h2.52c1.78,0,2.58.84,2.58,2.28,0,1.4-.8,2.26-2.58,2.26Zm7.44-2.26c0-2.26-1.62-4.14-4.92-4.14h-4.8V0h2.28V-5.64h2.52C-123.28-5.64-121.98-7.78-121.98-9.76Zm4.46,3.96c0-2.34,1.04-3.04,2.72-3.04h.58V-11.2a3.59,3.59,0,0,0-3.3,1.78v-1.6h-2.28V0h2.28Zm10.04-3.48A2.862,2.862,0,0,1-104.4-6.5h-6.1A3,3,0,0,1-107.48-9.28Zm5.16,6h-2.46a2.668,2.668,0,0,1-2.6,1.54,3.031,3.031,0,0,1-3.14-2.92h8.42a7.034,7.034,0,0,0,.08-1.12,5.139,5.139,0,0,0-5.36-5.42c-3.26,0-5.5,2.22-5.5,5.68a5.346,5.346,0,0,0,5.5,5.7A5.035,5.035,0,0,0-102.32-3.28ZM-84.16,0h2.26V-6.5a4.306,4.306,0,0,0-4.54-4.7,4.315,4.315,0,0,0-3.84,2.18,4.251,4.251,0,0,0-3.96-2.18A4.2,4.2,0,0,0-97.5-9.76v-1.26h-2.28V0h2.28V-6.16c0-2.02,1.1-3.06,2.78-3.06,1.66,0,2.76,1.04,2.76,3.06V0h2.26V-6.16c0-2.02,1.1-3.06,2.78-3.06,1.66,0,2.76,1.04,2.76,3.06ZM-79,0h2.28V-11.02H-79Zm1.16-12.48a1.439,1.439,0,0,0,1.44-1.46,1.439,1.439,0,0,0-1.44-1.46,1.443,1.443,0,0,0-1.46,1.46A1.443,1.443,0,0,0-77.84-12.48Zm14.1,1.46h-2.28v6.14c0,2.02-1.1,3.06-2.78,3.06-1.66,0-2.76-1.04-2.76-3.06v-6.14h-2.26v6.48A4.306,4.306,0,0,0-69.28.16a4.1,4.1,0,0,0,3.26-1.48V0h2.28ZM-45.12,0h2.26V-6.5a4.306,4.306,0,0,0-4.54-4.7,4.315,4.315,0,0,0-3.84,2.18A4.251,4.251,0,0,0-55.2-11.2a4.2,4.2,0,0,0-3.26,1.44v-1.26h-2.28V0h2.28V-6.16c0-2.02,1.1-3.06,2.78-3.06,1.66,0,2.76,1.04,2.76,3.06V0h2.26V-6.16c0-2.02,1.1-3.06,2.78-3.06,1.66,0,2.76,1.04,2.76,3.06Zm18.2-3.98c0,1.34-.94,2.12-2.48,2.12h-3.08V-6.2h3C-27.96-6.2-26.92-5.36-26.92-3.98Zm-.36-6.06c0,1.28-.9,1.98-2.38,1.98h-2.82v-3.98h2.82C-28.18-12.04-27.28-11.3-27.28-10.04Zm2.64,6.3a3.457,3.457,0,0,0-2.68-3.4,3.252,3.252,0,0,0,2.36-3.18c0-1.96-1.56-3.58-4.5-3.58h-5.3V0h5.56C-26.36,0-24.64-1.62-24.64-3.74Zm1.72-1.82c0,3.4,2.3,5.74,5.16,5.74A4.743,4.743,0,0,0-13.9-1.64V0h2.3V-11.02h-2.3v1.6a4.691,4.691,0,0,0-3.82-1.78C-20.62-11.2-22.92-8.96-22.92-5.56Zm9.02.04A3.424,3.424,0,0,1-17.24-1.8a3.472,3.472,0,0,1-3.34-3.76,3.381,3.381,0,0,1,3.34-3.66A3.417,3.417,0,0,1-13.9-5.52ZM-.78,0H1.48V-6.5c0-3.08-1.94-4.7-4.52-4.7A4.239,4.239,0,0,0-6.32-9.76v-1.26H-8.6V0h2.28V-6.16c0-2.02,1.1-3.06,2.78-3.06,1.66,0,2.76,1.04,2.76,3.06ZM4.38,0H6.66V-4.74L10.74,0h3.08L8.74-5.5l5.08-5.52H10.66l-4,4.82v-8.6H4.38ZM15.46,0h2.28V-11.02H15.46Zm1.16-12.48a1.439,1.439,0,0,0,1.44-1.46,1.439,1.439,0,0,0-1.44-1.46,1.443,1.443,0,0,0-1.46,1.46A1.443,1.443,0,0,0,16.62-12.48ZM28.56,0h2.26V-6.5c0-3.08-1.94-4.7-4.52-4.7a4.239,4.239,0,0,0-3.28,1.44v-1.26H20.74V0h2.28V-6.16c0-2.02,1.1-3.06,2.78-3.06,1.66,0,2.76,1.04,2.76,3.06Zm4.4-5.56c0,3.4,2.3,5.74,5.2,5.74a4.731,4.731,0,0,0,3.82-1.84V.18A2.936,2.936,0,0,1,38.9,3.46a3.072,3.072,0,0,1-3.14-1.92H33.5c.28,2.44,2.46,3.9,5.4,3.9A5,5,0,0,0,44.28.18v-11.2h-2.3v1.6a4.668,4.668,0,0,0-3.82-1.78C35.26-11.2,32.96-8.96,32.96-5.56Zm9.02.04A3.424,3.424,0,0,1,38.64-1.8,3.472,3.472,0,0,1,35.3-5.56a3.381,3.381,0,0,1,3.34-3.66A3.417,3.417,0,0,1,41.98-5.52Zm19.64-8.4V-3.56L54.76-13.92H52.48V0h2.28V-10.38L61.62,0H63.9V-13.92Zm9.92,4.64A2.862,2.862,0,0,1,74.62-6.5h-6.1A3,3,0,0,1,71.54-9.28Zm5.16,6H74.24a2.668,2.668,0,0,1-2.6,1.54A3.031,3.031,0,0,1,68.5-4.66h8.42A7.034,7.034,0,0,0,77-5.78a5.139,5.139,0,0,0-5.36-5.42c-3.26,0-5.5,2.22-5.5,5.68a5.346,5.346,0,0,0,5.5,5.7A5.035,5.035,0,0,0,76.7-3.28Zm2.9.22C79.6-.82,80.82,0,82.78,0h1.8V-1.9h-1.4c-.96,0-1.28-.34-1.28-1.16v-6.1h2.68v-1.86H81.9v-2.74H79.6v2.74H78.3v1.86h1.3ZM88.82,0h2.4l2.22-8.14L95.66,0h2.4l3.42-11.02H99.24L96.96-2.2l-2.24-8.82H92.34L90-2.16l-2.3-8.86H85.38Zm24.86-5.52a5.435,5.435,0,0,0-5.62-5.68,5.435,5.435,0,0,0-5.62,5.68,5.373,5.373,0,0,0,5.52,5.7A5.52,5.52,0,0,0,113.68-5.52Zm-8.92,0c0-2.5,1.54-3.7,3.26-3.7,1.7,0,3.32,1.2,3.32,3.7a3.394,3.394,0,0,1-3.38,3.72C106.24-1.8,104.76-3.02,104.76-5.52Zm13.46-.28c0-2.34,1.04-3.04,2.72-3.04h.58V-11.2a3.59,3.59,0,0,0-3.3,1.78v-1.6h-2.28V0h2.28Zm5.4,5.8h2.28V-4.74L129.98,0h3.08l-5.08-5.5,5.08-5.52H129.9l-4,4.82v-8.6h-2.28Z" transform="translate(994 1955)" fill="#585858"/>
    <path id="Path_2036" data-name="Path 2036" d="M4.944-11.36h.944L10.608,0H9.424L7.952-3.552h-5.1L1.392,0H.192ZM7.7-4.432,5.408-10.048,3.088-4.432ZM14.432.16a2.346,2.346,0,0,1-2.024-.9,4.536,4.536,0,0,1-.664-2.7v-4.9h1.088v4.7Q12.832-.8,14.768-.8a2.877,2.877,0,0,0,.944-.16,2.966,2.966,0,0,0,.856-.464,3.758,3.758,0,0,0,.7-.72,3.629,3.629,0,0,0,.5-.944V-8.336h1.088v6.928q0,.448.384.448V0a1.983,1.983,0,0,1-.312.032h-.168a.869.869,0,0,1-.624-.272.965.965,0,0,1-.24-.688v-.96a3.88,3.88,0,0,1-1.48,1.512A3.946,3.946,0,0,1,14.432.16Zm10.9-.56q-.1.048-.28.128t-.424.16a4.963,4.963,0,0,1-.544.144A3.1,3.1,0,0,1,23.44.1a2.326,2.326,0,0,1-.672-.1,1.567,1.567,0,0,1-.56-.3,1.457,1.457,0,0,1-.384-.5,1.627,1.627,0,0,1-.144-.7V-7.472H20.528v-.864H21.68v-2.816h1.088v2.816h1.92v.864h-1.92v5.664a.864.864,0,0,0,.328.68,1.124,1.124,0,0,0,.68.216,2.043,2.043,0,0,0,.816-.152,3.6,3.6,0,0,0,.448-.216ZM33.7,0H32.608V-4.656a3.757,3.757,0,0,0-.488-2.128,1.631,1.631,0,0,0-1.432-.7,2.441,2.441,0,0,0-.92.184,3.406,3.406,0,0,0-.856.5,3.463,3.463,0,0,0-.7.752,3.183,3.183,0,0,0-.44.944V0H26.688V-11.68h1.088v5.232a3.779,3.779,0,0,1,1.376-1.488,3.555,3.555,0,0,1,1.9-.544,2.562,2.562,0,0,1,1.216.264,2.251,2.251,0,0,1,.816.736,3.22,3.22,0,0,1,.464,1.136A6.916,6.916,0,0,1,33.7-4.88Zm5.92.16a4.008,4.008,0,0,1-1.672-.344,4.1,4.1,0,0,1-1.32-.944,4.383,4.383,0,0,1-.872-1.384,4.5,4.5,0,0,1-.312-1.68,4.4,4.4,0,0,1,.312-1.656,4.286,4.286,0,0,1,.864-1.36,4.1,4.1,0,0,1,1.32-.928A4.024,4.024,0,0,1,39.6-8.48a4.008,4.008,0,0,1,1.672.344,3.975,3.975,0,0,1,1.3.936,4.365,4.365,0,0,1,.848,1.36,4.393,4.393,0,0,1,.3,1.632v.256a.644.644,0,0,1-.016.176H36.576a3.509,3.509,0,0,0,.312,1.24,3.408,3.408,0,0,0,.68.984A3.047,3.047,0,0,0,38.52-.9a2.849,2.849,0,0,0,1.144.232,2.955,2.955,0,0,0,.8-.112,3.234,3.234,0,0,0,.736-.3,2.737,2.737,0,0,0,.608-.472,2.027,2.027,0,0,0,.416-.616l.944.256a2.772,2.772,0,0,1-.544.84,3.8,3.8,0,0,1-.816.656,4,4,0,0,1-1.024.432A4.439,4.439,0,0,1,39.616.16Zm3.072-4.768a3.367,3.367,0,0,0-.312-1.224,3.332,3.332,0,0,0-.672-.952,2.972,2.972,0,0,0-.944-.624,2.937,2.937,0,0,0-1.144-.224,3,3,0,0,0-1.152.224,2.949,2.949,0,0,0-.952.624,3.067,3.067,0,0,0-.656.96,3.634,3.634,0,0,0-.3,1.216ZM52.416,0H51.328V-4.656a4.062,4.062,0,0,0-.44-2.16,1.5,1.5,0,0,0-1.352-.672,2.772,2.772,0,0,0-.96.176,3.236,3.236,0,0,0-.888.5,3.8,3.8,0,0,0-.728.76A2.979,2.979,0,0,0,46.5-5.1V0H45.408V-8.336H46.4v1.888A3.916,3.916,0,0,1,47.864-7.92a4.014,4.014,0,0,1,2.072-.56,2.454,2.454,0,0,1,1.168.256,1.993,1.993,0,0,1,.768.72,3.317,3.317,0,0,1,.416,1.136,7.976,7.976,0,0,1,.128,1.488Zm6.24-.4q-.1.048-.28.128t-.424.16a4.963,4.963,0,0,1-.544.144,3.1,3.1,0,0,1-.64.064A2.326,2.326,0,0,1,56.1,0a1.567,1.567,0,0,1-.56-.3,1.457,1.457,0,0,1-.384-.5,1.627,1.627,0,0,1-.144-.7V-7.472H53.856v-.864h1.152v-2.816H56.1v2.816h1.92v.864H56.1v5.664a.864.864,0,0,0,.328.68,1.124,1.124,0,0,0,.68.216,2.043,2.043,0,0,0,.816-.152,3.6,3.6,0,0,0,.448-.216Zm1.36.4V-8.336H61.1V0Zm0-10.08v-1.6H61.1v1.6Zm2.912,5.888a4.562,4.562,0,0,1,.3-1.664,4.155,4.155,0,0,1,.856-1.368,4,4,0,0,1,1.32-.92,4.186,4.186,0,0,1,1.7-.336,3.889,3.889,0,0,1,2.064.536A3.443,3.443,0,0,1,70.5-6.5L69.44-6.16a2.535,2.535,0,0,0-.984-1,2.779,2.779,0,0,0-1.4-.36,2.8,2.8,0,0,0-1.192.256,3.04,3.04,0,0,0-.96.7,3.2,3.2,0,0,0-.64,1.048,3.7,3.7,0,0,0-.232,1.328,3.667,3.667,0,0,0,.24,1.328,3.388,3.388,0,0,0,.656,1.08,3.123,3.123,0,0,0,.968.72A2.691,2.691,0,0,0,67.072-.8a2.87,2.87,0,0,0,.792-.112,3.06,3.06,0,0,0,.728-.312,2.618,2.618,0,0,0,.576-.456,1.482,1.482,0,0,0,.336-.544l1.072.32a2.727,2.727,0,0,1-.512.824,3.532,3.532,0,0,1-.792.656,3.886,3.886,0,0,1-1.008.432A4.289,4.289,0,0,1,67.12.16a4.063,4.063,0,0,1-1.68-.344,4.073,4.073,0,0,1-1.328-.944,4.383,4.383,0,0,1-.872-1.384A4.5,4.5,0,0,1,62.928-4.192ZM74.384.16a2.945,2.945,0,0,1-1.1-.2,2.766,2.766,0,0,1-.88-.552,2.5,2.5,0,0,1-.584-.824,2.491,2.491,0,0,1-.208-1.016,2.053,2.053,0,0,1,.256-1.008,2.44,2.44,0,0,1,.72-.8,3.525,3.525,0,0,1,1.1-.52A5.084,5.084,0,0,1,75.1-4.944a7.69,7.69,0,0,1,1.3.112,5.617,5.617,0,0,1,1.168.32v-.752a2.42,2.42,0,0,0-.624-1.752,2.286,2.286,0,0,0-1.728-.648,3.672,3.672,0,0,0-1.312.256,6.327,6.327,0,0,0-1.36.736l-.384-.72A5.629,5.629,0,0,1,75.3-8.48a3.365,3.365,0,0,1,2.464.88,3.253,3.253,0,0,1,.9,2.432v3.76q0,.448.4.448V0a2.594,2.594,0,0,1-.416.048.937.937,0,0,1-.648-.208.783.783,0,0,1-.248-.576l-.032-.656A3.781,3.781,0,0,1,76.264-.24,4.455,4.455,0,0,1,74.384.16Zm.256-.832a3.762,3.762,0,0,0,1.56-.32,2.548,2.548,0,0,0,1.08-.848,1,1,0,0,0,.216-.312.8.8,0,0,0,.072-.312v-1.36a6.669,6.669,0,0,0-1.128-.32,6.315,6.315,0,0,0-1.192-.112,3.316,3.316,0,0,0-1.872.48,1.459,1.459,0,0,0-.72,1.264,1.726,1.726,0,0,0,.152.72,1.824,1.824,0,0,0,.416.584,1.948,1.948,0,0,0,.632.392A2.132,2.132,0,0,0,74.64-.672Zm10.3.272q-.1.048-.28.128t-.424.16A4.964,4.964,0,0,1,83.7.032a3.1,3.1,0,0,1-.64.064,2.326,2.326,0,0,1-.672-.1,1.567,1.567,0,0,1-.56-.3,1.457,1.457,0,0,1-.384-.5,1.627,1.627,0,0,1-.144-.7V-7.472H80.144v-.864H81.3v-2.816h1.088v2.816H84.3v.864h-1.92v5.664a.864.864,0,0,0,.328.68,1.124,1.124,0,0,0,.68.216,2.043,2.043,0,0,0,.816-.152,3.6,3.6,0,0,0,.448-.216ZM86.3,0V-8.336h1.088V0Zm0-10.08v-1.6h1.088v1.6ZM93.344.16A3.953,3.953,0,0,1,91.68-.184a4.09,4.09,0,0,1-1.3-.936A4.247,4.247,0,0,1,89.52-2.5a4.518,4.518,0,0,1-.3-1.648,4.458,4.458,0,0,1,.312-1.664,4.36,4.36,0,0,1,.864-1.376,4.2,4.2,0,0,1,1.3-.944,3.839,3.839,0,0,1,1.648-.352A3.892,3.892,0,0,1,95-8.128a4.169,4.169,0,0,1,1.312.944,4.36,4.36,0,0,1,.864,1.376,4.458,4.458,0,0,1,.312,1.664,4.518,4.518,0,0,1-.3,1.648,4.247,4.247,0,0,1-.856,1.376,4.065,4.065,0,0,1-1.312.936A4.008,4.008,0,0,1,93.344.16ZM90.32-4.128a3.479,3.479,0,0,0,.24,1.3,3.539,3.539,0,0,0,.648,1.056,2.929,2.929,0,0,0,.96.712A2.761,2.761,0,0,0,93.344-.8a2.691,2.691,0,0,0,1.176-.264,3.123,3.123,0,0,0,.968-.72,3.431,3.431,0,0,0,.656-1.064,3.541,3.541,0,0,0,.24-1.312,3.56,3.56,0,0,0-.24-1.3,3.409,3.409,0,0,0-.656-1.072,3.123,3.123,0,0,0-.968-.72,2.691,2.691,0,0,0-1.176-.264,2.64,2.64,0,0,0-1.168.264,3.1,3.1,0,0,0-.96.728,3.509,3.509,0,0,0-.656,1.08A3.6,3.6,0,0,0,90.32-4.128ZM106.32,0h-1.088V-4.656a4.062,4.062,0,0,0-.44-2.16,1.5,1.5,0,0,0-1.352-.672,2.772,2.772,0,0,0-.96.176,3.236,3.236,0,0,0-.888.5,3.8,3.8,0,0,0-.728.76,2.979,2.979,0,0,0-.464.952V0H99.312V-8.336h.992v1.888a3.916,3.916,0,0,1,1.464-1.472,4.014,4.014,0,0,1,2.072-.56,2.454,2.454,0,0,1,1.168.256,1.993,1.993,0,0,1,.768.72,3.317,3.317,0,0,1,.416,1.136,7.975,7.975,0,0,1,.128,1.488Zm9.168.16a5.8,5.8,0,0,1-1.9-.32,4.576,4.576,0,0,1-1.6-.928l.5-.736a5.425,5.425,0,0,0,1.432.864,4.2,4.2,0,0,0,1.56.288,2.816,2.816,0,0,0,1.608-.408,1.32,1.32,0,0,0,.6-1.16,1,1,0,0,0-.16-.584,1.385,1.385,0,0,0-.472-.408,3.685,3.685,0,0,0-.784-.312q-.472-.136-1.1-.28-.72-.176-1.248-.352a3.817,3.817,0,0,1-.872-.4,1.443,1.443,0,0,1-.512-.552,1.8,1.8,0,0,1-.168-.824,2.371,2.371,0,0,1,.248-1.1,2.251,2.251,0,0,1,.672-.792,3.053,3.053,0,0,1,.992-.472,4.437,4.437,0,0,1,1.208-.16,4.679,4.679,0,0,1,1.744.312,3.447,3.447,0,0,1,1.264.824l-.528.64a2.927,2.927,0,0,0-1.128-.72,4.04,4.04,0,0,0-1.384-.24,3.436,3.436,0,0,0-.8.088,1.926,1.926,0,0,0-.648.28,1.38,1.38,0,0,0-.44.488,1.442,1.442,0,0,0-.16.7,1.146,1.146,0,0,0,.112.544.956.956,0,0,0,.368.36,3,3,0,0,0,.648.272q.392.12.952.248.8.192,1.408.384a4.422,4.422,0,0,1,1.016.448,1.765,1.765,0,0,1,.616.624,1.8,1.8,0,0,1,.208.9,2.173,2.173,0,0,1-.88,1.824A3.807,3.807,0,0,1,115.488.16Zm9.024-.56q-.1.048-.28.128t-.424.16a4.964,4.964,0,0,1-.544.144,3.1,3.1,0,0,1-.64.064,2.326,2.326,0,0,1-.672-.1,1.567,1.567,0,0,1-.56-.3,1.457,1.457,0,0,1-.384-.5,1.627,1.627,0,0,1-.144-.7V-7.472h-1.152v-.864h1.152v-2.816h1.088v2.816h1.92v.864h-1.92v5.664a.864.864,0,0,0,.328.68,1.124,1.124,0,0,0,.68.216,2.043,2.043,0,0,0,.816-.152,3.6,3.6,0,0,0,.448-.216Zm3.456.56a2.945,2.945,0,0,1-1.1-.2,2.766,2.766,0,0,1-.88-.552,2.5,2.5,0,0,1-.584-.824,2.491,2.491,0,0,1-.208-1.016,2.053,2.053,0,0,1,.256-1.008,2.44,2.44,0,0,1,.72-.8,3.525,3.525,0,0,1,1.1-.52,5.084,5.084,0,0,1,1.408-.184,7.69,7.69,0,0,1,1.3.112,5.617,5.617,0,0,1,1.168.32v-.752a2.42,2.42,0,0,0-.624-1.752,2.286,2.286,0,0,0-1.728-.648,3.672,3.672,0,0,0-1.312.256,6.327,6.327,0,0,0-1.36.736l-.384-.72A5.629,5.629,0,0,1,128.88-8.48a3.365,3.365,0,0,1,2.464.88,3.253,3.253,0,0,1,.9,2.432v3.76q0,.448.4.448V0a2.593,2.593,0,0,1-.416.048.937.937,0,0,1-.648-.208.783.783,0,0,1-.248-.576l-.032-.656A3.781,3.781,0,0,1,129.848-.24,4.455,4.455,0,0,1,127.968.16Zm.256-.832a3.762,3.762,0,0,0,1.56-.32,2.548,2.548,0,0,0,1.08-.848,1,1,0,0,0,.216-.312.8.8,0,0,0,.072-.312v-1.36a6.669,6.669,0,0,0-1.128-.32,6.315,6.315,0,0,0-1.192-.112,3.316,3.316,0,0,0-1.872.48,1.459,1.459,0,0,0-.72,1.264,1.726,1.726,0,0,0,.152.72,1.824,1.824,0,0,0,.416.584,1.948,1.948,0,0,0,.632.392A2.132,2.132,0,0,0,128.224-.672ZM141.6,0h-1.088V-4.656a4.062,4.062,0,0,0-.44-2.16,1.5,1.5,0,0,0-1.352-.672,2.772,2.772,0,0,0-.96.176,3.237,3.237,0,0,0-.888.5,3.8,3.8,0,0,0-.728.76,2.979,2.979,0,0,0-.464.952V0h-1.088V-8.336h.992v1.888a3.916,3.916,0,0,1,1.464-1.472,4.014,4.014,0,0,1,2.072-.56,2.454,2.454,0,0,1,1.168.256,1.993,1.993,0,0,1,.768.72,3.317,3.317,0,0,1,.416,1.136A7.977,7.977,0,0,1,141.6-4.88Zm5.744.16a3.592,3.592,0,0,1-1.6-.36,4.071,4.071,0,0,1-1.264-.952,4.378,4.378,0,0,1-.824-1.368,4.518,4.518,0,0,1-.3-1.624,4.854,4.854,0,0,1,.288-1.672A4.467,4.467,0,0,1,144.44-7.2a3.731,3.731,0,0,1,1.2-.936,3.4,3.4,0,0,1,1.528-.344,3.262,3.262,0,0,1,1.872.552,4.178,4.178,0,0,1,1.28,1.336V-11.68h1.088V-1.408q0,.448.384.448V0a2.065,2.065,0,0,1-.384.048,1,1,0,0,1-.672-.248.765.765,0,0,1-.288-.6v-.816A3.646,3.646,0,0,1,149.1-.32,3.526,3.526,0,0,1,147.344.16Zm.24-.96a2.592,2.592,0,0,0,.856-.16,3.517,3.517,0,0,0,.856-.44,2.947,2.947,0,0,0,.68-.656,1.775,1.775,0,0,0,.344-.808V-5.44a2.86,2.86,0,0,0-.464-.808,3.734,3.734,0,0,0-.7-.664,3.271,3.271,0,0,0-.84-.448,2.606,2.606,0,0,0-.88-.16,2.558,2.558,0,0,0-1.216.288,3.076,3.076,0,0,0-.936.76,3.391,3.391,0,0,0-.6,1.08,3.83,3.83,0,0,0-.208,1.248,3.454,3.454,0,0,0,.24,1.28,3.431,3.431,0,0,0,.656,1.064,3.173,3.173,0,0,0,.984.728A2.8,2.8,0,0,0,147.584-.8Zm8.384.96a2.945,2.945,0,0,1-1.1-.2,2.766,2.766,0,0,1-.88-.552,2.5,2.5,0,0,1-.584-.824,2.491,2.491,0,0,1-.208-1.016,2.053,2.053,0,0,1,.256-1.008,2.44,2.44,0,0,1,.72-.8,3.525,3.525,0,0,1,1.1-.52,5.084,5.084,0,0,1,1.408-.184,7.69,7.69,0,0,1,1.3.112,5.617,5.617,0,0,1,1.168.32v-.752a2.42,2.42,0,0,0-.624-1.752,2.286,2.286,0,0,0-1.728-.648,3.672,3.672,0,0,0-1.312.256,6.327,6.327,0,0,0-1.36.736l-.384-.72A5.629,5.629,0,0,1,156.88-8.48a3.365,3.365,0,0,1,2.464.88,3.253,3.253,0,0,1,.9,2.432v3.76q0,.448.4.448V0a2.594,2.594,0,0,1-.416.048.937.937,0,0,1-.648-.208.782.782,0,0,1-.248-.576l-.032-.656A3.781,3.781,0,0,1,157.848-.24,4.455,4.455,0,0,1,155.968.16Zm.256-.832a3.762,3.762,0,0,0,1.56-.32,2.548,2.548,0,0,0,1.08-.848,1,1,0,0,0,.216-.312.8.8,0,0,0,.072-.312v-1.36a6.669,6.669,0,0,0-1.128-.32,6.315,6.315,0,0,0-1.192-.112,3.316,3.316,0,0,0-1.872.48,1.459,1.459,0,0,0-.72,1.264,1.726,1.726,0,0,0,.152.72,1.824,1.824,0,0,0,.416.584,1.948,1.948,0,0,0,.632.392A2.132,2.132,0,0,0,156.224-.672Zm10.528-6.7a3.422,3.422,0,0,0-1.92.608,3.066,3.066,0,0,0-1.152,1.584V0h-1.088V-8.336h1.024v2a3.792,3.792,0,0,1,1.248-1.5,2.893,2.893,0,0,1,1.68-.544,1.1,1.1,0,0,1,.208.016ZM171.216.16a3.592,3.592,0,0,1-1.6-.36,4.071,4.071,0,0,1-1.264-.952,4.378,4.378,0,0,1-.824-1.368,4.518,4.518,0,0,1-.3-1.624,4.854,4.854,0,0,1,.288-1.672,4.467,4.467,0,0,1,.792-1.384,3.731,3.731,0,0,1,1.2-.936,3.4,3.4,0,0,1,1.528-.344,3.262,3.262,0,0,1,1.872.552,4.178,4.178,0,0,1,1.28,1.336V-11.68h1.088V-1.408q0,.448.384.448V0a2.065,2.065,0,0,1-.384.048,1,1,0,0,1-.672-.248.765.765,0,0,1-.288-.6v-.816a3.646,3.646,0,0,1-1.344,1.3A3.526,3.526,0,0,1,171.216.16Zm.24-.96a2.592,2.592,0,0,0,.856-.16,3.517,3.517,0,0,0,.856-.44,2.947,2.947,0,0,0,.68-.656,1.775,1.775,0,0,0,.344-.808V-5.44a2.86,2.86,0,0,0-.464-.808,3.734,3.734,0,0,0-.7-.664,3.271,3.271,0,0,0-.84-.448,2.606,2.606,0,0,0-.88-.16,2.558,2.558,0,0,0-1.216.288,3.076,3.076,0,0,0-.936.76,3.391,3.391,0,0,0-.6,1.08,3.83,3.83,0,0,0-.208,1.248,3.454,3.454,0,0,0,.24,1.28,3.431,3.431,0,0,0,.656,1.064,3.173,3.173,0,0,0,.984.728A2.8,2.8,0,0,0,171.456-.8Zm14.368.4q-.1.048-.28.128t-.424.16a4.963,4.963,0,0,1-.544.144,3.1,3.1,0,0,1-.64.064,2.326,2.326,0,0,1-.672-.1,1.567,1.567,0,0,1-.56-.3,1.457,1.457,0,0,1-.384-.5,1.627,1.627,0,0,1-.144-.7V-7.472h-1.152v-.864h1.152v-2.816h1.088v2.816h1.92v.864h-1.92v5.664a.864.864,0,0,0,.328.68,1.124,1.124,0,0,0,.68.216,2.043,2.043,0,0,0,.816-.152,3.6,3.6,0,0,0,.448-.216Zm4.7.56a3.953,3.953,0,0,1-1.664-.344,4.09,4.09,0,0,1-1.3-.936A4.247,4.247,0,0,1,186.7-2.5a4.518,4.518,0,0,1-.3-1.648,4.458,4.458,0,0,1,.312-1.664,4.36,4.36,0,0,1,.864-1.376,4.2,4.2,0,0,1,1.3-.944,3.839,3.839,0,0,1,1.648-.352,3.892,3.892,0,0,1,1.656.352,4.169,4.169,0,0,1,1.312.944,4.36,4.36,0,0,1,.864,1.376,4.459,4.459,0,0,1,.312,1.664,4.518,4.518,0,0,1-.3,1.648,4.247,4.247,0,0,1-.856,1.376,4.065,4.065,0,0,1-1.312.936A4.008,4.008,0,0,1,190.528.16ZM187.5-4.128a3.479,3.479,0,0,0,.24,1.3,3.539,3.539,0,0,0,.648,1.056,2.929,2.929,0,0,0,.96.712,2.761,2.761,0,0,0,1.176.256,2.691,2.691,0,0,0,1.176-.264,3.123,3.123,0,0,0,.968-.72,3.431,3.431,0,0,0,.656-1.064,3.542,3.542,0,0,0,.24-1.312,3.561,3.561,0,0,0-.24-1.3,3.409,3.409,0,0,0-.656-1.072,3.123,3.123,0,0,0-.968-.72,2.691,2.691,0,0,0-1.176-.264,2.64,2.64,0,0,0-1.168.264,3.1,3.1,0,0,0-.96.728,3.509,3.509,0,0,0-.656,1.08A3.6,3.6,0,0,0,187.5-4.128ZM207.584,0H206.5V-4.656a3.757,3.757,0,0,0-.488-2.128,1.631,1.631,0,0,0-1.432-.7,2.441,2.441,0,0,0-.92.184,3.406,3.406,0,0,0-.856.5,3.464,3.464,0,0,0-.7.752,3.183,3.183,0,0,0-.44.944V0h-1.088V-11.68h1.088v5.232a3.779,3.779,0,0,1,1.376-1.488,3.555,3.555,0,0,1,1.9-.544,2.562,2.562,0,0,1,1.216.264,2.251,2.251,0,0,1,.816.736,3.219,3.219,0,0,1,.464,1.136,6.916,6.916,0,0,1,.144,1.464Zm5.92.16a4.008,4.008,0,0,1-1.672-.344,4.1,4.1,0,0,1-1.32-.944,4.383,4.383,0,0,1-.872-1.384,4.5,4.5,0,0,1-.312-1.68,4.4,4.4,0,0,1,.312-1.656,4.286,4.286,0,0,1,.864-1.36,4.1,4.1,0,0,1,1.32-.928,4.024,4.024,0,0,1,1.664-.344,4.008,4.008,0,0,1,1.672.344,3.975,3.975,0,0,1,1.3.936,4.365,4.365,0,0,1,.848,1.36,4.393,4.393,0,0,1,.3,1.632v.256a.644.644,0,0,1-.016.176h-7.136a3.509,3.509,0,0,0,.312,1.24,3.408,3.408,0,0,0,.68.984,3.047,3.047,0,0,0,.952.648,2.849,2.849,0,0,0,1.144.232,2.955,2.955,0,0,0,.8-.112,3.234,3.234,0,0,0,.736-.3,2.737,2.737,0,0,0,.608-.472,2.027,2.027,0,0,0,.416-.616l.944.256a2.772,2.772,0,0,1-.544.84,3.8,3.8,0,0,1-.816.656,4,4,0,0,1-1.024.432A4.439,4.439,0,0,1,213.5.16Zm3.072-4.768a3.366,3.366,0,0,0-.312-1.224,3.332,3.332,0,0,0-.672-.952,2.972,2.972,0,0,0-.944-.624,2.937,2.937,0,0,0-1.144-.224,3,3,0,0,0-1.152.224,2.949,2.949,0,0,0-.952.624,3.067,3.067,0,0,0-.656.96,3.634,3.634,0,0,0-.3,1.216Zm2.768-7.072h1.088v9.792a1,1,0,0,0,.256.728.956.956,0,0,0,.72.264,2.163,2.163,0,0,0,.416-.048,2.747,2.747,0,0,0,.448-.128l.192.88a3.591,3.591,0,0,1-.744.208,4.336,4.336,0,0,1-.76.08,1.617,1.617,0,0,1-1.184-.424,1.594,1.594,0,0,1-.432-1.192ZM227.9.16a3.294,3.294,0,0,1-1.864-.536,4.263,4.263,0,0,1-1.3-1.352V3.408h-1.088V-8.336h.976V-6.72a4.04,4.04,0,0,1,1.328-1.272,3.4,3.4,0,0,1,1.776-.488,3.492,3.492,0,0,1,1.584.36,4.072,4.072,0,0,1,1.248.96,4.456,4.456,0,0,1,.824,1.384,4.539,4.539,0,0,1,.3,1.616,5.041,5.041,0,0,1-.272,1.664,4.246,4.246,0,0,1-.776,1.376,3.732,3.732,0,0,1-1.2.936A3.4,3.4,0,0,1,227.9.16Zm-.3-.96a2.606,2.606,0,0,0,1.224-.288,3.044,3.044,0,0,0,.944-.76,3.41,3.41,0,0,0,.6-1.072,3.759,3.759,0,0,0,.208-1.24,3.454,3.454,0,0,0-.24-1.28,3.533,3.533,0,0,0-.656-1.072,3.115,3.115,0,0,0-.984-.736,2.8,2.8,0,0,0-1.224-.272,2.521,2.521,0,0,0-.872.168,3.583,3.583,0,0,0-.848.448,3.019,3.019,0,0,0-.672.656,1.767,1.767,0,0,0-.344.792V-2.9a3.825,3.825,0,0,0,.488.832,3.444,3.444,0,0,0,.672.664,3.219,3.219,0,0,0,.808.44A2.56,2.56,0,0,0,227.6-.8Zm9.424-3.392a4.562,4.562,0,0,1,.3-1.664,4.155,4.155,0,0,1,.856-1.368,4,4,0,0,1,1.32-.92,4.186,4.186,0,0,1,1.7-.336,3.889,3.889,0,0,1,2.064.536A3.443,3.443,0,0,1,244.592-6.5l-1.056.336a2.535,2.535,0,0,0-.984-1,2.779,2.779,0,0,0-1.4-.36,2.8,2.8,0,0,0-1.192.256,3.04,3.04,0,0,0-.96.7,3.2,3.2,0,0,0-.64,1.048,3.7,3.7,0,0,0-.232,1.328,3.667,3.667,0,0,0,.24,1.328,3.388,3.388,0,0,0,.656,1.08,3.123,3.123,0,0,0,.968.72,2.691,2.691,0,0,0,1.176.264,2.87,2.87,0,0,0,.792-.112,3.059,3.059,0,0,0,.728-.312,2.619,2.619,0,0,0,.576-.456,1.482,1.482,0,0,0,.336-.544l1.072.32a2.727,2.727,0,0,1-.512.824,3.532,3.532,0,0,1-.792.656,3.886,3.886,0,0,1-1.008.432,4.289,4.289,0,0,1-1.144.152,4.063,4.063,0,0,1-1.68-.344,4.073,4.073,0,0,1-1.328-.944,4.383,4.383,0,0,1-.872-1.384A4.5,4.5,0,0,1,237.024-4.192Zm9.408-7.488h1.088v9.792a1,1,0,0,0,.256.728.956.956,0,0,0,.72.264,2.163,2.163,0,0,0,.416-.048,2.747,2.747,0,0,0,.448-.128l.192.88a3.591,3.591,0,0,1-.744.208,4.336,4.336,0,0,1-.76.08,1.617,1.617,0,0,1-1.184-.424,1.594,1.594,0,0,1-.432-1.192ZM250.736,0V-8.336h1.088V0Zm0-10.08v-1.6h1.088v1.6ZM257.824.16a4.008,4.008,0,0,1-1.672-.344,4.1,4.1,0,0,1-1.32-.944,4.383,4.383,0,0,1-.872-1.384,4.5,4.5,0,0,1-.312-1.68,4.4,4.4,0,0,1,.312-1.656,4.286,4.286,0,0,1,.864-1.36,4.1,4.1,0,0,1,1.32-.928,4.024,4.024,0,0,1,1.664-.344,4.008,4.008,0,0,1,1.672.344,3.975,3.975,0,0,1,1.3.936,4.365,4.365,0,0,1,.848,1.36,4.393,4.393,0,0,1,.3,1.632v.256a.645.645,0,0,1-.016.176h-7.136a3.509,3.509,0,0,0,.312,1.24,3.408,3.408,0,0,0,.68.984,3.047,3.047,0,0,0,.952.648,2.849,2.849,0,0,0,1.144.232,2.955,2.955,0,0,0,.8-.112,3.234,3.234,0,0,0,.736-.3,2.737,2.737,0,0,0,.608-.472,2.026,2.026,0,0,0,.416-.616l.944.256a2.772,2.772,0,0,1-.544.84,3.8,3.8,0,0,1-.816.656,4,4,0,0,1-1.024.432A4.439,4.439,0,0,1,257.824.16ZM260.9-4.608a3.367,3.367,0,0,0-.312-1.224,3.332,3.332,0,0,0-.672-.952,2.972,2.972,0,0,0-.944-.624,2.937,2.937,0,0,0-1.144-.224,3,3,0,0,0-1.152.224,2.949,2.949,0,0,0-.952.624,3.067,3.067,0,0,0-.656.96,3.634,3.634,0,0,0-.3,1.216ZM270.624,0h-1.088V-4.656a4.062,4.062,0,0,0-.44-2.16,1.5,1.5,0,0,0-1.352-.672,2.772,2.772,0,0,0-.96.176,3.236,3.236,0,0,0-.888.5,3.8,3.8,0,0,0-.728.76,2.979,2.979,0,0,0-.464.952V0h-1.088V-8.336h.992v1.888a3.916,3.916,0,0,1,1.464-1.472,4.014,4.014,0,0,1,2.072-.56,2.454,2.454,0,0,1,1.168.256,1.993,1.993,0,0,1,.768.72,3.317,3.317,0,0,1,.416,1.136,7.973,7.973,0,0,1,.128,1.488Zm6.24-.4q-.1.048-.28.128t-.424.16a4.963,4.963,0,0,1-.544.144,3.1,3.1,0,0,1-.64.064A2.326,2.326,0,0,1,274.3,0a1.567,1.567,0,0,1-.56-.3,1.457,1.457,0,0,1-.384-.5,1.627,1.627,0,0,1-.144-.7V-7.472h-1.152v-.864h1.152v-2.816H274.3v2.816h1.92v.864H274.3v5.664a.864.864,0,0,0,.328.68,1.124,1.124,0,0,0,.68.216,2.043,2.043,0,0,0,.816-.152,3.6,3.6,0,0,0,.448-.216Zm4.128.56a5.8,5.8,0,0,1-1.9-.32,4.576,4.576,0,0,1-1.6-.928l.5-.736a5.425,5.425,0,0,0,1.432.864,4.2,4.2,0,0,0,1.56.288,2.816,2.816,0,0,0,1.608-.408,1.32,1.32,0,0,0,.6-1.16,1,1,0,0,0-.16-.584,1.385,1.385,0,0,0-.472-.408,3.685,3.685,0,0,0-.784-.312q-.472-.136-1.1-.28-.72-.176-1.248-.352a3.817,3.817,0,0,1-.872-.4,1.443,1.443,0,0,1-.512-.552,1.8,1.8,0,0,1-.168-.824,2.371,2.371,0,0,1,.248-1.1,2.251,2.251,0,0,1,.672-.792,3.052,3.052,0,0,1,.992-.472,4.436,4.436,0,0,1,1.208-.16,4.679,4.679,0,0,1,1.744.312A3.447,3.447,0,0,1,284-7.344l-.528.64a2.927,2.927,0,0,0-1.128-.72,4.04,4.04,0,0,0-1.384-.24,3.436,3.436,0,0,0-.8.088,1.926,1.926,0,0,0-.648.28,1.379,1.379,0,0,0-.44.488,1.442,1.442,0,0,0-.16.7,1.146,1.146,0,0,0,.112.544.956.956,0,0,0,.368.36,3,3,0,0,0,.648.272q.392.12.952.248.8.192,1.408.384a4.422,4.422,0,0,1,1.016.448,1.765,1.765,0,0,1,.616.624,1.8,1.8,0,0,1,.208.9,2.173,2.173,0,0,1-.88,1.824A3.807,3.807,0,0,1,280.992.16ZM3.3,28.16a2.945,2.945,0,0,1-1.1-.2,2.766,2.766,0,0,1-.88-.552,2.486,2.486,0,0,1-.792-1.84A2.053,2.053,0,0,1,.784,24.56a2.44,2.44,0,0,1,.72-.8,3.525,3.525,0,0,1,1.1-.52,5.083,5.083,0,0,1,1.408-.184,7.69,7.69,0,0,1,1.3.112,5.617,5.617,0,0,1,1.168.32v-.752a2.42,2.42,0,0,0-.624-1.752,2.286,2.286,0,0,0-1.728-.648,3.672,3.672,0,0,0-1.312.256,6.327,6.327,0,0,0-1.36.736l-.384-.72A5.629,5.629,0,0,1,4.208,19.52a3.365,3.365,0,0,1,2.464.88,3.253,3.253,0,0,1,.9,2.432v3.76q0,.448.4.448V28a2.594,2.594,0,0,1-.416.048A.937.937,0,0,1,6.9,27.84a.783.783,0,0,1-.248-.576l-.032-.656A3.781,3.781,0,0,1,5.176,27.76,4.455,4.455,0,0,1,3.3,28.16Zm.256-.832a3.762,3.762,0,0,0,1.56-.32,2.548,2.548,0,0,0,1.08-.848,1,1,0,0,0,.216-.312.8.8,0,0,0,.072-.312v-1.36a6.669,6.669,0,0,0-1.128-.32,6.314,6.314,0,0,0-1.192-.112,3.316,3.316,0,0,0-1.872.48,1.459,1.459,0,0,0-.72,1.264,1.726,1.726,0,0,0,.152.72,1.824,1.824,0,0,0,.416.584,1.948,1.948,0,0,0,.632.392A2.132,2.132,0,0,0,3.552,27.328Zm8.64.672L8.8,19.664H9.92l2.864,7.328,2.88-7.328H16.72L13.328,28Zm9.3.16a3.953,3.953,0,0,1-1.664-.344,4.09,4.09,0,0,1-1.3-.936,4.247,4.247,0,0,1-.856-1.376,4.518,4.518,0,0,1-.3-1.648,4.458,4.458,0,0,1,.312-1.664,4.36,4.36,0,0,1,.864-1.376,4.2,4.2,0,0,1,1.3-.944,3.839,3.839,0,0,1,1.648-.352,3.892,3.892,0,0,1,1.656.352,4.169,4.169,0,0,1,1.312.944,4.36,4.36,0,0,1,.864,1.376,4.458,4.458,0,0,1,.312,1.664,4.518,4.518,0,0,1-.3,1.648,4.247,4.247,0,0,1-.856,1.376,4.065,4.065,0,0,1-1.312.936A4.008,4.008,0,0,1,21.488,28.16Zm-3.024-4.288a3.479,3.479,0,0,0,.24,1.3,3.539,3.539,0,0,0,.648,1.056,2.929,2.929,0,0,0,.96.712,2.761,2.761,0,0,0,1.176.256,2.691,2.691,0,0,0,1.176-.264,3.123,3.123,0,0,0,.968-.72,3.431,3.431,0,0,0,.656-1.064,3.684,3.684,0,0,0,0-2.616,3.408,3.408,0,0,0-.656-1.072,3.123,3.123,0,0,0-.968-.72,2.691,2.691,0,0,0-1.176-.264,2.64,2.64,0,0,0-1.168.264,3.1,3.1,0,0,0-.96.728,3.509,3.509,0,0,0-.656,1.08A3.6,3.6,0,0,0,18.464,23.872ZM27.456,28V19.664h1.088V28Zm0-10.08v-1.6h1.088v1.6Zm6.912,10.24a3.592,3.592,0,0,1-1.6-.36,4.071,4.071,0,0,1-1.264-.952,4.378,4.378,0,0,1-.824-1.368,4.518,4.518,0,0,1-.3-1.624,4.854,4.854,0,0,1,.288-1.672,4.467,4.467,0,0,1,.792-1.384,3.732,3.732,0,0,1,1.2-.936,3.4,3.4,0,0,1,1.528-.344,3.262,3.262,0,0,1,1.872.552,4.178,4.178,0,0,1,1.28,1.336V16.32h1.088V26.592q0,.448.384.448V28a2.065,2.065,0,0,1-.384.048,1,1,0,0,1-.672-.248.765.765,0,0,1-.288-.6v-.816a3.646,3.646,0,0,1-1.344,1.3A3.526,3.526,0,0,1,34.368,28.16Zm.24-.96a2.592,2.592,0,0,0,.856-.16,3.517,3.517,0,0,0,.856-.44,2.948,2.948,0,0,0,.68-.656,1.774,1.774,0,0,0,.344-.808V22.56a2.86,2.86,0,0,0-.464-.808,3.734,3.734,0,0,0-.7-.664,3.271,3.271,0,0,0-.84-.448,2.606,2.606,0,0,0-.88-.16,2.558,2.558,0,0,0-1.216.288,3.075,3.075,0,0,0-.936.76,3.392,3.392,0,0,0-.6,1.08,3.83,3.83,0,0,0-.208,1.248,3.5,3.5,0,0,0,.9,2.344,3.173,3.173,0,0,0,.984.728A2.8,2.8,0,0,0,34.608,27.2Zm10.768.8V20.528H44.224v-.864h1.152V19.44a3.926,3.926,0,0,1,.656-2.408,2.122,2.122,0,0,1,1.792-.872,3.22,3.22,0,0,1,.96.144,2.787,2.787,0,0,1,.8.384l-.336.784A1.62,1.62,0,0,0,48.7,17.2a2.352,2.352,0,0,0-.664-.1,1.321,1.321,0,0,0-1.168.592,3.054,3.054,0,0,0-.4,1.712v.256h2.3v.864h-2.3V28Zm9.04-7.376a3.422,3.422,0,0,0-1.92.608,3.066,3.066,0,0,0-1.152,1.584V28H50.256V19.664H51.28v2a3.792,3.792,0,0,1,1.248-1.5,2.893,2.893,0,0,1,1.68-.544,1.1,1.1,0,0,1,.208.016Zm3.44,7.536a2.945,2.945,0,0,1-1.1-.2,2.766,2.766,0,0,1-.88-.552,2.486,2.486,0,0,1-.792-1.84,2.053,2.053,0,0,1,.256-1.008,2.44,2.44,0,0,1,.72-.8,3.525,3.525,0,0,1,1.1-.52,5.083,5.083,0,0,1,1.408-.184,7.69,7.69,0,0,1,1.3.112,5.617,5.617,0,0,1,1.168.32v-.752a2.42,2.42,0,0,0-.624-1.752,2.286,2.286,0,0,0-1.728-.648,3.672,3.672,0,0,0-1.312.256,6.327,6.327,0,0,0-1.36.736l-.384-.72a5.629,5.629,0,0,1,3.136-1.088,3.365,3.365,0,0,1,2.464.88,3.253,3.253,0,0,1,.9,2.432v3.76q0,.448.4.448V28a2.594,2.594,0,0,1-.416.048.937.937,0,0,1-.648-.208.783.783,0,0,1-.248-.576l-.032-.656a3.781,3.781,0,0,1-1.448,1.152A4.455,4.455,0,0,1,57.856,28.16Zm.256-.832a3.762,3.762,0,0,0,1.56-.32,2.548,2.548,0,0,0,1.08-.848,1,1,0,0,0,.216-.312.8.8,0,0,0,.072-.312v-1.36a6.669,6.669,0,0,0-1.128-.32,6.315,6.315,0,0,0-1.192-.112,3.316,3.316,0,0,0-1.872.48,1.459,1.459,0,0,0-.72,1.264,1.726,1.726,0,0,0,.152.72,1.824,1.824,0,0,0,.416.584,1.948,1.948,0,0,0,.632.392A2.132,2.132,0,0,0,58.112,27.328Zm8.976.832a2.346,2.346,0,0,1-2.024-.9,4.536,4.536,0,0,1-.664-2.7v-4.9h1.088v4.7q0,2.832,1.936,2.832a2.877,2.877,0,0,0,.944-.16,2.966,2.966,0,0,0,.856-.464,3.758,3.758,0,0,0,.7-.72,3.628,3.628,0,0,0,.5-.944V19.664H71.52v6.928q0,.448.384.448V28a1.983,1.983,0,0,1-.312.032h-.168a.869.869,0,0,1-.624-.272.965.965,0,0,1-.24-.688v-.96a3.88,3.88,0,0,1-1.48,1.512A3.946,3.946,0,0,1,67.088,28.16Zm10.32,0a3.592,3.592,0,0,1-1.6-.36,4.071,4.071,0,0,1-1.264-.952,4.378,4.378,0,0,1-.824-1.368,4.518,4.518,0,0,1-.3-1.624,4.854,4.854,0,0,1,.288-1.672A4.467,4.467,0,0,1,74.5,20.8a3.732,3.732,0,0,1,1.2-.936,3.4,3.4,0,0,1,1.528-.344,3.262,3.262,0,0,1,1.872.552,4.178,4.178,0,0,1,1.28,1.336V16.32h1.088V26.592q0,.448.384.448V28a2.065,2.065,0,0,1-.384.048A1,1,0,0,1,80.8,27.8a.765.765,0,0,1-.288-.6v-.816a3.646,3.646,0,0,1-1.344,1.3A3.526,3.526,0,0,1,77.408,28.16Zm.24-.96a2.592,2.592,0,0,0,.856-.16,3.517,3.517,0,0,0,.856-.44,2.948,2.948,0,0,0,.68-.656,1.774,1.774,0,0,0,.344-.808V22.56a2.86,2.86,0,0,0-.464-.808,3.734,3.734,0,0,0-.7-.664,3.271,3.271,0,0,0-.84-.448,2.606,2.606,0,0,0-.88-.16,2.558,2.558,0,0,0-1.216.288,3.075,3.075,0,0,0-.936.76,3.392,3.392,0,0,0-.6,1.08,3.83,3.83,0,0,0-.208,1.248,3.5,3.5,0,0,0,.9,2.344,3.173,3.173,0,0,0,.984.728A2.8,2.8,0,0,0,77.648,27.2Zm6.336-10.88h1.088v9.792a1,1,0,0,0,.256.728.956.956,0,0,0,.72.264,2.163,2.163,0,0,0,.416-.048,2.747,2.747,0,0,0,.448-.128l.192.88a3.591,3.591,0,0,1-.744.208,4.336,4.336,0,0,1-.76.08,1.617,1.617,0,0,1-1.184-.424,1.594,1.594,0,0,1-.432-1.192Zm7.9,11.84a4.008,4.008,0,0,1-1.672-.344,4.1,4.1,0,0,1-1.32-.944,4.384,4.384,0,0,1-.872-1.384,4.5,4.5,0,0,1-.312-1.68,4.4,4.4,0,0,1,.312-1.656,4.286,4.286,0,0,1,.864-1.36,4.1,4.1,0,0,1,1.32-.928,4.216,4.216,0,0,1,3.336,0,3.975,3.975,0,0,1,1.3.936A4.395,4.395,0,0,1,96,23.792v.256a.644.644,0,0,1-.016.176H88.848a3.509,3.509,0,0,0,.312,1.24,3.408,3.408,0,0,0,.68.984,3.047,3.047,0,0,0,.952.648,2.849,2.849,0,0,0,1.144.232,2.955,2.955,0,0,0,.8-.112,3.234,3.234,0,0,0,.736-.3,2.737,2.737,0,0,0,.608-.472,2.027,2.027,0,0,0,.416-.616l.944.256a2.772,2.772,0,0,1-.544.84,3.8,3.8,0,0,1-.816.656,4,4,0,0,1-1.024.432A4.439,4.439,0,0,1,91.888,28.16Zm3.072-4.768a3.367,3.367,0,0,0-.312-1.224,3.332,3.332,0,0,0-.672-.952,2.972,2.972,0,0,0-.944-.624,2.937,2.937,0,0,0-1.144-.224,3,3,0,0,0-1.152.224,2.949,2.949,0,0,0-.952.624,3.067,3.067,0,0,0-.656.96,3.634,3.634,0,0,0-.3,1.216ZM104.688,28H103.6V23.344a4.062,4.062,0,0,0-.44-2.16,1.5,1.5,0,0,0-1.352-.672,2.772,2.772,0,0,0-.96.176,3.236,3.236,0,0,0-.888.5,3.8,3.8,0,0,0-.728.76,2.979,2.979,0,0,0-.464.952V28H97.68V19.664h.992v1.888a3.916,3.916,0,0,1,1.464-1.472,4.014,4.014,0,0,1,2.072-.56,2.454,2.454,0,0,1,1.168.256,1.993,1.993,0,0,1,.768.72,3.317,3.317,0,0,1,.416,1.136,7.975,7.975,0,0,1,.128,1.488Zm6.24-.4q-.1.048-.28.128t-.424.16a4.963,4.963,0,0,1-.544.144,3.1,3.1,0,0,1-.64.064,2.326,2.326,0,0,1-.672-.1,1.567,1.567,0,0,1-.56-.3,1.457,1.457,0,0,1-.384-.5,1.627,1.627,0,0,1-.144-.7V20.528h-1.152v-.864h1.152V16.848h1.088v2.816h1.92v.864h-1.92v5.664a.864.864,0,0,0,.328.68,1.124,1.124,0,0,0,.68.216,2.043,2.043,0,0,0,.816-.152,3.6,3.6,0,0,0,.448-.216Zm7.536.56a2.945,2.945,0,0,1-1.1-.2,2.766,2.766,0,0,1-.88-.552,2.486,2.486,0,0,1-.792-1.84,2.053,2.053,0,0,1,.256-1.008,2.44,2.44,0,0,1,.72-.8,3.525,3.525,0,0,1,1.1-.52,5.083,5.083,0,0,1,1.408-.184,7.69,7.69,0,0,1,1.3.112,5.617,5.617,0,0,1,1.168.32v-.752a2.42,2.42,0,0,0-.624-1.752,2.286,2.286,0,0,0-1.728-.648,3.672,3.672,0,0,0-1.312.256,6.327,6.327,0,0,0-1.36.736l-.384-.72a5.629,5.629,0,0,1,3.136-1.088,3.365,3.365,0,0,1,2.464.88,3.253,3.253,0,0,1,.9,2.432v3.76q0,.448.4.448V28a2.594,2.594,0,0,1-.416.048.937.937,0,0,1-.648-.208.783.783,0,0,1-.248-.576l-.032-.656a3.781,3.781,0,0,1-1.448,1.152A4.455,4.455,0,0,1,118.464,28.16Zm.256-.832a3.762,3.762,0,0,0,1.56-.32,2.548,2.548,0,0,0,1.08-.848,1,1,0,0,0,.216-.312.8.8,0,0,0,.072-.312v-1.36a6.669,6.669,0,0,0-1.128-.32,6.314,6.314,0,0,0-1.192-.112,3.316,3.316,0,0,0-1.872.48,1.459,1.459,0,0,0-.72,1.264,1.726,1.726,0,0,0,.152.72,1.824,1.824,0,0,0,.416.584,1.948,1.948,0,0,0,.632.392A2.132,2.132,0,0,0,118.72,27.328Zm5.792-3.52a4.562,4.562,0,0,1,.3-1.664,4.155,4.155,0,0,1,.856-1.368,4,4,0,0,1,1.32-.92,4.186,4.186,0,0,1,1.7-.336,3.889,3.889,0,0,1,2.064.536A3.443,3.443,0,0,1,132.08,21.5l-1.056.336a2.535,2.535,0,0,0-.984-1,2.9,2.9,0,0,0-2.592-.1,3.04,3.04,0,0,0-.96.7,3.2,3.2,0,0,0-.64,1.048,3.854,3.854,0,0,0,.008,2.656,3.388,3.388,0,0,0,.656,1.08,3.123,3.123,0,0,0,.968.72,2.691,2.691,0,0,0,1.176.264,2.87,2.87,0,0,0,.792-.112,3.059,3.059,0,0,0,.728-.312,2.619,2.619,0,0,0,.576-.456,1.483,1.483,0,0,0,.336-.544l1.072.32a2.727,2.727,0,0,1-.512.824,3.532,3.532,0,0,1-.792.656,3.886,3.886,0,0,1-1.008.432,4.289,4.289,0,0,1-1.144.152,4.049,4.049,0,0,1-3.008-1.288,4.384,4.384,0,0,1-.872-1.384A4.5,4.5,0,0,1,124.512,23.808Zm13.36,3.792q-.1.048-.28.128t-.424.16a4.963,4.963,0,0,1-.544.144,3.1,3.1,0,0,1-.64.064,2.326,2.326,0,0,1-.672-.1,1.567,1.567,0,0,1-.56-.3,1.457,1.457,0,0,1-.384-.5,1.627,1.627,0,0,1-.144-.7V20.528h-1.152v-.864h1.152V16.848h1.088v2.816h1.92v.864h-1.92v5.664a.864.864,0,0,0,.328.68,1.124,1.124,0,0,0,.68.216,2.043,2.043,0,0,0,.816-.152,3.6,3.6,0,0,0,.448-.216Zm1.36.4V19.664h1.088V28Zm0-10.08v-1.6h1.088v1.6ZM145.216,28l-3.392-8.336h1.12l2.864,7.328,2.88-7.328h1.056L146.352,28Zm6.032,0V19.664h1.088V28Zm0-10.08v-1.6h1.088v1.6Zm7.488,9.68q-.1.048-.28.128t-.424.16a4.963,4.963,0,0,1-.544.144,3.1,3.1,0,0,1-.64.064,2.326,2.326,0,0,1-.672-.1,1.567,1.567,0,0,1-.56-.3,1.457,1.457,0,0,1-.384-.5,1.627,1.627,0,0,1-.144-.7V20.528h-1.152v-.864h1.152V16.848h1.088v2.816h1.92v.864h-1.92v5.664a.864.864,0,0,0,.328.68,1.124,1.124,0,0,0,.68.216,2.043,2.043,0,0,0,.816-.152,3.6,3.6,0,0,0,.448-.216Zm1.84,2.96q.128.016.248.024t.232.008a1.076,1.076,0,0,0,.456-.08.848.848,0,0,0,.328-.352,5.732,5.732,0,0,0,.36-.784q.2-.512.568-1.376l-3.632-8.336h1.12l3.088,7.328,2.864-7.328h1.04l-4.32,10.752a1.955,1.955,0,0,1-.584.808,1.671,1.671,0,0,1-1.112.344q-.16,0-.3-.008t-.352-.04Z" transform="translate(861 1986)" fill="#707070"/>
    <g id="Group_1540" data-name="Group 1540">
      <circle id="Ellipse_52" data-name="Ellipse 52" cx="34" cy="34" r="34" transform="translate(765 1934)" fill="rgba(46,126,250,0.24)"/>
      <g id="bank" transform="translate(765.177 1934.177)">
        <path id="Path_2007" data-name="Path 2007" d="M59.962,60.317a.574.574,0,0,0,1.148,0,2.756,2.756,0,0,0-2.177-2.69v-.652a.574.574,0,1,0-1.148,0v.652a2.75,2.75,0,0,0,0,5.381v3.156a1.6,1.6,0,0,1-1.028-1.492.574.574,0,0,0-1.148,0,2.756,2.756,0,0,0,2.177,2.69v.653a.574.574,0,1,0,1.148,0v-.656a2.75,2.75,0,0,0,0-5.379V58.826A1.6,1.6,0,0,1,59.962,60.317Zm-3.205,0a1.6,1.6,0,0,1,1.028-1.492v2.983A1.6,1.6,0,0,1,56.757,60.317Zm3.205,4.353a1.6,1.6,0,0,1-1.029,1.492V63.179a1.6,1.6,0,0,1,1.029,1.492Z" transform="translate(-24.511 -25.045)" fill="#2e7efa"/>
        <path id="Path_2008" data-name="Path 2008" d="M46.918,32.673a.574.574,0,0,0,.574-.574V30.641H48a.574.574,0,0,0,.574-.574v-3a.571.571,0,0,0-.31-.507v0L34.114,19.19a.574.574,0,0,0-.53,0l-14.15,7.369v0a.572.572,0,0,0-.309.506v3a.575.575,0,0,0,.574.574h.506V32.1a.574.574,0,0,0,.574.574H21.3v9.72h-.519a.574.574,0,0,0-.574.574v1.458H19.7a.575.575,0,0,0-.574.574v3a.575.575,0,0,0,.574.574H48A.574.574,0,0,0,48.573,48V45A.574.574,0,0,0,48,44.426h-.506V42.968a.574.574,0,0,0-.574-.574H46.4v-9.72Zm-.574-1.148h-4.1v-.884h4.1ZM41.669,42.393a.574.574,0,0,0-.574.574v1.458H26.6V42.968a.574.574,0,0,0-.574-.574h-.52v-9.72h.52A.575.575,0,0,0,26.6,32.1V30.641H41.094V32.1a.574.574,0,0,0,.574.574h.52v9.72Zm-21.4-12.9v-1.85H47.424v1.85Zm13.575-9.146,11.8,6.147H22.045ZM25.455,30.641v.886h-4.1v-.886Zm-3.008,2.034h1.914v9.719H22.447ZM21.353,43.542h4.1v.884h-4.1Zm26.071,3.882H20.273v-1.85H47.424Zm-5.181-3v-.884h4.1v.884Zm3.008-2.033H43.337v-9.72H45.25Z" fill="#2e7efa"/>
        <path id="Path_2009" data-name="Path 2009" d="M60.641,31.531A1.641,1.641,0,1,0,59,29.891,1.641,1.641,0,0,0,60.641,31.531Zm0-2.133a.492.492,0,1,1-.492.492A.492.492,0,0,1,60.641,29.4Z" transform="translate(-26.792 -6.131)" fill="#2e7efa"/>
      </g>
    </g>
  </g>
</svg>
