<svg xmlns="http://www.w3.org/2000/svg" xmlns:xlink="http://www.w3.org/1999/xlink" width="413" height="420" viewBox="0 0 413 420">
  <defs>
    <linearGradient id="linear-gradient" x1="-0.052" y1="-0.037" x2="2.191" y2="2.461" gradientUnits="objectBoundingBox">
      <stop offset="0" stop-color="#53f"/>
      <stop offset="0.477" stop-color="#05d5ff"/>
      <stop offset="1" stop-color="#a6ffcb"/>
    </linearGradient>
    <filter id="Rectangle_2857" x="0" y="0" width="413" height="420" filterUnits="userSpaceOnUse">
      <feOffset dy="12" input="SourceAlpha"/>
      <feGaussianBlur stdDeviation="15" result="blur"/>
      <feFlood flood-opacity="0.161"/>
      <feComposite operator="in" in2="blur"/>
      <feComposite in="SourceGraphic"/>
    </filter>
  </defs>
  <g id="Group_1620" data-name="Group 1620" transform="translate(-657 -3354)">
    <g transform="matrix(1, 0, 0, 1, 657, 3354)" filter="url(#Rectangle_2857)">
      <rect id="Rectangle_2857-2" data-name="Rectangle 2857" width="323" height="330" rx="16" transform="translate(45 33)" opacity="0.8" fill="url(#linear-gradient)"/>
    </g>
    <path id="Path_2611" data-name="Path 2611" d="M18.88,15.08a4.985,4.985,0,0,1-2.216-.488,5.521,5.521,0,0,1-1.72-1.3,5.855,5.855,0,0,1-1.112-1.848A5.988,5.988,0,0,1,13.44,9.32a5.805,5.805,0,0,1,.416-2.176A6.041,6.041,0,0,1,15,5.3a5.464,5.464,0,0,1,1.728-1.272,5.051,5.051,0,0,1,2.184-.472,4.853,4.853,0,0,1,2.216.5,5.577,5.577,0,0,1,1.712,1.32,6.058,6.058,0,0,1,1.1,1.848,5.925,5.925,0,0,1-.016,4.28,5.746,5.746,0,0,1-1.144,1.832,5.62,5.62,0,0,1-1.736,1.264A5.014,5.014,0,0,1,18.88,15.08ZM15.264,9.32a4.783,4.783,0,0,0,.256,1.552,4.218,4.218,0,0,0,.728,1.328,3.558,3.558,0,0,0,1.144.92,3.252,3.252,0,0,0,1.5.344,3.155,3.155,0,0,0,1.528-.36,3.6,3.6,0,0,0,1.128-.952,4.29,4.29,0,0,0,.7-1.328,4.822,4.822,0,0,0,.24-1.5,4.761,4.761,0,0,0-.256-1.56,4.138,4.138,0,0,0-.728-1.312,3.635,3.635,0,0,0-1.136-.912,3.169,3.169,0,0,0-1.48-.344,3.2,3.2,0,0,0-1.536.36,3.661,3.661,0,0,0-1.136.936,4.2,4.2,0,0,0-.712,1.32A4.752,4.752,0,0,0,15.264,9.32Zm13.28,5.84A2.369,2.369,0,0,1,26.56,14.3a4.083,4.083,0,0,1-.672-2.552V6.632h1.76V11.4q0,2.256,1.6,2.256a2.464,2.464,0,0,0,1.424-.464,2.974,2.974,0,0,0,1.04-1.344V6.632h1.76V12.92a.694.694,0,0,0,.1.432.5.5,0,0,0,.376.144V15q-.272.048-.448.064t-.336.016a1.28,1.28,0,0,1-.816-.264.872.872,0,0,1-.352-.68l-.032-.832a3.734,3.734,0,0,1-1.456,1.384A4.157,4.157,0,0,1,28.544,15.16ZM40.416,8.152a3.937,3.937,0,0,0-1.816.472A2.487,2.487,0,0,0,37.472,9.88V15h-1.76V6.632h1.632V8.5A3.827,3.827,0,0,1,38.472,7.12a2.736,2.736,0,0,1,1.5-.568h.264a.945.945,0,0,1,.184.016Zm9.5,6.416a8.822,8.822,0,0,1-.928.36,3.923,3.923,0,0,1-1.264.2,2.679,2.679,0,0,1-.784-.112,1.921,1.921,0,0,1-.648-.336,1.526,1.526,0,0,1-.44-.584,2.14,2.14,0,0,1-.16-.872V7.992h-1.1V6.632h1.1V3.88h1.76V6.632H49.28v1.36H47.456v4.672a.869.869,0,0,0,.28.648.95.95,0,0,0,.616.2,1.961,1.961,0,0,0,.7-.128q.336-.128.5-.208Zm4.8.592a4.451,4.451,0,0,1-1.776-.344,4.133,4.133,0,0,1-1.368-.936A4.22,4.22,0,0,1,50.7,12.5a4.458,4.458,0,0,1-.312-1.664A4.52,4.52,0,0,1,50.7,9.168a4.291,4.291,0,0,1,.88-1.392,4.075,4.075,0,0,1,1.368-.944,4.493,4.493,0,0,1,1.792-.344A4.307,4.307,0,0,1,56.5,6.84a4.227,4.227,0,0,1,1.352.936,4,4,0,0,1,.856,1.36,4.518,4.518,0,0,1,.3,1.624q0,.192-.016.36t-.032.28h-6.7a2.865,2.865,0,0,0,.264,1.008,2.653,2.653,0,0,0,.56.776,2.459,2.459,0,0,0,1.7.68,2.8,2.8,0,0,0,.7-.088,2.454,2.454,0,0,0,.632-.256,2.24,2.24,0,0,0,.512-.408,1.9,1.9,0,0,0,.352-.528l1.5.432a3.487,3.487,0,0,1-1.432,1.544A4.437,4.437,0,0,1,54.72,15.16Zm2.544-4.976A2.814,2.814,0,0,0,57,9.208a2.513,2.513,0,0,0-.552-.76,2.463,2.463,0,0,0-.784-.488,2.558,2.558,0,0,0-.944-.176,2.5,2.5,0,0,0-1.712.664,2.406,2.406,0,0,0-.544.76,2.929,2.929,0,0,0-.256.976Zm5.408,4.976a3.116,3.116,0,0,1-1.128-.2,2.727,2.727,0,0,1-.9-.552,2.574,2.574,0,0,1-.592-.832,2.5,2.5,0,0,1-.216-1.04,2.242,2.242,0,0,1,.256-1.072,2.505,2.505,0,0,1,.728-.832,3.534,3.534,0,0,1,1.12-.544A5.028,5.028,0,0,1,63.376,9.9a6.56,6.56,0,0,1,1.168.1,5.882,5.882,0,0,1,1.04.28V9.7a1.94,1.94,0,0,0-.528-1.448,2.076,2.076,0,0,0-1.52-.52,3.665,3.665,0,0,0-1.32.248A6.678,6.678,0,0,0,60.88,8.7l-.544-1.12A5.933,5.933,0,0,1,63.7,6.488a3.832,3.832,0,0,1,2.688.88,3.257,3.257,0,0,1,.96,2.528V12.92q0,.56.464.576V15q-.256.048-.44.064t-.36.016a1.132,1.132,0,0,1-.792-.256,1.1,1.1,0,0,1-.344-.656l-.048-.528a3.731,3.731,0,0,1-1.384,1.128A4.063,4.063,0,0,1,62.672,15.16Zm.48-1.3a3.164,3.164,0,0,0,1.208-.232,2.083,2.083,0,0,0,.888-.648.812.812,0,0,0,.336-.608v-1.1A5.32,5.32,0,0,0,64.632,11a5.253,5.253,0,0,0-.984-.1,2.691,2.691,0,0,0-1.544.408,1.25,1.25,0,0,0-.6,1.08,1.363,1.363,0,0,0,.464,1.048A1.687,1.687,0,0,0,63.152,13.864ZM82.272,15h-1.76V10.312A3.01,3.01,0,0,0,80.128,8.6a1.285,1.285,0,0,0-1.12-.544,2,2,0,0,0-1.368.552,3.107,3.107,0,0,0-.888,1.432V15h-1.76V10.312a3,3,0,0,0-.384-1.72,1.275,1.275,0,0,0-1.1-.536,2.047,2.047,0,0,0-1.376.544,3.025,3.025,0,0,0-.9,1.424V15h-1.76V6.632h1.6v1.68a3.536,3.536,0,0,1,1.3-1.352,3.6,3.6,0,0,1,1.848-.472,2.238,2.238,0,0,1,2.384,1.9,3.831,3.831,0,0,1,1.328-1.416,3.432,3.432,0,0,1,1.824-.488,2.431,2.431,0,0,1,1.224.28,2.164,2.164,0,0,1,.776.744,3.068,3.068,0,0,1,.4,1.08,7.284,7.284,0,0,1,.112,1.3Zm9.744.16a4.348,4.348,0,0,1-1.784-.352,4.1,4.1,0,0,1-2.216-2.328,4.662,4.662,0,0,1,0-3.312,4.1,4.1,0,0,1,.872-1.384,4.258,4.258,0,0,1,1.36-.944,4.616,4.616,0,0,1,3.536,0,4.258,4.258,0,0,1,1.36.944,4.1,4.1,0,0,1,.872,1.384,4.662,4.662,0,0,1,0,3.312,4.1,4.1,0,0,1-.872,1.384,4.258,4.258,0,0,1-1.36.944A4.307,4.307,0,0,1,92.016,15.16Zm-2.5-4.32a3.166,3.166,0,0,0,.192,1.12,2.784,2.784,0,0,0,.528.888,2.469,2.469,0,0,0,.792.592,2.349,2.349,0,0,0,1.968,0,2.418,2.418,0,0,0,.792-.6,2.883,2.883,0,0,0,.528-.9,3.339,3.339,0,0,0,0-2.232,2.863,2.863,0,0,0-.528-.9,2.418,2.418,0,0,0-.792-.6,2.269,2.269,0,0,0-.984-.216,2.167,2.167,0,0,0-.968.224,2.517,2.517,0,0,0-.792.608,2.986,2.986,0,0,0-.536.9A3.071,3.071,0,0,0,89.52,10.84ZM98.24,15V8.2H97.12V6.84h1.12V6.5a3.8,3.8,0,0,1,.72-2.448,2.372,2.372,0,0,1,1.952-.9,3.8,3.8,0,0,1,1.008.136,4.528,4.528,0,0,1,.944.376l-.384,1.312a2.427,2.427,0,0,0-.568-.24,2.247,2.247,0,0,0-.632-.1,1.093,1.093,0,0,0-.952.464A2.315,2.315,0,0,0,100,6.456V6.84h2.144V8.2H100V15Zm12.624.16a4.451,4.451,0,0,1-1.776-.344,4.133,4.133,0,0,1-1.368-.936,4.22,4.22,0,0,1-.88-1.376,4.458,4.458,0,0,1-.312-1.664,4.52,4.52,0,0,1,.312-1.672,4.291,4.291,0,0,1,.88-1.392,4.075,4.075,0,0,1,1.368-.944,4.493,4.493,0,0,1,1.792-.344,4.307,4.307,0,0,1,1.768.352A4.227,4.227,0,0,1,114,7.776a4,4,0,0,1,.856,1.36,4.518,4.518,0,0,1,.3,1.624q0,.192-.016.36t-.032.28h-6.7a2.865,2.865,0,0,0,.264,1.008,2.653,2.653,0,0,0,.56.776,2.459,2.459,0,0,0,1.7.68,2.8,2.8,0,0,0,.7-.088,2.454,2.454,0,0,0,.632-.256,2.24,2.24,0,0,0,.512-.408,1.9,1.9,0,0,0,.352-.528l1.5.432a3.487,3.487,0,0,1-1.432,1.544A4.437,4.437,0,0,1,110.864,15.16Zm2.544-4.976a2.814,2.814,0,0,0-.264-.976,2.513,2.513,0,0,0-.552-.76,2.463,2.463,0,0,0-.784-.488,2.558,2.558,0,0,0-.944-.176,2.5,2.5,0,0,0-1.712.664,2.406,2.406,0,0,0-.544.76,2.929,2.929,0,0,0-.256.976Zm3.808-3.552L119.264,9.5l.144.272.144-.272,2.032-2.864h1.84l-3.056,4.192L123.456,15h-1.84l-2.064-2.848-.144-.256-.144.256L117.2,15h-1.84l3.088-4.176-3.056-4.192Zm12.176,8.528a3.28,3.28,0,0,1-1.776-.48,3.583,3.583,0,0,1-1.216-1.248v4.976h-1.76V6.632h1.552v1.5a3.655,3.655,0,0,1,1.24-1.2,3.323,3.323,0,0,1,1.72-.448,3.557,3.557,0,0,1,1.584.352,4.023,4.023,0,0,1,1.248.944,4.357,4.357,0,0,1,.824,1.376,4.627,4.627,0,0,1,.3,1.648,5.212,5.212,0,0,1-.272,1.7,4.215,4.215,0,0,1-.768,1.376,3.749,3.749,0,0,1-1.176.928A3.266,3.266,0,0,1,129.392,15.16Zm-.576-1.5a2.148,2.148,0,0,0,1.016-.24,2.525,2.525,0,0,0,.784-.64,2.923,2.923,0,0,0,.5-.912,3.226,3.226,0,0,0,.176-1.056,2.963,2.963,0,0,0-.2-1.088,2.922,2.922,0,0,0-.544-.9,2.529,2.529,0,0,0-.824-.608,2.429,2.429,0,0,0-1.04-.224,2.142,2.142,0,0,0-.7.128,2.8,2.8,0,0,0-.688.352,2.737,2.737,0,0,0-.56.52,1.753,1.753,0,0,0-.336.648v2.192a3.24,3.24,0,0,0,.416.72,3.062,3.062,0,0,0,.568.576,2.758,2.758,0,0,0,.68.384A2.047,2.047,0,0,0,128.816,13.656Zm9.664,1.5a4.451,4.451,0,0,1-1.776-.344,4.134,4.134,0,0,1-1.368-.936,4.22,4.22,0,0,1-.88-1.376,4.458,4.458,0,0,1-.312-1.664,4.52,4.52,0,0,1,.312-1.672,4.291,4.291,0,0,1,.88-1.392,4.075,4.075,0,0,1,1.368-.944,4.493,4.493,0,0,1,1.792-.344,4.307,4.307,0,0,1,1.768.352,4.227,4.227,0,0,1,1.352.936,4,4,0,0,1,.856,1.36,4.518,4.518,0,0,1,.3,1.624q0,.192-.016.36t-.032.28h-6.7a2.865,2.865,0,0,0,.264,1.008,2.653,2.653,0,0,0,.56.776,2.459,2.459,0,0,0,1.7.68,2.8,2.8,0,0,0,.7-.088,2.454,2.454,0,0,0,.632-.256,2.24,2.24,0,0,0,.512-.408,1.9,1.9,0,0,0,.352-.528l1.5.432a3.487,3.487,0,0,1-1.432,1.544A4.437,4.437,0,0,1,138.48,15.16Zm2.544-4.976a2.814,2.814,0,0,0-.264-.976,2.513,2.513,0,0,0-.552-.76,2.463,2.463,0,0,0-.784-.488,2.558,2.558,0,0,0-.944-.176,2.5,2.5,0,0,0-1.712.664,2.406,2.406,0,0,0-.544.76,2.929,2.929,0,0,0-.256.976Zm7.888-2.032a3.937,3.937,0,0,0-1.816.472,2.487,2.487,0,0,0-1.128,1.256V15h-1.76V6.632h1.632V8.5a3.827,3.827,0,0,1,1.128-1.384,2.736,2.736,0,0,1,1.5-.568h.264a.945.945,0,0,1,.184.016Zm5.936,6.416a8.822,8.822,0,0,1-.928.36,3.923,3.923,0,0,1-1.264.2,2.679,2.679,0,0,1-.784-.112,1.921,1.921,0,0,1-.648-.336,1.526,1.526,0,0,1-.44-.584,2.14,2.14,0,0,1-.16-.872V7.992h-1.1V6.632h1.1V3.88h1.76V6.632h1.824v1.36h-1.824v4.672a.869.869,0,0,0,.28.648.95.95,0,0,0,.616.2,1.961,1.961,0,0,0,.7-.128q.336-.128.5-.208Zm4.256.592a6.409,6.409,0,0,1-2.008-.328,5.092,5.092,0,0,1-1.72-.936l.7-1.12a6.5,6.5,0,0,0,1.488.824,4.2,4.2,0,0,0,1.5.28,2.21,2.21,0,0,0,1.24-.3.978.978,0,0,0,.456-.864.8.8,0,0,0-.512-.768,10.246,10.246,0,0,0-1.6-.528q-.784-.208-1.344-.4a3.459,3.459,0,0,1-.912-.448,1.573,1.573,0,0,1-.512-.592,1.887,1.887,0,0,1-.16-.816,2.507,2.507,0,0,1,.248-1.136,2.438,2.438,0,0,1,.688-.84,3.082,3.082,0,0,1,1.032-.52,4.473,4.473,0,0,1,1.28-.176,5.251,5.251,0,0,1,1.76.288,4.58,4.58,0,0,1,1.456.832l-.752,1.056a3.923,3.923,0,0,0-2.48-.928,2.119,2.119,0,0,0-1.128.28.965.965,0,0,0-.456.888.892.892,0,0,0,.1.432.815.815,0,0,0,.312.3,2.57,2.57,0,0,0,.56.232q.344.1.856.232.848.208,1.464.416a4.008,4.008,0,0,1,1.016.488,1.81,1.81,0,0,1,.592.656,1.967,1.967,0,0,1,.192.9,2.264,2.264,0,0,1-.9,1.9A3.929,3.929,0,0,1,159.1,15.16Zm11.072,0a3.116,3.116,0,0,1-1.128-.2,2.727,2.727,0,0,1-.9-.552,2.574,2.574,0,0,1-.592-.832,2.5,2.5,0,0,1-.216-1.04,2.242,2.242,0,0,1,.256-1.072,2.506,2.506,0,0,1,.728-.832,3.534,3.534,0,0,1,1.12-.544A5.028,5.028,0,0,1,170.88,9.9a6.561,6.561,0,0,1,1.168.1,5.883,5.883,0,0,1,1.04.28V9.7a1.94,1.94,0,0,0-.528-1.448,2.076,2.076,0,0,0-1.52-.52,3.665,3.665,0,0,0-1.32.248,6.678,6.678,0,0,0-1.336.712l-.544-1.12a5.933,5.933,0,0,1,3.36-1.088,3.832,3.832,0,0,1,2.688.88,3.257,3.257,0,0,1,.96,2.528V12.92q0,.56.464.576V15q-.256.048-.44.064t-.36.016a1.132,1.132,0,0,1-.792-.256,1.1,1.1,0,0,1-.344-.656l-.048-.528a3.732,3.732,0,0,1-1.384,1.128A4.063,4.063,0,0,1,170.176,15.16Zm.48-1.3a3.164,3.164,0,0,0,1.208-.232,2.083,2.083,0,0,0,.888-.648.812.812,0,0,0,.336-.608v-1.1a5.32,5.32,0,0,0-.952-.272,5.253,5.253,0,0,0-.984-.1,2.691,2.691,0,0,0-1.544.408,1.25,1.25,0,0,0-.6,1.08,1.363,1.363,0,0,0,.464,1.048A1.687,1.687,0,0,0,170.656,13.864ZM181.68,8.152a3.937,3.937,0,0,0-1.816.472,2.487,2.487,0,0,0-1.128,1.256V15h-1.76V6.632h1.632V8.5a3.827,3.827,0,0,1,1.128-1.384,2.736,2.736,0,0,1,1.5-.568h.264a.945.945,0,0,1,.184.016Zm4.656,7.008a4.451,4.451,0,0,1-1.776-.344,4.134,4.134,0,0,1-1.368-.936,4.22,4.22,0,0,1-.88-1.376A4.458,4.458,0,0,1,182,10.84a4.52,4.52,0,0,1,.312-1.672,4.291,4.291,0,0,1,.88-1.392,4.075,4.075,0,0,1,1.368-.944,4.493,4.493,0,0,1,1.792-.344,4.307,4.307,0,0,1,1.768.352,4.227,4.227,0,0,1,1.352.936,4,4,0,0,1,.856,1.36,4.518,4.518,0,0,1,.3,1.624q0,.192-.016.36t-.032.28h-6.7a2.865,2.865,0,0,0,.264,1.008,2.653,2.653,0,0,0,.56.776,2.459,2.459,0,0,0,1.7.68,2.8,2.8,0,0,0,.7-.088,2.454,2.454,0,0,0,.632-.256,2.24,2.24,0,0,0,.512-.408,1.9,1.9,0,0,0,.352-.528l1.5.432a3.487,3.487,0,0,1-1.432,1.544A4.437,4.437,0,0,1,186.336,15.16Zm2.544-4.976a2.814,2.814,0,0,0-.264-.976,2.513,2.513,0,0,0-.552-.76,2.463,2.463,0,0,0-.784-.488,2.558,2.558,0,0,0-.944-.176,2.5,2.5,0,0,0-1.712.664,2.406,2.406,0,0,0-.544.76,2.929,2.929,0,0,0-.256.976ZM203.52,15h-1.76V10.312a2.875,2.875,0,0,0-.408-1.7,1.373,1.373,0,0,0-1.176-.552,2.007,2.007,0,0,0-.736.144,2.645,2.645,0,0,0-.7.408,3.1,3.1,0,0,0-.584.624,2.661,2.661,0,0,0-.384.792V15h-1.76V3.32h1.76V8.312a3.473,3.473,0,0,1,1.3-1.344,3.513,3.513,0,0,1,1.8-.48,2.633,2.633,0,0,1,1.288.28,2.261,2.261,0,0,1,.808.744,2.993,2.993,0,0,1,.424,1.08,6.812,6.812,0,0,1,.12,1.3Zm5.84.16a4.451,4.451,0,0,1-1.776-.344,4.134,4.134,0,0,1-1.368-.936,4.22,4.22,0,0,1-.88-1.376,4.458,4.458,0,0,1-.312-1.664,4.52,4.52,0,0,1,.312-1.672,4.291,4.291,0,0,1,.88-1.392,4.075,4.075,0,0,1,1.368-.944,4.493,4.493,0,0,1,1.792-.344,4.307,4.307,0,0,1,1.768.352,4.227,4.227,0,0,1,1.352.936,4,4,0,0,1,.856,1.36,4.518,4.518,0,0,1,.3,1.624q0,.192-.016.36t-.032.28h-6.7a2.865,2.865,0,0,0,.264,1.008,2.653,2.653,0,0,0,.56.776,2.459,2.459,0,0,0,1.7.68,2.8,2.8,0,0,0,.7-.088,2.454,2.454,0,0,0,.632-.256,2.24,2.24,0,0,0,.512-.408,1.9,1.9,0,0,0,.352-.528l1.5.432a3.487,3.487,0,0,1-1.432,1.544A4.437,4.437,0,0,1,209.36,15.16Zm2.544-4.976a2.814,2.814,0,0,0-.264-.976,2.513,2.513,0,0,0-.552-.76,2.463,2.463,0,0,0-.784-.488,2.558,2.558,0,0,0-.944-.176,2.5,2.5,0,0,0-1.712.664,2.406,2.406,0,0,0-.544.76,2.929,2.929,0,0,0-.256.976Zm7.888-2.032a3.937,3.937,0,0,0-1.816.472,2.487,2.487,0,0,0-1.128,1.256V15h-1.76V6.632h1.632V8.5a3.827,3.827,0,0,1,1.128-1.384,2.736,2.736,0,0,1,1.5-.568h.264a.945.945,0,0,1,.184.016Zm4.656,7.008a4.451,4.451,0,0,1-1.776-.344,4.134,4.134,0,0,1-1.368-.936,4.22,4.22,0,0,1-.88-1.376,4.458,4.458,0,0,1-.312-1.664,4.52,4.52,0,0,1,.312-1.672,4.291,4.291,0,0,1,.88-1.392,4.075,4.075,0,0,1,1.368-.944,4.493,4.493,0,0,1,1.792-.344,4.307,4.307,0,0,1,1.768.352,4.227,4.227,0,0,1,1.352.936,4,4,0,0,1,.856,1.36,4.518,4.518,0,0,1,.3,1.624q0,.192-.016.36t-.032.28h-6.7a2.865,2.865,0,0,0,.264,1.008,2.653,2.653,0,0,0,.56.776,2.459,2.459,0,0,0,1.7.68,2.8,2.8,0,0,0,.7-.088,2.454,2.454,0,0,0,.632-.256,2.24,2.24,0,0,0,.512-.408,1.9,1.9,0,0,0,.352-.528l1.5.432a3.487,3.487,0,0,1-1.432,1.544A4.437,4.437,0,0,1,224.448,15.16Zm2.544-4.976a2.814,2.814,0,0,0-.264-.976,2.513,2.513,0,0,0-.552-.76,2.463,2.463,0,0,0-.784-.488,2.558,2.558,0,0,0-.944-.176,2.5,2.5,0,0,0-1.712.664,2.406,2.406,0,0,0-.544.76,2.929,2.929,0,0,0-.256.976ZM22.84,39V32.2H21.72V30.84h1.12V30.5a3.8,3.8,0,0,1,.72-2.448,2.372,2.372,0,0,1,1.952-.9,3.8,3.8,0,0,1,1.008.136,4.528,4.528,0,0,1,.944.376l-.384,1.312a2.427,2.427,0,0,0-.568-.24,2.247,2.247,0,0,0-.632-.1,1.093,1.093,0,0,0-.952.464,2.315,2.315,0,0,0-.328,1.344v.384h2.144V32.2H24.6V39Zm8.56.16a4.348,4.348,0,0,1-1.784-.352A4.1,4.1,0,0,1,27.4,36.48a4.662,4.662,0,0,1,0-3.312,4.1,4.1,0,0,1,.872-1.384,4.258,4.258,0,0,1,1.36-.944,4.616,4.616,0,0,1,3.536,0,4.258,4.258,0,0,1,1.36.944,4.1,4.1,0,0,1,.872,1.384,4.662,4.662,0,0,1,0,3.312,4.1,4.1,0,0,1-.872,1.384,4.258,4.258,0,0,1-1.36.944A4.307,4.307,0,0,1,31.4,39.16Zm-2.5-4.32a3.166,3.166,0,0,0,.192,1.12,2.784,2.784,0,0,0,.528.888,2.469,2.469,0,0,0,.792.592,2.349,2.349,0,0,0,1.968,0,2.418,2.418,0,0,0,.792-.6,2.883,2.883,0,0,0,.528-.9,3.339,3.339,0,0,0,0-2.232,2.863,2.863,0,0,0-.528-.9,2.418,2.418,0,0,0-.792-.6,2.269,2.269,0,0,0-.984-.216,2.167,2.167,0,0,0-.968.224,2.518,2.518,0,0,0-.792.608,2.985,2.985,0,0,0-.536.9A3.071,3.071,0,0,0,28.9,34.84Zm13.072-2.688a3.936,3.936,0,0,0-1.816.472,2.487,2.487,0,0,0-1.128,1.256V39h-1.76V30.632H38.9V32.5a3.827,3.827,0,0,1,1.128-1.384,2.736,2.736,0,0,1,1.5-.568h.264a.945.945,0,0,1,.184.016Zm4.688,8.816q.24.048.472.08a2.876,2.876,0,0,0,.376.032.706.706,0,0,0,.36-.088,1.073,1.073,0,0,0,.312-.312,3.229,3.229,0,0,0,.328-.632Q48.68,39.64,48.9,39l-3.44-8.368h1.808l2.592,6.816,2.3-6.816h1.664l-3.792,10.3a2.607,2.607,0,0,1-.888,1.208,2.581,2.581,0,0,1-1.624.488,3.492,3.492,0,0,1-.4-.024,2.557,2.557,0,0,1-.464-.1ZM58.6,39.16a4.348,4.348,0,0,1-1.784-.352A4.1,4.1,0,0,1,54.6,36.48a4.662,4.662,0,0,1,0-3.312,4.1,4.1,0,0,1,.872-1.384,4.258,4.258,0,0,1,1.36-.944,4.616,4.616,0,0,1,3.536,0,4.258,4.258,0,0,1,1.36.944,4.1,4.1,0,0,1,.872,1.384,4.662,4.662,0,0,1,0,3.312,4.1,4.1,0,0,1-.872,1.384,4.258,4.258,0,0,1-1.36.944A4.307,4.307,0,0,1,58.6,39.16Zm-2.5-4.32a3.166,3.166,0,0,0,.192,1.12,2.784,2.784,0,0,0,.528.888,2.469,2.469,0,0,0,.792.592,2.349,2.349,0,0,0,1.968,0,2.418,2.418,0,0,0,.792-.6,2.883,2.883,0,0,0,.528-.9,3.339,3.339,0,0,0,0-2.232,2.863,2.863,0,0,0-.528-.9,2.418,2.418,0,0,0-.792-.6,2.269,2.269,0,0,0-.984-.216,2.167,2.167,0,0,0-.968.224,2.517,2.517,0,0,0-.792.608,2.985,2.985,0,0,0-.536.9A3.071,3.071,0,0,0,56.1,34.84Zm10.944,4.32a2.369,2.369,0,0,1-1.984-.856,4.083,4.083,0,0,1-.672-2.552v-5.12h1.76V35.4q0,2.256,1.6,2.256a2.464,2.464,0,0,0,1.424-.464,2.974,2.974,0,0,0,1.04-1.344V30.632h1.76V36.92a.694.694,0,0,0,.1.432.5.5,0,0,0,.376.144V39q-.272.048-.448.064t-.336.016a1.28,1.28,0,0,1-.816-.264.872.872,0,0,1-.352-.68l-.032-.832a3.734,3.734,0,0,1-1.456,1.384A4.157,4.157,0,0,1,67.048,39.16Zm7.28,1.392.384-1.648h-.576V36.952H75.72V38.9l-.56,1.648ZM91.7,30.632h1.68L89.864,39H88.408l-1.552-3.888L85.3,39H83.848l-3.536-8.368h1.68L84.7,37.3l1.216-3.1-1.456-3.552H85.9l.96,2.624.944-2.624h1.44L87.8,34.2l1.216,3.1ZM94.552,39V30.632h1.76V39Zm0-9.744V27.32h1.76v1.936Zm8.528,9.312a8.821,8.821,0,0,1-.928.36,3.923,3.923,0,0,1-1.264.2,2.679,2.679,0,0,1-.784-.112,1.921,1.921,0,0,1-.648-.336,1.526,1.526,0,0,1-.44-.584,2.14,2.14,0,0,1-.16-.872V31.992h-1.1v-1.36h1.1V27.88h1.76v2.752h1.824v1.36h-1.824v4.672a.869.869,0,0,0,.28.648.95.95,0,0,0,.616.2,1.961,1.961,0,0,0,.7-.128q.336-.128.5-.208ZM111.8,39h-1.76V34.312a2.875,2.875,0,0,0-.408-1.7,1.373,1.373,0,0,0-1.176-.552,2.007,2.007,0,0,0-.736.144,2.645,2.645,0,0,0-.7.408,3.105,3.105,0,0,0-.584.624,2.661,2.661,0,0,0-.384.792V39H104.3V27.32h1.76v4.992a3.473,3.473,0,0,1,1.3-1.344,3.513,3.513,0,0,1,1.8-.48,2.633,2.633,0,0,1,1.288.28,2.261,2.261,0,0,1,.808.744,2.993,2.993,0,0,1,.424,1.08,6.812,6.812,0,0,1,.12,1.3Zm5.584,0a6.542,6.542,0,0,1,.112-1.248,3.513,3.513,0,0,1,.4-1.08,4.03,4.03,0,0,1,.784-.96,6.589,6.589,0,0,1,1.28-.888q.56-.3,1.056-.56a9.526,9.526,0,0,0,.872-.5,2.574,2.574,0,0,0,.6-.528,1.007,1.007,0,0,0,.224-.648,1.23,1.23,0,0,0-.44-.92A1.8,1.8,0,0,0,121,31.256a2.492,2.492,0,0,0-.792.12,3.085,3.085,0,0,0-.656.3,2.885,2.885,0,0,0-.52.408q-.224.224-.4.432l-1.12-1.3a4.01,4.01,0,0,1,.5-.44,4.969,4.969,0,0,1,.832-.5,6.133,6.133,0,0,1,1.112-.408,5.22,5.22,0,0,1,1.36-.168,4.47,4.47,0,0,1,1.384.2,3.113,3.113,0,0,1,1.04.552,2.361,2.361,0,0,1,.648.84,2.482,2.482,0,0,1,.224,1.048,2.265,2.265,0,0,1-.24,1.056,3.268,3.268,0,0,1-.592.816,3.928,3.928,0,0,1-.768.6q-.416.248-.768.424-.336.16-.76.376a6.89,6.89,0,0,0-.824.5,5.368,5.368,0,0,0-.72.6,1.8,1.8,0,0,0-.448.7h5.3V39Zm13.408,2.032V38.488H125.88V36.92l5.472-7.056h1.2v7.024h1.408v1.6h-1.408v2.544Zm-3.12-4.144h3.312V32.552Zm17.056-9.248L136.936,39h-1.952l7.792-11.36Zm6.4,3.648h-5.5V29.672h8.288l-5.68,11.36h-2Zm10.864,7.872a6.409,6.409,0,0,1-2.008-.328,5.092,5.092,0,0,1-1.72-.936l.7-1.12a6.5,6.5,0,0,0,1.488.824,4.2,4.2,0,0,0,1.5.28,2.21,2.21,0,0,0,1.24-.3.978.978,0,0,0,.456-.864.8.8,0,0,0-.512-.768,10.246,10.246,0,0,0-1.6-.528q-.784-.208-1.344-.4a3.459,3.459,0,0,1-.912-.448,1.572,1.572,0,0,1-.512-.592,1.887,1.887,0,0,1-.16-.816,2.507,2.507,0,0,1,.248-1.136,2.438,2.438,0,0,1,.688-.84,3.082,3.082,0,0,1,1.032-.52,4.473,4.473,0,0,1,1.28-.176,5.251,5.251,0,0,1,1.76.288,4.58,4.58,0,0,1,1.456.832l-.752,1.056a3.923,3.923,0,0,0-2.48-.928,2.119,2.119,0,0,0-1.128.28.965.965,0,0,0-.456.888.892.892,0,0,0,.1.432.815.815,0,0,0,.312.3,2.57,2.57,0,0,0,.56.232q.344.1.856.232.848.208,1.464.416a4.009,4.009,0,0,1,1.016.488,1.81,1.81,0,0,1,.592.656,1.967,1.967,0,0,1,.192.9,2.264,2.264,0,0,1-.9,1.9A3.929,3.929,0,0,1,161.992,39.16Zm7.472,0a2.369,2.369,0,0,1-1.984-.856,4.083,4.083,0,0,1-.672-2.552v-5.12h1.76V35.4q0,2.256,1.6,2.256a2.464,2.464,0,0,0,1.424-.464,2.974,2.974,0,0,0,1.04-1.344V30.632h1.76V36.92a.694.694,0,0,0,.1.432.5.5,0,0,0,.376.144V39q-.272.048-.448.064t-.336.016a1.28,1.28,0,0,1-.816-.264.872.872,0,0,1-.352-.68l-.032-.832a3.734,3.734,0,0,1-1.456,1.384A4.157,4.157,0,0,1,169.464,39.16Zm11.92,0a3.281,3.281,0,0,1-1.776-.48,3.583,3.583,0,0,1-1.216-1.248v4.976h-1.76V30.632h1.552v1.5a3.655,3.655,0,0,1,1.24-1.2,3.323,3.323,0,0,1,1.72-.448,3.558,3.558,0,0,1,1.584.352,4.023,4.023,0,0,1,1.248.944,4.357,4.357,0,0,1,.824,1.376,4.626,4.626,0,0,1,.3,1.648,5.212,5.212,0,0,1-.272,1.7,4.216,4.216,0,0,1-.768,1.376,3.749,3.749,0,0,1-1.176.928A3.266,3.266,0,0,1,181.384,39.16Zm-.576-1.5a2.148,2.148,0,0,0,1.016-.24,2.525,2.525,0,0,0,.784-.64,2.923,2.923,0,0,0,.5-.912,3.226,3.226,0,0,0,.176-1.056,2.963,2.963,0,0,0-.2-1.088,2.922,2.922,0,0,0-.544-.9,2.529,2.529,0,0,0-.824-.608,2.429,2.429,0,0,0-1.04-.224,2.142,2.142,0,0,0-.7.128,2.8,2.8,0,0,0-.688.352,2.737,2.737,0,0,0-.56.52,1.753,1.753,0,0,0-.336.648v2.192a3.24,3.24,0,0,0,.416.72,3.063,3.063,0,0,0,.568.576,2.758,2.758,0,0,0,.68.384A2.047,2.047,0,0,0,180.808,37.656Zm10.624,1.5a3.281,3.281,0,0,1-1.776-.48,3.583,3.583,0,0,1-1.216-1.248v4.976h-1.76V30.632h1.552v1.5a3.655,3.655,0,0,1,1.24-1.2,3.323,3.323,0,0,1,1.72-.448,3.558,3.558,0,0,1,1.584.352,4.023,4.023,0,0,1,1.248.944,4.357,4.357,0,0,1,.824,1.376,4.626,4.626,0,0,1,.3,1.648,5.212,5.212,0,0,1-.272,1.7,4.216,4.216,0,0,1-.768,1.376,3.749,3.749,0,0,1-1.176.928A3.266,3.266,0,0,1,191.432,39.16Zm-.576-1.5a2.148,2.148,0,0,0,1.016-.24,2.525,2.525,0,0,0,.784-.64,2.923,2.923,0,0,0,.5-.912,3.226,3.226,0,0,0,.176-1.056,2.963,2.963,0,0,0-.2-1.088,2.922,2.922,0,0,0-.544-.9,2.529,2.529,0,0,0-.824-.608,2.429,2.429,0,0,0-1.04-.224,2.142,2.142,0,0,0-.7.128,2.8,2.8,0,0,0-.688.352,2.737,2.737,0,0,0-.56.52,1.753,1.753,0,0,0-.336.648v2.192a3.24,3.24,0,0,0,.416.72,3.063,3.063,0,0,0,.568.576,2.758,2.758,0,0,0,.68.384A2.047,2.047,0,0,0,190.856,37.656Zm9.632,1.5a4.348,4.348,0,0,1-1.784-.352,4.1,4.1,0,0,1-2.216-2.328,4.662,4.662,0,0,1,0-3.312,4.1,4.1,0,0,1,.872-1.384,4.258,4.258,0,0,1,1.36-.944,4.616,4.616,0,0,1,3.536,0,4.258,4.258,0,0,1,1.36.944,4.1,4.1,0,0,1,.872,1.384,4.662,4.662,0,0,1,0,3.312,4.1,4.1,0,0,1-.872,1.384,4.258,4.258,0,0,1-1.36.944A4.307,4.307,0,0,1,200.488,39.16Zm-2.5-4.32a3.166,3.166,0,0,0,.192,1.12,2.784,2.784,0,0,0,.528.888,2.469,2.469,0,0,0,.792.592,2.349,2.349,0,0,0,1.968,0,2.418,2.418,0,0,0,.792-.6,2.884,2.884,0,0,0,.528-.9,3.339,3.339,0,0,0,0-2.232,2.863,2.863,0,0,0-.528-.9,2.418,2.418,0,0,0-.792-.6,2.269,2.269,0,0,0-.984-.216,2.167,2.167,0,0,0-.968.224,2.517,2.517,0,0,0-.792.608,2.985,2.985,0,0,0-.536.9A3.071,3.071,0,0,0,197.992,34.84Zm13.072-2.688a3.936,3.936,0,0,0-1.816.472,2.487,2.487,0,0,0-1.128,1.256V39h-1.76V30.632h1.632V32.5a3.827,3.827,0,0,1,1.128-1.384,2.736,2.736,0,0,1,1.5-.568h.264a.945.945,0,0,1,.184.016ZM217,38.568a8.822,8.822,0,0,1-.928.36,3.923,3.923,0,0,1-1.264.2,2.679,2.679,0,0,1-.784-.112,1.92,1.92,0,0,1-.648-.336,1.526,1.526,0,0,1-.44-.584,2.14,2.14,0,0,1-.16-.872V31.992h-1.1v-1.36h1.1V27.88h1.76v2.752h1.824v1.36h-1.824v4.672a.869.869,0,0,0,.28.648.95.95,0,0,0,.616.2,1.961,1.961,0,0,0,.7-.128q.336-.128.5-.208Zm1.328,1.984.384-1.648h-.576V36.952h1.584V38.9l-.56,1.648ZM17.008,58.808a4.562,4.562,0,0,1,.3-1.664,4.076,4.076,0,0,1,2.24-2.312,4.493,4.493,0,0,1,1.792-.344,4.221,4.221,0,0,1,2.232.568,3.6,3.6,0,0,1,1.4,1.512l-1.712.544a2.2,2.2,0,0,0-.816-.824,2.229,2.229,0,0,0-1.136-.3,2.343,2.343,0,0,0-.984.208,2.371,2.371,0,0,0-.792.584,2.784,2.784,0,0,0-.528.888,3.213,3.213,0,0,0-.192,1.136,3.116,3.116,0,0,0,.2,1.128,2.9,2.9,0,0,0,.544.9,2.505,2.505,0,0,0,.8.6,2.233,2.233,0,0,0,.968.216,2.4,2.4,0,0,0,.64-.088,2.288,2.288,0,0,0,1.048-.616,1.393,1.393,0,0,0,.3-.448l1.728.512a3.422,3.422,0,0,1-1.392,1.544,4.312,4.312,0,0,1-2.3.6,4.363,4.363,0,0,1-1.776-.352,4.174,4.174,0,0,1-1.368-.952,4.312,4.312,0,0,1-.88-1.384A4.459,4.459,0,0,1,17.008,58.808ZM30.176,63.16a4.348,4.348,0,0,1-1.784-.352,4.1,4.1,0,0,1-2.216-2.328,4.662,4.662,0,0,1,0-3.312,4.1,4.1,0,0,1,.872-1.384,4.258,4.258,0,0,1,1.36-.944,4.616,4.616,0,0,1,3.536,0,4.258,4.258,0,0,1,1.36.944,4.1,4.1,0,0,1,.872,1.384,4.662,4.662,0,0,1,0,3.312,4.1,4.1,0,0,1-.872,1.384,4.258,4.258,0,0,1-1.36.944A4.307,4.307,0,0,1,30.176,63.16Zm-2.5-4.32a3.166,3.166,0,0,0,.192,1.12,2.784,2.784,0,0,0,.528.888,2.469,2.469,0,0,0,.792.592,2.349,2.349,0,0,0,1.968,0,2.418,2.418,0,0,0,.792-.6,2.883,2.883,0,0,0,.528-.9,3.339,3.339,0,0,0,0-2.232,2.863,2.863,0,0,0-.528-.9,2.418,2.418,0,0,0-.792-.6,2.269,2.269,0,0,0-.984-.216,2.167,2.167,0,0,0-.968.224,2.518,2.518,0,0,0-.792.608,2.985,2.985,0,0,0-.536.9A3.071,3.071,0,0,0,27.68,58.84ZM48.848,63h-1.76V58.312A3.01,3.01,0,0,0,46.7,56.6a1.285,1.285,0,0,0-1.12-.544,2,2,0,0,0-1.368.552,3.107,3.107,0,0,0-.888,1.432V63h-1.76V58.312a3,3,0,0,0-.384-1.72,1.275,1.275,0,0,0-1.1-.536A2.047,2.047,0,0,0,38.7,56.6a3.025,3.025,0,0,0-.9,1.424V63h-1.76V54.632h1.6v1.68a3.536,3.536,0,0,1,1.3-1.352,3.6,3.6,0,0,1,1.848-.472,2.238,2.238,0,0,1,2.384,1.9,3.831,3.831,0,0,1,1.328-1.416,3.432,3.432,0,0,1,1.824-.488,2.431,2.431,0,0,1,1.224.28,2.164,2.164,0,0,1,.776.744,3.068,3.068,0,0,1,.4,1.08,7.285,7.285,0,0,1,.112,1.3ZM63.68,63H61.92V58.312a3.01,3.01,0,0,0-.384-1.712,1.285,1.285,0,0,0-1.12-.544,2,2,0,0,0-1.368.552,3.107,3.107,0,0,0-.888,1.432V63H56.4V58.312a3,3,0,0,0-.384-1.72,1.275,1.275,0,0,0-1.1-.536,2.047,2.047,0,0,0-1.376.544,3.025,3.025,0,0,0-.9,1.424V63H50.88V54.632h1.6v1.68a3.536,3.536,0,0,1,1.3-1.352,3.6,3.6,0,0,1,1.848-.472,2.238,2.238,0,0,1,2.384,1.9,3.831,3.831,0,0,1,1.328-1.416,3.432,3.432,0,0,1,1.824-.488,2.431,2.431,0,0,1,1.224.28,2.164,2.164,0,0,1,.776.744,3.068,3.068,0,0,1,.4,1.08,7.285,7.285,0,0,1,.112,1.3Zm2.032,0V54.632h1.76V63Zm0-9.744V51.32h1.76v1.936Zm8.528,9.312a8.822,8.822,0,0,1-.928.36,3.923,3.923,0,0,1-1.264.2,2.679,2.679,0,0,1-.784-.112,1.921,1.921,0,0,1-.648-.336,1.526,1.526,0,0,1-.44-.584,2.14,2.14,0,0,1-.16-.872V55.992h-1.1v-1.36h1.1V51.88h1.76v2.752H73.6v1.36H71.776v4.672a.869.869,0,0,0,.28.648.95.95,0,0,0,.616.2,1.961,1.961,0,0,0,.7-.128q.336-.128.5-.208Zm5.872,0a8.821,8.821,0,0,1-.928.36,3.923,3.923,0,0,1-1.264.2,2.679,2.679,0,0,1-.784-.112,1.921,1.921,0,0,1-.648-.336,1.526,1.526,0,0,1-.44-.584,2.14,2.14,0,0,1-.16-.872V55.992h-1.1v-1.36h1.1V51.88h1.76v2.752h1.824v1.36H77.648v4.672a.869.869,0,0,0,.28.648.95.95,0,0,0,.616.2,1.961,1.961,0,0,0,.7-.128q.336-.128.5-.208Zm4.8.592a4.451,4.451,0,0,1-1.776-.344,4.134,4.134,0,0,1-1.368-.936,4.22,4.22,0,0,1-.88-1.376,4.459,4.459,0,0,1-.312-1.664,4.52,4.52,0,0,1,.312-1.672,4.291,4.291,0,0,1,.88-1.392,4.075,4.075,0,0,1,1.368-.944,4.493,4.493,0,0,1,1.792-.344,4.307,4.307,0,0,1,1.768.352,4.227,4.227,0,0,1,1.352.936,4,4,0,0,1,.856,1.36,4.518,4.518,0,0,1,.3,1.624q0,.192-.016.36t-.032.28h-6.7a2.865,2.865,0,0,0,.264,1.008,2.653,2.653,0,0,0,.56.776,2.459,2.459,0,0,0,1.7.68,2.8,2.8,0,0,0,.7-.088,2.454,2.454,0,0,0,.632-.256,2.24,2.24,0,0,0,.512-.408,1.9,1.9,0,0,0,.352-.528l1.5.432A3.487,3.487,0,0,1,87.24,62.56,4.437,4.437,0,0,1,84.912,63.16Zm2.544-4.976a2.814,2.814,0,0,0-.264-.976,2.513,2.513,0,0,0-.552-.76,2.463,2.463,0,0,0-.784-.488,2.558,2.558,0,0,0-.944-.176,2.5,2.5,0,0,0-1.712.664,2.406,2.406,0,0,0-.544.76,2.929,2.929,0,0,0-.256.976Zm6.592,4.976a3.59,3.59,0,0,1-1.568-.344,3.919,3.919,0,0,1-1.248-.936,4.337,4.337,0,0,1-.824-1.384,5.045,5.045,0,0,1-.016-3.36,4.383,4.383,0,0,1,.784-1.368,3.788,3.788,0,0,1,1.184-.936,3.453,3.453,0,0,1,3.272.144,3.555,3.555,0,0,1,1.2,1.24v-4.9h1.76v9.6a.694.694,0,0,0,.1.432.5.5,0,0,0,.376.144V63q-.272.048-.44.064t-.28.016a1.33,1.33,0,0,1-.864-.272.961.961,0,0,1-.368-.7l-.032-.624a3.338,3.338,0,0,1-1.264,1.232A3.572,3.572,0,0,1,94.048,63.16Zm.432-1.5a2.416,2.416,0,0,0,.768-.128,2.72,2.72,0,0,0,.7-.352,2.474,2.474,0,0,0,.552-.528,1.9,1.9,0,0,0,.328-.656V57.8a2.621,2.621,0,0,0-.408-.736,2.918,2.918,0,0,0-.6-.576,2.74,2.74,0,0,0-.712-.368,2.344,2.344,0,0,0-.76-.128,1.988,1.988,0,0,0-.968.24,2.5,2.5,0,0,0-.76.64,3.155,3.155,0,0,0-.5.912,3.1,3.1,0,0,0-.184,1.056,2.963,2.963,0,0,0,.2,1.088,2.841,2.841,0,0,0,.552.9,2.709,2.709,0,0,0,.808.608A2.2,2.2,0,0,0,94.48,61.656Zm14.96.912a8.822,8.822,0,0,1-.928.36,3.923,3.923,0,0,1-1.264.2,2.679,2.679,0,0,1-.784-.112,1.921,1.921,0,0,1-.648-.336,1.526,1.526,0,0,1-.44-.584,2.14,2.14,0,0,1-.16-.872V55.992h-1.1v-1.36h1.1V51.88h1.76v2.752H108.8v1.36h-1.824v4.672a.869.869,0,0,0,.28.648.95.95,0,0,0,.616.2,1.961,1.961,0,0,0,.7-.128q.336-.128.5-.208Zm4.768.592a4.348,4.348,0,0,1-1.784-.352,4.1,4.1,0,0,1-2.216-2.328,4.662,4.662,0,0,1,0-3.312,4.1,4.1,0,0,1,.872-1.384,4.258,4.258,0,0,1,1.36-.944,4.616,4.616,0,0,1,3.536,0,4.258,4.258,0,0,1,1.36.944,4.1,4.1,0,0,1,.872,1.384,4.662,4.662,0,0,1,0,3.312,4.1,4.1,0,0,1-.872,1.384,4.258,4.258,0,0,1-1.36.944A4.307,4.307,0,0,1,114.208,63.16Zm-2.5-4.32a3.166,3.166,0,0,0,.192,1.12,2.784,2.784,0,0,0,.528.888,2.469,2.469,0,0,0,.792.592,2.349,2.349,0,0,0,1.968,0,2.418,2.418,0,0,0,.792-.6,2.883,2.883,0,0,0,.528-.9,3.339,3.339,0,0,0,0-2.232,2.863,2.863,0,0,0-.528-.9,2.418,2.418,0,0,0-.792-.6,2.269,2.269,0,0,0-.984-.216,2.167,2.167,0,0,0-.968.224,2.517,2.517,0,0,0-.792.608,2.986,2.986,0,0,0-.536.9A3.071,3.071,0,0,0,111.712,58.84Zm17.072,4.32a3.281,3.281,0,0,1-1.776-.48,3.583,3.583,0,0,1-1.216-1.248v4.976h-1.76V54.632h1.552v1.5a3.655,3.655,0,0,1,1.24-1.2,3.323,3.323,0,0,1,1.72-.448,3.557,3.557,0,0,1,1.584.352,4.023,4.023,0,0,1,1.248.944,4.357,4.357,0,0,1,.824,1.376,4.626,4.626,0,0,1,.3,1.648,5.212,5.212,0,0,1-.272,1.7,4.216,4.216,0,0,1-.768,1.376,3.749,3.749,0,0,1-1.176.928A3.266,3.266,0,0,1,128.784,63.16Zm-.576-1.5a2.148,2.148,0,0,0,1.016-.24,2.525,2.525,0,0,0,.784-.64,2.923,2.923,0,0,0,.5-.912,3.226,3.226,0,0,0,.176-1.056,2.963,2.963,0,0,0-.2-1.088,2.922,2.922,0,0,0-.544-.9,2.529,2.529,0,0,0-.824-.608,2.429,2.429,0,0,0-1.04-.224,2.142,2.142,0,0,0-.7.128,2.8,2.8,0,0,0-.688.352,2.737,2.737,0,0,0-.56.52,1.753,1.753,0,0,0-.336.648v2.192a3.24,3.24,0,0,0,.416.72,3.062,3.062,0,0,0,.568.576,2.758,2.758,0,0,0,.68.384A2.047,2.047,0,0,0,128.208,61.656Zm10.576-5.5a3.936,3.936,0,0,0-1.816.472,2.487,2.487,0,0,0-1.128,1.256V63h-1.76V54.632h1.632V56.5a3.827,3.827,0,0,1,1.128-1.384,2.736,2.736,0,0,1,1.5-.568h.264a.945.945,0,0,1,.184.016Zm4.624,7.008a4.348,4.348,0,0,1-1.784-.352,4.1,4.1,0,0,1-2.216-2.328,4.662,4.662,0,0,1,0-3.312,4.1,4.1,0,0,1,.872-1.384,4.258,4.258,0,0,1,1.36-.944,4.616,4.616,0,0,1,3.536,0,4.258,4.258,0,0,1,1.36.944,4.1,4.1,0,0,1,.872,1.384,4.662,4.662,0,0,1,0,3.312,4.1,4.1,0,0,1-.872,1.384,4.258,4.258,0,0,1-1.36.944A4.307,4.307,0,0,1,143.408,63.16Zm-2.5-4.32a3.166,3.166,0,0,0,.192,1.12,2.784,2.784,0,0,0,.528.888,2.469,2.469,0,0,0,.792.592,2.349,2.349,0,0,0,1.968,0,2.418,2.418,0,0,0,.792-.6,2.884,2.884,0,0,0,.528-.9,3.339,3.339,0,0,0,0-2.232,2.863,2.863,0,0,0-.528-.9,2.418,2.418,0,0,0-.792-.6,2.269,2.269,0,0,0-.984-.216,2.167,2.167,0,0,0-.968.224,2.517,2.517,0,0,0-.792.608,2.985,2.985,0,0,0-.536.9A3.071,3.071,0,0,0,140.912,58.84ZM151.328,63l-3.2-8.368h1.808l2.4,6.88,2.416-6.88h1.664L153.216,63Zm6.336,0V54.632h1.76V63Zm0-9.744V51.32h1.76v1.936Zm7.28,9.9a3.59,3.59,0,0,1-1.568-.344,3.919,3.919,0,0,1-1.248-.936A4.337,4.337,0,0,1,161.3,60.5a5.045,5.045,0,0,1-.016-3.36,4.383,4.383,0,0,1,.784-1.368,3.788,3.788,0,0,1,1.184-.936,3.453,3.453,0,0,1,3.272.144,3.555,3.555,0,0,1,1.2,1.24v-4.9h1.76v9.6a.694.694,0,0,0,.1.432.5.5,0,0,0,.376.144V63q-.272.048-.44.064t-.28.016a1.33,1.33,0,0,1-.864-.272.961.961,0,0,1-.368-.7l-.032-.624a3.338,3.338,0,0,1-1.264,1.232A3.572,3.572,0,0,1,164.944,63.16Zm.432-1.5a2.416,2.416,0,0,0,.768-.128,2.72,2.72,0,0,0,.7-.352,2.474,2.474,0,0,0,.552-.528,1.9,1.9,0,0,0,.328-.656V57.8a2.62,2.62,0,0,0-.408-.736,2.918,2.918,0,0,0-.6-.576,2.74,2.74,0,0,0-.712-.368,2.344,2.344,0,0,0-.76-.128,1.988,1.988,0,0,0-.968.24,2.5,2.5,0,0,0-.76.64,3.155,3.155,0,0,0-.5.912,3.1,3.1,0,0,0-.184,1.056,2.963,2.963,0,0,0,.2,1.088,2.841,2.841,0,0,0,.552.9,2.709,2.709,0,0,0,.808.608A2.2,2.2,0,0,0,165.376,61.656ZM171.728,63V54.632h1.76V63Zm0-9.744V51.32h1.76v1.936ZM183.1,63h-1.76V58.312a3.056,3.056,0,0,0-.376-1.72,1.271,1.271,0,0,0-1.112-.536,2.174,2.174,0,0,0-.768.144,2.69,2.69,0,0,0-.72.408,3.178,3.178,0,0,0-.6.624,2.86,2.86,0,0,0-.408.792V63H175.6V54.632h1.6v1.68a3.4,3.4,0,0,1,1.392-1.336,4.2,4.2,0,0,1,2.016-.488,2.479,2.479,0,0,1,1.232.272,2.035,2.035,0,0,1,.76.744,3.255,3.255,0,0,1,.392,1.088,7.285,7.285,0,0,1,.112,1.3Zm5.36.08a3.487,3.487,0,0,1-1.552-.344A3.706,3.706,0,0,1,185.7,61.8a4.4,4.4,0,0,1-.784-1.36,4.681,4.681,0,0,1-.28-1.616,4.9,4.9,0,0,1,.288-1.688,4.283,4.283,0,0,1,.8-1.376,3.819,3.819,0,0,1,1.224-.928,3.575,3.575,0,0,1,1.576-.344,3.24,3.24,0,0,1,1.768.48,4.064,4.064,0,0,1,1.256,1.248V54.632H193.1V62.76a3.709,3.709,0,0,1-.336,1.616,3.41,3.41,0,0,1-.936,1.192,4.218,4.218,0,0,1-1.416.744,5.85,5.85,0,0,1-1.76.256,5.039,5.039,0,0,1-2.312-.472,4.375,4.375,0,0,1-1.544-1.32l.992-.928a3.1,3.1,0,0,0,1.24,1.024,3.817,3.817,0,0,0,1.624.352,3.628,3.628,0,0,0,1.032-.144,2.388,2.388,0,0,0,.856-.448,2.163,2.163,0,0,0,.584-.768,2.6,2.6,0,0,0,.216-1.1V61.48a3.061,3.061,0,0,1-1.232,1.184A3.468,3.468,0,0,1,188.464,63.08Zm.576-1.424a2.2,2.2,0,0,0,.768-.136,2.7,2.7,0,0,0,.68-.368,2.65,2.65,0,0,0,.536-.528,1.913,1.913,0,0,0,.32-.632V57.8a2.96,2.96,0,0,0-1-1.3,2.845,2.845,0,0,0-.7-.376,2.179,2.179,0,0,0-1.768.112,2.485,2.485,0,0,0-.776.656,3.123,3.123,0,0,0-.5.92,3.226,3.226,0,0,0-.176,1.056,2.9,2.9,0,0,0,.2,1.08,2.766,2.766,0,0,0,.552.88,2.709,2.709,0,0,0,.824.6A2.376,2.376,0,0,0,189.04,61.656Zm9.968,3.312q.24.048.472.08a2.876,2.876,0,0,0,.376.032.706.706,0,0,0,.36-.088,1.073,1.073,0,0,0,.312-.312,3.229,3.229,0,0,0,.328-.632q.168-.408.392-1.048l-3.44-8.368h1.808l2.592,6.816,2.3-6.816h1.664l-3.792,10.3a2.607,2.607,0,0,1-.888,1.208,2.581,2.581,0,0,1-1.624.488,3.493,3.493,0,0,1-.4-.024,2.557,2.557,0,0,1-.464-.1Zm11.936-1.808a4.348,4.348,0,0,1-1.784-.352,4.1,4.1,0,0,1-2.216-2.328,4.662,4.662,0,0,1,0-3.312,4.1,4.1,0,0,1,.872-1.384,4.258,4.258,0,0,1,1.36-.944,4.616,4.616,0,0,1,3.536,0,4.258,4.258,0,0,1,1.36.944,4.1,4.1,0,0,1,.872,1.384,4.662,4.662,0,0,1,0,3.312,4.1,4.1,0,0,1-.872,1.384,4.258,4.258,0,0,1-1.36.944A4.307,4.307,0,0,1,210.944,63.16Zm-2.5-4.32a3.166,3.166,0,0,0,.192,1.12,2.784,2.784,0,0,0,.528.888,2.469,2.469,0,0,0,.792.592,2.349,2.349,0,0,0,1.968,0,2.418,2.418,0,0,0,.792-.6,2.884,2.884,0,0,0,.528-.9,3.339,3.339,0,0,0,0-2.232,2.863,2.863,0,0,0-.528-.9,2.418,2.418,0,0,0-.792-.6,2.269,2.269,0,0,0-.984-.216,2.167,2.167,0,0,0-.968.224,2.517,2.517,0,0,0-.792.608,2.985,2.985,0,0,0-.536.9A3.071,3.071,0,0,0,208.448,58.84Zm10.944,4.32a2.369,2.369,0,0,1-1.984-.856,4.083,4.083,0,0,1-.672-2.552v-5.12h1.76V59.4q0,2.256,1.6,2.256a2.464,2.464,0,0,0,1.424-.464,2.974,2.974,0,0,0,1.04-1.344V54.632h1.76V60.92a.694.694,0,0,0,.1.432.5.5,0,0,0,.376.144V63q-.272.048-.448.064t-.336.016a1.28,1.28,0,0,1-.816-.264.872.872,0,0,1-.352-.68l-.032-.832a3.734,3.734,0,0,1-1.456,1.384A4.157,4.157,0,0,1,219.392,63.16ZM17.032,78.632h1.68L15.192,87H13.736l-1.552-3.888L10.632,87H9.176L5.64,78.632H7.32l2.7,6.672,1.216-3.1L9.784,78.648h1.44l.96,2.624.944-2.624h1.44L13.128,82.2l1.216,3.1ZM19.88,87V78.632h1.76V87Zm0-9.744V75.32h1.76v1.936Zm8.528,9.312a8.823,8.823,0,0,1-.928.36,3.923,3.923,0,0,1-1.264.2,2.679,2.679,0,0,1-.784-.112,1.921,1.921,0,0,1-.648-.336,1.526,1.526,0,0,1-.44-.584,2.14,2.14,0,0,1-.16-.872V79.992h-1.1v-1.36h1.1V75.88h1.76v2.752h1.824v1.36H25.944v4.672a.869.869,0,0,0,.28.648.95.95,0,0,0,.616.2,1.961,1.961,0,0,0,.7-.128q.336-.128.5-.208Zm8.72.432h-1.76V82.312a2.875,2.875,0,0,0-.408-1.7,1.373,1.373,0,0,0-1.176-.552,2.007,2.007,0,0,0-.736.144,2.645,2.645,0,0,0-.7.408,3.105,3.105,0,0,0-.584.624,2.661,2.661,0,0,0-.384.792V87h-1.76V75.32h1.76v4.992a3.473,3.473,0,0,1,1.3-1.344,3.513,3.513,0,0,1,1.8-.48,2.633,2.633,0,0,1,1.288.28,2.261,2.261,0,0,1,.808.744,2.993,2.993,0,0,1,.424,1.08,6.812,6.812,0,0,1,.12,1.3Zm6.48-6.8h-1.12V78.84h1.12V78.5a3.807,3.807,0,0,1,.208-1.256,3.074,3.074,0,0,1,1.64-1.808,3.28,3.28,0,0,1,1.4-.28,4.348,4.348,0,0,1,1.616.28,6.072,6.072,0,0,1,1.232.648l-.72,1.312a3.184,3.184,0,0,0-2.016-.736,1.593,1.593,0,0,0-.72.152,1.38,1.38,0,0,0-.5.408,1.825,1.825,0,0,0-.288.576,2.271,2.271,0,0,0-.1.656v.384h4.384V87h-1.76V80.2H45.368V87h-1.76Zm12.96-.048a3.936,3.936,0,0,0-1.816.472,2.487,2.487,0,0,0-1.128,1.256V87h-1.76V78.632H53.5V80.5a3.827,3.827,0,0,1,1.128-1.384,2.736,2.736,0,0,1,1.5-.568h.264a.945.945,0,0,1,.184.016Zm4.32,7.008a6.409,6.409,0,0,1-2.008-.328,5.092,5.092,0,0,1-1.72-.936l.7-1.12a6.5,6.5,0,0,0,1.488.824,4.2,4.2,0,0,0,1.5.28,2.21,2.21,0,0,0,1.24-.3.978.978,0,0,0,.456-.864.8.8,0,0,0-.512-.768,10.246,10.246,0,0,0-1.6-.528q-.784-.208-1.344-.4a3.459,3.459,0,0,1-.912-.448,1.573,1.573,0,0,1-.512-.592,1.887,1.887,0,0,1-.16-.816,2.507,2.507,0,0,1,.248-1.136,2.438,2.438,0,0,1,.688-.84,3.082,3.082,0,0,1,1.032-.52,4.473,4.473,0,0,1,1.28-.176,5.251,5.251,0,0,1,1.76.288,4.58,4.58,0,0,1,1.456.832l-.752,1.056a3.923,3.923,0,0,0-2.48-.928,2.119,2.119,0,0,0-1.128.28.965.965,0,0,0-.456.888.892.892,0,0,0,.1.432.815.815,0,0,0,.312.3,2.57,2.57,0,0,0,.56.232q.344.1.856.232.848.208,1.464.416a4.008,4.008,0,0,1,1.016.488,1.81,1.81,0,0,1,.592.656,1.967,1.967,0,0,1,.192.9,2.264,2.264,0,0,1-.9,1.9A3.929,3.929,0,0,1,60.888,87.16Zm9.552-.592a8.822,8.822,0,0,1-.928.36,3.923,3.923,0,0,1-1.264.2,2.679,2.679,0,0,1-.784-.112,1.921,1.921,0,0,1-.648-.336,1.526,1.526,0,0,1-.44-.584,2.14,2.14,0,0,1-.16-.872V79.992h-1.1v-1.36h1.1V75.88h1.76v2.752H69.8v1.36H67.976v4.672a.869.869,0,0,0,.28.648.95.95,0,0,0,.616.2,1.961,1.961,0,0,0,.7-.128q.336-.128.5-.208Zm.992-3.152V81.832h4.784v1.584Zm6.272-.608a4.562,4.562,0,0,1,.3-1.664,4.076,4.076,0,0,1,2.24-2.312,4.493,4.493,0,0,1,1.792-.344,4.221,4.221,0,0,1,2.232.568,3.6,3.6,0,0,1,1.4,1.512l-1.712.544a2.2,2.2,0,0,0-.816-.824,2.229,2.229,0,0,0-1.136-.3,2.343,2.343,0,0,0-.984.208,2.371,2.371,0,0,0-.792.584,2.784,2.784,0,0,0-.528.888,3.213,3.213,0,0,0-.192,1.136,3.116,3.116,0,0,0,.2,1.128,2.9,2.9,0,0,0,.544.9,2.505,2.505,0,0,0,.8.6,2.233,2.233,0,0,0,.968.216,2.4,2.4,0,0,0,.64-.088,2.288,2.288,0,0,0,1.048-.616,1.393,1.393,0,0,0,.3-.448l1.728.512a3.422,3.422,0,0,1-1.392,1.544,4.312,4.312,0,0,1-2.3.6,4.363,4.363,0,0,1-1.776-.352,4.174,4.174,0,0,1-1.368-.952,4.312,4.312,0,0,1-.88-1.384A4.458,4.458,0,0,1,77.7,82.808Zm9.5-7.488h1.76v9.264a1.042,1.042,0,0,0,.24.728.862.862,0,0,0,.672.264,1.561,1.561,0,0,0,.408-.064q.232-.064.44-.144l.256,1.376a4.1,4.1,0,0,1-.912.28,4.941,4.941,0,0,1-.944.1,1.933,1.933,0,0,1-1.416-.5,1.887,1.887,0,0,1-.5-1.408Zm7.024,11.84a3.116,3.116,0,0,1-1.128-.2,2.726,2.726,0,0,1-.9-.552,2.574,2.574,0,0,1-.592-.832,2.5,2.5,0,0,1-.216-1.04,2.242,2.242,0,0,1,.256-1.072,2.505,2.505,0,0,1,.728-.832,3.534,3.534,0,0,1,1.12-.544,5.028,5.028,0,0,1,1.432-.192A6.56,6.56,0,0,1,96.1,82a5.882,5.882,0,0,1,1.04.28V81.7a1.94,1.94,0,0,0-.528-1.448,2.076,2.076,0,0,0-1.52-.52,3.665,3.665,0,0,0-1.32.248,6.678,6.678,0,0,0-1.336.712l-.544-1.12a5.933,5.933,0,0,1,3.36-1.088,3.832,3.832,0,0,1,2.688.88A3.257,3.257,0,0,1,98.9,81.9V84.92q0,.56.464.576V87q-.256.048-.44.064t-.36.016a1.132,1.132,0,0,1-.792-.256,1.094,1.094,0,0,1-.344-.656l-.048-.528A3.731,3.731,0,0,1,96,86.768,4.063,4.063,0,0,1,94.232,87.16Zm.48-1.3a3.164,3.164,0,0,0,1.208-.232,2.083,2.083,0,0,0,.888-.648.812.812,0,0,0,.336-.608v-1.1A5.32,5.32,0,0,0,96.192,83a5.253,5.253,0,0,0-.984-.1,2.691,2.691,0,0,0-1.544.408,1.25,1.25,0,0,0-.6,1.08,1.363,1.363,0,0,0,.464,1.048A1.687,1.687,0,0,0,94.712,85.864Zm9.36,1.3a6.409,6.409,0,0,1-2.008-.328,5.092,5.092,0,0,1-1.72-.936l.7-1.12a6.5,6.5,0,0,0,1.488.824,4.2,4.2,0,0,0,1.5.28,2.21,2.21,0,0,0,1.24-.3.978.978,0,0,0,.456-.864.8.8,0,0,0-.512-.768,10.246,10.246,0,0,0-1.6-.528q-.784-.208-1.344-.4a3.459,3.459,0,0,1-.912-.448,1.573,1.573,0,0,1-.512-.592,1.887,1.887,0,0,1-.16-.816,2.507,2.507,0,0,1,.248-1.136,2.438,2.438,0,0,1,.688-.84,3.082,3.082,0,0,1,1.032-.52,4.473,4.473,0,0,1,1.28-.176,5.251,5.251,0,0,1,1.76.288,4.58,4.58,0,0,1,1.456.832l-.752,1.056a3.923,3.923,0,0,0-2.48-.928,2.119,2.119,0,0,0-1.128.28.965.965,0,0,0-.456.888.892.892,0,0,0,.1.432.815.815,0,0,0,.312.3,2.57,2.57,0,0,0,.56.232q.344.1.856.232.848.208,1.464.416a4.008,4.008,0,0,1,1.016.488,1.81,1.81,0,0,1,.592.656,1.967,1.967,0,0,1,.192.9,2.264,2.264,0,0,1-.9,1.9A3.929,3.929,0,0,1,104.072,87.16Zm7.936,0A6.409,6.409,0,0,1,110,86.832a5.092,5.092,0,0,1-1.72-.936l.7-1.12a6.5,6.5,0,0,0,1.488.824,4.2,4.2,0,0,0,1.5.28,2.21,2.21,0,0,0,1.24-.3.978.978,0,0,0,.456-.864.8.8,0,0,0-.512-.768,10.246,10.246,0,0,0-1.6-.528q-.784-.208-1.344-.4a3.459,3.459,0,0,1-.912-.448,1.573,1.573,0,0,1-.512-.592,1.887,1.887,0,0,1-.16-.816,2.507,2.507,0,0,1,.248-1.136,2.438,2.438,0,0,1,.688-.84,3.082,3.082,0,0,1,1.032-.52,4.473,4.473,0,0,1,1.28-.176,5.251,5.251,0,0,1,1.76.288,4.58,4.58,0,0,1,1.456.832l-.752,1.056a3.923,3.923,0,0,0-2.48-.928,2.119,2.119,0,0,0-1.128.28.965.965,0,0,0-.456.888.892.892,0,0,0,.1.432.815.815,0,0,0,.312.3,2.57,2.57,0,0,0,.56.232q.344.1.856.232.848.208,1.464.416a4.008,4.008,0,0,1,1.016.488,1.81,1.81,0,0,1,.592.656,1.967,1.967,0,0,1,.192.9,2.264,2.264,0,0,1-.9,1.9A3.929,3.929,0,0,1,112.008,87.16Zm5.008,1.392L117.4,86.9h-.576V84.952h1.584V86.9l-.56,1.648Zm9.6-1.392a3.116,3.116,0,0,1-1.128-.2,2.726,2.726,0,0,1-.9-.552,2.574,2.574,0,0,1-.592-.832,2.5,2.5,0,0,1-.216-1.04,2.242,2.242,0,0,1,.256-1.072,2.505,2.505,0,0,1,.728-.832,3.534,3.534,0,0,1,1.12-.544,5.028,5.028,0,0,1,1.432-.192,6.56,6.56,0,0,1,1.168.1,5.882,5.882,0,0,1,1.04.28V81.7A1.94,1.94,0,0,0,129,80.256a2.076,2.076,0,0,0-1.52-.52,3.665,3.665,0,0,0-1.32.248,6.678,6.678,0,0,0-1.336.712l-.544-1.12a5.933,5.933,0,0,1,3.36-1.088,3.832,3.832,0,0,1,2.688.88,3.257,3.257,0,0,1,.96,2.528V84.92q0,.56.464.576V87q-.256.048-.44.064t-.36.016a1.132,1.132,0,0,1-.792-.256,1.1,1.1,0,0,1-.344-.656l-.048-.528a3.731,3.731,0,0,1-1.384,1.128A4.063,4.063,0,0,1,126.616,87.16Zm.48-1.3a3.164,3.164,0,0,0,1.208-.232,2.083,2.083,0,0,0,.888-.648.812.812,0,0,0,.336-.608v-1.1a5.32,5.32,0,0,0-.952-.272,5.253,5.253,0,0,0-.984-.1,2.691,2.691,0,0,0-1.544.408,1.25,1.25,0,0,0-.6,1.08,1.363,1.363,0,0,0,.464,1.048A1.687,1.687,0,0,0,127.1,85.864Zm5.776-3.056a4.562,4.562,0,0,1,.3-1.664,4.077,4.077,0,0,1,2.24-2.312,4.493,4.493,0,0,1,1.792-.344,4.221,4.221,0,0,1,2.232.568,3.6,3.6,0,0,1,1.4,1.512l-1.712.544a2.2,2.2,0,0,0-.816-.824,2.229,2.229,0,0,0-1.136-.3,2.343,2.343,0,0,0-.984.208,2.371,2.371,0,0,0-.792.584,2.784,2.784,0,0,0-.528.888,3.214,3.214,0,0,0-.192,1.136,3.116,3.116,0,0,0,.2,1.128,2.9,2.9,0,0,0,.544.9,2.505,2.505,0,0,0,.8.6,2.233,2.233,0,0,0,.968.216,2.4,2.4,0,0,0,.64-.088,2.288,2.288,0,0,0,1.048-.616,1.393,1.393,0,0,0,.3-.448l1.728.512a3.422,3.422,0,0,1-1.392,1.544,4.311,4.311,0,0,1-2.3.6,4.363,4.363,0,0,1-1.776-.352,4.174,4.174,0,0,1-1.368-.952,4.312,4.312,0,0,1-.88-1.384A4.458,4.458,0,0,1,132.872,82.808Zm8.864,0a4.562,4.562,0,0,1,.3-1.664,4.077,4.077,0,0,1,2.24-2.312,4.493,4.493,0,0,1,1.792-.344,4.221,4.221,0,0,1,2.232.568,3.6,3.6,0,0,1,1.4,1.512l-1.712.544a2.2,2.2,0,0,0-.816-.824,2.229,2.229,0,0,0-1.136-.3,2.343,2.343,0,0,0-.984.208,2.371,2.371,0,0,0-.792.584,2.784,2.784,0,0,0-.528.888,3.214,3.214,0,0,0-.192,1.136,3.116,3.116,0,0,0,.2,1.128,2.9,2.9,0,0,0,.544.9,2.505,2.505,0,0,0,.8.6,2.233,2.233,0,0,0,.968.216,2.4,2.4,0,0,0,.64-.088,2.288,2.288,0,0,0,1.048-.616,1.393,1.393,0,0,0,.3-.448l1.728.512a3.422,3.422,0,0,1-1.392,1.544,4.312,4.312,0,0,1-2.3.6,4.363,4.363,0,0,1-1.776-.352,4.174,4.174,0,0,1-1.368-.952,4.312,4.312,0,0,1-.88-1.384A4.458,4.458,0,0,1,141.736,82.808Zm13.2,4.352a4.451,4.451,0,0,1-1.776-.344,4.133,4.133,0,0,1-1.368-.936,4.22,4.22,0,0,1-.88-1.376,4.458,4.458,0,0,1-.312-1.664,4.52,4.52,0,0,1,.312-1.672,4.291,4.291,0,0,1,.88-1.392,4.075,4.075,0,0,1,1.368-.944,4.493,4.493,0,0,1,1.792-.344,4.307,4.307,0,0,1,1.768.352,4.227,4.227,0,0,1,1.352.936,4,4,0,0,1,.856,1.36,4.518,4.518,0,0,1,.3,1.624q0,.192-.016.36t-.032.28h-6.7a2.865,2.865,0,0,0,.264,1.008,2.653,2.653,0,0,0,.56.776,2.459,2.459,0,0,0,1.7.68,2.8,2.8,0,0,0,.7-.088,2.454,2.454,0,0,0,.632-.256,2.24,2.24,0,0,0,.512-.408,1.9,1.9,0,0,0,.352-.528l1.5.432a3.487,3.487,0,0,1-1.432,1.544A4.437,4.437,0,0,1,154.936,87.16Zm2.544-4.976a2.814,2.814,0,0,0-.264-.976,2.513,2.513,0,0,0-.552-.76,2.463,2.463,0,0,0-.784-.488,2.559,2.559,0,0,0-.944-.176,2.5,2.5,0,0,0-1.712.664,2.406,2.406,0,0,0-.544.76,2.929,2.929,0,0,0-.256.976ZM163.7,87.16a6.409,6.409,0,0,1-2.008-.328,5.092,5.092,0,0,1-1.72-.936l.7-1.12a6.5,6.5,0,0,0,1.488.824,4.2,4.2,0,0,0,1.5.28,2.21,2.21,0,0,0,1.24-.3.978.978,0,0,0,.456-.864.8.8,0,0,0-.512-.768,10.246,10.246,0,0,0-1.6-.528q-.784-.208-1.344-.4a3.459,3.459,0,0,1-.912-.448,1.573,1.573,0,0,1-.512-.592,1.887,1.887,0,0,1-.16-.816,2.507,2.507,0,0,1,.248-1.136,2.438,2.438,0,0,1,.688-.84,3.082,3.082,0,0,1,1.032-.52,4.473,4.473,0,0,1,1.28-.176,5.251,5.251,0,0,1,1.76.288,4.58,4.58,0,0,1,1.456.832l-.752,1.056a3.923,3.923,0,0,0-2.48-.928,2.119,2.119,0,0,0-1.128.28.965.965,0,0,0-.456.888.892.892,0,0,0,.1.432.815.815,0,0,0,.312.3,2.57,2.57,0,0,0,.56.232q.344.1.856.232.848.208,1.464.416a4.008,4.008,0,0,1,1.016.488,1.81,1.81,0,0,1,.592.656,1.967,1.967,0,0,1,.192.9,2.264,2.264,0,0,1-.9,1.9A3.929,3.929,0,0,1,163.7,87.16Zm7.936,0a6.409,6.409,0,0,1-2.008-.328,5.092,5.092,0,0,1-1.72-.936l.7-1.12a6.5,6.5,0,0,0,1.488.824,4.2,4.2,0,0,0,1.5.28,2.21,2.21,0,0,0,1.24-.3.978.978,0,0,0,.456-.864.8.8,0,0,0-.512-.768,10.246,10.246,0,0,0-1.6-.528q-.784-.208-1.344-.4a3.459,3.459,0,0,1-.912-.448,1.573,1.573,0,0,1-.512-.592,1.887,1.887,0,0,1-.16-.816,2.507,2.507,0,0,1,.248-1.136,2.438,2.438,0,0,1,.688-.84,3.082,3.082,0,0,1,1.032-.52,4.473,4.473,0,0,1,1.28-.176,5.251,5.251,0,0,1,1.76.288,4.58,4.58,0,0,1,1.456.832l-.752,1.056a3.923,3.923,0,0,0-2.48-.928,2.119,2.119,0,0,0-1.128.28.965.965,0,0,0-.456.888.892.892,0,0,0,.1.432.815.815,0,0,0,.312.3,2.57,2.57,0,0,0,.56.232q.344.1.856.232.848.208,1.464.416a4.008,4.008,0,0,1,1.016.488,1.81,1.81,0,0,1,.592.656,1.967,1.967,0,0,1,.192.9,2.264,2.264,0,0,1-.9,1.9A3.929,3.929,0,0,1,171.64,87.16Zm4.9-.16V78.632h1.76V87Zm0-9.744V75.32h1.76v1.936Zm8.384,9.9a3.375,3.375,0,0,1-2.96-1.68V87h-1.552V75.32h1.76v4.9a3.852,3.852,0,0,1,1.24-1.264,3.469,3.469,0,0,1,3.272-.1,3.728,3.728,0,0,1,1.176.96,4.375,4.375,0,0,1,.752,1.392,5.2,5.2,0,0,1,.264,1.656,4.606,4.606,0,0,1-.3,1.68,4.376,4.376,0,0,1-.832,1.368,3.848,3.848,0,0,1-1.256.92A3.677,3.677,0,0,1,184.92,87.16Zm-.464-1.5a2.394,2.394,0,0,0,1.056-.232,2.63,2.63,0,0,0,.824-.616,2.823,2.823,0,0,0,.536-.888,2.963,2.963,0,0,0,.192-1.064,3.214,3.214,0,0,0-.184-1.08,2.928,2.928,0,0,0-.512-.912,2.577,2.577,0,0,0-.784-.632,2.114,2.114,0,0,0-1-.24,2.194,2.194,0,0,0-1.448.528,3.515,3.515,0,0,0-.968,1.28v2.208a1.74,1.74,0,0,0,.336.664,2.737,2.737,0,0,0,.56.52,2.6,2.6,0,0,0,.688.344A2.27,2.27,0,0,0,184.456,85.656Zm6.016-10.336h1.76v9.264a1.042,1.042,0,0,0,.24.728.862.862,0,0,0,.672.264,1.561,1.561,0,0,0,.408-.064q.232-.064.44-.144l.256,1.376a4.1,4.1,0,0,1-.912.28,4.941,4.941,0,0,1-.944.1,1.933,1.933,0,0,1-1.416-.5,1.887,1.887,0,0,1-.5-1.408Zm8.592,11.84a4.451,4.451,0,0,1-1.776-.344,4.133,4.133,0,0,1-1.368-.936,4.22,4.22,0,0,1-.88-1.376,4.458,4.458,0,0,1-.312-1.664,4.52,4.52,0,0,1,.312-1.672,4.291,4.291,0,0,1,.88-1.392,4.075,4.075,0,0,1,1.368-.944,4.493,4.493,0,0,1,1.792-.344,4.307,4.307,0,0,1,1.768.352,4.227,4.227,0,0,1,1.352.936,4,4,0,0,1,.856,1.36,4.518,4.518,0,0,1,.3,1.624q0,.192-.016.36t-.032.28h-6.7a2.865,2.865,0,0,0,.264,1.008,2.653,2.653,0,0,0,.56.776,2.459,2.459,0,0,0,1.7.68,2.8,2.8,0,0,0,.7-.088,2.454,2.454,0,0,0,.632-.256,2.24,2.24,0,0,0,.512-.408,1.9,1.9,0,0,0,.352-.528l1.5.432a3.487,3.487,0,0,1-1.432,1.544A4.437,4.437,0,0,1,199.064,87.16Zm2.544-4.976a2.814,2.814,0,0,0-.264-.976,2.513,2.513,0,0,0-.552-.76,2.463,2.463,0,0,0-.784-.488,2.559,2.559,0,0,0-.944-.176,2.5,2.5,0,0,0-1.712.664,2.406,2.406,0,0,0-.544.76,2.929,2.929,0,0,0-.256.976Zm9.36,4.976a3.116,3.116,0,0,1-1.128-.2,2.726,2.726,0,0,1-.9-.552,2.574,2.574,0,0,1-.592-.832,2.5,2.5,0,0,1-.216-1.04,2.242,2.242,0,0,1,.256-1.072,2.506,2.506,0,0,1,.728-.832,3.534,3.534,0,0,1,1.12-.544,5.028,5.028,0,0,1,1.432-.192,6.56,6.56,0,0,1,1.168.1,5.882,5.882,0,0,1,1.04.28V81.7a1.94,1.94,0,0,0-.528-1.448,2.076,2.076,0,0,0-1.52-.52,3.665,3.665,0,0,0-1.32.248,6.678,6.678,0,0,0-1.336.712l-.544-1.12a5.933,5.933,0,0,1,3.36-1.088,3.832,3.832,0,0,1,2.688.88,3.257,3.257,0,0,1,.96,2.528V84.92q0,.56.464.576V87q-.256.048-.44.064t-.36.016a1.132,1.132,0,0,1-.792-.256,1.1,1.1,0,0,1-.344-.656l-.048-.528a3.731,3.731,0,0,1-1.384,1.128A4.063,4.063,0,0,1,210.968,87.16Zm.48-1.3a3.164,3.164,0,0,0,1.208-.232,2.083,2.083,0,0,0,.888-.648.812.812,0,0,0,.336-.608v-1.1a5.32,5.32,0,0,0-.952-.272,5.253,5.253,0,0,0-.984-.1,2.691,2.691,0,0,0-1.544.408,1.25,1.25,0,0,0-.6,1.08,1.363,1.363,0,0,0,.464,1.048A1.687,1.687,0,0,0,211.448,85.864ZM225.272,87h-1.76V82.312a3.056,3.056,0,0,0-.376-1.72,1.271,1.271,0,0,0-1.112-.536,2.174,2.174,0,0,0-.768.144,2.69,2.69,0,0,0-.72.408,3.178,3.178,0,0,0-.6.624,2.86,2.86,0,0,0-.408.792V87h-1.76V78.632h1.6v1.68a3.4,3.4,0,0,1,1.392-1.336,4.2,4.2,0,0,1,2.016-.488,2.479,2.479,0,0,1,1.232.272,2.035,2.035,0,0,1,.76.744,3.255,3.255,0,0,1,.392,1.088,7.285,7.285,0,0,1,.112,1.3Zm5.456.16a3.59,3.59,0,0,1-1.568-.344,3.919,3.919,0,0,1-1.248-.936,4.337,4.337,0,0,1-.824-1.384,5.045,5.045,0,0,1-.016-3.36,4.383,4.383,0,0,1,.784-1.368,3.788,3.788,0,0,1,1.184-.936,3.453,3.453,0,0,1,3.272.144,3.555,3.555,0,0,1,1.2,1.24v-4.9h1.76v9.6a.694.694,0,0,0,.1.432.5.5,0,0,0,.376.144V87q-.272.048-.44.064t-.28.016a1.33,1.33,0,0,1-.864-.272.961.961,0,0,1-.368-.7l-.032-.624a3.338,3.338,0,0,1-1.264,1.232A3.572,3.572,0,0,1,230.728,87.16Zm.432-1.5a2.416,2.416,0,0,0,.768-.128,2.72,2.72,0,0,0,.7-.352,2.474,2.474,0,0,0,.552-.528,1.9,1.9,0,0,0,.328-.656V81.8a2.62,2.62,0,0,0-.408-.736,2.918,2.918,0,0,0-.6-.576,2.74,2.74,0,0,0-.712-.368,2.344,2.344,0,0,0-.76-.128,1.988,1.988,0,0,0-.968.24,2.5,2.5,0,0,0-.76.64,3.155,3.155,0,0,0-.5.912,3.1,3.1,0,0,0-.184,1.056,2.963,2.963,0,0,0,.2,1.088,2.841,2.841,0,0,0,.552.9,2.709,2.709,0,0,0,.808.608A2.2,2.2,0,0,0,231.16,85.656ZM49.84,111.16a3.28,3.28,0,0,1-1.776-.48,3.583,3.583,0,0,1-1.216-1.248v4.976h-1.76V102.632H46.64v1.5a3.655,3.655,0,0,1,1.24-1.2,3.323,3.323,0,0,1,1.72-.448,3.558,3.558,0,0,1,1.584.352,4.024,4.024,0,0,1,1.248.944,4.357,4.357,0,0,1,.824,1.376,4.627,4.627,0,0,1,.3,1.648,5.212,5.212,0,0,1-.272,1.7,4.216,4.216,0,0,1-.768,1.376,3.748,3.748,0,0,1-1.176.928A3.266,3.266,0,0,1,49.84,111.16Zm-.576-1.5a2.148,2.148,0,0,0,1.016-.24,2.525,2.525,0,0,0,.784-.64,2.923,2.923,0,0,0,.5-.912,3.226,3.226,0,0,0,.176-1.056,2.964,2.964,0,0,0-.2-1.088,2.922,2.922,0,0,0-.544-.9,2.529,2.529,0,0,0-.824-.608,2.429,2.429,0,0,0-1.04-.224,2.142,2.142,0,0,0-.7.128,2.8,2.8,0,0,0-.688.352,2.737,2.737,0,0,0-.56.52,1.753,1.753,0,0,0-.336.648v2.192a3.24,3.24,0,0,0,.416.72,3.062,3.062,0,0,0,.568.576,2.758,2.758,0,0,0,.68.384A2.047,2.047,0,0,0,49.264,109.656Zm10.576-5.5a3.936,3.936,0,0,0-1.816.472A2.487,2.487,0,0,0,56.9,105.88V111h-1.76v-8.368h1.632V104.5A3.827,3.827,0,0,1,57.9,103.12a2.736,2.736,0,0,1,1.5-.568h.264a.945.945,0,0,1,.184.016Zm4.624,7.008a4.347,4.347,0,0,1-1.784-.352,4.1,4.1,0,0,1-2.216-2.328,4.662,4.662,0,0,1,0-3.312,4.1,4.1,0,0,1,.872-1.384,4.258,4.258,0,0,1,1.36-.944,4.616,4.616,0,0,1,3.536,0,4.258,4.258,0,0,1,1.36.944,4.1,4.1,0,0,1,.872,1.384,4.662,4.662,0,0,1,0,3.312,4.1,4.1,0,0,1-.872,1.384,4.258,4.258,0,0,1-1.36.944A4.307,4.307,0,0,1,64.464,111.16Zm-2.5-4.32a3.166,3.166,0,0,0,.192,1.12,2.784,2.784,0,0,0,.528.888,2.469,2.469,0,0,0,.792.592,2.349,2.349,0,0,0,1.968,0,2.418,2.418,0,0,0,.792-.6,2.883,2.883,0,0,0,.528-.9,3.339,3.339,0,0,0,0-2.232,2.863,2.863,0,0,0-.528-.9,2.418,2.418,0,0,0-.792-.6,2.269,2.269,0,0,0-.984-.216,2.167,2.167,0,0,0-.968.224,2.518,2.518,0,0,0-.792.608,2.986,2.986,0,0,0-.536.9A3.071,3.071,0,0,0,61.968,106.84Zm8.72,4.16v-6.8h-1.12v-1.36h1.12V102.5a3.8,3.8,0,0,1,.72-2.448,2.372,2.372,0,0,1,1.952-.9,3.8,3.8,0,0,1,1.008.136,4.528,4.528,0,0,1,.944.376l-.384,1.312a2.426,2.426,0,0,0-.568-.24,2.247,2.247,0,0,0-.632-.1,1.093,1.093,0,0,0-.952.464,2.315,2.315,0,0,0-.328,1.344v.384h2.144v1.36H72.448V111Zm8.592.16a4.451,4.451,0,0,1-1.776-.344,4.133,4.133,0,0,1-1.368-.936,4.22,4.22,0,0,1-.88-1.376,4.458,4.458,0,0,1-.312-1.664,4.52,4.52,0,0,1,.312-1.672,4.291,4.291,0,0,1,.88-1.392,4.075,4.075,0,0,1,1.368-.944,4.493,4.493,0,0,1,1.792-.344,4.307,4.307,0,0,1,1.768.352,4.228,4.228,0,0,1,1.352.936,4,4,0,0,1,.856,1.36,4.518,4.518,0,0,1,.3,1.624q0,.192-.016.36t-.032.28h-6.7a2.865,2.865,0,0,0,.264,1.008,2.653,2.653,0,0,0,.56.776,2.459,2.459,0,0,0,1.7.68,2.8,2.8,0,0,0,.7-.088,2.454,2.454,0,0,0,.632-.256,2.24,2.24,0,0,0,.512-.408,1.9,1.9,0,0,0,.352-.528l1.5.432a3.487,3.487,0,0,1-1.432,1.544A4.437,4.437,0,0,1,79.28,111.16Zm2.544-4.976a2.814,2.814,0,0,0-.264-.976,2.513,2.513,0,0,0-.552-.76,2.463,2.463,0,0,0-.784-.488,2.558,2.558,0,0,0-.944-.176,2.5,2.5,0,0,0-1.712.664,2.406,2.406,0,0,0-.544.76,2.929,2.929,0,0,0-.256.976Zm6.224,4.976a6.409,6.409,0,0,1-2.008-.328,5.092,5.092,0,0,1-1.72-.936l.7-1.12a6.5,6.5,0,0,0,1.488.824,4.2,4.2,0,0,0,1.5.28,2.21,2.21,0,0,0,1.24-.3.978.978,0,0,0,.456-.864.8.8,0,0,0-.512-.768,10.246,10.246,0,0,0-1.6-.528q-.784-.208-1.344-.4a3.459,3.459,0,0,1-.912-.448,1.573,1.573,0,0,1-.512-.592,1.887,1.887,0,0,1-.16-.816,2.507,2.507,0,0,1,.248-1.136,2.438,2.438,0,0,1,.688-.84,3.082,3.082,0,0,1,1.032-.52,4.473,4.473,0,0,1,1.28-.176,5.251,5.251,0,0,1,1.76.288,4.58,4.58,0,0,1,1.456.832l-.752,1.056a3.923,3.923,0,0,0-2.48-.928,2.119,2.119,0,0,0-1.128.28.965.965,0,0,0-.456.888.892.892,0,0,0,.1.432.815.815,0,0,0,.312.3,2.57,2.57,0,0,0,.56.232q.344.1.856.232.848.208,1.464.416a4.008,4.008,0,0,1,1.016.488,1.81,1.81,0,0,1,.592.656,1.967,1.967,0,0,1,.192.9,2.264,2.264,0,0,1-.9,1.9A3.929,3.929,0,0,1,88.048,111.16Zm7.936,0a6.409,6.409,0,0,1-2.008-.328,5.092,5.092,0,0,1-1.72-.936l.7-1.12a6.5,6.5,0,0,0,1.488.824,4.2,4.2,0,0,0,1.5.28,2.21,2.21,0,0,0,1.24-.3.978.978,0,0,0,.456-.864.8.8,0,0,0-.512-.768,10.246,10.246,0,0,0-1.6-.528q-.784-.208-1.344-.4a3.459,3.459,0,0,1-.912-.448,1.573,1.573,0,0,1-.512-.592,1.887,1.887,0,0,1-.16-.816,2.507,2.507,0,0,1,.248-1.136,2.438,2.438,0,0,1,.688-.84,3.082,3.082,0,0,1,1.032-.52,4.473,4.473,0,0,1,1.28-.176,5.251,5.251,0,0,1,1.76.288,4.58,4.58,0,0,1,1.456.832l-.752,1.056a3.923,3.923,0,0,0-2.48-.928,2.119,2.119,0,0,0-1.128.28.965.965,0,0,0-.456.888.892.892,0,0,0,.1.432.815.815,0,0,0,.312.3,2.57,2.57,0,0,0,.56.232q.344.1.856.232.848.208,1.464.416a4.008,4.008,0,0,1,1.016.488,1.81,1.81,0,0,1,.592.656,1.967,1.967,0,0,1,.192.9,2.264,2.264,0,0,1-.9,1.9A3.929,3.929,0,0,1,95.984,111.16Zm4.9-.16v-8.368h1.76V111Zm0-9.744V99.32h1.76v1.936Zm7.632,9.9a4.347,4.347,0,0,1-1.784-.352,4.1,4.1,0,0,1-2.216-2.328,4.662,4.662,0,0,1,0-3.312,4.1,4.1,0,0,1,.872-1.384,4.258,4.258,0,0,1,1.36-.944,4.616,4.616,0,0,1,3.536,0,4.258,4.258,0,0,1,1.36.944,4.1,4.1,0,0,1,.872,1.384,4.662,4.662,0,0,1,0,3.312,4.1,4.1,0,0,1-.872,1.384,4.258,4.258,0,0,1-1.36.944A4.307,4.307,0,0,1,108.512,111.16Zm-2.5-4.32a3.166,3.166,0,0,0,.192,1.12,2.784,2.784,0,0,0,.528.888,2.469,2.469,0,0,0,.792.592,2.349,2.349,0,0,0,1.968,0,2.418,2.418,0,0,0,.792-.6,2.883,2.883,0,0,0,.528-.9,3.339,3.339,0,0,0,0-2.232,2.863,2.863,0,0,0-.528-.9,2.418,2.418,0,0,0-.792-.6,2.269,2.269,0,0,0-.984-.216,2.167,2.167,0,0,0-.968.224,2.517,2.517,0,0,0-.792.608,2.986,2.986,0,0,0-.536.9A3.071,3.071,0,0,0,106.016,106.84ZM121.888,111h-1.76v-4.688a3.056,3.056,0,0,0-.376-1.72,1.271,1.271,0,0,0-1.112-.536,2.174,2.174,0,0,0-.768.144,2.69,2.69,0,0,0-.72.408,3.178,3.178,0,0,0-.6.624,2.859,2.859,0,0,0-.408.792V111h-1.76v-8.368h1.6v1.68a3.4,3.4,0,0,1,1.392-1.336,4.2,4.2,0,0,1,2.016-.488,2.479,2.479,0,0,1,1.232.272,2.035,2.035,0,0,1,.76.744,3.255,3.255,0,0,1,.392,1.088,7.284,7.284,0,0,1,.112,1.3Zm4.272.16a3.116,3.116,0,0,1-1.128-.2,2.726,2.726,0,0,1-.9-.552,2.574,2.574,0,0,1-.592-.832,2.5,2.5,0,0,1-.216-1.04,2.242,2.242,0,0,1,.256-1.072,2.505,2.505,0,0,1,.728-.832,3.534,3.534,0,0,1,1.12-.544,5.028,5.028,0,0,1,1.432-.192,6.56,6.56,0,0,1,1.168.1,5.882,5.882,0,0,1,1.04.28V105.7a1.94,1.94,0,0,0-.528-1.448,2.076,2.076,0,0,0-1.52-.52,3.665,3.665,0,0,0-1.32.248,6.678,6.678,0,0,0-1.336.712l-.544-1.12a5.933,5.933,0,0,1,3.36-1.088,3.832,3.832,0,0,1,2.688.88,3.257,3.257,0,0,1,.96,2.528v3.024q0,.56.464.576V111q-.256.048-.44.064t-.36.016a1.132,1.132,0,0,1-.792-.256,1.1,1.1,0,0,1-.344-.656l-.048-.528a3.731,3.731,0,0,1-1.384,1.128A4.063,4.063,0,0,1,126.16,111.16Zm.48-1.3a3.164,3.164,0,0,0,1.208-.232,2.083,2.083,0,0,0,.888-.648.812.812,0,0,0,.336-.608v-1.1a5.32,5.32,0,0,0-.952-.272,5.253,5.253,0,0,0-.984-.1,2.691,2.691,0,0,0-1.544.408,1.25,1.25,0,0,0-.6,1.08,1.363,1.363,0,0,0,.464,1.048A1.687,1.687,0,0,0,126.64,109.864Zm6.336-10.544h1.76v9.264a1.042,1.042,0,0,0,.24.728.862.862,0,0,0,.672.264,1.561,1.561,0,0,0,.408-.064q.232-.064.44-.144l.256,1.376a4.1,4.1,0,0,1-.912.28,4.941,4.941,0,0,1-.944.1,1.933,1.933,0,0,1-1.416-.5,1.887,1.887,0,0,1-.5-1.408Zm11.3,11.84a6.409,6.409,0,0,1-2.008-.328,5.092,5.092,0,0,1-1.72-.936l.7-1.12a6.5,6.5,0,0,0,1.488.824,4.2,4.2,0,0,0,1.5.28,2.21,2.21,0,0,0,1.24-.3.978.978,0,0,0,.456-.864.8.8,0,0,0-.512-.768,10.245,10.245,0,0,0-1.6-.528q-.784-.208-1.344-.4a3.459,3.459,0,0,1-.912-.448,1.573,1.573,0,0,1-.512-.592,1.887,1.887,0,0,1-.16-.816,2.507,2.507,0,0,1,.248-1.136,2.438,2.438,0,0,1,.688-.84,3.082,3.082,0,0,1,1.032-.52,4.473,4.473,0,0,1,1.28-.176,5.251,5.251,0,0,1,1.76.288,4.58,4.58,0,0,1,1.456.832l-.752,1.056a3.923,3.923,0,0,0-2.48-.928,2.119,2.119,0,0,0-1.128.28.965.965,0,0,0-.456.888.892.892,0,0,0,.1.432.815.815,0,0,0,.312.3,2.57,2.57,0,0,0,.56.232q.344.1.856.232.848.208,1.464.416a4.008,4.008,0,0,1,1.016.488,1.81,1.81,0,0,1,.592.656,1.967,1.967,0,0,1,.192.9,2.264,2.264,0,0,1-.9,1.9A3.929,3.929,0,0,1,144.272,111.16Zm8.688,0a4.451,4.451,0,0,1-1.776-.344,4.133,4.133,0,0,1-1.368-.936,4.22,4.22,0,0,1-.88-1.376,4.458,4.458,0,0,1-.312-1.664,4.52,4.52,0,0,1,.312-1.672,4.291,4.291,0,0,1,.88-1.392,4.075,4.075,0,0,1,1.368-.944,4.493,4.493,0,0,1,1.792-.344,4.307,4.307,0,0,1,1.768.352,4.227,4.227,0,0,1,1.352.936,4,4,0,0,1,.856,1.36,4.518,4.518,0,0,1,.3,1.624q0,.192-.016.36t-.032.28h-6.7a2.865,2.865,0,0,0,.264,1.008,2.653,2.653,0,0,0,.56.776,2.459,2.459,0,0,0,1.7.68,2.8,2.8,0,0,0,.7-.088,2.454,2.454,0,0,0,.632-.256,2.24,2.24,0,0,0,.512-.408,1.9,1.9,0,0,0,.352-.528l1.5.432a3.487,3.487,0,0,1-1.432,1.544A4.437,4.437,0,0,1,152.96,111.16Zm2.544-4.976a2.814,2.814,0,0,0-.264-.976,2.513,2.513,0,0,0-.552-.76,2.463,2.463,0,0,0-.784-.488,2.559,2.559,0,0,0-.944-.176,2.5,2.5,0,0,0-1.712.664,2.406,2.406,0,0,0-.544.76,2.929,2.929,0,0,0-.256.976Zm7.888-2.032a3.936,3.936,0,0,0-1.816.472,2.487,2.487,0,0,0-1.128,1.256V111h-1.76v-8.368h1.632V104.5a3.827,3.827,0,0,1,1.128-1.384,2.736,2.736,0,0,1,1.5-.568h.264a.945.945,0,0,1,.184.016ZM167.024,111l-3.2-8.368h1.808l2.4,6.88,2.416-6.88h1.664l-3.2,8.368Zm6.336,0v-8.368h1.76V111Zm0-9.744V99.32h1.76v1.936Zm3.328,5.552a4.562,4.562,0,0,1,.3-1.664,4.077,4.077,0,0,1,2.24-2.312,4.493,4.493,0,0,1,1.792-.344,4.221,4.221,0,0,1,2.232.568,3.6,3.6,0,0,1,1.4,1.512l-1.712.544a2.2,2.2,0,0,0-.816-.824,2.229,2.229,0,0,0-1.136-.3,2.343,2.343,0,0,0-.984.208,2.371,2.371,0,0,0-.792.584,2.784,2.784,0,0,0-.528.888,3.214,3.214,0,0,0-.192,1.136,3.116,3.116,0,0,0,.2,1.128,2.9,2.9,0,0,0,.544.9,2.505,2.505,0,0,0,.8.6,2.233,2.233,0,0,0,.968.216,2.4,2.4,0,0,0,.64-.088,2.288,2.288,0,0,0,1.048-.616,1.393,1.393,0,0,0,.3-.448l1.728.512a3.422,3.422,0,0,1-1.392,1.544,4.312,4.312,0,0,1-2.3.6,4.363,4.363,0,0,1-1.776-.352,4.174,4.174,0,0,1-1.368-.952,4.312,4.312,0,0,1-.88-1.384A4.458,4.458,0,0,1,176.688,106.808Zm13.2,4.352a4.451,4.451,0,0,1-1.776-.344,4.133,4.133,0,0,1-1.368-.936,4.22,4.22,0,0,1-.88-1.376,4.458,4.458,0,0,1-.312-1.664,4.52,4.52,0,0,1,.312-1.672,4.291,4.291,0,0,1,.88-1.392,4.075,4.075,0,0,1,1.368-.944,4.493,4.493,0,0,1,1.792-.344,4.307,4.307,0,0,1,1.768.352,4.227,4.227,0,0,1,1.352.936,4,4,0,0,1,.856,1.36,4.518,4.518,0,0,1,.3,1.624q0,.192-.016.36t-.032.28h-6.7a2.865,2.865,0,0,0,.264,1.008,2.653,2.653,0,0,0,.56.776,2.459,2.459,0,0,0,1.7.68,2.8,2.8,0,0,0,.7-.088,2.454,2.454,0,0,0,.632-.256,2.24,2.24,0,0,0,.512-.408,1.9,1.9,0,0,0,.352-.528l1.5.432a3.487,3.487,0,0,1-1.432,1.544A4.437,4.437,0,0,1,189.888,111.16Zm2.544-4.976a2.814,2.814,0,0,0-.264-.976,2.513,2.513,0,0,0-.552-.76,2.463,2.463,0,0,0-.784-.488,2.559,2.559,0,0,0-.944-.176,2.5,2.5,0,0,0-1.712.664,2.406,2.406,0,0,0-.544.76,2.929,2.929,0,0,0-.256.976Zm3.1,4.816v-2.048h1.456V111Z" transform="translate(743 3551.942)" fill="#fff"/>
    <path id="Path_2608" data-name="Path 2608" d="M13.368-4.848c0-5.9-8.592-4.032-8.592-7.392,0-1.368.984-2.016,2.3-1.968a2.212,2.212,0,0,1,2.4,1.992h3.7c-.216-3.024-2.568-4.776-6-4.776-3.456,0-5.9,1.824-5.9,4.848C1.248-6.072,9.888-8.256,9.888-4.632c0,1.2-.936,2.04-2.52,2.04A2.3,2.3,0,0,1,4.824-4.824h-3.6C1.272-1.656,3.96.168,7.44.168,11.256.168,13.368-2.208,13.368-4.848Zm8.616-5.9A2.954,2.954,0,0,1,25.152-7.9H18.84A3.088,3.088,0,0,1,21.984-10.752ZM28.3-4.176H24.672a2.74,2.74,0,0,1-2.664,1.608A3.111,3.111,0,0,1,18.816-5.64h9.72a7.853,7.853,0,0,0,.1-1.3,6.242,6.242,0,0,0-6.552-6.576c-3.936,0-6.672,2.664-6.672,6.864,0,4.176,2.808,6.864,6.672,6.864A6.18,6.18,0,0,0,28.3-4.176ZM34.44-6.624c0-2.568,1.2-3.336,3.192-3.336h.888v-3.528a4.611,4.611,0,0,0-4.08,2.256V-13.3H31.08V0h3.36ZM39.36-13.3,44.256,0h4.08l4.92-13.3H49.68L46.32-3.1,42.96-13.3ZM55.152,0h3.36V-13.3h-3.36Zm1.7-14.88a1.985,1.985,0,0,0,2.064-1.968,1.985,1.985,0,0,0-2.064-1.968,1.97,1.97,0,0,0-2.064,1.968A1.97,1.97,0,0,0,56.856-14.88Zm4.1,8.232C60.96-2.472,63.7.216,67.536.216a6.065,6.065,0,0,0,6.264-4.7H70.176a2.536,2.536,0,0,1-2.664,1.824c-1.872,0-3.12-1.392-3.12-3.984s1.248-4.008,3.12-4.008a2.612,2.612,0,0,1,2.664,1.848H73.8c-.72-2.976-2.952-4.7-6.264-4.7C63.7-13.512,60.96-10.824,60.96-6.648Zm21.024-4.1A2.954,2.954,0,0,1,85.152-7.9H78.84A3.088,3.088,0,0,1,81.984-10.752ZM88.3-4.176H84.672a2.74,2.74,0,0,1-2.664,1.608A3.111,3.111,0,0,1,78.816-5.64h9.72a7.853,7.853,0,0,0,.1-1.3,6.242,6.242,0,0,0-6.552-6.576c-3.936,0-6.672,2.664-6.672,6.864,0,4.176,2.808,6.864,6.672,6.864A6.18,6.18,0,0,0,88.3-4.176Z" transform="translate(819 3533.442)" fill="#fff"/>
    <g id="support_1_" data-name="support (1)" transform="translate(833 3423)">
      <path id="Path_2565" data-name="Path 2565" d="M10.674,46.932a4.949,4.949,0,0,0-2.391.61A27.986,27.986,0,0,1,35.915,2.925,1.185,1.185,0,0,0,36.384.6,30.57,30.57,0,0,0,30.344,0,30.344,30.344,0,0,0,6.529,49.149a4.98,4.98,0,1,0,4.144-2.217Zm1.844,6.822a2.607,2.607,0,1,1,.764-1.844A2.59,2.59,0,0,1,12.517,53.754Zm0,0" fill="#fff"/>
      <path id="Path_2566" data-name="Path 2566" d="M228.233,39.789a4.968,4.968,0,1,0-1.752,1.608A27.986,27.986,0,0,1,198.9,86.025a1.185,1.185,0,1,0-.465,2.325,30.591,30.591,0,0,0,5.983.59,30.344,30.344,0,0,0,23.813-49.151Zm-5.987-.916a2.608,2.608,0,1,1,1.844.764,2.591,2.591,0,0,1-1.844-.764Zm0,0" transform="translate(-174.076 -28.252)" fill="#fff"/>
      <path id="Path_2567" data-name="Path 2567" d="M90.668,115.96a1.186,1.186,0,0,0,1.185,1.185h7.411a1.185,1.185,0,0,0,1.185-1.185v-2.3a18.561,18.561,0,0,0,4.449-1.844l1.622,1.622a1.185,1.185,0,0,0,1.677,0l5.239-5.242a1.186,1.186,0,0,0,0-1.676l-1.621-1.621a18.562,18.562,0,0,0,1.844-4.449h2.289a1.185,1.185,0,0,0,1.185-1.185V91.856a1.185,1.185,0,0,0-1.185-1.185h-2.29a18.564,18.564,0,0,0-1.843-4.448l1.612-1.612a1.185,1.185,0,0,0,0-1.677L108.184,77.7a1.185,1.185,0,0,0-1.676,0l-1.609,1.61a18.562,18.562,0,0,0-4.449-1.844V75.185A1.185,1.185,0,0,0,99.264,74H91.853a1.186,1.186,0,0,0-1.185,1.185v2.277a18.545,18.545,0,0,0-4.448,1.843l-1.61-1.61a1.186,1.186,0,0,0-1.676,0l-5.242,5.239a1.185,1.185,0,0,0,0,1.677L79.3,86.223a18.558,18.558,0,0,0-1.844,4.448H75.174a1.185,1.185,0,0,0-1.185,1.185l0,7.411a1.185,1.185,0,0,0,1.185,1.186h2.289A18.561,18.561,0,0,0,79.3,104.9l-1.621,1.621a1.185,1.185,0,0,0,0,1.676l5.239,5.242a1.186,1.186,0,0,0,.838.348h0a1.185,1.185,0,0,0,.838-.347l1.622-1.622a18.577,18.577,0,0,0,4.449,1.844Zm-3.984-6.635a1.186,1.186,0,0,0-1.482.157l-1.443,1.443L80.2,107.361l1.442-1.442a1.185,1.185,0,0,0,.157-1.481,16.224,16.224,0,0,1-2.245-5.419,1.186,1.186,0,0,0-1.159-.936H76.355l0-5.041h2.033a1.185,1.185,0,0,0,1.159-.936A16.226,16.226,0,0,1,81.8,86.687a1.185,1.185,0,0,0-.157-1.481l-1.433-1.433,3.566-3.563L85.2,81.642a1.186,1.186,0,0,0,1.482.157A16.218,16.218,0,0,1,92.1,79.554a1.186,1.186,0,0,0,.936-1.159V76.371h5.041v2.024a1.185,1.185,0,0,0,.936,1.159,16.231,16.231,0,0,1,5.418,2.245,1.184,1.184,0,0,0,1.481-.157l1.432-1.431,3.566,3.563-1.433,1.433a1.185,1.185,0,0,0-.157,1.482,16.235,16.235,0,0,1,2.245,5.418,1.185,1.185,0,0,0,1.159.936h2.037v5.041h-2.037a1.186,1.186,0,0,0-1.159.936,16.222,16.222,0,0,1-2.245,5.418,1.186,1.186,0,0,0,.157,1.482l1.442,1.442-3.563,3.566-1.443-1.443a1.185,1.185,0,0,0-1.482-.157,16.236,16.236,0,0,1-5.418,2.245,1.185,1.185,0,0,0-.936,1.159v2.045H93.038V112.73a1.186,1.186,0,0,0-.936-1.159,16.226,16.226,0,0,1-5.418-2.245Zm0,0" transform="translate(-65.215 -65.229)" fill="#fff"/>
      <path id="Path_2568" data-name="Path 2568" d="M192.96,183.165a9.794,9.794,0,1,0-9.794,9.794A9.805,9.805,0,0,0,192.96,183.165Zm-17.218,0a7.424,7.424,0,1,1,7.424,7.424A7.432,7.432,0,0,1,175.742,183.165Zm0,0" transform="translate(-152.821 -152.822)" fill="#fff"/>
      <path id="Path_2569" data-name="Path 2569" d="M339.263,20.181a1.186,1.186,0,1,0-.838-.347A1.194,1.194,0,0,0,339.263,20.181Zm0,0" transform="translate(-298.005 -15.698)" fill="#fff"/>
      <path id="Path_2570" data-name="Path 2570" d="M155.544,474.359a1.186,1.186,0,1,0,.838.347A1.195,1.195,0,0,0,155.544,474.359Zm0,0" transform="translate(-136.063 -418.133)" fill="#fff"/>
    </g>
  </g>
</svg>
