<svg xmlns="http://www.w3.org/2000/svg" xmlns:xlink="http://www.w3.org/1999/xlink" width="24" height="24" viewBox="0 0 24 24">
  <defs>
    <linearGradient id="linear-gradient" x1="2.21" y1="-1.458" x2="-0.753" y2="2.057" gradientUnits="objectBoundingBox">
      <stop offset="0" stop-color="#f20bf5"/>
      <stop offset="1" stop-color="#22bff2"/>
    </linearGradient>
  </defs>
  <g id="Group_1904" data-name="Group 1904" transform="translate(-92 -625)">
    <circle id="Ellipse_3007" data-name="Ellipse 3007" cx="12" cy="12" r="12" transform="translate(92 625)" fill="url(#linear-gradient)"/>
    <g id="question" transform="translate(99 632)">
      <path id="Path_1505" data-name="Path 1505" d="M205.356,201.83a3.537,3.537,0,0,0-1.94-3.15,4.81,4.81,0,0,1-4.736,4.736,3.527,3.527,0,0,0,4.944,1.45l1.717.475-.475-1.717A3.514,3.514,0,0,0,205.356,201.83Zm0,0" transform="translate(-194.447 -194.447)" fill="#fff"/>
      <path id="Path_1506" data-name="Path 1506" d="M8.331,4.166A4.166,4.166,0,1,0,.578,6.283L.015,8.316l2.033-.562A4.166,4.166,0,0,0,8.331,4.166ZM3.526,3.2H2.887a1.278,1.278,0,1,1,2.141.943l-.543.5v.5H3.846v-.78L4.6,3.668A.633.633,0,0,0,4.8,3.2a.639.639,0,1,0-1.278,0Zm.32,2.578h.639v.639H3.846Zm0,0" fill="#fff"/>
    </g>
  </g>
</svg>
