<svg xmlns="http://www.w3.org/2000/svg" width="382.224" height="83.408" viewBox="0 0 382.224 83.408">
  <g id="Group_1937" data-name="Group 1937" transform="translate(-765 -2248)">
    <path id="Path_2039" data-name="Path 2039" d="M-101.95-12.04h3.72V0h2.28V-12.04h3.7V-13.9h-9.7ZM-87.67-5.8c0-2.34,1.04-3.04,2.72-3.04h.58V-11.2a3.59,3.59,0,0,0-3.3,1.78v-1.6h-2.28V0h2.28Zm4.64.24c0,3.4,2.3,5.74,5.16,5.74a4.743,4.743,0,0,0,3.86-1.82V0h2.3V-11.02h-2.3v1.6a4.691,4.691,0,0,0-3.82-1.78C-80.73-11.2-83.03-8.96-83.03-5.56Zm9.02.04A3.424,3.424,0,0,1-77.35-1.8a3.472,3.472,0,0,1-3.34-3.76,3.381,3.381,0,0,1,3.34-3.66A3.417,3.417,0,0,1-74.01-5.52ZM-68.43,0h2.3V-9.16h2.04v-1.86h-2.04v-.78c0-1.26.48-1.74,1.88-1.74v-1.9c-2.88,0-4.18,1.1-4.18,3.64v.78h-1.3v1.86h1.3Zm6.64,0h2.3V-9.16h2.04v-1.86h-2.04v-.78c0-1.26.48-1.74,1.88-1.74v-1.9c-2.88,0-4.18,1.1-4.18,3.64v.78h-1.3v1.86h1.3Zm6.36,0h2.28V-11.02h-2.28Zm1.16-12.48a1.439,1.439,0,0,0,1.44-1.46,1.439,1.439,0,0,0-1.44-1.46,1.443,1.443,0,0,0-1.46,1.46A1.443,1.443,0,0,0-54.27-12.48Zm3.36,6.96c0,3.46,2.24,5.7,5.4,5.7a4.95,4.95,0,0,0,5.08-3.66h-2.46a2.517,2.517,0,0,1-2.62,1.74c-1.84,0-3.06-1.36-3.06-3.78,0-2.4,1.22-3.76,3.06-3.76a2.575,2.575,0,0,1,2.62,1.74h2.46a4.794,4.794,0,0,0-5.08-3.66C-48.67-11.2-50.91-8.96-50.91-5.52ZM-32.95,0h2.28V-9.52L-26.41,0h1.58l4.24-9.52V0h2.28V-13.9h-2.44L-25.61-3l-4.88-10.9h-2.46Zm16.88-5.56c0,3.4,2.3,5.74,5.16,5.74A4.743,4.743,0,0,0-7.05-1.64V0h2.3V-11.02h-2.3v1.6a4.691,4.691,0,0,0-3.82-1.78C-13.77-11.2-16.07-8.96-16.07-5.56Zm9.02.04A3.424,3.424,0,0,1-10.39-1.8a3.472,3.472,0,0,1-3.34-3.76,3.381,3.381,0,0,1,3.34-3.66A3.417,3.417,0,0,1-7.05-5.52ZM6.07,0H8.33V-6.5c0-3.08-1.94-4.7-4.52-4.7A4.239,4.239,0,0,0,.53-9.76v-1.26H-1.75V0H.53V-6.16c0-2.02,1.1-3.06,2.78-3.06,1.66,0,2.76,1.04,2.76,3.06Zm4.4-5.56c0,3.4,2.3,5.74,5.16,5.74a4.743,4.743,0,0,0,3.86-1.82V0h2.3V-11.02h-2.3v1.6a4.691,4.691,0,0,0-3.82-1.78C12.77-11.2,10.47-8.96,10.47-5.56Zm9.02.04A3.424,3.424,0,0,1,16.15-1.8a3.472,3.472,0,0,1-3.34-3.76,3.381,3.381,0,0,1,3.34-3.66A3.417,3.417,0,0,1,19.49-5.52Zm4.54-.04c0,3.4,2.3,5.74,5.2,5.74a4.731,4.731,0,0,0,3.82-1.84V.18a2.936,2.936,0,0,1-3.08,3.28,3.072,3.072,0,0,1-3.14-1.92H24.57c.28,2.44,2.46,3.9,5.4,3.9A5,5,0,0,0,35.35.18v-11.2h-2.3v1.6a4.668,4.668,0,0,0-3.82-1.78C26.33-11.2,24.03-8.96,24.03-5.56Zm9.02.04A3.424,3.424,0,0,1,29.71-1.8a3.472,3.472,0,0,1-3.34-3.76,3.381,3.381,0,0,1,3.34-3.66A3.417,3.417,0,0,1,33.05-5.52Zm9.94-3.76A2.862,2.862,0,0,1,46.07-6.5h-6.1A3,3,0,0,1,42.99-9.28Zm5.16,6H45.69a2.668,2.668,0,0,1-2.6,1.54,3.031,3.031,0,0,1-3.14-2.92h8.42a7.033,7.033,0,0,0,.08-1.12,5.139,5.139,0,0,0-5.36-5.42c-3.26,0-5.5,2.22-5.5,5.68a5.346,5.346,0,0,0,5.5,5.7A5.035,5.035,0,0,0,48.15-3.28ZM66.31,0h2.26V-6.5a4.306,4.306,0,0,0-4.54-4.7,4.315,4.315,0,0,0-3.84,2.18,4.251,4.251,0,0,0-3.96-2.18,4.2,4.2,0,0,0-3.26,1.44v-1.26H50.69V0h2.28V-6.16c0-2.02,1.1-3.06,2.78-3.06,1.66,0,2.76,1.04,2.76,3.06V0h2.26V-6.16c0-2.02,1.1-3.06,2.78-3.06,1.66,0,2.76,1.04,2.76,3.06Zm9.8-9.28A2.862,2.862,0,0,1,79.19-6.5h-6.1A3,3,0,0,1,76.11-9.28Zm5.16,6H78.81a2.668,2.668,0,0,1-2.6,1.54,3.031,3.031,0,0,1-3.14-2.92h8.42a7.033,7.033,0,0,0,.08-1.12,5.139,5.139,0,0,0-5.36-5.42c-3.26,0-5.5,2.22-5.5,5.68a5.346,5.346,0,0,0,5.5,5.7A5.035,5.035,0,0,0,81.27-3.28ZM91.63,0h2.26V-6.5c0-3.08-1.94-4.7-4.52-4.7a4.239,4.239,0,0,0-3.28,1.44v-1.26H83.81V0h2.28V-6.16c0-2.02,1.1-3.06,2.78-3.06,1.66,0,2.76,1.04,2.76,3.06Zm5.52-3.06C97.15-.82,98.37,0,100.33,0h1.8V-1.9h-1.4c-.96,0-1.28-.34-1.28-1.16v-6.1h2.68v-1.86H99.45v-2.74h-2.3v2.74h-1.3v1.86h1.3Z" transform="translate(964 2269)" fill="#585858"/>
    <path id="Path_2040" data-name="Path 2040" d="M1.424,0V-11.36h1.12V0ZM12.176,0H11.088V-4.656a4.062,4.062,0,0,0-.44-2.16A1.5,1.5,0,0,0,9.3-7.488a2.772,2.772,0,0,0-.96.176,3.236,3.236,0,0,0-.888.5,3.8,3.8,0,0,0-.728.76,2.979,2.979,0,0,0-.464.952V0H5.168V-8.336H6.16v1.888A3.916,3.916,0,0,1,7.624-7.92,4.014,4.014,0,0,1,9.7-8.48a2.454,2.454,0,0,1,1.168.256,1.993,1.993,0,0,1,.768.72,3.317,3.317,0,0,1,.416,1.136,7.976,7.976,0,0,1,.128,1.488Zm6.24-.4q-.1.048-.28.128t-.424.16a4.963,4.963,0,0,1-.544.144,3.1,3.1,0,0,1-.64.064,2.326,2.326,0,0,1-.672-.1,1.567,1.567,0,0,1-.56-.3,1.457,1.457,0,0,1-.384-.5,1.627,1.627,0,0,1-.144-.7V-7.472H13.616v-.864h1.152v-2.816h1.088v2.816h1.92v.864h-1.92v5.664a.864.864,0,0,0,.328.68,1.124,1.124,0,0,0,.68.216,2.043,2.043,0,0,0,.816-.152,3.6,3.6,0,0,0,.448-.216Zm3.968.56a2.346,2.346,0,0,1-2.024-.9,4.536,4.536,0,0,1-.664-2.7v-4.9h1.088v4.7Q20.784-.8,22.72-.8a2.877,2.877,0,0,0,.944-.16,2.966,2.966,0,0,0,.856-.464,3.758,3.758,0,0,0,.7-.72,3.629,3.629,0,0,0,.5-.944V-8.336h1.088v6.928q0,.448.384.448V0a1.983,1.983,0,0,1-.312.032H26.72A.869.869,0,0,1,26.1-.24a.965.965,0,0,1-.24-.688v-.96a3.88,3.88,0,0,1-1.48,1.512A3.946,3.946,0,0,1,22.384.16ZM29.28,0V-8.336h1.088V0Zm0-10.08v-1.6h1.088v1.6ZM36.768-.4q-.1.048-.28.128t-.424.16a4.963,4.963,0,0,1-.544.144A3.1,3.1,0,0,1,34.88.1a2.326,2.326,0,0,1-.672-.1,1.567,1.567,0,0,1-.56-.3,1.457,1.457,0,0,1-.384-.5,1.627,1.627,0,0,1-.144-.7V-7.472H31.968v-.864H33.12v-2.816h1.088v2.816h1.92v.864h-1.92v5.664a.864.864,0,0,0,.328.68,1.124,1.124,0,0,0,.68.216,2.043,2.043,0,0,0,.816-.152,3.6,3.6,0,0,0,.448-.216Zm1.36.4V-8.336h1.088V0Zm0-10.08v-1.6h1.088v1.6ZM44.112,0,40.72-8.336h1.12L44.7-1.008l2.88-7.328H48.64L45.248,0Zm9.344.16a4.008,4.008,0,0,1-1.672-.344,4.1,4.1,0,0,1-1.32-.944,4.383,4.383,0,0,1-.872-1.384,4.5,4.5,0,0,1-.312-1.68,4.4,4.4,0,0,1,.312-1.656,4.286,4.286,0,0,1,.864-1.36,4.1,4.1,0,0,1,1.32-.928A4.024,4.024,0,0,1,53.44-8.48a4.008,4.008,0,0,1,1.672.344,3.975,3.975,0,0,1,1.3.936,4.365,4.365,0,0,1,.848,1.36,4.393,4.393,0,0,1,.3,1.632v.256a.644.644,0,0,1-.016.176H50.416a3.509,3.509,0,0,0,.312,1.24,3.408,3.408,0,0,0,.68.984A3.047,3.047,0,0,0,52.36-.9,2.849,2.849,0,0,0,53.5-.672a2.955,2.955,0,0,0,.8-.112,3.234,3.234,0,0,0,.736-.3,2.737,2.737,0,0,0,.608-.472,2.027,2.027,0,0,0,.416-.616l.944.256a2.772,2.772,0,0,1-.544.84,3.8,3.8,0,0,1-.816.656,4,4,0,0,1-1.024.432A4.439,4.439,0,0,1,53.456.16Zm3.072-4.768a3.367,3.367,0,0,0-.312-1.224,3.332,3.332,0,0,0-.672-.952,2.972,2.972,0,0,0-.944-.624,2.937,2.937,0,0,0-1.144-.224,3,3,0,0,0-1.152.224,2.949,2.949,0,0,0-.952.624,3.067,3.067,0,0,0-.656.96,3.634,3.634,0,0,0-.3,1.216ZM67.584.16A3.294,3.294,0,0,1,65.72-.376a4.263,4.263,0,0,1-1.3-1.352V3.408H63.328V-8.336H64.3V-6.72a4.04,4.04,0,0,1,1.328-1.272,3.4,3.4,0,0,1,1.776-.488,3.492,3.492,0,0,1,1.584.36,4.072,4.072,0,0,1,1.248.96,4.456,4.456,0,0,1,.824,1.384,4.539,4.539,0,0,1,.3,1.616A5.041,5.041,0,0,1,71.088-2.5a4.246,4.246,0,0,1-.776,1.376,3.732,3.732,0,0,1-1.2.936A3.4,3.4,0,0,1,67.584.16Zm-.3-.96A2.606,2.606,0,0,0,68.5-1.088a3.044,3.044,0,0,0,.944-.76,3.41,3.41,0,0,0,.6-1.072,3.759,3.759,0,0,0,.208-1.24,3.455,3.455,0,0,0-.24-1.28,3.533,3.533,0,0,0-.656-1.072,3.115,3.115,0,0,0-.984-.736,2.8,2.8,0,0,0-1.224-.272,2.521,2.521,0,0,0-.872.168,3.583,3.583,0,0,0-.848.448,3.019,3.019,0,0,0-.672.656,1.767,1.767,0,0,0-.344.792V-2.9a3.825,3.825,0,0,0,.488.832,3.443,3.443,0,0,0,.672.664,3.219,3.219,0,0,0,.808.44A2.559,2.559,0,0,0,67.28-.8ZM75.3.16a2.945,2.945,0,0,1-1.1-.2,2.766,2.766,0,0,1-.88-.552,2.5,2.5,0,0,1-.584-.824,2.491,2.491,0,0,1-.208-1.016,2.053,2.053,0,0,1,.256-1.008,2.44,2.44,0,0,1,.72-.8,3.525,3.525,0,0,1,1.1-.52,5.084,5.084,0,0,1,1.408-.184,7.69,7.69,0,0,1,1.3.112,5.617,5.617,0,0,1,1.168.32v-.752a2.42,2.42,0,0,0-.624-1.752,2.286,2.286,0,0,0-1.728-.648,3.672,3.672,0,0,0-1.312.256,6.327,6.327,0,0,0-1.36.736l-.384-.72A5.629,5.629,0,0,1,76.208-8.48a3.365,3.365,0,0,1,2.464.88,3.253,3.253,0,0,1,.9,2.432v3.76q0,.448.4.448V0a2.594,2.594,0,0,1-.416.048A.937.937,0,0,1,78.9-.16a.783.783,0,0,1-.248-.576l-.032-.656A3.781,3.781,0,0,1,77.176-.24,4.455,4.455,0,0,1,75.3.16Zm.256-.832a3.762,3.762,0,0,0,1.56-.32,2.548,2.548,0,0,0,1.08-.848,1,1,0,0,0,.216-.312.8.8,0,0,0,.072-.312v-1.36a6.669,6.669,0,0,0-1.128-.32,6.315,6.315,0,0,0-1.192-.112,3.316,3.316,0,0,0-1.872.48,1.459,1.459,0,0,0-.72,1.264,1.726,1.726,0,0,0,.152.72,1.824,1.824,0,0,0,.416.584,1.948,1.948,0,0,0,.632.392A2.132,2.132,0,0,0,75.552-.672Zm6.64,3.232q.128.016.248.024t.232.008a1.076,1.076,0,0,0,.456-.08.848.848,0,0,0,.328-.352,5.733,5.733,0,0,0,.36-.784q.2-.512.568-1.376L80.752-8.336h1.12L84.96-1.008l2.864-7.328h1.04L84.544,2.416a1.955,1.955,0,0,1-.584.808,1.671,1.671,0,0,1-1.112.344q-.16,0-.3-.008t-.352-.04ZM102.784,0H101.7V-4.656a3.9,3.9,0,0,0-.464-2.144,1.552,1.552,0,0,0-1.376-.688,2.334,2.334,0,0,0-.9.176,2.779,2.779,0,0,0-.784.5,3.4,3.4,0,0,0-.632.76,3.662,3.662,0,0,0-.416.968V0H96.032V-4.656a4,4,0,0,0-.448-2.16,1.539,1.539,0,0,0-1.376-.672,2.454,2.454,0,0,0-1.68.656A3.653,3.653,0,0,0,91.472-5.1V0H90.384V-8.336h.992v1.888a3.941,3.941,0,0,1,1.344-1.5,3.327,3.327,0,0,1,1.84-.536,2.369,2.369,0,0,1,1.688.592,2.577,2.577,0,0,1,.776,1.552A3.562,3.562,0,0,1,100.24-8.48a2.541,2.541,0,0,1,1.192.256,2.017,2.017,0,0,1,.784.728,3.41,3.41,0,0,1,.432,1.136,7.4,7.4,0,0,1,.136,1.48Zm5.9.16a4.008,4.008,0,0,1-1.672-.344,4.1,4.1,0,0,1-1.32-.944,4.384,4.384,0,0,1-.872-1.384,4.5,4.5,0,0,1-.312-1.68,4.4,4.4,0,0,1,.312-1.656,4.286,4.286,0,0,1,.864-1.36,4.1,4.1,0,0,1,1.32-.928,4.024,4.024,0,0,1,1.664-.344,4.008,4.008,0,0,1,1.672.344,3.975,3.975,0,0,1,1.3.936,4.365,4.365,0,0,1,.848,1.36,4.393,4.393,0,0,1,.3,1.632v.256a.644.644,0,0,1-.016.176h-7.136a3.509,3.509,0,0,0,.312,1.24,3.408,3.408,0,0,0,.68.984,3.047,3.047,0,0,0,.952.648,2.849,2.849,0,0,0,1.144.232,2.955,2.955,0,0,0,.8-.112,3.234,3.234,0,0,0,.736-.3,2.737,2.737,0,0,0,.608-.472,2.027,2.027,0,0,0,.416-.616l.944.256a2.772,2.772,0,0,1-.544.84,3.8,3.8,0,0,1-.816.656,4,4,0,0,1-1.024.432A4.439,4.439,0,0,1,108.688.16Zm3.072-4.768a3.367,3.367,0,0,0-.312-1.224,3.332,3.332,0,0,0-.672-.952,2.972,2.972,0,0,0-.944-.624,2.937,2.937,0,0,0-1.144-.224,3,3,0,0,0-1.152.224,2.949,2.949,0,0,0-.952.624,3.067,3.067,0,0,0-.656.96,3.634,3.634,0,0,0-.3,1.216ZM121.488,0H120.4V-4.656a4.062,4.062,0,0,0-.44-2.16,1.5,1.5,0,0,0-1.352-.672,2.772,2.772,0,0,0-.96.176,3.236,3.236,0,0,0-.888.5,3.8,3.8,0,0,0-.728.76,2.979,2.979,0,0,0-.464.952V0H114.48V-8.336h.992v1.888a3.916,3.916,0,0,1,1.464-1.472,4.014,4.014,0,0,1,2.072-.56,2.454,2.454,0,0,1,1.168.256,1.993,1.993,0,0,1,.768.72,3.317,3.317,0,0,1,.416,1.136,7.975,7.975,0,0,1,.128,1.488Zm6.24-.4q-.1.048-.28.128t-.424.16a4.964,4.964,0,0,1-.544.144,3.1,3.1,0,0,1-.64.064,2.326,2.326,0,0,1-.672-.1,1.567,1.567,0,0,1-.56-.3,1.457,1.457,0,0,1-.384-.5,1.627,1.627,0,0,1-.144-.7V-7.472h-1.152v-.864h1.152v-2.816h1.088v2.816h1.92v.864h-1.92v5.664a.864.864,0,0,0,.328.68,1.124,1.124,0,0,0,.68.216,2.043,2.043,0,0,0,.816-.152,3.6,3.6,0,0,0,.448-.216Zm5.84.4V-7.472h-1.152v-.864h1.152V-8.56a3.926,3.926,0,0,1,.656-2.408,2.122,2.122,0,0,1,1.792-.872,3.22,3.22,0,0,1,.96.144,2.787,2.787,0,0,1,.8.384l-.336.784a1.62,1.62,0,0,0-.552-.272,2.353,2.353,0,0,0-.664-.1,1.321,1.321,0,0,0-1.168.592,3.054,3.054,0,0,0-.4,1.712v.256h2.3v.864h-2.3V0Zm7.488.16a2.347,2.347,0,0,1-2.024-.9,4.536,4.536,0,0,1-.664-2.7v-4.9h1.088v4.7q0,2.832,1.936,2.832a2.877,2.877,0,0,0,.944-.16,2.966,2.966,0,0,0,.856-.464,3.758,3.758,0,0,0,.7-.72,3.628,3.628,0,0,0,.5-.944V-8.336h1.088v6.928q0,.448.384.448V0a1.983,1.983,0,0,1-.312.032h-.168a.869.869,0,0,1-.624-.272.965.965,0,0,1-.24-.688v-.96a3.88,3.88,0,0,1-1.48,1.512A3.946,3.946,0,0,1,141.056.16ZM154.96,0h-1.088V-4.656a4.062,4.062,0,0,0-.44-2.16,1.5,1.5,0,0,0-1.352-.672,2.772,2.772,0,0,0-.96.176,3.237,3.237,0,0,0-.888.5,3.8,3.8,0,0,0-.728.76,2.979,2.979,0,0,0-.464.952V0h-1.088V-8.336h.992v1.888a3.916,3.916,0,0,1,1.464-1.472,4.014,4.014,0,0,1,2.072-.56,2.454,2.454,0,0,1,1.168.256,1.993,1.993,0,0,1,.768.72,3.317,3.317,0,0,1,.416,1.136,7.976,7.976,0,0,1,.128,1.488Zm9.328,0H163.2V-4.656a4.062,4.062,0,0,0-.44-2.16,1.5,1.5,0,0,0-1.352-.672,2.772,2.772,0,0,0-.96.176,3.237,3.237,0,0,0-.888.5,3.8,3.8,0,0,0-.728.76,2.979,2.979,0,0,0-.464.952V0H157.28V-8.336h.992v1.888a3.916,3.916,0,0,1,1.464-1.472,4.014,4.014,0,0,1,2.072-.56,2.454,2.454,0,0,1,1.168.256,1.993,1.993,0,0,1,.768.72,3.317,3.317,0,0,1,.416,1.136,7.976,7.976,0,0,1,.128,1.488Zm5.92.16a4.008,4.008,0,0,1-1.672-.344,4.1,4.1,0,0,1-1.32-.944,4.383,4.383,0,0,1-.872-1.384,4.5,4.5,0,0,1-.312-1.68,4.4,4.4,0,0,1,.312-1.656,4.286,4.286,0,0,1,.864-1.36,4.1,4.1,0,0,1,1.32-.928,4.024,4.024,0,0,1,1.664-.344,4.008,4.008,0,0,1,1.672.344,3.975,3.975,0,0,1,1.3.936,4.365,4.365,0,0,1,.848,1.36,4.393,4.393,0,0,1,.3,1.632v.256a.644.644,0,0,1-.016.176h-7.136a3.509,3.509,0,0,0,.312,1.24,3.408,3.408,0,0,0,.68.984,3.047,3.047,0,0,0,.952.648,2.849,2.849,0,0,0,1.144.232,2.955,2.955,0,0,0,.8-.112,3.234,3.234,0,0,0,.736-.3,2.737,2.737,0,0,0,.608-.472,2.027,2.027,0,0,0,.416-.616l.944.256a2.772,2.772,0,0,1-.544.84,3.8,3.8,0,0,1-.816.656,4,4,0,0,1-1.024.432A4.439,4.439,0,0,1,170.208.16Zm3.072-4.768a3.366,3.366,0,0,0-.312-1.224,3.332,3.332,0,0,0-.672-.952,2.972,2.972,0,0,0-.944-.624,2.937,2.937,0,0,0-1.144-.224,3,3,0,0,0-1.152.224,2.949,2.949,0,0,0-.952.624,3.067,3.067,0,0,0-.656.96,3.634,3.634,0,0,0-.3,1.216Zm2.768-7.072h1.088v9.792a1,1,0,0,0,.256.728.956.956,0,0,0,.72.264,2.163,2.163,0,0,0,.416-.048,2.747,2.747,0,0,0,.448-.128l.192.88a3.591,3.591,0,0,1-.744.208,4.336,4.336,0,0,1-.76.08,1.617,1.617,0,0,1-1.184-.424,1.594,1.594,0,0,1-.432-1.192ZM183.936,0V-8.336h1.088V0Zm0-10.08v-1.6h1.088v1.6ZM194.432,0h-1.088V-4.656a4.062,4.062,0,0,0-.44-2.16,1.5,1.5,0,0,0-1.352-.672,2.772,2.772,0,0,0-.96.176,3.237,3.237,0,0,0-.888.5,3.8,3.8,0,0,0-.728.76,2.979,2.979,0,0,0-.464.952V0h-1.088V-8.336h.992v1.888A3.916,3.916,0,0,1,189.88-7.92a4.014,4.014,0,0,1,2.072-.56,2.454,2.454,0,0,1,1.168.256,1.993,1.993,0,0,1,.768.72,3.317,3.317,0,0,1,.416,1.136,7.976,7.976,0,0,1,.128,1.488Zm1.744-4.192a4.562,4.562,0,0,1,.3-1.664,4.155,4.155,0,0,1,.856-1.368,4,4,0,0,1,1.32-.92,4.186,4.186,0,0,1,1.7-.336,3.889,3.889,0,0,1,2.064.536A3.443,3.443,0,0,1,203.744-6.5l-1.056.336a2.535,2.535,0,0,0-.984-1,2.779,2.779,0,0,0-1.4-.36,2.8,2.8,0,0,0-1.192.256,3.04,3.04,0,0,0-.96.7,3.2,3.2,0,0,0-.64,1.048,3.7,3.7,0,0,0-.232,1.328,3.667,3.667,0,0,0,.24,1.328,3.388,3.388,0,0,0,.656,1.08,3.123,3.123,0,0,0,.968.72A2.691,2.691,0,0,0,200.32-.8a2.87,2.87,0,0,0,.792-.112,3.059,3.059,0,0,0,.728-.312,2.619,2.619,0,0,0,.576-.456,1.482,1.482,0,0,0,.336-.544l1.072.32a2.727,2.727,0,0,1-.512.824,3.532,3.532,0,0,1-.792.656,3.886,3.886,0,0,1-1.008.432,4.289,4.289,0,0,1-1.144.152,4.063,4.063,0,0,1-1.68-.344,4.073,4.073,0,0,1-1.328-.944,4.383,4.383,0,0,1-.872-1.384A4.5,4.5,0,0,1,196.176-4.192ZM209.7-7.376a3.422,3.422,0,0,0-1.92.608,3.066,3.066,0,0,0-1.152,1.584V0h-1.088V-8.336h1.024v2a3.792,3.792,0,0,1,1.248-1.5,2.892,2.892,0,0,1,1.68-.544,1.1,1.1,0,0,1,.208.016ZM214.336.16a4.008,4.008,0,0,1-1.672-.344,4.1,4.1,0,0,1-1.32-.944,4.383,4.383,0,0,1-.872-1.384,4.5,4.5,0,0,1-.312-1.68,4.4,4.4,0,0,1,.312-1.656,4.286,4.286,0,0,1,.864-1.36,4.1,4.1,0,0,1,1.32-.928,4.024,4.024,0,0,1,1.664-.344,4.008,4.008,0,0,1,1.672.344,3.975,3.975,0,0,1,1.3.936,4.365,4.365,0,0,1,.848,1.36,4.393,4.393,0,0,1,.3,1.632v.256a.644.644,0,0,1-.016.176H211.3a3.509,3.509,0,0,0,.312,1.24,3.408,3.408,0,0,0,.68.984,3.047,3.047,0,0,0,.952.648,2.849,2.849,0,0,0,1.144.232,2.955,2.955,0,0,0,.8-.112,3.234,3.234,0,0,0,.736-.3,2.737,2.737,0,0,0,.608-.472,2.027,2.027,0,0,0,.416-.616l.944.256a2.772,2.772,0,0,1-.544.84,3.8,3.8,0,0,1-.816.656A4,4,0,0,1,215.5.008,4.439,4.439,0,0,1,214.336.16Zm3.072-4.768a3.366,3.366,0,0,0-.312-1.224,3.332,3.332,0,0,0-.672-.952,2.972,2.972,0,0,0-.944-.624,2.937,2.937,0,0,0-1.144-.224,3,3,0,0,0-1.152.224,2.949,2.949,0,0,0-.952.624,3.067,3.067,0,0,0-.656.96,3.634,3.634,0,0,0-.3,1.216ZM222.224.16a2.945,2.945,0,0,1-1.1-.2,2.766,2.766,0,0,1-.88-.552,2.5,2.5,0,0,1-.584-.824,2.491,2.491,0,0,1-.208-1.016,2.053,2.053,0,0,1,.256-1.008,2.44,2.44,0,0,1,.72-.8,3.525,3.525,0,0,1,1.1-.52,5.084,5.084,0,0,1,1.408-.184,7.69,7.69,0,0,1,1.3.112,5.617,5.617,0,0,1,1.168.32v-.752a2.42,2.42,0,0,0-.624-1.752,2.286,2.286,0,0,0-1.728-.648,3.672,3.672,0,0,0-1.312.256,6.327,6.327,0,0,0-1.36.736L220-7.392a5.629,5.629,0,0,1,3.136-1.088,3.365,3.365,0,0,1,2.464.88,3.253,3.253,0,0,1,.9,2.432v3.76q0,.448.4.448V0a2.594,2.594,0,0,1-.416.048.937.937,0,0,1-.648-.208.782.782,0,0,1-.248-.576l-.032-.656A3.781,3.781,0,0,1,224.1-.24,4.455,4.455,0,0,1,222.224.16Zm.256-.832a3.762,3.762,0,0,0,1.56-.32,2.548,2.548,0,0,0,1.08-.848,1,1,0,0,0,.216-.312.8.8,0,0,0,.072-.312v-1.36a6.669,6.669,0,0,0-1.128-.32,6.315,6.315,0,0,0-1.192-.112,3.316,3.316,0,0,0-1.872.48,1.459,1.459,0,0,0-.72,1.264,1.726,1.726,0,0,0,.152.72,1.824,1.824,0,0,0,.416.584,1.948,1.948,0,0,0,.632.392A2.132,2.132,0,0,0,222.48-.672Zm9.136.832a5.8,5.8,0,0,1-1.9-.32,4.576,4.576,0,0,1-1.6-.928l.5-.736a5.424,5.424,0,0,0,1.432.864,4.2,4.2,0,0,0,1.56.288,2.816,2.816,0,0,0,1.608-.408,1.32,1.32,0,0,0,.6-1.16,1,1,0,0,0-.16-.584,1.385,1.385,0,0,0-.472-.408,3.685,3.685,0,0,0-.784-.312q-.472-.136-1.1-.28-.72-.176-1.248-.352a3.816,3.816,0,0,1-.872-.4,1.443,1.443,0,0,1-.512-.552,1.8,1.8,0,0,1-.168-.824,2.371,2.371,0,0,1,.248-1.1,2.251,2.251,0,0,1,.672-.792,3.053,3.053,0,0,1,.992-.472,4.437,4.437,0,0,1,1.208-.16,4.679,4.679,0,0,1,1.744.312,3.447,3.447,0,0,1,1.264.824l-.528.64a2.927,2.927,0,0,0-1.128-.72,4.04,4.04,0,0,0-1.384-.24,3.436,3.436,0,0,0-.8.088,1.926,1.926,0,0,0-.648.28,1.38,1.38,0,0,0-.44.488,1.442,1.442,0,0,0-.16.7,1.146,1.146,0,0,0,.112.544.956.956,0,0,0,.368.36,3,3,0,0,0,.648.272q.392.12.952.248.8.192,1.408.384a4.423,4.423,0,0,1,1.016.448,1.765,1.765,0,0,1,.616.624,1.8,1.8,0,0,1,.208.9,2.173,2.173,0,0,1-.88,1.824A3.807,3.807,0,0,1,231.616.16Zm8.624,0a4.008,4.008,0,0,1-1.672-.344,4.1,4.1,0,0,1-1.32-.944,4.383,4.383,0,0,1-.872-1.384,4.5,4.5,0,0,1-.312-1.68,4.4,4.4,0,0,1,.312-1.656,4.286,4.286,0,0,1,.864-1.36,4.1,4.1,0,0,1,1.32-.928,4.024,4.024,0,0,1,1.664-.344,4.008,4.008,0,0,1,1.672.344,3.975,3.975,0,0,1,1.3.936,4.365,4.365,0,0,1,.848,1.36,4.393,4.393,0,0,1,.3,1.632v.256a.644.644,0,0,1-.016.176H237.2a3.509,3.509,0,0,0,.312,1.24,3.408,3.408,0,0,0,.68.984,3.047,3.047,0,0,0,.952.648,2.849,2.849,0,0,0,1.144.232,2.955,2.955,0,0,0,.8-.112,3.234,3.234,0,0,0,.736-.3,2.737,2.737,0,0,0,.608-.472,2.027,2.027,0,0,0,.416-.616l.944.256a2.772,2.772,0,0,1-.544.84,3.8,3.8,0,0,1-.816.656,4,4,0,0,1-1.024.432A4.439,4.439,0,0,1,240.24.16Zm3.072-4.768A3.366,3.366,0,0,0,243-5.832a3.332,3.332,0,0,0-.672-.952,2.972,2.972,0,0,0-.944-.624,2.937,2.937,0,0,0-1.144-.224,3,3,0,0,0-1.152.224,2.949,2.949,0,0,0-.952.624,3.067,3.067,0,0,0-.656.96,3.634,3.634,0,0,0-.3,1.216ZM248.8.16a5.8,5.8,0,0,1-1.9-.32,4.576,4.576,0,0,1-1.6-.928l.5-.736a5.424,5.424,0,0,0,1.432.864,4.2,4.2,0,0,0,1.56.288,2.816,2.816,0,0,0,1.608-.408,1.32,1.32,0,0,0,.6-1.16,1,1,0,0,0-.16-.584,1.385,1.385,0,0,0-.472-.408,3.685,3.685,0,0,0-.784-.312q-.472-.136-1.1-.28-.72-.176-1.248-.352a3.816,3.816,0,0,1-.872-.4,1.443,1.443,0,0,1-.512-.552,1.8,1.8,0,0,1-.168-.824,2.371,2.371,0,0,1,.248-1.1,2.251,2.251,0,0,1,.672-.792,3.053,3.053,0,0,1,.992-.472,4.437,4.437,0,0,1,1.208-.16,4.679,4.679,0,0,1,1.744.312,3.447,3.447,0,0,1,1.264.824l-.528.64a2.927,2.927,0,0,0-1.128-.72,4.04,4.04,0,0,0-1.384-.24,3.436,3.436,0,0,0-.8.088,1.926,1.926,0,0,0-.648.28,1.379,1.379,0,0,0-.44.488,1.442,1.442,0,0,0-.16.7,1.146,1.146,0,0,0,.112.544.956.956,0,0,0,.368.36,3,3,0,0,0,.648.272q.392.12.952.248.8.192,1.408.384a4.423,4.423,0,0,1,1.016.448,1.765,1.765,0,0,1,.616.624,1.8,1.8,0,0,1,.208.9,2.173,2.173,0,0,1-.88,1.824A3.807,3.807,0,0,1,248.8.16ZM5.36,20.624a3.422,3.422,0,0,0-1.92.608,3.066,3.066,0,0,0-1.152,1.584V28H1.2V19.664H2.224v2a3.792,3.792,0,0,1,1.248-1.5,2.893,2.893,0,0,1,1.68-.544,1.1,1.1,0,0,1,.208.016ZM10,28.16a4.008,4.008,0,0,1-1.672-.344,4.1,4.1,0,0,1-1.32-.944,4.383,4.383,0,0,1-.872-1.384,4.5,4.5,0,0,1-.312-1.68,4.4,4.4,0,0,1,.312-1.656A4.286,4.286,0,0,1,7,20.792a4.1,4.1,0,0,1,1.32-.928,4.216,4.216,0,0,1,3.336,0,3.975,3.975,0,0,1,1.3.936,4.395,4.395,0,0,1,1.152,2.992v.256a.644.644,0,0,1-.016.176H6.96a3.509,3.509,0,0,0,.312,1.24,3.408,3.408,0,0,0,.68.984A3.047,3.047,0,0,0,8.9,27.1a2.849,2.849,0,0,0,1.144.232,2.955,2.955,0,0,0,.8-.112,3.234,3.234,0,0,0,.736-.3,2.737,2.737,0,0,0,.608-.472,2.027,2.027,0,0,0,.416-.616l.944.256a2.772,2.772,0,0,1-.544.84,3.8,3.8,0,0,1-.816.656,4,4,0,0,1-1.024.432A4.439,4.439,0,0,1,10,28.16Zm3.072-4.768a3.366,3.366,0,0,0-.312-1.224,3.332,3.332,0,0,0-.672-.952,2.972,2.972,0,0,0-.944-.624A2.937,2.937,0,0,0,10,20.368a3,3,0,0,0-1.152.224,2.949,2.949,0,0,0-.952.624,3.067,3.067,0,0,0-.656.96,3.634,3.634,0,0,0-.3,1.216ZM18.064,28l-3.392-8.336h1.12l2.864,7.328,2.88-7.328h1.056L19.2,28Zm9.344.16a4.008,4.008,0,0,1-1.672-.344,4.1,4.1,0,0,1-1.32-.944,4.383,4.383,0,0,1-.872-1.384,4.5,4.5,0,0,1-.312-1.68,4.4,4.4,0,0,1,.312-1.656,4.286,4.286,0,0,1,.864-1.36,4.1,4.1,0,0,1,1.32-.928,4.216,4.216,0,0,1,3.336,0,3.975,3.975,0,0,1,1.3.936,4.395,4.395,0,0,1,1.152,2.992v.256a.644.644,0,0,1-.016.176H24.368a3.509,3.509,0,0,0,.312,1.24,3.408,3.408,0,0,0,.68.984,3.047,3.047,0,0,0,.952.648,2.849,2.849,0,0,0,1.144.232,2.955,2.955,0,0,0,.8-.112,3.234,3.234,0,0,0,.736-.3,2.737,2.737,0,0,0,.608-.472,2.027,2.027,0,0,0,.416-.616l.944.256a2.772,2.772,0,0,1-.544.84,3.8,3.8,0,0,1-.816.656,4,4,0,0,1-1.024.432A4.439,4.439,0,0,1,27.408,28.16Zm3.072-4.768a3.366,3.366,0,0,0-.312-1.224,3.332,3.332,0,0,0-.672-.952,2.972,2.972,0,0,0-.944-.624,2.937,2.937,0,0,0-1.144-.224,3,3,0,0,0-1.152.224,2.949,2.949,0,0,0-.952.624,3.067,3.067,0,0,0-.656.96,3.634,3.634,0,0,0-.3,1.216ZM40.208,28H39.12V23.344a4.062,4.062,0,0,0-.44-2.16,1.5,1.5,0,0,0-1.352-.672,2.772,2.772,0,0,0-.96.176,3.236,3.236,0,0,0-.888.5,3.8,3.8,0,0,0-.728.76,2.979,2.979,0,0,0-.464.952V28H33.2V19.664h.992v1.888a3.916,3.916,0,0,1,1.464-1.472,4.014,4.014,0,0,1,2.072-.56,2.454,2.454,0,0,1,1.168.256,1.993,1.993,0,0,1,.768.72,3.317,3.317,0,0,1,.416,1.136,7.976,7.976,0,0,1,.128,1.488Zm4.928.16a2.346,2.346,0,0,1-2.024-.9,4.536,4.536,0,0,1-.664-2.7v-4.9h1.088v4.7q0,2.832,1.936,2.832a2.877,2.877,0,0,0,.944-.16,2.966,2.966,0,0,0,.856-.464,3.758,3.758,0,0,0,.7-.72,3.629,3.629,0,0,0,.5-.944V19.664h1.088v6.928q0,.448.384.448V28a1.983,1.983,0,0,1-.312.032h-.168a.869.869,0,0,1-.624-.272.965.965,0,0,1-.24-.688v-.96a3.88,3.88,0,0,1-1.48,1.512A3.946,3.946,0,0,1,45.136,28.16Zm10.5,0a4.008,4.008,0,0,1-1.672-.344,4.1,4.1,0,0,1-1.32-.944,4.383,4.383,0,0,1-.872-1.384,4.5,4.5,0,0,1-.312-1.68,4.4,4.4,0,0,1,.312-1.656,4.286,4.286,0,0,1,.864-1.36,4.1,4.1,0,0,1,1.32-.928,4.216,4.216,0,0,1,3.336,0,3.975,3.975,0,0,1,1.3.936,4.395,4.395,0,0,1,1.152,2.992v.256a.644.644,0,0,1-.016.176H52.592a3.509,3.509,0,0,0,.312,1.24,3.408,3.408,0,0,0,.68.984,3.047,3.047,0,0,0,.952.648,2.849,2.849,0,0,0,1.144.232,2.955,2.955,0,0,0,.8-.112,3.234,3.234,0,0,0,.736-.3,2.737,2.737,0,0,0,.608-.472,2.027,2.027,0,0,0,.416-.616l.944.256a2.772,2.772,0,0,1-.544.84,3.8,3.8,0,0,1-.816.656,4,4,0,0,1-1.024.432A4.439,4.439,0,0,1,55.632,28.16ZM58.7,23.392a3.367,3.367,0,0,0-.312-1.224,3.332,3.332,0,0,0-.672-.952,2.972,2.972,0,0,0-.944-.624,2.937,2.937,0,0,0-1.144-.224,3,3,0,0,0-1.152.224,2.949,2.949,0,0,0-.952.624,3.067,3.067,0,0,0-.656.96,3.634,3.634,0,0,0-.3,1.216Zm8.9,4.768a2.945,2.945,0,0,1-1.1-.2,2.766,2.766,0,0,1-.88-.552,2.486,2.486,0,0,1-.792-1.84,2.053,2.053,0,0,1,.256-1.008,2.44,2.44,0,0,1,.72-.8,3.525,3.525,0,0,1,1.1-.52,5.083,5.083,0,0,1,1.408-.184,7.69,7.69,0,0,1,1.3.112,5.617,5.617,0,0,1,1.168.32v-.752a2.42,2.42,0,0,0-.624-1.752,2.286,2.286,0,0,0-1.728-.648,3.672,3.672,0,0,0-1.312.256,6.327,6.327,0,0,0-1.36.736l-.384-.72a5.629,5.629,0,0,1,3.136-1.088,3.365,3.365,0,0,1,2.464.88,3.253,3.253,0,0,1,.9,2.432v3.76q0,.448.4.448V28a2.594,2.594,0,0,1-.416.048.937.937,0,0,1-.648-.208.783.783,0,0,1-.248-.576l-.032-.656A3.781,3.781,0,0,1,69.48,27.76,4.455,4.455,0,0,1,67.6,28.16Zm.256-.832a3.762,3.762,0,0,0,1.56-.32,2.548,2.548,0,0,0,1.08-.848,1,1,0,0,0,.216-.312.8.8,0,0,0,.072-.312v-1.36a6.669,6.669,0,0,0-1.128-.32,6.314,6.314,0,0,0-1.192-.112,3.316,3.316,0,0,0-1.872.48,1.459,1.459,0,0,0-.72,1.264,1.726,1.726,0,0,0,.152.72,1.824,1.824,0,0,0,.416.584,1.948,1.948,0,0,0,.632.392A2.132,2.132,0,0,0,67.856,27.328ZM81.232,28H80.144V23.344a4.062,4.062,0,0,0-.44-2.16,1.5,1.5,0,0,0-1.352-.672,2.772,2.772,0,0,0-.96.176,3.236,3.236,0,0,0-.888.5,3.8,3.8,0,0,0-.728.76,2.979,2.979,0,0,0-.464.952V28H74.224V19.664h.992v1.888A3.916,3.916,0,0,1,76.68,20.08a4.014,4.014,0,0,1,2.072-.56,2.454,2.454,0,0,1,1.168.256,1.993,1.993,0,0,1,.768.72,3.317,3.317,0,0,1,.416,1.136,7.975,7.975,0,0,1,.128,1.488Zm5.744.16a3.592,3.592,0,0,1-1.6-.36,4.071,4.071,0,0,1-1.264-.952,4.378,4.378,0,0,1-.824-1.368,4.518,4.518,0,0,1-.3-1.624,4.854,4.854,0,0,1,.288-1.672,4.467,4.467,0,0,1,.792-1.384,3.732,3.732,0,0,1,1.2-.936A3.4,3.4,0,0,1,86.8,19.52a3.262,3.262,0,0,1,1.872.552,4.178,4.178,0,0,1,1.28,1.336V16.32H91.04V26.592q0,.448.384.448V28a2.065,2.065,0,0,1-.384.048,1,1,0,0,1-.672-.248.765.765,0,0,1-.288-.6v-.816a3.646,3.646,0,0,1-1.344,1.3A3.526,3.526,0,0,1,86.976,28.16Zm.24-.96a2.592,2.592,0,0,0,.856-.16,3.517,3.517,0,0,0,.856-.44,2.948,2.948,0,0,0,.68-.656,1.774,1.774,0,0,0,.344-.808V22.56a2.86,2.86,0,0,0-.464-.808,3.734,3.734,0,0,0-.7-.664,3.27,3.27,0,0,0-.84-.448,2.606,2.606,0,0,0-.88-.16,2.558,2.558,0,0,0-1.216.288,3.075,3.075,0,0,0-.936.76,3.392,3.392,0,0,0-.6,1.08,3.83,3.83,0,0,0-.208,1.248,3.5,3.5,0,0,0,.9,2.344,3.173,3.173,0,0,0,.984.728A2.8,2.8,0,0,0,87.216,27.2Zm10.368.8V19.664h1.088V28Zm0-10.08v-1.6h1.088v1.6ZM113.472,28h-1.088V23.344a3.9,3.9,0,0,0-.464-2.144,1.552,1.552,0,0,0-1.376-.688,2.334,2.334,0,0,0-.9.176,2.779,2.779,0,0,0-.784.5,3.4,3.4,0,0,0-.632.76,3.662,3.662,0,0,0-.416.968V28H106.72V23.344a4,4,0,0,0-.448-2.16,1.539,1.539,0,0,0-1.376-.672,2.454,2.454,0,0,0-1.68.656A3.653,3.653,0,0,0,102.16,22.9V28h-1.088V19.664h.992v1.888a3.941,3.941,0,0,1,1.344-1.5,3.327,3.327,0,0,1,1.84-.536,2.369,2.369,0,0,1,1.688.592,2.577,2.577,0,0,1,.776,1.552,3.562,3.562,0,0,1,3.216-2.144,2.541,2.541,0,0,1,1.192.256,2.017,2.017,0,0,1,.784.728,3.41,3.41,0,0,1,.432,1.136,7.4,7.4,0,0,1,.136,1.48Zm6.56.16a3.294,3.294,0,0,1-1.864-.536,4.263,4.263,0,0,1-1.3-1.352v5.136h-1.088V19.664h.976V21.28a4.04,4.04,0,0,1,1.328-1.272,3.4,3.4,0,0,1,1.776-.488,3.492,3.492,0,0,1,1.584.36,4.072,4.072,0,0,1,1.248.96,4.456,4.456,0,0,1,.824,1.384,4.539,4.539,0,0,1,.3,1.616,5.041,5.041,0,0,1-.272,1.664,4.246,4.246,0,0,1-.776,1.376,3.732,3.732,0,0,1-1.2.936A3.4,3.4,0,0,1,120.032,28.16Zm-.3-.96a2.606,2.606,0,0,0,1.224-.288,3.044,3.044,0,0,0,.944-.76,3.41,3.41,0,0,0,.6-1.072,3.759,3.759,0,0,0,.208-1.24,3.455,3.455,0,0,0-.24-1.28,3.533,3.533,0,0,0-.656-1.072,3.115,3.115,0,0,0-.984-.736,2.8,2.8,0,0,0-1.224-.272,2.521,2.521,0,0,0-.872.168,3.583,3.583,0,0,0-.848.448,3.019,3.019,0,0,0-.672.656,1.767,1.767,0,0,0-.344.792V25.1a3.825,3.825,0,0,0,.488.832,3.443,3.443,0,0,0,.672.664,3.219,3.219,0,0,0,.808.44A2.559,2.559,0,0,0,119.728,27.2Zm10.08-6.576a3.422,3.422,0,0,0-1.92.608,3.066,3.066,0,0,0-1.152,1.584V28h-1.088V19.664h1.024v2a3.792,3.792,0,0,1,1.248-1.5,2.892,2.892,0,0,1,1.68-.544,1.1,1.1,0,0,1,.208.016ZM134.4,28.16a3.953,3.953,0,0,1-1.664-.344,4.09,4.09,0,0,1-1.3-.936,4.247,4.247,0,0,1-.856-1.376,4.518,4.518,0,0,1-.3-1.648,4.458,4.458,0,0,1,.312-1.664,4.36,4.36,0,0,1,.864-1.376,4.2,4.2,0,0,1,1.3-.944,3.839,3.839,0,0,1,1.648-.352,3.892,3.892,0,0,1,1.656.352,4.169,4.169,0,0,1,1.312.944,4.36,4.36,0,0,1,.864,1.376,4.459,4.459,0,0,1,.312,1.664,4.518,4.518,0,0,1-.3,1.648,4.247,4.247,0,0,1-.856,1.376,4.065,4.065,0,0,1-1.312.936A4.008,4.008,0,0,1,134.4,28.16Zm-3.024-4.288a3.479,3.479,0,0,0,.24,1.3,3.539,3.539,0,0,0,.648,1.056,2.929,2.929,0,0,0,.96.712,2.761,2.761,0,0,0,1.176.256,2.691,2.691,0,0,0,1.176-.264,3.123,3.123,0,0,0,.968-.72,3.431,3.431,0,0,0,.656-1.064,3.684,3.684,0,0,0,0-2.616,3.409,3.409,0,0,0-.656-1.072,3.123,3.123,0,0,0-.968-.72,2.691,2.691,0,0,0-1.176-.264,2.64,2.64,0,0,0-1.168.264,3.1,3.1,0,0,0-.96.728,3.509,3.509,0,0,0-.656,1.08A3.6,3.6,0,0,0,131.376,23.872ZM142.56,28l-3.392-8.336h1.12l2.864,7.328,2.88-7.328h1.056L143.7,28Zm9.344.16a4.008,4.008,0,0,1-1.672-.344,4.1,4.1,0,0,1-1.32-.944,4.383,4.383,0,0,1-.872-1.384,4.5,4.5,0,0,1-.312-1.68,4.4,4.4,0,0,1,.312-1.656,4.286,4.286,0,0,1,.864-1.36,4.1,4.1,0,0,1,1.32-.928,4.216,4.216,0,0,1,3.336,0,3.975,3.975,0,0,1,1.3.936,4.395,4.395,0,0,1,1.152,2.992v.256a.644.644,0,0,1-.016.176h-7.136a3.509,3.509,0,0,0,.312,1.24,3.408,3.408,0,0,0,.68.984,3.047,3.047,0,0,0,.952.648,2.849,2.849,0,0,0,1.144.232,2.955,2.955,0,0,0,.8-.112,3.234,3.234,0,0,0,.736-.3,2.737,2.737,0,0,0,.608-.472,2.027,2.027,0,0,0,.416-.616l.944.256a2.772,2.772,0,0,1-.544.84,3.8,3.8,0,0,1-.816.656,4,4,0,0,1-1.024.432A4.439,4.439,0,0,1,151.9,28.16Zm3.072-4.768a3.366,3.366,0,0,0-.312-1.224,3.332,3.332,0,0,0-.672-.952,2.972,2.972,0,0,0-.944-.624,2.937,2.937,0,0,0-1.144-.224,3,3,0,0,0-1.152.224,2.949,2.949,0,0,0-.952.624,3.067,3.067,0,0,0-.656.96,3.634,3.634,0,0,0-.3,1.216Zm5.488,4.768a5.8,5.8,0,0,1-1.9-.32,4.576,4.576,0,0,1-1.6-.928l.5-.736a5.424,5.424,0,0,0,1.432.864,4.2,4.2,0,0,0,1.56.288,2.816,2.816,0,0,0,1.608-.408,1.32,1.32,0,0,0,.6-1.16,1,1,0,0,0-.16-.584,1.385,1.385,0,0,0-.472-.408,3.684,3.684,0,0,0-.784-.312q-.472-.136-1.1-.28-.72-.176-1.248-.352a3.816,3.816,0,0,1-.872-.4,1.443,1.443,0,0,1-.512-.552,1.8,1.8,0,0,1-.168-.824,2.371,2.371,0,0,1,.248-1.1,2.251,2.251,0,0,1,.672-.792,3.053,3.053,0,0,1,.992-.472,4.437,4.437,0,0,1,1.208-.16,4.679,4.679,0,0,1,1.744.312,3.447,3.447,0,0,1,1.264.824l-.528.64a2.927,2.927,0,0,0-1.128-.72,4.04,4.04,0,0,0-1.384-.24,3.436,3.436,0,0,0-.8.088,1.926,1.926,0,0,0-.648.28,1.379,1.379,0,0,0-.44.488,1.442,1.442,0,0,0-.16.7,1.146,1.146,0,0,0,.112.544.956.956,0,0,0,.368.36,3,3,0,0,0,.648.272q.392.12.952.248.8.192,1.408.384a4.423,4.423,0,0,1,1.016.448,1.765,1.765,0,0,1,.616.624,1.8,1.8,0,0,1,.208.9,2.173,2.173,0,0,1-.88,1.824A3.807,3.807,0,0,1,160.464,28.16Zm11.712,0a2.347,2.347,0,0,1-2.024-.9,4.536,4.536,0,0,1-.664-2.7v-4.9h1.088v4.7q0,2.832,1.936,2.832a2.877,2.877,0,0,0,.944-.16,2.966,2.966,0,0,0,.856-.464,3.758,3.758,0,0,0,.7-.72,3.628,3.628,0,0,0,.5-.944V19.664h1.088v6.928q0,.448.384.448V28a1.983,1.983,0,0,1-.312.032h-.168a.869.869,0,0,1-.624-.272.965.965,0,0,1-.24-.688v-.96a3.88,3.88,0,0,1-1.48,1.512A3.946,3.946,0,0,1,172.176,28.16Zm9.664,0a5.8,5.8,0,0,1-1.9-.32,4.576,4.576,0,0,1-1.6-.928l.5-.736a5.424,5.424,0,0,0,1.432.864,4.2,4.2,0,0,0,1.56.288,2.816,2.816,0,0,0,1.608-.408,1.32,1.32,0,0,0,.6-1.16,1,1,0,0,0-.16-.584,1.385,1.385,0,0,0-.472-.408,3.684,3.684,0,0,0-.784-.312q-.472-.136-1.1-.28-.72-.176-1.248-.352a3.816,3.816,0,0,1-.872-.4,1.443,1.443,0,0,1-.512-.552,1.8,1.8,0,0,1-.168-.824,2.371,2.371,0,0,1,.248-1.1,2.251,2.251,0,0,1,.672-.792,3.053,3.053,0,0,1,.992-.472,4.437,4.437,0,0,1,1.208-.16,4.679,4.679,0,0,1,1.744.312,3.447,3.447,0,0,1,1.264.824l-.528.64a2.927,2.927,0,0,0-1.128-.72,4.04,4.04,0,0,0-1.384-.24,3.436,3.436,0,0,0-.8.088,1.926,1.926,0,0,0-.648.28,1.379,1.379,0,0,0-.44.488,1.442,1.442,0,0,0-.16.7,1.146,1.146,0,0,0,.112.544.956.956,0,0,0,.368.36,3,3,0,0,0,.648.272q.392.12.952.248.8.192,1.408.384a4.423,4.423,0,0,1,1.016.448,1.765,1.765,0,0,1,.616.624,1.8,1.8,0,0,1,.208.9,2.173,2.173,0,0,1-.88,1.824A3.807,3.807,0,0,1,181.84,28.16Zm8.624,0a4.008,4.008,0,0,1-1.672-.344,4.1,4.1,0,0,1-1.32-.944,4.383,4.383,0,0,1-.872-1.384,4.5,4.5,0,0,1-.312-1.68,4.4,4.4,0,0,1,.312-1.656,4.286,4.286,0,0,1,.864-1.36,4.1,4.1,0,0,1,1.32-.928,4.216,4.216,0,0,1,3.336,0,3.975,3.975,0,0,1,1.3.936,4.395,4.395,0,0,1,1.152,2.992v.256a.644.644,0,0,1-.016.176h-7.136a3.509,3.509,0,0,0,.312,1.24,3.408,3.408,0,0,0,.68.984,3.047,3.047,0,0,0,.952.648,2.849,2.849,0,0,0,1.144.232,2.955,2.955,0,0,0,.8-.112,3.234,3.234,0,0,0,.736-.3,2.737,2.737,0,0,0,.608-.472,2.027,2.027,0,0,0,.416-.616l.944.256a2.772,2.772,0,0,1-.544.84,3.8,3.8,0,0,1-.816.656,4,4,0,0,1-1.024.432A4.439,4.439,0,0,1,190.464,28.16Zm3.072-4.768a3.366,3.366,0,0,0-.312-1.224,3.332,3.332,0,0,0-.672-.952,2.972,2.972,0,0,0-.944-.624,2.937,2.937,0,0,0-1.144-.224,3,3,0,0,0-1.152.224,2.949,2.949,0,0,0-.952.624,3.067,3.067,0,0,0-.656.96,3.634,3.634,0,0,0-.3,1.216Zm6.88-2.768a3.422,3.422,0,0,0-1.92.608,3.066,3.066,0,0,0-1.152,1.584V28h-1.088V19.664h1.024v2a3.792,3.792,0,0,1,1.248-1.5,2.893,2.893,0,0,1,1.68-.544,1.1,1.1,0,0,1,.208.016Zm8.752,7.536a4.008,4.008,0,0,1-1.672-.344,4.1,4.1,0,0,1-1.32-.944,4.383,4.383,0,0,1-.872-1.384,4.5,4.5,0,0,1-.312-1.68,4.4,4.4,0,0,1,.312-1.656,4.286,4.286,0,0,1,.864-1.36,4.1,4.1,0,0,1,1.32-.928,4.216,4.216,0,0,1,3.336,0,3.975,3.975,0,0,1,1.3.936,4.395,4.395,0,0,1,1.152,2.992v.256a.644.644,0,0,1-.016.176h-7.136a3.509,3.509,0,0,0,.312,1.24,3.408,3.408,0,0,0,.68.984,3.047,3.047,0,0,0,.952.648,2.849,2.849,0,0,0,1.144.232,2.955,2.955,0,0,0,.8-.112,3.234,3.234,0,0,0,.736-.3,2.737,2.737,0,0,0,.608-.472,2.027,2.027,0,0,0,.416-.616l.944.256a2.772,2.772,0,0,1-.544.84,3.8,3.8,0,0,1-.816.656,4,4,0,0,1-1.024.432A4.439,4.439,0,0,1,209.168,28.16Zm3.072-4.768a3.366,3.366,0,0,0-.312-1.224,3.332,3.332,0,0,0-.672-.952,2.972,2.972,0,0,0-.944-.624,2.937,2.937,0,0,0-1.144-.224,3,3,0,0,0-1.152.224,2.949,2.949,0,0,0-.952.624,3.067,3.067,0,0,0-.656.96,3.634,3.634,0,0,0-.3,1.216Zm2.624-3.728,2.5,3.264.128.24.128-.24,2.5-3.264h1.168L218.1,23.856,221.28,28h-1.168l-2.5-3.248-.128-.224-.128.224L214.864,28H213.7l3.184-4.144L213.7,19.664Zm12.112,8.5a3.294,3.294,0,0,1-1.864-.536,4.263,4.263,0,0,1-1.3-1.352v5.136H222.72V19.664h.976V21.28a4.04,4.04,0,0,1,1.328-1.272,3.4,3.4,0,0,1,1.776-.488,3.492,3.492,0,0,1,1.584.36,4.072,4.072,0,0,1,1.248.96,4.456,4.456,0,0,1,.824,1.384,4.539,4.539,0,0,1,.3,1.616,5.041,5.041,0,0,1-.272,1.664,4.246,4.246,0,0,1-.776,1.376,3.732,3.732,0,0,1-1.2.936A3.4,3.4,0,0,1,226.976,28.16Zm-.3-.96a2.606,2.606,0,0,0,1.224-.288,3.044,3.044,0,0,0,.944-.76,3.41,3.41,0,0,0,.6-1.072,3.759,3.759,0,0,0,.208-1.24,3.454,3.454,0,0,0-.24-1.28,3.533,3.533,0,0,0-.656-1.072,3.115,3.115,0,0,0-.984-.736,2.8,2.8,0,0,0-1.224-.272,2.521,2.521,0,0,0-.872.168,3.583,3.583,0,0,0-.848.448,3.019,3.019,0,0,0-.672.656,1.767,1.767,0,0,0-.344.792V25.1a3.825,3.825,0,0,0,.488.832,3.444,3.444,0,0,0,.672.664,3.219,3.219,0,0,0,.808.44A2.56,2.56,0,0,0,226.672,27.2Zm9.52.96a4.008,4.008,0,0,1-1.672-.344,4.1,4.1,0,0,1-1.32-.944,4.383,4.383,0,0,1-.872-1.384,4.5,4.5,0,0,1-.312-1.68,4.4,4.4,0,0,1,.312-1.656,4.286,4.286,0,0,1,.864-1.36,4.1,4.1,0,0,1,1.32-.928,4.216,4.216,0,0,1,3.336,0,3.975,3.975,0,0,1,1.3.936,4.395,4.395,0,0,1,1.152,2.992v.256a.644.644,0,0,1-.016.176h-7.136a3.509,3.509,0,0,0,.312,1.24,3.408,3.408,0,0,0,.68.984,3.047,3.047,0,0,0,.952.648,2.849,2.849,0,0,0,1.144.232,2.955,2.955,0,0,0,.8-.112,3.234,3.234,0,0,0,.736-.3,2.737,2.737,0,0,0,.608-.472,2.027,2.027,0,0,0,.416-.616l.944.256a2.772,2.772,0,0,1-.544.84,3.8,3.8,0,0,1-.816.656,4,4,0,0,1-1.024.432A4.439,4.439,0,0,1,236.192,28.16Zm3.072-4.768a3.366,3.366,0,0,0-.312-1.224,3.332,3.332,0,0,0-.672-.952,2.972,2.972,0,0,0-.944-.624,2.937,2.937,0,0,0-1.144-.224,3,3,0,0,0-1.152.224,2.949,2.949,0,0,0-.952.624,3.067,3.067,0,0,0-.656.96,3.634,3.634,0,0,0-.3,1.216Zm6.88-2.768a3.422,3.422,0,0,0-1.92.608,3.066,3.066,0,0,0-1.152,1.584V28h-1.088V19.664h1.024v2a3.792,3.792,0,0,1,1.248-1.5,2.892,2.892,0,0,1,1.68-.544,1.1,1.1,0,0,1,.208.016ZM247.6,28V19.664h1.088V28Zm0-10.08v-1.6h1.088v1.6Zm7.088,10.24a4.008,4.008,0,0,1-1.672-.344,4.1,4.1,0,0,1-1.32-.944,4.383,4.383,0,0,1-.872-1.384,4.5,4.5,0,0,1-.312-1.68,4.4,4.4,0,0,1,.312-1.656,4.286,4.286,0,0,1,.864-1.36,4.1,4.1,0,0,1,1.32-.928,4.216,4.216,0,0,1,3.336,0,3.975,3.975,0,0,1,1.3.936,4.395,4.395,0,0,1,1.152,2.992v.256a.645.645,0,0,1-.016.176h-7.136a3.509,3.509,0,0,0,.312,1.24,3.408,3.408,0,0,0,.68.984,3.047,3.047,0,0,0,.952.648,2.849,2.849,0,0,0,1.144.232,2.955,2.955,0,0,0,.8-.112,3.234,3.234,0,0,0,.736-.3,2.737,2.737,0,0,0,.608-.472,2.027,2.027,0,0,0,.416-.616l.944.256a2.773,2.773,0,0,1-.544.84,3.8,3.8,0,0,1-.816.656,4,4,0,0,1-1.024.432A4.439,4.439,0,0,1,254.688,28.16Zm3.072-4.768a3.367,3.367,0,0,0-.312-1.224,3.332,3.332,0,0,0-.672-.952,2.972,2.972,0,0,0-.944-.624,2.937,2.937,0,0,0-1.144-.224,3,3,0,0,0-1.152.224,2.949,2.949,0,0,0-.952.624,3.067,3.067,0,0,0-.656.96,3.634,3.634,0,0,0-.3,1.216ZM267.488,28H266.4V23.344a4.062,4.062,0,0,0-.44-2.16,1.5,1.5,0,0,0-1.352-.672,2.772,2.772,0,0,0-.96.176,3.236,3.236,0,0,0-.888.5,3.8,3.8,0,0,0-.728.76,2.979,2.979,0,0,0-.464.952V28H260.48V19.664h.992v1.888a3.916,3.916,0,0,1,1.464-1.472,4.014,4.014,0,0,1,2.072-.56,2.454,2.454,0,0,1,1.168.256,1.993,1.993,0,0,1,.768.72,3.317,3.317,0,0,1,.416,1.136,7.973,7.973,0,0,1,.128,1.488Zm1.744-4.192a4.562,4.562,0,0,1,.3-1.664,4.155,4.155,0,0,1,.856-1.368,4,4,0,0,1,1.32-.92,4.186,4.186,0,0,1,1.7-.336,3.889,3.889,0,0,1,2.064.536A3.443,3.443,0,0,1,276.8,21.5l-1.056.336a2.535,2.535,0,0,0-.984-1,2.9,2.9,0,0,0-2.592-.1,3.04,3.04,0,0,0-.96.7,3.2,3.2,0,0,0-.64,1.048,3.855,3.855,0,0,0,.008,2.656,3.388,3.388,0,0,0,.656,1.08,3.123,3.123,0,0,0,.968.72,2.691,2.691,0,0,0,1.176.264,2.87,2.87,0,0,0,.792-.112,3.06,3.06,0,0,0,.728-.312,2.619,2.619,0,0,0,.576-.456,1.482,1.482,0,0,0,.336-.544l1.072.32a2.727,2.727,0,0,1-.512.824,3.532,3.532,0,0,1-.792.656,3.886,3.886,0,0,1-1.008.432,4.289,4.289,0,0,1-1.144.152,4.049,4.049,0,0,1-3.008-1.288,4.383,4.383,0,0,1-.872-1.384A4.5,4.5,0,0,1,269.232,23.808Zm12.88,4.352a4.008,4.008,0,0,1-1.672-.344,4.1,4.1,0,0,1-1.32-.944,4.383,4.383,0,0,1-.872-1.384,4.5,4.5,0,0,1-.312-1.68,4.4,4.4,0,0,1,.312-1.656,4.286,4.286,0,0,1,.864-1.36,4.1,4.1,0,0,1,1.32-.928,4.216,4.216,0,0,1,3.336,0,3.975,3.975,0,0,1,1.3.936,4.395,4.395,0,0,1,1.152,2.992v.256a.645.645,0,0,1-.016.176h-7.136a3.509,3.509,0,0,0,.312,1.24,3.408,3.408,0,0,0,.68.984,3.046,3.046,0,0,0,.952.648,2.849,2.849,0,0,0,1.144.232,2.955,2.955,0,0,0,.8-.112,3.234,3.234,0,0,0,.736-.3,2.737,2.737,0,0,0,.608-.472,2.026,2.026,0,0,0,.416-.616l.944.256a2.772,2.772,0,0,1-.544.84,3.8,3.8,0,0,1-.816.656,4,4,0,0,1-1.024.432A4.439,4.439,0,0,1,282.112,28.16Zm3.072-4.768a3.367,3.367,0,0,0-.312-1.224,3.332,3.332,0,0,0-.672-.952,2.972,2.972,0,0,0-.944-.624,2.937,2.937,0,0,0-1.144-.224,3,3,0,0,0-1.152.224,2.949,2.949,0,0,0-.952.624,3.066,3.066,0,0,0-.656.96,3.634,3.634,0,0,0-.3,1.216Z" transform="translate(861 2300)" fill="#707070"/>
    <g id="Group_1560" data-name="Group 1560">
      <circle id="Ellipse_54" data-name="Ellipse 54" cx="34" cy="34" r="34" transform="translate(765 2248)" fill="rgba(48,218,195,0.24)"/>
      <g id="team" transform="translate(785 2268)">
        <g id="Group_1543" data-name="Group 1543" transform="translate(11.6)">
          <g id="Group_1542" data-name="Group 1542">
            <path id="Path_2016" data-name="Path 2016" d="M194.9,0a2.9,2.9,0,1,0,2.9,2.9A2.9,2.9,0,0,0,194.9,0Zm0,4.833A1.933,1.933,0,1,1,196.833,2.9,1.933,1.933,0,0,1,194.9,4.833Z" transform="translate(-192)" fill="#30dac3"/>
          </g>
        </g>
        <g id="Group_1545" data-name="Group 1545" transform="translate(10.15 6.283)">
          <g id="Group_1544" data-name="Group 1544">
            <path id="Path_2017" data-name="Path 2017" d="M174.283,104h-.114l-.1.051a3.853,3.853,0,0,1-3.435,0l-.1-.051h-.114A2.42,2.42,0,0,0,168,106.417v2.9a1.45,1.45,0,0,0,1.45,1.45h5.8a1.45,1.45,0,0,0,1.45-1.45v-2.9A2.42,2.42,0,0,0,174.283,104Zm1.45,5.317a.483.483,0,0,1-.483.483h-5.8a.483.483,0,0,1-.483-.483v-2.9a1.45,1.45,0,0,1,1.347-1.446,4.837,4.837,0,0,0,4.073,0,1.45,1.45,0,0,1,1.347,1.446Z" transform="translate(-168 -104)" fill="#30dac3"/>
          </g>
        </g>
        <g id="Group_1547" data-name="Group 1547" transform="translate(21.75 15.95)">
          <g id="Group_1546" data-name="Group 1546">
            <path id="Path_2018" data-name="Path 2018" d="M362.9,264a2.9,2.9,0,1,0,2.9,2.9A2.9,2.9,0,0,0,362.9,264Zm0,4.833a1.933,1.933,0,1,1,1.933-1.933A1.933,1.933,0,0,1,362.9,268.833Z" transform="translate(-360 -264)" fill="#30dac3"/>
          </g>
        </g>
        <g id="Group_1549" data-name="Group 1549" transform="translate(20.3 22.233)">
          <g id="Group_1548" data-name="Group 1548">
            <path id="Path_2019" data-name="Path 2019" d="M342.283,368h-.114l-.1.048a3.853,3.853,0,0,1-3.435,0l-.1-.048h-.114A2.42,2.42,0,0,0,336,370.417v2.9a1.45,1.45,0,0,0,1.45,1.45h5.8a1.45,1.45,0,0,0,1.45-1.45v-2.9A2.42,2.42,0,0,0,342.283,368Zm1.45,5.317a.483.483,0,0,1-.483.483h-5.8a.483.483,0,0,1-.483-.483v-2.9a1.45,1.45,0,0,1,1.347-1.446,4.837,4.837,0,0,0,4.073,0,1.45,1.45,0,0,1,1.347,1.446Z" transform="translate(-336 -368)" fill="#30dac3"/>
          </g>
        </g>
        <g id="Group_1551" data-name="Group 1551" transform="translate(1.45 15.95)">
          <g id="Group_1550" data-name="Group 1550">
            <path id="Path_2020" data-name="Path 2020" d="M26.9,264a2.9,2.9,0,1,0,2.9,2.9A2.9,2.9,0,0,0,26.9,264Zm0,4.833a1.933,1.933,0,1,1,1.933-1.933A1.933,1.933,0,0,1,26.9,268.833Z" transform="translate(-24 -264)" fill="#30dac3"/>
          </g>
        </g>
        <g id="Group_1553" data-name="Group 1553" transform="translate(0 22.233)">
          <g id="Group_1552" data-name="Group 1552">
            <path id="Path_2021" data-name="Path 2021" d="M6.283,368H6.169l-.1.048a3.853,3.853,0,0,1-3.435,0l-.1-.048H2.417A2.42,2.42,0,0,0,0,370.417v2.9a1.45,1.45,0,0,0,1.45,1.45h5.8a1.45,1.45,0,0,0,1.45-1.45v-2.9A2.42,2.42,0,0,0,6.283,368Zm1.45,5.317a.483.483,0,0,1-.483.483H1.45a.483.483,0,0,1-.483-.483v-2.9a1.45,1.45,0,0,1,1.347-1.446,4.837,4.837,0,0,0,4.073,0,1.45,1.45,0,0,1,1.347,1.446Z" transform="translate(0 -368)" fill="#30dac3"/>
          </g>
        </g>
        <g id="Group_1555" data-name="Group 1555" transform="translate(9.667 23.683)">
          <g id="Group_1554" data-name="Group 1554">
            <path id="Path_2022" data-name="Path 2022" d="M169.626,392.858v0a.483.483,0,0,0-.634-.255h0a10.721,10.721,0,0,1-6.894.475l.452-.133a.483.483,0,0,0-.272-.928l-1.933.567c-.007,0-.013.008-.019.011a.48.48,0,0,0-.125.069.422.422,0,0,0-.048.03.468.468,0,0,0-.118.164.484.484,0,0,0-.037.2,1.491,1.491,0,0,0,.048.193c0,.007,0,.014.005.021l.967,1.85a.484.484,0,0,0,.857-.448l-.393-.752a11.634,11.634,0,0,0,7.888-.429A.483.483,0,0,0,169.626,392.858Z" transform="translate(-159.998 -391.995)" fill="#30dac3"/>
          </g>
        </g>
        <g id="Group_1557" data-name="Group 1557" transform="translate(18.367 3.783)">
          <g id="Group_1556" data-name="Group 1556">
            <path id="Path_2023" data-name="Path 2023" d="M313.039,71.547a.483.483,0,0,0-.683,0l-.684.684a11.582,11.582,0,0,0-7-9.57.483.483,0,0,0-.379.889,10.617,10.617,0,0,1,6.393,8.542l-.545-.545a.483.483,0,0,0-.683.683l1.45,1.45a.483.483,0,0,0,.684,0h0l1.45-1.45A.483.483,0,0,0,313.039,71.547Z" transform="translate(-303.998 -62.622)" fill="#30dac3"/>
          </g>
        </g>
        <g id="Group_1559" data-name="Group 1559" transform="translate(2.9 2.908)">
          <g id="Group_1558" data-name="Group 1558">
            <path id="Path_2024" data-name="Path 2024" d="M55.719,49.412a.45.45,0,0,0-.013-.084s-.005-.007-.007-.012,0-.008,0-.012a.463.463,0,0,0-.045-.067.488.488,0,0,0-.055-.08.454.454,0,0,0-.094-.064.425.425,0,0,0-.054-.039l-1.933-.883a.483.483,0,0,0-.4.879l1,.458A11.582,11.582,0,0,0,48,59.726a.483.483,0,1,0,.967,0A10.617,10.617,0,0,1,54.2,50.57l-.349.73a.483.483,0,0,0,.226.644.476.476,0,0,0,.209.048.483.483,0,0,0,.435-.274l.967-2.017a.022.022,0,0,1,0-.015.465.465,0,0,0,.026-.1.5.5,0,0,0,.018-.08A.482.482,0,0,0,55.719,49.412Z" transform="translate(-48 -48.134)" fill="#30dac3"/>
          </g>
        </g>
      </g>
    </g>
  </g>
</svg>
