<svg xmlns="http://www.w3.org/2000/svg" width="366" height="84" viewBox="0 0 366 84">
  <g id="Group_1915" data-name="Group 1915" transform="translate(-765 -2091)">
    <text id="Unique_Localized_Methods" data-name="Unique Localized Methods" transform="translate(993 2112)" fill="#585858" font-size="20" font-family="Poppins-Regular, Poppins"><tspan x="-129.52" y="0">Unique Localized Methods</tspan></text>
    <text id="Widest_selection_of_acquiring_banks_financial_institutions" data-name="Widest selection of acquiring banks 
&amp; financial institutions" transform="translate(863 2143)" fill="#707070" font-size="16" font-family="Raleway-Regular, Raleway"><tspan x="0" y="0">Widest selection of acquiring banks </tspan><tspan x="0" y="28">&amp; financial institutions</tspan></text>
    <g id="Group_1541" data-name="Group 1541">
      <circle id="Ellipse_53" data-name="Ellipse 53" cx="34" cy="34" r="34" transform="translate(765 2091)" fill="rgba(255,113,113,0.24)"/>
      <g id="money" transform="translate(783.64 2108)">
        <path id="Path_2010" data-name="Path 2010" d="M188.466,155.308a.531.531,0,0,0-.191-.007,1.268,1.268,0,0,1-1.121-1.257.558.558,0,0,0-1.115,0,2.386,2.386,0,0,0,1.754,2.3v.558a.558.558,0,0,0,1.115,0v-.524a2.381,2.381,0,0,0-.488-4.712,1.266,1.266,0,1,1,1.266-1.266.558.558,0,1,0,1.115,0,2.386,2.386,0,0,0-1.894-2.331v-.508a.558.558,0,1,0-1.115,0v.542a2.381,2.381,0,0,0,.627,4.679,1.265,1.265,0,0,1,.046,2.53Zm0,0" transform="translate(-172.734 -136.752)" fill="#ff7171"/>
        <path id="Path_2011" data-name="Path 2011" d="M104.195,114.579a8.087,8.087,0,1,0,8.087-8.087A8.087,8.087,0,0,0,104.195,114.579Zm8.087-6.972a6.972,6.972,0,1,1-6.972,6.972A6.972,6.972,0,0,1,112.282,107.607Zm0,0" transform="translate(-96.597 -99.068)" fill="#ff7171"/>
        <path id="Path_2012" data-name="Path 2012" d="M26.522,328.578l-4.369,2.064a3.558,3.558,0,0,0-3.034-1.872l-4.033-.111a4.259,4.259,0,0,1-1.833-.473l-.41-.213a7.238,7.238,0,0,0-6.7.007l.026-.93a.558.558,0,0,0-.542-.573L1.2,326.356a.557.557,0,0,0-.573.542L.36,336.6a.558.558,0,0,0,.542.573l4.422.122H5.34a.558.558,0,0,0,.558-.542l.013-.464,1.149-.615a1.971,1.971,0,0,1,1.471-.161l6.861,1.926.036.009a7.343,7.343,0,0,0,1.508.155,7.441,7.441,0,0,0,3.108-.678.514.514,0,0,0,.069-.038l9.947-6.434a.558.558,0,0,0,.183-.743,2.817,2.817,0,0,0-3.72-1.133Zm-25.032,7.5.236-8.59,3.307.091-.236,8.59Zm18.05-.146a6.323,6.323,0,0,1-3.867.432l-6.842-1.921a3.084,3.084,0,0,0-2.3.251l-.587.315L6.1,329.3a6.13,6.13,0,0,1,6.228-.332l.41.213a5.386,5.386,0,0,0,2.315.6l4.033.111a2.446,2.446,0,0,1,2.325,1.949l-6.008-.166a.558.558,0,0,0-.031,1.115l6.63.182h.016a.558.558,0,0,0,.557-.542,3.539,3.539,0,0,0-.054-.724l4.481-2.117.013-.006a1.7,1.7,0,0,1,1.927.27Zm0,0" transform="translate(0 -303.605)" fill="#ff7171"/>
        <path id="Path_2013" data-name="Path 2013" d="M213.318,5.856V.558a.558.558,0,0,0-1.115,0v5.3a.558.558,0,0,0,1.115,0Zm0,0" transform="translate(-197.075)" fill="#ff7171"/>
        <path id="Path_2014" data-name="Path 2014" d="M273.318,43.067v-2.51a.558.558,0,0,0-1.115,0v2.51a.558.558,0,0,0,1.115,0Zm0,0" transform="translate(-252.892 -37.212)" fill="#ff7171"/>
        <path id="Path_2015" data-name="Path 2015" d="M153.318,43.067v-2.51a.558.558,0,1,0-1.115,0v2.51a.558.558,0,1,0,1.115,0Zm0,0" transform="translate(-141.258 -37.212)" fill="#ff7171"/>
      </g>
    </g>
  </g>
</svg>
