<svg xmlns="http://www.w3.org/2000/svg" width="358.992" height="80.16" viewBox="0 0 358.992 80.16">
  <g id="Group_1936" data-name="Group 1936" transform="translate(-765 -2091)">
    <path id="Path_2037" data-name="Path 2037" d="M-129.43-5.08c0,3.54,2.48,5.22,5.4,5.22,2.9,0,5.46-1.68,5.46-5.22V-13.9h-2.28v8.86a2.854,2.854,0,0,1-3.16,3.18,2.848,2.848,0,0,1-3.14-3.18V-13.9h-2.28ZM-107.79,0h2.26V-6.5c0-3.08-1.94-4.7-4.52-4.7a4.239,4.239,0,0,0-3.28,1.44v-1.26h-2.28V0h2.28V-6.16c0-2.02,1.1-3.06,2.78-3.06,1.66,0,2.76,1.04,2.76,3.06Zm5.16,0h2.28V-11.02h-2.28Zm1.16-12.48a1.439,1.439,0,0,0,1.44-1.46,1.439,1.439,0,0,0-1.44-1.46,1.443,1.443,0,0,0-1.46,1.46A1.443,1.443,0,0,0-101.47-12.48Zm3.36,6.92c0,3.4,2.3,5.74,5.14,5.74A4.876,4.876,0,0,0-89.09-1.6V5.24h2.3V-11.02h-2.3v1.6a4.648,4.648,0,0,0-3.8-1.78C-95.81-11.2-98.11-8.96-98.11-5.56Zm9.02.04A3.424,3.424,0,0,1-92.43-1.8a3.472,3.472,0,0,1-3.34-3.76,3.381,3.381,0,0,1,3.34-3.66A3.417,3.417,0,0,1-89.09-5.52Zm15.28-5.5h-2.28v6.14c0,2.02-1.1,3.06-2.78,3.06-1.66,0-2.76-1.04-2.76-3.06v-6.14h-2.26v6.48A4.306,4.306,0,0,0-79.35.16a4.1,4.1,0,0,0,3.26-1.48V0h2.28Zm7.64,1.74A2.862,2.862,0,0,1-63.09-6.5h-6.1A3,3,0,0,1-66.17-9.28Zm5.16,6h-2.46a2.668,2.668,0,0,1-2.6,1.54,3.031,3.031,0,0,1-3.14-2.92h8.42a7.033,7.033,0,0,0,.08-1.12,5.139,5.139,0,0,0-5.36-5.42c-3.26,0-5.5,2.22-5.5,5.68a5.346,5.346,0,0,0,5.5,5.7A5.035,5.035,0,0,0-61.01-3.28Zm7.74-10.62V0h6.98V-1.84h-4.7V-13.9Zm19.38,8.38a5.435,5.435,0,0,0-5.62-5.68,5.435,5.435,0,0,0-5.62,5.68A5.373,5.373,0,0,0-39.61.18,5.52,5.52,0,0,0-33.89-5.52Zm-8.92,0c0-2.5,1.54-3.7,3.26-3.7,1.7,0,3.32,1.2,3.32,3.7A3.394,3.394,0,0,1-39.61-1.8C-41.33-1.8-42.81-3.02-42.81-5.52Zm10.42,0c0,3.46,2.24,5.7,5.4,5.7a4.95,4.95,0,0,0,5.08-3.66h-2.46a2.517,2.517,0,0,1-2.62,1.74c-1.84,0-3.06-1.36-3.06-3.78,0-2.4,1.22-3.76,3.06-3.76a2.575,2.575,0,0,1,2.62,1.74h2.46a4.794,4.794,0,0,0-5.08-3.66C-30.15-11.2-32.39-8.96-32.39-5.52Zm12-.04c0,3.4,2.3,5.74,5.16,5.74a4.743,4.743,0,0,0,3.86-1.82V0h2.3V-11.02h-2.3v1.6a4.691,4.691,0,0,0-3.82-1.78C-18.09-11.2-20.39-8.96-20.39-5.56Zm9.02.04A3.424,3.424,0,0,1-14.71-1.8a3.472,3.472,0,0,1-3.34-3.76,3.381,3.381,0,0,1,3.34-3.66A3.417,3.417,0,0,1-11.37-5.52ZM-6.07,0h2.28V-14.8H-6.07ZM-.79,0H1.49V-11.02H-.79ZM.37-12.48a1.439,1.439,0,0,0,1.44-1.46A1.439,1.439,0,0,0,.37-15.4a1.443,1.443,0,0,0-1.46,1.46A1.443,1.443,0,0,0,.37-12.48Zm11.14,1.46H3.87v1.86H8.89L3.87-1.86V0h7.64V-1.86h-5l5-7.3Zm7.04,1.74A2.862,2.862,0,0,1,21.63-6.5h-6.1A3,3,0,0,1,18.55-9.28Zm5.16,6H21.25a2.668,2.668,0,0,1-2.6,1.54,3.031,3.031,0,0,1-3.14-2.92h8.42a7.033,7.033,0,0,0,.08-1.12,5.139,5.139,0,0,0-5.36-5.42c-3.26,0-5.5,2.22-5.5,5.68a5.346,5.346,0,0,0,5.5,5.7A5.035,5.035,0,0,0,23.71-3.28Zm1.78-2.28c0,3.4,2.3,5.74,5.2,5.74a4.569,4.569,0,0,0,3.82-1.84V0h2.3V-14.8h-2.3v5.32a5.076,5.076,0,0,0-3.8-1.72C27.79-11.2,25.49-8.96,25.49-5.56Zm9.02.04A3.424,3.424,0,0,1,31.17-1.8a3.472,3.472,0,0,1-3.34-3.76,3.381,3.381,0,0,1,3.34-3.66A3.417,3.417,0,0,1,34.51-5.52ZM45.01,0h2.28V-9.52L51.55,0h1.58l4.24-9.52V0h2.28V-13.9H57.21L52.35-3,47.47-13.9H45.01ZM67.29-9.28A2.862,2.862,0,0,1,70.37-6.5h-6.1A3,3,0,0,1,67.29-9.28Zm5.16,6H69.99a2.668,2.668,0,0,1-2.6,1.54,3.031,3.031,0,0,1-3.14-2.92h8.42a7.034,7.034,0,0,0,.08-1.12,5.139,5.139,0,0,0-5.36-5.42c-3.26,0-5.5,2.22-5.5,5.68a5.346,5.346,0,0,0,5.5,5.7A5.035,5.035,0,0,0,72.45-3.28Zm2.9.22C75.35-.82,76.57,0,78.53,0h1.8V-1.9h-1.4c-.96,0-1.28-.34-1.28-1.16v-6.1h2.68v-1.86H77.65v-2.74h-2.3v2.74h-1.3v1.86h1.3ZM82.43,0h2.28V-6.16c0-2.02,1.1-3.06,2.78-3.06,1.66,0,2.76,1.04,2.76,3.06V0h2.26V-6.5c0-3.08-1.92-4.7-4.38-4.7a4.368,4.368,0,0,0-3.42,1.46V-14.8H82.43Zm23.48-5.52a5.435,5.435,0,0,0-5.62-5.68,5.435,5.435,0,0,0-5.62,5.68,5.373,5.373,0,0,0,5.52,5.7A5.52,5.52,0,0,0,105.91-5.52Zm-8.92,0c0-2.5,1.54-3.7,3.26-3.7,1.7,0,3.32,1.2,3.32,3.7a3.394,3.394,0,0,1-3.38,3.72C98.47-1.8,96.99-3.02,96.99-5.52Zm10.42-.04c0,3.4,2.3,5.74,5.2,5.74a4.569,4.569,0,0,0,3.82-1.84V0h2.3V-14.8h-2.3v5.32a5.076,5.076,0,0,0-3.8-1.72C109.71-11.2,107.41-8.96,107.41-5.56Zm9.02.04a3.424,3.424,0,0,1-3.34,3.72,3.472,3.472,0,0,1-3.34-3.76,3.381,3.381,0,0,1,3.34-3.66A3.417,3.417,0,0,1,116.43-5.52Zm13.52,2.44c-.12-3.98-6.34-2.74-6.34-4.96,0-.74.64-1.24,1.86-1.24a1.823,1.823,0,0,1,2.06,1.62h2.28c-.12-2.2-1.76-3.54-4.26-3.54-2.6,0-4.24,1.42-4.24,3.18,0,4.04,6.4,2.8,6.4,4.96,0,.76-.7,1.32-2.02,1.32a2.011,2.011,0,0,1-2.2-1.64h-2.36c.1,2,1.96,3.56,4.6,3.56C128.33.18,129.95-1.22,129.95-3.08Z" transform="translate(992 2112)" fill="#585858"/>
    <path id="Path_2038" data-name="Path 2038" d="M5.7-11.28H6.752l1.6,4.032L9.968-11.28H11.04L9.056-6.432,11.232-1.3,15.344-11.36H16.56L11.744,0h-.992L8.368-5.616,5.968,0H4.992L.192-11.36h1.2L5.52-1.3,7.68-6.432ZM17.936,0V-8.336h1.088V0Zm0-10.08v-1.6h1.088v1.6ZM24.848.16a3.592,3.592,0,0,1-1.6-.36,4.071,4.071,0,0,1-1.264-.952A4.378,4.378,0,0,1,21.16-2.52a4.518,4.518,0,0,1-.3-1.624,4.854,4.854,0,0,1,.288-1.672A4.467,4.467,0,0,1,21.944-7.2a3.732,3.732,0,0,1,1.2-.936,3.4,3.4,0,0,1,1.528-.344,3.262,3.262,0,0,1,1.872.552,4.178,4.178,0,0,1,1.28,1.336V-11.68h1.088V-1.408q0,.448.384.448V0a2.065,2.065,0,0,1-.384.048A1,1,0,0,1,28.24-.2a.765.765,0,0,1-.288-.6v-.816a3.646,3.646,0,0,1-1.344,1.3A3.526,3.526,0,0,1,24.848.16Zm.24-.96a2.592,2.592,0,0,0,.856-.16A3.517,3.517,0,0,0,26.8-1.4a2.948,2.948,0,0,0,.68-.656,1.774,1.774,0,0,0,.344-.808V-5.44a2.86,2.86,0,0,0-.464-.808,3.734,3.734,0,0,0-.7-.664,3.271,3.271,0,0,0-.84-.448,2.606,2.606,0,0,0-.88-.16,2.558,2.558,0,0,0-1.216.288,3.075,3.075,0,0,0-.936.76,3.392,3.392,0,0,0-.6,1.08,3.83,3.83,0,0,0-.208,1.248,3.455,3.455,0,0,0,.24,1.28A3.431,3.431,0,0,0,22.88-1.8a3.173,3.173,0,0,0,.984.728A2.8,2.8,0,0,0,25.088-.8Zm9.888.96A4.008,4.008,0,0,1,33.3-.184a4.1,4.1,0,0,1-1.32-.944,4.383,4.383,0,0,1-.872-1.384,4.5,4.5,0,0,1-.312-1.68,4.4,4.4,0,0,1,.312-1.656,4.286,4.286,0,0,1,.864-1.36,4.1,4.1,0,0,1,1.32-.928A4.024,4.024,0,0,1,34.96-8.48a4.008,4.008,0,0,1,1.672.344,3.975,3.975,0,0,1,1.3.936,4.365,4.365,0,0,1,.848,1.36,4.393,4.393,0,0,1,.3,1.632v.256a.644.644,0,0,1-.016.176H31.936a3.509,3.509,0,0,0,.312,1.24,3.408,3.408,0,0,0,.68.984A3.047,3.047,0,0,0,33.88-.9a2.849,2.849,0,0,0,1.144.232,2.955,2.955,0,0,0,.8-.112,3.234,3.234,0,0,0,.736-.3,2.737,2.737,0,0,0,.608-.472,2.027,2.027,0,0,0,.416-.616l.944.256a2.772,2.772,0,0,1-.544.84,3.8,3.8,0,0,1-.816.656,4,4,0,0,1-1.024.432A4.439,4.439,0,0,1,34.976.16Zm3.072-4.768a3.367,3.367,0,0,0-.312-1.224,3.332,3.332,0,0,0-.672-.952,2.972,2.972,0,0,0-.944-.624,2.937,2.937,0,0,0-1.144-.224,3,3,0,0,0-1.152.224,2.949,2.949,0,0,0-.952.624,3.067,3.067,0,0,0-.656.96,3.634,3.634,0,0,0-.3,1.216ZM43.536.16a5.8,5.8,0,0,1-1.9-.32,4.576,4.576,0,0,1-1.6-.928l.5-.736A5.425,5.425,0,0,0,41.96-.96a4.2,4.2,0,0,0,1.56.288,2.816,2.816,0,0,0,1.608-.408,1.32,1.32,0,0,0,.6-1.16,1,1,0,0,0-.16-.584,1.385,1.385,0,0,0-.472-.408,3.685,3.685,0,0,0-.784-.312q-.472-.136-1.1-.28Q42.5-4,41.968-4.176a3.817,3.817,0,0,1-.872-.4,1.443,1.443,0,0,1-.512-.552,1.8,1.8,0,0,1-.168-.824,2.371,2.371,0,0,1,.248-1.1,2.251,2.251,0,0,1,.672-.792,3.053,3.053,0,0,1,.992-.472,4.437,4.437,0,0,1,1.208-.16,4.679,4.679,0,0,1,1.744.312,3.447,3.447,0,0,1,1.264.824l-.528.64a2.927,2.927,0,0,0-1.128-.72,4.04,4.04,0,0,0-1.384-.24,3.436,3.436,0,0,0-.8.088,1.926,1.926,0,0,0-.648.28,1.38,1.38,0,0,0-.44.488,1.442,1.442,0,0,0-.16.7,1.146,1.146,0,0,0,.112.544.956.956,0,0,0,.368.36,3,3,0,0,0,.648.272q.392.12.952.248.8.192,1.408.384a4.422,4.422,0,0,1,1.016.448,1.765,1.765,0,0,1,.616.624,1.8,1.8,0,0,1,.208.9A2.173,2.173,0,0,1,45.9-.512,3.807,3.807,0,0,1,43.536.16ZM52.56-.4q-.1.048-.28.128t-.424.16a4.963,4.963,0,0,1-.544.144,3.1,3.1,0,0,1-.64.064A2.326,2.326,0,0,1,50,0a1.567,1.567,0,0,1-.56-.3,1.457,1.457,0,0,1-.384-.5,1.627,1.627,0,0,1-.144-.7V-7.472H47.76v-.864h1.152v-2.816H50v2.816h1.92v.864H50v5.664a.864.864,0,0,0,.328.68,1.124,1.124,0,0,0,.68.216,2.043,2.043,0,0,0,.816-.152,3.6,3.6,0,0,0,.448-.216Zm8.208.56a5.8,5.8,0,0,1-1.9-.32,4.576,4.576,0,0,1-1.6-.928l.5-.736a5.425,5.425,0,0,0,1.432.864,4.2,4.2,0,0,0,1.56.288A2.816,2.816,0,0,0,62.36-1.08a1.32,1.32,0,0,0,.6-1.16,1,1,0,0,0-.16-.584,1.385,1.385,0,0,0-.472-.408,3.685,3.685,0,0,0-.784-.312q-.472-.136-1.1-.28Q59.728-4,59.2-4.176a3.817,3.817,0,0,1-.872-.4,1.443,1.443,0,0,1-.512-.552,1.8,1.8,0,0,1-.168-.824,2.371,2.371,0,0,1,.248-1.1,2.251,2.251,0,0,1,.672-.792,3.053,3.053,0,0,1,.992-.472,4.437,4.437,0,0,1,1.208-.16,4.679,4.679,0,0,1,1.744.312,3.447,3.447,0,0,1,1.264.824l-.528.64a2.927,2.927,0,0,0-1.128-.72,4.04,4.04,0,0,0-1.384-.24,3.436,3.436,0,0,0-.8.088,1.926,1.926,0,0,0-.648.28,1.38,1.38,0,0,0-.44.488,1.442,1.442,0,0,0-.16.7,1.146,1.146,0,0,0,.112.544.956.956,0,0,0,.368.36,3,3,0,0,0,.648.272q.392.12.952.248.8.192,1.408.384a4.422,4.422,0,0,1,1.016.448,1.765,1.765,0,0,1,.616.624,1.8,1.8,0,0,1,.208.9,2.173,2.173,0,0,1-.88,1.824A3.807,3.807,0,0,1,60.768.16Zm8.624,0A4.008,4.008,0,0,1,67.72-.184a4.1,4.1,0,0,1-1.32-.944,4.384,4.384,0,0,1-.872-1.384,4.5,4.5,0,0,1-.312-1.68,4.4,4.4,0,0,1,.312-1.656,4.286,4.286,0,0,1,.864-1.36,4.1,4.1,0,0,1,1.32-.928,4.024,4.024,0,0,1,1.664-.344,4.008,4.008,0,0,1,1.672.344,3.975,3.975,0,0,1,1.3.936A4.365,4.365,0,0,1,73.2-5.84a4.393,4.393,0,0,1,.3,1.632v.256a.644.644,0,0,1-.016.176H66.352a3.509,3.509,0,0,0,.312,1.24,3.408,3.408,0,0,0,.68.984A3.047,3.047,0,0,0,68.3-.9a2.849,2.849,0,0,0,1.144.232,2.955,2.955,0,0,0,.8-.112,3.234,3.234,0,0,0,.736-.3,2.737,2.737,0,0,0,.608-.472A2.027,2.027,0,0,0,72-2.176l.944.256a2.772,2.772,0,0,1-.544.84,3.8,3.8,0,0,1-.816.656A4,4,0,0,1,70.56.008,4.439,4.439,0,0,1,69.392.16Zm3.072-4.768a3.367,3.367,0,0,0-.312-1.224,3.332,3.332,0,0,0-.672-.952,2.972,2.972,0,0,0-.944-.624,2.937,2.937,0,0,0-1.144-.224,3,3,0,0,0-1.152.224,2.949,2.949,0,0,0-.952.624,3.067,3.067,0,0,0-.656.96,3.634,3.634,0,0,0-.3,1.216Zm2.768-7.072H76.32v9.792a1,1,0,0,0,.256.728A.956.956,0,0,0,77.3-.9a2.163,2.163,0,0,0,.416-.048,2.747,2.747,0,0,0,.448-.128l.192.88a3.591,3.591,0,0,1-.744.208,4.336,4.336,0,0,1-.76.08,1.617,1.617,0,0,1-1.184-.424,1.594,1.594,0,0,1-.432-1.192ZM83.136.16a4.008,4.008,0,0,1-1.672-.344,4.1,4.1,0,0,1-1.32-.944,4.384,4.384,0,0,1-.872-1.384,4.5,4.5,0,0,1-.312-1.68,4.4,4.4,0,0,1,.312-1.656,4.286,4.286,0,0,1,.864-1.36,4.1,4.1,0,0,1,1.32-.928A4.024,4.024,0,0,1,83.12-8.48a4.008,4.008,0,0,1,1.672.344,3.975,3.975,0,0,1,1.3.936,4.365,4.365,0,0,1,.848,1.36,4.393,4.393,0,0,1,.3,1.632v.256a.644.644,0,0,1-.016.176H80.1a3.509,3.509,0,0,0,.312,1.24,3.408,3.408,0,0,0,.68.984A3.047,3.047,0,0,0,82.04-.9a2.849,2.849,0,0,0,1.144.232,2.955,2.955,0,0,0,.8-.112,3.234,3.234,0,0,0,.736-.3,2.737,2.737,0,0,0,.608-.472,2.027,2.027,0,0,0,.416-.616l.944.256a2.772,2.772,0,0,1-.544.84,3.8,3.8,0,0,1-.816.656A4,4,0,0,1,84.3.008,4.439,4.439,0,0,1,83.136.16Zm3.072-4.768A3.367,3.367,0,0,0,85.9-5.832a3.332,3.332,0,0,0-.672-.952,2.972,2.972,0,0,0-.944-.624,2.937,2.937,0,0,0-1.144-.224,3,3,0,0,0-1.152.224,2.949,2.949,0,0,0-.952.624,3.067,3.067,0,0,0-.656.96,3.634,3.634,0,0,0-.3,1.216Zm2.144.416a4.562,4.562,0,0,1,.3-1.664,4.155,4.155,0,0,1,.856-1.368,4,4,0,0,1,1.32-.92,4.186,4.186,0,0,1,1.7-.336,3.889,3.889,0,0,1,2.064.536A3.443,3.443,0,0,1,95.92-6.5l-1.056.336a2.535,2.535,0,0,0-.984-1,2.779,2.779,0,0,0-1.4-.36,2.8,2.8,0,0,0-1.192.256,3.04,3.04,0,0,0-.96.7,3.2,3.2,0,0,0-.64,1.048,3.7,3.7,0,0,0-.232,1.328,3.667,3.667,0,0,0,.24,1.328,3.388,3.388,0,0,0,.656,1.08,3.123,3.123,0,0,0,.968.72A2.691,2.691,0,0,0,92.5-.8a2.87,2.87,0,0,0,.792-.112,3.06,3.06,0,0,0,.728-.312,2.618,2.618,0,0,0,.576-.456,1.482,1.482,0,0,0,.336-.544L96-1.9a2.727,2.727,0,0,1-.512.824,3.532,3.532,0,0,1-.792.656,3.886,3.886,0,0,1-1.008.432A4.289,4.289,0,0,1,92.544.16a4.063,4.063,0,0,1-1.68-.344,4.073,4.073,0,0,1-1.328-.944,4.384,4.384,0,0,1-.872-1.384A4.5,4.5,0,0,1,88.352-4.192ZM101.712-.4q-.1.048-.28.128t-.424.16a4.964,4.964,0,0,1-.544.144,3.1,3.1,0,0,1-.64.064,2.326,2.326,0,0,1-.672-.1,1.567,1.567,0,0,1-.56-.3,1.457,1.457,0,0,1-.384-.5,1.627,1.627,0,0,1-.144-.7V-7.472H96.912v-.864h1.152v-2.816h1.088v2.816h1.92v.864h-1.92v5.664a.864.864,0,0,0,.328.68,1.124,1.124,0,0,0,.68.216,2.043,2.043,0,0,0,.816-.152,3.6,3.6,0,0,0,.448-.216Zm1.36.4V-8.336h1.088V0Zm0-10.08v-1.6h1.088v1.6ZM110.112.16a3.953,3.953,0,0,1-1.664-.344,4.09,4.09,0,0,1-1.3-.936,4.247,4.247,0,0,1-.856-1.376,4.518,4.518,0,0,1-.3-1.648,4.458,4.458,0,0,1,.312-1.664,4.36,4.36,0,0,1,.864-1.376,4.2,4.2,0,0,1,1.3-.944,3.839,3.839,0,0,1,1.648-.352,3.892,3.892,0,0,1,1.656.352,4.169,4.169,0,0,1,1.312.944,4.36,4.36,0,0,1,.864,1.376,4.458,4.458,0,0,1,.312,1.664,4.518,4.518,0,0,1-.3,1.648A4.247,4.247,0,0,1,113.1-1.12a4.065,4.065,0,0,1-1.312.936A4.008,4.008,0,0,1,110.112.16Zm-3.024-4.288a3.479,3.479,0,0,0,.24,1.3,3.539,3.539,0,0,0,.648,1.056,2.929,2.929,0,0,0,.96.712,2.761,2.761,0,0,0,1.176.256,2.691,2.691,0,0,0,1.176-.264,3.123,3.123,0,0,0,.968-.72,3.431,3.431,0,0,0,.656-1.064,3.541,3.541,0,0,0,.24-1.312,3.56,3.56,0,0,0-.24-1.3,3.408,3.408,0,0,0-.656-1.072,3.123,3.123,0,0,0-.968-.72,2.691,2.691,0,0,0-1.176-.264,2.64,2.64,0,0,0-1.168.264,3.1,3.1,0,0,0-.96.728,3.509,3.509,0,0,0-.656,1.08A3.6,3.6,0,0,0,107.088-4.128Zm16,4.128H122V-4.656a4.062,4.062,0,0,0-.44-2.16,1.5,1.5,0,0,0-1.352-.672,2.772,2.772,0,0,0-.96.176,3.236,3.236,0,0,0-.888.5,3.8,3.8,0,0,0-.728.76,2.979,2.979,0,0,0-.464.952V0H116.08V-8.336h.992v1.888a3.916,3.916,0,0,1,1.464-1.472,4.014,4.014,0,0,1,2.072-.56,2.454,2.454,0,0,1,1.168.256,1.993,1.993,0,0,1,.768.72,3.317,3.317,0,0,1,.416,1.136,7.975,7.975,0,0,1,.128,1.488Zm9.952.16a3.953,3.953,0,0,1-1.664-.344,4.09,4.09,0,0,1-1.3-.936,4.247,4.247,0,0,1-.856-1.376,4.518,4.518,0,0,1-.3-1.648,4.458,4.458,0,0,1,.312-1.664,4.36,4.36,0,0,1,.864-1.376,4.2,4.2,0,0,1,1.3-.944,3.839,3.839,0,0,1,1.648-.352,3.892,3.892,0,0,1,1.656.352,4.169,4.169,0,0,1,1.312.944,4.36,4.36,0,0,1,.864,1.376,4.459,4.459,0,0,1,.312,1.664,4.518,4.518,0,0,1-.3,1.648,4.247,4.247,0,0,1-.856,1.376,4.065,4.065,0,0,1-1.312.936A4.008,4.008,0,0,1,133.04.16Zm-3.024-4.288a3.479,3.479,0,0,0,.24,1.3,3.539,3.539,0,0,0,.648,1.056,2.929,2.929,0,0,0,.96.712A2.761,2.761,0,0,0,133.04-.8a2.691,2.691,0,0,0,1.176-.264,3.123,3.123,0,0,0,.968-.72,3.431,3.431,0,0,0,.656-1.064,3.542,3.542,0,0,0,.24-1.312,3.561,3.561,0,0,0-.24-1.3,3.409,3.409,0,0,0-.656-1.072,3.123,3.123,0,0,0-.968-.72,2.691,2.691,0,0,0-1.176-.264,2.64,2.64,0,0,0-1.168.264,3.1,3.1,0,0,0-.96.728,3.509,3.509,0,0,0-.656,1.08A3.6,3.6,0,0,0,130.016-4.128ZM139.28,0V-7.472h-1.152v-.864h1.152V-8.56a3.926,3.926,0,0,1,.656-2.408,2.122,2.122,0,0,1,1.792-.872,3.22,3.22,0,0,1,.96.144,2.787,2.787,0,0,1,.8.384l-.336.784a1.62,1.62,0,0,0-.552-.272,2.353,2.353,0,0,0-.664-.1,1.321,1.321,0,0,0-1.168.592,3.054,3.054,0,0,0-.4,1.712v.256h2.3v.864h-2.3V0ZM150,.16a2.945,2.945,0,0,1-1.1-.2,2.766,2.766,0,0,1-.88-.552,2.5,2.5,0,0,1-.584-.824,2.491,2.491,0,0,1-.208-1.016,2.053,2.053,0,0,1,.256-1.008,2.44,2.44,0,0,1,.72-.8,3.525,3.525,0,0,1,1.1-.52,5.084,5.084,0,0,1,1.408-.184,7.69,7.69,0,0,1,1.3.112,5.617,5.617,0,0,1,1.168.32v-.752a2.42,2.42,0,0,0-.624-1.752,2.286,2.286,0,0,0-1.728-.648,3.672,3.672,0,0,0-1.312.256,6.327,6.327,0,0,0-1.36.736l-.384-.72a5.629,5.629,0,0,1,3.136-1.088,3.365,3.365,0,0,1,2.464.88,3.253,3.253,0,0,1,.9,2.432v3.76q0,.448.4.448V0a2.594,2.594,0,0,1-.416.048.937.937,0,0,1-.648-.208.782.782,0,0,1-.248-.576l-.032-.656A3.781,3.781,0,0,1,151.88-.24,4.455,4.455,0,0,1,150,.16Zm.256-.832a3.762,3.762,0,0,0,1.56-.32,2.548,2.548,0,0,0,1.08-.848,1,1,0,0,0,.216-.312.8.8,0,0,0,.072-.312v-1.36a6.669,6.669,0,0,0-1.128-.32,6.315,6.315,0,0,0-1.192-.112,3.316,3.316,0,0,0-1.872.48,1.459,1.459,0,0,0-.72,1.264,1.726,1.726,0,0,0,.152.72,1.824,1.824,0,0,0,.416.584,1.948,1.948,0,0,0,.632.392A2.132,2.132,0,0,0,150.256-.672Zm5.792-3.52a4.562,4.562,0,0,1,.3-1.664,4.155,4.155,0,0,1,.856-1.368,4,4,0,0,1,1.32-.92,4.186,4.186,0,0,1,1.7-.336,3.889,3.889,0,0,1,2.064.536A3.443,3.443,0,0,1,163.616-6.5l-1.056.336a2.535,2.535,0,0,0-.984-1,2.779,2.779,0,0,0-1.4-.36,2.8,2.8,0,0,0-1.192.256,3.04,3.04,0,0,0-.96.7,3.2,3.2,0,0,0-.64,1.048,3.7,3.7,0,0,0-.232,1.328,3.667,3.667,0,0,0,.24,1.328,3.388,3.388,0,0,0,.656,1.08,3.123,3.123,0,0,0,.968.72,2.691,2.691,0,0,0,1.176.264,2.87,2.87,0,0,0,.792-.112,3.059,3.059,0,0,0,.728-.312,2.619,2.619,0,0,0,.576-.456,1.482,1.482,0,0,0,.336-.544l1.072.32a2.727,2.727,0,0,1-.512.824,3.532,3.532,0,0,1-.792.656,3.886,3.886,0,0,1-1.008.432A4.289,4.289,0,0,1,160.24.16a4.063,4.063,0,0,1-1.68-.344,4.073,4.073,0,0,1-1.328-.944,4.383,4.383,0,0,1-.872-1.384A4.5,4.5,0,0,1,156.048-4.192ZM168.528.16a3.31,3.31,0,0,1-1.544-.36,3.789,3.789,0,0,1-1.192-.96,4.447,4.447,0,0,1-.768-1.376,4.874,4.874,0,0,1-.272-1.624,4.518,4.518,0,0,1,.3-1.648,4.4,4.4,0,0,1,.84-1.376,4.09,4.09,0,0,1,1.264-.944,3.537,3.537,0,0,1,1.56-.352,3.258,3.258,0,0,1,.936.136,3.948,3.948,0,0,1,.856.368,3.53,3.53,0,0,1,.728.56,4.013,4.013,0,0,1,.568.712V-8.336h.976V1.952q0,.448.4.464V3.36a1.589,1.589,0,0,1-.312.032h-.3a.929.929,0,0,1-.624-.312.951.951,0,0,1-.256-.664V-1.728A4.428,4.428,0,0,1,170.288-.32,3.357,3.357,0,0,1,168.528.16Zm.336-.96a2.539,2.539,0,0,0,.9-.16,3.273,3.273,0,0,0,.784-.424,3.412,3.412,0,0,0,.648-.624,4.645,4.645,0,0,0,.5-.76V-5.344a1.931,1.931,0,0,0-.336-.824,3.153,3.153,0,0,0-.664-.7,3.3,3.3,0,0,0-.856-.48,2.56,2.56,0,0,0-.912-.176,2.7,2.7,0,0,0-1.24.288,3.172,3.172,0,0,0-.976.76,3.47,3.47,0,0,0-.632,1.08,3.583,3.583,0,0,0-.224,1.248,3.673,3.673,0,0,0,.224,1.28A3.354,3.354,0,0,0,166.7-1.8a3.041,3.041,0,0,0,.952.728A2.7,2.7,0,0,0,168.864-.8Zm8.928.96a2.347,2.347,0,0,1-2.024-.9,4.536,4.536,0,0,1-.664-2.7v-4.9h1.088v4.7q0,2.832,1.936,2.832a2.877,2.877,0,0,0,.944-.16,2.966,2.966,0,0,0,.856-.464,3.758,3.758,0,0,0,.7-.72,3.628,3.628,0,0,0,.5-.944V-8.336h1.088v6.928q0,.448.384.448V0a1.983,1.983,0,0,1-.312.032h-.168A.869.869,0,0,1,181.5-.24a.965.965,0,0,1-.24-.688v-.96a3.88,3.88,0,0,1-1.48,1.512A3.946,3.946,0,0,1,177.792.16Zm6.9-.16V-8.336h1.088V0Zm0-10.08v-1.6h1.088v1.6Zm7.648,2.7a3.422,3.422,0,0,0-1.92.608,3.066,3.066,0,0,0-1.152,1.584V0h-1.088V-8.336H189.2v2a3.792,3.792,0,0,1,1.248-1.5,2.892,2.892,0,0,1,1.68-.544,1.1,1.1,0,0,1,.208.016ZM193.792,0V-8.336h1.088V0Zm0-10.08v-1.6h1.088v1.6ZM204.288,0H203.2V-4.656a4.062,4.062,0,0,0-.44-2.16,1.5,1.5,0,0,0-1.352-.672,2.772,2.772,0,0,0-.96.176,3.237,3.237,0,0,0-.888.5,3.8,3.8,0,0,0-.728.76,2.979,2.979,0,0,0-.464.952V0H197.28V-8.336h.992v1.888a3.916,3.916,0,0,1,1.464-1.472,4.014,4.014,0,0,1,2.072-.56,2.454,2.454,0,0,1,1.168.256,1.993,1.993,0,0,1,.768.72,3.317,3.317,0,0,1,.416,1.136,7.976,7.976,0,0,1,.128,1.488Zm5.664.112a3.442,3.442,0,0,1-1.576-.36,4.065,4.065,0,0,1-1.232-.952,4.36,4.36,0,0,1-.808-1.36,4.476,4.476,0,0,1-.288-1.584,4.932,4.932,0,0,1,.28-1.656,4.264,4.264,0,0,1,.792-1.384,3.866,3.866,0,0,1,1.224-.944,3.507,3.507,0,0,1,1.576-.352,3.208,3.208,0,0,1,1.856.536,5.145,5.145,0,0,1,1.344,1.352V-8.336h.976V.032a3.407,3.407,0,0,1-.328,1.528,3.285,3.285,0,0,1-.88,1.112,3.744,3.744,0,0,1-1.3.672,5.439,5.439,0,0,1-1.576.224,4.588,4.588,0,0,1-2.32-.512,4.09,4.09,0,0,1-1.424-1.376l.672-.528a3,3,0,0,0,1.312,1.176,4.154,4.154,0,0,0,1.76.376,3.883,3.883,0,0,0,1.152-.168,2.839,2.839,0,0,0,.952-.5,2.34,2.34,0,0,0,.648-.832,2.708,2.708,0,0,0,.24-1.176V-1.616A3.474,3.474,0,0,1,211.7-.352,3.53,3.53,0,0,1,209.952.112Zm.3-.912a2.642,2.642,0,0,0,.944-.176,3.161,3.161,0,0,0,.84-.472,3.093,3.093,0,0,0,.632-.664,2.047,2.047,0,0,0,.336-.752V-5.44a3.247,3.247,0,0,0-.48-.832,3.333,3.333,0,0,0-.688-.656,3.473,3.473,0,0,0-.824-.432,2.582,2.582,0,0,0-.888-.16,2.616,2.616,0,0,0-1.256.3,3,3,0,0,0-.936.776,3.452,3.452,0,0,0-.584,1.088,3.92,3.92,0,0,0-.2,1.232,3.455,3.455,0,0,0,.24,1.28,3.354,3.354,0,0,0,.664,1.064,3.189,3.189,0,0,0,.984.72A2.815,2.815,0,0,0,210.256-.8Zm14.4.96a3.455,3.455,0,0,1-1.816-.5,3.656,3.656,0,0,1-1.288-1.28V0h-.976V-11.68h1.088v5.088a4.766,4.766,0,0,1,1.344-1.368,3.223,3.223,0,0,1,1.824-.52,3.32,3.32,0,0,1,1.576.368,3.7,3.7,0,0,1,1.184.984,4.616,4.616,0,0,1,.752,1.392,4.91,4.91,0,0,1,.264,1.592,4.562,4.562,0,0,1-.3,1.664,4.376,4.376,0,0,1-.832,1.368,3.949,3.949,0,0,1-1.256.928A3.605,3.605,0,0,1,224.656.16ZM224.4-.8a2.8,2.8,0,0,0,1.256-.28,3.071,3.071,0,0,0,.976-.752,3.623,3.623,0,0,0,.64-1.072,3.409,3.409,0,0,0,.232-1.24,3.748,3.748,0,0,0-.216-1.264,3.517,3.517,0,0,0-.608-1.08,2.946,2.946,0,0,0-.944-.752,2.632,2.632,0,0,0-1.208-.28,2.538,2.538,0,0,0-.928.168,3.136,3.136,0,0,0-.8.456,3.683,3.683,0,0,0-.656.664,4.183,4.183,0,0,0-.48.792v2.592a1.775,1.775,0,0,0,.344.808,2.874,2.874,0,0,0,.672.648,3.531,3.531,0,0,0,.848.432A2.632,2.632,0,0,0,224.4-.8Zm8.144.96a2.945,2.945,0,0,1-1.1-.2,2.766,2.766,0,0,1-.88-.552,2.5,2.5,0,0,1-.584-.824,2.491,2.491,0,0,1-.208-1.016,2.053,2.053,0,0,1,.256-1.008,2.44,2.44,0,0,1,.72-.8,3.525,3.525,0,0,1,1.1-.52,5.084,5.084,0,0,1,1.408-.184,7.69,7.69,0,0,1,1.3.112,5.617,5.617,0,0,1,1.168.32v-.752a2.42,2.42,0,0,0-.624-1.752,2.286,2.286,0,0,0-1.728-.648,3.672,3.672,0,0,0-1.312.256,6.327,6.327,0,0,0-1.36.736l-.384-.72a5.629,5.629,0,0,1,3.136-1.088,3.365,3.365,0,0,1,2.464.88,3.253,3.253,0,0,1,.9,2.432v3.76q0,.448.4.448V0a2.594,2.594,0,0,1-.416.048.937.937,0,0,1-.648-.208.782.782,0,0,1-.248-.576l-.032-.656A3.781,3.781,0,0,1,234.424-.24,4.455,4.455,0,0,1,232.544.16Zm.256-.832a3.762,3.762,0,0,0,1.56-.32,2.548,2.548,0,0,0,1.08-.848,1,1,0,0,0,.216-.312.8.8,0,0,0,.072-.312v-1.36a6.669,6.669,0,0,0-1.128-.32,6.315,6.315,0,0,0-1.192-.112,3.316,3.316,0,0,0-1.872.48,1.459,1.459,0,0,0-.72,1.264,1.726,1.726,0,0,0,.152.72,1.824,1.824,0,0,0,.416.584,1.948,1.948,0,0,0,.632.392A2.132,2.132,0,0,0,232.8-.672ZM246.176,0h-1.088V-4.656a4.062,4.062,0,0,0-.44-2.16,1.5,1.5,0,0,0-1.352-.672,2.772,2.772,0,0,0-.96.176,3.237,3.237,0,0,0-.888.5,3.8,3.8,0,0,0-.728.76,2.979,2.979,0,0,0-.464.952V0h-1.088V-8.336h.992v1.888a3.916,3.916,0,0,1,1.464-1.472,4.014,4.014,0,0,1,2.072-.56,2.454,2.454,0,0,1,1.168.256,1.993,1.993,0,0,1,.768.72,3.317,3.317,0,0,1,.416,1.136,7.976,7.976,0,0,1,.128,1.488Zm8.272,0-3.072-4.272-1.792,1.664V0H248.5V-11.68h1.088v7.936l4.688-4.576H255.5L252.1-4.912,255.632,0Zm5.3.16a5.8,5.8,0,0,1-1.9-.32,4.576,4.576,0,0,1-1.6-.928l.5-.736a5.425,5.425,0,0,0,1.432.864,4.2,4.2,0,0,0,1.56.288,2.816,2.816,0,0,0,1.608-.408,1.32,1.32,0,0,0,.6-1.16,1,1,0,0,0-.16-.584,1.385,1.385,0,0,0-.472-.408,3.685,3.685,0,0,0-.784-.312q-.472-.136-1.1-.28-.72-.176-1.248-.352a3.817,3.817,0,0,1-.872-.4,1.443,1.443,0,0,1-.512-.552,1.8,1.8,0,0,1-.168-.824,2.371,2.371,0,0,1,.248-1.1,2.251,2.251,0,0,1,.672-.792,3.052,3.052,0,0,1,.992-.472,4.436,4.436,0,0,1,1.208-.16,4.679,4.679,0,0,1,1.744.312,3.447,3.447,0,0,1,1.264.824l-.528.64a2.927,2.927,0,0,0-1.128-.72,4.04,4.04,0,0,0-1.384-.24,3.436,3.436,0,0,0-.8.088,1.926,1.926,0,0,0-.648.28,1.379,1.379,0,0,0-.44.488,1.442,1.442,0,0,0-.16.7,1.146,1.146,0,0,0,.112.544.956.956,0,0,0,.368.36,3,3,0,0,0,.648.272q.392.12.952.248.8.192,1.408.384a4.422,4.422,0,0,1,1.016.448,1.765,1.765,0,0,1,.616.624,1.8,1.8,0,0,1,.208.9,2.173,2.173,0,0,1-.88,1.824A3.807,3.807,0,0,1,259.744.16ZM9.136,28,7.824,26.624A4.988,4.988,0,0,1,6.28,27.752a4.418,4.418,0,0,1-1.9.408,4.4,4.4,0,0,1-1.416-.224A3.538,3.538,0,0,1,1.816,27.3a3.067,3.067,0,0,1-.776-.976,2.737,2.737,0,0,1-.288-1.256,2.819,2.819,0,0,1,.192-1.056,3.343,3.343,0,0,1,.528-.888,5.451,5.451,0,0,1,.768-.76q.432-.352.912-.672-.432-.464-.728-.832a5.832,5.832,0,0,1-.48-.68,2.517,2.517,0,0,1-.264-.6,2.2,2.2,0,0,1-.08-.592,2.269,2.269,0,0,1,.216-.984,2.418,2.418,0,0,1,.6-.792,2.863,2.863,0,0,1,.9-.528A3.232,3.232,0,0,1,4.448,16.5a3.27,3.27,0,0,1,1.04.16,2.6,2.6,0,0,1,.84.456,2.166,2.166,0,0,1,.568.712A2.123,2.123,0,0,1,6.9,19.64a3.318,3.318,0,0,1-.536.776,5.635,5.635,0,0,1-.784.7q-.448.336-.96.672L7.808,25.12a6.1,6.1,0,0,0,.5-1.32A5.957,5.957,0,0,0,8.5,22.3h.928a7.311,7.311,0,0,1-.264,1.872,6.128,6.128,0,0,1-.712,1.616L10.576,28ZM4.5,27.28A3.316,3.316,0,0,0,6,26.936a3.928,3.928,0,0,0,1.216-.952l-3.44-3.632a7.586,7.586,0,0,0-1.408,1.24,2.241,2.241,0,0,0-.56,1.512,1.86,1.86,0,0,0,.232.936,2.172,2.172,0,0,0,.616.688,2.7,2.7,0,0,0,.864.416A3.564,3.564,0,0,0,4.5,27.28ZM2.608,18.96a1.366,1.366,0,0,0,.056.384,1.741,1.741,0,0,0,.216.44,6.991,6.991,0,0,0,.424.576q.264.328.7.776a11.907,11.907,0,0,0,1.512-1.144A1.624,1.624,0,0,0,6.1,18.768a1.291,1.291,0,0,0-.464-1.024,1.749,1.749,0,0,0-1.184-.4,2.051,2.051,0,0,0-.736.128,1.837,1.837,0,0,0-.584.352,1.616,1.616,0,0,0-.384.512A1.443,1.443,0,0,0,2.608,18.96Zm13.744,1.568H15.2v-.864h1.152V19.44a4.264,4.264,0,0,1,.168-1.168,3.072,3.072,0,0,1,.528-1.056A2.736,2.736,0,0,1,19.3,16.16a4,4,0,0,1,.816.08,5.21,5.21,0,0,1,.7.192,2.966,2.966,0,0,1,.536.248q.224.136.368.232l-.5.784a2.243,2.243,0,0,0-.768-.408,3.373,3.373,0,0,0-1.088-.168,1.716,1.716,0,0,0-.872.208,1.885,1.885,0,0,0-.592.528,2.227,2.227,0,0,0-.344.736,3.131,3.131,0,0,0-.112.816v.256h4.176V28H20.528V20.528H17.44V28H16.352ZM31.024,28H29.936V23.344a4.062,4.062,0,0,0-.44-2.16,1.5,1.5,0,0,0-1.352-.672,2.772,2.772,0,0,0-.96.176,3.236,3.236,0,0,0-.888.5,3.8,3.8,0,0,0-.728.76,2.979,2.979,0,0,0-.464.952V28H24.016V19.664h.992v1.888a3.916,3.916,0,0,1,1.464-1.472,4.014,4.014,0,0,1,2.072-.56,2.454,2.454,0,0,1,1.168.256,1.993,1.993,0,0,1,.768.72,3.317,3.317,0,0,1,.416,1.136,7.975,7.975,0,0,1,.128,1.488Zm4.416.16a2.945,2.945,0,0,1-1.1-.2,2.766,2.766,0,0,1-.88-.552,2.486,2.486,0,0,1-.792-1.84,2.053,2.053,0,0,1,.256-1.008,2.44,2.44,0,0,1,.72-.8,3.525,3.525,0,0,1,1.1-.52,5.083,5.083,0,0,1,1.408-.184,7.69,7.69,0,0,1,1.3.112,5.617,5.617,0,0,1,1.168.32v-.752A2.42,2.42,0,0,0,38,20.984a2.286,2.286,0,0,0-1.728-.648,3.672,3.672,0,0,0-1.312.256,6.327,6.327,0,0,0-1.36.736l-.384-.72a5.629,5.629,0,0,1,3.136-1.088,3.365,3.365,0,0,1,2.464.88,3.253,3.253,0,0,1,.9,2.432v3.76q0,.448.4.448V28a2.594,2.594,0,0,1-.416.048.937.937,0,0,1-.648-.208.783.783,0,0,1-.248-.576l-.032-.656A3.781,3.781,0,0,1,37.32,27.76,4.455,4.455,0,0,1,35.44,28.16Zm.256-.832a3.762,3.762,0,0,0,1.56-.32,2.548,2.548,0,0,0,1.08-.848,1,1,0,0,0,.216-.312.8.8,0,0,0,.072-.312v-1.36a6.669,6.669,0,0,0-1.128-.32,6.314,6.314,0,0,0-1.192-.112,3.316,3.316,0,0,0-1.872.48,1.459,1.459,0,0,0-.72,1.264,1.726,1.726,0,0,0,.152.72,1.824,1.824,0,0,0,.416.584,1.948,1.948,0,0,0,.632.392A2.132,2.132,0,0,0,35.7,27.328ZM49.072,28H47.984V23.344a4.062,4.062,0,0,0-.44-2.16,1.5,1.5,0,0,0-1.352-.672,2.772,2.772,0,0,0-.96.176,3.236,3.236,0,0,0-.888.5,3.8,3.8,0,0,0-.728.76,2.979,2.979,0,0,0-.464.952V28H42.064V19.664h.992v1.888A3.916,3.916,0,0,1,44.52,20.08a4.014,4.014,0,0,1,2.072-.56,2.454,2.454,0,0,1,1.168.256,1.993,1.993,0,0,1,.768.72,3.317,3.317,0,0,1,.416,1.136,7.975,7.975,0,0,1,.128,1.488Zm1.744-4.192a4.562,4.562,0,0,1,.3-1.664,4.155,4.155,0,0,1,.856-1.368,4,4,0,0,1,1.32-.92,4.186,4.186,0,0,1,1.7-.336,3.889,3.889,0,0,1,2.064.536A3.443,3.443,0,0,1,58.384,21.5l-1.056.336a2.535,2.535,0,0,0-.984-1,2.9,2.9,0,0,0-2.592-.1,3.04,3.04,0,0,0-.96.7,3.2,3.2,0,0,0-.64,1.048,3.854,3.854,0,0,0,.008,2.656,3.388,3.388,0,0,0,.656,1.08,3.123,3.123,0,0,0,.968.72,2.691,2.691,0,0,0,1.176.264,2.87,2.87,0,0,0,.792-.112,3.06,3.06,0,0,0,.728-.312,2.618,2.618,0,0,0,.576-.456,1.483,1.483,0,0,0,.336-.544l1.072.32a2.727,2.727,0,0,1-.512.824,3.532,3.532,0,0,1-.792.656,3.886,3.886,0,0,1-1.008.432,4.289,4.289,0,0,1-1.144.152A4.049,4.049,0,0,1,52,26.872a4.383,4.383,0,0,1-.872-1.384A4.5,4.5,0,0,1,50.816,23.808ZM60.176,28V19.664h1.088V28Zm0-10.08v-1.6h1.088v1.6ZM65.76,28.16a2.945,2.945,0,0,1-1.1-.2,2.766,2.766,0,0,1-.88-.552,2.486,2.486,0,0,1-.792-1.84,2.053,2.053,0,0,1,.256-1.008,2.44,2.44,0,0,1,.72-.8,3.525,3.525,0,0,1,1.1-.52,5.084,5.084,0,0,1,1.408-.184,7.69,7.69,0,0,1,1.3.112,5.617,5.617,0,0,1,1.168.32v-.752a2.42,2.42,0,0,0-.624-1.752,2.286,2.286,0,0,0-1.728-.648,3.672,3.672,0,0,0-1.312.256,6.328,6.328,0,0,0-1.36.736l-.384-.72a5.629,5.629,0,0,1,3.136-1.088,3.365,3.365,0,0,1,2.464.88,3.253,3.253,0,0,1,.9,2.432v3.76q0,.448.4.448V28a2.594,2.594,0,0,1-.416.048.937.937,0,0,1-.648-.208.783.783,0,0,1-.248-.576l-.032-.656A3.781,3.781,0,0,1,67.64,27.76,4.455,4.455,0,0,1,65.76,28.16Zm.256-.832a3.762,3.762,0,0,0,1.56-.32,2.548,2.548,0,0,0,1.08-.848,1,1,0,0,0,.216-.312.8.8,0,0,0,.072-.312v-1.36a6.669,6.669,0,0,0-1.128-.32,6.314,6.314,0,0,0-1.192-.112,3.316,3.316,0,0,0-1.872.48,1.459,1.459,0,0,0-.72,1.264,1.726,1.726,0,0,0,.152.72,1.824,1.824,0,0,0,.416.584,1.948,1.948,0,0,0,.632.392A2.132,2.132,0,0,0,66.016,27.328ZM72.432,16.32H73.52v9.792a1,1,0,0,0,.256.728.956.956,0,0,0,.72.264,2.163,2.163,0,0,0,.416-.048,2.747,2.747,0,0,0,.448-.128l.192.88a3.591,3.591,0,0,1-.744.208,4.336,4.336,0,0,1-.76.08,1.617,1.617,0,0,1-1.184-.424,1.594,1.594,0,0,1-.432-1.192ZM80.32,28V19.664h1.088V28Zm0-10.08v-1.6h1.088v1.6ZM90.816,28H89.728V23.344a4.062,4.062,0,0,0-.44-2.16,1.5,1.5,0,0,0-1.352-.672,2.772,2.772,0,0,0-.96.176,3.236,3.236,0,0,0-.888.5,3.8,3.8,0,0,0-.728.76,2.979,2.979,0,0,0-.464.952V28H83.808V19.664H84.8v1.888a3.916,3.916,0,0,1,1.464-1.472,4.014,4.014,0,0,1,2.072-.56,2.454,2.454,0,0,1,1.168.256,1.993,1.993,0,0,1,.768.72,3.317,3.317,0,0,1,.416,1.136,7.975,7.975,0,0,1,.128,1.488Zm5.088.16a5.8,5.8,0,0,1-1.9-.32,4.576,4.576,0,0,1-1.6-.928l.5-.736a5.425,5.425,0,0,0,1.432.864,4.2,4.2,0,0,0,1.56.288A2.816,2.816,0,0,0,97.5,26.92a1.32,1.32,0,0,0,.6-1.16,1,1,0,0,0-.16-.584,1.385,1.385,0,0,0-.472-.408,3.685,3.685,0,0,0-.784-.312q-.472-.136-1.1-.28-.72-.176-1.248-.352a3.817,3.817,0,0,1-.872-.4,1.443,1.443,0,0,1-.512-.552,1.8,1.8,0,0,1-.168-.824,2.371,2.371,0,0,1,.248-1.1,2.251,2.251,0,0,1,.672-.792,3.053,3.053,0,0,1,.992-.472,4.437,4.437,0,0,1,1.208-.16,4.679,4.679,0,0,1,1.744.312,3.447,3.447,0,0,1,1.264.824l-.528.64a2.927,2.927,0,0,0-1.128-.72,4.04,4.04,0,0,0-1.384-.24,3.436,3.436,0,0,0-.8.088,1.926,1.926,0,0,0-.648.28,1.38,1.38,0,0,0-.44.488,1.442,1.442,0,0,0-.16.7,1.146,1.146,0,0,0,.112.544.956.956,0,0,0,.368.36,3,3,0,0,0,.648.272q.392.12.952.248.8.192,1.408.384a4.422,4.422,0,0,1,1.016.448,1.765,1.765,0,0,1,.616.624,1.8,1.8,0,0,1,.208.9,2.173,2.173,0,0,1-.88,1.824A3.807,3.807,0,0,1,95.9,28.16Zm9.024-.56q-.1.048-.28.128t-.424.16a4.963,4.963,0,0,1-.544.144,3.1,3.1,0,0,1-.64.064,2.326,2.326,0,0,1-.672-.1,1.567,1.567,0,0,1-.56-.3,1.457,1.457,0,0,1-.384-.5,1.627,1.627,0,0,1-.144-.7V20.528h-1.152v-.864h1.152V16.848h1.088v2.816h1.92v.864h-1.92v5.664a.864.864,0,0,0,.328.68,1.124,1.124,0,0,0,.68.216,2.043,2.043,0,0,0,.816-.152,3.6,3.6,0,0,0,.448-.216Zm1.36.4V19.664h1.088V28Zm0-10.08v-1.6h1.088v1.6Zm7.488,9.68q-.1.048-.28.128t-.424.16a4.963,4.963,0,0,1-.544.144,3.1,3.1,0,0,1-.64.064,2.326,2.326,0,0,1-.672-.1,1.567,1.567,0,0,1-.56-.3,1.457,1.457,0,0,1-.384-.5,1.627,1.627,0,0,1-.144-.7V20.528h-1.152v-.864h1.152V16.848h1.088v2.816h1.92v.864h-1.92v5.664a.864.864,0,0,0,.328.68,1.124,1.124,0,0,0,.68.216,2.043,2.043,0,0,0,.816-.152,3.6,3.6,0,0,0,.448-.216Zm3.968.56a2.346,2.346,0,0,1-2.024-.9,4.536,4.536,0,0,1-.664-2.7v-4.9h1.088v4.7q0,2.832,1.936,2.832a2.877,2.877,0,0,0,.944-.16,2.966,2.966,0,0,0,.856-.464,3.758,3.758,0,0,0,.7-.72,3.628,3.628,0,0,0,.5-.944V19.664h1.088v6.928q0,.448.384.448V28a1.983,1.983,0,0,1-.312.032h-.168a.869.869,0,0,1-.624-.272.965.965,0,0,1-.24-.688v-.96a3.88,3.88,0,0,1-1.48,1.512A3.946,3.946,0,0,1,117.744,28.16Zm10.9-.56q-.1.048-.28.128t-.424.16a4.963,4.963,0,0,1-.544.144,3.1,3.1,0,0,1-.64.064,2.326,2.326,0,0,1-.672-.1,1.567,1.567,0,0,1-.56-.3,1.457,1.457,0,0,1-.384-.5,1.627,1.627,0,0,1-.144-.7V20.528H123.84v-.864h1.152V16.848h1.088v2.816H128v.864h-1.92v5.664a.864.864,0,0,0,.328.68,1.124,1.124,0,0,0,.68.216,2.043,2.043,0,0,0,.816-.152,3.6,3.6,0,0,0,.448-.216ZM130,28V19.664h1.088V28Zm0-10.08v-1.6h1.088v1.6Zm7.04,10.24a3.953,3.953,0,0,1-1.664-.344,4.09,4.09,0,0,1-1.3-.936,4.247,4.247,0,0,1-.856-1.376,4.518,4.518,0,0,1-.3-1.648,4.458,4.458,0,0,1,.312-1.664,4.36,4.36,0,0,1,.864-1.376,4.2,4.2,0,0,1,1.3-.944,3.839,3.839,0,0,1,1.648-.352,3.892,3.892,0,0,1,1.656.352,4.169,4.169,0,0,1,1.312.944,4.36,4.36,0,0,1,.864,1.376,4.459,4.459,0,0,1,.312,1.664,4.518,4.518,0,0,1-.3,1.648,4.247,4.247,0,0,1-.856,1.376,4.065,4.065,0,0,1-1.312.936A4.008,4.008,0,0,1,137.04,28.16Zm-3.024-4.288a3.479,3.479,0,0,0,.24,1.3,3.539,3.539,0,0,0,.648,1.056,2.929,2.929,0,0,0,.96.712,2.761,2.761,0,0,0,1.176.256,2.691,2.691,0,0,0,1.176-.264,3.123,3.123,0,0,0,.968-.72,3.431,3.431,0,0,0,.656-1.064,3.684,3.684,0,0,0,0-2.616,3.409,3.409,0,0,0-.656-1.072,3.123,3.123,0,0,0-.968-.72,2.691,2.691,0,0,0-1.176-.264,2.64,2.64,0,0,0-1.168.264,3.1,3.1,0,0,0-.96.728,3.509,3.509,0,0,0-.656,1.08A3.6,3.6,0,0,0,134.016,23.872Zm16,4.128h-1.088V23.344a4.062,4.062,0,0,0-.44-2.16,1.5,1.5,0,0,0-1.352-.672,2.772,2.772,0,0,0-.96.176,3.237,3.237,0,0,0-.888.5,3.8,3.8,0,0,0-.728.76,2.979,2.979,0,0,0-.464.952V28h-1.088V19.664H144v1.888a3.916,3.916,0,0,1,1.464-1.472,4.014,4.014,0,0,1,2.072-.56,2.454,2.454,0,0,1,1.168.256,1.993,1.993,0,0,1,.768.72,3.317,3.317,0,0,1,.416,1.136,7.977,7.977,0,0,1,.128,1.488Zm5.088.16a5.8,5.8,0,0,1-1.9-.32,4.576,4.576,0,0,1-1.6-.928l.5-.736a5.424,5.424,0,0,0,1.432.864,4.2,4.2,0,0,0,1.56.288,2.816,2.816,0,0,0,1.608-.408,1.32,1.32,0,0,0,.6-1.16,1,1,0,0,0-.16-.584,1.385,1.385,0,0,0-.472-.408,3.684,3.684,0,0,0-.784-.312q-.472-.136-1.1-.28-.72-.176-1.248-.352a3.816,3.816,0,0,1-.872-.4,1.443,1.443,0,0,1-.512-.552,1.8,1.8,0,0,1-.168-.824,2.371,2.371,0,0,1,.248-1.1,2.251,2.251,0,0,1,.672-.792,3.053,3.053,0,0,1,.992-.472,4.437,4.437,0,0,1,1.208-.16,4.679,4.679,0,0,1,1.744.312,3.447,3.447,0,0,1,1.264.824l-.528.64a2.927,2.927,0,0,0-1.128-.72,4.04,4.04,0,0,0-1.384-.24,3.436,3.436,0,0,0-.8.088,1.926,1.926,0,0,0-.648.28,1.38,1.38,0,0,0-.44.488,1.442,1.442,0,0,0-.16.7,1.146,1.146,0,0,0,.112.544.956.956,0,0,0,.368.36,3,3,0,0,0,.648.272q.392.12.952.248.8.192,1.408.384a4.423,4.423,0,0,1,1.016.448,1.765,1.765,0,0,1,.616.624,1.8,1.8,0,0,1,.208.9,2.173,2.173,0,0,1-.88,1.824A3.807,3.807,0,0,1,155.1,28.16Z" transform="translate(861 2143)" fill="#707070"/>
    <g id="Group_1541" data-name="Group 1541">
      <circle id="Ellipse_53" data-name="Ellipse 53" cx="34" cy="34" r="34" transform="translate(765 2091)" fill="rgba(255,113,113,0.24)"/>
      <g id="money" transform="translate(783.64 2108)">
        <path id="Path_2010" data-name="Path 2010" d="M188.466,155.308a.531.531,0,0,0-.191-.007,1.268,1.268,0,0,1-1.121-1.257.558.558,0,0,0-1.115,0,2.386,2.386,0,0,0,1.754,2.3v.558a.558.558,0,0,0,1.115,0v-.524a2.381,2.381,0,0,0-.488-4.712,1.266,1.266,0,1,1,1.266-1.266.558.558,0,1,0,1.115,0,2.386,2.386,0,0,0-1.894-2.331v-.508a.558.558,0,1,0-1.115,0v.542a2.381,2.381,0,0,0,.627,4.679,1.265,1.265,0,0,1,.046,2.53Zm0,0" transform="translate(-172.734 -136.752)" fill="#ff7171"/>
        <path id="Path_2011" data-name="Path 2011" d="M104.195,114.579a8.087,8.087,0,1,0,8.087-8.087A8.087,8.087,0,0,0,104.195,114.579Zm8.087-6.972a6.972,6.972,0,1,1-6.972,6.972A6.972,6.972,0,0,1,112.282,107.607Zm0,0" transform="translate(-96.597 -99.068)" fill="#ff7171"/>
        <path id="Path_2012" data-name="Path 2012" d="M26.522,328.578l-4.369,2.064a3.558,3.558,0,0,0-3.034-1.872l-4.033-.111a4.259,4.259,0,0,1-1.833-.473l-.41-.213a7.238,7.238,0,0,0-6.7.007l.026-.93a.558.558,0,0,0-.542-.573L1.2,326.356a.557.557,0,0,0-.573.542L.36,336.6a.558.558,0,0,0,.542.573l4.422.122H5.34a.558.558,0,0,0,.558-.542l.013-.464,1.149-.615a1.971,1.971,0,0,1,1.471-.161l6.861,1.926.036.009a7.343,7.343,0,0,0,1.508.155,7.441,7.441,0,0,0,3.108-.678.514.514,0,0,0,.069-.038l9.947-6.434a.558.558,0,0,0,.183-.743,2.817,2.817,0,0,0-3.72-1.133Zm-25.032,7.5.236-8.59,3.307.091-.236,8.59Zm18.05-.146a6.323,6.323,0,0,1-3.867.432l-6.842-1.921a3.084,3.084,0,0,0-2.3.251l-.587.315L6.1,329.3a6.13,6.13,0,0,1,6.228-.332l.41.213a5.386,5.386,0,0,0,2.315.6l4.033.111a2.446,2.446,0,0,1,2.325,1.949l-6.008-.166a.558.558,0,0,0-.031,1.115l6.63.182h.016a.558.558,0,0,0,.557-.542,3.539,3.539,0,0,0-.054-.724l4.481-2.117.013-.006a1.7,1.7,0,0,1,1.927.27Zm0,0" transform="translate(0 -303.605)" fill="#ff7171"/>
        <path id="Path_2013" data-name="Path 2013" d="M213.318,5.856V.558a.558.558,0,0,0-1.115,0v5.3a.558.558,0,0,0,1.115,0Zm0,0" transform="translate(-197.075)" fill="#ff7171"/>
        <path id="Path_2014" data-name="Path 2014" d="M273.318,43.067v-2.51a.558.558,0,0,0-1.115,0v2.51a.558.558,0,0,0,1.115,0Zm0,0" transform="translate(-252.892 -37.212)" fill="#ff7171"/>
        <path id="Path_2015" data-name="Path 2015" d="M153.318,43.067v-2.51a.558.558,0,1,0-1.115,0v2.51a.558.558,0,1,0,1.115,0Zm0,0" transform="translate(-141.258 -37.212)" fill="#ff7171"/>
      </g>
    </g>
  </g>
</svg>
