<svg xmlns="http://www.w3.org/2000/svg" xmlns:xlink="http://www.w3.org/1999/xlink" width="90" height="90" viewBox="0 0 90 90">
  <defs>
    <filter id="Ellipse_2735" x="0" y="0" width="90" height="90" filterUnits="userSpaceOnUse">
      <feOffset dy="3" input="SourceAlpha"/>
      <feGaussianBlur stdDeviation="3" result="blur"/>
      <feFlood flood-opacity="0.161"/>
      <feComposite operator="in" in2="blur"/>
      <feComposite in="SourceGraphic"/>
    </filter>
    <linearGradient id="linear-gradient" x1="2.776" y1="-0.595" x2="0.148" y2="2.631" gradientUnits="objectBoundingBox">
      <stop offset="0" stop-color="#f905f5"/>
      <stop offset="1" stop-color="#17c9f2"/>
    </linearGradient>
  </defs>
  <g id="Group_52" data-name="Group 52" transform="translate(-2021 -156)">
    <g transform="matrix(1, 0, 0, 1, 2021, 156)" filter="url(#Ellipse_2735)">
      <circle id="Ellipse_2735-2" data-name="Ellipse 2735" cx="36" cy="36" r="36" transform="translate(9 6)" fill="#fff"/>
    </g>
    <g id="customer-support" transform="translate(2049.636 179.455)">
      <path id="Path_852" data-name="Path 852" d="M16.28,13.565a.617.617,0,0,1,.285.162l8.792,8.792,1.591-1.591-8.792-8.792a.617.617,0,0,1-.162-.286l-.553-2.206-3.668-2.1-1.8,1.8,2.1,3.671Zm0,0" transform="translate(-11.742 -7.394)" fill="url(#linear-gradient)"/>
      <path id="Path_853" data-name="Path 853" d="M12.731,26.226,26.682,12.275a.615.615,0,0,1,.584-.162A6.119,6.119,0,0,0,34.9,6.152c0-.115,0-.232-.011-.349L31.648,9.048a.615.615,0,0,1-.629.149l-3.691-1.23a.614.614,0,0,1-.389-.389l-1.23-3.691a.614.614,0,0,1,.149-.629L29.1.012a6.121,6.121,0,0,0-6.31,7.627.615.615,0,0,1-.162.585L8.68,22.175a.621.621,0,0,1-.584.162,6.06,6.06,0,0,0-1.487-.191,6.193,6.193,0,1,0,5.96,4.665A.616.616,0,0,1,12.731,26.226ZM8.106,30.758H5.112L3.635,28.3l1.477-2.461H8.106L9.582,28.3Zm2.374-7.2L24.012,10.023l.87.87L11.349,24.426Zm0,0" transform="translate(-0.375 -0.001)" fill="url(#linear-gradient)"/>
      <path id="Path_854" data-name="Path 854" d="M1459.5,1459.944a3.73,3.73,0,0,0,4.8-4.8Zm0,0" transform="translate(-1430.014 -1425.735)" fill="url(#linear-gradient)"/>
      <path id="Path_855" data-name="Path 855" d="M885.258,875.543l-6.909-6.912a1.92,1.92,0,0,1-2.706-2.7l-.978-.98-5.282,5.282.984.984a1.92,1.92,0,0,1,2.707,2.7l6.9,6.907c.075.075.155.145.235.213l5.259-5.259C885.4,875.7,885.333,875.619,885.258,875.543Zm-3.647,2.5L875.46,871.9l.87-.87,6.151,6.152Zm0,0" transform="translate(-851.822 -847.47)" fill="url(#linear-gradient)"/>
    </g>
  </g>
</svg>
